G04 This is an RS-274x file exported by *
G04 gerbv version 2.6.2 *
G04 More information is available about gerbv at *
G04 http://gerbv.geda-project.org/ *
G04 --End of header info--*
%MOIN*%
%FSLAX34Y34*%
%IPPOS*%
G04 --Define apertures--*
%ADD10C,0.0039*%
G04 --Start main section--*
G54D10*
G36*
G01X0038110Y-042175D02*
G01X0038145Y-042182D01*
G01X0038187Y-042199D01*
G01X0038246Y-042224D01*
G01X0038336Y-042284D01*
G01X0038413Y-042361D01*
G01X0038473Y-042451D01*
G01X0038493Y-042500D01*
G01X0038512Y-042546D01*
G01X0038515Y-042552D01*
G01X0038536Y-042658D01*
G01X0038536Y-042767D01*
G01X0038515Y-042873D01*
G01X0038473Y-042974D01*
G01X0038413Y-043064D01*
G01X0038336Y-043141D01*
G01X0038246Y-043201D01*
G01X0038187Y-043226D01*
G01X0038145Y-043243D01*
G01X0038110Y-043250D01*
G01X0038039Y-043264D01*
G01X0037930Y-043264D01*
G01X0037859Y-043250D01*
G01X0037823Y-043243D01*
G01X0037782Y-043226D01*
G01X0037723Y-043201D01*
G01X0037633Y-043141D01*
G01X0037556Y-043064D01*
G01X0037495Y-042974D01*
G01X0037454Y-042873D01*
G01X0037433Y-042767D01*
G01X0037433Y-042658D01*
G01X0037454Y-042552D01*
G01X0037456Y-042546D01*
G01X0037475Y-042500D01*
G01X0037495Y-042451D01*
G01X0037556Y-042361D01*
G01X0037633Y-042284D01*
G01X0037723Y-042224D01*
G01X0037782Y-042199D01*
G01X0037823Y-042182D01*
G01X0037859Y-042175D01*
G01X0037930Y-042161D01*
G01X0038039Y-042161D01*
G01X0038110Y-042175D01*
G01X0038110Y-042175D01*
G37*
G36*
G01X0020389Y-042175D02*
G01X0020425Y-042182D01*
G01X0020466Y-042199D01*
G01X0020525Y-042224D01*
G01X0020615Y-042284D01*
G01X0020692Y-042361D01*
G01X0020753Y-042451D01*
G01X0020773Y-042500D01*
G01X0020792Y-042546D01*
G01X0020794Y-042552D01*
G01X0020815Y-042658D01*
G01X0020815Y-042767D01*
G01X0020794Y-042873D01*
G01X0020753Y-042974D01*
G01X0020692Y-043064D01*
G01X0020615Y-043141D01*
G01X0020525Y-043201D01*
G01X0020466Y-043226D01*
G01X0020425Y-043243D01*
G01X0020389Y-043250D01*
G01X0020318Y-043264D01*
G01X0020209Y-043264D01*
G01X0020138Y-043250D01*
G01X0020103Y-043243D01*
G01X0020061Y-043226D01*
G01X0020003Y-043201D01*
G01X0019912Y-043141D01*
G01X0019835Y-043064D01*
G01X0019775Y-042974D01*
G01X0019733Y-042873D01*
G01X0019712Y-042767D01*
G01X0019712Y-042658D01*
G01X0019733Y-042552D01*
G01X0019736Y-042546D01*
G01X0019755Y-042500D01*
G01X0019775Y-042451D01*
G01X0019835Y-042361D01*
G01X0019912Y-042284D01*
G01X0020003Y-042224D01*
G01X0020061Y-042199D01*
G01X0020103Y-042182D01*
G01X0020138Y-042175D01*
G01X0020209Y-042161D01*
G01X0020318Y-042161D01*
G01X0020389Y-042175D01*
G01X0020389Y-042175D01*
G37*
G36*
G01X0057791Y-042175D02*
G01X0057826Y-042182D01*
G01X0057868Y-042199D01*
G01X0057927Y-042224D01*
G01X0058017Y-042284D01*
G01X0058094Y-042361D01*
G01X0058154Y-042451D01*
G01X0058174Y-042500D01*
G01X0058193Y-042546D01*
G01X0058196Y-042552D01*
G01X0058217Y-042658D01*
G01X0058217Y-042767D01*
G01X0058196Y-042873D01*
G01X0058154Y-042974D01*
G01X0058094Y-043064D01*
G01X0058017Y-043141D01*
G01X0057927Y-043201D01*
G01X0057868Y-043226D01*
G01X0057826Y-043243D01*
G01X0057791Y-043250D01*
G01X0057720Y-043264D01*
G01X0057611Y-043264D01*
G01X0057540Y-043250D01*
G01X0057504Y-043243D01*
G01X0057463Y-043226D01*
G01X0057404Y-043201D01*
G01X0057314Y-043141D01*
G01X0057237Y-043064D01*
G01X0057177Y-042974D01*
G01X0057135Y-042873D01*
G01X0057114Y-042767D01*
G01X0057114Y-042658D01*
G01X0057135Y-042552D01*
G01X0057137Y-042546D01*
G01X0057157Y-042500D01*
G01X0057177Y-042451D01*
G01X0057237Y-042361D01*
G01X0057314Y-042284D01*
G01X0057404Y-042224D01*
G01X0057463Y-042199D01*
G01X0057504Y-042182D01*
G01X0057540Y-042175D01*
G01X0057611Y-042161D01*
G01X0057720Y-042161D01*
G01X0057791Y-042175D01*
G01X0057791Y-042175D01*
G37*
G36*
G01X0051587Y-042501D02*
G01X0051600Y-042505D01*
G01X0051612Y-042512D01*
G01X0051623Y-042521D01*
G01X0051632Y-042531D01*
G01X0051638Y-042543D01*
G01X0051642Y-042557D01*
G01X0051644Y-042573D01*
G01X0051644Y-043096D01*
G01X0051642Y-043113D01*
G01X0051638Y-043126D01*
G01X0051632Y-043138D01*
G01X0051623Y-043149D01*
G01X0051612Y-043158D01*
G01X0051600Y-043164D01*
G01X0051587Y-043168D01*
G01X0051571Y-043170D01*
G01X0050368Y-043170D01*
G01X0050352Y-043168D01*
G01X0050339Y-043164D01*
G01X0050327Y-043158D01*
G01X0050316Y-043149D01*
G01X0050307Y-043138D01*
G01X0050300Y-043126D01*
G01X0050296Y-043113D01*
G01X0050295Y-043096D01*
G01X0050295Y-042573D01*
G01X0050296Y-042557D01*
G01X0050300Y-042543D01*
G01X0050307Y-042531D01*
G01X0050316Y-042521D01*
G01X0050327Y-042512D01*
G01X0050339Y-042505D01*
G01X0050352Y-042501D01*
G01X0050368Y-042500D01*
G01X0051571Y-042500D01*
G01X0051587Y-042501D01*
G01X0051587Y-042501D01*
G37*
G36*
G01X0053585Y-042501D02*
G01X0053598Y-042505D01*
G01X0053610Y-042512D01*
G01X0053621Y-042521D01*
G01X0053630Y-042531D01*
G01X0053637Y-042543D01*
G01X0053641Y-042557D01*
G01X0053642Y-042573D01*
G01X0053642Y-043096D01*
G01X0053641Y-043113D01*
G01X0053637Y-043126D01*
G01X0053630Y-043138D01*
G01X0053621Y-043149D01*
G01X0053610Y-043158D01*
G01X0053598Y-043164D01*
G01X0053585Y-043168D01*
G01X0053569Y-043170D01*
G01X0052366Y-043170D01*
G01X0052350Y-043168D01*
G01X0052337Y-043164D01*
G01X0052325Y-043158D01*
G01X0052314Y-043149D01*
G01X0052305Y-043138D01*
G01X0052299Y-043126D01*
G01X0052295Y-043113D01*
G01X0052293Y-043096D01*
G01X0052293Y-042573D01*
G01X0052295Y-042557D01*
G01X0052299Y-042543D01*
G01X0052305Y-042531D01*
G01X0052314Y-042521D01*
G01X0052325Y-042512D01*
G01X0052337Y-042505D01*
G01X0052350Y-042501D01*
G01X0052366Y-042500D01*
G01X0053569Y-042500D01*
G01X0053585Y-042501D01*
G01X0053585Y-042501D01*
G37*
G36*
G01X0033224Y-042688D02*
G01X0033239Y-042693D01*
G01X0033253Y-042700D01*
G01X0033265Y-042710D01*
G01X0033274Y-042722D01*
G01X0033282Y-042735D01*
G01X0033286Y-042750D01*
G01X0033288Y-042768D01*
G01X0033288Y-043019D01*
G01X0033286Y-043037D01*
G01X0033282Y-043052D01*
G01X0033274Y-043066D01*
G01X0033265Y-043077D01*
G01X0033253Y-043087D01*
G01X0033239Y-043095D01*
G01X0033224Y-043099D01*
G01X0033206Y-043101D01*
G01X0032916Y-043101D01*
G01X0032898Y-043099D01*
G01X0032883Y-043095D01*
G01X0032869Y-043087D01*
G01X0032858Y-043077D01*
G01X0032848Y-043066D01*
G01X0032840Y-043052D01*
G01X0032836Y-043037D01*
G01X0032834Y-043019D01*
G01X0032834Y-042768D01*
G01X0032836Y-042750D01*
G01X0032840Y-042735D01*
G01X0032848Y-042722D01*
G01X0032858Y-042710D01*
G01X0032869Y-042700D01*
G01X0032883Y-042693D01*
G01X0032898Y-042688D01*
G01X0032916Y-042687D01*
G01X0033206Y-042687D01*
G01X0033224Y-042688D01*
G01X0033224Y-042688D01*
G37*
G36*
G01X0032535Y-042688D02*
G01X0032550Y-042693D01*
G01X0032564Y-042700D01*
G01X0032576Y-042710D01*
G01X0032585Y-042722D01*
G01X0032593Y-042735D01*
G01X0032597Y-042750D01*
G01X0032599Y-042768D01*
G01X0032599Y-043019D01*
G01X0032597Y-043037D01*
G01X0032593Y-043052D01*
G01X0032585Y-043066D01*
G01X0032576Y-043077D01*
G01X0032564Y-043087D01*
G01X0032550Y-043095D01*
G01X0032535Y-043099D01*
G01X0032517Y-043101D01*
G01X0032227Y-043101D01*
G01X0032209Y-043099D01*
G01X0032194Y-043095D01*
G01X0032180Y-043087D01*
G01X0032169Y-043077D01*
G01X0032159Y-043066D01*
G01X0032152Y-043052D01*
G01X0032147Y-043037D01*
G01X0032145Y-043019D01*
G01X0032145Y-042768D01*
G01X0032147Y-042750D01*
G01X0032152Y-042735D01*
G01X0032159Y-042722D01*
G01X0032169Y-042710D01*
G01X0032180Y-042700D01*
G01X0032194Y-042693D01*
G01X0032209Y-042688D01*
G01X0032227Y-042687D01*
G01X0032517Y-042687D01*
G01X0032535Y-042688D01*
G01X0032535Y-042688D01*
G37*
G36*
G01X0034333Y-040454D02*
G01X0034346Y-040458D01*
G01X0034359Y-040465D01*
G01X0034369Y-040473D01*
G01X0034378Y-040484D01*
G01X0034385Y-040496D01*
G01X0034389Y-040509D01*
G01X0034390Y-040526D01*
G01X0034390Y-041049D01*
G01X0034389Y-041065D01*
G01X0034385Y-041079D01*
G01X0034378Y-041091D01*
G01X0034369Y-041102D01*
G01X0034359Y-041110D01*
G01X0034346Y-041117D01*
G01X0034333Y-041121D01*
G01X0034317Y-041122D01*
G01X0033114Y-041122D01*
G01X0033098Y-041121D01*
G01X0033085Y-041117D01*
G01X0033073Y-041110D01*
G01X0033062Y-041102D01*
G01X0033053Y-041091D01*
G01X0033047Y-041079D01*
G01X0033043Y-041065D01*
G01X0033041Y-041049D01*
G01X0033041Y-040526D01*
G01X0033043Y-040509D01*
G01X0033047Y-040496D01*
G01X0033053Y-040484D01*
G01X0033062Y-040473D01*
G01X0033073Y-040465D01*
G01X0033085Y-040458D01*
G01X0033098Y-040454D01*
G01X0033114Y-040452D01*
G01X0034317Y-040452D01*
G01X0034333Y-040454D01*
G01X0034333Y-040454D01*
G37*
G36*
G01X0032335Y-040454D02*
G01X0032348Y-040458D01*
G01X0032360Y-040465D01*
G01X0032371Y-040473D01*
G01X0032380Y-040484D01*
G01X0032387Y-040496D01*
G01X0032391Y-040509D01*
G01X0032392Y-040526D01*
G01X0032392Y-041049D01*
G01X0032391Y-041065D01*
G01X0032387Y-041079D01*
G01X0032380Y-041091D01*
G01X0032371Y-041102D01*
G01X0032360Y-041110D01*
G01X0032348Y-041117D01*
G01X0032335Y-041121D01*
G01X0032319Y-041122D01*
G01X0031116Y-041122D01*
G01X0031100Y-041121D01*
G01X0031087Y-041117D01*
G01X0031075Y-041110D01*
G01X0031064Y-041102D01*
G01X0031055Y-041091D01*
G01X0031049Y-041079D01*
G01X0031045Y-041065D01*
G01X0031043Y-041049D01*
G01X0031043Y-040526D01*
G01X0031045Y-040509D01*
G01X0031049Y-040496D01*
G01X0031055Y-040484D01*
G01X0031064Y-040473D01*
G01X0031075Y-040465D01*
G01X0031087Y-040458D01*
G01X0031100Y-040454D01*
G01X0031116Y-040452D01*
G01X0032319Y-040452D01*
G01X0032335Y-040454D01*
G01X0032335Y-040454D01*
G37*
G36*
G01X0017776Y-038881D02*
G01X0017836Y-038886D01*
G01X0017913Y-038910D01*
G01X0017951Y-038921D01*
G01X0017990Y-038942D01*
G01X0018057Y-038978D01*
G01X0018150Y-039054D01*
G01X0018227Y-039147D01*
G01X0018249Y-039190D01*
G01X0018283Y-039253D01*
G01X0018283Y-039253D01*
G01X0018318Y-039368D01*
G01X0018330Y-039488D01*
G01X0018318Y-039608D01*
G01X0018295Y-039685D01*
G01X0018283Y-039723D01*
G01X0018263Y-039762D01*
G01X0018227Y-039829D01*
G01X0018150Y-039922D01*
G01X0018057Y-039998D01*
G01X0017990Y-040034D01*
G01X0017951Y-040055D01*
G01X0017913Y-040067D01*
G01X0017836Y-040090D01*
G01X0017776Y-040096D01*
G01X0017747Y-040099D01*
G01X0017293Y-040099D01*
G01X0017263Y-040096D01*
G01X0017203Y-040090D01*
G01X0017126Y-040067D01*
G01X0017088Y-040055D01*
G01X0017049Y-040034D01*
G01X0016982Y-039998D01*
G01X0016889Y-039922D01*
G01X0016813Y-039829D01*
G01X0016777Y-039762D01*
G01X0016756Y-039723D01*
G01X0016744Y-039685D01*
G01X0016721Y-039608D01*
G01X0016709Y-039488D01*
G01X0016721Y-039368D01*
G01X0016756Y-039253D01*
G01X0016756Y-039253D01*
G01X0016790Y-039190D01*
G01X0016813Y-039147D01*
G01X0016889Y-039054D01*
G01X0016982Y-038978D01*
G01X0017049Y-038942D01*
G01X0017088Y-038921D01*
G01X0017126Y-038910D01*
G01X0017203Y-038886D01*
G01X0017263Y-038881D01*
G01X0017293Y-038878D01*
G01X0017747Y-038878D01*
G01X0017776Y-038881D01*
G01X0017776Y-038881D01*
G37*
G36*
G01X0029051Y-039460D02*
G01X0029066Y-039464D01*
G01X0029079Y-039472D01*
G01X0029091Y-039482D01*
G01X0029101Y-039493D01*
G01X0029108Y-039507D01*
G01X0029113Y-039522D01*
G01X0029115Y-039540D01*
G01X0029115Y-039791D01*
G01X0029113Y-039809D01*
G01X0029108Y-039824D01*
G01X0029101Y-039837D01*
G01X0029091Y-039849D01*
G01X0029079Y-039859D01*
G01X0029066Y-039866D01*
G01X0029051Y-039871D01*
G01X0029033Y-039872D01*
G01X0028742Y-039872D01*
G01X0028725Y-039871D01*
G01X0028710Y-039866D01*
G01X0028696Y-039859D01*
G01X0028684Y-039849D01*
G01X0028675Y-039837D01*
G01X0028667Y-039824D01*
G01X0028663Y-039809D01*
G01X0028661Y-039791D01*
G01X0028661Y-039540D01*
G01X0028663Y-039522D01*
G01X0028667Y-039507D01*
G01X0028675Y-039493D01*
G01X0028684Y-039482D01*
G01X0028696Y-039472D01*
G01X0028710Y-039464D01*
G01X0028725Y-039460D01*
G01X0028742Y-039458D01*
G01X0029033Y-039458D01*
G01X0029051Y-039460D01*
G01X0029051Y-039460D01*
G37*
G36*
G01X0028362Y-039460D02*
G01X0028377Y-039464D01*
G01X0028390Y-039472D01*
G01X0028402Y-039482D01*
G01X0028412Y-039493D01*
G01X0028419Y-039507D01*
G01X0028424Y-039522D01*
G01X0028426Y-039540D01*
G01X0028426Y-039791D01*
G01X0028424Y-039809D01*
G01X0028419Y-039824D01*
G01X0028412Y-039837D01*
G01X0028402Y-039849D01*
G01X0028390Y-039859D01*
G01X0028377Y-039866D01*
G01X0028362Y-039871D01*
G01X0028344Y-039872D01*
G01X0028053Y-039872D01*
G01X0028036Y-039871D01*
G01X0028021Y-039866D01*
G01X0028007Y-039859D01*
G01X0027995Y-039849D01*
G01X0027986Y-039837D01*
G01X0027978Y-039824D01*
G01X0027974Y-039809D01*
G01X0027972Y-039791D01*
G01X0027972Y-039540D01*
G01X0027974Y-039522D01*
G01X0027978Y-039507D01*
G01X0027986Y-039493D01*
G01X0027995Y-039482D01*
G01X0028007Y-039472D01*
G01X0028021Y-039464D01*
G01X0028036Y-039460D01*
G01X0028053Y-039458D01*
G01X0028344Y-039458D01*
G01X0028362Y-039460D01*
G01X0028362Y-039460D01*
G37*
G36*
G01X0024215Y-038722D02*
G01X0024228Y-038726D01*
G01X0024240Y-038732D01*
G01X0024251Y-038741D01*
G01X0024260Y-038752D01*
G01X0024266Y-038764D01*
G01X0024270Y-038777D01*
G01X0024272Y-038793D01*
G01X0024272Y-039317D01*
G01X0024270Y-039333D01*
G01X0024266Y-039346D01*
G01X0024260Y-039359D01*
G01X0024251Y-039369D01*
G01X0024240Y-039378D01*
G01X0024228Y-039385D01*
G01X0024215Y-039389D01*
G01X0024199Y-039390D01*
G01X0022996Y-039390D01*
G01X0022980Y-039389D01*
G01X0022967Y-039385D01*
G01X0022954Y-039378D01*
G01X0022944Y-039369D01*
G01X0022935Y-039359D01*
G01X0022928Y-039346D01*
G01X0022924Y-039333D01*
G01X0022923Y-039317D01*
G01X0022923Y-038793D01*
G01X0022924Y-038777D01*
G01X0022928Y-038764D01*
G01X0022935Y-038752D01*
G01X0022944Y-038741D01*
G01X0022954Y-038732D01*
G01X0022967Y-038726D01*
G01X0022980Y-038722D01*
G01X0022996Y-038720D01*
G01X0024199Y-038720D01*
G01X0024215Y-038722D01*
G01X0024215Y-038722D01*
G37*
G36*
G01X0022217Y-038722D02*
G01X0022230Y-038726D01*
G01X0022242Y-038732D01*
G01X0022253Y-038741D01*
G01X0022262Y-038752D01*
G01X0022268Y-038764D01*
G01X0022272Y-038777D01*
G01X0022274Y-038793D01*
G01X0022274Y-039317D01*
G01X0022272Y-039333D01*
G01X0022268Y-039346D01*
G01X0022262Y-039359D01*
G01X0022253Y-039369D01*
G01X0022242Y-039378D01*
G01X0022230Y-039385D01*
G01X0022217Y-039389D01*
G01X0022201Y-039390D01*
G01X0020998Y-039390D01*
G01X0020982Y-039389D01*
G01X0020969Y-039385D01*
G01X0020956Y-039378D01*
G01X0020946Y-039369D01*
G01X0020937Y-039359D01*
G01X0020930Y-039346D01*
G01X0020926Y-039333D01*
G01X0020925Y-039317D01*
G01X0020925Y-038793D01*
G01X0020926Y-038777D01*
G01X0020930Y-038764D01*
G01X0020937Y-038752D01*
G01X0020946Y-038741D01*
G01X0020956Y-038732D01*
G01X0020969Y-038726D01*
G01X0020982Y-038722D01*
G01X0020998Y-038720D01*
G01X0022201Y-038720D01*
G01X0022217Y-038722D01*
G01X0022217Y-038722D01*
G37*
G36*
G01X0044533Y-038751D02*
G01X0044548Y-038756D01*
G01X0044562Y-038763D01*
G01X0044574Y-038773D01*
G01X0044583Y-038785D01*
G01X0044591Y-038798D01*
G01X0044595Y-038813D01*
G01X0044597Y-038831D01*
G01X0044597Y-039122D01*
G01X0044595Y-039140D01*
G01X0044591Y-039154D01*
G01X0044583Y-039168D01*
G01X0044574Y-039180D01*
G01X0044562Y-039190D01*
G01X0044548Y-039197D01*
G01X0044533Y-039201D01*
G01X0044515Y-039203D01*
G01X0044264Y-039203D01*
G01X0044246Y-039201D01*
G01X0044231Y-039197D01*
G01X0044218Y-039190D01*
G01X0044206Y-039180D01*
G01X0044196Y-039168D01*
G01X0044189Y-039154D01*
G01X0044184Y-039140D01*
G01X0044183Y-039122D01*
G01X0044183Y-038831D01*
G01X0044184Y-038813D01*
G01X0044189Y-038798D01*
G01X0044196Y-038785D01*
G01X0044206Y-038773D01*
G01X0044218Y-038763D01*
G01X0044231Y-038756D01*
G01X0044246Y-038751D01*
G01X0044264Y-038750D01*
G01X0044515Y-038750D01*
G01X0044533Y-038751D01*
G01X0044533Y-038751D01*
G37*
G36*
G01X0035675Y-038702D02*
G01X0035690Y-038707D01*
G01X0035703Y-038714D01*
G01X0035715Y-038724D01*
G01X0035725Y-038736D01*
G01X0035732Y-038749D01*
G01X0035737Y-038764D01*
G01X0035739Y-038782D01*
G01X0035739Y-039073D01*
G01X0035737Y-039090D01*
G01X0035732Y-039105D01*
G01X0035725Y-039119D01*
G01X0035715Y-039131D01*
G01X0035703Y-039140D01*
G01X0035690Y-039148D01*
G01X0035675Y-039152D01*
G01X0035657Y-039154D01*
G01X0035406Y-039154D01*
G01X0035388Y-039152D01*
G01X0035373Y-039148D01*
G01X0035360Y-039140D01*
G01X0035348Y-039131D01*
G01X0035338Y-039119D01*
G01X0035331Y-039105D01*
G01X0035326Y-039090D01*
G01X0035324Y-039073D01*
G01X0035324Y-038782D01*
G01X0035326Y-038764D01*
G01X0035331Y-038749D01*
G01X0035338Y-038736D01*
G01X0035348Y-038724D01*
G01X0035360Y-038714D01*
G01X0035373Y-038707D01*
G01X0035388Y-038702D01*
G01X0035406Y-038700D01*
G01X0035657Y-038700D01*
G01X0035675Y-038702D01*
G01X0035675Y-038702D01*
G37*
G36*
G01X0038241Y-039016D02*
G01X0037610Y-039016D01*
G01X0037610Y-038149D01*
G01X0038241Y-038149D01*
G01X0038241Y-039016D01*
G01X0038241Y-039016D01*
G37*
G36*
G01X0046902Y-039016D02*
G01X0046271Y-039016D01*
G01X0046271Y-038149D01*
G01X0046902Y-038149D01*
G01X0046902Y-039016D01*
G01X0046902Y-039016D01*
G37*
G36*
G01X0046052Y-039016D02*
G01X0045027Y-039016D01*
G01X0045027Y-038149D01*
G01X0046052Y-038149D01*
G01X0046052Y-039016D01*
G01X0046052Y-039016D01*
G37*
G36*
G01X0028729Y-039016D02*
G01X0027704Y-039016D01*
G01X0027704Y-038149D01*
G01X0028729Y-038149D01*
G01X0028729Y-039016D01*
G01X0028729Y-039016D01*
G37*
G36*
G01X0029579Y-039016D02*
G01X0028948Y-039016D01*
G01X0028948Y-038149D01*
G01X0029579Y-038149D01*
G01X0029579Y-039016D01*
G01X0029579Y-039016D01*
G37*
G36*
G01X0037390Y-039016D02*
G01X0036366Y-039016D01*
G01X0036366Y-038149D01*
G01X0037390Y-038149D01*
G01X0037390Y-039016D01*
G01X0037390Y-039016D01*
G37*
G36*
G01X0044533Y-038062D02*
G01X0044548Y-038067D01*
G01X0044562Y-038074D01*
G01X0044574Y-038084D01*
G01X0044583Y-038096D01*
G01X0044591Y-038109D01*
G01X0044595Y-038124D01*
G01X0044597Y-038142D01*
G01X0044597Y-038433D01*
G01X0044595Y-038451D01*
G01X0044591Y-038465D01*
G01X0044583Y-038479D01*
G01X0044574Y-038491D01*
G01X0044562Y-038501D01*
G01X0044548Y-038508D01*
G01X0044533Y-038512D01*
G01X0044515Y-038514D01*
G01X0044264Y-038514D01*
G01X0044246Y-038512D01*
G01X0044231Y-038508D01*
G01X0044218Y-038501D01*
G01X0044206Y-038491D01*
G01X0044196Y-038479D01*
G01X0044189Y-038465D01*
G01X0044184Y-038451D01*
G01X0044183Y-038433D01*
G01X0044183Y-038142D01*
G01X0044184Y-038124D01*
G01X0044189Y-038109D01*
G01X0044196Y-038096D01*
G01X0044206Y-038084D01*
G01X0044218Y-038074D01*
G01X0044231Y-038067D01*
G01X0044246Y-038062D01*
G01X0044264Y-038061D01*
G01X0044515Y-038061D01*
G01X0044533Y-038062D01*
G01X0044533Y-038062D01*
G37*
G36*
G01X0035675Y-038013D02*
G01X0035690Y-038018D01*
G01X0035703Y-038025D01*
G01X0035715Y-038035D01*
G01X0035725Y-038047D01*
G01X0035732Y-038060D01*
G01X0035737Y-038075D01*
G01X0035739Y-038093D01*
G01X0035739Y-038384D01*
G01X0035737Y-038401D01*
G01X0035732Y-038416D01*
G01X0035725Y-038430D01*
G01X0035715Y-038442D01*
G01X0035703Y-038451D01*
G01X0035690Y-038459D01*
G01X0035675Y-038463D01*
G01X0035657Y-038465D01*
G01X0035406Y-038465D01*
G01X0035388Y-038463D01*
G01X0035373Y-038459D01*
G01X0035360Y-038451D01*
G01X0035348Y-038442D01*
G01X0035338Y-038430D01*
G01X0035331Y-038416D01*
G01X0035326Y-038401D01*
G01X0035324Y-038384D01*
G01X0035324Y-038093D01*
G01X0035326Y-038075D01*
G01X0035331Y-038060D01*
G01X0035338Y-038047D01*
G01X0035348Y-038035D01*
G01X0035360Y-038025D01*
G01X0035373Y-038018D01*
G01X0035388Y-038013D01*
G01X0035406Y-038011D01*
G01X0035657Y-038011D01*
G01X0035675Y-038013D01*
G01X0035675Y-038013D01*
G37*
G36*
G01X0020321Y-037954D02*
G01X0020335Y-037959D01*
G01X0020349Y-037966D01*
G01X0020361Y-037976D01*
G01X0020371Y-037988D01*
G01X0020378Y-038001D01*
G01X0020383Y-038016D01*
G01X0020384Y-038034D01*
G01X0020384Y-038325D01*
G01X0020383Y-038342D01*
G01X0020378Y-038357D01*
G01X0020371Y-038371D01*
G01X0020361Y-038383D01*
G01X0020349Y-038392D01*
G01X0020335Y-038400D01*
G01X0020321Y-038404D01*
G01X0020303Y-038406D01*
G01X0020051Y-038406D01*
G01X0020034Y-038404D01*
G01X0020019Y-038400D01*
G01X0020005Y-038392D01*
G01X0019993Y-038383D01*
G01X0019984Y-038371D01*
G01X0019976Y-038357D01*
G01X0019972Y-038342D01*
G01X0019970Y-038325D01*
G01X0019970Y-038034D01*
G01X0019972Y-038016D01*
G01X0019976Y-038001D01*
G01X0019984Y-037988D01*
G01X0019993Y-037976D01*
G01X0020005Y-037966D01*
G01X0020019Y-037959D01*
G01X0020034Y-037954D01*
G01X0020051Y-037952D01*
G01X0020303Y-037952D01*
G01X0020321Y-037954D01*
G01X0020321Y-037954D01*
G37*
G36*
G01X0018798Y-037623D02*
G01X0018798Y-037623D01*
G01X0018798Y-037623D01*
G01X0018868Y-037645D01*
G01X0018868Y-037645D01*
G01X0018933Y-037679D01*
G01X0018990Y-037726D01*
G01X0019037Y-037783D01*
G01X0019072Y-037848D01*
G01X0019093Y-037919D01*
G01X0019101Y-037992D01*
G01X0019093Y-038066D01*
G01X0019093Y-038066D01*
G01X0019093Y-038066D01*
G01X0019076Y-038124D01*
G01X0019072Y-038136D01*
G01X0019037Y-038201D01*
G01X0018990Y-038258D01*
G01X0018933Y-038305D01*
G01X0018933Y-038305D01*
G01X0018868Y-038340D01*
G01X0018798Y-038361D01*
G01X0018798Y-038361D01*
G01X0018798Y-038361D01*
G01X0018743Y-038367D01*
G01X0018430Y-038367D01*
G01X0018375Y-038361D01*
G01X0018375Y-038361D01*
G01X0018375Y-038361D01*
G01X0018305Y-038340D01*
G01X0018240Y-038305D01*
G01X0018240Y-038305D01*
G01X0018183Y-038258D01*
G01X0018136Y-038201D01*
G01X0018101Y-038136D01*
G01X0018098Y-038124D01*
G01X0018080Y-038066D01*
G01X0018080Y-038066D01*
G01X0018080Y-038066D01*
G01X0018073Y-037992D01*
G01X0018080Y-037919D01*
G01X0018101Y-037848D01*
G01X0018136Y-037783D01*
G01X0018183Y-037726D01*
G01X0018240Y-037679D01*
G01X0018305Y-037645D01*
G01X0018305Y-037645D01*
G01X0018375Y-037623D01*
G01X0018375Y-037623D01*
G01X0018375Y-037623D01*
G01X0018430Y-037618D01*
G01X0018743Y-037618D01*
G01X0018798Y-037623D01*
G01X0018798Y-037623D01*
G37*
G36*
G01X0025532Y-038189D02*
G01X0024074Y-038189D01*
G01X0024074Y-037126D01*
G01X0025532Y-037126D01*
G01X0025532Y-038189D01*
G01X0025532Y-038189D01*
G37*
G36*
G01X0020321Y-037265D02*
G01X0020335Y-037270D01*
G01X0020349Y-037277D01*
G01X0020361Y-037287D01*
G01X0020371Y-037299D01*
G01X0020378Y-037312D01*
G01X0020383Y-037327D01*
G01X0020384Y-037345D01*
G01X0020384Y-037636D01*
G01X0020383Y-037653D01*
G01X0020378Y-037668D01*
G01X0020371Y-037682D01*
G01X0020361Y-037694D01*
G01X0020349Y-037703D01*
G01X0020335Y-037711D01*
G01X0020321Y-037715D01*
G01X0020303Y-037717D01*
G01X0020051Y-037717D01*
G01X0020034Y-037715D01*
G01X0020019Y-037711D01*
G01X0020005Y-037703D01*
G01X0019993Y-037694D01*
G01X0019984Y-037682D01*
G01X0019976Y-037668D01*
G01X0019972Y-037653D01*
G01X0019970Y-037636D01*
G01X0019970Y-037345D01*
G01X0019972Y-037327D01*
G01X0019976Y-037312D01*
G01X0019984Y-037299D01*
G01X0019993Y-037287D01*
G01X0020005Y-037277D01*
G01X0020019Y-037270D01*
G01X0020034Y-037265D01*
G01X0020051Y-037263D01*
G01X0020303Y-037263D01*
G01X0020321Y-037265D01*
G01X0020321Y-037265D01*
G37*
G36*
G01X0034956Y-037295D02*
G01X0034971Y-037299D01*
G01X0034985Y-037306D01*
G01X0034997Y-037316D01*
G01X0035007Y-037328D01*
G01X0035014Y-037342D01*
G01X0035018Y-037356D01*
G01X0035020Y-037374D01*
G01X0035020Y-037626D01*
G01X0035018Y-037644D01*
G01X0035014Y-037658D01*
G01X0035007Y-037672D01*
G01X0034997Y-037684D01*
G01X0034985Y-037694D01*
G01X0034971Y-037701D01*
G01X0034956Y-037705D01*
G01X0034939Y-037707D01*
G01X0034648Y-037707D01*
G01X0034630Y-037705D01*
G01X0034615Y-037701D01*
G01X0034602Y-037694D01*
G01X0034590Y-037684D01*
G01X0034580Y-037672D01*
G01X0034573Y-037658D01*
G01X0034568Y-037644D01*
G01X0034567Y-037626D01*
G01X0034567Y-037374D01*
G01X0034568Y-037356D01*
G01X0034573Y-037342D01*
G01X0034580Y-037328D01*
G01X0034590Y-037316D01*
G01X0034602Y-037306D01*
G01X0034615Y-037299D01*
G01X0034630Y-037295D01*
G01X0034648Y-037293D01*
G01X0034939Y-037293D01*
G01X0034956Y-037295D01*
G01X0034956Y-037295D01*
G37*
G36*
G01X0035645Y-037295D02*
G01X0035660Y-037299D01*
G01X0035674Y-037306D01*
G01X0035686Y-037316D01*
G01X0035696Y-037328D01*
G01X0035703Y-037342D01*
G01X0035707Y-037356D01*
G01X0035709Y-037374D01*
G01X0035709Y-037626D01*
G01X0035707Y-037644D01*
G01X0035703Y-037658D01*
G01X0035696Y-037672D01*
G01X0035686Y-037684D01*
G01X0035674Y-037694D01*
G01X0035660Y-037701D01*
G01X0035645Y-037705D01*
G01X0035628Y-037707D01*
G01X0035337Y-037707D01*
G01X0035319Y-037705D01*
G01X0035304Y-037701D01*
G01X0035291Y-037694D01*
G01X0035279Y-037684D01*
G01X0035269Y-037672D01*
G01X0035262Y-037658D01*
G01X0035257Y-037644D01*
G01X0035256Y-037626D01*
G01X0035256Y-037374D01*
G01X0035257Y-037356D01*
G01X0035262Y-037342D01*
G01X0035269Y-037328D01*
G01X0035279Y-037316D01*
G01X0035291Y-037306D01*
G01X0035304Y-037299D01*
G01X0035319Y-037295D01*
G01X0035337Y-037293D01*
G01X0035628Y-037293D01*
G01X0035645Y-037295D01*
G01X0035645Y-037295D01*
G37*
G36*
G01X0027014Y-037127D02*
G01X0027028Y-037132D01*
G01X0027042Y-037139D01*
G01X0027054Y-037149D01*
G01X0027064Y-037161D01*
G01X0027071Y-037174D01*
G01X0027075Y-037189D01*
G01X0027077Y-037207D01*
G01X0027077Y-037498D01*
G01X0027075Y-037516D01*
G01X0027071Y-037530D01*
G01X0027064Y-037544D01*
G01X0027054Y-037556D01*
G01X0027042Y-037566D01*
G01X0027028Y-037573D01*
G01X0027014Y-037577D01*
G01X0026996Y-037579D01*
G01X0026744Y-037579D01*
G01X0026727Y-037577D01*
G01X0026712Y-037573D01*
G01X0026698Y-037566D01*
G01X0026686Y-037556D01*
G01X0026676Y-037544D01*
G01X0026669Y-037530D01*
G01X0026665Y-037516D01*
G01X0026663Y-037498D01*
G01X0026663Y-037207D01*
G01X0026665Y-037189D01*
G01X0026669Y-037174D01*
G01X0026676Y-037161D01*
G01X0026686Y-037149D01*
G01X0026698Y-037139D01*
G01X0026712Y-037132D01*
G01X0026727Y-037127D01*
G01X0026744Y-037126D01*
G01X0026996Y-037126D01*
G01X0027014Y-037127D01*
G01X0027014Y-037127D01*
G37*
G36*
G01X0060321Y-036615D02*
G01X0060334Y-036619D01*
G01X0060345Y-036625D01*
G01X0060355Y-036633D01*
G01X0060363Y-036643D01*
G01X0060369Y-036654D01*
G01X0060373Y-036667D01*
G01X0060374Y-036682D01*
G01X0060374Y-037413D01*
G01X0060373Y-037428D01*
G01X0060369Y-037440D01*
G01X0060363Y-037451D01*
G01X0060355Y-037461D01*
G01X0060345Y-037469D01*
G01X0060334Y-037475D01*
G01X0060321Y-037479D01*
G01X0060306Y-037481D01*
G01X0058591Y-037481D01*
G01X0058576Y-037479D01*
G01X0058564Y-037475D01*
G01X0058553Y-037469D01*
G01X0058543Y-037461D01*
G01X0058535Y-037451D01*
G01X0058528Y-037440D01*
G01X0058525Y-037428D01*
G01X0058523Y-037413D01*
G01X0058523Y-036682D01*
G01X0058525Y-036667D01*
G01X0058528Y-036654D01*
G01X0058535Y-036643D01*
G01X0058543Y-036633D01*
G01X0058553Y-036625D01*
G01X0058564Y-036619D01*
G01X0058576Y-036615D01*
G01X0058591Y-036614D01*
G01X0060306Y-036614D01*
G01X0060321Y-036615D01*
G01X0060321Y-036615D01*
G37*
G36*
G01X0044533Y-037029D02*
G01X0044548Y-037033D01*
G01X0044562Y-037041D01*
G01X0044574Y-037050D01*
G01X0044583Y-037062D01*
G01X0044591Y-037076D01*
G01X0044595Y-037091D01*
G01X0044597Y-037109D01*
G01X0044597Y-037399D01*
G01X0044595Y-037417D01*
G01X0044591Y-037432D01*
G01X0044583Y-037445D01*
G01X0044574Y-037457D01*
G01X0044562Y-037467D01*
G01X0044548Y-037474D01*
G01X0044533Y-037479D01*
G01X0044515Y-037481D01*
G01X0044264Y-037481D01*
G01X0044246Y-037479D01*
G01X0044231Y-037474D01*
G01X0044218Y-037467D01*
G01X0044206Y-037457D01*
G01X0044196Y-037445D01*
G01X0044189Y-037432D01*
G01X0044184Y-037417D01*
G01X0044183Y-037399D01*
G01X0044183Y-037109D01*
G01X0044184Y-037091D01*
G01X0044189Y-037076D01*
G01X0044196Y-037062D01*
G01X0044206Y-037050D01*
G01X0044218Y-037041D01*
G01X0044231Y-037033D01*
G01X0044246Y-037029D01*
G01X0044264Y-037027D01*
G01X0044515Y-037027D01*
G01X0044533Y-037029D01*
G01X0044533Y-037029D01*
G37*
G36*
G01X0063786Y-036615D02*
G01X0063798Y-036619D01*
G01X0063810Y-036625D01*
G01X0063820Y-036633D01*
G01X0063828Y-036643D01*
G01X0063834Y-036654D01*
G01X0063837Y-036667D01*
G01X0063839Y-036682D01*
G01X0063839Y-037413D01*
G01X0063837Y-037428D01*
G01X0063834Y-037440D01*
G01X0063828Y-037451D01*
G01X0063820Y-037461D01*
G01X0063810Y-037469D01*
G01X0063798Y-037475D01*
G01X0063786Y-037479D01*
G01X0063771Y-037481D01*
G01X0062056Y-037481D01*
G01X0062041Y-037479D01*
G01X0062028Y-037475D01*
G01X0062017Y-037469D01*
G01X0062007Y-037461D01*
G01X0061999Y-037451D01*
G01X0061993Y-037440D01*
G01X0061989Y-037428D01*
G01X0061988Y-037413D01*
G01X0061988Y-036682D01*
G01X0061989Y-036667D01*
G01X0061993Y-036654D01*
G01X0061999Y-036643D01*
G01X0062007Y-036633D01*
G01X0062017Y-036625D01*
G01X0062028Y-036619D01*
G01X0062041Y-036615D01*
G01X0062056Y-036614D01*
G01X0063771Y-036614D01*
G01X0063786Y-036615D01*
G01X0063786Y-036615D01*
G37*
G36*
G01X0037390Y-037441D02*
G01X0036366Y-037441D01*
G01X0036366Y-036574D01*
G01X0037390Y-036574D01*
G01X0037390Y-037441D01*
G01X0037390Y-037441D01*
G37*
G36*
G01X0028729Y-037441D02*
G01X0027704Y-037441D01*
G01X0027704Y-036574D01*
G01X0028729Y-036574D01*
G01X0028729Y-037441D01*
G01X0028729Y-037441D01*
G37*
G36*
G01X0029579Y-037441D02*
G01X0028948Y-037441D01*
G01X0028948Y-036574D01*
G01X0029579Y-036574D01*
G01X0029579Y-037441D01*
G01X0029579Y-037441D01*
G37*
G36*
G01X0038241Y-037441D02*
G01X0037610Y-037441D01*
G01X0037610Y-036574D01*
G01X0038241Y-036574D01*
G01X0038241Y-037441D01*
G01X0038241Y-037441D01*
G37*
G36*
G01X0046052Y-037441D02*
G01X0045027Y-037441D01*
G01X0045027Y-036574D01*
G01X0046052Y-036574D01*
G01X0046052Y-037441D01*
G01X0046052Y-037441D01*
G37*
G36*
G01X0046902Y-037441D02*
G01X0046271Y-037441D01*
G01X0046271Y-036574D01*
G01X0046902Y-036574D01*
G01X0046902Y-037441D01*
G01X0046902Y-037441D01*
G37*
G36*
G01X0018845Y-036697D02*
G01X0018905Y-036715D01*
G01X0018960Y-036744D01*
G01X0019008Y-036784D01*
G01X0019047Y-036832D01*
G01X0019076Y-036887D01*
G01X0019094Y-036946D01*
G01X0019100Y-037008D01*
G01X0019094Y-037070D01*
G01X0019076Y-037129D01*
G01X0019047Y-037184D01*
G01X0019008Y-037232D01*
G01X0018960Y-037271D01*
G01X0018905Y-037301D01*
G01X0018845Y-037319D01*
G01X0018799Y-037323D01*
G01X0018374Y-037323D01*
G01X0018328Y-037319D01*
G01X0018268Y-037301D01*
G01X0018214Y-037271D01*
G01X0018166Y-037232D01*
G01X0018126Y-037184D01*
G01X0018097Y-037129D01*
G01X0018079Y-037070D01*
G01X0018073Y-037008D01*
G01X0018079Y-036946D01*
G01X0018097Y-036887D01*
G01X0018126Y-036832D01*
G01X0018166Y-036784D01*
G01X0018214Y-036744D01*
G01X0018268Y-036715D01*
G01X0018328Y-036697D01*
G01X0018374Y-036693D01*
G01X0018799Y-036693D01*
G01X0018845Y-036697D01*
G01X0018845Y-036697D01*
G37*
G36*
G01X0027014Y-036438D02*
G01X0027028Y-036443D01*
G01X0027042Y-036450D01*
G01X0027054Y-036460D01*
G01X0027064Y-036472D01*
G01X0027071Y-036485D01*
G01X0027075Y-036500D01*
G01X0027077Y-036518D01*
G01X0027077Y-036809D01*
G01X0027075Y-036827D01*
G01X0027071Y-036841D01*
G01X0027064Y-036855D01*
G01X0027054Y-036867D01*
G01X0027042Y-036877D01*
G01X0027028Y-036884D01*
G01X0027014Y-036888D01*
G01X0026996Y-036890D01*
G01X0026744Y-036890D01*
G01X0026727Y-036888D01*
G01X0026712Y-036884D01*
G01X0026698Y-036877D01*
G01X0026686Y-036867D01*
G01X0026676Y-036855D01*
G01X0026669Y-036841D01*
G01X0026665Y-036827D01*
G01X0026663Y-036809D01*
G01X0026663Y-036518D01*
G01X0026665Y-036500D01*
G01X0026669Y-036485D01*
G01X0026676Y-036472D01*
G01X0026686Y-036460D01*
G01X0026698Y-036450D01*
G01X0026712Y-036443D01*
G01X0026727Y-036438D01*
G01X0026744Y-036437D01*
G01X0026996Y-036437D01*
G01X0027014Y-036438D01*
G01X0027014Y-036438D01*
G37*
G36*
G01X0044533Y-036340D02*
G01X0044548Y-036344D01*
G01X0044562Y-036352D01*
G01X0044574Y-036361D01*
G01X0044583Y-036373D01*
G01X0044591Y-036387D01*
G01X0044595Y-036402D01*
G01X0044597Y-036420D01*
G01X0044597Y-036710D01*
G01X0044595Y-036728D01*
G01X0044591Y-036743D01*
G01X0044583Y-036757D01*
G01X0044574Y-036768D01*
G01X0044562Y-036778D01*
G01X0044548Y-036786D01*
G01X0044533Y-036790D01*
G01X0044515Y-036792D01*
G01X0044264Y-036792D01*
G01X0044246Y-036790D01*
G01X0044231Y-036786D01*
G01X0044218Y-036778D01*
G01X0044206Y-036768D01*
G01X0044196Y-036757D01*
G01X0044189Y-036743D01*
G01X0044184Y-036728D01*
G01X0044183Y-036710D01*
G01X0044183Y-036420D01*
G01X0044184Y-036402D01*
G01X0044189Y-036387D01*
G01X0044196Y-036373D01*
G01X0044206Y-036361D01*
G01X0044218Y-036352D01*
G01X0044231Y-036344D01*
G01X0044246Y-036340D01*
G01X0044264Y-036338D01*
G01X0044515Y-036338D01*
G01X0044533Y-036340D01*
G01X0044533Y-036340D01*
G37*
G36*
G01X0018845Y-035910D02*
G01X0018905Y-035928D01*
G01X0018960Y-035957D01*
G01X0019008Y-035996D01*
G01X0019047Y-036044D01*
G01X0019076Y-036099D01*
G01X0019094Y-036159D01*
G01X0019100Y-036220D01*
G01X0019094Y-036282D01*
G01X0019076Y-036342D01*
G01X0019047Y-036397D01*
G01X0019008Y-036445D01*
G01X0018960Y-036484D01*
G01X0018905Y-036513D01*
G01X0018845Y-036531D01*
G01X0018799Y-036536D01*
G01X0018374Y-036536D01*
G01X0018328Y-036531D01*
G01X0018268Y-036513D01*
G01X0018214Y-036484D01*
G01X0018166Y-036445D01*
G01X0018126Y-036397D01*
G01X0018097Y-036342D01*
G01X0018079Y-036282D01*
G01X0018073Y-036220D01*
G01X0018079Y-036159D01*
G01X0018097Y-036099D01*
G01X0018126Y-036044D01*
G01X0018166Y-035996D01*
G01X0018214Y-035957D01*
G01X0018268Y-035928D01*
G01X0018328Y-035910D01*
G01X0018374Y-035905D01*
G01X0018799Y-035905D01*
G01X0018845Y-035910D01*
G01X0018845Y-035910D01*
G37*
G36*
G01X0031418Y-036241D02*
G01X0030984Y-036241D01*
G01X0030984Y-035807D01*
G01X0031418Y-035807D01*
G01X0031418Y-036241D01*
G01X0031418Y-036241D01*
G37*
G36*
G01X0032599Y-036241D02*
G01X0032165Y-036241D01*
G01X0032165Y-035807D01*
G01X0032599Y-035807D01*
G01X0032599Y-036241D01*
G01X0032599Y-036241D01*
G37*
G36*
G01X0032008Y-036241D02*
G01X0031574Y-036241D01*
G01X0031574Y-035807D01*
G01X0032008Y-035807D01*
G01X0032008Y-036241D01*
G01X0032008Y-036241D01*
G37*
G36*
G01X0034370Y-036241D02*
G01X0033937Y-036241D01*
G01X0033937Y-035807D01*
G01X0034370Y-035807D01*
G01X0034370Y-036241D01*
G01X0034370Y-036241D01*
G37*
G36*
G01X0033780Y-036241D02*
G01X0033346Y-036241D01*
G01X0033346Y-035807D01*
G01X0033780Y-035807D01*
G01X0033780Y-036241D01*
G01X0033780Y-036241D01*
G37*
G36*
G01X0033189Y-036241D02*
G01X0032756Y-036241D01*
G01X0032756Y-035807D01*
G01X0033189Y-035807D01*
G01X0033189Y-036241D01*
G01X0033189Y-036241D01*
G37*
G36*
G01X0020321Y-035592D02*
G01X0020335Y-035596D01*
G01X0020349Y-035604D01*
G01X0020361Y-035613D01*
G01X0020371Y-035625D01*
G01X0020378Y-035639D01*
G01X0020383Y-035654D01*
G01X0020384Y-035672D01*
G01X0020384Y-035962D01*
G01X0020383Y-035980D01*
G01X0020378Y-035995D01*
G01X0020371Y-036008D01*
G01X0020361Y-036020D01*
G01X0020349Y-036030D01*
G01X0020335Y-036037D01*
G01X0020321Y-036042D01*
G01X0020303Y-036044D01*
G01X0020051Y-036044D01*
G01X0020034Y-036042D01*
G01X0020019Y-036037D01*
G01X0020005Y-036030D01*
G01X0019993Y-036020D01*
G01X0019984Y-036008D01*
G01X0019976Y-035995D01*
G01X0019972Y-035980D01*
G01X0019970Y-035962D01*
G01X0019970Y-035672D01*
G01X0019972Y-035654D01*
G01X0019976Y-035639D01*
G01X0019984Y-035625D01*
G01X0019993Y-035613D01*
G01X0020005Y-035604D01*
G01X0020019Y-035596D01*
G01X0020034Y-035592D01*
G01X0020051Y-035590D01*
G01X0020303Y-035590D01*
G01X0020321Y-035592D01*
G01X0020321Y-035592D01*
G37*
G36*
G01X0018798Y-034867D02*
G01X0018798Y-034867D01*
G01X0018798Y-034867D01*
G01X0018868Y-034889D01*
G01X0018868Y-034889D01*
G01X0018933Y-034923D01*
G01X0018990Y-034970D01*
G01X0019037Y-035027D01*
G01X0019072Y-035092D01*
G01X0019093Y-035163D01*
G01X0019101Y-035236D01*
G01X0019093Y-035310D01*
G01X0019093Y-035310D01*
G01X0019093Y-035310D01*
G01X0019080Y-035353D01*
G01X0019072Y-035380D01*
G01X0019037Y-035445D01*
G01X0018990Y-035502D01*
G01X0018933Y-035549D01*
G01X0018933Y-035549D01*
G01X0018868Y-035584D01*
G01X0018798Y-035605D01*
G01X0018798Y-035605D01*
G01X0018798Y-035605D01*
G01X0018743Y-035611D01*
G01X0018430Y-035611D01*
G01X0018375Y-035605D01*
G01X0018375Y-035605D01*
G01X0018375Y-035605D01*
G01X0018305Y-035584D01*
G01X0018240Y-035549D01*
G01X0018240Y-035549D01*
G01X0018183Y-035502D01*
G01X0018136Y-035445D01*
G01X0018101Y-035380D01*
G01X0018093Y-035353D01*
G01X0018080Y-035310D01*
G01X0018080Y-035310D01*
G01X0018080Y-035310D01*
G01X0018073Y-035236D01*
G01X0018080Y-035163D01*
G01X0018101Y-035092D01*
G01X0018136Y-035027D01*
G01X0018183Y-034970D01*
G01X0018240Y-034923D01*
G01X0018305Y-034889D01*
G01X0018305Y-034889D01*
G01X0018375Y-034867D01*
G01X0018375Y-034867D01*
G01X0018375Y-034867D01*
G01X0018430Y-034862D01*
G01X0018743Y-034862D01*
G01X0018798Y-034867D01*
G01X0018798Y-034867D01*
G37*
G36*
G01X0032796Y-035552D02*
G01X0032362Y-035552D01*
G01X0032362Y-035118D01*
G01X0032796Y-035118D01*
G01X0032796Y-035552D01*
G01X0032796Y-035552D01*
G37*
G36*
G01X0034764Y-035552D02*
G01X0034330Y-035552D01*
G01X0034330Y-035118D01*
G01X0034764Y-035118D01*
G01X0034764Y-035552D01*
G01X0034764Y-035552D01*
G37*
G36*
G01X0033977Y-035552D02*
G01X0033543Y-035552D01*
G01X0033543Y-035118D01*
G01X0033977Y-035118D01*
G01X0033977Y-035552D01*
G01X0033977Y-035552D01*
G37*
G36*
G01X0033386Y-035552D02*
G01X0032952Y-035552D01*
G01X0032952Y-035118D01*
G01X0033386Y-035118D01*
G01X0033386Y-035552D01*
G01X0033386Y-035552D01*
G37*
G36*
G01X0035355Y-035552D02*
G01X0034921Y-035552D01*
G01X0034921Y-035118D01*
G01X0035355Y-035118D01*
G01X0035355Y-035552D01*
G01X0035355Y-035552D01*
G37*
G36*
G01X0032205Y-035552D02*
G01X0031771Y-035552D01*
G01X0031771Y-035118D01*
G01X0032205Y-035118D01*
G01X0032205Y-035552D01*
G01X0032205Y-035552D01*
G37*
G36*
G01X0031615Y-035552D02*
G01X0031181Y-035552D01*
G01X0031181Y-035118D01*
G01X0031615Y-035118D01*
G01X0031615Y-035552D01*
G01X0031615Y-035552D01*
G37*
G36*
G01X0031024Y-035552D02*
G01X0030590Y-035552D01*
G01X0030590Y-035118D01*
G01X0031024Y-035118D01*
G01X0031024Y-035552D01*
G01X0031024Y-035552D01*
G37*
G36*
G01X0020321Y-034903D02*
G01X0020335Y-034907D01*
G01X0020349Y-034915D01*
G01X0020361Y-034924D01*
G01X0020371Y-034936D01*
G01X0020378Y-034950D01*
G01X0020383Y-034965D01*
G01X0020384Y-034983D01*
G01X0020384Y-035273D01*
G01X0020383Y-035291D01*
G01X0020378Y-035306D01*
G01X0020371Y-035320D01*
G01X0020361Y-035331D01*
G01X0020349Y-035341D01*
G01X0020335Y-035348D01*
G01X0020321Y-035353D01*
G01X0020303Y-035355D01*
G01X0020051Y-035355D01*
G01X0020034Y-035353D01*
G01X0020019Y-035348D01*
G01X0020005Y-035341D01*
G01X0019993Y-035331D01*
G01X0019984Y-035320D01*
G01X0019976Y-035306D01*
G01X0019972Y-035291D01*
G01X0019970Y-035273D01*
G01X0019970Y-034983D01*
G01X0019972Y-034965D01*
G01X0019976Y-034950D01*
G01X0019984Y-034936D01*
G01X0019993Y-034924D01*
G01X0020005Y-034915D01*
G01X0020019Y-034907D01*
G01X0020034Y-034903D01*
G01X0020051Y-034901D01*
G01X0020303Y-034901D01*
G01X0020321Y-034903D01*
G01X0020321Y-034903D01*
G37*
G36*
G01X0034961Y-034863D02*
G01X0034527Y-034863D01*
G01X0034527Y-034429D01*
G01X0034961Y-034429D01*
G01X0034961Y-034863D01*
G01X0034961Y-034863D01*
G37*
G36*
G01X0033583Y-034863D02*
G01X0033149Y-034863D01*
G01X0033149Y-034429D01*
G01X0033583Y-034429D01*
G01X0033583Y-034863D01*
G01X0033583Y-034863D01*
G37*
G36*
G01X0034174Y-034863D02*
G01X0033740Y-034863D01*
G01X0033740Y-034429D01*
G01X0034174Y-034429D01*
G01X0034174Y-034863D01*
G01X0034174Y-034863D01*
G37*
G36*
G01X0032993Y-034863D02*
G01X0032559Y-034863D01*
G01X0032559Y-034429D01*
G01X0032993Y-034429D01*
G01X0032993Y-034863D01*
G01X0032993Y-034863D01*
G37*
G36*
G01X0031811Y-034863D02*
G01X0031378Y-034863D01*
G01X0031378Y-034429D01*
G01X0031811Y-034429D01*
G01X0031811Y-034863D01*
G01X0031811Y-034863D01*
G37*
G36*
G01X0032402Y-034863D02*
G01X0031968Y-034863D01*
G01X0031968Y-034429D01*
G01X0032402Y-034429D01*
G01X0032402Y-034863D01*
G01X0032402Y-034863D01*
G37*
G36*
G01X0031221Y-034863D02*
G01X0030787Y-034863D01*
G01X0030787Y-034429D01*
G01X0031221Y-034429D01*
G01X0031221Y-034863D01*
G01X0031221Y-034863D01*
G37*
G36*
G01X0036634Y-034469D02*
G01X0036200Y-034469D01*
G01X0036200Y-034035D01*
G01X0036634Y-034035D01*
G01X0036634Y-034469D01*
G01X0036634Y-034469D01*
G37*
G36*
G01X0039551Y-034043D02*
G01X0039591Y-034060D01*
G01X0039626Y-034083D01*
G01X0039657Y-034114D01*
G01X0039680Y-034149D01*
G01X0039697Y-034189D01*
G01X0039705Y-034231D01*
G01X0039705Y-034273D01*
G01X0039697Y-034315D01*
G01X0039680Y-034355D01*
G01X0039657Y-034390D01*
G01X0039626Y-034420D01*
G01X0039591Y-034444D01*
G01X0039551Y-034461D01*
G01X0039510Y-034469D01*
G01X0039467Y-034469D01*
G01X0039425Y-034461D01*
G01X0039385Y-034444D01*
G01X0039350Y-034420D01*
G01X0039320Y-034390D01*
G01X0039296Y-034355D01*
G01X0039280Y-034315D01*
G01X0039271Y-034273D01*
G01X0039271Y-034231D01*
G01X0039280Y-034189D01*
G01X0039296Y-034149D01*
G01X0039320Y-034114D01*
G01X0039350Y-034083D01*
G01X0039385Y-034060D01*
G01X0039425Y-034043D01*
G01X0039467Y-034035D01*
G01X0039510Y-034035D01*
G01X0039551Y-034043D01*
G01X0039551Y-034043D01*
G37*
G36*
G01X0017776Y-033132D02*
G01X0017836Y-033138D01*
G01X0017892Y-033155D01*
G01X0017951Y-033173D01*
G01X0017982Y-033190D01*
G01X0018057Y-033230D01*
G01X0018150Y-033306D01*
G01X0018227Y-033399D01*
G01X0018249Y-033441D01*
G01X0018283Y-033505D01*
G01X0018286Y-033512D01*
G01X0018318Y-033620D01*
G01X0018330Y-033740D01*
G01X0018318Y-033860D01*
G01X0018295Y-033937D01*
G01X0018283Y-033975D01*
G01X0018272Y-033996D01*
G01X0018227Y-034081D01*
G01X0018150Y-034174D01*
G01X0018057Y-034250D01*
G01X0018014Y-034273D01*
G01X0017951Y-034307D01*
G01X0017924Y-034315D01*
G01X0017836Y-034342D01*
G01X0017776Y-034348D01*
G01X0017747Y-034351D01*
G01X0017293Y-034351D01*
G01X0017263Y-034348D01*
G01X0017203Y-034342D01*
G01X0017115Y-034315D01*
G01X0017088Y-034307D01*
G01X0017025Y-034273D01*
G01X0016982Y-034250D01*
G01X0016889Y-034174D01*
G01X0016813Y-034081D01*
G01X0016767Y-033996D01*
G01X0016756Y-033975D01*
G01X0016744Y-033937D01*
G01X0016721Y-033860D01*
G01X0016709Y-033740D01*
G01X0016721Y-033620D01*
G01X0016754Y-033512D01*
G01X0016756Y-033505D01*
G01X0016791Y-033441D01*
G01X0016813Y-033399D01*
G01X0016889Y-033306D01*
G01X0016982Y-033230D01*
G01X0017057Y-033190D01*
G01X0017088Y-033173D01*
G01X0017147Y-033155D01*
G01X0017203Y-033138D01*
G01X0017263Y-033132D01*
G01X0017293Y-033130D01*
G01X0017747Y-033130D01*
G01X0017776Y-033132D01*
G01X0017776Y-033132D01*
G37*
G36*
G01X0054233Y-034233D02*
G01X0053799Y-034233D01*
G01X0053799Y-033799D01*
G01X0054233Y-033799D01*
G01X0054233Y-034233D01*
G01X0054233Y-034233D01*
G37*
G36*
G01X0056359Y-034233D02*
G01X0055925Y-034233D01*
G01X0055925Y-033799D01*
G01X0056359Y-033799D01*
G01X0056359Y-034233D01*
G01X0056359Y-034233D01*
G37*
G36*
G01X0055650Y-034233D02*
G01X0055216Y-034233D01*
G01X0055216Y-033799D01*
G01X0055650Y-033799D01*
G01X0055650Y-034233D01*
G01X0055650Y-034233D01*
G37*
G36*
G01X0054941Y-034233D02*
G01X0054507Y-034233D01*
G01X0054507Y-033799D01*
G01X0054941Y-033799D01*
G01X0054941Y-034233D01*
G01X0054941Y-034233D01*
G37*
G36*
G01X0045493Y-033996D02*
G01X0045059Y-033996D01*
G01X0045059Y-033563D01*
G01X0045493Y-033563D01*
G01X0045493Y-033996D01*
G01X0045493Y-033996D01*
G37*
G36*
G01X0030301Y-033338D02*
G01X0030316Y-033342D01*
G01X0030329Y-033350D01*
G01X0030341Y-033360D01*
G01X0030351Y-033371D01*
G01X0030358Y-033385D01*
G01X0030363Y-033400D01*
G01X0030365Y-033418D01*
G01X0030365Y-033669D01*
G01X0030363Y-033687D01*
G01X0030358Y-033702D01*
G01X0030351Y-033715D01*
G01X0030341Y-033727D01*
G01X0030329Y-033737D01*
G01X0030316Y-033744D01*
G01X0030301Y-033749D01*
G01X0030283Y-033750D01*
G01X0029992Y-033750D01*
G01X0029975Y-033749D01*
G01X0029960Y-033744D01*
G01X0029946Y-033737D01*
G01X0029934Y-033727D01*
G01X0029925Y-033715D01*
G01X0029917Y-033702D01*
G01X0029913Y-033687D01*
G01X0029911Y-033669D01*
G01X0029911Y-033418D01*
G01X0029913Y-033400D01*
G01X0029917Y-033385D01*
G01X0029925Y-033371D01*
G01X0029934Y-033360D01*
G01X0029946Y-033350D01*
G01X0029960Y-033342D01*
G01X0029975Y-033338D01*
G01X0029992Y-033336D01*
G01X0030283Y-033336D01*
G01X0030301Y-033338D01*
G01X0030301Y-033338D01*
G37*
G36*
G01X0029612Y-033338D02*
G01X0029627Y-033342D01*
G01X0029640Y-033350D01*
G01X0029652Y-033360D01*
G01X0029662Y-033371D01*
G01X0029669Y-033385D01*
G01X0029674Y-033400D01*
G01X0029676Y-033418D01*
G01X0029676Y-033669D01*
G01X0029674Y-033687D01*
G01X0029669Y-033702D01*
G01X0029662Y-033715D01*
G01X0029652Y-033727D01*
G01X0029640Y-033737D01*
G01X0029627Y-033744D01*
G01X0029612Y-033749D01*
G01X0029594Y-033750D01*
G01X0029303Y-033750D01*
G01X0029286Y-033749D01*
G01X0029271Y-033744D01*
G01X0029257Y-033737D01*
G01X0029245Y-033727D01*
G01X0029236Y-033715D01*
G01X0029228Y-033702D01*
G01X0029224Y-033687D01*
G01X0029222Y-033669D01*
G01X0029222Y-033418D01*
G01X0029224Y-033400D01*
G01X0029228Y-033385D01*
G01X0029236Y-033371D01*
G01X0029245Y-033360D01*
G01X0029257Y-033350D01*
G01X0029271Y-033342D01*
G01X0029286Y-033338D01*
G01X0029303Y-033336D01*
G01X0029594Y-033336D01*
G01X0029612Y-033338D01*
G01X0029612Y-033338D01*
G37*
G36*
G01X0039551Y-033295D02*
G01X0039591Y-033312D01*
G01X0039626Y-033335D01*
G01X0039657Y-033366D01*
G01X0039680Y-033401D01*
G01X0039697Y-033441D01*
G01X0039705Y-033483D01*
G01X0039705Y-033525D01*
G01X0039697Y-033567D01*
G01X0039680Y-033607D01*
G01X0039657Y-033642D01*
G01X0039626Y-033672D01*
G01X0039591Y-033696D01*
G01X0039551Y-033713D01*
G01X0039510Y-033721D01*
G01X0039467Y-033721D01*
G01X0039425Y-033713D01*
G01X0039385Y-033696D01*
G01X0039350Y-033672D01*
G01X0039320Y-033642D01*
G01X0039296Y-033607D01*
G01X0039280Y-033567D01*
G01X0039271Y-033525D01*
G01X0039271Y-033483D01*
G01X0039280Y-033441D01*
G01X0039296Y-033401D01*
G01X0039320Y-033366D01*
G01X0039350Y-033335D01*
G01X0039385Y-033312D01*
G01X0039425Y-033295D01*
G01X0039467Y-033287D01*
G01X0039510Y-033287D01*
G01X0039551Y-033295D01*
G01X0039551Y-033295D01*
G37*
G36*
G01X0063999Y-033006D02*
G01X0064058Y-033024D01*
G01X0064113Y-033053D01*
G01X0064161Y-033093D01*
G01X0064200Y-033141D01*
G01X0064230Y-033196D01*
G01X0064248Y-033255D01*
G01X0064254Y-033317D01*
G01X0064248Y-033379D01*
G01X0064230Y-033438D01*
G01X0064200Y-033493D01*
G01X0064161Y-033541D01*
G01X0064113Y-033580D01*
G01X0064058Y-033610D01*
G01X0063999Y-033628D01*
G01X0063952Y-033632D01*
G01X0063725Y-033632D01*
G01X0063678Y-033628D01*
G01X0063619Y-033610D01*
G01X0063564Y-033580D01*
G01X0063516Y-033541D01*
G01X0063477Y-033493D01*
G01X0063447Y-033438D01*
G01X0063429Y-033379D01*
G01X0063423Y-033317D01*
G01X0063429Y-033255D01*
G01X0063447Y-033196D01*
G01X0063477Y-033141D01*
G01X0063516Y-033093D01*
G01X0063564Y-033053D01*
G01X0063619Y-033024D01*
G01X0063678Y-033006D01*
G01X0063725Y-033002D01*
G01X0063952Y-033002D01*
G01X0063999Y-033006D01*
G01X0063999Y-033006D01*
G37*
G36*
G01X0041162Y-033585D02*
G01X0040728Y-033585D01*
G01X0040728Y-032462D01*
G01X0041162Y-032462D01*
G01X0041162Y-033585D01*
G01X0041162Y-033585D01*
G37*
G36*
G01X0042737Y-033585D02*
G01X0042303Y-033585D01*
G01X0042303Y-032462D01*
G01X0042737Y-032462D01*
G01X0042737Y-033585D01*
G01X0042737Y-033585D01*
G37*
G36*
G01X0054233Y-033524D02*
G01X0053799Y-033524D01*
G01X0053799Y-033090D01*
G01X0054233Y-033090D01*
G01X0054233Y-033524D01*
G01X0054233Y-033524D01*
G37*
G36*
G01X0054941Y-033524D02*
G01X0054507Y-033524D01*
G01X0054507Y-033090D01*
G01X0054941Y-033090D01*
G01X0054941Y-033524D01*
G01X0054941Y-033524D01*
G37*
G36*
G01X0055650Y-033524D02*
G01X0055216Y-033524D01*
G01X0055216Y-033090D01*
G01X0055650Y-033090D01*
G01X0055650Y-033524D01*
G01X0055650Y-033524D01*
G37*
G36*
G01X0053524Y-033524D02*
G01X0053090Y-033524D01*
G01X0053090Y-033090D01*
G01X0053524Y-033090D01*
G01X0053524Y-033524D01*
G01X0053524Y-033524D01*
G37*
G36*
G01X0056359Y-033524D02*
G01X0055925Y-033524D01*
G01X0055925Y-033090D01*
G01X0056359Y-033090D01*
G01X0056359Y-033524D01*
G01X0056359Y-033524D01*
G37*
G36*
G01X0057067Y-033524D02*
G01X0056633Y-033524D01*
G01X0056633Y-033090D01*
G01X0057067Y-033090D01*
G01X0057067Y-033524D01*
G01X0057067Y-033524D01*
G37*
G36*
G01X0052712Y-033102D02*
G01X0052727Y-033106D01*
G01X0052741Y-033114D01*
G01X0052753Y-033123D01*
G01X0052762Y-033135D01*
G01X0052770Y-033149D01*
G01X0052774Y-033164D01*
G01X0052776Y-033181D01*
G01X0052776Y-033433D01*
G01X0052774Y-033451D01*
G01X0052770Y-033465D01*
G01X0052762Y-033479D01*
G01X0052753Y-033491D01*
G01X0052741Y-033501D01*
G01X0052727Y-033508D01*
G01X0052712Y-033512D01*
G01X0052695Y-033514D01*
G01X0052404Y-033514D01*
G01X0052386Y-033512D01*
G01X0052371Y-033508D01*
G01X0052358Y-033501D01*
G01X0052346Y-033491D01*
G01X0052336Y-033479D01*
G01X0052329Y-033465D01*
G01X0052324Y-033451D01*
G01X0052322Y-033433D01*
G01X0052322Y-033181D01*
G01X0052324Y-033164D01*
G01X0052329Y-033149D01*
G01X0052336Y-033135D01*
G01X0052346Y-033123D01*
G01X0052358Y-033114D01*
G01X0052371Y-033106D01*
G01X0052386Y-033102D01*
G01X0052404Y-033100D01*
G01X0052695Y-033100D01*
G01X0052712Y-033102D01*
G01X0052712Y-033102D01*
G37*
G36*
G01X0052023Y-033102D02*
G01X0052038Y-033106D01*
G01X0052052Y-033114D01*
G01X0052064Y-033123D01*
G01X0052074Y-033135D01*
G01X0052081Y-033149D01*
G01X0052085Y-033164D01*
G01X0052087Y-033181D01*
G01X0052087Y-033433D01*
G01X0052085Y-033451D01*
G01X0052081Y-033465D01*
G01X0052074Y-033479D01*
G01X0052064Y-033491D01*
G01X0052052Y-033501D01*
G01X0052038Y-033508D01*
G01X0052023Y-033512D01*
G01X0052006Y-033514D01*
G01X0051715Y-033514D01*
G01X0051697Y-033512D01*
G01X0051682Y-033508D01*
G01X0051669Y-033501D01*
G01X0051657Y-033491D01*
G01X0051647Y-033479D01*
G01X0051640Y-033465D01*
G01X0051635Y-033451D01*
G01X0051633Y-033433D01*
G01X0051633Y-033181D01*
G01X0051635Y-033164D01*
G01X0051640Y-033149D01*
G01X0051647Y-033135D01*
G01X0051657Y-033123D01*
G01X0051669Y-033114D01*
G01X0051682Y-033106D01*
G01X0051697Y-033102D01*
G01X0051715Y-033100D01*
G01X0052006Y-033100D01*
G01X0052023Y-033102D01*
G01X0052023Y-033102D01*
G37*
G36*
G01X0035075Y-033023D02*
G01X0035089Y-033027D01*
G01X0035103Y-033035D01*
G01X0035115Y-033045D01*
G01X0035125Y-033056D01*
G01X0035132Y-033070D01*
G01X0035136Y-033085D01*
G01X0035138Y-033103D01*
G01X0035138Y-033354D01*
G01X0035136Y-033372D01*
G01X0035132Y-033387D01*
G01X0035125Y-033400D01*
G01X0035115Y-033412D01*
G01X0035103Y-033422D01*
G01X0035089Y-033429D01*
G01X0035075Y-033434D01*
G01X0035057Y-033435D01*
G01X0034766Y-033435D01*
G01X0034748Y-033434D01*
G01X0034733Y-033429D01*
G01X0034720Y-033422D01*
G01X0034708Y-033412D01*
G01X0034698Y-033400D01*
G01X0034691Y-033387D01*
G01X0034686Y-033372D01*
G01X0034685Y-033354D01*
G01X0034685Y-033103D01*
G01X0034686Y-033085D01*
G01X0034691Y-033070D01*
G01X0034698Y-033056D01*
G01X0034708Y-033045D01*
G01X0034720Y-033035D01*
G01X0034733Y-033027D01*
G01X0034748Y-033023D01*
G01X0034766Y-033021D01*
G01X0035057Y-033021D01*
G01X0035075Y-033023D01*
G01X0035075Y-033023D01*
G37*
G36*
G01X0034386Y-033023D02*
G01X0034400Y-033027D01*
G01X0034414Y-033035D01*
G01X0034426Y-033045D01*
G01X0034436Y-033056D01*
G01X0034443Y-033070D01*
G01X0034447Y-033085D01*
G01X0034449Y-033103D01*
G01X0034449Y-033354D01*
G01X0034447Y-033372D01*
G01X0034443Y-033387D01*
G01X0034436Y-033400D01*
G01X0034426Y-033412D01*
G01X0034414Y-033422D01*
G01X0034400Y-033429D01*
G01X0034386Y-033434D01*
G01X0034368Y-033435D01*
G01X0034077Y-033435D01*
G01X0034059Y-033434D01*
G01X0034044Y-033429D01*
G01X0034031Y-033422D01*
G01X0034019Y-033412D01*
G01X0034009Y-033400D01*
G01X0034002Y-033387D01*
G01X0033997Y-033372D01*
G01X0033996Y-033354D01*
G01X0033996Y-033103D01*
G01X0033997Y-033085D01*
G01X0034002Y-033070D01*
G01X0034009Y-033056D01*
G01X0034019Y-033045D01*
G01X0034031Y-033035D01*
G01X0034044Y-033027D01*
G01X0034059Y-033023D01*
G01X0034077Y-033021D01*
G01X0034368Y-033021D01*
G01X0034386Y-033023D01*
G01X0034386Y-033023D01*
G37*
G36*
G01X0036634Y-033288D02*
G01X0036200Y-033288D01*
G01X0036200Y-032854D01*
G01X0036634Y-032854D01*
G01X0036634Y-033288D01*
G01X0036634Y-033288D01*
G37*
G36*
G01X0045493Y-033288D02*
G01X0045059Y-033288D01*
G01X0045059Y-032854D01*
G01X0045493Y-032854D01*
G01X0045493Y-033288D01*
G01X0045493Y-033288D01*
G37*
G36*
G01X0061138Y-032826D02*
G01X0061152Y-032831D01*
G01X0061166Y-032838D01*
G01X0061178Y-032848D01*
G01X0061188Y-032860D01*
G01X0061195Y-032873D01*
G01X0061199Y-032888D01*
G01X0061201Y-032906D01*
G01X0061201Y-033157D01*
G01X0061199Y-033175D01*
G01X0061195Y-033190D01*
G01X0061188Y-033203D01*
G01X0061178Y-033215D01*
G01X0061166Y-033225D01*
G01X0061152Y-033232D01*
G01X0061138Y-033237D01*
G01X0061120Y-033239D01*
G01X0060829Y-033239D01*
G01X0060811Y-033237D01*
G01X0060796Y-033232D01*
G01X0060783Y-033225D01*
G01X0060771Y-033215D01*
G01X0060761Y-033203D01*
G01X0060754Y-033190D01*
G01X0060749Y-033175D01*
G01X0060748Y-033157D01*
G01X0060748Y-032906D01*
G01X0060749Y-032888D01*
G01X0060754Y-032873D01*
G01X0060761Y-032860D01*
G01X0060771Y-032848D01*
G01X0060783Y-032838D01*
G01X0060796Y-032831D01*
G01X0060811Y-032826D01*
G01X0060829Y-032824D01*
G01X0061120Y-032824D01*
G01X0061138Y-032826D01*
G01X0061138Y-032826D01*
G37*
G36*
G01X0060449Y-032826D02*
G01X0060463Y-032831D01*
G01X0060477Y-032838D01*
G01X0060489Y-032848D01*
G01X0060499Y-032860D01*
G01X0060506Y-032873D01*
G01X0060510Y-032888D01*
G01X0060512Y-032906D01*
G01X0060512Y-033157D01*
G01X0060510Y-033175D01*
G01X0060506Y-033190D01*
G01X0060499Y-033203D01*
G01X0060489Y-033215D01*
G01X0060477Y-033225D01*
G01X0060463Y-033232D01*
G01X0060449Y-033237D01*
G01X0060431Y-033239D01*
G01X0060140Y-033239D01*
G01X0060122Y-033237D01*
G01X0060107Y-033232D01*
G01X0060094Y-033225D01*
G01X0060082Y-033215D01*
G01X0060072Y-033203D01*
G01X0060065Y-033190D01*
G01X0060060Y-033175D01*
G01X0060059Y-033157D01*
G01X0060059Y-032906D01*
G01X0060060Y-032888D01*
G01X0060065Y-032873D01*
G01X0060072Y-032860D01*
G01X0060082Y-032848D01*
G01X0060094Y-032838D01*
G01X0060107Y-032831D01*
G01X0060122Y-032826D01*
G01X0060140Y-032824D01*
G01X0060431Y-032824D01*
G01X0060449Y-032826D01*
G01X0060449Y-032826D01*
G37*
G36*
G01X0062936Y-032631D02*
G01X0062977Y-032643D01*
G01X0063015Y-032663D01*
G01X0063048Y-032690D01*
G01X0063075Y-032723D01*
G01X0063095Y-032761D01*
G01X0063107Y-032802D01*
G01X0063112Y-032844D01*
G01X0063107Y-032887D01*
G01X0063095Y-032928D01*
G01X0063075Y-032966D01*
G01X0063048Y-032999D01*
G01X0063015Y-033026D01*
G01X0062977Y-033046D01*
G01X0062936Y-033058D01*
G01X0062904Y-033061D01*
G01X0062686Y-033061D01*
G01X0062654Y-033058D01*
G01X0062613Y-033046D01*
G01X0062576Y-033026D01*
G01X0062543Y-032999D01*
G01X0062516Y-032966D01*
G01X0062495Y-032928D01*
G01X0062483Y-032887D01*
G01X0062479Y-032844D01*
G01X0062483Y-032802D01*
G01X0062495Y-032761D01*
G01X0062516Y-032723D01*
G01X0062543Y-032690D01*
G01X0062576Y-032663D01*
G01X0062613Y-032643D01*
G01X0062654Y-032631D01*
G01X0062686Y-032628D01*
G01X0062904Y-032628D01*
G01X0062936Y-032631D01*
G01X0062936Y-032631D01*
G37*
G36*
G01X0029744Y-032894D02*
G01X0029311Y-032894D01*
G01X0029311Y-032460D01*
G01X0029744Y-032460D01*
G01X0029744Y-032894D01*
G01X0029744Y-032894D01*
G37*
G36*
G01X0016744Y-032128D02*
G01X0016770Y-032131D01*
G01X0016815Y-032144D01*
G01X0016837Y-032151D01*
G01X0016891Y-032180D01*
G01X0016899Y-032184D01*
G01X0016904Y-032188D01*
G01X0016953Y-032228D01*
G01X0016982Y-032263D01*
G01X0016997Y-032282D01*
G01X0016997Y-032282D01*
G01X0017030Y-032344D01*
G01X0017030Y-032344D01*
G01X0017050Y-032411D01*
G01X0017057Y-032480D01*
G01X0017050Y-032550D01*
G01X0017040Y-032583D01*
G01X0017030Y-032617D01*
G01X0017024Y-032628D01*
G01X0016997Y-032678D01*
G01X0016987Y-032690D01*
G01X0016953Y-032732D01*
G01X0016918Y-032761D01*
G01X0016899Y-032777D01*
G01X0016899Y-032777D01*
G01X0016837Y-032810D01*
G01X0016818Y-032815D01*
G01X0016770Y-032830D01*
G01X0016746Y-032832D01*
G01X0016718Y-032835D01*
G01X0016683Y-032835D01*
G01X0016655Y-032832D01*
G01X0016631Y-032830D01*
G01X0016583Y-032815D01*
G01X0016564Y-032810D01*
G01X0016503Y-032777D01*
G01X0016503Y-032777D01*
G01X0016484Y-032761D01*
G01X0016449Y-032732D01*
G01X0016414Y-032690D01*
G01X0016404Y-032678D01*
G01X0016377Y-032628D01*
G01X0016371Y-032617D01*
G01X0016361Y-032583D01*
G01X0016351Y-032550D01*
G01X0016344Y-032480D01*
G01X0016351Y-032411D01*
G01X0016371Y-032344D01*
G01X0016371Y-032344D01*
G01X0016404Y-032282D01*
G01X0016404Y-032282D01*
G01X0016420Y-032263D01*
G01X0016449Y-032228D01*
G01X0016497Y-032188D01*
G01X0016503Y-032184D01*
G01X0016510Y-032180D01*
G01X0016564Y-032151D01*
G01X0016587Y-032144D01*
G01X0016631Y-032131D01*
G01X0016657Y-032128D01*
G01X0016683Y-032126D01*
G01X0016718Y-032126D01*
G01X0016744Y-032128D01*
G01X0016744Y-032128D01*
G37*
G36*
G01X0014744Y-032128D02*
G01X0014770Y-032131D01*
G01X0014815Y-032144D01*
G01X0014837Y-032151D01*
G01X0014891Y-032180D01*
G01X0014899Y-032184D01*
G01X0014904Y-032188D01*
G01X0014953Y-032228D01*
G01X0014982Y-032263D01*
G01X0014997Y-032282D01*
G01X0014997Y-032282D01*
G01X0015030Y-032344D01*
G01X0015030Y-032344D01*
G01X0015050Y-032411D01*
G01X0015057Y-032480D01*
G01X0015050Y-032550D01*
G01X0015040Y-032583D01*
G01X0015030Y-032617D01*
G01X0015024Y-032628D01*
G01X0014997Y-032678D01*
G01X0014987Y-032690D01*
G01X0014953Y-032732D01*
G01X0014918Y-032761D01*
G01X0014899Y-032777D01*
G01X0014899Y-032777D01*
G01X0014837Y-032810D01*
G01X0014818Y-032815D01*
G01X0014770Y-032830D01*
G01X0014746Y-032832D01*
G01X0014718Y-032835D01*
G01X0014683Y-032835D01*
G01X0014655Y-032832D01*
G01X0014631Y-032830D01*
G01X0014583Y-032815D01*
G01X0014564Y-032810D01*
G01X0014503Y-032777D01*
G01X0014503Y-032777D01*
G01X0014484Y-032761D01*
G01X0014449Y-032732D01*
G01X0014414Y-032690D01*
G01X0014404Y-032678D01*
G01X0014377Y-032628D01*
G01X0014371Y-032617D01*
G01X0014361Y-032583D01*
G01X0014351Y-032550D01*
G01X0014344Y-032480D01*
G01X0014351Y-032411D01*
G01X0014371Y-032344D01*
G01X0014371Y-032344D01*
G01X0014404Y-032282D01*
G01X0014404Y-032282D01*
G01X0014420Y-032263D01*
G01X0014449Y-032228D01*
G01X0014497Y-032188D01*
G01X0014503Y-032184D01*
G01X0014510Y-032180D01*
G01X0014564Y-032151D01*
G01X0014587Y-032144D01*
G01X0014631Y-032131D01*
G01X0014657Y-032128D01*
G01X0014683Y-032126D01*
G01X0014718Y-032126D01*
G01X0014744Y-032128D01*
G01X0014744Y-032128D01*
G37*
G36*
G01X0015744Y-032128D02*
G01X0015770Y-032131D01*
G01X0015815Y-032144D01*
G01X0015837Y-032151D01*
G01X0015891Y-032180D01*
G01X0015899Y-032184D01*
G01X0015904Y-032188D01*
G01X0015953Y-032228D01*
G01X0015982Y-032263D01*
G01X0015997Y-032282D01*
G01X0015997Y-032282D01*
G01X0016030Y-032344D01*
G01X0016030Y-032344D01*
G01X0016050Y-032411D01*
G01X0016057Y-032480D01*
G01X0016050Y-032550D01*
G01X0016040Y-032583D01*
G01X0016030Y-032617D01*
G01X0016024Y-032628D01*
G01X0015997Y-032678D01*
G01X0015987Y-032690D01*
G01X0015953Y-032732D01*
G01X0015918Y-032761D01*
G01X0015899Y-032777D01*
G01X0015899Y-032777D01*
G01X0015837Y-032810D01*
G01X0015818Y-032815D01*
G01X0015770Y-032830D01*
G01X0015746Y-032832D01*
G01X0015718Y-032835D01*
G01X0015683Y-032835D01*
G01X0015655Y-032832D01*
G01X0015631Y-032830D01*
G01X0015583Y-032815D01*
G01X0015564Y-032810D01*
G01X0015503Y-032777D01*
G01X0015503Y-032777D01*
G01X0015484Y-032761D01*
G01X0015449Y-032732D01*
G01X0015414Y-032690D01*
G01X0015404Y-032678D01*
G01X0015377Y-032628D01*
G01X0015371Y-032617D01*
G01X0015361Y-032583D01*
G01X0015351Y-032550D01*
G01X0015344Y-032480D01*
G01X0015351Y-032411D01*
G01X0015371Y-032344D01*
G01X0015371Y-032344D01*
G01X0015404Y-032282D01*
G01X0015404Y-032282D01*
G01X0015420Y-032263D01*
G01X0015449Y-032228D01*
G01X0015497Y-032188D01*
G01X0015503Y-032184D01*
G01X0015510Y-032180D01*
G01X0015564Y-032151D01*
G01X0015587Y-032144D01*
G01X0015631Y-032131D01*
G01X0015657Y-032128D01*
G01X0015683Y-032126D01*
G01X0015718Y-032126D01*
G01X0015744Y-032128D01*
G01X0015744Y-032128D01*
G37*
G36*
G01X0019056Y-032835D02*
G01X0018346Y-032835D01*
G01X0018346Y-032126D01*
G01X0019056Y-032126D01*
G01X0019056Y-032835D01*
G01X0019056Y-032835D01*
G37*
G36*
G01X0017744Y-032128D02*
G01X0017770Y-032131D01*
G01X0017815Y-032144D01*
G01X0017837Y-032151D01*
G01X0017891Y-032180D01*
G01X0017899Y-032184D01*
G01X0017904Y-032188D01*
G01X0017953Y-032228D01*
G01X0017982Y-032263D01*
G01X0017997Y-032282D01*
G01X0017997Y-032282D01*
G01X0018030Y-032344D01*
G01X0018030Y-032344D01*
G01X0018050Y-032411D01*
G01X0018057Y-032480D01*
G01X0018050Y-032550D01*
G01X0018040Y-032583D01*
G01X0018030Y-032617D01*
G01X0018024Y-032628D01*
G01X0017997Y-032678D01*
G01X0017987Y-032690D01*
G01X0017953Y-032732D01*
G01X0017918Y-032761D01*
G01X0017899Y-032777D01*
G01X0017899Y-032777D01*
G01X0017837Y-032810D01*
G01X0017818Y-032815D01*
G01X0017770Y-032830D01*
G01X0017746Y-032832D01*
G01X0017718Y-032835D01*
G01X0017683Y-032835D01*
G01X0017655Y-032832D01*
G01X0017631Y-032830D01*
G01X0017583Y-032815D01*
G01X0017564Y-032810D01*
G01X0017503Y-032777D01*
G01X0017503Y-032777D01*
G01X0017484Y-032761D01*
G01X0017449Y-032732D01*
G01X0017414Y-032690D01*
G01X0017404Y-032678D01*
G01X0017377Y-032628D01*
G01X0017371Y-032617D01*
G01X0017361Y-032583D01*
G01X0017351Y-032550D01*
G01X0017344Y-032480D01*
G01X0017351Y-032411D01*
G01X0017371Y-032344D01*
G01X0017371Y-032344D01*
G01X0017404Y-032282D01*
G01X0017404Y-032282D01*
G01X0017420Y-032263D01*
G01X0017449Y-032228D01*
G01X0017497Y-032188D01*
G01X0017503Y-032184D01*
G01X0017510Y-032180D01*
G01X0017564Y-032151D01*
G01X0017587Y-032144D01*
G01X0017631Y-032131D01*
G01X0017657Y-032128D01*
G01X0017683Y-032126D01*
G01X0017718Y-032126D01*
G01X0017744Y-032128D01*
G01X0017744Y-032128D01*
G37*
G36*
G01X0053524Y-032815D02*
G01X0053090Y-032815D01*
G01X0053090Y-032381D01*
G01X0053524Y-032381D01*
G01X0053524Y-032815D01*
G01X0053524Y-032815D01*
G37*
G36*
G01X0057067Y-032815D02*
G01X0056633Y-032815D01*
G01X0056633Y-032381D01*
G01X0057067Y-032381D01*
G01X0057067Y-032815D01*
G01X0057067Y-032815D01*
G37*
G36*
G01X0056359Y-032815D02*
G01X0055925Y-032815D01*
G01X0055925Y-032381D01*
G01X0056359Y-032381D01*
G01X0056359Y-032815D01*
G01X0056359Y-032815D01*
G37*
G36*
G01X0052815Y-032815D02*
G01X0052381Y-032815D01*
G01X0052381Y-032381D01*
G01X0052815Y-032381D01*
G01X0052815Y-032815D01*
G01X0052815Y-032815D01*
G37*
G36*
G01X0029056Y-032697D02*
G01X0028622Y-032697D01*
G01X0028622Y-032263D01*
G01X0029056Y-032263D01*
G01X0029056Y-032697D01*
G01X0029056Y-032697D01*
G37*
G36*
G01X0034366Y-032177D02*
G01X0034381Y-032181D01*
G01X0034394Y-032188D01*
G01X0034406Y-032198D01*
G01X0034416Y-032210D01*
G01X0034423Y-032224D01*
G01X0034428Y-032238D01*
G01X0034430Y-032256D01*
G01X0034430Y-032508D01*
G01X0034428Y-032525D01*
G01X0034423Y-032540D01*
G01X0034416Y-032554D01*
G01X0034406Y-032566D01*
G01X0034394Y-032575D01*
G01X0034381Y-032583D01*
G01X0034366Y-032587D01*
G01X0034348Y-032589D01*
G01X0034057Y-032589D01*
G01X0034040Y-032587D01*
G01X0034025Y-032583D01*
G01X0034011Y-032575D01*
G01X0033999Y-032566D01*
G01X0033989Y-032554D01*
G01X0033982Y-032540D01*
G01X0033978Y-032525D01*
G01X0033976Y-032508D01*
G01X0033976Y-032256D01*
G01X0033978Y-032238D01*
G01X0033982Y-032224D01*
G01X0033989Y-032210D01*
G01X0033999Y-032198D01*
G01X0034011Y-032188D01*
G01X0034025Y-032181D01*
G01X0034040Y-032177D01*
G01X0034057Y-032175D01*
G01X0034348Y-032175D01*
G01X0034366Y-032177D01*
G01X0034366Y-032177D01*
G37*
G36*
G01X0035055Y-032177D02*
G01X0035070Y-032181D01*
G01X0035083Y-032188D01*
G01X0035095Y-032198D01*
G01X0035105Y-032210D01*
G01X0035112Y-032224D01*
G01X0035117Y-032238D01*
G01X0035119Y-032256D01*
G01X0035119Y-032508D01*
G01X0035117Y-032525D01*
G01X0035112Y-032540D01*
G01X0035105Y-032554D01*
G01X0035095Y-032566D01*
G01X0035083Y-032575D01*
G01X0035070Y-032583D01*
G01X0035055Y-032587D01*
G01X0035037Y-032589D01*
G01X0034746Y-032589D01*
G01X0034729Y-032587D01*
G01X0034714Y-032583D01*
G01X0034700Y-032575D01*
G01X0034688Y-032566D01*
G01X0034678Y-032554D01*
G01X0034671Y-032540D01*
G01X0034667Y-032525D01*
G01X0034665Y-032508D01*
G01X0034665Y-032256D01*
G01X0034667Y-032238D01*
G01X0034671Y-032224D01*
G01X0034678Y-032210D01*
G01X0034688Y-032198D01*
G01X0034700Y-032188D01*
G01X0034714Y-032181D01*
G01X0034729Y-032177D01*
G01X0034746Y-032175D01*
G01X0035037Y-032175D01*
G01X0035055Y-032177D01*
G01X0035055Y-032177D01*
G37*
G36*
G01X0045493Y-032579D02*
G01X0045059Y-032579D01*
G01X0045059Y-032145D01*
G01X0045493Y-032145D01*
G01X0045493Y-032579D01*
G01X0045493Y-032579D01*
G37*
G36*
G01X0063081Y-032500D02*
G01X0062509Y-032500D01*
G01X0062509Y-031279D01*
G01X0063081Y-031279D01*
G01X0063081Y-032500D01*
G01X0063081Y-032500D01*
G37*
G36*
G01X0030433Y-032500D02*
G01X0030000Y-032500D01*
G01X0030000Y-032067D01*
G01X0030433Y-032067D01*
G01X0030433Y-032500D01*
G01X0030433Y-032500D01*
G37*
G36*
G01X0061138Y-032078D02*
G01X0061152Y-032083D01*
G01X0061166Y-032090D01*
G01X0061178Y-032100D01*
G01X0061188Y-032112D01*
G01X0061195Y-032125D01*
G01X0061199Y-032140D01*
G01X0061201Y-032158D01*
G01X0061201Y-032409D01*
G01X0061199Y-032427D01*
G01X0061195Y-032442D01*
G01X0061188Y-032455D01*
G01X0061178Y-032467D01*
G01X0061166Y-032477D01*
G01X0061152Y-032484D01*
G01X0061138Y-032489D01*
G01X0061120Y-032491D01*
G01X0060829Y-032491D01*
G01X0060811Y-032489D01*
G01X0060796Y-032484D01*
G01X0060783Y-032477D01*
G01X0060771Y-032467D01*
G01X0060761Y-032455D01*
G01X0060754Y-032442D01*
G01X0060749Y-032427D01*
G01X0060748Y-032409D01*
G01X0060748Y-032158D01*
G01X0060749Y-032140D01*
G01X0060754Y-032125D01*
G01X0060761Y-032112D01*
G01X0060771Y-032100D01*
G01X0060783Y-032090D01*
G01X0060796Y-032083D01*
G01X0060811Y-032078D01*
G01X0060829Y-032076D01*
G01X0061120Y-032076D01*
G01X0061138Y-032078D01*
G01X0061138Y-032078D01*
G37*
G36*
G01X0060449Y-032078D02*
G01X0060463Y-032083D01*
G01X0060477Y-032090D01*
G01X0060489Y-032100D01*
G01X0060499Y-032112D01*
G01X0060506Y-032125D01*
G01X0060510Y-032140D01*
G01X0060512Y-032158D01*
G01X0060512Y-032409D01*
G01X0060510Y-032427D01*
G01X0060506Y-032442D01*
G01X0060499Y-032455D01*
G01X0060489Y-032467D01*
G01X0060477Y-032477D01*
G01X0060463Y-032484D01*
G01X0060449Y-032489D01*
G01X0060431Y-032491D01*
G01X0060140Y-032491D01*
G01X0060122Y-032489D01*
G01X0060107Y-032484D01*
G01X0060094Y-032477D01*
G01X0060082Y-032467D01*
G01X0060072Y-032455D01*
G01X0060065Y-032442D01*
G01X0060060Y-032427D01*
G01X0060059Y-032409D01*
G01X0060059Y-032158D01*
G01X0060060Y-032140D01*
G01X0060065Y-032125D01*
G01X0060072Y-032112D01*
G01X0060082Y-032100D01*
G01X0060094Y-032090D01*
G01X0060107Y-032083D01*
G01X0060122Y-032078D01*
G01X0060140Y-032076D01*
G01X0060431Y-032076D01*
G01X0060449Y-032078D01*
G01X0060449Y-032078D01*
G37*
G36*
G01X0029744Y-032304D02*
G01X0029311Y-032304D01*
G01X0029311Y-031870D01*
G01X0029744Y-031870D01*
G01X0029744Y-032304D01*
G01X0029744Y-032304D01*
G37*
G36*
G01X0057067Y-032107D02*
G01X0056633Y-032107D01*
G01X0056633Y-031673D01*
G01X0057067Y-031673D01*
G01X0057067Y-032107D01*
G01X0057067Y-032107D01*
G37*
G36*
G01X0056359Y-032107D02*
G01X0055925Y-032107D01*
G01X0055925Y-031673D01*
G01X0056359Y-031673D01*
G01X0056359Y-032107D01*
G01X0056359Y-032107D01*
G37*
G36*
G01X0029056Y-032107D02*
G01X0028622Y-032107D01*
G01X0028622Y-031673D01*
G01X0029056Y-031673D01*
G01X0029056Y-032107D01*
G01X0029056Y-032107D01*
G37*
G36*
G01X0036634Y-032008D02*
G01X0036200Y-032008D01*
G01X0036200Y-031574D01*
G01X0036634Y-031574D01*
G01X0036634Y-032008D01*
G01X0036634Y-032008D01*
G37*
G36*
G01X0030433Y-031910D02*
G01X0030000Y-031910D01*
G01X0030000Y-031476D01*
G01X0030433Y-031476D01*
G01X0030433Y-031910D01*
G01X0030433Y-031910D01*
G37*
G36*
G01X0016744Y-031128D02*
G01X0016770Y-031131D01*
G01X0016815Y-031144D01*
G01X0016837Y-031151D01*
G01X0016892Y-031180D01*
G01X0016899Y-031184D01*
G01X0016913Y-031195D01*
G01X0016953Y-031228D01*
G01X0016986Y-031268D01*
G01X0016997Y-031282D01*
G01X0016997Y-031282D01*
G01X0017030Y-031344D01*
G01X0017035Y-031359D01*
G01X0017050Y-031411D01*
G01X0017057Y-031480D01*
G01X0017050Y-031550D01*
G01X0017043Y-031574D01*
G01X0017030Y-031617D01*
G01X0017021Y-031634D01*
G01X0016997Y-031678D01*
G01X0016997Y-031679D01*
G01X0016953Y-031732D01*
G01X0016913Y-031765D01*
G01X0016899Y-031777D01*
G01X0016899Y-031777D01*
G01X0016837Y-031810D01*
G01X0016831Y-031811D01*
G01X0016770Y-031830D01*
G01X0016744Y-031832D01*
G01X0016718Y-031835D01*
G01X0016683Y-031835D01*
G01X0016657Y-031832D01*
G01X0016631Y-031830D01*
G01X0016570Y-031811D01*
G01X0016564Y-031810D01*
G01X0016503Y-031777D01*
G01X0016503Y-031777D01*
G01X0016489Y-031765D01*
G01X0016449Y-031732D01*
G01X0016405Y-031679D01*
G01X0016404Y-031678D01*
G01X0016381Y-031634D01*
G01X0016371Y-031617D01*
G01X0016359Y-031574D01*
G01X0016351Y-031550D01*
G01X0016344Y-031480D01*
G01X0016351Y-031411D01*
G01X0016367Y-031359D01*
G01X0016371Y-031344D01*
G01X0016404Y-031282D01*
G01X0016404Y-031282D01*
G01X0016416Y-031268D01*
G01X0016449Y-031228D01*
G01X0016489Y-031195D01*
G01X0016503Y-031184D01*
G01X0016510Y-031180D01*
G01X0016564Y-031151D01*
G01X0016587Y-031144D01*
G01X0016631Y-031131D01*
G01X0016657Y-031128D01*
G01X0016683Y-031126D01*
G01X0016718Y-031126D01*
G01X0016744Y-031128D01*
G01X0016744Y-031128D01*
G37*
G36*
G01X0017744Y-031128D02*
G01X0017770Y-031131D01*
G01X0017815Y-031144D01*
G01X0017837Y-031151D01*
G01X0017892Y-031180D01*
G01X0017899Y-031184D01*
G01X0017913Y-031195D01*
G01X0017953Y-031228D01*
G01X0017986Y-031268D01*
G01X0017997Y-031282D01*
G01X0017997Y-031282D01*
G01X0018030Y-031344D01*
G01X0018035Y-031359D01*
G01X0018050Y-031411D01*
G01X0018057Y-031480D01*
G01X0018050Y-031550D01*
G01X0018043Y-031574D01*
G01X0018030Y-031617D01*
G01X0018021Y-031634D01*
G01X0017997Y-031678D01*
G01X0017997Y-031679D01*
G01X0017953Y-031732D01*
G01X0017913Y-031765D01*
G01X0017899Y-031777D01*
G01X0017899Y-031777D01*
G01X0017837Y-031810D01*
G01X0017831Y-031811D01*
G01X0017770Y-031830D01*
G01X0017744Y-031832D01*
G01X0017718Y-031835D01*
G01X0017683Y-031835D01*
G01X0017657Y-031832D01*
G01X0017631Y-031830D01*
G01X0017570Y-031811D01*
G01X0017564Y-031810D01*
G01X0017503Y-031777D01*
G01X0017503Y-031777D01*
G01X0017489Y-031765D01*
G01X0017449Y-031732D01*
G01X0017405Y-031679D01*
G01X0017404Y-031678D01*
G01X0017381Y-031634D01*
G01X0017371Y-031617D01*
G01X0017359Y-031574D01*
G01X0017351Y-031550D01*
G01X0017344Y-031480D01*
G01X0017351Y-031411D01*
G01X0017367Y-031359D01*
G01X0017371Y-031344D01*
G01X0017404Y-031282D01*
G01X0017404Y-031282D01*
G01X0017416Y-031268D01*
G01X0017449Y-031228D01*
G01X0017489Y-031195D01*
G01X0017503Y-031184D01*
G01X0017510Y-031180D01*
G01X0017564Y-031151D01*
G01X0017587Y-031144D01*
G01X0017631Y-031131D01*
G01X0017657Y-031128D01*
G01X0017683Y-031126D01*
G01X0017718Y-031126D01*
G01X0017744Y-031128D01*
G01X0017744Y-031128D01*
G37*
G36*
G01X0018744Y-031128D02*
G01X0018770Y-031131D01*
G01X0018815Y-031144D01*
G01X0018837Y-031151D01*
G01X0018892Y-031180D01*
G01X0018899Y-031184D01*
G01X0018913Y-031195D01*
G01X0018953Y-031228D01*
G01X0018986Y-031268D01*
G01X0018997Y-031282D01*
G01X0018997Y-031282D01*
G01X0019030Y-031344D01*
G01X0019035Y-031359D01*
G01X0019050Y-031411D01*
G01X0019057Y-031480D01*
G01X0019050Y-031550D01*
G01X0019043Y-031574D01*
G01X0019030Y-031617D01*
G01X0019021Y-031634D01*
G01X0018997Y-031678D01*
G01X0018997Y-031679D01*
G01X0018953Y-031732D01*
G01X0018913Y-031765D01*
G01X0018899Y-031777D01*
G01X0018899Y-031777D01*
G01X0018837Y-031810D01*
G01X0018831Y-031811D01*
G01X0018770Y-031830D01*
G01X0018744Y-031832D01*
G01X0018718Y-031835D01*
G01X0018683Y-031835D01*
G01X0018657Y-031832D01*
G01X0018631Y-031830D01*
G01X0018570Y-031811D01*
G01X0018564Y-031810D01*
G01X0018503Y-031777D01*
G01X0018503Y-031777D01*
G01X0018489Y-031765D01*
G01X0018449Y-031732D01*
G01X0018405Y-031679D01*
G01X0018404Y-031678D01*
G01X0018381Y-031634D01*
G01X0018371Y-031617D01*
G01X0018359Y-031574D01*
G01X0018351Y-031550D01*
G01X0018344Y-031480D01*
G01X0018351Y-031411D01*
G01X0018367Y-031359D01*
G01X0018371Y-031344D01*
G01X0018404Y-031282D01*
G01X0018404Y-031282D01*
G01X0018416Y-031268D01*
G01X0018449Y-031228D01*
G01X0018489Y-031195D01*
G01X0018503Y-031184D01*
G01X0018510Y-031180D01*
G01X0018564Y-031151D01*
G01X0018587Y-031144D01*
G01X0018631Y-031131D01*
G01X0018657Y-031128D01*
G01X0018683Y-031126D01*
G01X0018718Y-031126D01*
G01X0018744Y-031128D01*
G01X0018744Y-031128D01*
G37*
G36*
G01X0015744Y-031128D02*
G01X0015770Y-031131D01*
G01X0015815Y-031144D01*
G01X0015837Y-031151D01*
G01X0015892Y-031180D01*
G01X0015899Y-031184D01*
G01X0015913Y-031195D01*
G01X0015953Y-031228D01*
G01X0015986Y-031268D01*
G01X0015997Y-031282D01*
G01X0015997Y-031282D01*
G01X0016030Y-031344D01*
G01X0016035Y-031359D01*
G01X0016050Y-031411D01*
G01X0016057Y-031480D01*
G01X0016050Y-031550D01*
G01X0016043Y-031574D01*
G01X0016030Y-031617D01*
G01X0016021Y-031634D01*
G01X0015997Y-031678D01*
G01X0015997Y-031679D01*
G01X0015953Y-031732D01*
G01X0015913Y-031765D01*
G01X0015899Y-031777D01*
G01X0015899Y-031777D01*
G01X0015837Y-031810D01*
G01X0015831Y-031811D01*
G01X0015770Y-031830D01*
G01X0015744Y-031832D01*
G01X0015718Y-031835D01*
G01X0015683Y-031835D01*
G01X0015657Y-031832D01*
G01X0015631Y-031830D01*
G01X0015570Y-031811D01*
G01X0015564Y-031810D01*
G01X0015503Y-031777D01*
G01X0015503Y-031777D01*
G01X0015489Y-031765D01*
G01X0015449Y-031732D01*
G01X0015405Y-031679D01*
G01X0015404Y-031678D01*
G01X0015381Y-031634D01*
G01X0015371Y-031617D01*
G01X0015359Y-031574D01*
G01X0015351Y-031550D01*
G01X0015344Y-031480D01*
G01X0015351Y-031411D01*
G01X0015367Y-031359D01*
G01X0015371Y-031344D01*
G01X0015404Y-031282D01*
G01X0015404Y-031282D01*
G01X0015416Y-031268D01*
G01X0015449Y-031228D01*
G01X0015489Y-031195D01*
G01X0015503Y-031184D01*
G01X0015510Y-031180D01*
G01X0015564Y-031151D01*
G01X0015587Y-031144D01*
G01X0015631Y-031131D01*
G01X0015657Y-031128D01*
G01X0015683Y-031126D01*
G01X0015718Y-031126D01*
G01X0015744Y-031128D01*
G01X0015744Y-031128D01*
G37*
G36*
G01X0014744Y-031128D02*
G01X0014770Y-031131D01*
G01X0014815Y-031144D01*
G01X0014837Y-031151D01*
G01X0014892Y-031180D01*
G01X0014899Y-031184D01*
G01X0014913Y-031195D01*
G01X0014953Y-031228D01*
G01X0014986Y-031268D01*
G01X0014997Y-031282D01*
G01X0014997Y-031282D01*
G01X0015030Y-031344D01*
G01X0015035Y-031359D01*
G01X0015050Y-031411D01*
G01X0015057Y-031480D01*
G01X0015050Y-031550D01*
G01X0015043Y-031574D01*
G01X0015030Y-031617D01*
G01X0015021Y-031634D01*
G01X0014997Y-031678D01*
G01X0014997Y-031679D01*
G01X0014953Y-031732D01*
G01X0014913Y-031765D01*
G01X0014899Y-031777D01*
G01X0014899Y-031777D01*
G01X0014837Y-031810D01*
G01X0014831Y-031811D01*
G01X0014770Y-031830D01*
G01X0014744Y-031832D01*
G01X0014718Y-031835D01*
G01X0014683Y-031835D01*
G01X0014657Y-031832D01*
G01X0014631Y-031830D01*
G01X0014570Y-031811D01*
G01X0014564Y-031810D01*
G01X0014503Y-031777D01*
G01X0014503Y-031777D01*
G01X0014489Y-031765D01*
G01X0014449Y-031732D01*
G01X0014405Y-031679D01*
G01X0014404Y-031678D01*
G01X0014381Y-031634D01*
G01X0014371Y-031617D01*
G01X0014359Y-031574D01*
G01X0014351Y-031550D01*
G01X0014344Y-031480D01*
G01X0014351Y-031411D01*
G01X0014367Y-031359D01*
G01X0014371Y-031344D01*
G01X0014404Y-031282D01*
G01X0014404Y-031282D01*
G01X0014416Y-031268D01*
G01X0014449Y-031228D01*
G01X0014489Y-031195D01*
G01X0014503Y-031184D01*
G01X0014510Y-031180D01*
G01X0014564Y-031151D01*
G01X0014587Y-031144D01*
G01X0014631Y-031131D01*
G01X0014657Y-031128D01*
G01X0014683Y-031126D01*
G01X0014718Y-031126D01*
G01X0014744Y-031128D01*
G01X0014744Y-031128D01*
G37*
G36*
G01X0035945Y-031811D02*
G01X0035511Y-031811D01*
G01X0035511Y-031378D01*
G01X0035945Y-031378D01*
G01X0035945Y-031811D01*
G01X0035945Y-031811D01*
G37*
G36*
G01X0034366Y-031389D02*
G01X0034381Y-031394D01*
G01X0034394Y-031401D01*
G01X0034406Y-031411D01*
G01X0034416Y-031423D01*
G01X0034423Y-031436D01*
G01X0034428Y-031451D01*
G01X0034430Y-031469D01*
G01X0034430Y-031720D01*
G01X0034428Y-031738D01*
G01X0034423Y-031753D01*
G01X0034416Y-031766D01*
G01X0034406Y-031778D01*
G01X0034394Y-031788D01*
G01X0034381Y-031795D01*
G01X0034366Y-031800D01*
G01X0034348Y-031802D01*
G01X0034057Y-031802D01*
G01X0034040Y-031800D01*
G01X0034025Y-031795D01*
G01X0034011Y-031788D01*
G01X0033999Y-031778D01*
G01X0033989Y-031766D01*
G01X0033982Y-031753D01*
G01X0033978Y-031738D01*
G01X0033976Y-031720D01*
G01X0033976Y-031469D01*
G01X0033978Y-031451D01*
G01X0033982Y-031436D01*
G01X0033989Y-031423D01*
G01X0033999Y-031411D01*
G01X0034011Y-031401D01*
G01X0034025Y-031394D01*
G01X0034040Y-031389D01*
G01X0034057Y-031387D01*
G01X0034348Y-031387D01*
G01X0034366Y-031389D01*
G01X0034366Y-031389D01*
G37*
G36*
G01X0035055Y-031389D02*
G01X0035070Y-031394D01*
G01X0035083Y-031401D01*
G01X0035095Y-031411D01*
G01X0035105Y-031423D01*
G01X0035112Y-031436D01*
G01X0035117Y-031451D01*
G01X0035119Y-031469D01*
G01X0035119Y-031720D01*
G01X0035117Y-031738D01*
G01X0035112Y-031753D01*
G01X0035105Y-031766D01*
G01X0035095Y-031778D01*
G01X0035083Y-031788D01*
G01X0035070Y-031795D01*
G01X0035055Y-031800D01*
G01X0035037Y-031802D01*
G01X0034746Y-031802D01*
G01X0034729Y-031800D01*
G01X0034714Y-031795D01*
G01X0034700Y-031788D01*
G01X0034688Y-031778D01*
G01X0034678Y-031766D01*
G01X0034671Y-031753D01*
G01X0034667Y-031738D01*
G01X0034665Y-031720D01*
G01X0034665Y-031469D01*
G01X0034667Y-031451D01*
G01X0034671Y-031436D01*
G01X0034678Y-031423D01*
G01X0034688Y-031411D01*
G01X0034700Y-031401D01*
G01X0034714Y-031394D01*
G01X0034729Y-031389D01*
G01X0034746Y-031387D01*
G01X0035037Y-031387D01*
G01X0035055Y-031389D01*
G01X0035055Y-031389D01*
G37*
G36*
G01X0061138Y-031330D02*
G01X0061152Y-031335D01*
G01X0061166Y-031342D01*
G01X0061178Y-031352D01*
G01X0061188Y-031364D01*
G01X0061195Y-031377D01*
G01X0061199Y-031392D01*
G01X0061201Y-031410D01*
G01X0061201Y-031661D01*
G01X0061199Y-031679D01*
G01X0061195Y-031694D01*
G01X0061188Y-031707D01*
G01X0061178Y-031719D01*
G01X0061166Y-031729D01*
G01X0061152Y-031736D01*
G01X0061138Y-031741D01*
G01X0061120Y-031743D01*
G01X0060829Y-031743D01*
G01X0060811Y-031741D01*
G01X0060796Y-031736D01*
G01X0060783Y-031729D01*
G01X0060771Y-031719D01*
G01X0060761Y-031707D01*
G01X0060754Y-031694D01*
G01X0060749Y-031679D01*
G01X0060748Y-031661D01*
G01X0060748Y-031410D01*
G01X0060749Y-031392D01*
G01X0060754Y-031377D01*
G01X0060761Y-031364D01*
G01X0060771Y-031352D01*
G01X0060783Y-031342D01*
G01X0060796Y-031335D01*
G01X0060811Y-031330D01*
G01X0060829Y-031328D01*
G01X0061120Y-031328D01*
G01X0061138Y-031330D01*
G01X0061138Y-031330D01*
G37*
G36*
G01X0060449Y-031330D02*
G01X0060463Y-031335D01*
G01X0060477Y-031342D01*
G01X0060489Y-031352D01*
G01X0060499Y-031364D01*
G01X0060506Y-031377D01*
G01X0060510Y-031392D01*
G01X0060512Y-031410D01*
G01X0060512Y-031661D01*
G01X0060510Y-031679D01*
G01X0060506Y-031694D01*
G01X0060499Y-031707D01*
G01X0060489Y-031719D01*
G01X0060477Y-031729D01*
G01X0060463Y-031736D01*
G01X0060449Y-031741D01*
G01X0060431Y-031743D01*
G01X0060140Y-031743D01*
G01X0060122Y-031741D01*
G01X0060107Y-031736D01*
G01X0060094Y-031729D01*
G01X0060082Y-031719D01*
G01X0060072Y-031707D01*
G01X0060065Y-031694D01*
G01X0060060Y-031679D01*
G01X0060059Y-031661D01*
G01X0060059Y-031410D01*
G01X0060060Y-031392D01*
G01X0060065Y-031377D01*
G01X0060072Y-031364D01*
G01X0060082Y-031352D01*
G01X0060094Y-031342D01*
G01X0060107Y-031335D01*
G01X0060122Y-031330D01*
G01X0060140Y-031328D01*
G01X0060431Y-031328D01*
G01X0060449Y-031330D01*
G01X0060449Y-031330D01*
G37*
G36*
G01X0029744Y-031713D02*
G01X0029311Y-031713D01*
G01X0029311Y-031279D01*
G01X0029744Y-031279D01*
G01X0029744Y-031713D01*
G01X0029744Y-031713D01*
G37*
G36*
G01X0053524Y-031634D02*
G01X0053090Y-031634D01*
G01X0053090Y-031200D01*
G01X0053524Y-031200D01*
G01X0053524Y-031634D01*
G01X0053524Y-031634D01*
G37*
G36*
G01X0029056Y-031516D02*
G01X0028622Y-031516D01*
G01X0028622Y-031082D01*
G01X0029056Y-031082D01*
G01X0029056Y-031516D01*
G01X0029056Y-031516D01*
G37*
G36*
G01X0030433Y-031319D02*
G01X0030000Y-031319D01*
G01X0030000Y-030885D01*
G01X0030433Y-030885D01*
G01X0030433Y-031319D01*
G01X0030433Y-031319D01*
G37*
G36*
G01X0036634Y-031319D02*
G01X0036200Y-031319D01*
G01X0036200Y-030885D01*
G01X0036634Y-030885D01*
G01X0036634Y-031319D01*
G01X0036634Y-031319D01*
G37*
G36*
G01X0041162Y-031317D02*
G01X0040728Y-031317D01*
G01X0040728Y-030194D01*
G01X0041162Y-030194D01*
G01X0041162Y-031317D01*
G01X0041162Y-031317D01*
G37*
G36*
G01X0042737Y-031317D02*
G01X0042303Y-031317D01*
G01X0042303Y-030194D01*
G01X0042737Y-030194D01*
G01X0042737Y-031317D01*
G01X0042737Y-031317D01*
G37*
G36*
G01X0052933Y-031280D02*
G01X0052500Y-031280D01*
G01X0052500Y-030846D01*
G01X0052933Y-030846D01*
G01X0052933Y-031280D01*
G01X0052933Y-031280D01*
G37*
G36*
G01X0062936Y-030721D02*
G01X0062977Y-030734D01*
G01X0063015Y-030754D01*
G01X0063048Y-030781D01*
G01X0063075Y-030814D01*
G01X0063095Y-030852D01*
G01X0063107Y-030893D01*
G01X0063112Y-030935D01*
G01X0063107Y-030978D01*
G01X0063095Y-031018D01*
G01X0063075Y-031056D01*
G01X0063048Y-031089D01*
G01X0063015Y-031116D01*
G01X0062977Y-031136D01*
G01X0062936Y-031149D01*
G01X0062904Y-031152D01*
G01X0062686Y-031152D01*
G01X0062654Y-031149D01*
G01X0062613Y-031136D01*
G01X0062576Y-031116D01*
G01X0062543Y-031089D01*
G01X0062516Y-031056D01*
G01X0062495Y-031018D01*
G01X0062483Y-030978D01*
G01X0062479Y-030935D01*
G01X0062483Y-030893D01*
G01X0062495Y-030852D01*
G01X0062516Y-030814D01*
G01X0062543Y-030781D01*
G01X0062576Y-030754D01*
G01X0062613Y-030734D01*
G01X0062654Y-030721D01*
G01X0062686Y-030718D01*
G01X0062904Y-030718D01*
G01X0062936Y-030721D01*
G01X0062936Y-030721D01*
G37*
G36*
G01X0029744Y-031122D02*
G01X0029311Y-031122D01*
G01X0029311Y-030689D01*
G01X0029744Y-030689D01*
G01X0029744Y-031122D01*
G01X0029744Y-031122D01*
G37*
G36*
G01X0053524Y-031044D02*
G01X0053090Y-031044D01*
G01X0053090Y-030610D01*
G01X0053524Y-030610D01*
G01X0053524Y-031044D01*
G01X0053524Y-031044D01*
G37*
G36*
G01X0029056Y-030926D02*
G01X0028622Y-030926D01*
G01X0028622Y-030492D01*
G01X0029056Y-030492D01*
G01X0029056Y-030926D01*
G01X0029056Y-030926D01*
G37*
G36*
G01X0034395Y-030434D02*
G01X0034410Y-030439D01*
G01X0034424Y-030446D01*
G01X0034436Y-030456D01*
G01X0034446Y-030468D01*
G01X0034453Y-030481D01*
G01X0034457Y-030496D01*
G01X0034459Y-030514D01*
G01X0034459Y-030805D01*
G01X0034457Y-030823D01*
G01X0034453Y-030837D01*
G01X0034446Y-030851D01*
G01X0034436Y-030863D01*
G01X0034424Y-030873D01*
G01X0034410Y-030880D01*
G01X0034395Y-030884D01*
G01X0034378Y-030886D01*
G01X0034126Y-030886D01*
G01X0034108Y-030884D01*
G01X0034094Y-030880D01*
G01X0034080Y-030873D01*
G01X0034068Y-030863D01*
G01X0034058Y-030851D01*
G01X0034051Y-030837D01*
G01X0034047Y-030823D01*
G01X0034045Y-030805D01*
G01X0034045Y-030514D01*
G01X0034047Y-030496D01*
G01X0034051Y-030481D01*
G01X0034058Y-030468D01*
G01X0034068Y-030456D01*
G01X0034080Y-030446D01*
G01X0034094Y-030439D01*
G01X0034108Y-030434D01*
G01X0034126Y-030433D01*
G01X0034378Y-030433D01*
G01X0034395Y-030434D01*
G01X0034395Y-030434D01*
G37*
G36*
G01X0035183Y-030434D02*
G01X0035198Y-030439D01*
G01X0035211Y-030446D01*
G01X0035223Y-030456D01*
G01X0035233Y-030468D01*
G01X0035240Y-030481D01*
G01X0035245Y-030496D01*
G01X0035246Y-030514D01*
G01X0035246Y-030805D01*
G01X0035245Y-030823D01*
G01X0035240Y-030837D01*
G01X0035233Y-030851D01*
G01X0035223Y-030863D01*
G01X0035211Y-030873D01*
G01X0035198Y-030880D01*
G01X0035183Y-030884D01*
G01X0035165Y-030886D01*
G01X0034914Y-030886D01*
G01X0034896Y-030884D01*
G01X0034881Y-030880D01*
G01X0034867Y-030873D01*
G01X0034856Y-030863D01*
G01X0034846Y-030851D01*
G01X0034839Y-030837D01*
G01X0034834Y-030823D01*
G01X0034832Y-030805D01*
G01X0034832Y-030514D01*
G01X0034834Y-030496D01*
G01X0034839Y-030481D01*
G01X0034846Y-030468D01*
G01X0034856Y-030456D01*
G01X0034867Y-030446D01*
G01X0034881Y-030439D01*
G01X0034896Y-030434D01*
G01X0034914Y-030433D01*
G01X0035165Y-030433D01*
G01X0035183Y-030434D01*
G01X0035183Y-030434D01*
G37*
G36*
G01X0063999Y-030152D02*
G01X0064058Y-030170D01*
G01X0064113Y-030199D01*
G01X0064161Y-030239D01*
G01X0064200Y-030287D01*
G01X0064230Y-030341D01*
G01X0064248Y-030401D01*
G01X0064254Y-030463D01*
G01X0064248Y-030524D01*
G01X0064230Y-030584D01*
G01X0064200Y-030639D01*
G01X0064161Y-030687D01*
G01X0064113Y-030726D01*
G01X0064058Y-030755D01*
G01X0063999Y-030773D01*
G01X0063952Y-030778D01*
G01X0063725Y-030778D01*
G01X0063678Y-030773D01*
G01X0063619Y-030755D01*
G01X0063564Y-030726D01*
G01X0063516Y-030687D01*
G01X0063477Y-030639D01*
G01X0063447Y-030584D01*
G01X0063429Y-030524D01*
G01X0063423Y-030463D01*
G01X0063429Y-030401D01*
G01X0063447Y-030341D01*
G01X0063477Y-030287D01*
G01X0063516Y-030239D01*
G01X0063564Y-030199D01*
G01X0063619Y-030170D01*
G01X0063678Y-030152D01*
G01X0063725Y-030147D01*
G01X0063952Y-030147D01*
G01X0063999Y-030152D01*
G01X0063999Y-030152D01*
G37*
G36*
G01X0030433Y-030729D02*
G01X0030000Y-030729D01*
G01X0030000Y-030295D01*
G01X0030433Y-030295D01*
G01X0030433Y-030729D01*
G01X0030433Y-030729D01*
G37*
G36*
G01X0054863Y-030689D02*
G01X0054429Y-030689D01*
G01X0054429Y-030256D01*
G01X0054863Y-030256D01*
G01X0054863Y-030689D01*
G01X0054863Y-030689D01*
G37*
G36*
G01X0056044Y-030689D02*
G01X0055610Y-030689D01*
G01X0055610Y-030256D01*
G01X0056044Y-030256D01*
G01X0056044Y-030689D01*
G01X0056044Y-030689D01*
G37*
G36*
G01X0054272Y-030689D02*
G01X0053838Y-030689D01*
G01X0053838Y-030256D01*
G01X0054272Y-030256D01*
G01X0054272Y-030689D01*
G01X0054272Y-030689D01*
G37*
G36*
G01X0055453Y-030689D02*
G01X0055019Y-030689D01*
G01X0055019Y-030256D01*
G01X0055453Y-030256D01*
G01X0055453Y-030689D01*
G01X0055453Y-030689D01*
G37*
G36*
G01X0017776Y-029432D02*
G01X0017836Y-029438D01*
G01X0017913Y-029461D01*
G01X0017951Y-029472D01*
G01X0017990Y-029493D01*
G01X0018057Y-029529D01*
G01X0018150Y-029606D01*
G01X0018227Y-029698D01*
G01X0018260Y-029761D01*
G01X0018283Y-029805D01*
G01X0018290Y-029825D01*
G01X0018318Y-029920D01*
G01X0018330Y-030039D01*
G01X0018318Y-030159D01*
G01X0018307Y-030197D01*
G01X0018283Y-030274D01*
G01X0018277Y-030287D01*
G01X0018227Y-030380D01*
G01X0018150Y-030473D01*
G01X0018057Y-030550D01*
G01X0017993Y-030584D01*
G01X0017951Y-030606D01*
G01X0017913Y-030618D01*
G01X0017836Y-030641D01*
G01X0017776Y-030647D01*
G01X0017747Y-030650D01*
G01X0017293Y-030650D01*
G01X0017263Y-030647D01*
G01X0017203Y-030641D01*
G01X0017126Y-030618D01*
G01X0017088Y-030606D01*
G01X0017046Y-030584D01*
G01X0016982Y-030550D01*
G01X0016889Y-030473D01*
G01X0016813Y-030380D01*
G01X0016763Y-030287D01*
G01X0016756Y-030274D01*
G01X0016733Y-030197D01*
G01X0016721Y-030159D01*
G01X0016709Y-030039D01*
G01X0016721Y-029920D01*
G01X0016750Y-029825D01*
G01X0016756Y-029805D01*
G01X0016779Y-029761D01*
G01X0016813Y-029698D01*
G01X0016889Y-029606D01*
G01X0016982Y-029529D01*
G01X0017049Y-029493D01*
G01X0017088Y-029472D01*
G01X0017126Y-029461D01*
G01X0017203Y-029438D01*
G01X0017263Y-029432D01*
G01X0017293Y-029429D01*
G01X0017747Y-029429D01*
G01X0017776Y-029432D01*
G01X0017776Y-029432D01*
G37*
G36*
G01X0029744Y-030532D02*
G01X0029311Y-030532D01*
G01X0029311Y-030098D01*
G01X0029744Y-030098D01*
G01X0029744Y-030532D01*
G01X0029744Y-030532D01*
G37*
G36*
G01X0029056Y-030335D02*
G01X0028622Y-030335D01*
G01X0028622Y-029901D01*
G01X0029056Y-029901D01*
G01X0029056Y-030335D01*
G01X0029056Y-030335D01*
G37*
G36*
G01X0035183Y-029745D02*
G01X0035198Y-029750D01*
G01X0035211Y-029757D01*
G01X0035223Y-029767D01*
G01X0035233Y-029779D01*
G01X0035240Y-029793D01*
G01X0035245Y-029807D01*
G01X0035246Y-029825D01*
G01X0035246Y-030116D01*
G01X0035245Y-030134D01*
G01X0035240Y-030148D01*
G01X0035233Y-030162D01*
G01X0035223Y-030174D01*
G01X0035211Y-030184D01*
G01X0035198Y-030191D01*
G01X0035183Y-030195D01*
G01X0035165Y-030197D01*
G01X0034914Y-030197D01*
G01X0034896Y-030195D01*
G01X0034881Y-030191D01*
G01X0034867Y-030184D01*
G01X0034856Y-030174D01*
G01X0034846Y-030162D01*
G01X0034839Y-030148D01*
G01X0034834Y-030134D01*
G01X0034832Y-030116D01*
G01X0034832Y-029825D01*
G01X0034834Y-029807D01*
G01X0034839Y-029793D01*
G01X0034846Y-029779D01*
G01X0034856Y-029767D01*
G01X0034867Y-029757D01*
G01X0034881Y-029750D01*
G01X0034896Y-029745D01*
G01X0034914Y-029744D01*
G01X0035165Y-029744D01*
G01X0035183Y-029745D01*
G01X0035183Y-029745D01*
G37*
G36*
G01X0034395Y-029745D02*
G01X0034410Y-029750D01*
G01X0034424Y-029757D01*
G01X0034436Y-029767D01*
G01X0034446Y-029779D01*
G01X0034453Y-029793D01*
G01X0034457Y-029807D01*
G01X0034459Y-029825D01*
G01X0034459Y-030116D01*
G01X0034457Y-030134D01*
G01X0034453Y-030148D01*
G01X0034446Y-030162D01*
G01X0034436Y-030174D01*
G01X0034424Y-030184D01*
G01X0034410Y-030191D01*
G01X0034395Y-030195D01*
G01X0034378Y-030197D01*
G01X0034126Y-030197D01*
G01X0034108Y-030195D01*
G01X0034094Y-030191D01*
G01X0034080Y-030184D01*
G01X0034068Y-030174D01*
G01X0034058Y-030162D01*
G01X0034051Y-030148D01*
G01X0034047Y-030134D01*
G01X0034045Y-030116D01*
G01X0034045Y-029825D01*
G01X0034047Y-029807D01*
G01X0034051Y-029793D01*
G01X0034058Y-029779D01*
G01X0034068Y-029767D01*
G01X0034080Y-029757D01*
G01X0034094Y-029750D01*
G01X0034108Y-029745D01*
G01X0034126Y-029744D01*
G01X0034378Y-029744D01*
G01X0034395Y-029745D01*
G01X0034395Y-029745D01*
G37*
G36*
G01X0030433Y-030138D02*
G01X0030000Y-030138D01*
G01X0030000Y-029704D01*
G01X0030433Y-029704D01*
G01X0030433Y-030138D01*
G01X0030433Y-030138D01*
G37*
G36*
G01X0035945Y-030138D02*
G01X0035511Y-030138D01*
G01X0035511Y-029704D01*
G01X0035945Y-029704D01*
G01X0035945Y-030138D01*
G01X0035945Y-030138D01*
G37*
G36*
G01X0054508Y-030099D02*
G01X0054074Y-030099D01*
G01X0054074Y-029665D01*
G01X0054508Y-029665D01*
G01X0054508Y-030099D01*
G01X0054508Y-030099D01*
G37*
G36*
G01X0055099Y-030099D02*
G01X0054665Y-030099D01*
G01X0054665Y-029665D01*
G01X0055099Y-029665D01*
G01X0055099Y-030099D01*
G01X0055099Y-030099D01*
G37*
G36*
G01X0056280Y-030099D02*
G01X0055846Y-030099D01*
G01X0055846Y-029665D01*
G01X0056280Y-029665D01*
G01X0056280Y-030099D01*
G01X0056280Y-030099D01*
G37*
G36*
G01X0055689Y-030099D02*
G01X0055256Y-030099D01*
G01X0055256Y-029665D01*
G01X0055689Y-029665D01*
G01X0055689Y-030099D01*
G01X0055689Y-030099D01*
G37*
G36*
G01X0029744Y-029941D02*
G01X0029311Y-029941D01*
G01X0029311Y-029507D01*
G01X0029744Y-029507D01*
G01X0029744Y-029941D01*
G01X0029744Y-029941D01*
G37*
G36*
G01X0036634Y-029941D02*
G01X0036200Y-029941D01*
G01X0036200Y-029507D01*
G01X0036634Y-029507D01*
G01X0036634Y-029941D01*
G01X0036634Y-029941D01*
G37*
G36*
G01X0029056Y-029744D02*
G01X0028622Y-029744D01*
G01X0028622Y-029311D01*
G01X0029056Y-029311D01*
G01X0029056Y-029744D01*
G01X0029056Y-029744D01*
G37*
G36*
G01X0042146Y-029469D02*
G01X0041319Y-029469D01*
G01X0041319Y-028641D01*
G01X0042146Y-028641D01*
G01X0042146Y-029469D01*
G01X0042146Y-029469D01*
G37*
G36*
G01X0033386Y-029351D02*
G01X0032952Y-029351D01*
G01X0032952Y-028917D01*
G01X0033386Y-028917D01*
G01X0033386Y-029351D01*
G01X0033386Y-029351D01*
G37*
G36*
G01X0033977Y-029351D02*
G01X0033543Y-029351D01*
G01X0033543Y-028917D01*
G01X0033977Y-028917D01*
G01X0033977Y-029351D01*
G01X0033977Y-029351D01*
G37*
G36*
G01X0018798Y-028174D02*
G01X0018798Y-028174D01*
G01X0018798Y-028174D01*
G01X0018868Y-028196D01*
G01X0018868Y-028196D01*
G01X0018933Y-028230D01*
G01X0018990Y-028277D01*
G01X0019037Y-028334D01*
G01X0019072Y-028399D01*
G01X0019093Y-028470D01*
G01X0019101Y-028543D01*
G01X0019093Y-028617D01*
G01X0019072Y-028687D01*
G01X0019037Y-028752D01*
G01X0018990Y-028809D01*
G01X0018933Y-028856D01*
G01X0018933Y-028856D01*
G01X0018868Y-028891D01*
G01X0018798Y-028912D01*
G01X0018798Y-028912D01*
G01X0018798Y-028912D01*
G01X0018743Y-028918D01*
G01X0018430Y-028918D01*
G01X0018375Y-028912D01*
G01X0018375Y-028912D01*
G01X0018375Y-028912D01*
G01X0018305Y-028891D01*
G01X0018240Y-028856D01*
G01X0018240Y-028856D01*
G01X0018183Y-028809D01*
G01X0018136Y-028752D01*
G01X0018101Y-028687D01*
G01X0018080Y-028617D01*
G01X0018073Y-028543D01*
G01X0018080Y-028470D01*
G01X0018101Y-028399D01*
G01X0018136Y-028334D01*
G01X0018183Y-028277D01*
G01X0018240Y-028230D01*
G01X0018305Y-028196D01*
G01X0018305Y-028196D01*
G01X0018375Y-028174D01*
G01X0018375Y-028174D01*
G01X0018375Y-028174D01*
G01X0018430Y-028169D01*
G01X0018743Y-028169D01*
G01X0018798Y-028174D01*
G01X0018798Y-028174D01*
G37*
G36*
G01X0020616Y-028466D02*
G01X0020631Y-028470D01*
G01X0020644Y-028478D01*
G01X0020656Y-028487D01*
G01X0020666Y-028499D01*
G01X0020673Y-028513D01*
G01X0020678Y-028528D01*
G01X0020680Y-028546D01*
G01X0020680Y-028836D01*
G01X0020678Y-028854D01*
G01X0020673Y-028869D01*
G01X0020666Y-028883D01*
G01X0020656Y-028894D01*
G01X0020644Y-028904D01*
G01X0020631Y-028911D01*
G01X0020616Y-028916D01*
G01X0020598Y-028918D01*
G01X0020347Y-028918D01*
G01X0020329Y-028916D01*
G01X0020314Y-028911D01*
G01X0020301Y-028904D01*
G01X0020289Y-028894D01*
G01X0020279Y-028883D01*
G01X0020272Y-028869D01*
G01X0020267Y-028854D01*
G01X0020265Y-028836D01*
G01X0020265Y-028546D01*
G01X0020267Y-028528D01*
G01X0020272Y-028513D01*
G01X0020279Y-028499D01*
G01X0020289Y-028487D01*
G01X0020301Y-028478D01*
G01X0020314Y-028470D01*
G01X0020329Y-028466D01*
G01X0020347Y-028464D01*
G01X0020598Y-028464D01*
G01X0020616Y-028466D01*
G01X0020616Y-028466D01*
G37*
G36*
G01X0035965Y-028662D02*
G01X0035531Y-028662D01*
G01X0035531Y-028228D01*
G01X0035965Y-028228D01*
G01X0035965Y-028662D01*
G01X0035965Y-028662D01*
G37*
G36*
G01X0031221Y-028662D02*
G01X0030787Y-028662D01*
G01X0030787Y-028228D01*
G01X0031221Y-028228D01*
G01X0031221Y-028662D01*
G01X0031221Y-028662D01*
G37*
G36*
G01X0033583Y-028662D02*
G01X0033149Y-028662D01*
G01X0033149Y-028228D01*
G01X0033583Y-028228D01*
G01X0033583Y-028662D01*
G01X0033583Y-028662D01*
G37*
G36*
G01X0034174Y-028662D02*
G01X0033740Y-028662D01*
G01X0033740Y-028228D01*
G01X0034174Y-028228D01*
G01X0034174Y-028662D01*
G01X0034174Y-028662D01*
G37*
G36*
G01X0020616Y-027777D02*
G01X0020631Y-027781D01*
G01X0020644Y-027789D01*
G01X0020656Y-027798D01*
G01X0020666Y-027810D01*
G01X0020673Y-027824D01*
G01X0020678Y-027839D01*
G01X0020680Y-027857D01*
G01X0020680Y-028147D01*
G01X0020678Y-028165D01*
G01X0020673Y-028180D01*
G01X0020666Y-028194D01*
G01X0020656Y-028205D01*
G01X0020644Y-028215D01*
G01X0020631Y-028223D01*
G01X0020616Y-028227D01*
G01X0020598Y-028229D01*
G01X0020347Y-028229D01*
G01X0020329Y-028227D01*
G01X0020314Y-028223D01*
G01X0020301Y-028215D01*
G01X0020289Y-028205D01*
G01X0020279Y-028194D01*
G01X0020272Y-028180D01*
G01X0020267Y-028165D01*
G01X0020265Y-028147D01*
G01X0020265Y-027857D01*
G01X0020267Y-027839D01*
G01X0020272Y-027824D01*
G01X0020279Y-027810D01*
G01X0020289Y-027798D01*
G01X0020301Y-027789D01*
G01X0020314Y-027781D01*
G01X0020329Y-027777D01*
G01X0020347Y-027775D01*
G01X0020598Y-027775D01*
G01X0020616Y-027777D01*
G01X0020616Y-027777D01*
G37*
G36*
G01X0033780Y-027973D02*
G01X0033346Y-027973D01*
G01X0033346Y-027539D01*
G01X0033780Y-027539D01*
G01X0033780Y-027973D01*
G01X0033780Y-027973D01*
G37*
G36*
G01X0018845Y-027248D02*
G01X0018905Y-027266D01*
G01X0018960Y-027296D01*
G01X0019008Y-027335D01*
G01X0019047Y-027383D01*
G01X0019076Y-027438D01*
G01X0019094Y-027497D01*
G01X0019100Y-027559D01*
G01X0019094Y-027621D01*
G01X0019076Y-027680D01*
G01X0019047Y-027735D01*
G01X0019008Y-027783D01*
G01X0018960Y-027823D01*
G01X0018905Y-027852D01*
G01X0018845Y-027870D01*
G01X0018799Y-027874D01*
G01X0018374Y-027874D01*
G01X0018328Y-027870D01*
G01X0018268Y-027852D01*
G01X0018214Y-027823D01*
G01X0018166Y-027783D01*
G01X0018126Y-027735D01*
G01X0018097Y-027680D01*
G01X0018079Y-027621D01*
G01X0018073Y-027559D01*
G01X0018079Y-027497D01*
G01X0018097Y-027438D01*
G01X0018126Y-027383D01*
G01X0018166Y-027335D01*
G01X0018214Y-027296D01*
G01X0018268Y-027266D01*
G01X0018328Y-027248D01*
G01X0018374Y-027244D01*
G01X0018799Y-027244D01*
G01X0018845Y-027248D01*
G01X0018845Y-027248D01*
G37*
G36*
G01X0035675Y-026891D02*
G01X0035690Y-026896D01*
G01X0035703Y-026903D01*
G01X0035715Y-026913D01*
G01X0035725Y-026925D01*
G01X0035732Y-026938D01*
G01X0035737Y-026953D01*
G01X0035739Y-026971D01*
G01X0035739Y-027262D01*
G01X0035737Y-027279D01*
G01X0035732Y-027294D01*
G01X0035725Y-027308D01*
G01X0035715Y-027320D01*
G01X0035703Y-027329D01*
G01X0035690Y-027337D01*
G01X0035675Y-027341D01*
G01X0035657Y-027343D01*
G01X0035406Y-027343D01*
G01X0035388Y-027341D01*
G01X0035373Y-027337D01*
G01X0035360Y-027329D01*
G01X0035348Y-027320D01*
G01X0035338Y-027308D01*
G01X0035331Y-027294D01*
G01X0035326Y-027279D01*
G01X0035324Y-027262D01*
G01X0035324Y-026971D01*
G01X0035326Y-026953D01*
G01X0035331Y-026938D01*
G01X0035338Y-026925D01*
G01X0035348Y-026913D01*
G01X0035360Y-026903D01*
G01X0035373Y-026896D01*
G01X0035388Y-026891D01*
G01X0035406Y-026889D01*
G01X0035657Y-026889D01*
G01X0035675Y-026891D01*
G01X0035675Y-026891D01*
G37*
G36*
G01X0038241Y-027205D02*
G01X0037610Y-027205D01*
G01X0037610Y-026338D01*
G01X0038241Y-026338D01*
G01X0038241Y-027205D01*
G01X0038241Y-027205D01*
G37*
G36*
G01X0046052Y-027205D02*
G01X0045027Y-027205D01*
G01X0045027Y-026338D01*
G01X0046052Y-026338D01*
G01X0046052Y-027205D01*
G01X0046052Y-027205D01*
G37*
G36*
G01X0046902Y-027205D02*
G01X0046271Y-027205D01*
G01X0046271Y-026338D01*
G01X0046902Y-026338D01*
G01X0046902Y-027205D01*
G01X0046902Y-027205D01*
G37*
G36*
G01X0037390Y-027205D02*
G01X0036366Y-027205D01*
G01X0036366Y-026338D01*
G01X0037390Y-026338D01*
G01X0037390Y-027205D01*
G01X0037390Y-027205D01*
G37*
G36*
G01X0028335Y-027126D02*
G01X0027704Y-027126D01*
G01X0027704Y-026259D01*
G01X0028335Y-026259D01*
G01X0028335Y-027126D01*
G01X0028335Y-027126D01*
G37*
G36*
G01X0029579Y-027126D02*
G01X0028555Y-027126D01*
G01X0028555Y-026259D01*
G01X0029579Y-026259D01*
G01X0029579Y-027126D01*
G01X0029579Y-027126D01*
G37*
G36*
G01X0018845Y-026461D02*
G01X0018905Y-026479D01*
G01X0018960Y-026508D01*
G01X0019008Y-026548D01*
G01X0019047Y-026596D01*
G01X0019076Y-026650D01*
G01X0019094Y-026710D01*
G01X0019100Y-026772D01*
G01X0019094Y-026833D01*
G01X0019076Y-026893D01*
G01X0019047Y-026948D01*
G01X0019008Y-026996D01*
G01X0018960Y-027035D01*
G01X0018905Y-027064D01*
G01X0018845Y-027082D01*
G01X0018799Y-027087D01*
G01X0018374Y-027087D01*
G01X0018328Y-027082D01*
G01X0018268Y-027064D01*
G01X0018214Y-027035D01*
G01X0018166Y-026996D01*
G01X0018126Y-026948D01*
G01X0018097Y-026893D01*
G01X0018079Y-026833D01*
G01X0018073Y-026772D01*
G01X0018079Y-026710D01*
G01X0018097Y-026650D01*
G01X0018126Y-026596D01*
G01X0018166Y-026548D01*
G01X0018214Y-026508D01*
G01X0018268Y-026479D01*
G01X0018328Y-026461D01*
G01X0018374Y-026456D01*
G01X0018799Y-026456D01*
G01X0018845Y-026461D01*
G01X0018845Y-026461D01*
G37*
G36*
G01X0031142Y-027048D02*
G01X0030787Y-027048D01*
G01X0030787Y-026653D01*
G01X0031142Y-026653D01*
G01X0031142Y-027048D01*
G01X0031142Y-027048D01*
G37*
G36*
G01X0033426Y-027048D02*
G01X0033031Y-027048D01*
G01X0033031Y-026693D01*
G01X0033426Y-026693D01*
G01X0033426Y-027048D01*
G01X0033426Y-027048D01*
G37*
G36*
G01X0031890Y-027048D02*
G01X0031535Y-027048D01*
G01X0031535Y-026653D01*
G01X0031890Y-026653D01*
G01X0031890Y-027048D01*
G01X0031890Y-027048D01*
G37*
G36*
G01X0030340Y-026576D02*
G01X0030355Y-026581D01*
G01X0030369Y-026588D01*
G01X0030381Y-026598D01*
G01X0030390Y-026610D01*
G01X0030398Y-026623D01*
G01X0030402Y-026638D01*
G01X0030404Y-026656D01*
G01X0030404Y-026947D01*
G01X0030402Y-026964D01*
G01X0030398Y-026979D01*
G01X0030390Y-026993D01*
G01X0030381Y-027005D01*
G01X0030369Y-027014D01*
G01X0030355Y-027022D01*
G01X0030340Y-027026D01*
G01X0030323Y-027028D01*
G01X0030071Y-027028D01*
G01X0030053Y-027026D01*
G01X0030039Y-027022D01*
G01X0030025Y-027014D01*
G01X0030013Y-027005D01*
G01X0030003Y-026993D01*
G01X0029996Y-026979D01*
G01X0029992Y-026964D01*
G01X0029990Y-026947D01*
G01X0029990Y-026656D01*
G01X0029992Y-026638D01*
G01X0029996Y-026623D01*
G01X0030003Y-026610D01*
G01X0030013Y-026598D01*
G01X0030025Y-026588D01*
G01X0030039Y-026581D01*
G01X0030053Y-026576D01*
G01X0030071Y-026574D01*
G01X0030323Y-026574D01*
G01X0030340Y-026576D01*
G01X0030340Y-026576D01*
G37*
G36*
G01X0044533Y-026301D02*
G01X0044548Y-026305D01*
G01X0044562Y-026312D01*
G01X0044574Y-026322D01*
G01X0044583Y-026334D01*
G01X0044591Y-026348D01*
G01X0044595Y-026362D01*
G01X0044597Y-026380D01*
G01X0044597Y-026671D01*
G01X0044595Y-026689D01*
G01X0044591Y-026704D01*
G01X0044583Y-026717D01*
G01X0044574Y-026729D01*
G01X0044562Y-026739D01*
G01X0044548Y-026746D01*
G01X0044533Y-026751D01*
G01X0044515Y-026752D01*
G01X0044264Y-026752D01*
G01X0044246Y-026751D01*
G01X0044231Y-026746D01*
G01X0044218Y-026739D01*
G01X0044206Y-026729D01*
G01X0044196Y-026717D01*
G01X0044189Y-026704D01*
G01X0044184Y-026689D01*
G01X0044183Y-026671D01*
G01X0044183Y-026380D01*
G01X0044184Y-026362D01*
G01X0044189Y-026348D01*
G01X0044196Y-026334D01*
G01X0044206Y-026322D01*
G01X0044218Y-026312D01*
G01X0044231Y-026305D01*
G01X0044246Y-026301D01*
G01X0044264Y-026299D01*
G01X0044515Y-026299D01*
G01X0044533Y-026301D01*
G01X0044533Y-026301D01*
G37*
G36*
G01X0034213Y-026674D02*
G01X0033819Y-026674D01*
G01X0033819Y-026319D01*
G01X0034213Y-026319D01*
G01X0034213Y-026674D01*
G01X0034213Y-026674D01*
G37*
G36*
G01X0025532Y-026654D02*
G01X0024074Y-026654D01*
G01X0024074Y-025590D01*
G01X0025532Y-025590D01*
G01X0025532Y-026654D01*
G01X0025532Y-026654D01*
G37*
G36*
G01X0035675Y-026202D02*
G01X0035690Y-026207D01*
G01X0035703Y-026214D01*
G01X0035715Y-026224D01*
G01X0035725Y-026236D01*
G01X0035732Y-026249D01*
G01X0035737Y-026264D01*
G01X0035739Y-026282D01*
G01X0035739Y-026573D01*
G01X0035737Y-026590D01*
G01X0035732Y-026605D01*
G01X0035725Y-026619D01*
G01X0035715Y-026631D01*
G01X0035703Y-026640D01*
G01X0035690Y-026648D01*
G01X0035675Y-026652D01*
G01X0035657Y-026654D01*
G01X0035406Y-026654D01*
G01X0035388Y-026652D01*
G01X0035373Y-026648D01*
G01X0035360Y-026640D01*
G01X0035348Y-026631D01*
G01X0035338Y-026619D01*
G01X0035331Y-026605D01*
G01X0035326Y-026590D01*
G01X0035324Y-026573D01*
G01X0035324Y-026282D01*
G01X0035326Y-026264D01*
G01X0035331Y-026249D01*
G01X0035338Y-026236D01*
G01X0035348Y-026224D01*
G01X0035360Y-026214D01*
G01X0035373Y-026207D01*
G01X0035388Y-026202D01*
G01X0035406Y-026200D01*
G01X0035657Y-026200D01*
G01X0035675Y-026202D01*
G01X0035675Y-026202D01*
G37*
G36*
G01X0020616Y-026104D02*
G01X0020631Y-026108D01*
G01X0020644Y-026115D01*
G01X0020656Y-026125D01*
G01X0020666Y-026137D01*
G01X0020673Y-026151D01*
G01X0020678Y-026166D01*
G01X0020680Y-026183D01*
G01X0020680Y-026474D01*
G01X0020678Y-026492D01*
G01X0020673Y-026507D01*
G01X0020666Y-026520D01*
G01X0020656Y-026532D01*
G01X0020644Y-026542D01*
G01X0020631Y-026549D01*
G01X0020616Y-026554D01*
G01X0020598Y-026556D01*
G01X0020347Y-026556D01*
G01X0020329Y-026554D01*
G01X0020314Y-026549D01*
G01X0020301Y-026542D01*
G01X0020289Y-026532D01*
G01X0020279Y-026520D01*
G01X0020272Y-026507D01*
G01X0020267Y-026492D01*
G01X0020265Y-026474D01*
G01X0020265Y-026183D01*
G01X0020267Y-026166D01*
G01X0020272Y-026151D01*
G01X0020279Y-026137D01*
G01X0020289Y-026125D01*
G01X0020301Y-026115D01*
G01X0020314Y-026108D01*
G01X0020329Y-026104D01*
G01X0020347Y-026102D01*
G01X0020598Y-026102D01*
G01X0020616Y-026104D01*
G01X0020616Y-026104D01*
G37*
G36*
G01X0041853Y-025665D02*
G01X0041928Y-025696D01*
G01X0041996Y-025742D01*
G01X0042054Y-025799D01*
G01X0042099Y-025867D01*
G01X0042130Y-025942D01*
G01X0042146Y-026022D01*
G01X0042146Y-026104D01*
G01X0042130Y-026184D01*
G01X0042099Y-026259D01*
G01X0042054Y-026327D01*
G01X0041996Y-026384D01*
G01X0041928Y-026430D01*
G01X0041853Y-026461D01*
G01X0041773Y-026477D01*
G01X0041692Y-026477D01*
G01X0041612Y-026461D01*
G01X0041536Y-026430D01*
G01X0041469Y-026384D01*
G01X0041411Y-026327D01*
G01X0041366Y-026259D01*
G01X0041334Y-026184D01*
G01X0041319Y-026104D01*
G01X0041319Y-026022D01*
G01X0041334Y-025942D01*
G01X0041366Y-025867D01*
G01X0041411Y-025799D01*
G01X0041469Y-025742D01*
G01X0041536Y-025696D01*
G01X0041612Y-025665D01*
G01X0041692Y-025649D01*
G01X0041773Y-025649D01*
G01X0041853Y-025665D01*
G01X0041853Y-025665D01*
G37*
G36*
G01X0022876Y-025050D02*
G01X0022890Y-025054D01*
G01X0022902Y-025061D01*
G01X0022913Y-025070D01*
G01X0022921Y-025080D01*
G01X0022928Y-025093D01*
G01X0022932Y-025106D01*
G01X0022933Y-025122D01*
G01X0022933Y-026325D01*
G01X0022932Y-026341D01*
G01X0022928Y-026354D01*
G01X0022921Y-026366D01*
G01X0022913Y-026377D01*
G01X0022902Y-026386D01*
G01X0022890Y-026392D01*
G01X0022876Y-026396D01*
G01X0022860Y-026398D01*
G01X0022337Y-026398D01*
G01X0022320Y-026396D01*
G01X0022307Y-026392D01*
G01X0022295Y-026386D01*
G01X0022284Y-026377D01*
G01X0022276Y-026366D01*
G01X0022269Y-026354D01*
G01X0022265Y-026341D01*
G01X0022263Y-026325D01*
G01X0022263Y-025122D01*
G01X0022265Y-025106D01*
G01X0022269Y-025093D01*
G01X0022276Y-025080D01*
G01X0022284Y-025070D01*
G01X0022295Y-025061D01*
G01X0022307Y-025054D01*
G01X0022320Y-025050D01*
G01X0022337Y-025049D01*
G01X0022860Y-025049D01*
G01X0022876Y-025050D01*
G01X0022876Y-025050D01*
G37*
G36*
G01X0030340Y-025887D02*
G01X0030355Y-025892D01*
G01X0030369Y-025899D01*
G01X0030381Y-025909D01*
G01X0030390Y-025921D01*
G01X0030398Y-025934D01*
G01X0030402Y-025949D01*
G01X0030404Y-025967D01*
G01X0030404Y-026258D01*
G01X0030402Y-026275D01*
G01X0030398Y-026290D01*
G01X0030390Y-026304D01*
G01X0030381Y-026316D01*
G01X0030369Y-026325D01*
G01X0030355Y-026333D01*
G01X0030340Y-026337D01*
G01X0030323Y-026339D01*
G01X0030071Y-026339D01*
G01X0030053Y-026337D01*
G01X0030039Y-026333D01*
G01X0030025Y-026325D01*
G01X0030013Y-026316D01*
G01X0030003Y-026304D01*
G01X0029996Y-026290D01*
G01X0029992Y-026275D01*
G01X0029990Y-026258D01*
G01X0029990Y-025967D01*
G01X0029992Y-025949D01*
G01X0029996Y-025934D01*
G01X0030003Y-025921D01*
G01X0030013Y-025909D01*
G01X0030025Y-025899D01*
G01X0030039Y-025892D01*
G01X0030053Y-025887D01*
G01X0030071Y-025885D01*
G01X0030323Y-025885D01*
G01X0030340Y-025887D01*
G01X0030340Y-025887D01*
G37*
G36*
G01X0033426Y-026300D02*
G01X0033031Y-026300D01*
G01X0033031Y-025944D01*
G01X0033426Y-025944D01*
G01X0033426Y-026300D01*
G01X0033426Y-026300D01*
G37*
G36*
G01X0031516Y-026260D02*
G01X0031161Y-026260D01*
G01X0031161Y-025866D01*
G01X0031516Y-025866D01*
G01X0031516Y-026260D01*
G01X0031516Y-026260D01*
G37*
G36*
G01X0018798Y-025418D02*
G01X0018798Y-025418D01*
G01X0018798Y-025418D01*
G01X0018868Y-025440D01*
G01X0018868Y-025440D01*
G01X0018933Y-025475D01*
G01X0018990Y-025521D01*
G01X0019037Y-025578D01*
G01X0019065Y-025630D01*
G01X0019072Y-025643D01*
G01X0019086Y-025691D01*
G01X0019093Y-025714D01*
G01X0019101Y-025787D01*
G01X0019093Y-025861D01*
G01X0019093Y-025861D01*
G01X0019093Y-025861D01*
G01X0019079Y-025909D01*
G01X0019072Y-025931D01*
G01X0019037Y-025996D01*
G01X0018990Y-026053D01*
G01X0018933Y-026100D01*
G01X0018926Y-026104D01*
G01X0018868Y-026135D01*
G01X0018798Y-026156D01*
G01X0018798Y-026156D01*
G01X0018798Y-026156D01*
G01X0018743Y-026162D01*
G01X0018430Y-026162D01*
G01X0018375Y-026156D01*
G01X0018375Y-026156D01*
G01X0018375Y-026156D01*
G01X0018305Y-026135D01*
G01X0018247Y-026104D01*
G01X0018240Y-026100D01*
G01X0018183Y-026053D01*
G01X0018136Y-025996D01*
G01X0018101Y-025931D01*
G01X0018094Y-025909D01*
G01X0018080Y-025861D01*
G01X0018080Y-025861D01*
G01X0018080Y-025861D01*
G01X0018073Y-025787D01*
G01X0018080Y-025714D01*
G01X0018087Y-025691D01*
G01X0018101Y-025643D01*
G01X0018108Y-025630D01*
G01X0018136Y-025578D01*
G01X0018183Y-025521D01*
G01X0018240Y-025475D01*
G01X0018305Y-025440D01*
G01X0018305Y-025440D01*
G01X0018375Y-025418D01*
G01X0018375Y-025418D01*
G01X0018375Y-025418D01*
G01X0018430Y-025413D01*
G01X0018743Y-025413D01*
G01X0018798Y-025418D01*
G01X0018798Y-025418D01*
G37*
G36*
G01X0044533Y-025612D02*
G01X0044548Y-025616D01*
G01X0044562Y-025623D01*
G01X0044574Y-025633D01*
G01X0044583Y-025645D01*
G01X0044591Y-025659D01*
G01X0044595Y-025673D01*
G01X0044597Y-025691D01*
G01X0044597Y-025982D01*
G01X0044595Y-026000D01*
G01X0044591Y-026015D01*
G01X0044583Y-026028D01*
G01X0044574Y-026040D01*
G01X0044562Y-026050D01*
G01X0044548Y-026057D01*
G01X0044533Y-026062D01*
G01X0044515Y-026063D01*
G01X0044264Y-026063D01*
G01X0044246Y-026062D01*
G01X0044231Y-026057D01*
G01X0044218Y-026050D01*
G01X0044206Y-026040D01*
G01X0044196Y-026028D01*
G01X0044189Y-026015D01*
G01X0044184Y-026000D01*
G01X0044183Y-025982D01*
G01X0044183Y-025691D01*
G01X0044184Y-025673D01*
G01X0044189Y-025659D01*
G01X0044196Y-025645D01*
G01X0044206Y-025633D01*
G01X0044218Y-025623D01*
G01X0044231Y-025616D01*
G01X0044246Y-025612D01*
G01X0044264Y-025610D01*
G01X0044515Y-025610D01*
G01X0044533Y-025612D01*
G01X0044533Y-025612D01*
G37*
G36*
G01X0020616Y-025415D02*
G01X0020631Y-025419D01*
G01X0020644Y-025426D01*
G01X0020656Y-025436D01*
G01X0020666Y-025448D01*
G01X0020673Y-025462D01*
G01X0020678Y-025477D01*
G01X0020680Y-025494D01*
G01X0020680Y-025785D01*
G01X0020678Y-025803D01*
G01X0020673Y-025818D01*
G01X0020666Y-025831D01*
G01X0020656Y-025843D01*
G01X0020644Y-025853D01*
G01X0020631Y-025860D01*
G01X0020616Y-025865D01*
G01X0020598Y-025867D01*
G01X0020347Y-025867D01*
G01X0020329Y-025865D01*
G01X0020314Y-025860D01*
G01X0020301Y-025853D01*
G01X0020289Y-025843D01*
G01X0020279Y-025831D01*
G01X0020272Y-025818D01*
G01X0020267Y-025803D01*
G01X0020265Y-025785D01*
G01X0020265Y-025494D01*
G01X0020267Y-025477D01*
G01X0020272Y-025462D01*
G01X0020279Y-025448D01*
G01X0020289Y-025436D01*
G01X0020301Y-025426D01*
G01X0020314Y-025419D01*
G01X0020329Y-025415D01*
G01X0020347Y-025413D01*
G01X0020598Y-025413D01*
G01X0020616Y-025415D01*
G01X0020616Y-025415D01*
G37*
G36*
G01X0035675Y-025316D02*
G01X0035690Y-025321D01*
G01X0035703Y-025328D01*
G01X0035715Y-025338D01*
G01X0035725Y-025350D01*
G01X0035732Y-025363D01*
G01X0035737Y-025378D01*
G01X0035739Y-025396D01*
G01X0035739Y-025687D01*
G01X0035737Y-025705D01*
G01X0035732Y-025719D01*
G01X0035725Y-025733D01*
G01X0035715Y-025745D01*
G01X0035703Y-025755D01*
G01X0035690Y-025762D01*
G01X0035675Y-025766D01*
G01X0035657Y-025768D01*
G01X0035406Y-025768D01*
G01X0035388Y-025766D01*
G01X0035373Y-025762D01*
G01X0035360Y-025755D01*
G01X0035348Y-025745D01*
G01X0035338Y-025733D01*
G01X0035331Y-025719D01*
G01X0035326Y-025705D01*
G01X0035324Y-025687D01*
G01X0035324Y-025396D01*
G01X0035326Y-025378D01*
G01X0035331Y-025363D01*
G01X0035338Y-025350D01*
G01X0035348Y-025338D01*
G01X0035360Y-025328D01*
G01X0035373Y-025321D01*
G01X0035388Y-025316D01*
G01X0035406Y-025315D01*
G01X0035657Y-025315D01*
G01X0035675Y-025316D01*
G01X0035675Y-025316D01*
G37*
G36*
G01X0028729Y-025630D02*
G01X0027704Y-025630D01*
G01X0027704Y-024763D01*
G01X0028729Y-024763D01*
G01X0028729Y-025630D01*
G01X0028729Y-025630D01*
G37*
G36*
G01X0046052Y-025630D02*
G01X0045027Y-025630D01*
G01X0045027Y-024763D01*
G01X0046052Y-024763D01*
G01X0046052Y-025630D01*
G01X0046052Y-025630D01*
G37*
G36*
G01X0038241Y-025630D02*
G01X0037610Y-025630D01*
G01X0037610Y-024763D01*
G01X0038241Y-024763D01*
G01X0038241Y-025630D01*
G01X0038241Y-025630D01*
G37*
G36*
G01X0037390Y-025630D02*
G01X0036366Y-025630D01*
G01X0036366Y-024763D01*
G01X0037390Y-024763D01*
G01X0037390Y-025630D01*
G01X0037390Y-025630D01*
G37*
G36*
G01X0029579Y-025630D02*
G01X0028948Y-025630D01*
G01X0028948Y-024763D01*
G01X0029579Y-024763D01*
G01X0029579Y-025630D01*
G01X0029579Y-025630D01*
G37*
G36*
G01X0046902Y-025630D02*
G01X0046271Y-025630D01*
G01X0046271Y-024763D01*
G01X0046902Y-024763D01*
G01X0046902Y-025630D01*
G01X0046902Y-025630D01*
G37*
G36*
G01X0044504Y-024795D02*
G01X0044519Y-024799D01*
G01X0044532Y-024806D01*
G01X0044544Y-024816D01*
G01X0044554Y-024828D01*
G01X0044561Y-024842D01*
G01X0044566Y-024856D01*
G01X0044567Y-024874D01*
G01X0044567Y-025126D01*
G01X0044566Y-025144D01*
G01X0044561Y-025158D01*
G01X0044554Y-025172D01*
G01X0044544Y-025184D01*
G01X0044532Y-025194D01*
G01X0044519Y-025201D01*
G01X0044504Y-025205D01*
G01X0044486Y-025207D01*
G01X0044195Y-025207D01*
G01X0044177Y-025205D01*
G01X0044163Y-025201D01*
G01X0044149Y-025194D01*
G01X0044137Y-025184D01*
G01X0044127Y-025172D01*
G01X0044120Y-025158D01*
G01X0044116Y-025144D01*
G01X0044114Y-025126D01*
G01X0044114Y-024874D01*
G01X0044116Y-024856D01*
G01X0044120Y-024842D01*
G01X0044127Y-024828D01*
G01X0044137Y-024816D01*
G01X0044149Y-024806D01*
G01X0044163Y-024799D01*
G01X0044177Y-024795D01*
G01X0044195Y-024793D01*
G01X0044486Y-024793D01*
G01X0044504Y-024795D01*
G01X0044504Y-024795D01*
G37*
G36*
G01X0043815Y-024795D02*
G01X0043830Y-024799D01*
G01X0043843Y-024806D01*
G01X0043855Y-024816D01*
G01X0043865Y-024828D01*
G01X0043872Y-024842D01*
G01X0043877Y-024856D01*
G01X0043878Y-024874D01*
G01X0043878Y-025126D01*
G01X0043877Y-025144D01*
G01X0043872Y-025158D01*
G01X0043865Y-025172D01*
G01X0043855Y-025184D01*
G01X0043843Y-025194D01*
G01X0043830Y-025201D01*
G01X0043815Y-025205D01*
G01X0043797Y-025207D01*
G01X0043506Y-025207D01*
G01X0043488Y-025205D01*
G01X0043474Y-025201D01*
G01X0043460Y-025194D01*
G01X0043448Y-025184D01*
G01X0043438Y-025172D01*
G01X0043431Y-025158D01*
G01X0043427Y-025144D01*
G01X0043425Y-025126D01*
G01X0043425Y-024874D01*
G01X0043427Y-024856D01*
G01X0043431Y-024842D01*
G01X0043438Y-024828D01*
G01X0043448Y-024816D01*
G01X0043460Y-024806D01*
G01X0043474Y-024799D01*
G01X0043488Y-024795D01*
G01X0043506Y-024793D01*
G01X0043797Y-024793D01*
G01X0043815Y-024795D01*
G01X0043815Y-024795D01*
G37*
G36*
G01X0035675Y-024627D02*
G01X0035690Y-024632D01*
G01X0035703Y-024639D01*
G01X0035715Y-024649D01*
G01X0035725Y-024661D01*
G01X0035732Y-024674D01*
G01X0035737Y-024689D01*
G01X0035739Y-024707D01*
G01X0035739Y-024998D01*
G01X0035737Y-025016D01*
G01X0035732Y-025030D01*
G01X0035725Y-025044D01*
G01X0035715Y-025056D01*
G01X0035703Y-025066D01*
G01X0035690Y-025073D01*
G01X0035675Y-025077D01*
G01X0035657Y-025079D01*
G01X0035406Y-025079D01*
G01X0035388Y-025077D01*
G01X0035373Y-025073D01*
G01X0035360Y-025066D01*
G01X0035348Y-025056D01*
G01X0035338Y-025044D01*
G01X0035331Y-025030D01*
G01X0035326Y-025016D01*
G01X0035324Y-024998D01*
G01X0035324Y-024707D01*
G01X0035326Y-024689D01*
G01X0035331Y-024674D01*
G01X0035338Y-024661D01*
G01X0035348Y-024649D01*
G01X0035360Y-024639D01*
G01X0035373Y-024632D01*
G01X0035388Y-024627D01*
G01X0035406Y-024626D01*
G01X0035657Y-024626D01*
G01X0035675Y-024627D01*
G01X0035675Y-024627D01*
G37*
G36*
G01X0017776Y-023684D02*
G01X0017836Y-023690D01*
G01X0017913Y-023713D01*
G01X0017951Y-023724D01*
G01X0017990Y-023745D01*
G01X0018057Y-023781D01*
G01X0018150Y-023857D01*
G01X0018227Y-023950D01*
G01X0018247Y-023988D01*
G01X0018283Y-024057D01*
G01X0018283Y-024057D01*
G01X0018318Y-024172D01*
G01X0018330Y-024291D01*
G01X0018318Y-024411D01*
G01X0018295Y-024488D01*
G01X0018283Y-024526D01*
G01X0018263Y-024565D01*
G01X0018227Y-024632D01*
G01X0018150Y-024725D01*
G01X0018057Y-024802D01*
G01X0017990Y-024838D01*
G01X0017951Y-024858D01*
G01X0017913Y-024870D01*
G01X0017836Y-024893D01*
G01X0017776Y-024899D01*
G01X0017747Y-024902D01*
G01X0017293Y-024902D01*
G01X0017263Y-024899D01*
G01X0017203Y-024893D01*
G01X0017126Y-024870D01*
G01X0017088Y-024858D01*
G01X0017049Y-024838D01*
G01X0016982Y-024802D01*
G01X0016889Y-024725D01*
G01X0016813Y-024632D01*
G01X0016777Y-024565D01*
G01X0016756Y-024526D01*
G01X0016744Y-024488D01*
G01X0016721Y-024411D01*
G01X0016709Y-024291D01*
G01X0016721Y-024172D01*
G01X0016756Y-024057D01*
G01X0016756Y-024057D01*
G01X0016792Y-023988D01*
G01X0016813Y-023950D01*
G01X0016889Y-023857D01*
G01X0016982Y-023781D01*
G01X0017049Y-023745D01*
G01X0017088Y-023724D01*
G01X0017126Y-023713D01*
G01X0017203Y-023690D01*
G01X0017263Y-023684D01*
G01X0017293Y-023681D01*
G01X0017747Y-023681D01*
G01X0017776Y-023684D01*
G01X0017776Y-023684D01*
G37*
G36*
G01X0022876Y-023052D02*
G01X0022890Y-023056D01*
G01X0022902Y-023063D01*
G01X0022913Y-023072D01*
G01X0022921Y-023082D01*
G01X0022928Y-023095D01*
G01X0022932Y-023108D01*
G01X0022933Y-023124D01*
G01X0022933Y-024327D01*
G01X0022932Y-024343D01*
G01X0022928Y-024356D01*
G01X0022921Y-024368D01*
G01X0022913Y-024379D01*
G01X0022902Y-024388D01*
G01X0022890Y-024394D01*
G01X0022876Y-024398D01*
G01X0022860Y-024400D01*
G01X0022337Y-024400D01*
G01X0022320Y-024398D01*
G01X0022307Y-024394D01*
G01X0022295Y-024388D01*
G01X0022284Y-024379D01*
G01X0022276Y-024368D01*
G01X0022269Y-024356D01*
G01X0022265Y-024343D01*
G01X0022263Y-024327D01*
G01X0022263Y-023124D01*
G01X0022265Y-023108D01*
G01X0022269Y-023095D01*
G01X0022276Y-023082D01*
G01X0022284Y-023072D01*
G01X0022295Y-023063D01*
G01X0022307Y-023056D01*
G01X0022320Y-023052D01*
G01X0022337Y-023051D01*
G01X0022860Y-023051D01*
G01X0022876Y-023052D01*
G01X0022876Y-023052D01*
G37*
G36*
G01X0028460Y-023909D02*
G01X0028475Y-023913D01*
G01X0028489Y-023921D01*
G01X0028501Y-023930D01*
G01X0028511Y-023942D01*
G01X0028518Y-023956D01*
G01X0028522Y-023971D01*
G01X0028524Y-023988D01*
G01X0028524Y-024240D01*
G01X0028522Y-024258D01*
G01X0028518Y-024272D01*
G01X0028511Y-024286D01*
G01X0028501Y-024298D01*
G01X0028489Y-024308D01*
G01X0028475Y-024315D01*
G01X0028460Y-024320D01*
G01X0028443Y-024321D01*
G01X0028152Y-024321D01*
G01X0028134Y-024320D01*
G01X0028119Y-024315D01*
G01X0028106Y-024308D01*
G01X0028094Y-024298D01*
G01X0028084Y-024286D01*
G01X0028077Y-024272D01*
G01X0028072Y-024258D01*
G01X0028070Y-024240D01*
G01X0028070Y-023988D01*
G01X0028072Y-023971D01*
G01X0028077Y-023956D01*
G01X0028084Y-023942D01*
G01X0028094Y-023930D01*
G01X0028106Y-023921D01*
G01X0028119Y-023913D01*
G01X0028134Y-023909D01*
G01X0028152Y-023907D01*
G01X0028443Y-023907D01*
G01X0028460Y-023909D01*
G01X0028460Y-023909D01*
G37*
G36*
G01X0029149Y-023909D02*
G01X0029164Y-023913D01*
G01X0029178Y-023921D01*
G01X0029190Y-023930D01*
G01X0029199Y-023942D01*
G01X0029207Y-023956D01*
G01X0029211Y-023971D01*
G01X0029213Y-023988D01*
G01X0029213Y-024240D01*
G01X0029211Y-024258D01*
G01X0029207Y-024272D01*
G01X0029199Y-024286D01*
G01X0029190Y-024298D01*
G01X0029178Y-024308D01*
G01X0029164Y-024315D01*
G01X0029149Y-024320D01*
G01X0029132Y-024321D01*
G01X0028841Y-024321D01*
G01X0028823Y-024320D01*
G01X0028808Y-024315D01*
G01X0028795Y-024308D01*
G01X0028783Y-024298D01*
G01X0028773Y-024286D01*
G01X0028766Y-024272D01*
G01X0028761Y-024258D01*
G01X0028759Y-024240D01*
G01X0028759Y-023988D01*
G01X0028761Y-023971D01*
G01X0028766Y-023956D01*
G01X0028773Y-023942D01*
G01X0028783Y-023930D01*
G01X0028795Y-023921D01*
G01X0028808Y-023913D01*
G01X0028823Y-023909D01*
G01X0028841Y-023907D01*
G01X0029132Y-023907D01*
G01X0029149Y-023909D01*
G01X0029149Y-023909D01*
G37*
G36*
G01X0031512Y-022334D02*
G01X0031526Y-022339D01*
G01X0031540Y-022346D01*
G01X0031552Y-022356D01*
G01X0031562Y-022367D01*
G01X0031569Y-022381D01*
G01X0031573Y-022396D01*
G01X0031575Y-022414D01*
G01X0031575Y-022665D01*
G01X0031573Y-022683D01*
G01X0031569Y-022698D01*
G01X0031562Y-022711D01*
G01X0031552Y-022723D01*
G01X0031540Y-022733D01*
G01X0031526Y-022740D01*
G01X0031512Y-022745D01*
G01X0031494Y-022746D01*
G01X0031203Y-022746D01*
G01X0031185Y-022745D01*
G01X0031170Y-022740D01*
G01X0031157Y-022733D01*
G01X0031145Y-022723D01*
G01X0031135Y-022711D01*
G01X0031128Y-022698D01*
G01X0031123Y-022683D01*
G01X0031122Y-022665D01*
G01X0031122Y-022414D01*
G01X0031123Y-022396D01*
G01X0031128Y-022381D01*
G01X0031135Y-022367D01*
G01X0031145Y-022356D01*
G01X0031157Y-022346D01*
G01X0031170Y-022339D01*
G01X0031185Y-022334D01*
G01X0031203Y-022332D01*
G01X0031494Y-022332D01*
G01X0031512Y-022334D01*
G01X0031512Y-022334D01*
G37*
G36*
G01X0030823Y-022334D02*
G01X0030837Y-022339D01*
G01X0030851Y-022346D01*
G01X0030863Y-022356D01*
G01X0030873Y-022367D01*
G01X0030880Y-022381D01*
G01X0030884Y-022396D01*
G01X0030886Y-022414D01*
G01X0030886Y-022665D01*
G01X0030884Y-022683D01*
G01X0030880Y-022698D01*
G01X0030873Y-022711D01*
G01X0030863Y-022723D01*
G01X0030851Y-022733D01*
G01X0030837Y-022740D01*
G01X0030823Y-022745D01*
G01X0030805Y-022746D01*
G01X0030514Y-022746D01*
G01X0030496Y-022745D01*
G01X0030481Y-022740D01*
G01X0030468Y-022733D01*
G01X0030456Y-022723D01*
G01X0030446Y-022711D01*
G01X0030439Y-022698D01*
G01X0030434Y-022683D01*
G01X0030433Y-022665D01*
G01X0030433Y-022414D01*
G01X0030434Y-022396D01*
G01X0030439Y-022381D01*
G01X0030446Y-022367D01*
G01X0030456Y-022356D01*
G01X0030468Y-022346D01*
G01X0030481Y-022339D01*
G01X0030496Y-022334D01*
G01X0030514Y-022332D01*
G01X0030805Y-022332D01*
G01X0030823Y-022334D01*
G01X0030823Y-022334D01*
G37*
G36*
G01X0032201Y-022334D02*
G01X0032215Y-022339D01*
G01X0032229Y-022346D01*
G01X0032241Y-022356D01*
G01X0032251Y-022367D01*
G01X0032258Y-022381D01*
G01X0032262Y-022396D01*
G01X0032264Y-022414D01*
G01X0032264Y-022665D01*
G01X0032262Y-022683D01*
G01X0032258Y-022698D01*
G01X0032251Y-022711D01*
G01X0032241Y-022723D01*
G01X0032229Y-022733D01*
G01X0032215Y-022740D01*
G01X0032201Y-022745D01*
G01X0032183Y-022746D01*
G01X0031892Y-022746D01*
G01X0031874Y-022745D01*
G01X0031859Y-022740D01*
G01X0031846Y-022733D01*
G01X0031834Y-022723D01*
G01X0031824Y-022711D01*
G01X0031817Y-022698D01*
G01X0031812Y-022683D01*
G01X0031811Y-022665D01*
G01X0031811Y-022414D01*
G01X0031812Y-022396D01*
G01X0031817Y-022381D01*
G01X0031824Y-022367D01*
G01X0031834Y-022356D01*
G01X0031846Y-022346D01*
G01X0031859Y-022339D01*
G01X0031874Y-022334D01*
G01X0031892Y-022332D01*
G01X0032183Y-022332D01*
G01X0032201Y-022334D01*
G01X0032201Y-022334D01*
G37*
G36*
G01X0032890Y-022334D02*
G01X0032904Y-022339D01*
G01X0032918Y-022346D01*
G01X0032930Y-022356D01*
G01X0032940Y-022367D01*
G01X0032947Y-022381D01*
G01X0032951Y-022396D01*
G01X0032953Y-022414D01*
G01X0032953Y-022665D01*
G01X0032951Y-022683D01*
G01X0032947Y-022698D01*
G01X0032940Y-022711D01*
G01X0032930Y-022723D01*
G01X0032918Y-022733D01*
G01X0032904Y-022740D01*
G01X0032890Y-022745D01*
G01X0032872Y-022746D01*
G01X0032581Y-022746D01*
G01X0032563Y-022745D01*
G01X0032548Y-022740D01*
G01X0032535Y-022733D01*
G01X0032523Y-022723D01*
G01X0032513Y-022711D01*
G01X0032506Y-022698D01*
G01X0032501Y-022683D01*
G01X0032500Y-022665D01*
G01X0032500Y-022414D01*
G01X0032501Y-022396D01*
G01X0032506Y-022381D01*
G01X0032513Y-022367D01*
G01X0032523Y-022356D01*
G01X0032535Y-022346D01*
G01X0032548Y-022339D01*
G01X0032563Y-022334D01*
G01X0032581Y-022332D01*
G01X0032872Y-022332D01*
G01X0032890Y-022334D01*
G01X0032890Y-022334D01*
G37*
G36*
G01X0034268Y-022334D02*
G01X0034282Y-022339D01*
G01X0034296Y-022346D01*
G01X0034308Y-022356D01*
G01X0034318Y-022367D01*
G01X0034325Y-022381D01*
G01X0034329Y-022396D01*
G01X0034331Y-022414D01*
G01X0034331Y-022665D01*
G01X0034329Y-022683D01*
G01X0034325Y-022698D01*
G01X0034318Y-022711D01*
G01X0034308Y-022723D01*
G01X0034296Y-022733D01*
G01X0034282Y-022740D01*
G01X0034268Y-022745D01*
G01X0034250Y-022746D01*
G01X0033959Y-022746D01*
G01X0033941Y-022745D01*
G01X0033926Y-022740D01*
G01X0033913Y-022733D01*
G01X0033901Y-022723D01*
G01X0033891Y-022711D01*
G01X0033884Y-022698D01*
G01X0033879Y-022683D01*
G01X0033878Y-022665D01*
G01X0033878Y-022414D01*
G01X0033879Y-022396D01*
G01X0033884Y-022381D01*
G01X0033891Y-022367D01*
G01X0033901Y-022356D01*
G01X0033913Y-022346D01*
G01X0033926Y-022339D01*
G01X0033941Y-022334D01*
G01X0033959Y-022332D01*
G01X0034250Y-022332D01*
G01X0034268Y-022334D01*
G01X0034268Y-022334D01*
G37*
G36*
G01X0033579Y-022334D02*
G01X0033593Y-022339D01*
G01X0033607Y-022346D01*
G01X0033619Y-022356D01*
G01X0033629Y-022367D01*
G01X0033636Y-022381D01*
G01X0033640Y-022396D01*
G01X0033642Y-022414D01*
G01X0033642Y-022665D01*
G01X0033640Y-022683D01*
G01X0033636Y-022698D01*
G01X0033629Y-022711D01*
G01X0033619Y-022723D01*
G01X0033607Y-022733D01*
G01X0033593Y-022740D01*
G01X0033579Y-022745D01*
G01X0033561Y-022746D01*
G01X0033270Y-022746D01*
G01X0033252Y-022745D01*
G01X0033237Y-022740D01*
G01X0033224Y-022733D01*
G01X0033212Y-022723D01*
G01X0033202Y-022711D01*
G01X0033195Y-022698D01*
G01X0033190Y-022683D01*
G01X0033189Y-022665D01*
G01X0033189Y-022414D01*
G01X0033190Y-022396D01*
G01X0033195Y-022381D01*
G01X0033202Y-022367D01*
G01X0033212Y-022356D01*
G01X0033224Y-022346D01*
G01X0033237Y-022339D01*
G01X0033252Y-022334D01*
G01X0033270Y-022332D01*
G01X0033561Y-022332D01*
G01X0033579Y-022334D01*
G01X0033579Y-022334D01*
G37*
G36*
G01X0035645Y-022334D02*
G01X0035660Y-022339D01*
G01X0035674Y-022346D01*
G01X0035686Y-022356D01*
G01X0035696Y-022367D01*
G01X0035703Y-022381D01*
G01X0035707Y-022396D01*
G01X0035709Y-022414D01*
G01X0035709Y-022665D01*
G01X0035707Y-022683D01*
G01X0035703Y-022698D01*
G01X0035696Y-022711D01*
G01X0035686Y-022723D01*
G01X0035674Y-022733D01*
G01X0035660Y-022740D01*
G01X0035645Y-022745D01*
G01X0035628Y-022746D01*
G01X0035337Y-022746D01*
G01X0035319Y-022745D01*
G01X0035304Y-022740D01*
G01X0035291Y-022733D01*
G01X0035279Y-022723D01*
G01X0035269Y-022711D01*
G01X0035262Y-022698D01*
G01X0035257Y-022683D01*
G01X0035256Y-022665D01*
G01X0035256Y-022414D01*
G01X0035257Y-022396D01*
G01X0035262Y-022381D01*
G01X0035269Y-022367D01*
G01X0035279Y-022356D01*
G01X0035291Y-022346D01*
G01X0035304Y-022339D01*
G01X0035319Y-022334D01*
G01X0035337Y-022332D01*
G01X0035628Y-022332D01*
G01X0035645Y-022334D01*
G01X0035645Y-022334D01*
G37*
G36*
G01X0036334Y-022334D02*
G01X0036349Y-022339D01*
G01X0036363Y-022346D01*
G01X0036375Y-022356D01*
G01X0036385Y-022367D01*
G01X0036392Y-022381D01*
G01X0036396Y-022396D01*
G01X0036398Y-022414D01*
G01X0036398Y-022665D01*
G01X0036396Y-022683D01*
G01X0036392Y-022698D01*
G01X0036385Y-022711D01*
G01X0036375Y-022723D01*
G01X0036363Y-022733D01*
G01X0036349Y-022740D01*
G01X0036334Y-022745D01*
G01X0036317Y-022746D01*
G01X0036026Y-022746D01*
G01X0036008Y-022745D01*
G01X0035993Y-022740D01*
G01X0035980Y-022733D01*
G01X0035968Y-022723D01*
G01X0035958Y-022711D01*
G01X0035951Y-022698D01*
G01X0035946Y-022683D01*
G01X0035944Y-022665D01*
G01X0035944Y-022414D01*
G01X0035946Y-022396D01*
G01X0035951Y-022381D01*
G01X0035958Y-022367D01*
G01X0035968Y-022356D01*
G01X0035980Y-022346D01*
G01X0035993Y-022339D01*
G01X0036008Y-022334D01*
G01X0036026Y-022332D01*
G01X0036317Y-022332D01*
G01X0036334Y-022334D01*
G01X0036334Y-022334D01*
G37*
G36*
G01X0029445Y-022334D02*
G01X0029459Y-022339D01*
G01X0029473Y-022346D01*
G01X0029485Y-022356D01*
G01X0029495Y-022367D01*
G01X0029502Y-022381D01*
G01X0029507Y-022396D01*
G01X0029508Y-022414D01*
G01X0029508Y-022665D01*
G01X0029507Y-022683D01*
G01X0029502Y-022698D01*
G01X0029495Y-022711D01*
G01X0029485Y-022723D01*
G01X0029473Y-022733D01*
G01X0029459Y-022740D01*
G01X0029445Y-022745D01*
G01X0029427Y-022746D01*
G01X0029136Y-022746D01*
G01X0029118Y-022745D01*
G01X0029104Y-022740D01*
G01X0029090Y-022733D01*
G01X0029078Y-022723D01*
G01X0029068Y-022711D01*
G01X0029061Y-022698D01*
G01X0029056Y-022683D01*
G01X0029055Y-022665D01*
G01X0029055Y-022414D01*
G01X0029056Y-022396D01*
G01X0029061Y-022381D01*
G01X0029068Y-022367D01*
G01X0029078Y-022356D01*
G01X0029090Y-022346D01*
G01X0029104Y-022339D01*
G01X0029118Y-022334D01*
G01X0029136Y-022332D01*
G01X0029427Y-022332D01*
G01X0029445Y-022334D01*
G01X0029445Y-022334D01*
G37*
G36*
G01X0028067Y-022334D02*
G01X0028081Y-022339D01*
G01X0028095Y-022346D01*
G01X0028107Y-022356D01*
G01X0028117Y-022367D01*
G01X0028124Y-022381D01*
G01X0028129Y-022396D01*
G01X0028130Y-022414D01*
G01X0028130Y-022665D01*
G01X0028129Y-022683D01*
G01X0028124Y-022698D01*
G01X0028117Y-022711D01*
G01X0028107Y-022723D01*
G01X0028095Y-022733D01*
G01X0028081Y-022740D01*
G01X0028067Y-022745D01*
G01X0028049Y-022746D01*
G01X0027758Y-022746D01*
G01X0027740Y-022745D01*
G01X0027726Y-022740D01*
G01X0027712Y-022733D01*
G01X0027700Y-022723D01*
G01X0027690Y-022711D01*
G01X0027683Y-022698D01*
G01X0027679Y-022683D01*
G01X0027677Y-022665D01*
G01X0027677Y-022414D01*
G01X0027679Y-022396D01*
G01X0027683Y-022381D01*
G01X0027690Y-022367D01*
G01X0027700Y-022356D01*
G01X0027712Y-022346D01*
G01X0027726Y-022339D01*
G01X0027740Y-022334D01*
G01X0027758Y-022332D01*
G01X0028049Y-022332D01*
G01X0028067Y-022334D01*
G01X0028067Y-022334D01*
G37*
G36*
G01X0028756Y-022334D02*
G01X0028770Y-022339D01*
G01X0028784Y-022346D01*
G01X0028796Y-022356D01*
G01X0028806Y-022367D01*
G01X0028813Y-022381D01*
G01X0028818Y-022396D01*
G01X0028819Y-022414D01*
G01X0028819Y-022665D01*
G01X0028818Y-022683D01*
G01X0028813Y-022698D01*
G01X0028806Y-022711D01*
G01X0028796Y-022723D01*
G01X0028784Y-022733D01*
G01X0028770Y-022740D01*
G01X0028756Y-022745D01*
G01X0028738Y-022746D01*
G01X0028447Y-022746D01*
G01X0028429Y-022745D01*
G01X0028415Y-022740D01*
G01X0028401Y-022733D01*
G01X0028389Y-022723D01*
G01X0028379Y-022711D01*
G01X0028372Y-022698D01*
G01X0028367Y-022683D01*
G01X0028366Y-022665D01*
G01X0028366Y-022414D01*
G01X0028367Y-022396D01*
G01X0028372Y-022381D01*
G01X0028379Y-022367D01*
G01X0028389Y-022356D01*
G01X0028401Y-022346D01*
G01X0028415Y-022339D01*
G01X0028429Y-022334D01*
G01X0028447Y-022332D01*
G01X0028738Y-022332D01*
G01X0028756Y-022334D01*
G01X0028756Y-022334D01*
G37*
G36*
G01X0027378Y-022334D02*
G01X0027393Y-022339D01*
G01X0027406Y-022346D01*
G01X0027418Y-022356D01*
G01X0027428Y-022367D01*
G01X0027435Y-022381D01*
G01X0027440Y-022396D01*
G01X0027441Y-022414D01*
G01X0027441Y-022665D01*
G01X0027440Y-022683D01*
G01X0027435Y-022698D01*
G01X0027428Y-022711D01*
G01X0027418Y-022723D01*
G01X0027406Y-022733D01*
G01X0027393Y-022740D01*
G01X0027378Y-022745D01*
G01X0027360Y-022746D01*
G01X0027069Y-022746D01*
G01X0027051Y-022745D01*
G01X0027037Y-022740D01*
G01X0027023Y-022733D01*
G01X0027011Y-022723D01*
G01X0027001Y-022711D01*
G01X0026994Y-022698D01*
G01X0026990Y-022683D01*
G01X0026988Y-022665D01*
G01X0026988Y-022414D01*
G01X0026990Y-022396D01*
G01X0026994Y-022381D01*
G01X0027001Y-022367D01*
G01X0027011Y-022356D01*
G01X0027023Y-022346D01*
G01X0027037Y-022339D01*
G01X0027051Y-022334D01*
G01X0027069Y-022332D01*
G01X0027360Y-022332D01*
G01X0027378Y-022334D01*
G01X0027378Y-022334D01*
G37*
G36*
G01X0034956Y-022334D02*
G01X0034971Y-022339D01*
G01X0034985Y-022346D01*
G01X0034997Y-022356D01*
G01X0035007Y-022367D01*
G01X0035014Y-022381D01*
G01X0035018Y-022396D01*
G01X0035020Y-022414D01*
G01X0035020Y-022665D01*
G01X0035018Y-022683D01*
G01X0035014Y-022698D01*
G01X0035007Y-022711D01*
G01X0034997Y-022723D01*
G01X0034985Y-022733D01*
G01X0034971Y-022740D01*
G01X0034956Y-022745D01*
G01X0034939Y-022746D01*
G01X0034648Y-022746D01*
G01X0034630Y-022745D01*
G01X0034615Y-022740D01*
G01X0034602Y-022733D01*
G01X0034590Y-022723D01*
G01X0034580Y-022711D01*
G01X0034573Y-022698D01*
G01X0034568Y-022683D01*
G01X0034567Y-022665D01*
G01X0034567Y-022414D01*
G01X0034568Y-022396D01*
G01X0034573Y-022381D01*
G01X0034580Y-022367D01*
G01X0034590Y-022356D01*
G01X0034602Y-022346D01*
G01X0034615Y-022339D01*
G01X0034630Y-022334D01*
G01X0034648Y-022332D01*
G01X0034939Y-022332D01*
G01X0034956Y-022334D01*
G01X0034956Y-022334D01*
G37*
G36*
G01X0037023Y-022334D02*
G01X0037038Y-022339D01*
G01X0037052Y-022346D01*
G01X0037064Y-022356D01*
G01X0037074Y-022367D01*
G01X0037081Y-022381D01*
G01X0037085Y-022396D01*
G01X0037087Y-022414D01*
G01X0037087Y-022665D01*
G01X0037085Y-022683D01*
G01X0037081Y-022698D01*
G01X0037074Y-022711D01*
G01X0037064Y-022723D01*
G01X0037052Y-022733D01*
G01X0037038Y-022740D01*
G01X0037023Y-022745D01*
G01X0037006Y-022746D01*
G01X0036715Y-022746D01*
G01X0036697Y-022745D01*
G01X0036682Y-022740D01*
G01X0036669Y-022733D01*
G01X0036657Y-022723D01*
G01X0036647Y-022711D01*
G01X0036640Y-022698D01*
G01X0036635Y-022683D01*
G01X0036633Y-022665D01*
G01X0036633Y-022414D01*
G01X0036635Y-022396D01*
G01X0036640Y-022381D01*
G01X0036647Y-022367D01*
G01X0036657Y-022356D01*
G01X0036669Y-022346D01*
G01X0036682Y-022339D01*
G01X0036697Y-022334D01*
G01X0036715Y-022332D01*
G01X0037006Y-022332D01*
G01X0037023Y-022334D01*
G01X0037023Y-022334D01*
G37*
G36*
G01X0026689Y-022334D02*
G01X0026704Y-022339D01*
G01X0026717Y-022346D01*
G01X0026729Y-022356D01*
G01X0026739Y-022367D01*
G01X0026746Y-022381D01*
G01X0026751Y-022396D01*
G01X0026752Y-022414D01*
G01X0026752Y-022665D01*
G01X0026751Y-022683D01*
G01X0026746Y-022698D01*
G01X0026739Y-022711D01*
G01X0026729Y-022723D01*
G01X0026717Y-022733D01*
G01X0026704Y-022740D01*
G01X0026689Y-022745D01*
G01X0026671Y-022746D01*
G01X0026380Y-022746D01*
G01X0026362Y-022745D01*
G01X0026348Y-022740D01*
G01X0026334Y-022733D01*
G01X0026322Y-022723D01*
G01X0026312Y-022711D01*
G01X0026305Y-022698D01*
G01X0026301Y-022683D01*
G01X0026299Y-022665D01*
G01X0026299Y-022414D01*
G01X0026301Y-022396D01*
G01X0026305Y-022381D01*
G01X0026312Y-022367D01*
G01X0026322Y-022356D01*
G01X0026334Y-022346D01*
G01X0026348Y-022339D01*
G01X0026362Y-022334D01*
G01X0026380Y-022332D01*
G01X0026671Y-022332D01*
G01X0026689Y-022334D01*
G01X0026689Y-022334D01*
G37*
G36*
G01X0030134Y-022334D02*
G01X0030148Y-022339D01*
G01X0030162Y-022346D01*
G01X0030174Y-022356D01*
G01X0030184Y-022367D01*
G01X0030191Y-022381D01*
G01X0030195Y-022396D01*
G01X0030197Y-022414D01*
G01X0030197Y-022665D01*
G01X0030195Y-022683D01*
G01X0030191Y-022698D01*
G01X0030184Y-022711D01*
G01X0030174Y-022723D01*
G01X0030162Y-022733D01*
G01X0030148Y-022740D01*
G01X0030134Y-022745D01*
G01X0030116Y-022746D01*
G01X0029825Y-022746D01*
G01X0029807Y-022745D01*
G01X0029793Y-022740D01*
G01X0029779Y-022733D01*
G01X0029767Y-022723D01*
G01X0029757Y-022711D01*
G01X0029750Y-022698D01*
G01X0029745Y-022683D01*
G01X0029744Y-022665D01*
G01X0029744Y-022414D01*
G01X0029745Y-022396D01*
G01X0029750Y-022381D01*
G01X0029757Y-022367D01*
G01X0029767Y-022356D01*
G01X0029779Y-022346D01*
G01X0029793Y-022339D01*
G01X0029807Y-022334D01*
G01X0029825Y-022332D01*
G01X0030116Y-022332D01*
G01X0030134Y-022334D01*
G01X0030134Y-022334D01*
G37*
G36*
G01X0048059Y-021246D02*
G01X0048085Y-021249D01*
G01X0048130Y-021262D01*
G01X0048152Y-021269D01*
G01X0048207Y-021298D01*
G01X0048214Y-021302D01*
G01X0048228Y-021314D01*
G01X0048268Y-021346D01*
G01X0048301Y-021386D01*
G01X0048312Y-021400D01*
G01X0048312Y-021400D01*
G01X0048345Y-021462D01*
G01X0048345Y-021462D01*
G01X0048365Y-021529D01*
G01X0048372Y-021598D01*
G01X0048365Y-021668D01*
G01X0048352Y-021713D01*
G01X0048345Y-021735D01*
G01X0048316Y-021789D01*
G01X0048312Y-021796D01*
G01X0048301Y-021811D01*
G01X0048268Y-021850D01*
G01X0048228Y-021883D01*
G01X0048214Y-021895D01*
G01X0048214Y-021895D01*
G01X0048152Y-021928D01*
G01X0048130Y-021934D01*
G01X0048085Y-021948D01*
G01X0048059Y-021951D01*
G01X0048033Y-021953D01*
G01X0047998Y-021953D01*
G01X0047972Y-021951D01*
G01X0047946Y-021948D01*
G01X0047902Y-021934D01*
G01X0047879Y-021928D01*
G01X0047818Y-021895D01*
G01X0047818Y-021895D01*
G01X0047804Y-021883D01*
G01X0047764Y-021850D01*
G01X0047731Y-021811D01*
G01X0047719Y-021796D01*
G01X0047716Y-021789D01*
G01X0047686Y-021735D01*
G01X0047680Y-021713D01*
G01X0047666Y-021668D01*
G01X0047659Y-021598D01*
G01X0047666Y-021529D01*
G01X0047686Y-021462D01*
G01X0047686Y-021462D01*
G01X0047719Y-021400D01*
G01X0047719Y-021400D01*
G01X0047731Y-021386D01*
G01X0047764Y-021346D01*
G01X0047804Y-021314D01*
G01X0047818Y-021302D01*
G01X0047825Y-021298D01*
G01X0047879Y-021269D01*
G01X0047902Y-021262D01*
G01X0047946Y-021249D01*
G01X0047972Y-021246D01*
G01X0047998Y-021244D01*
G01X0048033Y-021244D01*
G01X0048059Y-021246D01*
G01X0048059Y-021246D01*
G37*
G36*
G01X0046059Y-021246D02*
G01X0046085Y-021249D01*
G01X0046130Y-021262D01*
G01X0046152Y-021269D01*
G01X0046207Y-021298D01*
G01X0046214Y-021302D01*
G01X0046228Y-021314D01*
G01X0046268Y-021346D01*
G01X0046301Y-021386D01*
G01X0046312Y-021400D01*
G01X0046312Y-021400D01*
G01X0046345Y-021462D01*
G01X0046345Y-021462D01*
G01X0046365Y-021529D01*
G01X0046372Y-021598D01*
G01X0046365Y-021668D01*
G01X0046352Y-021713D01*
G01X0046345Y-021735D01*
G01X0046316Y-021789D01*
G01X0046312Y-021796D01*
G01X0046301Y-021811D01*
G01X0046268Y-021850D01*
G01X0046228Y-021883D01*
G01X0046214Y-021895D01*
G01X0046214Y-021895D01*
G01X0046152Y-021928D01*
G01X0046130Y-021934D01*
G01X0046085Y-021948D01*
G01X0046059Y-021951D01*
G01X0046033Y-021953D01*
G01X0045998Y-021953D01*
G01X0045972Y-021951D01*
G01X0045946Y-021948D01*
G01X0045902Y-021934D01*
G01X0045879Y-021928D01*
G01X0045818Y-021895D01*
G01X0045818Y-021895D01*
G01X0045804Y-021883D01*
G01X0045764Y-021850D01*
G01X0045731Y-021811D01*
G01X0045719Y-021796D01*
G01X0045716Y-021789D01*
G01X0045686Y-021735D01*
G01X0045680Y-021713D01*
G01X0045666Y-021668D01*
G01X0045659Y-021598D01*
G01X0045666Y-021529D01*
G01X0045686Y-021462D01*
G01X0045686Y-021462D01*
G01X0045719Y-021400D01*
G01X0045719Y-021400D01*
G01X0045731Y-021386D01*
G01X0045764Y-021346D01*
G01X0045804Y-021314D01*
G01X0045818Y-021302D01*
G01X0045825Y-021298D01*
G01X0045879Y-021269D01*
G01X0045902Y-021262D01*
G01X0045946Y-021249D01*
G01X0045972Y-021246D01*
G01X0045998Y-021244D01*
G01X0046033Y-021244D01*
G01X0046059Y-021246D01*
G01X0046059Y-021246D01*
G37*
G36*
G01X0047059Y-021246D02*
G01X0047085Y-021249D01*
G01X0047130Y-021262D01*
G01X0047152Y-021269D01*
G01X0047207Y-021298D01*
G01X0047214Y-021302D01*
G01X0047228Y-021314D01*
G01X0047268Y-021346D01*
G01X0047301Y-021386D01*
G01X0047312Y-021400D01*
G01X0047312Y-021400D01*
G01X0047345Y-021462D01*
G01X0047345Y-021462D01*
G01X0047365Y-021529D01*
G01X0047372Y-021598D01*
G01X0047365Y-021668D01*
G01X0047352Y-021713D01*
G01X0047345Y-021735D01*
G01X0047316Y-021789D01*
G01X0047312Y-021796D01*
G01X0047301Y-021811D01*
G01X0047268Y-021850D01*
G01X0047228Y-021883D01*
G01X0047214Y-021895D01*
G01X0047214Y-021895D01*
G01X0047152Y-021928D01*
G01X0047130Y-021934D01*
G01X0047085Y-021948D01*
G01X0047059Y-021951D01*
G01X0047033Y-021953D01*
G01X0046998Y-021953D01*
G01X0046972Y-021951D01*
G01X0046946Y-021948D01*
G01X0046902Y-021934D01*
G01X0046879Y-021928D01*
G01X0046818Y-021895D01*
G01X0046818Y-021895D01*
G01X0046804Y-021883D01*
G01X0046764Y-021850D01*
G01X0046731Y-021811D01*
G01X0046719Y-021796D01*
G01X0046716Y-021789D01*
G01X0046686Y-021735D01*
G01X0046680Y-021713D01*
G01X0046666Y-021668D01*
G01X0046659Y-021598D01*
G01X0046666Y-021529D01*
G01X0046686Y-021462D01*
G01X0046686Y-021462D01*
G01X0046719Y-021400D01*
G01X0046719Y-021400D01*
G01X0046731Y-021386D01*
G01X0046764Y-021346D01*
G01X0046804Y-021314D01*
G01X0046818Y-021302D01*
G01X0046825Y-021298D01*
G01X0046879Y-021269D01*
G01X0046902Y-021262D01*
G01X0046946Y-021249D01*
G01X0046972Y-021246D01*
G01X0046998Y-021244D01*
G01X0047033Y-021244D01*
G01X0047059Y-021246D01*
G01X0047059Y-021246D01*
G37*
G36*
G01X0049370Y-021953D02*
G01X0048661Y-021953D01*
G01X0048661Y-021244D01*
G01X0049370Y-021244D01*
G01X0049370Y-021953D01*
G01X0049370Y-021953D01*
G37*
G36*
G01X0053059Y-021246D02*
G01X0053085Y-021249D01*
G01X0053130Y-021262D01*
G01X0053152Y-021269D01*
G01X0053207Y-021298D01*
G01X0053214Y-021302D01*
G01X0053228Y-021314D01*
G01X0053268Y-021346D01*
G01X0053301Y-021386D01*
G01X0053312Y-021400D01*
G01X0053312Y-021400D01*
G01X0053345Y-021462D01*
G01X0053345Y-021462D01*
G01X0053365Y-021529D01*
G01X0053372Y-021598D01*
G01X0053365Y-021668D01*
G01X0053352Y-021713D01*
G01X0053345Y-021735D01*
G01X0053316Y-021789D01*
G01X0053312Y-021796D01*
G01X0053301Y-021811D01*
G01X0053268Y-021850D01*
G01X0053228Y-021883D01*
G01X0053214Y-021895D01*
G01X0053214Y-021895D01*
G01X0053152Y-021928D01*
G01X0053130Y-021934D01*
G01X0053085Y-021948D01*
G01X0053059Y-021951D01*
G01X0053033Y-021953D01*
G01X0052998Y-021953D01*
G01X0052972Y-021951D01*
G01X0052946Y-021948D01*
G01X0052902Y-021934D01*
G01X0052879Y-021928D01*
G01X0052818Y-021895D01*
G01X0052818Y-021895D01*
G01X0052804Y-021883D01*
G01X0052764Y-021850D01*
G01X0052731Y-021811D01*
G01X0052719Y-021796D01*
G01X0052716Y-021789D01*
G01X0052686Y-021735D01*
G01X0052680Y-021713D01*
G01X0052666Y-021668D01*
G01X0052659Y-021598D01*
G01X0052666Y-021529D01*
G01X0052686Y-021462D01*
G01X0052686Y-021462D01*
G01X0052719Y-021400D01*
G01X0052719Y-021400D01*
G01X0052731Y-021386D01*
G01X0052764Y-021346D01*
G01X0052804Y-021314D01*
G01X0052818Y-021302D01*
G01X0052825Y-021298D01*
G01X0052879Y-021269D01*
G01X0052902Y-021262D01*
G01X0052946Y-021249D01*
G01X0052972Y-021246D01*
G01X0052998Y-021244D01*
G01X0053033Y-021244D01*
G01X0053059Y-021246D01*
G01X0053059Y-021246D01*
G37*
G36*
G01X0054059Y-021246D02*
G01X0054085Y-021249D01*
G01X0054130Y-021262D01*
G01X0054152Y-021269D01*
G01X0054207Y-021298D01*
G01X0054214Y-021302D01*
G01X0054228Y-021314D01*
G01X0054268Y-021346D01*
G01X0054301Y-021386D01*
G01X0054312Y-021400D01*
G01X0054312Y-021400D01*
G01X0054345Y-021462D01*
G01X0054345Y-021462D01*
G01X0054365Y-021529D01*
G01X0054372Y-021598D01*
G01X0054365Y-021668D01*
G01X0054352Y-021713D01*
G01X0054345Y-021735D01*
G01X0054316Y-021789D01*
G01X0054312Y-021796D01*
G01X0054301Y-021811D01*
G01X0054268Y-021850D01*
G01X0054228Y-021883D01*
G01X0054214Y-021895D01*
G01X0054214Y-021895D01*
G01X0054152Y-021928D01*
G01X0054130Y-021934D01*
G01X0054085Y-021948D01*
G01X0054059Y-021951D01*
G01X0054033Y-021953D01*
G01X0053998Y-021953D01*
G01X0053972Y-021951D01*
G01X0053946Y-021948D01*
G01X0053902Y-021934D01*
G01X0053879Y-021928D01*
G01X0053818Y-021895D01*
G01X0053818Y-021895D01*
G01X0053804Y-021883D01*
G01X0053764Y-021850D01*
G01X0053731Y-021811D01*
G01X0053719Y-021796D01*
G01X0053716Y-021789D01*
G01X0053686Y-021735D01*
G01X0053680Y-021713D01*
G01X0053666Y-021668D01*
G01X0053659Y-021598D01*
G01X0053666Y-021529D01*
G01X0053686Y-021462D01*
G01X0053686Y-021462D01*
G01X0053719Y-021400D01*
G01X0053719Y-021400D01*
G01X0053731Y-021386D01*
G01X0053764Y-021346D01*
G01X0053804Y-021314D01*
G01X0053818Y-021302D01*
G01X0053825Y-021298D01*
G01X0053879Y-021269D01*
G01X0053902Y-021262D01*
G01X0053946Y-021249D01*
G01X0053972Y-021246D01*
G01X0053998Y-021244D01*
G01X0054033Y-021244D01*
G01X0054059Y-021246D01*
G01X0054059Y-021246D01*
G37*
G36*
G01X0055370Y-021953D02*
G01X0054661Y-021953D01*
G01X0054661Y-021244D01*
G01X0055370Y-021244D01*
G01X0055370Y-021953D01*
G01X0055370Y-021953D01*
G37*
G36*
G01X0052059Y-021246D02*
G01X0052085Y-021249D01*
G01X0052130Y-021262D01*
G01X0052152Y-021269D01*
G01X0052207Y-021298D01*
G01X0052214Y-021302D01*
G01X0052228Y-021314D01*
G01X0052268Y-021346D01*
G01X0052301Y-021386D01*
G01X0052312Y-021400D01*
G01X0052312Y-021400D01*
G01X0052345Y-021462D01*
G01X0052345Y-021462D01*
G01X0052365Y-021529D01*
G01X0052372Y-021598D01*
G01X0052365Y-021668D01*
G01X0052352Y-021713D01*
G01X0052345Y-021735D01*
G01X0052316Y-021789D01*
G01X0052312Y-021796D01*
G01X0052301Y-021811D01*
G01X0052268Y-021850D01*
G01X0052228Y-021883D01*
G01X0052214Y-021895D01*
G01X0052214Y-021895D01*
G01X0052152Y-021928D01*
G01X0052130Y-021934D01*
G01X0052085Y-021948D01*
G01X0052059Y-021951D01*
G01X0052033Y-021953D01*
G01X0051998Y-021953D01*
G01X0051972Y-021951D01*
G01X0051946Y-021948D01*
G01X0051902Y-021934D01*
G01X0051879Y-021928D01*
G01X0051818Y-021895D01*
G01X0051818Y-021895D01*
G01X0051804Y-021883D01*
G01X0051764Y-021850D01*
G01X0051731Y-021811D01*
G01X0051719Y-021796D01*
G01X0051716Y-021789D01*
G01X0051686Y-021735D01*
G01X0051680Y-021713D01*
G01X0051666Y-021668D01*
G01X0051659Y-021598D01*
G01X0051666Y-021529D01*
G01X0051686Y-021462D01*
G01X0051686Y-021462D01*
G01X0051719Y-021400D01*
G01X0051719Y-021400D01*
G01X0051731Y-021386D01*
G01X0051764Y-021346D01*
G01X0051804Y-021314D01*
G01X0051818Y-021302D01*
G01X0051825Y-021298D01*
G01X0051879Y-021269D01*
G01X0051902Y-021262D01*
G01X0051946Y-021249D01*
G01X0051972Y-021246D01*
G01X0051998Y-021244D01*
G01X0052033Y-021244D01*
G01X0052059Y-021246D01*
G01X0052059Y-021246D01*
G37*
G36*
G01X0020389Y-020522D02*
G01X0020425Y-020529D01*
G01X0020466Y-020546D01*
G01X0020525Y-020570D01*
G01X0020615Y-020631D01*
G01X0020692Y-020707D01*
G01X0020753Y-020798D01*
G01X0020794Y-020898D01*
G01X0020815Y-021005D01*
G01X0020815Y-021113D01*
G01X0020794Y-021220D01*
G01X0020753Y-021320D01*
G01X0020692Y-021411D01*
G01X0020615Y-021487D01*
G01X0020525Y-021548D01*
G01X0020466Y-021572D01*
G01X0020425Y-021589D01*
G01X0020389Y-021596D01*
G01X0020318Y-021611D01*
G01X0020209Y-021611D01*
G01X0020138Y-021596D01*
G01X0020103Y-021589D01*
G01X0020061Y-021572D01*
G01X0020003Y-021548D01*
G01X0019912Y-021487D01*
G01X0019835Y-021411D01*
G01X0019775Y-021320D01*
G01X0019733Y-021220D01*
G01X0019712Y-021113D01*
G01X0019712Y-021005D01*
G01X0019733Y-020898D01*
G01X0019775Y-020798D01*
G01X0019835Y-020707D01*
G01X0019912Y-020631D01*
G01X0020003Y-020570D01*
G01X0020061Y-020546D01*
G01X0020103Y-020529D01*
G01X0020138Y-020522D01*
G01X0020209Y-020507D01*
G01X0020318Y-020507D01*
G01X0020389Y-020522D01*
G01X0020389Y-020522D01*
G37*
G36*
G01X0038106Y-020522D02*
G01X0038141Y-020529D01*
G01X0038183Y-020546D01*
G01X0038242Y-020570D01*
G01X0038332Y-020631D01*
G01X0038409Y-020707D01*
G01X0038469Y-020798D01*
G01X0038511Y-020898D01*
G01X0038532Y-021005D01*
G01X0038532Y-021113D01*
G01X0038511Y-021220D01*
G01X0038469Y-021320D01*
G01X0038409Y-021411D01*
G01X0038332Y-021487D01*
G01X0038242Y-021548D01*
G01X0038183Y-021572D01*
G01X0038141Y-021589D01*
G01X0038106Y-021596D01*
G01X0038035Y-021611D01*
G01X0037926Y-021611D01*
G01X0037855Y-021596D01*
G01X0037819Y-021589D01*
G01X0037778Y-021572D01*
G01X0037719Y-021548D01*
G01X0037629Y-021487D01*
G01X0037552Y-021411D01*
G01X0037492Y-021320D01*
G01X0037450Y-021220D01*
G01X0037429Y-021113D01*
G01X0037429Y-021005D01*
G01X0037450Y-020898D01*
G01X0037492Y-020798D01*
G01X0037552Y-020707D01*
G01X0037629Y-020631D01*
G01X0037719Y-020570D01*
G01X0037778Y-020546D01*
G01X0037819Y-020529D01*
G01X0037855Y-020522D01*
G01X0037926Y-020507D01*
G01X0038035Y-020507D01*
G01X0038106Y-020522D01*
G01X0038106Y-020522D01*
G37*
G36*
G01X0057791Y-020522D02*
G01X0057826Y-020529D01*
G01X0057868Y-020546D01*
G01X0057927Y-020570D01*
G01X0058017Y-020631D01*
G01X0058094Y-020707D01*
G01X0058154Y-020798D01*
G01X0058196Y-020898D01*
G01X0058217Y-021005D01*
G01X0058217Y-021113D01*
G01X0058196Y-021220D01*
G01X0058154Y-021320D01*
G01X0058094Y-021411D01*
G01X0058017Y-021487D01*
G01X0057927Y-021548D01*
G01X0057868Y-021572D01*
G01X0057826Y-021589D01*
G01X0057791Y-021596D01*
G01X0057720Y-021611D01*
G01X0057611Y-021611D01*
G01X0057540Y-021596D01*
G01X0057504Y-021589D01*
G01X0057463Y-021572D01*
G01X0057404Y-021548D01*
G01X0057314Y-021487D01*
G01X0057237Y-021411D01*
G01X0057177Y-021320D01*
G01X0057135Y-021220D01*
G01X0057114Y-021113D01*
G01X0057114Y-021005D01*
G01X0057135Y-020898D01*
G01X0057177Y-020798D01*
G01X0057237Y-020707D01*
G01X0057314Y-020631D01*
G01X0057404Y-020570D01*
G01X0057463Y-020546D01*
G01X0057504Y-020529D01*
G01X0057540Y-020522D01*
G01X0057611Y-020507D01*
G01X0057720Y-020507D01*
G01X0057791Y-020522D01*
G01X0057791Y-020522D01*
G37*
G36*
G01X0054059Y-020317D02*
G01X0054085Y-020320D01*
G01X0054130Y-020333D01*
G01X0054152Y-020340D01*
G01X0054207Y-020369D01*
G01X0054214Y-020373D01*
G01X0054228Y-020384D01*
G01X0054268Y-020417D01*
G01X0054301Y-020457D01*
G01X0054312Y-020471D01*
G01X0054312Y-020471D01*
G01X0054345Y-020533D01*
G01X0054345Y-020533D01*
G01X0054365Y-020600D01*
G01X0054372Y-020669D01*
G01X0054365Y-020739D01*
G01X0054352Y-020783D01*
G01X0054345Y-020806D01*
G01X0054316Y-020860D01*
G01X0054312Y-020867D01*
G01X0054301Y-020881D01*
G01X0054268Y-020921D01*
G01X0054228Y-020954D01*
G01X0054214Y-020966D01*
G01X0054214Y-020966D01*
G01X0054152Y-020999D01*
G01X0054132Y-021005D01*
G01X0054085Y-021019D01*
G01X0054059Y-021021D01*
G01X0054033Y-021024D01*
G01X0053998Y-021024D01*
G01X0053972Y-021021D01*
G01X0053946Y-021019D01*
G01X0053900Y-021005D01*
G01X0053879Y-020999D01*
G01X0053818Y-020966D01*
G01X0053818Y-020966D01*
G01X0053804Y-020954D01*
G01X0053764Y-020921D01*
G01X0053731Y-020881D01*
G01X0053719Y-020867D01*
G01X0053716Y-020860D01*
G01X0053686Y-020806D01*
G01X0053680Y-020783D01*
G01X0053666Y-020739D01*
G01X0053659Y-020669D01*
G01X0053666Y-020600D01*
G01X0053686Y-020533D01*
G01X0053686Y-020533D01*
G01X0053719Y-020471D01*
G01X0053719Y-020471D01*
G01X0053731Y-020457D01*
G01X0053764Y-020417D01*
G01X0053804Y-020384D01*
G01X0053818Y-020373D01*
G01X0053825Y-020369D01*
G01X0053879Y-020340D01*
G01X0053902Y-020333D01*
G01X0053946Y-020320D01*
G01X0053972Y-020317D01*
G01X0053998Y-020315D01*
G01X0054033Y-020315D01*
G01X0054059Y-020317D01*
G01X0054059Y-020317D01*
G37*
G36*
G01X0046059Y-020317D02*
G01X0046085Y-020320D01*
G01X0046130Y-020333D01*
G01X0046152Y-020340D01*
G01X0046207Y-020369D01*
G01X0046214Y-020373D01*
G01X0046228Y-020384D01*
G01X0046268Y-020417D01*
G01X0046301Y-020457D01*
G01X0046312Y-020471D01*
G01X0046312Y-020471D01*
G01X0046345Y-020533D01*
G01X0046345Y-020533D01*
G01X0046365Y-020600D01*
G01X0046372Y-020669D01*
G01X0046365Y-020739D01*
G01X0046352Y-020783D01*
G01X0046345Y-020806D01*
G01X0046316Y-020860D01*
G01X0046312Y-020867D01*
G01X0046301Y-020881D01*
G01X0046268Y-020921D01*
G01X0046228Y-020954D01*
G01X0046214Y-020966D01*
G01X0046214Y-020966D01*
G01X0046152Y-020999D01*
G01X0046132Y-021005D01*
G01X0046085Y-021019D01*
G01X0046059Y-021021D01*
G01X0046033Y-021024D01*
G01X0045998Y-021024D01*
G01X0045972Y-021021D01*
G01X0045946Y-021019D01*
G01X0045900Y-021005D01*
G01X0045879Y-020999D01*
G01X0045818Y-020966D01*
G01X0045818Y-020966D01*
G01X0045804Y-020954D01*
G01X0045764Y-020921D01*
G01X0045731Y-020881D01*
G01X0045719Y-020867D01*
G01X0045716Y-020860D01*
G01X0045686Y-020806D01*
G01X0045680Y-020783D01*
G01X0045666Y-020739D01*
G01X0045659Y-020669D01*
G01X0045666Y-020600D01*
G01X0045686Y-020533D01*
G01X0045686Y-020533D01*
G01X0045719Y-020471D01*
G01X0045719Y-020471D01*
G01X0045731Y-020457D01*
G01X0045764Y-020417D01*
G01X0045804Y-020384D01*
G01X0045818Y-020373D01*
G01X0045825Y-020369D01*
G01X0045879Y-020340D01*
G01X0045902Y-020333D01*
G01X0045946Y-020320D01*
G01X0045972Y-020317D01*
G01X0045998Y-020315D01*
G01X0046033Y-020315D01*
G01X0046059Y-020317D01*
G01X0046059Y-020317D01*
G37*
G36*
G01X0047059Y-020317D02*
G01X0047085Y-020320D01*
G01X0047130Y-020333D01*
G01X0047152Y-020340D01*
G01X0047207Y-020369D01*
G01X0047214Y-020373D01*
G01X0047228Y-020384D01*
G01X0047268Y-020417D01*
G01X0047301Y-020457D01*
G01X0047312Y-020471D01*
G01X0047312Y-020471D01*
G01X0047345Y-020533D01*
G01X0047345Y-020533D01*
G01X0047365Y-020600D01*
G01X0047372Y-020669D01*
G01X0047365Y-020739D01*
G01X0047352Y-020783D01*
G01X0047345Y-020806D01*
G01X0047316Y-020860D01*
G01X0047312Y-020867D01*
G01X0047301Y-020881D01*
G01X0047268Y-020921D01*
G01X0047228Y-020954D01*
G01X0047214Y-020966D01*
G01X0047214Y-020966D01*
G01X0047152Y-020999D01*
G01X0047132Y-021005D01*
G01X0047085Y-021019D01*
G01X0047059Y-021021D01*
G01X0047033Y-021024D01*
G01X0046998Y-021024D01*
G01X0046972Y-021021D01*
G01X0046946Y-021019D01*
G01X0046900Y-021005D01*
G01X0046879Y-020999D01*
G01X0046818Y-020966D01*
G01X0046818Y-020966D01*
G01X0046804Y-020954D01*
G01X0046764Y-020921D01*
G01X0046731Y-020881D01*
G01X0046719Y-020867D01*
G01X0046716Y-020860D01*
G01X0046686Y-020806D01*
G01X0046680Y-020783D01*
G01X0046666Y-020739D01*
G01X0046659Y-020669D01*
G01X0046666Y-020600D01*
G01X0046686Y-020533D01*
G01X0046686Y-020533D01*
G01X0046719Y-020471D01*
G01X0046719Y-020471D01*
G01X0046731Y-020457D01*
G01X0046764Y-020417D01*
G01X0046804Y-020384D01*
G01X0046818Y-020373D01*
G01X0046825Y-020369D01*
G01X0046879Y-020340D01*
G01X0046902Y-020333D01*
G01X0046946Y-020320D01*
G01X0046972Y-020317D01*
G01X0046998Y-020315D01*
G01X0047033Y-020315D01*
G01X0047059Y-020317D01*
G01X0047059Y-020317D01*
G37*
G36*
G01X0048059Y-020317D02*
G01X0048085Y-020320D01*
G01X0048130Y-020333D01*
G01X0048152Y-020340D01*
G01X0048207Y-020369D01*
G01X0048214Y-020373D01*
G01X0048228Y-020384D01*
G01X0048268Y-020417D01*
G01X0048301Y-020457D01*
G01X0048312Y-020471D01*
G01X0048312Y-020471D01*
G01X0048345Y-020533D01*
G01X0048345Y-020533D01*
G01X0048365Y-020600D01*
G01X0048372Y-020669D01*
G01X0048365Y-020739D01*
G01X0048352Y-020783D01*
G01X0048345Y-020806D01*
G01X0048316Y-020860D01*
G01X0048312Y-020867D01*
G01X0048301Y-020881D01*
G01X0048268Y-020921D01*
G01X0048228Y-020954D01*
G01X0048214Y-020966D01*
G01X0048214Y-020966D01*
G01X0048152Y-020999D01*
G01X0048132Y-021005D01*
G01X0048085Y-021019D01*
G01X0048059Y-021021D01*
G01X0048033Y-021024D01*
G01X0047998Y-021024D01*
G01X0047972Y-021021D01*
G01X0047946Y-021019D01*
G01X0047900Y-021005D01*
G01X0047879Y-020999D01*
G01X0047818Y-020966D01*
G01X0047818Y-020966D01*
G01X0047804Y-020954D01*
G01X0047764Y-020921D01*
G01X0047731Y-020881D01*
G01X0047719Y-020867D01*
G01X0047716Y-020860D01*
G01X0047686Y-020806D01*
G01X0047680Y-020783D01*
G01X0047666Y-020739D01*
G01X0047659Y-020669D01*
G01X0047666Y-020600D01*
G01X0047686Y-020533D01*
G01X0047686Y-020533D01*
G01X0047719Y-020471D01*
G01X0047719Y-020471D01*
G01X0047731Y-020457D01*
G01X0047764Y-020417D01*
G01X0047804Y-020384D01*
G01X0047818Y-020373D01*
G01X0047825Y-020369D01*
G01X0047879Y-020340D01*
G01X0047902Y-020333D01*
G01X0047946Y-020320D01*
G01X0047972Y-020317D01*
G01X0047998Y-020315D01*
G01X0048033Y-020315D01*
G01X0048059Y-020317D01*
G01X0048059Y-020317D01*
G37*
G36*
G01X0049370Y-021024D02*
G01X0048661Y-021024D01*
G01X0048661Y-020315D01*
G01X0049370Y-020315D01*
G01X0049370Y-021024D01*
G01X0049370Y-021024D01*
G37*
G36*
G01X0055370Y-021024D02*
G01X0054661Y-021024D01*
G01X0054661Y-020315D01*
G01X0055370Y-020315D01*
G01X0055370Y-021024D01*
G01X0055370Y-021024D01*
G37*
G36*
G01X0053059Y-020317D02*
G01X0053085Y-020320D01*
G01X0053130Y-020333D01*
G01X0053152Y-020340D01*
G01X0053207Y-020369D01*
G01X0053214Y-020373D01*
G01X0053228Y-020384D01*
G01X0053268Y-020417D01*
G01X0053301Y-020457D01*
G01X0053312Y-020471D01*
G01X0053312Y-020471D01*
G01X0053345Y-020533D01*
G01X0053345Y-020533D01*
G01X0053365Y-020600D01*
G01X0053372Y-020669D01*
G01X0053365Y-020739D01*
G01X0053352Y-020783D01*
G01X0053345Y-020806D01*
G01X0053316Y-020860D01*
G01X0053312Y-020867D01*
G01X0053301Y-020881D01*
G01X0053268Y-020921D01*
G01X0053228Y-020954D01*
G01X0053214Y-020966D01*
G01X0053214Y-020966D01*
G01X0053152Y-020999D01*
G01X0053132Y-021005D01*
G01X0053085Y-021019D01*
G01X0053059Y-021021D01*
G01X0053033Y-021024D01*
G01X0052998Y-021024D01*
G01X0052972Y-021021D01*
G01X0052946Y-021019D01*
G01X0052900Y-021005D01*
G01X0052879Y-020999D01*
G01X0052818Y-020966D01*
G01X0052818Y-020966D01*
G01X0052804Y-020954D01*
G01X0052764Y-020921D01*
G01X0052731Y-020881D01*
G01X0052719Y-020867D01*
G01X0052716Y-020860D01*
G01X0052686Y-020806D01*
G01X0052680Y-020783D01*
G01X0052666Y-020739D01*
G01X0052659Y-020669D01*
G01X0052666Y-020600D01*
G01X0052686Y-020533D01*
G01X0052686Y-020533D01*
G01X0052719Y-020471D01*
G01X0052719Y-020471D01*
G01X0052731Y-020457D01*
G01X0052764Y-020417D01*
G01X0052804Y-020384D01*
G01X0052818Y-020373D01*
G01X0052825Y-020369D01*
G01X0052879Y-020340D01*
G01X0052902Y-020333D01*
G01X0052946Y-020320D01*
G01X0052972Y-020317D01*
G01X0052998Y-020315D01*
G01X0053033Y-020315D01*
G01X0053059Y-020317D01*
G01X0053059Y-020317D01*
G37*
G36*
G01X0052059Y-020317D02*
G01X0052085Y-020320D01*
G01X0052130Y-020333D01*
G01X0052152Y-020340D01*
G01X0052207Y-020369D01*
G01X0052214Y-020373D01*
G01X0052228Y-020384D01*
G01X0052268Y-020417D01*
G01X0052301Y-020457D01*
G01X0052312Y-020471D01*
G01X0052312Y-020471D01*
G01X0052345Y-020533D01*
G01X0052345Y-020533D01*
G01X0052365Y-020600D01*
G01X0052372Y-020669D01*
G01X0052365Y-020739D01*
G01X0052352Y-020783D01*
G01X0052345Y-020806D01*
G01X0052316Y-020860D01*
G01X0052312Y-020867D01*
G01X0052301Y-020881D01*
G01X0052268Y-020921D01*
G01X0052228Y-020954D01*
G01X0052214Y-020966D01*
G01X0052214Y-020966D01*
G01X0052152Y-020999D01*
G01X0052132Y-021005D01*
G01X0052085Y-021019D01*
G01X0052059Y-021021D01*
G01X0052033Y-021024D01*
G01X0051998Y-021024D01*
G01X0051972Y-021021D01*
G01X0051946Y-021019D01*
G01X0051900Y-021005D01*
G01X0051879Y-020999D01*
G01X0051818Y-020966D01*
G01X0051818Y-020966D01*
G01X0051804Y-020954D01*
G01X0051764Y-020921D01*
G01X0051731Y-020881D01*
G01X0051719Y-020867D01*
G01X0051716Y-020860D01*
G01X0051686Y-020806D01*
G01X0051680Y-020783D01*
G01X0051666Y-020739D01*
G01X0051659Y-020669D01*
G01X0051666Y-020600D01*
G01X0051686Y-020533D01*
G01X0051686Y-020533D01*
G01X0051719Y-020471D01*
G01X0051719Y-020471D01*
G01X0051731Y-020457D01*
G01X0051764Y-020417D01*
G01X0051804Y-020384D01*
G01X0051818Y-020373D01*
G01X0051825Y-020369D01*
G01X0051879Y-020340D01*
G01X0051902Y-020333D01*
G01X0051946Y-020320D01*
G01X0051972Y-020317D01*
G01X0051998Y-020315D01*
G01X0052033Y-020315D01*
G01X0052059Y-020317D01*
G01X0052059Y-020317D01*
G37*
M02*
