G04 #@! TF.GenerationSoftware,KiCad,Pcbnew,(5.0.1)*
G04 #@! TF.CreationDate,2018-11-29T09:51:47+09:00*
G04 #@! TF.ProjectId,securehid,7365637572656869642E6B696361645F,rev?*
G04 #@! TF.SameCoordinates,Original*
G04 #@! TF.FileFunction,Paste,Bot*
G04 #@! TF.FilePolarity,Positive*
%FSLAX46Y46*%
G04 Gerber Fmt 4.6, Leading zero omitted, Abs format (unit mm)*
G04 Created by KiCad (PCBNEW (5.0.1)) date Thu Nov 29 09:51:47 2018*
%MOMM*%
%LPD*%
G01*
G04 APERTURE LIST*
%ADD10R,1.350000X0.400000*%
%ADD11C,0.100000*%
%ADD12C,0.950000*%
%ADD13C,2.100000*%
%ADD14R,2.500000X2.100000*%
%ADD15R,1.500000X2.100000*%
%ADD16R,0.900000X0.800000*%
%ADD17R,0.800000X0.900000*%
%ADD18R,1.000000X2.750000*%
%ADD19C,1.600000*%
%ADD20R,3.600000X2.600000*%
G04 APERTURE END LIST*
D10*
G04 #@! TO.C,J1*
X159500000Y-82300000D03*
X159500000Y-81650000D03*
X159500000Y-79700000D03*
X159500000Y-80350000D03*
X159500000Y-81000000D03*
G04 #@! TD*
D11*
G04 #@! TO.C,R14*
G36*
X90435779Y-94776144D02*
X90458834Y-94779563D01*
X90481443Y-94785227D01*
X90503387Y-94793079D01*
X90524457Y-94803044D01*
X90544448Y-94815026D01*
X90563168Y-94828910D01*
X90580438Y-94844562D01*
X90596090Y-94861832D01*
X90609974Y-94880552D01*
X90621956Y-94900543D01*
X90631921Y-94921613D01*
X90639773Y-94943557D01*
X90645437Y-94966166D01*
X90648856Y-94989221D01*
X90650000Y-95012500D01*
X90650000Y-95487500D01*
X90648856Y-95510779D01*
X90645437Y-95533834D01*
X90639773Y-95556443D01*
X90631921Y-95578387D01*
X90621956Y-95599457D01*
X90609974Y-95619448D01*
X90596090Y-95638168D01*
X90580438Y-95655438D01*
X90563168Y-95671090D01*
X90544448Y-95684974D01*
X90524457Y-95696956D01*
X90503387Y-95706921D01*
X90481443Y-95714773D01*
X90458834Y-95720437D01*
X90435779Y-95723856D01*
X90412500Y-95725000D01*
X89837500Y-95725000D01*
X89814221Y-95723856D01*
X89791166Y-95720437D01*
X89768557Y-95714773D01*
X89746613Y-95706921D01*
X89725543Y-95696956D01*
X89705552Y-95684974D01*
X89686832Y-95671090D01*
X89669562Y-95655438D01*
X89653910Y-95638168D01*
X89640026Y-95619448D01*
X89628044Y-95599457D01*
X89618079Y-95578387D01*
X89610227Y-95556443D01*
X89604563Y-95533834D01*
X89601144Y-95510779D01*
X89600000Y-95487500D01*
X89600000Y-95012500D01*
X89601144Y-94989221D01*
X89604563Y-94966166D01*
X89610227Y-94943557D01*
X89618079Y-94921613D01*
X89628044Y-94900543D01*
X89640026Y-94880552D01*
X89653910Y-94861832D01*
X89669562Y-94844562D01*
X89686832Y-94828910D01*
X89705552Y-94815026D01*
X89725543Y-94803044D01*
X89746613Y-94793079D01*
X89768557Y-94785227D01*
X89791166Y-94779563D01*
X89814221Y-94776144D01*
X89837500Y-94775000D01*
X90412500Y-94775000D01*
X90435779Y-94776144D01*
X90435779Y-94776144D01*
G37*
D12*
X90125000Y-95250000D03*
D11*
G36*
X88685779Y-94776144D02*
X88708834Y-94779563D01*
X88731443Y-94785227D01*
X88753387Y-94793079D01*
X88774457Y-94803044D01*
X88794448Y-94815026D01*
X88813168Y-94828910D01*
X88830438Y-94844562D01*
X88846090Y-94861832D01*
X88859974Y-94880552D01*
X88871956Y-94900543D01*
X88881921Y-94921613D01*
X88889773Y-94943557D01*
X88895437Y-94966166D01*
X88898856Y-94989221D01*
X88900000Y-95012500D01*
X88900000Y-95487500D01*
X88898856Y-95510779D01*
X88895437Y-95533834D01*
X88889773Y-95556443D01*
X88881921Y-95578387D01*
X88871956Y-95599457D01*
X88859974Y-95619448D01*
X88846090Y-95638168D01*
X88830438Y-95655438D01*
X88813168Y-95671090D01*
X88794448Y-95684974D01*
X88774457Y-95696956D01*
X88753387Y-95706921D01*
X88731443Y-95714773D01*
X88708834Y-95720437D01*
X88685779Y-95723856D01*
X88662500Y-95725000D01*
X88087500Y-95725000D01*
X88064221Y-95723856D01*
X88041166Y-95720437D01*
X88018557Y-95714773D01*
X87996613Y-95706921D01*
X87975543Y-95696956D01*
X87955552Y-95684974D01*
X87936832Y-95671090D01*
X87919562Y-95655438D01*
X87903910Y-95638168D01*
X87890026Y-95619448D01*
X87878044Y-95599457D01*
X87868079Y-95578387D01*
X87860227Y-95556443D01*
X87854563Y-95533834D01*
X87851144Y-95510779D01*
X87850000Y-95487500D01*
X87850000Y-95012500D01*
X87851144Y-94989221D01*
X87854563Y-94966166D01*
X87860227Y-94943557D01*
X87868079Y-94921613D01*
X87878044Y-94900543D01*
X87890026Y-94880552D01*
X87903910Y-94861832D01*
X87919562Y-94844562D01*
X87936832Y-94828910D01*
X87955552Y-94815026D01*
X87975543Y-94803044D01*
X87996613Y-94793079D01*
X88018557Y-94785227D01*
X88041166Y-94779563D01*
X88064221Y-94776144D01*
X88087500Y-94775000D01*
X88662500Y-94775000D01*
X88685779Y-94776144D01*
X88685779Y-94776144D01*
G37*
D12*
X88375000Y-95250000D03*
G04 #@! TD*
D11*
G04 #@! TO.C,C9*
G36*
X161874504Y-93051204D02*
X161898773Y-93054804D01*
X161922571Y-93060765D01*
X161945671Y-93069030D01*
X161967849Y-93079520D01*
X161988893Y-93092133D01*
X162008598Y-93106747D01*
X162026777Y-93123223D01*
X162043253Y-93141402D01*
X162057867Y-93161107D01*
X162070480Y-93182151D01*
X162080970Y-93204329D01*
X162089235Y-93227429D01*
X162095196Y-93251227D01*
X162098796Y-93275496D01*
X162100000Y-93300000D01*
X162100000Y-94900000D01*
X162098796Y-94924504D01*
X162095196Y-94948773D01*
X162089235Y-94972571D01*
X162080970Y-94995671D01*
X162070480Y-95017849D01*
X162057867Y-95038893D01*
X162043253Y-95058598D01*
X162026777Y-95076777D01*
X162008598Y-95093253D01*
X161988893Y-95107867D01*
X161967849Y-95120480D01*
X161945671Y-95130970D01*
X161922571Y-95139235D01*
X161898773Y-95145196D01*
X161874504Y-95148796D01*
X161850000Y-95150000D01*
X157750000Y-95150000D01*
X157725496Y-95148796D01*
X157701227Y-95145196D01*
X157677429Y-95139235D01*
X157654329Y-95130970D01*
X157632151Y-95120480D01*
X157611107Y-95107867D01*
X157591402Y-95093253D01*
X157573223Y-95076777D01*
X157556747Y-95058598D01*
X157542133Y-95038893D01*
X157529520Y-95017849D01*
X157519030Y-94995671D01*
X157510765Y-94972571D01*
X157504804Y-94948773D01*
X157501204Y-94924504D01*
X157500000Y-94900000D01*
X157500000Y-93300000D01*
X157501204Y-93275496D01*
X157504804Y-93251227D01*
X157510765Y-93227429D01*
X157519030Y-93204329D01*
X157529520Y-93182151D01*
X157542133Y-93161107D01*
X157556747Y-93141402D01*
X157573223Y-93123223D01*
X157591402Y-93106747D01*
X157611107Y-93092133D01*
X157632151Y-93079520D01*
X157654329Y-93069030D01*
X157677429Y-93060765D01*
X157701227Y-93054804D01*
X157725496Y-93051204D01*
X157750000Y-93050000D01*
X161850000Y-93050000D01*
X161874504Y-93051204D01*
X161874504Y-93051204D01*
G37*
D13*
X159800000Y-94100000D03*
D11*
G36*
X153074504Y-93051204D02*
X153098773Y-93054804D01*
X153122571Y-93060765D01*
X153145671Y-93069030D01*
X153167849Y-93079520D01*
X153188893Y-93092133D01*
X153208598Y-93106747D01*
X153226777Y-93123223D01*
X153243253Y-93141402D01*
X153257867Y-93161107D01*
X153270480Y-93182151D01*
X153280970Y-93204329D01*
X153289235Y-93227429D01*
X153295196Y-93251227D01*
X153298796Y-93275496D01*
X153300000Y-93300000D01*
X153300000Y-94900000D01*
X153298796Y-94924504D01*
X153295196Y-94948773D01*
X153289235Y-94972571D01*
X153280970Y-94995671D01*
X153270480Y-95017849D01*
X153257867Y-95038893D01*
X153243253Y-95058598D01*
X153226777Y-95076777D01*
X153208598Y-95093253D01*
X153188893Y-95107867D01*
X153167849Y-95120480D01*
X153145671Y-95130970D01*
X153122571Y-95139235D01*
X153098773Y-95145196D01*
X153074504Y-95148796D01*
X153050000Y-95150000D01*
X148950000Y-95150000D01*
X148925496Y-95148796D01*
X148901227Y-95145196D01*
X148877429Y-95139235D01*
X148854329Y-95130970D01*
X148832151Y-95120480D01*
X148811107Y-95107867D01*
X148791402Y-95093253D01*
X148773223Y-95076777D01*
X148756747Y-95058598D01*
X148742133Y-95038893D01*
X148729520Y-95017849D01*
X148719030Y-94995671D01*
X148710765Y-94972571D01*
X148704804Y-94948773D01*
X148701204Y-94924504D01*
X148700000Y-94900000D01*
X148700000Y-93300000D01*
X148701204Y-93275496D01*
X148704804Y-93251227D01*
X148710765Y-93227429D01*
X148719030Y-93204329D01*
X148729520Y-93182151D01*
X148742133Y-93161107D01*
X148756747Y-93141402D01*
X148773223Y-93123223D01*
X148791402Y-93106747D01*
X148811107Y-93092133D01*
X148832151Y-93079520D01*
X148854329Y-93069030D01*
X148877429Y-93060765D01*
X148901227Y-93054804D01*
X148925496Y-93051204D01*
X148950000Y-93050000D01*
X153050000Y-93050000D01*
X153074504Y-93051204D01*
X153074504Y-93051204D01*
G37*
D13*
X151000000Y-94100000D03*
G04 #@! TD*
D11*
G04 #@! TO.C,C5*
G36*
X75110779Y-84726144D02*
X75133834Y-84729563D01*
X75156443Y-84735227D01*
X75178387Y-84743079D01*
X75199457Y-84753044D01*
X75219448Y-84765026D01*
X75238168Y-84778910D01*
X75255438Y-84794562D01*
X75271090Y-84811832D01*
X75284974Y-84830552D01*
X75296956Y-84850543D01*
X75306921Y-84871613D01*
X75314773Y-84893557D01*
X75320437Y-84916166D01*
X75323856Y-84939221D01*
X75325000Y-84962500D01*
X75325000Y-85437500D01*
X75323856Y-85460779D01*
X75320437Y-85483834D01*
X75314773Y-85506443D01*
X75306921Y-85528387D01*
X75296956Y-85549457D01*
X75284974Y-85569448D01*
X75271090Y-85588168D01*
X75255438Y-85605438D01*
X75238168Y-85621090D01*
X75219448Y-85634974D01*
X75199457Y-85646956D01*
X75178387Y-85656921D01*
X75156443Y-85664773D01*
X75133834Y-85670437D01*
X75110779Y-85673856D01*
X75087500Y-85675000D01*
X74512500Y-85675000D01*
X74489221Y-85673856D01*
X74466166Y-85670437D01*
X74443557Y-85664773D01*
X74421613Y-85656921D01*
X74400543Y-85646956D01*
X74380552Y-85634974D01*
X74361832Y-85621090D01*
X74344562Y-85605438D01*
X74328910Y-85588168D01*
X74315026Y-85569448D01*
X74303044Y-85549457D01*
X74293079Y-85528387D01*
X74285227Y-85506443D01*
X74279563Y-85483834D01*
X74276144Y-85460779D01*
X74275000Y-85437500D01*
X74275000Y-84962500D01*
X74276144Y-84939221D01*
X74279563Y-84916166D01*
X74285227Y-84893557D01*
X74293079Y-84871613D01*
X74303044Y-84850543D01*
X74315026Y-84830552D01*
X74328910Y-84811832D01*
X74344562Y-84794562D01*
X74361832Y-84778910D01*
X74380552Y-84765026D01*
X74400543Y-84753044D01*
X74421613Y-84743079D01*
X74443557Y-84735227D01*
X74466166Y-84729563D01*
X74489221Y-84726144D01*
X74512500Y-84725000D01*
X75087500Y-84725000D01*
X75110779Y-84726144D01*
X75110779Y-84726144D01*
G37*
D12*
X74800000Y-85200000D03*
D11*
G36*
X76860779Y-84726144D02*
X76883834Y-84729563D01*
X76906443Y-84735227D01*
X76928387Y-84743079D01*
X76949457Y-84753044D01*
X76969448Y-84765026D01*
X76988168Y-84778910D01*
X77005438Y-84794562D01*
X77021090Y-84811832D01*
X77034974Y-84830552D01*
X77046956Y-84850543D01*
X77056921Y-84871613D01*
X77064773Y-84893557D01*
X77070437Y-84916166D01*
X77073856Y-84939221D01*
X77075000Y-84962500D01*
X77075000Y-85437500D01*
X77073856Y-85460779D01*
X77070437Y-85483834D01*
X77064773Y-85506443D01*
X77056921Y-85528387D01*
X77046956Y-85549457D01*
X77034974Y-85569448D01*
X77021090Y-85588168D01*
X77005438Y-85605438D01*
X76988168Y-85621090D01*
X76969448Y-85634974D01*
X76949457Y-85646956D01*
X76928387Y-85656921D01*
X76906443Y-85664773D01*
X76883834Y-85670437D01*
X76860779Y-85673856D01*
X76837500Y-85675000D01*
X76262500Y-85675000D01*
X76239221Y-85673856D01*
X76216166Y-85670437D01*
X76193557Y-85664773D01*
X76171613Y-85656921D01*
X76150543Y-85646956D01*
X76130552Y-85634974D01*
X76111832Y-85621090D01*
X76094562Y-85605438D01*
X76078910Y-85588168D01*
X76065026Y-85569448D01*
X76053044Y-85549457D01*
X76043079Y-85528387D01*
X76035227Y-85506443D01*
X76029563Y-85483834D01*
X76026144Y-85460779D01*
X76025000Y-85437500D01*
X76025000Y-84962500D01*
X76026144Y-84939221D01*
X76029563Y-84916166D01*
X76035227Y-84893557D01*
X76043079Y-84871613D01*
X76053044Y-84850543D01*
X76065026Y-84830552D01*
X76078910Y-84811832D01*
X76094562Y-84794562D01*
X76111832Y-84778910D01*
X76130552Y-84765026D01*
X76150543Y-84753044D01*
X76171613Y-84743079D01*
X76193557Y-84735227D01*
X76216166Y-84729563D01*
X76239221Y-84726144D01*
X76262500Y-84725000D01*
X76837500Y-84725000D01*
X76860779Y-84726144D01*
X76860779Y-84726144D01*
G37*
D12*
X76550000Y-85200000D03*
G04 #@! TD*
D11*
G04 #@! TO.C,C6*
G36*
X88985779Y-83926144D02*
X89008834Y-83929563D01*
X89031443Y-83935227D01*
X89053387Y-83943079D01*
X89074457Y-83953044D01*
X89094448Y-83965026D01*
X89113168Y-83978910D01*
X89130438Y-83994562D01*
X89146090Y-84011832D01*
X89159974Y-84030552D01*
X89171956Y-84050543D01*
X89181921Y-84071613D01*
X89189773Y-84093557D01*
X89195437Y-84116166D01*
X89198856Y-84139221D01*
X89200000Y-84162500D01*
X89200000Y-84637500D01*
X89198856Y-84660779D01*
X89195437Y-84683834D01*
X89189773Y-84706443D01*
X89181921Y-84728387D01*
X89171956Y-84749457D01*
X89159974Y-84769448D01*
X89146090Y-84788168D01*
X89130438Y-84805438D01*
X89113168Y-84821090D01*
X89094448Y-84834974D01*
X89074457Y-84846956D01*
X89053387Y-84856921D01*
X89031443Y-84864773D01*
X89008834Y-84870437D01*
X88985779Y-84873856D01*
X88962500Y-84875000D01*
X88387500Y-84875000D01*
X88364221Y-84873856D01*
X88341166Y-84870437D01*
X88318557Y-84864773D01*
X88296613Y-84856921D01*
X88275543Y-84846956D01*
X88255552Y-84834974D01*
X88236832Y-84821090D01*
X88219562Y-84805438D01*
X88203910Y-84788168D01*
X88190026Y-84769448D01*
X88178044Y-84749457D01*
X88168079Y-84728387D01*
X88160227Y-84706443D01*
X88154563Y-84683834D01*
X88151144Y-84660779D01*
X88150000Y-84637500D01*
X88150000Y-84162500D01*
X88151144Y-84139221D01*
X88154563Y-84116166D01*
X88160227Y-84093557D01*
X88168079Y-84071613D01*
X88178044Y-84050543D01*
X88190026Y-84030552D01*
X88203910Y-84011832D01*
X88219562Y-83994562D01*
X88236832Y-83978910D01*
X88255552Y-83965026D01*
X88275543Y-83953044D01*
X88296613Y-83943079D01*
X88318557Y-83935227D01*
X88341166Y-83929563D01*
X88364221Y-83926144D01*
X88387500Y-83925000D01*
X88962500Y-83925000D01*
X88985779Y-83926144D01*
X88985779Y-83926144D01*
G37*
D12*
X88675000Y-84400000D03*
D11*
G36*
X87235779Y-83926144D02*
X87258834Y-83929563D01*
X87281443Y-83935227D01*
X87303387Y-83943079D01*
X87324457Y-83953044D01*
X87344448Y-83965026D01*
X87363168Y-83978910D01*
X87380438Y-83994562D01*
X87396090Y-84011832D01*
X87409974Y-84030552D01*
X87421956Y-84050543D01*
X87431921Y-84071613D01*
X87439773Y-84093557D01*
X87445437Y-84116166D01*
X87448856Y-84139221D01*
X87450000Y-84162500D01*
X87450000Y-84637500D01*
X87448856Y-84660779D01*
X87445437Y-84683834D01*
X87439773Y-84706443D01*
X87431921Y-84728387D01*
X87421956Y-84749457D01*
X87409974Y-84769448D01*
X87396090Y-84788168D01*
X87380438Y-84805438D01*
X87363168Y-84821090D01*
X87344448Y-84834974D01*
X87324457Y-84846956D01*
X87303387Y-84856921D01*
X87281443Y-84864773D01*
X87258834Y-84870437D01*
X87235779Y-84873856D01*
X87212500Y-84875000D01*
X86637500Y-84875000D01*
X86614221Y-84873856D01*
X86591166Y-84870437D01*
X86568557Y-84864773D01*
X86546613Y-84856921D01*
X86525543Y-84846956D01*
X86505552Y-84834974D01*
X86486832Y-84821090D01*
X86469562Y-84805438D01*
X86453910Y-84788168D01*
X86440026Y-84769448D01*
X86428044Y-84749457D01*
X86418079Y-84728387D01*
X86410227Y-84706443D01*
X86404563Y-84683834D01*
X86401144Y-84660779D01*
X86400000Y-84637500D01*
X86400000Y-84162500D01*
X86401144Y-84139221D01*
X86404563Y-84116166D01*
X86410227Y-84093557D01*
X86418079Y-84071613D01*
X86428044Y-84050543D01*
X86440026Y-84030552D01*
X86453910Y-84011832D01*
X86469562Y-83994562D01*
X86486832Y-83978910D01*
X86505552Y-83965026D01*
X86525543Y-83953044D01*
X86546613Y-83943079D01*
X86568557Y-83935227D01*
X86591166Y-83929563D01*
X86614221Y-83926144D01*
X86637500Y-83925000D01*
X87212500Y-83925000D01*
X87235779Y-83926144D01*
X87235779Y-83926144D01*
G37*
D12*
X86925000Y-84400000D03*
G04 #@! TD*
D11*
G04 #@! TO.C,C7*
G36*
X88935779Y-79776144D02*
X88958834Y-79779563D01*
X88981443Y-79785227D01*
X89003387Y-79793079D01*
X89024457Y-79803044D01*
X89044448Y-79815026D01*
X89063168Y-79828910D01*
X89080438Y-79844562D01*
X89096090Y-79861832D01*
X89109974Y-79880552D01*
X89121956Y-79900543D01*
X89131921Y-79921613D01*
X89139773Y-79943557D01*
X89145437Y-79966166D01*
X89148856Y-79989221D01*
X89150000Y-80012500D01*
X89150000Y-80487500D01*
X89148856Y-80510779D01*
X89145437Y-80533834D01*
X89139773Y-80556443D01*
X89131921Y-80578387D01*
X89121956Y-80599457D01*
X89109974Y-80619448D01*
X89096090Y-80638168D01*
X89080438Y-80655438D01*
X89063168Y-80671090D01*
X89044448Y-80684974D01*
X89024457Y-80696956D01*
X89003387Y-80706921D01*
X88981443Y-80714773D01*
X88958834Y-80720437D01*
X88935779Y-80723856D01*
X88912500Y-80725000D01*
X88337500Y-80725000D01*
X88314221Y-80723856D01*
X88291166Y-80720437D01*
X88268557Y-80714773D01*
X88246613Y-80706921D01*
X88225543Y-80696956D01*
X88205552Y-80684974D01*
X88186832Y-80671090D01*
X88169562Y-80655438D01*
X88153910Y-80638168D01*
X88140026Y-80619448D01*
X88128044Y-80599457D01*
X88118079Y-80578387D01*
X88110227Y-80556443D01*
X88104563Y-80533834D01*
X88101144Y-80510779D01*
X88100000Y-80487500D01*
X88100000Y-80012500D01*
X88101144Y-79989221D01*
X88104563Y-79966166D01*
X88110227Y-79943557D01*
X88118079Y-79921613D01*
X88128044Y-79900543D01*
X88140026Y-79880552D01*
X88153910Y-79861832D01*
X88169562Y-79844562D01*
X88186832Y-79828910D01*
X88205552Y-79815026D01*
X88225543Y-79803044D01*
X88246613Y-79793079D01*
X88268557Y-79785227D01*
X88291166Y-79779563D01*
X88314221Y-79776144D01*
X88337500Y-79775000D01*
X88912500Y-79775000D01*
X88935779Y-79776144D01*
X88935779Y-79776144D01*
G37*
D12*
X88625000Y-80250000D03*
D11*
G36*
X87185779Y-79776144D02*
X87208834Y-79779563D01*
X87231443Y-79785227D01*
X87253387Y-79793079D01*
X87274457Y-79803044D01*
X87294448Y-79815026D01*
X87313168Y-79828910D01*
X87330438Y-79844562D01*
X87346090Y-79861832D01*
X87359974Y-79880552D01*
X87371956Y-79900543D01*
X87381921Y-79921613D01*
X87389773Y-79943557D01*
X87395437Y-79966166D01*
X87398856Y-79989221D01*
X87400000Y-80012500D01*
X87400000Y-80487500D01*
X87398856Y-80510779D01*
X87395437Y-80533834D01*
X87389773Y-80556443D01*
X87381921Y-80578387D01*
X87371956Y-80599457D01*
X87359974Y-80619448D01*
X87346090Y-80638168D01*
X87330438Y-80655438D01*
X87313168Y-80671090D01*
X87294448Y-80684974D01*
X87274457Y-80696956D01*
X87253387Y-80706921D01*
X87231443Y-80714773D01*
X87208834Y-80720437D01*
X87185779Y-80723856D01*
X87162500Y-80725000D01*
X86587500Y-80725000D01*
X86564221Y-80723856D01*
X86541166Y-80720437D01*
X86518557Y-80714773D01*
X86496613Y-80706921D01*
X86475543Y-80696956D01*
X86455552Y-80684974D01*
X86436832Y-80671090D01*
X86419562Y-80655438D01*
X86403910Y-80638168D01*
X86390026Y-80619448D01*
X86378044Y-80599457D01*
X86368079Y-80578387D01*
X86360227Y-80556443D01*
X86354563Y-80533834D01*
X86351144Y-80510779D01*
X86350000Y-80487500D01*
X86350000Y-80012500D01*
X86351144Y-79989221D01*
X86354563Y-79966166D01*
X86360227Y-79943557D01*
X86368079Y-79921613D01*
X86378044Y-79900543D01*
X86390026Y-79880552D01*
X86403910Y-79861832D01*
X86419562Y-79844562D01*
X86436832Y-79828910D01*
X86455552Y-79815026D01*
X86475543Y-79803044D01*
X86496613Y-79793079D01*
X86518557Y-79785227D01*
X86541166Y-79779563D01*
X86564221Y-79776144D01*
X86587500Y-79775000D01*
X87162500Y-79775000D01*
X87185779Y-79776144D01*
X87185779Y-79776144D01*
G37*
D12*
X86875000Y-80250000D03*
G04 #@! TD*
D11*
G04 #@! TO.C,C8*
G36*
X89260779Y-75601144D02*
X89283834Y-75604563D01*
X89306443Y-75610227D01*
X89328387Y-75618079D01*
X89349457Y-75628044D01*
X89369448Y-75640026D01*
X89388168Y-75653910D01*
X89405438Y-75669562D01*
X89421090Y-75686832D01*
X89434974Y-75705552D01*
X89446956Y-75725543D01*
X89456921Y-75746613D01*
X89464773Y-75768557D01*
X89470437Y-75791166D01*
X89473856Y-75814221D01*
X89475000Y-75837500D01*
X89475000Y-76412500D01*
X89473856Y-76435779D01*
X89470437Y-76458834D01*
X89464773Y-76481443D01*
X89456921Y-76503387D01*
X89446956Y-76524457D01*
X89434974Y-76544448D01*
X89421090Y-76563168D01*
X89405438Y-76580438D01*
X89388168Y-76596090D01*
X89369448Y-76609974D01*
X89349457Y-76621956D01*
X89328387Y-76631921D01*
X89306443Y-76639773D01*
X89283834Y-76645437D01*
X89260779Y-76648856D01*
X89237500Y-76650000D01*
X88762500Y-76650000D01*
X88739221Y-76648856D01*
X88716166Y-76645437D01*
X88693557Y-76639773D01*
X88671613Y-76631921D01*
X88650543Y-76621956D01*
X88630552Y-76609974D01*
X88611832Y-76596090D01*
X88594562Y-76580438D01*
X88578910Y-76563168D01*
X88565026Y-76544448D01*
X88553044Y-76524457D01*
X88543079Y-76503387D01*
X88535227Y-76481443D01*
X88529563Y-76458834D01*
X88526144Y-76435779D01*
X88525000Y-76412500D01*
X88525000Y-75837500D01*
X88526144Y-75814221D01*
X88529563Y-75791166D01*
X88535227Y-75768557D01*
X88543079Y-75746613D01*
X88553044Y-75725543D01*
X88565026Y-75705552D01*
X88578910Y-75686832D01*
X88594562Y-75669562D01*
X88611832Y-75653910D01*
X88630552Y-75640026D01*
X88650543Y-75628044D01*
X88671613Y-75618079D01*
X88693557Y-75610227D01*
X88716166Y-75604563D01*
X88739221Y-75601144D01*
X88762500Y-75600000D01*
X89237500Y-75600000D01*
X89260779Y-75601144D01*
X89260779Y-75601144D01*
G37*
D12*
X89000000Y-76125000D03*
D11*
G36*
X89260779Y-77351144D02*
X89283834Y-77354563D01*
X89306443Y-77360227D01*
X89328387Y-77368079D01*
X89349457Y-77378044D01*
X89369448Y-77390026D01*
X89388168Y-77403910D01*
X89405438Y-77419562D01*
X89421090Y-77436832D01*
X89434974Y-77455552D01*
X89446956Y-77475543D01*
X89456921Y-77496613D01*
X89464773Y-77518557D01*
X89470437Y-77541166D01*
X89473856Y-77564221D01*
X89475000Y-77587500D01*
X89475000Y-78162500D01*
X89473856Y-78185779D01*
X89470437Y-78208834D01*
X89464773Y-78231443D01*
X89456921Y-78253387D01*
X89446956Y-78274457D01*
X89434974Y-78294448D01*
X89421090Y-78313168D01*
X89405438Y-78330438D01*
X89388168Y-78346090D01*
X89369448Y-78359974D01*
X89349457Y-78371956D01*
X89328387Y-78381921D01*
X89306443Y-78389773D01*
X89283834Y-78395437D01*
X89260779Y-78398856D01*
X89237500Y-78400000D01*
X88762500Y-78400000D01*
X88739221Y-78398856D01*
X88716166Y-78395437D01*
X88693557Y-78389773D01*
X88671613Y-78381921D01*
X88650543Y-78371956D01*
X88630552Y-78359974D01*
X88611832Y-78346090D01*
X88594562Y-78330438D01*
X88578910Y-78313168D01*
X88565026Y-78294448D01*
X88553044Y-78274457D01*
X88543079Y-78253387D01*
X88535227Y-78231443D01*
X88529563Y-78208834D01*
X88526144Y-78185779D01*
X88525000Y-78162500D01*
X88525000Y-77587500D01*
X88526144Y-77564221D01*
X88529563Y-77541166D01*
X88535227Y-77518557D01*
X88543079Y-77496613D01*
X88553044Y-77475543D01*
X88565026Y-77455552D01*
X88578910Y-77436832D01*
X88594562Y-77419562D01*
X88611832Y-77403910D01*
X88630552Y-77390026D01*
X88650543Y-77378044D01*
X88671613Y-77368079D01*
X88693557Y-77360227D01*
X88716166Y-77354563D01*
X88739221Y-77351144D01*
X88762500Y-77350000D01*
X89237500Y-77350000D01*
X89260779Y-77351144D01*
X89260779Y-77351144D01*
G37*
D12*
X89000000Y-77875000D03*
G04 #@! TD*
D11*
G04 #@! TO.C,C10*
G36*
X82535779Y-108476144D02*
X82558834Y-108479563D01*
X82581443Y-108485227D01*
X82603387Y-108493079D01*
X82624457Y-108503044D01*
X82644448Y-108515026D01*
X82663168Y-108528910D01*
X82680438Y-108544562D01*
X82696090Y-108561832D01*
X82709974Y-108580552D01*
X82721956Y-108600543D01*
X82731921Y-108621613D01*
X82739773Y-108643557D01*
X82745437Y-108666166D01*
X82748856Y-108689221D01*
X82750000Y-108712500D01*
X82750000Y-109187500D01*
X82748856Y-109210779D01*
X82745437Y-109233834D01*
X82739773Y-109256443D01*
X82731921Y-109278387D01*
X82721956Y-109299457D01*
X82709974Y-109319448D01*
X82696090Y-109338168D01*
X82680438Y-109355438D01*
X82663168Y-109371090D01*
X82644448Y-109384974D01*
X82624457Y-109396956D01*
X82603387Y-109406921D01*
X82581443Y-109414773D01*
X82558834Y-109420437D01*
X82535779Y-109423856D01*
X82512500Y-109425000D01*
X81937500Y-109425000D01*
X81914221Y-109423856D01*
X81891166Y-109420437D01*
X81868557Y-109414773D01*
X81846613Y-109406921D01*
X81825543Y-109396956D01*
X81805552Y-109384974D01*
X81786832Y-109371090D01*
X81769562Y-109355438D01*
X81753910Y-109338168D01*
X81740026Y-109319448D01*
X81728044Y-109299457D01*
X81718079Y-109278387D01*
X81710227Y-109256443D01*
X81704563Y-109233834D01*
X81701144Y-109210779D01*
X81700000Y-109187500D01*
X81700000Y-108712500D01*
X81701144Y-108689221D01*
X81704563Y-108666166D01*
X81710227Y-108643557D01*
X81718079Y-108621613D01*
X81728044Y-108600543D01*
X81740026Y-108580552D01*
X81753910Y-108561832D01*
X81769562Y-108544562D01*
X81786832Y-108528910D01*
X81805552Y-108515026D01*
X81825543Y-108503044D01*
X81846613Y-108493079D01*
X81868557Y-108485227D01*
X81891166Y-108479563D01*
X81914221Y-108476144D01*
X81937500Y-108475000D01*
X82512500Y-108475000D01*
X82535779Y-108476144D01*
X82535779Y-108476144D01*
G37*
D12*
X82225000Y-108950000D03*
D11*
G36*
X84285779Y-108476144D02*
X84308834Y-108479563D01*
X84331443Y-108485227D01*
X84353387Y-108493079D01*
X84374457Y-108503044D01*
X84394448Y-108515026D01*
X84413168Y-108528910D01*
X84430438Y-108544562D01*
X84446090Y-108561832D01*
X84459974Y-108580552D01*
X84471956Y-108600543D01*
X84481921Y-108621613D01*
X84489773Y-108643557D01*
X84495437Y-108666166D01*
X84498856Y-108689221D01*
X84500000Y-108712500D01*
X84500000Y-109187500D01*
X84498856Y-109210779D01*
X84495437Y-109233834D01*
X84489773Y-109256443D01*
X84481921Y-109278387D01*
X84471956Y-109299457D01*
X84459974Y-109319448D01*
X84446090Y-109338168D01*
X84430438Y-109355438D01*
X84413168Y-109371090D01*
X84394448Y-109384974D01*
X84374457Y-109396956D01*
X84353387Y-109406921D01*
X84331443Y-109414773D01*
X84308834Y-109420437D01*
X84285779Y-109423856D01*
X84262500Y-109425000D01*
X83687500Y-109425000D01*
X83664221Y-109423856D01*
X83641166Y-109420437D01*
X83618557Y-109414773D01*
X83596613Y-109406921D01*
X83575543Y-109396956D01*
X83555552Y-109384974D01*
X83536832Y-109371090D01*
X83519562Y-109355438D01*
X83503910Y-109338168D01*
X83490026Y-109319448D01*
X83478044Y-109299457D01*
X83468079Y-109278387D01*
X83460227Y-109256443D01*
X83454563Y-109233834D01*
X83451144Y-109210779D01*
X83450000Y-109187500D01*
X83450000Y-108712500D01*
X83451144Y-108689221D01*
X83454563Y-108666166D01*
X83460227Y-108643557D01*
X83468079Y-108621613D01*
X83478044Y-108600543D01*
X83490026Y-108580552D01*
X83503910Y-108561832D01*
X83519562Y-108544562D01*
X83536832Y-108528910D01*
X83555552Y-108515026D01*
X83575543Y-108503044D01*
X83596613Y-108493079D01*
X83618557Y-108485227D01*
X83641166Y-108479563D01*
X83664221Y-108476144D01*
X83687500Y-108475000D01*
X84262500Y-108475000D01*
X84285779Y-108476144D01*
X84285779Y-108476144D01*
G37*
D12*
X83975000Y-108950000D03*
G04 #@! TD*
D11*
G04 #@! TO.C,D1*
G36*
X92185779Y-56776144D02*
X92208834Y-56779563D01*
X92231443Y-56785227D01*
X92253387Y-56793079D01*
X92274457Y-56803044D01*
X92294448Y-56815026D01*
X92313168Y-56828910D01*
X92330438Y-56844562D01*
X92346090Y-56861832D01*
X92359974Y-56880552D01*
X92371956Y-56900543D01*
X92381921Y-56921613D01*
X92389773Y-56943557D01*
X92395437Y-56966166D01*
X92398856Y-56989221D01*
X92400000Y-57012500D01*
X92400000Y-57487500D01*
X92398856Y-57510779D01*
X92395437Y-57533834D01*
X92389773Y-57556443D01*
X92381921Y-57578387D01*
X92371956Y-57599457D01*
X92359974Y-57619448D01*
X92346090Y-57638168D01*
X92330438Y-57655438D01*
X92313168Y-57671090D01*
X92294448Y-57684974D01*
X92274457Y-57696956D01*
X92253387Y-57706921D01*
X92231443Y-57714773D01*
X92208834Y-57720437D01*
X92185779Y-57723856D01*
X92162500Y-57725000D01*
X91587500Y-57725000D01*
X91564221Y-57723856D01*
X91541166Y-57720437D01*
X91518557Y-57714773D01*
X91496613Y-57706921D01*
X91475543Y-57696956D01*
X91455552Y-57684974D01*
X91436832Y-57671090D01*
X91419562Y-57655438D01*
X91403910Y-57638168D01*
X91390026Y-57619448D01*
X91378044Y-57599457D01*
X91368079Y-57578387D01*
X91360227Y-57556443D01*
X91354563Y-57533834D01*
X91351144Y-57510779D01*
X91350000Y-57487500D01*
X91350000Y-57012500D01*
X91351144Y-56989221D01*
X91354563Y-56966166D01*
X91360227Y-56943557D01*
X91368079Y-56921613D01*
X91378044Y-56900543D01*
X91390026Y-56880552D01*
X91403910Y-56861832D01*
X91419562Y-56844562D01*
X91436832Y-56828910D01*
X91455552Y-56815026D01*
X91475543Y-56803044D01*
X91496613Y-56793079D01*
X91518557Y-56785227D01*
X91541166Y-56779563D01*
X91564221Y-56776144D01*
X91587500Y-56775000D01*
X92162500Y-56775000D01*
X92185779Y-56776144D01*
X92185779Y-56776144D01*
G37*
D12*
X91875000Y-57250000D03*
D11*
G36*
X93935779Y-56776144D02*
X93958834Y-56779563D01*
X93981443Y-56785227D01*
X94003387Y-56793079D01*
X94024457Y-56803044D01*
X94044448Y-56815026D01*
X94063168Y-56828910D01*
X94080438Y-56844562D01*
X94096090Y-56861832D01*
X94109974Y-56880552D01*
X94121956Y-56900543D01*
X94131921Y-56921613D01*
X94139773Y-56943557D01*
X94145437Y-56966166D01*
X94148856Y-56989221D01*
X94150000Y-57012500D01*
X94150000Y-57487500D01*
X94148856Y-57510779D01*
X94145437Y-57533834D01*
X94139773Y-57556443D01*
X94131921Y-57578387D01*
X94121956Y-57599457D01*
X94109974Y-57619448D01*
X94096090Y-57638168D01*
X94080438Y-57655438D01*
X94063168Y-57671090D01*
X94044448Y-57684974D01*
X94024457Y-57696956D01*
X94003387Y-57706921D01*
X93981443Y-57714773D01*
X93958834Y-57720437D01*
X93935779Y-57723856D01*
X93912500Y-57725000D01*
X93337500Y-57725000D01*
X93314221Y-57723856D01*
X93291166Y-57720437D01*
X93268557Y-57714773D01*
X93246613Y-57706921D01*
X93225543Y-57696956D01*
X93205552Y-57684974D01*
X93186832Y-57671090D01*
X93169562Y-57655438D01*
X93153910Y-57638168D01*
X93140026Y-57619448D01*
X93128044Y-57599457D01*
X93118079Y-57578387D01*
X93110227Y-57556443D01*
X93104563Y-57533834D01*
X93101144Y-57510779D01*
X93100000Y-57487500D01*
X93100000Y-57012500D01*
X93101144Y-56989221D01*
X93104563Y-56966166D01*
X93110227Y-56943557D01*
X93118079Y-56921613D01*
X93128044Y-56900543D01*
X93140026Y-56880552D01*
X93153910Y-56861832D01*
X93169562Y-56844562D01*
X93186832Y-56828910D01*
X93205552Y-56815026D01*
X93225543Y-56803044D01*
X93246613Y-56793079D01*
X93268557Y-56785227D01*
X93291166Y-56779563D01*
X93314221Y-56776144D01*
X93337500Y-56775000D01*
X93912500Y-56775000D01*
X93935779Y-56776144D01*
X93935779Y-56776144D01*
G37*
D12*
X93625000Y-57250000D03*
G04 #@! TD*
D11*
G04 #@! TO.C,D2*
G36*
X90435779Y-56776144D02*
X90458834Y-56779563D01*
X90481443Y-56785227D01*
X90503387Y-56793079D01*
X90524457Y-56803044D01*
X90544448Y-56815026D01*
X90563168Y-56828910D01*
X90580438Y-56844562D01*
X90596090Y-56861832D01*
X90609974Y-56880552D01*
X90621956Y-56900543D01*
X90631921Y-56921613D01*
X90639773Y-56943557D01*
X90645437Y-56966166D01*
X90648856Y-56989221D01*
X90650000Y-57012500D01*
X90650000Y-57487500D01*
X90648856Y-57510779D01*
X90645437Y-57533834D01*
X90639773Y-57556443D01*
X90631921Y-57578387D01*
X90621956Y-57599457D01*
X90609974Y-57619448D01*
X90596090Y-57638168D01*
X90580438Y-57655438D01*
X90563168Y-57671090D01*
X90544448Y-57684974D01*
X90524457Y-57696956D01*
X90503387Y-57706921D01*
X90481443Y-57714773D01*
X90458834Y-57720437D01*
X90435779Y-57723856D01*
X90412500Y-57725000D01*
X89837500Y-57725000D01*
X89814221Y-57723856D01*
X89791166Y-57720437D01*
X89768557Y-57714773D01*
X89746613Y-57706921D01*
X89725543Y-57696956D01*
X89705552Y-57684974D01*
X89686832Y-57671090D01*
X89669562Y-57655438D01*
X89653910Y-57638168D01*
X89640026Y-57619448D01*
X89628044Y-57599457D01*
X89618079Y-57578387D01*
X89610227Y-57556443D01*
X89604563Y-57533834D01*
X89601144Y-57510779D01*
X89600000Y-57487500D01*
X89600000Y-57012500D01*
X89601144Y-56989221D01*
X89604563Y-56966166D01*
X89610227Y-56943557D01*
X89618079Y-56921613D01*
X89628044Y-56900543D01*
X89640026Y-56880552D01*
X89653910Y-56861832D01*
X89669562Y-56844562D01*
X89686832Y-56828910D01*
X89705552Y-56815026D01*
X89725543Y-56803044D01*
X89746613Y-56793079D01*
X89768557Y-56785227D01*
X89791166Y-56779563D01*
X89814221Y-56776144D01*
X89837500Y-56775000D01*
X90412500Y-56775000D01*
X90435779Y-56776144D01*
X90435779Y-56776144D01*
G37*
D12*
X90125000Y-57250000D03*
D11*
G36*
X88685779Y-56776144D02*
X88708834Y-56779563D01*
X88731443Y-56785227D01*
X88753387Y-56793079D01*
X88774457Y-56803044D01*
X88794448Y-56815026D01*
X88813168Y-56828910D01*
X88830438Y-56844562D01*
X88846090Y-56861832D01*
X88859974Y-56880552D01*
X88871956Y-56900543D01*
X88881921Y-56921613D01*
X88889773Y-56943557D01*
X88895437Y-56966166D01*
X88898856Y-56989221D01*
X88900000Y-57012500D01*
X88900000Y-57487500D01*
X88898856Y-57510779D01*
X88895437Y-57533834D01*
X88889773Y-57556443D01*
X88881921Y-57578387D01*
X88871956Y-57599457D01*
X88859974Y-57619448D01*
X88846090Y-57638168D01*
X88830438Y-57655438D01*
X88813168Y-57671090D01*
X88794448Y-57684974D01*
X88774457Y-57696956D01*
X88753387Y-57706921D01*
X88731443Y-57714773D01*
X88708834Y-57720437D01*
X88685779Y-57723856D01*
X88662500Y-57725000D01*
X88087500Y-57725000D01*
X88064221Y-57723856D01*
X88041166Y-57720437D01*
X88018557Y-57714773D01*
X87996613Y-57706921D01*
X87975543Y-57696956D01*
X87955552Y-57684974D01*
X87936832Y-57671090D01*
X87919562Y-57655438D01*
X87903910Y-57638168D01*
X87890026Y-57619448D01*
X87878044Y-57599457D01*
X87868079Y-57578387D01*
X87860227Y-57556443D01*
X87854563Y-57533834D01*
X87851144Y-57510779D01*
X87850000Y-57487500D01*
X87850000Y-57012500D01*
X87851144Y-56989221D01*
X87854563Y-56966166D01*
X87860227Y-56943557D01*
X87868079Y-56921613D01*
X87878044Y-56900543D01*
X87890026Y-56880552D01*
X87903910Y-56861832D01*
X87919562Y-56844562D01*
X87936832Y-56828910D01*
X87955552Y-56815026D01*
X87975543Y-56803044D01*
X87996613Y-56793079D01*
X88018557Y-56785227D01*
X88041166Y-56779563D01*
X88064221Y-56776144D01*
X88087500Y-56775000D01*
X88662500Y-56775000D01*
X88685779Y-56776144D01*
X88685779Y-56776144D01*
G37*
D12*
X88375000Y-57250000D03*
G04 #@! TD*
D11*
G04 #@! TO.C,D3*
G36*
X85185779Y-56776144D02*
X85208834Y-56779563D01*
X85231443Y-56785227D01*
X85253387Y-56793079D01*
X85274457Y-56803044D01*
X85294448Y-56815026D01*
X85313168Y-56828910D01*
X85330438Y-56844562D01*
X85346090Y-56861832D01*
X85359974Y-56880552D01*
X85371956Y-56900543D01*
X85381921Y-56921613D01*
X85389773Y-56943557D01*
X85395437Y-56966166D01*
X85398856Y-56989221D01*
X85400000Y-57012500D01*
X85400000Y-57487500D01*
X85398856Y-57510779D01*
X85395437Y-57533834D01*
X85389773Y-57556443D01*
X85381921Y-57578387D01*
X85371956Y-57599457D01*
X85359974Y-57619448D01*
X85346090Y-57638168D01*
X85330438Y-57655438D01*
X85313168Y-57671090D01*
X85294448Y-57684974D01*
X85274457Y-57696956D01*
X85253387Y-57706921D01*
X85231443Y-57714773D01*
X85208834Y-57720437D01*
X85185779Y-57723856D01*
X85162500Y-57725000D01*
X84587500Y-57725000D01*
X84564221Y-57723856D01*
X84541166Y-57720437D01*
X84518557Y-57714773D01*
X84496613Y-57706921D01*
X84475543Y-57696956D01*
X84455552Y-57684974D01*
X84436832Y-57671090D01*
X84419562Y-57655438D01*
X84403910Y-57638168D01*
X84390026Y-57619448D01*
X84378044Y-57599457D01*
X84368079Y-57578387D01*
X84360227Y-57556443D01*
X84354563Y-57533834D01*
X84351144Y-57510779D01*
X84350000Y-57487500D01*
X84350000Y-57012500D01*
X84351144Y-56989221D01*
X84354563Y-56966166D01*
X84360227Y-56943557D01*
X84368079Y-56921613D01*
X84378044Y-56900543D01*
X84390026Y-56880552D01*
X84403910Y-56861832D01*
X84419562Y-56844562D01*
X84436832Y-56828910D01*
X84455552Y-56815026D01*
X84475543Y-56803044D01*
X84496613Y-56793079D01*
X84518557Y-56785227D01*
X84541166Y-56779563D01*
X84564221Y-56776144D01*
X84587500Y-56775000D01*
X85162500Y-56775000D01*
X85185779Y-56776144D01*
X85185779Y-56776144D01*
G37*
D12*
X84875000Y-57250000D03*
D11*
G36*
X86935779Y-56776144D02*
X86958834Y-56779563D01*
X86981443Y-56785227D01*
X87003387Y-56793079D01*
X87024457Y-56803044D01*
X87044448Y-56815026D01*
X87063168Y-56828910D01*
X87080438Y-56844562D01*
X87096090Y-56861832D01*
X87109974Y-56880552D01*
X87121956Y-56900543D01*
X87131921Y-56921613D01*
X87139773Y-56943557D01*
X87145437Y-56966166D01*
X87148856Y-56989221D01*
X87150000Y-57012500D01*
X87150000Y-57487500D01*
X87148856Y-57510779D01*
X87145437Y-57533834D01*
X87139773Y-57556443D01*
X87131921Y-57578387D01*
X87121956Y-57599457D01*
X87109974Y-57619448D01*
X87096090Y-57638168D01*
X87080438Y-57655438D01*
X87063168Y-57671090D01*
X87044448Y-57684974D01*
X87024457Y-57696956D01*
X87003387Y-57706921D01*
X86981443Y-57714773D01*
X86958834Y-57720437D01*
X86935779Y-57723856D01*
X86912500Y-57725000D01*
X86337500Y-57725000D01*
X86314221Y-57723856D01*
X86291166Y-57720437D01*
X86268557Y-57714773D01*
X86246613Y-57706921D01*
X86225543Y-57696956D01*
X86205552Y-57684974D01*
X86186832Y-57671090D01*
X86169562Y-57655438D01*
X86153910Y-57638168D01*
X86140026Y-57619448D01*
X86128044Y-57599457D01*
X86118079Y-57578387D01*
X86110227Y-57556443D01*
X86104563Y-57533834D01*
X86101144Y-57510779D01*
X86100000Y-57487500D01*
X86100000Y-57012500D01*
X86101144Y-56989221D01*
X86104563Y-56966166D01*
X86110227Y-56943557D01*
X86118079Y-56921613D01*
X86128044Y-56900543D01*
X86140026Y-56880552D01*
X86153910Y-56861832D01*
X86169562Y-56844562D01*
X86186832Y-56828910D01*
X86205552Y-56815026D01*
X86225543Y-56803044D01*
X86246613Y-56793079D01*
X86268557Y-56785227D01*
X86291166Y-56779563D01*
X86314221Y-56776144D01*
X86337500Y-56775000D01*
X86912500Y-56775000D01*
X86935779Y-56776144D01*
X86935779Y-56776144D01*
G37*
D12*
X86625000Y-57250000D03*
G04 #@! TD*
D14*
G04 #@! TO.C,D4*
X73830000Y-67800000D03*
D15*
X71170000Y-67800000D03*
G04 #@! TD*
D14*
G04 #@! TO.C,D5*
X115670000Y-94000000D03*
D15*
X118330000Y-94000000D03*
G04 #@! TD*
G04 #@! TO.C,D6*
X96330000Y-94000000D03*
D14*
X93670000Y-94000000D03*
G04 #@! TD*
G04 #@! TO.C,D7*
X93670000Y-68000000D03*
D15*
X96330000Y-68000000D03*
G04 #@! TD*
G04 #@! TO.C,D8*
X118330000Y-68000000D03*
D14*
X115670000Y-68000000D03*
G04 #@! TD*
D15*
G04 #@! TO.C,D9*
X74330000Y-94000000D03*
D14*
X71670000Y-94000000D03*
G04 #@! TD*
D15*
G04 #@! TO.C,D10*
X118330000Y-98000000D03*
D14*
X115670000Y-98000000D03*
G04 #@! TD*
G04 #@! TO.C,D11*
X93670000Y-64000000D03*
D15*
X96330000Y-64000000D03*
G04 #@! TD*
G04 #@! TO.C,D12*
X118330000Y-64000000D03*
D14*
X115670000Y-64000000D03*
G04 #@! TD*
D15*
G04 #@! TO.C,D13*
X74330000Y-64000000D03*
D14*
X71670000Y-64000000D03*
G04 #@! TD*
G04 #@! TO.C,D14*
X71670000Y-98000000D03*
D15*
X74330000Y-98000000D03*
G04 #@! TD*
D14*
G04 #@! TO.C,D15*
X93670000Y-98000000D03*
D15*
X96330000Y-98000000D03*
G04 #@! TD*
D11*
G04 #@! TO.C,D16*
G36*
X83435779Y-56776144D02*
X83458834Y-56779563D01*
X83481443Y-56785227D01*
X83503387Y-56793079D01*
X83524457Y-56803044D01*
X83544448Y-56815026D01*
X83563168Y-56828910D01*
X83580438Y-56844562D01*
X83596090Y-56861832D01*
X83609974Y-56880552D01*
X83621956Y-56900543D01*
X83631921Y-56921613D01*
X83639773Y-56943557D01*
X83645437Y-56966166D01*
X83648856Y-56989221D01*
X83650000Y-57012500D01*
X83650000Y-57487500D01*
X83648856Y-57510779D01*
X83645437Y-57533834D01*
X83639773Y-57556443D01*
X83631921Y-57578387D01*
X83621956Y-57599457D01*
X83609974Y-57619448D01*
X83596090Y-57638168D01*
X83580438Y-57655438D01*
X83563168Y-57671090D01*
X83544448Y-57684974D01*
X83524457Y-57696956D01*
X83503387Y-57706921D01*
X83481443Y-57714773D01*
X83458834Y-57720437D01*
X83435779Y-57723856D01*
X83412500Y-57725000D01*
X82837500Y-57725000D01*
X82814221Y-57723856D01*
X82791166Y-57720437D01*
X82768557Y-57714773D01*
X82746613Y-57706921D01*
X82725543Y-57696956D01*
X82705552Y-57684974D01*
X82686832Y-57671090D01*
X82669562Y-57655438D01*
X82653910Y-57638168D01*
X82640026Y-57619448D01*
X82628044Y-57599457D01*
X82618079Y-57578387D01*
X82610227Y-57556443D01*
X82604563Y-57533834D01*
X82601144Y-57510779D01*
X82600000Y-57487500D01*
X82600000Y-57012500D01*
X82601144Y-56989221D01*
X82604563Y-56966166D01*
X82610227Y-56943557D01*
X82618079Y-56921613D01*
X82628044Y-56900543D01*
X82640026Y-56880552D01*
X82653910Y-56861832D01*
X82669562Y-56844562D01*
X82686832Y-56828910D01*
X82705552Y-56815026D01*
X82725543Y-56803044D01*
X82746613Y-56793079D01*
X82768557Y-56785227D01*
X82791166Y-56779563D01*
X82814221Y-56776144D01*
X82837500Y-56775000D01*
X83412500Y-56775000D01*
X83435779Y-56776144D01*
X83435779Y-56776144D01*
G37*
D12*
X83125000Y-57250000D03*
D11*
G36*
X81685779Y-56776144D02*
X81708834Y-56779563D01*
X81731443Y-56785227D01*
X81753387Y-56793079D01*
X81774457Y-56803044D01*
X81794448Y-56815026D01*
X81813168Y-56828910D01*
X81830438Y-56844562D01*
X81846090Y-56861832D01*
X81859974Y-56880552D01*
X81871956Y-56900543D01*
X81881921Y-56921613D01*
X81889773Y-56943557D01*
X81895437Y-56966166D01*
X81898856Y-56989221D01*
X81900000Y-57012500D01*
X81900000Y-57487500D01*
X81898856Y-57510779D01*
X81895437Y-57533834D01*
X81889773Y-57556443D01*
X81881921Y-57578387D01*
X81871956Y-57599457D01*
X81859974Y-57619448D01*
X81846090Y-57638168D01*
X81830438Y-57655438D01*
X81813168Y-57671090D01*
X81794448Y-57684974D01*
X81774457Y-57696956D01*
X81753387Y-57706921D01*
X81731443Y-57714773D01*
X81708834Y-57720437D01*
X81685779Y-57723856D01*
X81662500Y-57725000D01*
X81087500Y-57725000D01*
X81064221Y-57723856D01*
X81041166Y-57720437D01*
X81018557Y-57714773D01*
X80996613Y-57706921D01*
X80975543Y-57696956D01*
X80955552Y-57684974D01*
X80936832Y-57671090D01*
X80919562Y-57655438D01*
X80903910Y-57638168D01*
X80890026Y-57619448D01*
X80878044Y-57599457D01*
X80868079Y-57578387D01*
X80860227Y-57556443D01*
X80854563Y-57533834D01*
X80851144Y-57510779D01*
X80850000Y-57487500D01*
X80850000Y-57012500D01*
X80851144Y-56989221D01*
X80854563Y-56966166D01*
X80860227Y-56943557D01*
X80868079Y-56921613D01*
X80878044Y-56900543D01*
X80890026Y-56880552D01*
X80903910Y-56861832D01*
X80919562Y-56844562D01*
X80936832Y-56828910D01*
X80955552Y-56815026D01*
X80975543Y-56803044D01*
X80996613Y-56793079D01*
X81018557Y-56785227D01*
X81041166Y-56779563D01*
X81064221Y-56776144D01*
X81087500Y-56775000D01*
X81662500Y-56775000D01*
X81685779Y-56776144D01*
X81685779Y-56776144D01*
G37*
D12*
X81375000Y-57250000D03*
G04 #@! TD*
D11*
G04 #@! TO.C,D17*
G36*
X78185779Y-56776144D02*
X78208834Y-56779563D01*
X78231443Y-56785227D01*
X78253387Y-56793079D01*
X78274457Y-56803044D01*
X78294448Y-56815026D01*
X78313168Y-56828910D01*
X78330438Y-56844562D01*
X78346090Y-56861832D01*
X78359974Y-56880552D01*
X78371956Y-56900543D01*
X78381921Y-56921613D01*
X78389773Y-56943557D01*
X78395437Y-56966166D01*
X78398856Y-56989221D01*
X78400000Y-57012500D01*
X78400000Y-57487500D01*
X78398856Y-57510779D01*
X78395437Y-57533834D01*
X78389773Y-57556443D01*
X78381921Y-57578387D01*
X78371956Y-57599457D01*
X78359974Y-57619448D01*
X78346090Y-57638168D01*
X78330438Y-57655438D01*
X78313168Y-57671090D01*
X78294448Y-57684974D01*
X78274457Y-57696956D01*
X78253387Y-57706921D01*
X78231443Y-57714773D01*
X78208834Y-57720437D01*
X78185779Y-57723856D01*
X78162500Y-57725000D01*
X77587500Y-57725000D01*
X77564221Y-57723856D01*
X77541166Y-57720437D01*
X77518557Y-57714773D01*
X77496613Y-57706921D01*
X77475543Y-57696956D01*
X77455552Y-57684974D01*
X77436832Y-57671090D01*
X77419562Y-57655438D01*
X77403910Y-57638168D01*
X77390026Y-57619448D01*
X77378044Y-57599457D01*
X77368079Y-57578387D01*
X77360227Y-57556443D01*
X77354563Y-57533834D01*
X77351144Y-57510779D01*
X77350000Y-57487500D01*
X77350000Y-57012500D01*
X77351144Y-56989221D01*
X77354563Y-56966166D01*
X77360227Y-56943557D01*
X77368079Y-56921613D01*
X77378044Y-56900543D01*
X77390026Y-56880552D01*
X77403910Y-56861832D01*
X77419562Y-56844562D01*
X77436832Y-56828910D01*
X77455552Y-56815026D01*
X77475543Y-56803044D01*
X77496613Y-56793079D01*
X77518557Y-56785227D01*
X77541166Y-56779563D01*
X77564221Y-56776144D01*
X77587500Y-56775000D01*
X78162500Y-56775000D01*
X78185779Y-56776144D01*
X78185779Y-56776144D01*
G37*
D12*
X77875000Y-57250000D03*
D11*
G36*
X79935779Y-56776144D02*
X79958834Y-56779563D01*
X79981443Y-56785227D01*
X80003387Y-56793079D01*
X80024457Y-56803044D01*
X80044448Y-56815026D01*
X80063168Y-56828910D01*
X80080438Y-56844562D01*
X80096090Y-56861832D01*
X80109974Y-56880552D01*
X80121956Y-56900543D01*
X80131921Y-56921613D01*
X80139773Y-56943557D01*
X80145437Y-56966166D01*
X80148856Y-56989221D01*
X80150000Y-57012500D01*
X80150000Y-57487500D01*
X80148856Y-57510779D01*
X80145437Y-57533834D01*
X80139773Y-57556443D01*
X80131921Y-57578387D01*
X80121956Y-57599457D01*
X80109974Y-57619448D01*
X80096090Y-57638168D01*
X80080438Y-57655438D01*
X80063168Y-57671090D01*
X80044448Y-57684974D01*
X80024457Y-57696956D01*
X80003387Y-57706921D01*
X79981443Y-57714773D01*
X79958834Y-57720437D01*
X79935779Y-57723856D01*
X79912500Y-57725000D01*
X79337500Y-57725000D01*
X79314221Y-57723856D01*
X79291166Y-57720437D01*
X79268557Y-57714773D01*
X79246613Y-57706921D01*
X79225543Y-57696956D01*
X79205552Y-57684974D01*
X79186832Y-57671090D01*
X79169562Y-57655438D01*
X79153910Y-57638168D01*
X79140026Y-57619448D01*
X79128044Y-57599457D01*
X79118079Y-57578387D01*
X79110227Y-57556443D01*
X79104563Y-57533834D01*
X79101144Y-57510779D01*
X79100000Y-57487500D01*
X79100000Y-57012500D01*
X79101144Y-56989221D01*
X79104563Y-56966166D01*
X79110227Y-56943557D01*
X79118079Y-56921613D01*
X79128044Y-56900543D01*
X79140026Y-56880552D01*
X79153910Y-56861832D01*
X79169562Y-56844562D01*
X79186832Y-56828910D01*
X79205552Y-56815026D01*
X79225543Y-56803044D01*
X79246613Y-56793079D01*
X79268557Y-56785227D01*
X79291166Y-56779563D01*
X79314221Y-56776144D01*
X79337500Y-56775000D01*
X79912500Y-56775000D01*
X79935779Y-56776144D01*
X79935779Y-56776144D01*
G37*
D12*
X79625000Y-57250000D03*
G04 #@! TD*
D11*
G04 #@! TO.C,D18*
G36*
X76435779Y-56776144D02*
X76458834Y-56779563D01*
X76481443Y-56785227D01*
X76503387Y-56793079D01*
X76524457Y-56803044D01*
X76544448Y-56815026D01*
X76563168Y-56828910D01*
X76580438Y-56844562D01*
X76596090Y-56861832D01*
X76609974Y-56880552D01*
X76621956Y-56900543D01*
X76631921Y-56921613D01*
X76639773Y-56943557D01*
X76645437Y-56966166D01*
X76648856Y-56989221D01*
X76650000Y-57012500D01*
X76650000Y-57487500D01*
X76648856Y-57510779D01*
X76645437Y-57533834D01*
X76639773Y-57556443D01*
X76631921Y-57578387D01*
X76621956Y-57599457D01*
X76609974Y-57619448D01*
X76596090Y-57638168D01*
X76580438Y-57655438D01*
X76563168Y-57671090D01*
X76544448Y-57684974D01*
X76524457Y-57696956D01*
X76503387Y-57706921D01*
X76481443Y-57714773D01*
X76458834Y-57720437D01*
X76435779Y-57723856D01*
X76412500Y-57725000D01*
X75837500Y-57725000D01*
X75814221Y-57723856D01*
X75791166Y-57720437D01*
X75768557Y-57714773D01*
X75746613Y-57706921D01*
X75725543Y-57696956D01*
X75705552Y-57684974D01*
X75686832Y-57671090D01*
X75669562Y-57655438D01*
X75653910Y-57638168D01*
X75640026Y-57619448D01*
X75628044Y-57599457D01*
X75618079Y-57578387D01*
X75610227Y-57556443D01*
X75604563Y-57533834D01*
X75601144Y-57510779D01*
X75600000Y-57487500D01*
X75600000Y-57012500D01*
X75601144Y-56989221D01*
X75604563Y-56966166D01*
X75610227Y-56943557D01*
X75618079Y-56921613D01*
X75628044Y-56900543D01*
X75640026Y-56880552D01*
X75653910Y-56861832D01*
X75669562Y-56844562D01*
X75686832Y-56828910D01*
X75705552Y-56815026D01*
X75725543Y-56803044D01*
X75746613Y-56793079D01*
X75768557Y-56785227D01*
X75791166Y-56779563D01*
X75814221Y-56776144D01*
X75837500Y-56775000D01*
X76412500Y-56775000D01*
X76435779Y-56776144D01*
X76435779Y-56776144D01*
G37*
D12*
X76125000Y-57250000D03*
D11*
G36*
X74685779Y-56776144D02*
X74708834Y-56779563D01*
X74731443Y-56785227D01*
X74753387Y-56793079D01*
X74774457Y-56803044D01*
X74794448Y-56815026D01*
X74813168Y-56828910D01*
X74830438Y-56844562D01*
X74846090Y-56861832D01*
X74859974Y-56880552D01*
X74871956Y-56900543D01*
X74881921Y-56921613D01*
X74889773Y-56943557D01*
X74895437Y-56966166D01*
X74898856Y-56989221D01*
X74900000Y-57012500D01*
X74900000Y-57487500D01*
X74898856Y-57510779D01*
X74895437Y-57533834D01*
X74889773Y-57556443D01*
X74881921Y-57578387D01*
X74871956Y-57599457D01*
X74859974Y-57619448D01*
X74846090Y-57638168D01*
X74830438Y-57655438D01*
X74813168Y-57671090D01*
X74794448Y-57684974D01*
X74774457Y-57696956D01*
X74753387Y-57706921D01*
X74731443Y-57714773D01*
X74708834Y-57720437D01*
X74685779Y-57723856D01*
X74662500Y-57725000D01*
X74087500Y-57725000D01*
X74064221Y-57723856D01*
X74041166Y-57720437D01*
X74018557Y-57714773D01*
X73996613Y-57706921D01*
X73975543Y-57696956D01*
X73955552Y-57684974D01*
X73936832Y-57671090D01*
X73919562Y-57655438D01*
X73903910Y-57638168D01*
X73890026Y-57619448D01*
X73878044Y-57599457D01*
X73868079Y-57578387D01*
X73860227Y-57556443D01*
X73854563Y-57533834D01*
X73851144Y-57510779D01*
X73850000Y-57487500D01*
X73850000Y-57012500D01*
X73851144Y-56989221D01*
X73854563Y-56966166D01*
X73860227Y-56943557D01*
X73868079Y-56921613D01*
X73878044Y-56900543D01*
X73890026Y-56880552D01*
X73903910Y-56861832D01*
X73919562Y-56844562D01*
X73936832Y-56828910D01*
X73955552Y-56815026D01*
X73975543Y-56803044D01*
X73996613Y-56793079D01*
X74018557Y-56785227D01*
X74041166Y-56779563D01*
X74064221Y-56776144D01*
X74087500Y-56775000D01*
X74662500Y-56775000D01*
X74685779Y-56776144D01*
X74685779Y-56776144D01*
G37*
D12*
X74375000Y-57250000D03*
G04 #@! TD*
D11*
G04 #@! TO.C,D19*
G36*
X71185779Y-56776144D02*
X71208834Y-56779563D01*
X71231443Y-56785227D01*
X71253387Y-56793079D01*
X71274457Y-56803044D01*
X71294448Y-56815026D01*
X71313168Y-56828910D01*
X71330438Y-56844562D01*
X71346090Y-56861832D01*
X71359974Y-56880552D01*
X71371956Y-56900543D01*
X71381921Y-56921613D01*
X71389773Y-56943557D01*
X71395437Y-56966166D01*
X71398856Y-56989221D01*
X71400000Y-57012500D01*
X71400000Y-57487500D01*
X71398856Y-57510779D01*
X71395437Y-57533834D01*
X71389773Y-57556443D01*
X71381921Y-57578387D01*
X71371956Y-57599457D01*
X71359974Y-57619448D01*
X71346090Y-57638168D01*
X71330438Y-57655438D01*
X71313168Y-57671090D01*
X71294448Y-57684974D01*
X71274457Y-57696956D01*
X71253387Y-57706921D01*
X71231443Y-57714773D01*
X71208834Y-57720437D01*
X71185779Y-57723856D01*
X71162500Y-57725000D01*
X70587500Y-57725000D01*
X70564221Y-57723856D01*
X70541166Y-57720437D01*
X70518557Y-57714773D01*
X70496613Y-57706921D01*
X70475543Y-57696956D01*
X70455552Y-57684974D01*
X70436832Y-57671090D01*
X70419562Y-57655438D01*
X70403910Y-57638168D01*
X70390026Y-57619448D01*
X70378044Y-57599457D01*
X70368079Y-57578387D01*
X70360227Y-57556443D01*
X70354563Y-57533834D01*
X70351144Y-57510779D01*
X70350000Y-57487500D01*
X70350000Y-57012500D01*
X70351144Y-56989221D01*
X70354563Y-56966166D01*
X70360227Y-56943557D01*
X70368079Y-56921613D01*
X70378044Y-56900543D01*
X70390026Y-56880552D01*
X70403910Y-56861832D01*
X70419562Y-56844562D01*
X70436832Y-56828910D01*
X70455552Y-56815026D01*
X70475543Y-56803044D01*
X70496613Y-56793079D01*
X70518557Y-56785227D01*
X70541166Y-56779563D01*
X70564221Y-56776144D01*
X70587500Y-56775000D01*
X71162500Y-56775000D01*
X71185779Y-56776144D01*
X71185779Y-56776144D01*
G37*
D12*
X70875000Y-57250000D03*
D11*
G36*
X72935779Y-56776144D02*
X72958834Y-56779563D01*
X72981443Y-56785227D01*
X73003387Y-56793079D01*
X73024457Y-56803044D01*
X73044448Y-56815026D01*
X73063168Y-56828910D01*
X73080438Y-56844562D01*
X73096090Y-56861832D01*
X73109974Y-56880552D01*
X73121956Y-56900543D01*
X73131921Y-56921613D01*
X73139773Y-56943557D01*
X73145437Y-56966166D01*
X73148856Y-56989221D01*
X73150000Y-57012500D01*
X73150000Y-57487500D01*
X73148856Y-57510779D01*
X73145437Y-57533834D01*
X73139773Y-57556443D01*
X73131921Y-57578387D01*
X73121956Y-57599457D01*
X73109974Y-57619448D01*
X73096090Y-57638168D01*
X73080438Y-57655438D01*
X73063168Y-57671090D01*
X73044448Y-57684974D01*
X73024457Y-57696956D01*
X73003387Y-57706921D01*
X72981443Y-57714773D01*
X72958834Y-57720437D01*
X72935779Y-57723856D01*
X72912500Y-57725000D01*
X72337500Y-57725000D01*
X72314221Y-57723856D01*
X72291166Y-57720437D01*
X72268557Y-57714773D01*
X72246613Y-57706921D01*
X72225543Y-57696956D01*
X72205552Y-57684974D01*
X72186832Y-57671090D01*
X72169562Y-57655438D01*
X72153910Y-57638168D01*
X72140026Y-57619448D01*
X72128044Y-57599457D01*
X72118079Y-57578387D01*
X72110227Y-57556443D01*
X72104563Y-57533834D01*
X72101144Y-57510779D01*
X72100000Y-57487500D01*
X72100000Y-57012500D01*
X72101144Y-56989221D01*
X72104563Y-56966166D01*
X72110227Y-56943557D01*
X72118079Y-56921613D01*
X72128044Y-56900543D01*
X72140026Y-56880552D01*
X72153910Y-56861832D01*
X72169562Y-56844562D01*
X72186832Y-56828910D01*
X72205552Y-56815026D01*
X72225543Y-56803044D01*
X72246613Y-56793079D01*
X72268557Y-56785227D01*
X72291166Y-56779563D01*
X72314221Y-56776144D01*
X72337500Y-56775000D01*
X72912500Y-56775000D01*
X72935779Y-56776144D01*
X72935779Y-56776144D01*
G37*
D12*
X72625000Y-57250000D03*
G04 #@! TD*
D11*
G04 #@! TO.C,D20*
G36*
X69435779Y-56776144D02*
X69458834Y-56779563D01*
X69481443Y-56785227D01*
X69503387Y-56793079D01*
X69524457Y-56803044D01*
X69544448Y-56815026D01*
X69563168Y-56828910D01*
X69580438Y-56844562D01*
X69596090Y-56861832D01*
X69609974Y-56880552D01*
X69621956Y-56900543D01*
X69631921Y-56921613D01*
X69639773Y-56943557D01*
X69645437Y-56966166D01*
X69648856Y-56989221D01*
X69650000Y-57012500D01*
X69650000Y-57487500D01*
X69648856Y-57510779D01*
X69645437Y-57533834D01*
X69639773Y-57556443D01*
X69631921Y-57578387D01*
X69621956Y-57599457D01*
X69609974Y-57619448D01*
X69596090Y-57638168D01*
X69580438Y-57655438D01*
X69563168Y-57671090D01*
X69544448Y-57684974D01*
X69524457Y-57696956D01*
X69503387Y-57706921D01*
X69481443Y-57714773D01*
X69458834Y-57720437D01*
X69435779Y-57723856D01*
X69412500Y-57725000D01*
X68837500Y-57725000D01*
X68814221Y-57723856D01*
X68791166Y-57720437D01*
X68768557Y-57714773D01*
X68746613Y-57706921D01*
X68725543Y-57696956D01*
X68705552Y-57684974D01*
X68686832Y-57671090D01*
X68669562Y-57655438D01*
X68653910Y-57638168D01*
X68640026Y-57619448D01*
X68628044Y-57599457D01*
X68618079Y-57578387D01*
X68610227Y-57556443D01*
X68604563Y-57533834D01*
X68601144Y-57510779D01*
X68600000Y-57487500D01*
X68600000Y-57012500D01*
X68601144Y-56989221D01*
X68604563Y-56966166D01*
X68610227Y-56943557D01*
X68618079Y-56921613D01*
X68628044Y-56900543D01*
X68640026Y-56880552D01*
X68653910Y-56861832D01*
X68669562Y-56844562D01*
X68686832Y-56828910D01*
X68705552Y-56815026D01*
X68725543Y-56803044D01*
X68746613Y-56793079D01*
X68768557Y-56785227D01*
X68791166Y-56779563D01*
X68814221Y-56776144D01*
X68837500Y-56775000D01*
X69412500Y-56775000D01*
X69435779Y-56776144D01*
X69435779Y-56776144D01*
G37*
D12*
X69125000Y-57250000D03*
D11*
G36*
X67685779Y-56776144D02*
X67708834Y-56779563D01*
X67731443Y-56785227D01*
X67753387Y-56793079D01*
X67774457Y-56803044D01*
X67794448Y-56815026D01*
X67813168Y-56828910D01*
X67830438Y-56844562D01*
X67846090Y-56861832D01*
X67859974Y-56880552D01*
X67871956Y-56900543D01*
X67881921Y-56921613D01*
X67889773Y-56943557D01*
X67895437Y-56966166D01*
X67898856Y-56989221D01*
X67900000Y-57012500D01*
X67900000Y-57487500D01*
X67898856Y-57510779D01*
X67895437Y-57533834D01*
X67889773Y-57556443D01*
X67881921Y-57578387D01*
X67871956Y-57599457D01*
X67859974Y-57619448D01*
X67846090Y-57638168D01*
X67830438Y-57655438D01*
X67813168Y-57671090D01*
X67794448Y-57684974D01*
X67774457Y-57696956D01*
X67753387Y-57706921D01*
X67731443Y-57714773D01*
X67708834Y-57720437D01*
X67685779Y-57723856D01*
X67662500Y-57725000D01*
X67087500Y-57725000D01*
X67064221Y-57723856D01*
X67041166Y-57720437D01*
X67018557Y-57714773D01*
X66996613Y-57706921D01*
X66975543Y-57696956D01*
X66955552Y-57684974D01*
X66936832Y-57671090D01*
X66919562Y-57655438D01*
X66903910Y-57638168D01*
X66890026Y-57619448D01*
X66878044Y-57599457D01*
X66868079Y-57578387D01*
X66860227Y-57556443D01*
X66854563Y-57533834D01*
X66851144Y-57510779D01*
X66850000Y-57487500D01*
X66850000Y-57012500D01*
X66851144Y-56989221D01*
X66854563Y-56966166D01*
X66860227Y-56943557D01*
X66868079Y-56921613D01*
X66878044Y-56900543D01*
X66890026Y-56880552D01*
X66903910Y-56861832D01*
X66919562Y-56844562D01*
X66936832Y-56828910D01*
X66955552Y-56815026D01*
X66975543Y-56803044D01*
X66996613Y-56793079D01*
X67018557Y-56785227D01*
X67041166Y-56779563D01*
X67064221Y-56776144D01*
X67087500Y-56775000D01*
X67662500Y-56775000D01*
X67685779Y-56776144D01*
X67685779Y-56776144D01*
G37*
D12*
X67375000Y-57250000D03*
G04 #@! TD*
D11*
G04 #@! TO.C,D21*
G36*
X51510779Y-96451144D02*
X51533834Y-96454563D01*
X51556443Y-96460227D01*
X51578387Y-96468079D01*
X51599457Y-96478044D01*
X51619448Y-96490026D01*
X51638168Y-96503910D01*
X51655438Y-96519562D01*
X51671090Y-96536832D01*
X51684974Y-96555552D01*
X51696956Y-96575543D01*
X51706921Y-96596613D01*
X51714773Y-96618557D01*
X51720437Y-96641166D01*
X51723856Y-96664221D01*
X51725000Y-96687500D01*
X51725000Y-97262500D01*
X51723856Y-97285779D01*
X51720437Y-97308834D01*
X51714773Y-97331443D01*
X51706921Y-97353387D01*
X51696956Y-97374457D01*
X51684974Y-97394448D01*
X51671090Y-97413168D01*
X51655438Y-97430438D01*
X51638168Y-97446090D01*
X51619448Y-97459974D01*
X51599457Y-97471956D01*
X51578387Y-97481921D01*
X51556443Y-97489773D01*
X51533834Y-97495437D01*
X51510779Y-97498856D01*
X51487500Y-97500000D01*
X51012500Y-97500000D01*
X50989221Y-97498856D01*
X50966166Y-97495437D01*
X50943557Y-97489773D01*
X50921613Y-97481921D01*
X50900543Y-97471956D01*
X50880552Y-97459974D01*
X50861832Y-97446090D01*
X50844562Y-97430438D01*
X50828910Y-97413168D01*
X50815026Y-97394448D01*
X50803044Y-97374457D01*
X50793079Y-97353387D01*
X50785227Y-97331443D01*
X50779563Y-97308834D01*
X50776144Y-97285779D01*
X50775000Y-97262500D01*
X50775000Y-96687500D01*
X50776144Y-96664221D01*
X50779563Y-96641166D01*
X50785227Y-96618557D01*
X50793079Y-96596613D01*
X50803044Y-96575543D01*
X50815026Y-96555552D01*
X50828910Y-96536832D01*
X50844562Y-96519562D01*
X50861832Y-96503910D01*
X50880552Y-96490026D01*
X50900543Y-96478044D01*
X50921613Y-96468079D01*
X50943557Y-96460227D01*
X50966166Y-96454563D01*
X50989221Y-96451144D01*
X51012500Y-96450000D01*
X51487500Y-96450000D01*
X51510779Y-96451144D01*
X51510779Y-96451144D01*
G37*
D12*
X51250000Y-96975000D03*
D11*
G36*
X51510779Y-94701144D02*
X51533834Y-94704563D01*
X51556443Y-94710227D01*
X51578387Y-94718079D01*
X51599457Y-94728044D01*
X51619448Y-94740026D01*
X51638168Y-94753910D01*
X51655438Y-94769562D01*
X51671090Y-94786832D01*
X51684974Y-94805552D01*
X51696956Y-94825543D01*
X51706921Y-94846613D01*
X51714773Y-94868557D01*
X51720437Y-94891166D01*
X51723856Y-94914221D01*
X51725000Y-94937500D01*
X51725000Y-95512500D01*
X51723856Y-95535779D01*
X51720437Y-95558834D01*
X51714773Y-95581443D01*
X51706921Y-95603387D01*
X51696956Y-95624457D01*
X51684974Y-95644448D01*
X51671090Y-95663168D01*
X51655438Y-95680438D01*
X51638168Y-95696090D01*
X51619448Y-95709974D01*
X51599457Y-95721956D01*
X51578387Y-95731921D01*
X51556443Y-95739773D01*
X51533834Y-95745437D01*
X51510779Y-95748856D01*
X51487500Y-95750000D01*
X51012500Y-95750000D01*
X50989221Y-95748856D01*
X50966166Y-95745437D01*
X50943557Y-95739773D01*
X50921613Y-95731921D01*
X50900543Y-95721956D01*
X50880552Y-95709974D01*
X50861832Y-95696090D01*
X50844562Y-95680438D01*
X50828910Y-95663168D01*
X50815026Y-95644448D01*
X50803044Y-95624457D01*
X50793079Y-95603387D01*
X50785227Y-95581443D01*
X50779563Y-95558834D01*
X50776144Y-95535779D01*
X50775000Y-95512500D01*
X50775000Y-94937500D01*
X50776144Y-94914221D01*
X50779563Y-94891166D01*
X50785227Y-94868557D01*
X50793079Y-94846613D01*
X50803044Y-94825543D01*
X50815026Y-94805552D01*
X50828910Y-94786832D01*
X50844562Y-94769562D01*
X50861832Y-94753910D01*
X50880552Y-94740026D01*
X50900543Y-94728044D01*
X50921613Y-94718079D01*
X50943557Y-94710227D01*
X50966166Y-94704563D01*
X50989221Y-94701144D01*
X51012500Y-94700000D01*
X51487500Y-94700000D01*
X51510779Y-94701144D01*
X51510779Y-94701144D01*
G37*
D12*
X51250000Y-95225000D03*
G04 #@! TD*
D11*
G04 #@! TO.C,D22*
G36*
X51510779Y-88701144D02*
X51533834Y-88704563D01*
X51556443Y-88710227D01*
X51578387Y-88718079D01*
X51599457Y-88728044D01*
X51619448Y-88740026D01*
X51638168Y-88753910D01*
X51655438Y-88769562D01*
X51671090Y-88786832D01*
X51684974Y-88805552D01*
X51696956Y-88825543D01*
X51706921Y-88846613D01*
X51714773Y-88868557D01*
X51720437Y-88891166D01*
X51723856Y-88914221D01*
X51725000Y-88937500D01*
X51725000Y-89512500D01*
X51723856Y-89535779D01*
X51720437Y-89558834D01*
X51714773Y-89581443D01*
X51706921Y-89603387D01*
X51696956Y-89624457D01*
X51684974Y-89644448D01*
X51671090Y-89663168D01*
X51655438Y-89680438D01*
X51638168Y-89696090D01*
X51619448Y-89709974D01*
X51599457Y-89721956D01*
X51578387Y-89731921D01*
X51556443Y-89739773D01*
X51533834Y-89745437D01*
X51510779Y-89748856D01*
X51487500Y-89750000D01*
X51012500Y-89750000D01*
X50989221Y-89748856D01*
X50966166Y-89745437D01*
X50943557Y-89739773D01*
X50921613Y-89731921D01*
X50900543Y-89721956D01*
X50880552Y-89709974D01*
X50861832Y-89696090D01*
X50844562Y-89680438D01*
X50828910Y-89663168D01*
X50815026Y-89644448D01*
X50803044Y-89624457D01*
X50793079Y-89603387D01*
X50785227Y-89581443D01*
X50779563Y-89558834D01*
X50776144Y-89535779D01*
X50775000Y-89512500D01*
X50775000Y-88937500D01*
X50776144Y-88914221D01*
X50779563Y-88891166D01*
X50785227Y-88868557D01*
X50793079Y-88846613D01*
X50803044Y-88825543D01*
X50815026Y-88805552D01*
X50828910Y-88786832D01*
X50844562Y-88769562D01*
X50861832Y-88753910D01*
X50880552Y-88740026D01*
X50900543Y-88728044D01*
X50921613Y-88718079D01*
X50943557Y-88710227D01*
X50966166Y-88704563D01*
X50989221Y-88701144D01*
X51012500Y-88700000D01*
X51487500Y-88700000D01*
X51510779Y-88701144D01*
X51510779Y-88701144D01*
G37*
D12*
X51250000Y-89225000D03*
D11*
G36*
X51510779Y-90451144D02*
X51533834Y-90454563D01*
X51556443Y-90460227D01*
X51578387Y-90468079D01*
X51599457Y-90478044D01*
X51619448Y-90490026D01*
X51638168Y-90503910D01*
X51655438Y-90519562D01*
X51671090Y-90536832D01*
X51684974Y-90555552D01*
X51696956Y-90575543D01*
X51706921Y-90596613D01*
X51714773Y-90618557D01*
X51720437Y-90641166D01*
X51723856Y-90664221D01*
X51725000Y-90687500D01*
X51725000Y-91262500D01*
X51723856Y-91285779D01*
X51720437Y-91308834D01*
X51714773Y-91331443D01*
X51706921Y-91353387D01*
X51696956Y-91374457D01*
X51684974Y-91394448D01*
X51671090Y-91413168D01*
X51655438Y-91430438D01*
X51638168Y-91446090D01*
X51619448Y-91459974D01*
X51599457Y-91471956D01*
X51578387Y-91481921D01*
X51556443Y-91489773D01*
X51533834Y-91495437D01*
X51510779Y-91498856D01*
X51487500Y-91500000D01*
X51012500Y-91500000D01*
X50989221Y-91498856D01*
X50966166Y-91495437D01*
X50943557Y-91489773D01*
X50921613Y-91481921D01*
X50900543Y-91471956D01*
X50880552Y-91459974D01*
X50861832Y-91446090D01*
X50844562Y-91430438D01*
X50828910Y-91413168D01*
X50815026Y-91394448D01*
X50803044Y-91374457D01*
X50793079Y-91353387D01*
X50785227Y-91331443D01*
X50779563Y-91308834D01*
X50776144Y-91285779D01*
X50775000Y-91262500D01*
X50775000Y-90687500D01*
X50776144Y-90664221D01*
X50779563Y-90641166D01*
X50785227Y-90618557D01*
X50793079Y-90596613D01*
X50803044Y-90575543D01*
X50815026Y-90555552D01*
X50828910Y-90536832D01*
X50844562Y-90519562D01*
X50861832Y-90503910D01*
X50880552Y-90490026D01*
X50900543Y-90478044D01*
X50921613Y-90468079D01*
X50943557Y-90460227D01*
X50966166Y-90454563D01*
X50989221Y-90451144D01*
X51012500Y-90450000D01*
X51487500Y-90450000D01*
X51510779Y-90451144D01*
X51510779Y-90451144D01*
G37*
D12*
X51250000Y-90975000D03*
G04 #@! TD*
D11*
G04 #@! TO.C,D23*
G36*
X52260779Y-72351144D02*
X52283834Y-72354563D01*
X52306443Y-72360227D01*
X52328387Y-72368079D01*
X52349457Y-72378044D01*
X52369448Y-72390026D01*
X52388168Y-72403910D01*
X52405438Y-72419562D01*
X52421090Y-72436832D01*
X52434974Y-72455552D01*
X52446956Y-72475543D01*
X52456921Y-72496613D01*
X52464773Y-72518557D01*
X52470437Y-72541166D01*
X52473856Y-72564221D01*
X52475000Y-72587500D01*
X52475000Y-73162500D01*
X52473856Y-73185779D01*
X52470437Y-73208834D01*
X52464773Y-73231443D01*
X52456921Y-73253387D01*
X52446956Y-73274457D01*
X52434974Y-73294448D01*
X52421090Y-73313168D01*
X52405438Y-73330438D01*
X52388168Y-73346090D01*
X52369448Y-73359974D01*
X52349457Y-73371956D01*
X52328387Y-73381921D01*
X52306443Y-73389773D01*
X52283834Y-73395437D01*
X52260779Y-73398856D01*
X52237500Y-73400000D01*
X51762500Y-73400000D01*
X51739221Y-73398856D01*
X51716166Y-73395437D01*
X51693557Y-73389773D01*
X51671613Y-73381921D01*
X51650543Y-73371956D01*
X51630552Y-73359974D01*
X51611832Y-73346090D01*
X51594562Y-73330438D01*
X51578910Y-73313168D01*
X51565026Y-73294448D01*
X51553044Y-73274457D01*
X51543079Y-73253387D01*
X51535227Y-73231443D01*
X51529563Y-73208834D01*
X51526144Y-73185779D01*
X51525000Y-73162500D01*
X51525000Y-72587500D01*
X51526144Y-72564221D01*
X51529563Y-72541166D01*
X51535227Y-72518557D01*
X51543079Y-72496613D01*
X51553044Y-72475543D01*
X51565026Y-72455552D01*
X51578910Y-72436832D01*
X51594562Y-72419562D01*
X51611832Y-72403910D01*
X51630552Y-72390026D01*
X51650543Y-72378044D01*
X51671613Y-72368079D01*
X51693557Y-72360227D01*
X51716166Y-72354563D01*
X51739221Y-72351144D01*
X51762500Y-72350000D01*
X52237500Y-72350000D01*
X52260779Y-72351144D01*
X52260779Y-72351144D01*
G37*
D12*
X52000000Y-72875000D03*
D11*
G36*
X52260779Y-70601144D02*
X52283834Y-70604563D01*
X52306443Y-70610227D01*
X52328387Y-70618079D01*
X52349457Y-70628044D01*
X52369448Y-70640026D01*
X52388168Y-70653910D01*
X52405438Y-70669562D01*
X52421090Y-70686832D01*
X52434974Y-70705552D01*
X52446956Y-70725543D01*
X52456921Y-70746613D01*
X52464773Y-70768557D01*
X52470437Y-70791166D01*
X52473856Y-70814221D01*
X52475000Y-70837500D01*
X52475000Y-71412500D01*
X52473856Y-71435779D01*
X52470437Y-71458834D01*
X52464773Y-71481443D01*
X52456921Y-71503387D01*
X52446956Y-71524457D01*
X52434974Y-71544448D01*
X52421090Y-71563168D01*
X52405438Y-71580438D01*
X52388168Y-71596090D01*
X52369448Y-71609974D01*
X52349457Y-71621956D01*
X52328387Y-71631921D01*
X52306443Y-71639773D01*
X52283834Y-71645437D01*
X52260779Y-71648856D01*
X52237500Y-71650000D01*
X51762500Y-71650000D01*
X51739221Y-71648856D01*
X51716166Y-71645437D01*
X51693557Y-71639773D01*
X51671613Y-71631921D01*
X51650543Y-71621956D01*
X51630552Y-71609974D01*
X51611832Y-71596090D01*
X51594562Y-71580438D01*
X51578910Y-71563168D01*
X51565026Y-71544448D01*
X51553044Y-71524457D01*
X51543079Y-71503387D01*
X51535227Y-71481443D01*
X51529563Y-71458834D01*
X51526144Y-71435779D01*
X51525000Y-71412500D01*
X51525000Y-70837500D01*
X51526144Y-70814221D01*
X51529563Y-70791166D01*
X51535227Y-70768557D01*
X51543079Y-70746613D01*
X51553044Y-70725543D01*
X51565026Y-70705552D01*
X51578910Y-70686832D01*
X51594562Y-70669562D01*
X51611832Y-70653910D01*
X51630552Y-70640026D01*
X51650543Y-70628044D01*
X51671613Y-70618079D01*
X51693557Y-70610227D01*
X51716166Y-70604563D01*
X51739221Y-70601144D01*
X51762500Y-70600000D01*
X52237500Y-70600000D01*
X52260779Y-70601144D01*
X52260779Y-70601144D01*
G37*
D12*
X52000000Y-71125000D03*
G04 #@! TD*
D11*
G04 #@! TO.C,D24*
G36*
X52260779Y-64601144D02*
X52283834Y-64604563D01*
X52306443Y-64610227D01*
X52328387Y-64618079D01*
X52349457Y-64628044D01*
X52369448Y-64640026D01*
X52388168Y-64653910D01*
X52405438Y-64669562D01*
X52421090Y-64686832D01*
X52434974Y-64705552D01*
X52446956Y-64725543D01*
X52456921Y-64746613D01*
X52464773Y-64768557D01*
X52470437Y-64791166D01*
X52473856Y-64814221D01*
X52475000Y-64837500D01*
X52475000Y-65412500D01*
X52473856Y-65435779D01*
X52470437Y-65458834D01*
X52464773Y-65481443D01*
X52456921Y-65503387D01*
X52446956Y-65524457D01*
X52434974Y-65544448D01*
X52421090Y-65563168D01*
X52405438Y-65580438D01*
X52388168Y-65596090D01*
X52369448Y-65609974D01*
X52349457Y-65621956D01*
X52328387Y-65631921D01*
X52306443Y-65639773D01*
X52283834Y-65645437D01*
X52260779Y-65648856D01*
X52237500Y-65650000D01*
X51762500Y-65650000D01*
X51739221Y-65648856D01*
X51716166Y-65645437D01*
X51693557Y-65639773D01*
X51671613Y-65631921D01*
X51650543Y-65621956D01*
X51630552Y-65609974D01*
X51611832Y-65596090D01*
X51594562Y-65580438D01*
X51578910Y-65563168D01*
X51565026Y-65544448D01*
X51553044Y-65524457D01*
X51543079Y-65503387D01*
X51535227Y-65481443D01*
X51529563Y-65458834D01*
X51526144Y-65435779D01*
X51525000Y-65412500D01*
X51525000Y-64837500D01*
X51526144Y-64814221D01*
X51529563Y-64791166D01*
X51535227Y-64768557D01*
X51543079Y-64746613D01*
X51553044Y-64725543D01*
X51565026Y-64705552D01*
X51578910Y-64686832D01*
X51594562Y-64669562D01*
X51611832Y-64653910D01*
X51630552Y-64640026D01*
X51650543Y-64628044D01*
X51671613Y-64618079D01*
X51693557Y-64610227D01*
X51716166Y-64604563D01*
X51739221Y-64601144D01*
X51762500Y-64600000D01*
X52237500Y-64600000D01*
X52260779Y-64601144D01*
X52260779Y-64601144D01*
G37*
D12*
X52000000Y-65125000D03*
D11*
G36*
X52260779Y-66351144D02*
X52283834Y-66354563D01*
X52306443Y-66360227D01*
X52328387Y-66368079D01*
X52349457Y-66378044D01*
X52369448Y-66390026D01*
X52388168Y-66403910D01*
X52405438Y-66419562D01*
X52421090Y-66436832D01*
X52434974Y-66455552D01*
X52446956Y-66475543D01*
X52456921Y-66496613D01*
X52464773Y-66518557D01*
X52470437Y-66541166D01*
X52473856Y-66564221D01*
X52475000Y-66587500D01*
X52475000Y-67162500D01*
X52473856Y-67185779D01*
X52470437Y-67208834D01*
X52464773Y-67231443D01*
X52456921Y-67253387D01*
X52446956Y-67274457D01*
X52434974Y-67294448D01*
X52421090Y-67313168D01*
X52405438Y-67330438D01*
X52388168Y-67346090D01*
X52369448Y-67359974D01*
X52349457Y-67371956D01*
X52328387Y-67381921D01*
X52306443Y-67389773D01*
X52283834Y-67395437D01*
X52260779Y-67398856D01*
X52237500Y-67400000D01*
X51762500Y-67400000D01*
X51739221Y-67398856D01*
X51716166Y-67395437D01*
X51693557Y-67389773D01*
X51671613Y-67381921D01*
X51650543Y-67371956D01*
X51630552Y-67359974D01*
X51611832Y-67346090D01*
X51594562Y-67330438D01*
X51578910Y-67313168D01*
X51565026Y-67294448D01*
X51553044Y-67274457D01*
X51543079Y-67253387D01*
X51535227Y-67231443D01*
X51529563Y-67208834D01*
X51526144Y-67185779D01*
X51525000Y-67162500D01*
X51525000Y-66587500D01*
X51526144Y-66564221D01*
X51529563Y-66541166D01*
X51535227Y-66518557D01*
X51543079Y-66496613D01*
X51553044Y-66475543D01*
X51565026Y-66455552D01*
X51578910Y-66436832D01*
X51594562Y-66419562D01*
X51611832Y-66403910D01*
X51630552Y-66390026D01*
X51650543Y-66378044D01*
X51671613Y-66368079D01*
X51693557Y-66360227D01*
X51716166Y-66354563D01*
X51739221Y-66351144D01*
X51762500Y-66350000D01*
X52237500Y-66350000D01*
X52260779Y-66351144D01*
X52260779Y-66351144D01*
G37*
D12*
X52000000Y-66875000D03*
G04 #@! TD*
D16*
G04 #@! TO.C,Q1*
X86400000Y-67300000D03*
X84400000Y-66350000D03*
X84400000Y-68250000D03*
G04 #@! TD*
D17*
G04 #@! TO.C,Q2*
X80550000Y-68200000D03*
X78650000Y-68200000D03*
X79600000Y-66200000D03*
G04 #@! TD*
D11*
G04 #@! TO.C,R1*
G36*
X87185779Y-81776144D02*
X87208834Y-81779563D01*
X87231443Y-81785227D01*
X87253387Y-81793079D01*
X87274457Y-81803044D01*
X87294448Y-81815026D01*
X87313168Y-81828910D01*
X87330438Y-81844562D01*
X87346090Y-81861832D01*
X87359974Y-81880552D01*
X87371956Y-81900543D01*
X87381921Y-81921613D01*
X87389773Y-81943557D01*
X87395437Y-81966166D01*
X87398856Y-81989221D01*
X87400000Y-82012500D01*
X87400000Y-82487500D01*
X87398856Y-82510779D01*
X87395437Y-82533834D01*
X87389773Y-82556443D01*
X87381921Y-82578387D01*
X87371956Y-82599457D01*
X87359974Y-82619448D01*
X87346090Y-82638168D01*
X87330438Y-82655438D01*
X87313168Y-82671090D01*
X87294448Y-82684974D01*
X87274457Y-82696956D01*
X87253387Y-82706921D01*
X87231443Y-82714773D01*
X87208834Y-82720437D01*
X87185779Y-82723856D01*
X87162500Y-82725000D01*
X86587500Y-82725000D01*
X86564221Y-82723856D01*
X86541166Y-82720437D01*
X86518557Y-82714773D01*
X86496613Y-82706921D01*
X86475543Y-82696956D01*
X86455552Y-82684974D01*
X86436832Y-82671090D01*
X86419562Y-82655438D01*
X86403910Y-82638168D01*
X86390026Y-82619448D01*
X86378044Y-82599457D01*
X86368079Y-82578387D01*
X86360227Y-82556443D01*
X86354563Y-82533834D01*
X86351144Y-82510779D01*
X86350000Y-82487500D01*
X86350000Y-82012500D01*
X86351144Y-81989221D01*
X86354563Y-81966166D01*
X86360227Y-81943557D01*
X86368079Y-81921613D01*
X86378044Y-81900543D01*
X86390026Y-81880552D01*
X86403910Y-81861832D01*
X86419562Y-81844562D01*
X86436832Y-81828910D01*
X86455552Y-81815026D01*
X86475543Y-81803044D01*
X86496613Y-81793079D01*
X86518557Y-81785227D01*
X86541166Y-81779563D01*
X86564221Y-81776144D01*
X86587500Y-81775000D01*
X87162500Y-81775000D01*
X87185779Y-81776144D01*
X87185779Y-81776144D01*
G37*
D12*
X86875000Y-82250000D03*
D11*
G36*
X88935779Y-81776144D02*
X88958834Y-81779563D01*
X88981443Y-81785227D01*
X89003387Y-81793079D01*
X89024457Y-81803044D01*
X89044448Y-81815026D01*
X89063168Y-81828910D01*
X89080438Y-81844562D01*
X89096090Y-81861832D01*
X89109974Y-81880552D01*
X89121956Y-81900543D01*
X89131921Y-81921613D01*
X89139773Y-81943557D01*
X89145437Y-81966166D01*
X89148856Y-81989221D01*
X89150000Y-82012500D01*
X89150000Y-82487500D01*
X89148856Y-82510779D01*
X89145437Y-82533834D01*
X89139773Y-82556443D01*
X89131921Y-82578387D01*
X89121956Y-82599457D01*
X89109974Y-82619448D01*
X89096090Y-82638168D01*
X89080438Y-82655438D01*
X89063168Y-82671090D01*
X89044448Y-82684974D01*
X89024457Y-82696956D01*
X89003387Y-82706921D01*
X88981443Y-82714773D01*
X88958834Y-82720437D01*
X88935779Y-82723856D01*
X88912500Y-82725000D01*
X88337500Y-82725000D01*
X88314221Y-82723856D01*
X88291166Y-82720437D01*
X88268557Y-82714773D01*
X88246613Y-82706921D01*
X88225543Y-82696956D01*
X88205552Y-82684974D01*
X88186832Y-82671090D01*
X88169562Y-82655438D01*
X88153910Y-82638168D01*
X88140026Y-82619448D01*
X88128044Y-82599457D01*
X88118079Y-82578387D01*
X88110227Y-82556443D01*
X88104563Y-82533834D01*
X88101144Y-82510779D01*
X88100000Y-82487500D01*
X88100000Y-82012500D01*
X88101144Y-81989221D01*
X88104563Y-81966166D01*
X88110227Y-81943557D01*
X88118079Y-81921613D01*
X88128044Y-81900543D01*
X88140026Y-81880552D01*
X88153910Y-81861832D01*
X88169562Y-81844562D01*
X88186832Y-81828910D01*
X88205552Y-81815026D01*
X88225543Y-81803044D01*
X88246613Y-81793079D01*
X88268557Y-81785227D01*
X88291166Y-81779563D01*
X88314221Y-81776144D01*
X88337500Y-81775000D01*
X88912500Y-81775000D01*
X88935779Y-81776144D01*
X88935779Y-81776144D01*
G37*
D12*
X88625000Y-82250000D03*
G04 #@! TD*
D11*
G04 #@! TO.C,R5*
G36*
X87260779Y-77351144D02*
X87283834Y-77354563D01*
X87306443Y-77360227D01*
X87328387Y-77368079D01*
X87349457Y-77378044D01*
X87369448Y-77390026D01*
X87388168Y-77403910D01*
X87405438Y-77419562D01*
X87421090Y-77436832D01*
X87434974Y-77455552D01*
X87446956Y-77475543D01*
X87456921Y-77496613D01*
X87464773Y-77518557D01*
X87470437Y-77541166D01*
X87473856Y-77564221D01*
X87475000Y-77587500D01*
X87475000Y-78162500D01*
X87473856Y-78185779D01*
X87470437Y-78208834D01*
X87464773Y-78231443D01*
X87456921Y-78253387D01*
X87446956Y-78274457D01*
X87434974Y-78294448D01*
X87421090Y-78313168D01*
X87405438Y-78330438D01*
X87388168Y-78346090D01*
X87369448Y-78359974D01*
X87349457Y-78371956D01*
X87328387Y-78381921D01*
X87306443Y-78389773D01*
X87283834Y-78395437D01*
X87260779Y-78398856D01*
X87237500Y-78400000D01*
X86762500Y-78400000D01*
X86739221Y-78398856D01*
X86716166Y-78395437D01*
X86693557Y-78389773D01*
X86671613Y-78381921D01*
X86650543Y-78371956D01*
X86630552Y-78359974D01*
X86611832Y-78346090D01*
X86594562Y-78330438D01*
X86578910Y-78313168D01*
X86565026Y-78294448D01*
X86553044Y-78274457D01*
X86543079Y-78253387D01*
X86535227Y-78231443D01*
X86529563Y-78208834D01*
X86526144Y-78185779D01*
X86525000Y-78162500D01*
X86525000Y-77587500D01*
X86526144Y-77564221D01*
X86529563Y-77541166D01*
X86535227Y-77518557D01*
X86543079Y-77496613D01*
X86553044Y-77475543D01*
X86565026Y-77455552D01*
X86578910Y-77436832D01*
X86594562Y-77419562D01*
X86611832Y-77403910D01*
X86630552Y-77390026D01*
X86650543Y-77378044D01*
X86671613Y-77368079D01*
X86693557Y-77360227D01*
X86716166Y-77354563D01*
X86739221Y-77351144D01*
X86762500Y-77350000D01*
X87237500Y-77350000D01*
X87260779Y-77351144D01*
X87260779Y-77351144D01*
G37*
D12*
X87000000Y-77875000D03*
D11*
G36*
X87260779Y-75601144D02*
X87283834Y-75604563D01*
X87306443Y-75610227D01*
X87328387Y-75618079D01*
X87349457Y-75628044D01*
X87369448Y-75640026D01*
X87388168Y-75653910D01*
X87405438Y-75669562D01*
X87421090Y-75686832D01*
X87434974Y-75705552D01*
X87446956Y-75725543D01*
X87456921Y-75746613D01*
X87464773Y-75768557D01*
X87470437Y-75791166D01*
X87473856Y-75814221D01*
X87475000Y-75837500D01*
X87475000Y-76412500D01*
X87473856Y-76435779D01*
X87470437Y-76458834D01*
X87464773Y-76481443D01*
X87456921Y-76503387D01*
X87446956Y-76524457D01*
X87434974Y-76544448D01*
X87421090Y-76563168D01*
X87405438Y-76580438D01*
X87388168Y-76596090D01*
X87369448Y-76609974D01*
X87349457Y-76621956D01*
X87328387Y-76631921D01*
X87306443Y-76639773D01*
X87283834Y-76645437D01*
X87260779Y-76648856D01*
X87237500Y-76650000D01*
X86762500Y-76650000D01*
X86739221Y-76648856D01*
X86716166Y-76645437D01*
X86693557Y-76639773D01*
X86671613Y-76631921D01*
X86650543Y-76621956D01*
X86630552Y-76609974D01*
X86611832Y-76596090D01*
X86594562Y-76580438D01*
X86578910Y-76563168D01*
X86565026Y-76544448D01*
X86553044Y-76524457D01*
X86543079Y-76503387D01*
X86535227Y-76481443D01*
X86529563Y-76458834D01*
X86526144Y-76435779D01*
X86525000Y-76412500D01*
X86525000Y-75837500D01*
X86526144Y-75814221D01*
X86529563Y-75791166D01*
X86535227Y-75768557D01*
X86543079Y-75746613D01*
X86553044Y-75725543D01*
X86565026Y-75705552D01*
X86578910Y-75686832D01*
X86594562Y-75669562D01*
X86611832Y-75653910D01*
X86630552Y-75640026D01*
X86650543Y-75628044D01*
X86671613Y-75618079D01*
X86693557Y-75610227D01*
X86716166Y-75604563D01*
X86739221Y-75601144D01*
X86762500Y-75600000D01*
X87237500Y-75600000D01*
X87260779Y-75601144D01*
X87260779Y-75601144D01*
G37*
D12*
X87000000Y-76125000D03*
G04 #@! TD*
D11*
G04 #@! TO.C,R6*
G36*
X153435779Y-83426144D02*
X153458834Y-83429563D01*
X153481443Y-83435227D01*
X153503387Y-83443079D01*
X153524457Y-83453044D01*
X153544448Y-83465026D01*
X153563168Y-83478910D01*
X153580438Y-83494562D01*
X153596090Y-83511832D01*
X153609974Y-83530552D01*
X153621956Y-83550543D01*
X153631921Y-83571613D01*
X153639773Y-83593557D01*
X153645437Y-83616166D01*
X153648856Y-83639221D01*
X153650000Y-83662500D01*
X153650000Y-84137500D01*
X153648856Y-84160779D01*
X153645437Y-84183834D01*
X153639773Y-84206443D01*
X153631921Y-84228387D01*
X153621956Y-84249457D01*
X153609974Y-84269448D01*
X153596090Y-84288168D01*
X153580438Y-84305438D01*
X153563168Y-84321090D01*
X153544448Y-84334974D01*
X153524457Y-84346956D01*
X153503387Y-84356921D01*
X153481443Y-84364773D01*
X153458834Y-84370437D01*
X153435779Y-84373856D01*
X153412500Y-84375000D01*
X152837500Y-84375000D01*
X152814221Y-84373856D01*
X152791166Y-84370437D01*
X152768557Y-84364773D01*
X152746613Y-84356921D01*
X152725543Y-84346956D01*
X152705552Y-84334974D01*
X152686832Y-84321090D01*
X152669562Y-84305438D01*
X152653910Y-84288168D01*
X152640026Y-84269448D01*
X152628044Y-84249457D01*
X152618079Y-84228387D01*
X152610227Y-84206443D01*
X152604563Y-84183834D01*
X152601144Y-84160779D01*
X152600000Y-84137500D01*
X152600000Y-83662500D01*
X152601144Y-83639221D01*
X152604563Y-83616166D01*
X152610227Y-83593557D01*
X152618079Y-83571613D01*
X152628044Y-83550543D01*
X152640026Y-83530552D01*
X152653910Y-83511832D01*
X152669562Y-83494562D01*
X152686832Y-83478910D01*
X152705552Y-83465026D01*
X152725543Y-83453044D01*
X152746613Y-83443079D01*
X152768557Y-83435227D01*
X152791166Y-83429563D01*
X152814221Y-83426144D01*
X152837500Y-83425000D01*
X153412500Y-83425000D01*
X153435779Y-83426144D01*
X153435779Y-83426144D01*
G37*
D12*
X153125000Y-83900000D03*
D11*
G36*
X155185779Y-83426144D02*
X155208834Y-83429563D01*
X155231443Y-83435227D01*
X155253387Y-83443079D01*
X155274457Y-83453044D01*
X155294448Y-83465026D01*
X155313168Y-83478910D01*
X155330438Y-83494562D01*
X155346090Y-83511832D01*
X155359974Y-83530552D01*
X155371956Y-83550543D01*
X155381921Y-83571613D01*
X155389773Y-83593557D01*
X155395437Y-83616166D01*
X155398856Y-83639221D01*
X155400000Y-83662500D01*
X155400000Y-84137500D01*
X155398856Y-84160779D01*
X155395437Y-84183834D01*
X155389773Y-84206443D01*
X155381921Y-84228387D01*
X155371956Y-84249457D01*
X155359974Y-84269448D01*
X155346090Y-84288168D01*
X155330438Y-84305438D01*
X155313168Y-84321090D01*
X155294448Y-84334974D01*
X155274457Y-84346956D01*
X155253387Y-84356921D01*
X155231443Y-84364773D01*
X155208834Y-84370437D01*
X155185779Y-84373856D01*
X155162500Y-84375000D01*
X154587500Y-84375000D01*
X154564221Y-84373856D01*
X154541166Y-84370437D01*
X154518557Y-84364773D01*
X154496613Y-84356921D01*
X154475543Y-84346956D01*
X154455552Y-84334974D01*
X154436832Y-84321090D01*
X154419562Y-84305438D01*
X154403910Y-84288168D01*
X154390026Y-84269448D01*
X154378044Y-84249457D01*
X154368079Y-84228387D01*
X154360227Y-84206443D01*
X154354563Y-84183834D01*
X154351144Y-84160779D01*
X154350000Y-84137500D01*
X154350000Y-83662500D01*
X154351144Y-83639221D01*
X154354563Y-83616166D01*
X154360227Y-83593557D01*
X154368079Y-83571613D01*
X154378044Y-83550543D01*
X154390026Y-83530552D01*
X154403910Y-83511832D01*
X154419562Y-83494562D01*
X154436832Y-83478910D01*
X154455552Y-83465026D01*
X154475543Y-83453044D01*
X154496613Y-83443079D01*
X154518557Y-83435227D01*
X154541166Y-83429563D01*
X154564221Y-83426144D01*
X154587500Y-83425000D01*
X155162500Y-83425000D01*
X155185779Y-83426144D01*
X155185779Y-83426144D01*
G37*
D12*
X154875000Y-83900000D03*
G04 #@! TD*
D11*
G04 #@! TO.C,R7*
G36*
X155185779Y-81526144D02*
X155208834Y-81529563D01*
X155231443Y-81535227D01*
X155253387Y-81543079D01*
X155274457Y-81553044D01*
X155294448Y-81565026D01*
X155313168Y-81578910D01*
X155330438Y-81594562D01*
X155346090Y-81611832D01*
X155359974Y-81630552D01*
X155371956Y-81650543D01*
X155381921Y-81671613D01*
X155389773Y-81693557D01*
X155395437Y-81716166D01*
X155398856Y-81739221D01*
X155400000Y-81762500D01*
X155400000Y-82237500D01*
X155398856Y-82260779D01*
X155395437Y-82283834D01*
X155389773Y-82306443D01*
X155381921Y-82328387D01*
X155371956Y-82349457D01*
X155359974Y-82369448D01*
X155346090Y-82388168D01*
X155330438Y-82405438D01*
X155313168Y-82421090D01*
X155294448Y-82434974D01*
X155274457Y-82446956D01*
X155253387Y-82456921D01*
X155231443Y-82464773D01*
X155208834Y-82470437D01*
X155185779Y-82473856D01*
X155162500Y-82475000D01*
X154587500Y-82475000D01*
X154564221Y-82473856D01*
X154541166Y-82470437D01*
X154518557Y-82464773D01*
X154496613Y-82456921D01*
X154475543Y-82446956D01*
X154455552Y-82434974D01*
X154436832Y-82421090D01*
X154419562Y-82405438D01*
X154403910Y-82388168D01*
X154390026Y-82369448D01*
X154378044Y-82349457D01*
X154368079Y-82328387D01*
X154360227Y-82306443D01*
X154354563Y-82283834D01*
X154351144Y-82260779D01*
X154350000Y-82237500D01*
X154350000Y-81762500D01*
X154351144Y-81739221D01*
X154354563Y-81716166D01*
X154360227Y-81693557D01*
X154368079Y-81671613D01*
X154378044Y-81650543D01*
X154390026Y-81630552D01*
X154403910Y-81611832D01*
X154419562Y-81594562D01*
X154436832Y-81578910D01*
X154455552Y-81565026D01*
X154475543Y-81553044D01*
X154496613Y-81543079D01*
X154518557Y-81535227D01*
X154541166Y-81529563D01*
X154564221Y-81526144D01*
X154587500Y-81525000D01*
X155162500Y-81525000D01*
X155185779Y-81526144D01*
X155185779Y-81526144D01*
G37*
D12*
X154875000Y-82000000D03*
D11*
G36*
X153435779Y-81526144D02*
X153458834Y-81529563D01*
X153481443Y-81535227D01*
X153503387Y-81543079D01*
X153524457Y-81553044D01*
X153544448Y-81565026D01*
X153563168Y-81578910D01*
X153580438Y-81594562D01*
X153596090Y-81611832D01*
X153609974Y-81630552D01*
X153621956Y-81650543D01*
X153631921Y-81671613D01*
X153639773Y-81693557D01*
X153645437Y-81716166D01*
X153648856Y-81739221D01*
X153650000Y-81762500D01*
X153650000Y-82237500D01*
X153648856Y-82260779D01*
X153645437Y-82283834D01*
X153639773Y-82306443D01*
X153631921Y-82328387D01*
X153621956Y-82349457D01*
X153609974Y-82369448D01*
X153596090Y-82388168D01*
X153580438Y-82405438D01*
X153563168Y-82421090D01*
X153544448Y-82434974D01*
X153524457Y-82446956D01*
X153503387Y-82456921D01*
X153481443Y-82464773D01*
X153458834Y-82470437D01*
X153435779Y-82473856D01*
X153412500Y-82475000D01*
X152837500Y-82475000D01*
X152814221Y-82473856D01*
X152791166Y-82470437D01*
X152768557Y-82464773D01*
X152746613Y-82456921D01*
X152725543Y-82446956D01*
X152705552Y-82434974D01*
X152686832Y-82421090D01*
X152669562Y-82405438D01*
X152653910Y-82388168D01*
X152640026Y-82369448D01*
X152628044Y-82349457D01*
X152618079Y-82328387D01*
X152610227Y-82306443D01*
X152604563Y-82283834D01*
X152601144Y-82260779D01*
X152600000Y-82237500D01*
X152600000Y-81762500D01*
X152601144Y-81739221D01*
X152604563Y-81716166D01*
X152610227Y-81693557D01*
X152618079Y-81671613D01*
X152628044Y-81650543D01*
X152640026Y-81630552D01*
X152653910Y-81611832D01*
X152669562Y-81594562D01*
X152686832Y-81578910D01*
X152705552Y-81565026D01*
X152725543Y-81553044D01*
X152746613Y-81543079D01*
X152768557Y-81535227D01*
X152791166Y-81529563D01*
X152814221Y-81526144D01*
X152837500Y-81525000D01*
X153412500Y-81525000D01*
X153435779Y-81526144D01*
X153435779Y-81526144D01*
G37*
D12*
X153125000Y-82000000D03*
G04 #@! TD*
D11*
G04 #@! TO.C,R9*
G36*
X155185779Y-79626144D02*
X155208834Y-79629563D01*
X155231443Y-79635227D01*
X155253387Y-79643079D01*
X155274457Y-79653044D01*
X155294448Y-79665026D01*
X155313168Y-79678910D01*
X155330438Y-79694562D01*
X155346090Y-79711832D01*
X155359974Y-79730552D01*
X155371956Y-79750543D01*
X155381921Y-79771613D01*
X155389773Y-79793557D01*
X155395437Y-79816166D01*
X155398856Y-79839221D01*
X155400000Y-79862500D01*
X155400000Y-80337500D01*
X155398856Y-80360779D01*
X155395437Y-80383834D01*
X155389773Y-80406443D01*
X155381921Y-80428387D01*
X155371956Y-80449457D01*
X155359974Y-80469448D01*
X155346090Y-80488168D01*
X155330438Y-80505438D01*
X155313168Y-80521090D01*
X155294448Y-80534974D01*
X155274457Y-80546956D01*
X155253387Y-80556921D01*
X155231443Y-80564773D01*
X155208834Y-80570437D01*
X155185779Y-80573856D01*
X155162500Y-80575000D01*
X154587500Y-80575000D01*
X154564221Y-80573856D01*
X154541166Y-80570437D01*
X154518557Y-80564773D01*
X154496613Y-80556921D01*
X154475543Y-80546956D01*
X154455552Y-80534974D01*
X154436832Y-80521090D01*
X154419562Y-80505438D01*
X154403910Y-80488168D01*
X154390026Y-80469448D01*
X154378044Y-80449457D01*
X154368079Y-80428387D01*
X154360227Y-80406443D01*
X154354563Y-80383834D01*
X154351144Y-80360779D01*
X154350000Y-80337500D01*
X154350000Y-79862500D01*
X154351144Y-79839221D01*
X154354563Y-79816166D01*
X154360227Y-79793557D01*
X154368079Y-79771613D01*
X154378044Y-79750543D01*
X154390026Y-79730552D01*
X154403910Y-79711832D01*
X154419562Y-79694562D01*
X154436832Y-79678910D01*
X154455552Y-79665026D01*
X154475543Y-79653044D01*
X154496613Y-79643079D01*
X154518557Y-79635227D01*
X154541166Y-79629563D01*
X154564221Y-79626144D01*
X154587500Y-79625000D01*
X155162500Y-79625000D01*
X155185779Y-79626144D01*
X155185779Y-79626144D01*
G37*
D12*
X154875000Y-80100000D03*
D11*
G36*
X153435779Y-79626144D02*
X153458834Y-79629563D01*
X153481443Y-79635227D01*
X153503387Y-79643079D01*
X153524457Y-79653044D01*
X153544448Y-79665026D01*
X153563168Y-79678910D01*
X153580438Y-79694562D01*
X153596090Y-79711832D01*
X153609974Y-79730552D01*
X153621956Y-79750543D01*
X153631921Y-79771613D01*
X153639773Y-79793557D01*
X153645437Y-79816166D01*
X153648856Y-79839221D01*
X153650000Y-79862500D01*
X153650000Y-80337500D01*
X153648856Y-80360779D01*
X153645437Y-80383834D01*
X153639773Y-80406443D01*
X153631921Y-80428387D01*
X153621956Y-80449457D01*
X153609974Y-80469448D01*
X153596090Y-80488168D01*
X153580438Y-80505438D01*
X153563168Y-80521090D01*
X153544448Y-80534974D01*
X153524457Y-80546956D01*
X153503387Y-80556921D01*
X153481443Y-80564773D01*
X153458834Y-80570437D01*
X153435779Y-80573856D01*
X153412500Y-80575000D01*
X152837500Y-80575000D01*
X152814221Y-80573856D01*
X152791166Y-80570437D01*
X152768557Y-80564773D01*
X152746613Y-80556921D01*
X152725543Y-80546956D01*
X152705552Y-80534974D01*
X152686832Y-80521090D01*
X152669562Y-80505438D01*
X152653910Y-80488168D01*
X152640026Y-80469448D01*
X152628044Y-80449457D01*
X152618079Y-80428387D01*
X152610227Y-80406443D01*
X152604563Y-80383834D01*
X152601144Y-80360779D01*
X152600000Y-80337500D01*
X152600000Y-79862500D01*
X152601144Y-79839221D01*
X152604563Y-79816166D01*
X152610227Y-79793557D01*
X152618079Y-79771613D01*
X152628044Y-79750543D01*
X152640026Y-79730552D01*
X152653910Y-79711832D01*
X152669562Y-79694562D01*
X152686832Y-79678910D01*
X152705552Y-79665026D01*
X152725543Y-79653044D01*
X152746613Y-79643079D01*
X152768557Y-79635227D01*
X152791166Y-79629563D01*
X152814221Y-79626144D01*
X152837500Y-79625000D01*
X153412500Y-79625000D01*
X153435779Y-79626144D01*
X153435779Y-79626144D01*
G37*
D12*
X153125000Y-80100000D03*
G04 #@! TD*
D11*
G04 #@! TO.C,R12*
G36*
X76960779Y-65801144D02*
X76983834Y-65804563D01*
X77006443Y-65810227D01*
X77028387Y-65818079D01*
X77049457Y-65828044D01*
X77069448Y-65840026D01*
X77088168Y-65853910D01*
X77105438Y-65869562D01*
X77121090Y-65886832D01*
X77134974Y-65905552D01*
X77146956Y-65925543D01*
X77156921Y-65946613D01*
X77164773Y-65968557D01*
X77170437Y-65991166D01*
X77173856Y-66014221D01*
X77175000Y-66037500D01*
X77175000Y-66612500D01*
X77173856Y-66635779D01*
X77170437Y-66658834D01*
X77164773Y-66681443D01*
X77156921Y-66703387D01*
X77146956Y-66724457D01*
X77134974Y-66744448D01*
X77121090Y-66763168D01*
X77105438Y-66780438D01*
X77088168Y-66796090D01*
X77069448Y-66809974D01*
X77049457Y-66821956D01*
X77028387Y-66831921D01*
X77006443Y-66839773D01*
X76983834Y-66845437D01*
X76960779Y-66848856D01*
X76937500Y-66850000D01*
X76462500Y-66850000D01*
X76439221Y-66848856D01*
X76416166Y-66845437D01*
X76393557Y-66839773D01*
X76371613Y-66831921D01*
X76350543Y-66821956D01*
X76330552Y-66809974D01*
X76311832Y-66796090D01*
X76294562Y-66780438D01*
X76278910Y-66763168D01*
X76265026Y-66744448D01*
X76253044Y-66724457D01*
X76243079Y-66703387D01*
X76235227Y-66681443D01*
X76229563Y-66658834D01*
X76226144Y-66635779D01*
X76225000Y-66612500D01*
X76225000Y-66037500D01*
X76226144Y-66014221D01*
X76229563Y-65991166D01*
X76235227Y-65968557D01*
X76243079Y-65946613D01*
X76253044Y-65925543D01*
X76265026Y-65905552D01*
X76278910Y-65886832D01*
X76294562Y-65869562D01*
X76311832Y-65853910D01*
X76330552Y-65840026D01*
X76350543Y-65828044D01*
X76371613Y-65818079D01*
X76393557Y-65810227D01*
X76416166Y-65804563D01*
X76439221Y-65801144D01*
X76462500Y-65800000D01*
X76937500Y-65800000D01*
X76960779Y-65801144D01*
X76960779Y-65801144D01*
G37*
D12*
X76700000Y-66325000D03*
D11*
G36*
X76960779Y-67551144D02*
X76983834Y-67554563D01*
X77006443Y-67560227D01*
X77028387Y-67568079D01*
X77049457Y-67578044D01*
X77069448Y-67590026D01*
X77088168Y-67603910D01*
X77105438Y-67619562D01*
X77121090Y-67636832D01*
X77134974Y-67655552D01*
X77146956Y-67675543D01*
X77156921Y-67696613D01*
X77164773Y-67718557D01*
X77170437Y-67741166D01*
X77173856Y-67764221D01*
X77175000Y-67787500D01*
X77175000Y-68362500D01*
X77173856Y-68385779D01*
X77170437Y-68408834D01*
X77164773Y-68431443D01*
X77156921Y-68453387D01*
X77146956Y-68474457D01*
X77134974Y-68494448D01*
X77121090Y-68513168D01*
X77105438Y-68530438D01*
X77088168Y-68546090D01*
X77069448Y-68559974D01*
X77049457Y-68571956D01*
X77028387Y-68581921D01*
X77006443Y-68589773D01*
X76983834Y-68595437D01*
X76960779Y-68598856D01*
X76937500Y-68600000D01*
X76462500Y-68600000D01*
X76439221Y-68598856D01*
X76416166Y-68595437D01*
X76393557Y-68589773D01*
X76371613Y-68581921D01*
X76350543Y-68571956D01*
X76330552Y-68559974D01*
X76311832Y-68546090D01*
X76294562Y-68530438D01*
X76278910Y-68513168D01*
X76265026Y-68494448D01*
X76253044Y-68474457D01*
X76243079Y-68453387D01*
X76235227Y-68431443D01*
X76229563Y-68408834D01*
X76226144Y-68385779D01*
X76225000Y-68362500D01*
X76225000Y-67787500D01*
X76226144Y-67764221D01*
X76229563Y-67741166D01*
X76235227Y-67718557D01*
X76243079Y-67696613D01*
X76253044Y-67675543D01*
X76265026Y-67655552D01*
X76278910Y-67636832D01*
X76294562Y-67619562D01*
X76311832Y-67603910D01*
X76330552Y-67590026D01*
X76350543Y-67578044D01*
X76371613Y-67568079D01*
X76393557Y-67560227D01*
X76416166Y-67554563D01*
X76439221Y-67551144D01*
X76462500Y-67550000D01*
X76937500Y-67550000D01*
X76960779Y-67551144D01*
X76960779Y-67551144D01*
G37*
D12*
X76700000Y-68075000D03*
G04 #@! TD*
D11*
G04 #@! TO.C,R13*
G36*
X113010779Y-94101144D02*
X113033834Y-94104563D01*
X113056443Y-94110227D01*
X113078387Y-94118079D01*
X113099457Y-94128044D01*
X113119448Y-94140026D01*
X113138168Y-94153910D01*
X113155438Y-94169562D01*
X113171090Y-94186832D01*
X113184974Y-94205552D01*
X113196956Y-94225543D01*
X113206921Y-94246613D01*
X113214773Y-94268557D01*
X113220437Y-94291166D01*
X113223856Y-94314221D01*
X113225000Y-94337500D01*
X113225000Y-94912500D01*
X113223856Y-94935779D01*
X113220437Y-94958834D01*
X113214773Y-94981443D01*
X113206921Y-95003387D01*
X113196956Y-95024457D01*
X113184974Y-95044448D01*
X113171090Y-95063168D01*
X113155438Y-95080438D01*
X113138168Y-95096090D01*
X113119448Y-95109974D01*
X113099457Y-95121956D01*
X113078387Y-95131921D01*
X113056443Y-95139773D01*
X113033834Y-95145437D01*
X113010779Y-95148856D01*
X112987500Y-95150000D01*
X112512500Y-95150000D01*
X112489221Y-95148856D01*
X112466166Y-95145437D01*
X112443557Y-95139773D01*
X112421613Y-95131921D01*
X112400543Y-95121956D01*
X112380552Y-95109974D01*
X112361832Y-95096090D01*
X112344562Y-95080438D01*
X112328910Y-95063168D01*
X112315026Y-95044448D01*
X112303044Y-95024457D01*
X112293079Y-95003387D01*
X112285227Y-94981443D01*
X112279563Y-94958834D01*
X112276144Y-94935779D01*
X112275000Y-94912500D01*
X112275000Y-94337500D01*
X112276144Y-94314221D01*
X112279563Y-94291166D01*
X112285227Y-94268557D01*
X112293079Y-94246613D01*
X112303044Y-94225543D01*
X112315026Y-94205552D01*
X112328910Y-94186832D01*
X112344562Y-94169562D01*
X112361832Y-94153910D01*
X112380552Y-94140026D01*
X112400543Y-94128044D01*
X112421613Y-94118079D01*
X112443557Y-94110227D01*
X112466166Y-94104563D01*
X112489221Y-94101144D01*
X112512500Y-94100000D01*
X112987500Y-94100000D01*
X113010779Y-94101144D01*
X113010779Y-94101144D01*
G37*
D12*
X112750000Y-94625000D03*
D11*
G36*
X113010779Y-92351144D02*
X113033834Y-92354563D01*
X113056443Y-92360227D01*
X113078387Y-92368079D01*
X113099457Y-92378044D01*
X113119448Y-92390026D01*
X113138168Y-92403910D01*
X113155438Y-92419562D01*
X113171090Y-92436832D01*
X113184974Y-92455552D01*
X113196956Y-92475543D01*
X113206921Y-92496613D01*
X113214773Y-92518557D01*
X113220437Y-92541166D01*
X113223856Y-92564221D01*
X113225000Y-92587500D01*
X113225000Y-93162500D01*
X113223856Y-93185779D01*
X113220437Y-93208834D01*
X113214773Y-93231443D01*
X113206921Y-93253387D01*
X113196956Y-93274457D01*
X113184974Y-93294448D01*
X113171090Y-93313168D01*
X113155438Y-93330438D01*
X113138168Y-93346090D01*
X113119448Y-93359974D01*
X113099457Y-93371956D01*
X113078387Y-93381921D01*
X113056443Y-93389773D01*
X113033834Y-93395437D01*
X113010779Y-93398856D01*
X112987500Y-93400000D01*
X112512500Y-93400000D01*
X112489221Y-93398856D01*
X112466166Y-93395437D01*
X112443557Y-93389773D01*
X112421613Y-93381921D01*
X112400543Y-93371956D01*
X112380552Y-93359974D01*
X112361832Y-93346090D01*
X112344562Y-93330438D01*
X112328910Y-93313168D01*
X112315026Y-93294448D01*
X112303044Y-93274457D01*
X112293079Y-93253387D01*
X112285227Y-93231443D01*
X112279563Y-93208834D01*
X112276144Y-93185779D01*
X112275000Y-93162500D01*
X112275000Y-92587500D01*
X112276144Y-92564221D01*
X112279563Y-92541166D01*
X112285227Y-92518557D01*
X112293079Y-92496613D01*
X112303044Y-92475543D01*
X112315026Y-92455552D01*
X112328910Y-92436832D01*
X112344562Y-92419562D01*
X112361832Y-92403910D01*
X112380552Y-92390026D01*
X112400543Y-92378044D01*
X112421613Y-92368079D01*
X112443557Y-92360227D01*
X112466166Y-92354563D01*
X112489221Y-92351144D01*
X112512500Y-92350000D01*
X112987500Y-92350000D01*
X113010779Y-92351144D01*
X113010779Y-92351144D01*
G37*
D12*
X112750000Y-92875000D03*
G04 #@! TD*
D11*
G04 #@! TO.C,R15*
G36*
X90510779Y-66601144D02*
X90533834Y-66604563D01*
X90556443Y-66610227D01*
X90578387Y-66618079D01*
X90599457Y-66628044D01*
X90619448Y-66640026D01*
X90638168Y-66653910D01*
X90655438Y-66669562D01*
X90671090Y-66686832D01*
X90684974Y-66705552D01*
X90696956Y-66725543D01*
X90706921Y-66746613D01*
X90714773Y-66768557D01*
X90720437Y-66791166D01*
X90723856Y-66814221D01*
X90725000Y-66837500D01*
X90725000Y-67412500D01*
X90723856Y-67435779D01*
X90720437Y-67458834D01*
X90714773Y-67481443D01*
X90706921Y-67503387D01*
X90696956Y-67524457D01*
X90684974Y-67544448D01*
X90671090Y-67563168D01*
X90655438Y-67580438D01*
X90638168Y-67596090D01*
X90619448Y-67609974D01*
X90599457Y-67621956D01*
X90578387Y-67631921D01*
X90556443Y-67639773D01*
X90533834Y-67645437D01*
X90510779Y-67648856D01*
X90487500Y-67650000D01*
X90012500Y-67650000D01*
X89989221Y-67648856D01*
X89966166Y-67645437D01*
X89943557Y-67639773D01*
X89921613Y-67631921D01*
X89900543Y-67621956D01*
X89880552Y-67609974D01*
X89861832Y-67596090D01*
X89844562Y-67580438D01*
X89828910Y-67563168D01*
X89815026Y-67544448D01*
X89803044Y-67524457D01*
X89793079Y-67503387D01*
X89785227Y-67481443D01*
X89779563Y-67458834D01*
X89776144Y-67435779D01*
X89775000Y-67412500D01*
X89775000Y-66837500D01*
X89776144Y-66814221D01*
X89779563Y-66791166D01*
X89785227Y-66768557D01*
X89793079Y-66746613D01*
X89803044Y-66725543D01*
X89815026Y-66705552D01*
X89828910Y-66686832D01*
X89844562Y-66669562D01*
X89861832Y-66653910D01*
X89880552Y-66640026D01*
X89900543Y-66628044D01*
X89921613Y-66618079D01*
X89943557Y-66610227D01*
X89966166Y-66604563D01*
X89989221Y-66601144D01*
X90012500Y-66600000D01*
X90487500Y-66600000D01*
X90510779Y-66601144D01*
X90510779Y-66601144D01*
G37*
D12*
X90250000Y-67125000D03*
D11*
G36*
X90510779Y-68351144D02*
X90533834Y-68354563D01*
X90556443Y-68360227D01*
X90578387Y-68368079D01*
X90599457Y-68378044D01*
X90619448Y-68390026D01*
X90638168Y-68403910D01*
X90655438Y-68419562D01*
X90671090Y-68436832D01*
X90684974Y-68455552D01*
X90696956Y-68475543D01*
X90706921Y-68496613D01*
X90714773Y-68518557D01*
X90720437Y-68541166D01*
X90723856Y-68564221D01*
X90725000Y-68587500D01*
X90725000Y-69162500D01*
X90723856Y-69185779D01*
X90720437Y-69208834D01*
X90714773Y-69231443D01*
X90706921Y-69253387D01*
X90696956Y-69274457D01*
X90684974Y-69294448D01*
X90671090Y-69313168D01*
X90655438Y-69330438D01*
X90638168Y-69346090D01*
X90619448Y-69359974D01*
X90599457Y-69371956D01*
X90578387Y-69381921D01*
X90556443Y-69389773D01*
X90533834Y-69395437D01*
X90510779Y-69398856D01*
X90487500Y-69400000D01*
X90012500Y-69400000D01*
X89989221Y-69398856D01*
X89966166Y-69395437D01*
X89943557Y-69389773D01*
X89921613Y-69381921D01*
X89900543Y-69371956D01*
X89880552Y-69359974D01*
X89861832Y-69346090D01*
X89844562Y-69330438D01*
X89828910Y-69313168D01*
X89815026Y-69294448D01*
X89803044Y-69274457D01*
X89793079Y-69253387D01*
X89785227Y-69231443D01*
X89779563Y-69208834D01*
X89776144Y-69185779D01*
X89775000Y-69162500D01*
X89775000Y-68587500D01*
X89776144Y-68564221D01*
X89779563Y-68541166D01*
X89785227Y-68518557D01*
X89793079Y-68496613D01*
X89803044Y-68475543D01*
X89815026Y-68455552D01*
X89828910Y-68436832D01*
X89844562Y-68419562D01*
X89861832Y-68403910D01*
X89880552Y-68390026D01*
X89900543Y-68378044D01*
X89921613Y-68368079D01*
X89943557Y-68360227D01*
X89966166Y-68354563D01*
X89989221Y-68351144D01*
X90012500Y-68350000D01*
X90487500Y-68350000D01*
X90510779Y-68351144D01*
X90510779Y-68351144D01*
G37*
D12*
X90250000Y-68875000D03*
G04 #@! TD*
D11*
G04 #@! TO.C,R16*
G36*
X113010779Y-66851144D02*
X113033834Y-66854563D01*
X113056443Y-66860227D01*
X113078387Y-66868079D01*
X113099457Y-66878044D01*
X113119448Y-66890026D01*
X113138168Y-66903910D01*
X113155438Y-66919562D01*
X113171090Y-66936832D01*
X113184974Y-66955552D01*
X113196956Y-66975543D01*
X113206921Y-66996613D01*
X113214773Y-67018557D01*
X113220437Y-67041166D01*
X113223856Y-67064221D01*
X113225000Y-67087500D01*
X113225000Y-67662500D01*
X113223856Y-67685779D01*
X113220437Y-67708834D01*
X113214773Y-67731443D01*
X113206921Y-67753387D01*
X113196956Y-67774457D01*
X113184974Y-67794448D01*
X113171090Y-67813168D01*
X113155438Y-67830438D01*
X113138168Y-67846090D01*
X113119448Y-67859974D01*
X113099457Y-67871956D01*
X113078387Y-67881921D01*
X113056443Y-67889773D01*
X113033834Y-67895437D01*
X113010779Y-67898856D01*
X112987500Y-67900000D01*
X112512500Y-67900000D01*
X112489221Y-67898856D01*
X112466166Y-67895437D01*
X112443557Y-67889773D01*
X112421613Y-67881921D01*
X112400543Y-67871956D01*
X112380552Y-67859974D01*
X112361832Y-67846090D01*
X112344562Y-67830438D01*
X112328910Y-67813168D01*
X112315026Y-67794448D01*
X112303044Y-67774457D01*
X112293079Y-67753387D01*
X112285227Y-67731443D01*
X112279563Y-67708834D01*
X112276144Y-67685779D01*
X112275000Y-67662500D01*
X112275000Y-67087500D01*
X112276144Y-67064221D01*
X112279563Y-67041166D01*
X112285227Y-67018557D01*
X112293079Y-66996613D01*
X112303044Y-66975543D01*
X112315026Y-66955552D01*
X112328910Y-66936832D01*
X112344562Y-66919562D01*
X112361832Y-66903910D01*
X112380552Y-66890026D01*
X112400543Y-66878044D01*
X112421613Y-66868079D01*
X112443557Y-66860227D01*
X112466166Y-66854563D01*
X112489221Y-66851144D01*
X112512500Y-66850000D01*
X112987500Y-66850000D01*
X113010779Y-66851144D01*
X113010779Y-66851144D01*
G37*
D12*
X112750000Y-67375000D03*
D11*
G36*
X113010779Y-65101144D02*
X113033834Y-65104563D01*
X113056443Y-65110227D01*
X113078387Y-65118079D01*
X113099457Y-65128044D01*
X113119448Y-65140026D01*
X113138168Y-65153910D01*
X113155438Y-65169562D01*
X113171090Y-65186832D01*
X113184974Y-65205552D01*
X113196956Y-65225543D01*
X113206921Y-65246613D01*
X113214773Y-65268557D01*
X113220437Y-65291166D01*
X113223856Y-65314221D01*
X113225000Y-65337500D01*
X113225000Y-65912500D01*
X113223856Y-65935779D01*
X113220437Y-65958834D01*
X113214773Y-65981443D01*
X113206921Y-66003387D01*
X113196956Y-66024457D01*
X113184974Y-66044448D01*
X113171090Y-66063168D01*
X113155438Y-66080438D01*
X113138168Y-66096090D01*
X113119448Y-66109974D01*
X113099457Y-66121956D01*
X113078387Y-66131921D01*
X113056443Y-66139773D01*
X113033834Y-66145437D01*
X113010779Y-66148856D01*
X112987500Y-66150000D01*
X112512500Y-66150000D01*
X112489221Y-66148856D01*
X112466166Y-66145437D01*
X112443557Y-66139773D01*
X112421613Y-66131921D01*
X112400543Y-66121956D01*
X112380552Y-66109974D01*
X112361832Y-66096090D01*
X112344562Y-66080438D01*
X112328910Y-66063168D01*
X112315026Y-66044448D01*
X112303044Y-66024457D01*
X112293079Y-66003387D01*
X112285227Y-65981443D01*
X112279563Y-65958834D01*
X112276144Y-65935779D01*
X112275000Y-65912500D01*
X112275000Y-65337500D01*
X112276144Y-65314221D01*
X112279563Y-65291166D01*
X112285227Y-65268557D01*
X112293079Y-65246613D01*
X112303044Y-65225543D01*
X112315026Y-65205552D01*
X112328910Y-65186832D01*
X112344562Y-65169562D01*
X112361832Y-65153910D01*
X112380552Y-65140026D01*
X112400543Y-65128044D01*
X112421613Y-65118079D01*
X112443557Y-65110227D01*
X112466166Y-65104563D01*
X112489221Y-65101144D01*
X112512500Y-65100000D01*
X112987500Y-65100000D01*
X113010779Y-65101144D01*
X113010779Y-65101144D01*
G37*
D12*
X112750000Y-65625000D03*
G04 #@! TD*
D11*
G04 #@! TO.C,R17*
G36*
X68510779Y-92601144D02*
X68533834Y-92604563D01*
X68556443Y-92610227D01*
X68578387Y-92618079D01*
X68599457Y-92628044D01*
X68619448Y-92640026D01*
X68638168Y-92653910D01*
X68655438Y-92669562D01*
X68671090Y-92686832D01*
X68684974Y-92705552D01*
X68696956Y-92725543D01*
X68706921Y-92746613D01*
X68714773Y-92768557D01*
X68720437Y-92791166D01*
X68723856Y-92814221D01*
X68725000Y-92837500D01*
X68725000Y-93412500D01*
X68723856Y-93435779D01*
X68720437Y-93458834D01*
X68714773Y-93481443D01*
X68706921Y-93503387D01*
X68696956Y-93524457D01*
X68684974Y-93544448D01*
X68671090Y-93563168D01*
X68655438Y-93580438D01*
X68638168Y-93596090D01*
X68619448Y-93609974D01*
X68599457Y-93621956D01*
X68578387Y-93631921D01*
X68556443Y-93639773D01*
X68533834Y-93645437D01*
X68510779Y-93648856D01*
X68487500Y-93650000D01*
X68012500Y-93650000D01*
X67989221Y-93648856D01*
X67966166Y-93645437D01*
X67943557Y-93639773D01*
X67921613Y-93631921D01*
X67900543Y-93621956D01*
X67880552Y-93609974D01*
X67861832Y-93596090D01*
X67844562Y-93580438D01*
X67828910Y-93563168D01*
X67815026Y-93544448D01*
X67803044Y-93524457D01*
X67793079Y-93503387D01*
X67785227Y-93481443D01*
X67779563Y-93458834D01*
X67776144Y-93435779D01*
X67775000Y-93412500D01*
X67775000Y-92837500D01*
X67776144Y-92814221D01*
X67779563Y-92791166D01*
X67785227Y-92768557D01*
X67793079Y-92746613D01*
X67803044Y-92725543D01*
X67815026Y-92705552D01*
X67828910Y-92686832D01*
X67844562Y-92669562D01*
X67861832Y-92653910D01*
X67880552Y-92640026D01*
X67900543Y-92628044D01*
X67921613Y-92618079D01*
X67943557Y-92610227D01*
X67966166Y-92604563D01*
X67989221Y-92601144D01*
X68012500Y-92600000D01*
X68487500Y-92600000D01*
X68510779Y-92601144D01*
X68510779Y-92601144D01*
G37*
D12*
X68250000Y-93125000D03*
D11*
G36*
X68510779Y-94351144D02*
X68533834Y-94354563D01*
X68556443Y-94360227D01*
X68578387Y-94368079D01*
X68599457Y-94378044D01*
X68619448Y-94390026D01*
X68638168Y-94403910D01*
X68655438Y-94419562D01*
X68671090Y-94436832D01*
X68684974Y-94455552D01*
X68696956Y-94475543D01*
X68706921Y-94496613D01*
X68714773Y-94518557D01*
X68720437Y-94541166D01*
X68723856Y-94564221D01*
X68725000Y-94587500D01*
X68725000Y-95162500D01*
X68723856Y-95185779D01*
X68720437Y-95208834D01*
X68714773Y-95231443D01*
X68706921Y-95253387D01*
X68696956Y-95274457D01*
X68684974Y-95294448D01*
X68671090Y-95313168D01*
X68655438Y-95330438D01*
X68638168Y-95346090D01*
X68619448Y-95359974D01*
X68599457Y-95371956D01*
X68578387Y-95381921D01*
X68556443Y-95389773D01*
X68533834Y-95395437D01*
X68510779Y-95398856D01*
X68487500Y-95400000D01*
X68012500Y-95400000D01*
X67989221Y-95398856D01*
X67966166Y-95395437D01*
X67943557Y-95389773D01*
X67921613Y-95381921D01*
X67900543Y-95371956D01*
X67880552Y-95359974D01*
X67861832Y-95346090D01*
X67844562Y-95330438D01*
X67828910Y-95313168D01*
X67815026Y-95294448D01*
X67803044Y-95274457D01*
X67793079Y-95253387D01*
X67785227Y-95231443D01*
X67779563Y-95208834D01*
X67776144Y-95185779D01*
X67775000Y-95162500D01*
X67775000Y-94587500D01*
X67776144Y-94564221D01*
X67779563Y-94541166D01*
X67785227Y-94518557D01*
X67793079Y-94496613D01*
X67803044Y-94475543D01*
X67815026Y-94455552D01*
X67828910Y-94436832D01*
X67844562Y-94419562D01*
X67861832Y-94403910D01*
X67880552Y-94390026D01*
X67900543Y-94378044D01*
X67921613Y-94368079D01*
X67943557Y-94360227D01*
X67966166Y-94354563D01*
X67989221Y-94351144D01*
X68012500Y-94350000D01*
X68487500Y-94350000D01*
X68510779Y-94351144D01*
X68510779Y-94351144D01*
G37*
D12*
X68250000Y-94875000D03*
G04 #@! TD*
D11*
G04 #@! TO.C,R18*
G36*
X113010779Y-96726144D02*
X113033834Y-96729563D01*
X113056443Y-96735227D01*
X113078387Y-96743079D01*
X113099457Y-96753044D01*
X113119448Y-96765026D01*
X113138168Y-96778910D01*
X113155438Y-96794562D01*
X113171090Y-96811832D01*
X113184974Y-96830552D01*
X113196956Y-96850543D01*
X113206921Y-96871613D01*
X113214773Y-96893557D01*
X113220437Y-96916166D01*
X113223856Y-96939221D01*
X113225000Y-96962500D01*
X113225000Y-97537500D01*
X113223856Y-97560779D01*
X113220437Y-97583834D01*
X113214773Y-97606443D01*
X113206921Y-97628387D01*
X113196956Y-97649457D01*
X113184974Y-97669448D01*
X113171090Y-97688168D01*
X113155438Y-97705438D01*
X113138168Y-97721090D01*
X113119448Y-97734974D01*
X113099457Y-97746956D01*
X113078387Y-97756921D01*
X113056443Y-97764773D01*
X113033834Y-97770437D01*
X113010779Y-97773856D01*
X112987500Y-97775000D01*
X112512500Y-97775000D01*
X112489221Y-97773856D01*
X112466166Y-97770437D01*
X112443557Y-97764773D01*
X112421613Y-97756921D01*
X112400543Y-97746956D01*
X112380552Y-97734974D01*
X112361832Y-97721090D01*
X112344562Y-97705438D01*
X112328910Y-97688168D01*
X112315026Y-97669448D01*
X112303044Y-97649457D01*
X112293079Y-97628387D01*
X112285227Y-97606443D01*
X112279563Y-97583834D01*
X112276144Y-97560779D01*
X112275000Y-97537500D01*
X112275000Y-96962500D01*
X112276144Y-96939221D01*
X112279563Y-96916166D01*
X112285227Y-96893557D01*
X112293079Y-96871613D01*
X112303044Y-96850543D01*
X112315026Y-96830552D01*
X112328910Y-96811832D01*
X112344562Y-96794562D01*
X112361832Y-96778910D01*
X112380552Y-96765026D01*
X112400543Y-96753044D01*
X112421613Y-96743079D01*
X112443557Y-96735227D01*
X112466166Y-96729563D01*
X112489221Y-96726144D01*
X112512500Y-96725000D01*
X112987500Y-96725000D01*
X113010779Y-96726144D01*
X113010779Y-96726144D01*
G37*
D12*
X112750000Y-97250000D03*
D11*
G36*
X113010779Y-98476144D02*
X113033834Y-98479563D01*
X113056443Y-98485227D01*
X113078387Y-98493079D01*
X113099457Y-98503044D01*
X113119448Y-98515026D01*
X113138168Y-98528910D01*
X113155438Y-98544562D01*
X113171090Y-98561832D01*
X113184974Y-98580552D01*
X113196956Y-98600543D01*
X113206921Y-98621613D01*
X113214773Y-98643557D01*
X113220437Y-98666166D01*
X113223856Y-98689221D01*
X113225000Y-98712500D01*
X113225000Y-99287500D01*
X113223856Y-99310779D01*
X113220437Y-99333834D01*
X113214773Y-99356443D01*
X113206921Y-99378387D01*
X113196956Y-99399457D01*
X113184974Y-99419448D01*
X113171090Y-99438168D01*
X113155438Y-99455438D01*
X113138168Y-99471090D01*
X113119448Y-99484974D01*
X113099457Y-99496956D01*
X113078387Y-99506921D01*
X113056443Y-99514773D01*
X113033834Y-99520437D01*
X113010779Y-99523856D01*
X112987500Y-99525000D01*
X112512500Y-99525000D01*
X112489221Y-99523856D01*
X112466166Y-99520437D01*
X112443557Y-99514773D01*
X112421613Y-99506921D01*
X112400543Y-99496956D01*
X112380552Y-99484974D01*
X112361832Y-99471090D01*
X112344562Y-99455438D01*
X112328910Y-99438168D01*
X112315026Y-99419448D01*
X112303044Y-99399457D01*
X112293079Y-99378387D01*
X112285227Y-99356443D01*
X112279563Y-99333834D01*
X112276144Y-99310779D01*
X112275000Y-99287500D01*
X112275000Y-98712500D01*
X112276144Y-98689221D01*
X112279563Y-98666166D01*
X112285227Y-98643557D01*
X112293079Y-98621613D01*
X112303044Y-98600543D01*
X112315026Y-98580552D01*
X112328910Y-98561832D01*
X112344562Y-98544562D01*
X112361832Y-98528910D01*
X112380552Y-98515026D01*
X112400543Y-98503044D01*
X112421613Y-98493079D01*
X112443557Y-98485227D01*
X112466166Y-98479563D01*
X112489221Y-98476144D01*
X112512500Y-98475000D01*
X112987500Y-98475000D01*
X113010779Y-98476144D01*
X113010779Y-98476144D01*
G37*
D12*
X112750000Y-99000000D03*
G04 #@! TD*
D11*
G04 #@! TO.C,R19*
G36*
X90510779Y-64351144D02*
X90533834Y-64354563D01*
X90556443Y-64360227D01*
X90578387Y-64368079D01*
X90599457Y-64378044D01*
X90619448Y-64390026D01*
X90638168Y-64403910D01*
X90655438Y-64419562D01*
X90671090Y-64436832D01*
X90684974Y-64455552D01*
X90696956Y-64475543D01*
X90706921Y-64496613D01*
X90714773Y-64518557D01*
X90720437Y-64541166D01*
X90723856Y-64564221D01*
X90725000Y-64587500D01*
X90725000Y-65162500D01*
X90723856Y-65185779D01*
X90720437Y-65208834D01*
X90714773Y-65231443D01*
X90706921Y-65253387D01*
X90696956Y-65274457D01*
X90684974Y-65294448D01*
X90671090Y-65313168D01*
X90655438Y-65330438D01*
X90638168Y-65346090D01*
X90619448Y-65359974D01*
X90599457Y-65371956D01*
X90578387Y-65381921D01*
X90556443Y-65389773D01*
X90533834Y-65395437D01*
X90510779Y-65398856D01*
X90487500Y-65400000D01*
X90012500Y-65400000D01*
X89989221Y-65398856D01*
X89966166Y-65395437D01*
X89943557Y-65389773D01*
X89921613Y-65381921D01*
X89900543Y-65371956D01*
X89880552Y-65359974D01*
X89861832Y-65346090D01*
X89844562Y-65330438D01*
X89828910Y-65313168D01*
X89815026Y-65294448D01*
X89803044Y-65274457D01*
X89793079Y-65253387D01*
X89785227Y-65231443D01*
X89779563Y-65208834D01*
X89776144Y-65185779D01*
X89775000Y-65162500D01*
X89775000Y-64587500D01*
X89776144Y-64564221D01*
X89779563Y-64541166D01*
X89785227Y-64518557D01*
X89793079Y-64496613D01*
X89803044Y-64475543D01*
X89815026Y-64455552D01*
X89828910Y-64436832D01*
X89844562Y-64419562D01*
X89861832Y-64403910D01*
X89880552Y-64390026D01*
X89900543Y-64378044D01*
X89921613Y-64368079D01*
X89943557Y-64360227D01*
X89966166Y-64354563D01*
X89989221Y-64351144D01*
X90012500Y-64350000D01*
X90487500Y-64350000D01*
X90510779Y-64351144D01*
X90510779Y-64351144D01*
G37*
D12*
X90250000Y-64875000D03*
D11*
G36*
X90510779Y-62601144D02*
X90533834Y-62604563D01*
X90556443Y-62610227D01*
X90578387Y-62618079D01*
X90599457Y-62628044D01*
X90619448Y-62640026D01*
X90638168Y-62653910D01*
X90655438Y-62669562D01*
X90671090Y-62686832D01*
X90684974Y-62705552D01*
X90696956Y-62725543D01*
X90706921Y-62746613D01*
X90714773Y-62768557D01*
X90720437Y-62791166D01*
X90723856Y-62814221D01*
X90725000Y-62837500D01*
X90725000Y-63412500D01*
X90723856Y-63435779D01*
X90720437Y-63458834D01*
X90714773Y-63481443D01*
X90706921Y-63503387D01*
X90696956Y-63524457D01*
X90684974Y-63544448D01*
X90671090Y-63563168D01*
X90655438Y-63580438D01*
X90638168Y-63596090D01*
X90619448Y-63609974D01*
X90599457Y-63621956D01*
X90578387Y-63631921D01*
X90556443Y-63639773D01*
X90533834Y-63645437D01*
X90510779Y-63648856D01*
X90487500Y-63650000D01*
X90012500Y-63650000D01*
X89989221Y-63648856D01*
X89966166Y-63645437D01*
X89943557Y-63639773D01*
X89921613Y-63631921D01*
X89900543Y-63621956D01*
X89880552Y-63609974D01*
X89861832Y-63596090D01*
X89844562Y-63580438D01*
X89828910Y-63563168D01*
X89815026Y-63544448D01*
X89803044Y-63524457D01*
X89793079Y-63503387D01*
X89785227Y-63481443D01*
X89779563Y-63458834D01*
X89776144Y-63435779D01*
X89775000Y-63412500D01*
X89775000Y-62837500D01*
X89776144Y-62814221D01*
X89779563Y-62791166D01*
X89785227Y-62768557D01*
X89793079Y-62746613D01*
X89803044Y-62725543D01*
X89815026Y-62705552D01*
X89828910Y-62686832D01*
X89844562Y-62669562D01*
X89861832Y-62653910D01*
X89880552Y-62640026D01*
X89900543Y-62628044D01*
X89921613Y-62618079D01*
X89943557Y-62610227D01*
X89966166Y-62604563D01*
X89989221Y-62601144D01*
X90012500Y-62600000D01*
X90487500Y-62600000D01*
X90510779Y-62601144D01*
X90510779Y-62601144D01*
G37*
D12*
X90250000Y-63125000D03*
G04 #@! TD*
D11*
G04 #@! TO.C,R20*
G36*
X111185779Y-63026144D02*
X111208834Y-63029563D01*
X111231443Y-63035227D01*
X111253387Y-63043079D01*
X111274457Y-63053044D01*
X111294448Y-63065026D01*
X111313168Y-63078910D01*
X111330438Y-63094562D01*
X111346090Y-63111832D01*
X111359974Y-63130552D01*
X111371956Y-63150543D01*
X111381921Y-63171613D01*
X111389773Y-63193557D01*
X111395437Y-63216166D01*
X111398856Y-63239221D01*
X111400000Y-63262500D01*
X111400000Y-63737500D01*
X111398856Y-63760779D01*
X111395437Y-63783834D01*
X111389773Y-63806443D01*
X111381921Y-63828387D01*
X111371956Y-63849457D01*
X111359974Y-63869448D01*
X111346090Y-63888168D01*
X111330438Y-63905438D01*
X111313168Y-63921090D01*
X111294448Y-63934974D01*
X111274457Y-63946956D01*
X111253387Y-63956921D01*
X111231443Y-63964773D01*
X111208834Y-63970437D01*
X111185779Y-63973856D01*
X111162500Y-63975000D01*
X110587500Y-63975000D01*
X110564221Y-63973856D01*
X110541166Y-63970437D01*
X110518557Y-63964773D01*
X110496613Y-63956921D01*
X110475543Y-63946956D01*
X110455552Y-63934974D01*
X110436832Y-63921090D01*
X110419562Y-63905438D01*
X110403910Y-63888168D01*
X110390026Y-63869448D01*
X110378044Y-63849457D01*
X110368079Y-63828387D01*
X110360227Y-63806443D01*
X110354563Y-63783834D01*
X110351144Y-63760779D01*
X110350000Y-63737500D01*
X110350000Y-63262500D01*
X110351144Y-63239221D01*
X110354563Y-63216166D01*
X110360227Y-63193557D01*
X110368079Y-63171613D01*
X110378044Y-63150543D01*
X110390026Y-63130552D01*
X110403910Y-63111832D01*
X110419562Y-63094562D01*
X110436832Y-63078910D01*
X110455552Y-63065026D01*
X110475543Y-63053044D01*
X110496613Y-63043079D01*
X110518557Y-63035227D01*
X110541166Y-63029563D01*
X110564221Y-63026144D01*
X110587500Y-63025000D01*
X111162500Y-63025000D01*
X111185779Y-63026144D01*
X111185779Y-63026144D01*
G37*
D12*
X110875000Y-63500000D03*
D11*
G36*
X112935779Y-63026144D02*
X112958834Y-63029563D01*
X112981443Y-63035227D01*
X113003387Y-63043079D01*
X113024457Y-63053044D01*
X113044448Y-63065026D01*
X113063168Y-63078910D01*
X113080438Y-63094562D01*
X113096090Y-63111832D01*
X113109974Y-63130552D01*
X113121956Y-63150543D01*
X113131921Y-63171613D01*
X113139773Y-63193557D01*
X113145437Y-63216166D01*
X113148856Y-63239221D01*
X113150000Y-63262500D01*
X113150000Y-63737500D01*
X113148856Y-63760779D01*
X113145437Y-63783834D01*
X113139773Y-63806443D01*
X113131921Y-63828387D01*
X113121956Y-63849457D01*
X113109974Y-63869448D01*
X113096090Y-63888168D01*
X113080438Y-63905438D01*
X113063168Y-63921090D01*
X113044448Y-63934974D01*
X113024457Y-63946956D01*
X113003387Y-63956921D01*
X112981443Y-63964773D01*
X112958834Y-63970437D01*
X112935779Y-63973856D01*
X112912500Y-63975000D01*
X112337500Y-63975000D01*
X112314221Y-63973856D01*
X112291166Y-63970437D01*
X112268557Y-63964773D01*
X112246613Y-63956921D01*
X112225543Y-63946956D01*
X112205552Y-63934974D01*
X112186832Y-63921090D01*
X112169562Y-63905438D01*
X112153910Y-63888168D01*
X112140026Y-63869448D01*
X112128044Y-63849457D01*
X112118079Y-63828387D01*
X112110227Y-63806443D01*
X112104563Y-63783834D01*
X112101144Y-63760779D01*
X112100000Y-63737500D01*
X112100000Y-63262500D01*
X112101144Y-63239221D01*
X112104563Y-63216166D01*
X112110227Y-63193557D01*
X112118079Y-63171613D01*
X112128044Y-63150543D01*
X112140026Y-63130552D01*
X112153910Y-63111832D01*
X112169562Y-63094562D01*
X112186832Y-63078910D01*
X112205552Y-63065026D01*
X112225543Y-63053044D01*
X112246613Y-63043079D01*
X112268557Y-63035227D01*
X112291166Y-63029563D01*
X112314221Y-63026144D01*
X112337500Y-63025000D01*
X112912500Y-63025000D01*
X112935779Y-63026144D01*
X112935779Y-63026144D01*
G37*
D12*
X112625000Y-63500000D03*
G04 #@! TD*
D11*
G04 #@! TO.C,R21*
G36*
X73935779Y-60776144D02*
X73958834Y-60779563D01*
X73981443Y-60785227D01*
X74003387Y-60793079D01*
X74024457Y-60803044D01*
X74044448Y-60815026D01*
X74063168Y-60828910D01*
X74080438Y-60844562D01*
X74096090Y-60861832D01*
X74109974Y-60880552D01*
X74121956Y-60900543D01*
X74131921Y-60921613D01*
X74139773Y-60943557D01*
X74145437Y-60966166D01*
X74148856Y-60989221D01*
X74150000Y-61012500D01*
X74150000Y-61487500D01*
X74148856Y-61510779D01*
X74145437Y-61533834D01*
X74139773Y-61556443D01*
X74131921Y-61578387D01*
X74121956Y-61599457D01*
X74109974Y-61619448D01*
X74096090Y-61638168D01*
X74080438Y-61655438D01*
X74063168Y-61671090D01*
X74044448Y-61684974D01*
X74024457Y-61696956D01*
X74003387Y-61706921D01*
X73981443Y-61714773D01*
X73958834Y-61720437D01*
X73935779Y-61723856D01*
X73912500Y-61725000D01*
X73337500Y-61725000D01*
X73314221Y-61723856D01*
X73291166Y-61720437D01*
X73268557Y-61714773D01*
X73246613Y-61706921D01*
X73225543Y-61696956D01*
X73205552Y-61684974D01*
X73186832Y-61671090D01*
X73169562Y-61655438D01*
X73153910Y-61638168D01*
X73140026Y-61619448D01*
X73128044Y-61599457D01*
X73118079Y-61578387D01*
X73110227Y-61556443D01*
X73104563Y-61533834D01*
X73101144Y-61510779D01*
X73100000Y-61487500D01*
X73100000Y-61012500D01*
X73101144Y-60989221D01*
X73104563Y-60966166D01*
X73110227Y-60943557D01*
X73118079Y-60921613D01*
X73128044Y-60900543D01*
X73140026Y-60880552D01*
X73153910Y-60861832D01*
X73169562Y-60844562D01*
X73186832Y-60828910D01*
X73205552Y-60815026D01*
X73225543Y-60803044D01*
X73246613Y-60793079D01*
X73268557Y-60785227D01*
X73291166Y-60779563D01*
X73314221Y-60776144D01*
X73337500Y-60775000D01*
X73912500Y-60775000D01*
X73935779Y-60776144D01*
X73935779Y-60776144D01*
G37*
D12*
X73625000Y-61250000D03*
D11*
G36*
X72185779Y-60776144D02*
X72208834Y-60779563D01*
X72231443Y-60785227D01*
X72253387Y-60793079D01*
X72274457Y-60803044D01*
X72294448Y-60815026D01*
X72313168Y-60828910D01*
X72330438Y-60844562D01*
X72346090Y-60861832D01*
X72359974Y-60880552D01*
X72371956Y-60900543D01*
X72381921Y-60921613D01*
X72389773Y-60943557D01*
X72395437Y-60966166D01*
X72398856Y-60989221D01*
X72400000Y-61012500D01*
X72400000Y-61487500D01*
X72398856Y-61510779D01*
X72395437Y-61533834D01*
X72389773Y-61556443D01*
X72381921Y-61578387D01*
X72371956Y-61599457D01*
X72359974Y-61619448D01*
X72346090Y-61638168D01*
X72330438Y-61655438D01*
X72313168Y-61671090D01*
X72294448Y-61684974D01*
X72274457Y-61696956D01*
X72253387Y-61706921D01*
X72231443Y-61714773D01*
X72208834Y-61720437D01*
X72185779Y-61723856D01*
X72162500Y-61725000D01*
X71587500Y-61725000D01*
X71564221Y-61723856D01*
X71541166Y-61720437D01*
X71518557Y-61714773D01*
X71496613Y-61706921D01*
X71475543Y-61696956D01*
X71455552Y-61684974D01*
X71436832Y-61671090D01*
X71419562Y-61655438D01*
X71403910Y-61638168D01*
X71390026Y-61619448D01*
X71378044Y-61599457D01*
X71368079Y-61578387D01*
X71360227Y-61556443D01*
X71354563Y-61533834D01*
X71351144Y-61510779D01*
X71350000Y-61487500D01*
X71350000Y-61012500D01*
X71351144Y-60989221D01*
X71354563Y-60966166D01*
X71360227Y-60943557D01*
X71368079Y-60921613D01*
X71378044Y-60900543D01*
X71390026Y-60880552D01*
X71403910Y-60861832D01*
X71419562Y-60844562D01*
X71436832Y-60828910D01*
X71455552Y-60815026D01*
X71475543Y-60803044D01*
X71496613Y-60793079D01*
X71518557Y-60785227D01*
X71541166Y-60779563D01*
X71564221Y-60776144D01*
X71587500Y-60775000D01*
X72162500Y-60775000D01*
X72185779Y-60776144D01*
X72185779Y-60776144D01*
G37*
D12*
X71875000Y-61250000D03*
G04 #@! TD*
D11*
G04 #@! TO.C,R22*
G36*
X73685779Y-100276144D02*
X73708834Y-100279563D01*
X73731443Y-100285227D01*
X73753387Y-100293079D01*
X73774457Y-100303044D01*
X73794448Y-100315026D01*
X73813168Y-100328910D01*
X73830438Y-100344562D01*
X73846090Y-100361832D01*
X73859974Y-100380552D01*
X73871956Y-100400543D01*
X73881921Y-100421613D01*
X73889773Y-100443557D01*
X73895437Y-100466166D01*
X73898856Y-100489221D01*
X73900000Y-100512500D01*
X73900000Y-100987500D01*
X73898856Y-101010779D01*
X73895437Y-101033834D01*
X73889773Y-101056443D01*
X73881921Y-101078387D01*
X73871956Y-101099457D01*
X73859974Y-101119448D01*
X73846090Y-101138168D01*
X73830438Y-101155438D01*
X73813168Y-101171090D01*
X73794448Y-101184974D01*
X73774457Y-101196956D01*
X73753387Y-101206921D01*
X73731443Y-101214773D01*
X73708834Y-101220437D01*
X73685779Y-101223856D01*
X73662500Y-101225000D01*
X73087500Y-101225000D01*
X73064221Y-101223856D01*
X73041166Y-101220437D01*
X73018557Y-101214773D01*
X72996613Y-101206921D01*
X72975543Y-101196956D01*
X72955552Y-101184974D01*
X72936832Y-101171090D01*
X72919562Y-101155438D01*
X72903910Y-101138168D01*
X72890026Y-101119448D01*
X72878044Y-101099457D01*
X72868079Y-101078387D01*
X72860227Y-101056443D01*
X72854563Y-101033834D01*
X72851144Y-101010779D01*
X72850000Y-100987500D01*
X72850000Y-100512500D01*
X72851144Y-100489221D01*
X72854563Y-100466166D01*
X72860227Y-100443557D01*
X72868079Y-100421613D01*
X72878044Y-100400543D01*
X72890026Y-100380552D01*
X72903910Y-100361832D01*
X72919562Y-100344562D01*
X72936832Y-100328910D01*
X72955552Y-100315026D01*
X72975543Y-100303044D01*
X72996613Y-100293079D01*
X73018557Y-100285227D01*
X73041166Y-100279563D01*
X73064221Y-100276144D01*
X73087500Y-100275000D01*
X73662500Y-100275000D01*
X73685779Y-100276144D01*
X73685779Y-100276144D01*
G37*
D12*
X73375000Y-100750000D03*
D11*
G36*
X71935779Y-100276144D02*
X71958834Y-100279563D01*
X71981443Y-100285227D01*
X72003387Y-100293079D01*
X72024457Y-100303044D01*
X72044448Y-100315026D01*
X72063168Y-100328910D01*
X72080438Y-100344562D01*
X72096090Y-100361832D01*
X72109974Y-100380552D01*
X72121956Y-100400543D01*
X72131921Y-100421613D01*
X72139773Y-100443557D01*
X72145437Y-100466166D01*
X72148856Y-100489221D01*
X72150000Y-100512500D01*
X72150000Y-100987500D01*
X72148856Y-101010779D01*
X72145437Y-101033834D01*
X72139773Y-101056443D01*
X72131921Y-101078387D01*
X72121956Y-101099457D01*
X72109974Y-101119448D01*
X72096090Y-101138168D01*
X72080438Y-101155438D01*
X72063168Y-101171090D01*
X72044448Y-101184974D01*
X72024457Y-101196956D01*
X72003387Y-101206921D01*
X71981443Y-101214773D01*
X71958834Y-101220437D01*
X71935779Y-101223856D01*
X71912500Y-101225000D01*
X71337500Y-101225000D01*
X71314221Y-101223856D01*
X71291166Y-101220437D01*
X71268557Y-101214773D01*
X71246613Y-101206921D01*
X71225543Y-101196956D01*
X71205552Y-101184974D01*
X71186832Y-101171090D01*
X71169562Y-101155438D01*
X71153910Y-101138168D01*
X71140026Y-101119448D01*
X71128044Y-101099457D01*
X71118079Y-101078387D01*
X71110227Y-101056443D01*
X71104563Y-101033834D01*
X71101144Y-101010779D01*
X71100000Y-100987500D01*
X71100000Y-100512500D01*
X71101144Y-100489221D01*
X71104563Y-100466166D01*
X71110227Y-100443557D01*
X71118079Y-100421613D01*
X71128044Y-100400543D01*
X71140026Y-100380552D01*
X71153910Y-100361832D01*
X71169562Y-100344562D01*
X71186832Y-100328910D01*
X71205552Y-100315026D01*
X71225543Y-100303044D01*
X71246613Y-100293079D01*
X71268557Y-100285227D01*
X71291166Y-100279563D01*
X71314221Y-100276144D01*
X71337500Y-100275000D01*
X71912500Y-100275000D01*
X71935779Y-100276144D01*
X71935779Y-100276144D01*
G37*
D12*
X71625000Y-100750000D03*
G04 #@! TD*
D11*
G04 #@! TO.C,R23*
G36*
X90510779Y-96601144D02*
X90533834Y-96604563D01*
X90556443Y-96610227D01*
X90578387Y-96618079D01*
X90599457Y-96628044D01*
X90619448Y-96640026D01*
X90638168Y-96653910D01*
X90655438Y-96669562D01*
X90671090Y-96686832D01*
X90684974Y-96705552D01*
X90696956Y-96725543D01*
X90706921Y-96746613D01*
X90714773Y-96768557D01*
X90720437Y-96791166D01*
X90723856Y-96814221D01*
X90725000Y-96837500D01*
X90725000Y-97412500D01*
X90723856Y-97435779D01*
X90720437Y-97458834D01*
X90714773Y-97481443D01*
X90706921Y-97503387D01*
X90696956Y-97524457D01*
X90684974Y-97544448D01*
X90671090Y-97563168D01*
X90655438Y-97580438D01*
X90638168Y-97596090D01*
X90619448Y-97609974D01*
X90599457Y-97621956D01*
X90578387Y-97631921D01*
X90556443Y-97639773D01*
X90533834Y-97645437D01*
X90510779Y-97648856D01*
X90487500Y-97650000D01*
X90012500Y-97650000D01*
X89989221Y-97648856D01*
X89966166Y-97645437D01*
X89943557Y-97639773D01*
X89921613Y-97631921D01*
X89900543Y-97621956D01*
X89880552Y-97609974D01*
X89861832Y-97596090D01*
X89844562Y-97580438D01*
X89828910Y-97563168D01*
X89815026Y-97544448D01*
X89803044Y-97524457D01*
X89793079Y-97503387D01*
X89785227Y-97481443D01*
X89779563Y-97458834D01*
X89776144Y-97435779D01*
X89775000Y-97412500D01*
X89775000Y-96837500D01*
X89776144Y-96814221D01*
X89779563Y-96791166D01*
X89785227Y-96768557D01*
X89793079Y-96746613D01*
X89803044Y-96725543D01*
X89815026Y-96705552D01*
X89828910Y-96686832D01*
X89844562Y-96669562D01*
X89861832Y-96653910D01*
X89880552Y-96640026D01*
X89900543Y-96628044D01*
X89921613Y-96618079D01*
X89943557Y-96610227D01*
X89966166Y-96604563D01*
X89989221Y-96601144D01*
X90012500Y-96600000D01*
X90487500Y-96600000D01*
X90510779Y-96601144D01*
X90510779Y-96601144D01*
G37*
D12*
X90250000Y-97125000D03*
D11*
G36*
X90510779Y-98351144D02*
X90533834Y-98354563D01*
X90556443Y-98360227D01*
X90578387Y-98368079D01*
X90599457Y-98378044D01*
X90619448Y-98390026D01*
X90638168Y-98403910D01*
X90655438Y-98419562D01*
X90671090Y-98436832D01*
X90684974Y-98455552D01*
X90696956Y-98475543D01*
X90706921Y-98496613D01*
X90714773Y-98518557D01*
X90720437Y-98541166D01*
X90723856Y-98564221D01*
X90725000Y-98587500D01*
X90725000Y-99162500D01*
X90723856Y-99185779D01*
X90720437Y-99208834D01*
X90714773Y-99231443D01*
X90706921Y-99253387D01*
X90696956Y-99274457D01*
X90684974Y-99294448D01*
X90671090Y-99313168D01*
X90655438Y-99330438D01*
X90638168Y-99346090D01*
X90619448Y-99359974D01*
X90599457Y-99371956D01*
X90578387Y-99381921D01*
X90556443Y-99389773D01*
X90533834Y-99395437D01*
X90510779Y-99398856D01*
X90487500Y-99400000D01*
X90012500Y-99400000D01*
X89989221Y-99398856D01*
X89966166Y-99395437D01*
X89943557Y-99389773D01*
X89921613Y-99381921D01*
X89900543Y-99371956D01*
X89880552Y-99359974D01*
X89861832Y-99346090D01*
X89844562Y-99330438D01*
X89828910Y-99313168D01*
X89815026Y-99294448D01*
X89803044Y-99274457D01*
X89793079Y-99253387D01*
X89785227Y-99231443D01*
X89779563Y-99208834D01*
X89776144Y-99185779D01*
X89775000Y-99162500D01*
X89775000Y-98587500D01*
X89776144Y-98564221D01*
X89779563Y-98541166D01*
X89785227Y-98518557D01*
X89793079Y-98496613D01*
X89803044Y-98475543D01*
X89815026Y-98455552D01*
X89828910Y-98436832D01*
X89844562Y-98419562D01*
X89861832Y-98403910D01*
X89880552Y-98390026D01*
X89900543Y-98378044D01*
X89921613Y-98368079D01*
X89943557Y-98360227D01*
X89966166Y-98354563D01*
X89989221Y-98351144D01*
X90012500Y-98350000D01*
X90487500Y-98350000D01*
X90510779Y-98351144D01*
X90510779Y-98351144D01*
G37*
D12*
X90250000Y-98875000D03*
G04 #@! TD*
D18*
G04 #@! TO.C,SW1*
X108000000Y-78120000D03*
X108000000Y-83880000D03*
X104000000Y-83880000D03*
X104000000Y-78120000D03*
G04 #@! TD*
D11*
G04 #@! TO.C,C12*
G36*
X81999504Y-102801204D02*
X82023773Y-102804804D01*
X82047571Y-102810765D01*
X82070671Y-102819030D01*
X82092849Y-102829520D01*
X82113893Y-102842133D01*
X82133598Y-102856747D01*
X82151777Y-102873223D01*
X82168253Y-102891402D01*
X82182867Y-102911107D01*
X82195480Y-102932151D01*
X82205970Y-102954329D01*
X82214235Y-102977429D01*
X82220196Y-103001227D01*
X82223796Y-103025496D01*
X82225000Y-103050000D01*
X82225000Y-104150000D01*
X82223796Y-104174504D01*
X82220196Y-104198773D01*
X82214235Y-104222571D01*
X82205970Y-104245671D01*
X82195480Y-104267849D01*
X82182867Y-104288893D01*
X82168253Y-104308598D01*
X82151777Y-104326777D01*
X82133598Y-104343253D01*
X82113893Y-104357867D01*
X82092849Y-104370480D01*
X82070671Y-104380970D01*
X82047571Y-104389235D01*
X82023773Y-104395196D01*
X81999504Y-104398796D01*
X81975000Y-104400000D01*
X79150000Y-104400000D01*
X79125496Y-104398796D01*
X79101227Y-104395196D01*
X79077429Y-104389235D01*
X79054329Y-104380970D01*
X79032151Y-104370480D01*
X79011107Y-104357867D01*
X78991402Y-104343253D01*
X78973223Y-104326777D01*
X78956747Y-104308598D01*
X78942133Y-104288893D01*
X78929520Y-104267849D01*
X78919030Y-104245671D01*
X78910765Y-104222571D01*
X78904804Y-104198773D01*
X78901204Y-104174504D01*
X78900000Y-104150000D01*
X78900000Y-103050000D01*
X78901204Y-103025496D01*
X78904804Y-103001227D01*
X78910765Y-102977429D01*
X78919030Y-102954329D01*
X78929520Y-102932151D01*
X78942133Y-102911107D01*
X78956747Y-102891402D01*
X78973223Y-102873223D01*
X78991402Y-102856747D01*
X79011107Y-102842133D01*
X79032151Y-102829520D01*
X79054329Y-102819030D01*
X79077429Y-102810765D01*
X79101227Y-102804804D01*
X79125496Y-102801204D01*
X79150000Y-102800000D01*
X81975000Y-102800000D01*
X81999504Y-102801204D01*
X81999504Y-102801204D01*
G37*
D19*
X80562500Y-103600000D03*
D11*
G36*
X87074504Y-102801204D02*
X87098773Y-102804804D01*
X87122571Y-102810765D01*
X87145671Y-102819030D01*
X87167849Y-102829520D01*
X87188893Y-102842133D01*
X87208598Y-102856747D01*
X87226777Y-102873223D01*
X87243253Y-102891402D01*
X87257867Y-102911107D01*
X87270480Y-102932151D01*
X87280970Y-102954329D01*
X87289235Y-102977429D01*
X87295196Y-103001227D01*
X87298796Y-103025496D01*
X87300000Y-103050000D01*
X87300000Y-104150000D01*
X87298796Y-104174504D01*
X87295196Y-104198773D01*
X87289235Y-104222571D01*
X87280970Y-104245671D01*
X87270480Y-104267849D01*
X87257867Y-104288893D01*
X87243253Y-104308598D01*
X87226777Y-104326777D01*
X87208598Y-104343253D01*
X87188893Y-104357867D01*
X87167849Y-104370480D01*
X87145671Y-104380970D01*
X87122571Y-104389235D01*
X87098773Y-104395196D01*
X87074504Y-104398796D01*
X87050000Y-104400000D01*
X84225000Y-104400000D01*
X84200496Y-104398796D01*
X84176227Y-104395196D01*
X84152429Y-104389235D01*
X84129329Y-104380970D01*
X84107151Y-104370480D01*
X84086107Y-104357867D01*
X84066402Y-104343253D01*
X84048223Y-104326777D01*
X84031747Y-104308598D01*
X84017133Y-104288893D01*
X84004520Y-104267849D01*
X83994030Y-104245671D01*
X83985765Y-104222571D01*
X83979804Y-104198773D01*
X83976204Y-104174504D01*
X83975000Y-104150000D01*
X83975000Y-103050000D01*
X83976204Y-103025496D01*
X83979804Y-103001227D01*
X83985765Y-102977429D01*
X83994030Y-102954329D01*
X84004520Y-102932151D01*
X84017133Y-102911107D01*
X84031747Y-102891402D01*
X84048223Y-102873223D01*
X84066402Y-102856747D01*
X84086107Y-102842133D01*
X84107151Y-102829520D01*
X84129329Y-102819030D01*
X84152429Y-102810765D01*
X84176227Y-102804804D01*
X84200496Y-102801204D01*
X84225000Y-102800000D01*
X87050000Y-102800000D01*
X87074504Y-102801204D01*
X87074504Y-102801204D01*
G37*
D19*
X85637500Y-103600000D03*
G04 #@! TD*
D11*
G04 #@! TO.C,C25*
G36*
X57974504Y-58601204D02*
X57998773Y-58604804D01*
X58022571Y-58610765D01*
X58045671Y-58619030D01*
X58067849Y-58629520D01*
X58088893Y-58642133D01*
X58108598Y-58656747D01*
X58126777Y-58673223D01*
X58143253Y-58691402D01*
X58157867Y-58711107D01*
X58170480Y-58732151D01*
X58180970Y-58754329D01*
X58189235Y-58777429D01*
X58195196Y-58801227D01*
X58198796Y-58825496D01*
X58200000Y-58850000D01*
X58200000Y-61675000D01*
X58198796Y-61699504D01*
X58195196Y-61723773D01*
X58189235Y-61747571D01*
X58180970Y-61770671D01*
X58170480Y-61792849D01*
X58157867Y-61813893D01*
X58143253Y-61833598D01*
X58126777Y-61851777D01*
X58108598Y-61868253D01*
X58088893Y-61882867D01*
X58067849Y-61895480D01*
X58045671Y-61905970D01*
X58022571Y-61914235D01*
X57998773Y-61920196D01*
X57974504Y-61923796D01*
X57950000Y-61925000D01*
X56850000Y-61925000D01*
X56825496Y-61923796D01*
X56801227Y-61920196D01*
X56777429Y-61914235D01*
X56754329Y-61905970D01*
X56732151Y-61895480D01*
X56711107Y-61882867D01*
X56691402Y-61868253D01*
X56673223Y-61851777D01*
X56656747Y-61833598D01*
X56642133Y-61813893D01*
X56629520Y-61792849D01*
X56619030Y-61770671D01*
X56610765Y-61747571D01*
X56604804Y-61723773D01*
X56601204Y-61699504D01*
X56600000Y-61675000D01*
X56600000Y-58850000D01*
X56601204Y-58825496D01*
X56604804Y-58801227D01*
X56610765Y-58777429D01*
X56619030Y-58754329D01*
X56629520Y-58732151D01*
X56642133Y-58711107D01*
X56656747Y-58691402D01*
X56673223Y-58673223D01*
X56691402Y-58656747D01*
X56711107Y-58642133D01*
X56732151Y-58629520D01*
X56754329Y-58619030D01*
X56777429Y-58610765D01*
X56801227Y-58604804D01*
X56825496Y-58601204D01*
X56850000Y-58600000D01*
X57950000Y-58600000D01*
X57974504Y-58601204D01*
X57974504Y-58601204D01*
G37*
D19*
X57400000Y-60262500D03*
D11*
G36*
X57974504Y-63676204D02*
X57998773Y-63679804D01*
X58022571Y-63685765D01*
X58045671Y-63694030D01*
X58067849Y-63704520D01*
X58088893Y-63717133D01*
X58108598Y-63731747D01*
X58126777Y-63748223D01*
X58143253Y-63766402D01*
X58157867Y-63786107D01*
X58170480Y-63807151D01*
X58180970Y-63829329D01*
X58189235Y-63852429D01*
X58195196Y-63876227D01*
X58198796Y-63900496D01*
X58200000Y-63925000D01*
X58200000Y-66750000D01*
X58198796Y-66774504D01*
X58195196Y-66798773D01*
X58189235Y-66822571D01*
X58180970Y-66845671D01*
X58170480Y-66867849D01*
X58157867Y-66888893D01*
X58143253Y-66908598D01*
X58126777Y-66926777D01*
X58108598Y-66943253D01*
X58088893Y-66957867D01*
X58067849Y-66970480D01*
X58045671Y-66980970D01*
X58022571Y-66989235D01*
X57998773Y-66995196D01*
X57974504Y-66998796D01*
X57950000Y-67000000D01*
X56850000Y-67000000D01*
X56825496Y-66998796D01*
X56801227Y-66995196D01*
X56777429Y-66989235D01*
X56754329Y-66980970D01*
X56732151Y-66970480D01*
X56711107Y-66957867D01*
X56691402Y-66943253D01*
X56673223Y-66926777D01*
X56656747Y-66908598D01*
X56642133Y-66888893D01*
X56629520Y-66867849D01*
X56619030Y-66845671D01*
X56610765Y-66822571D01*
X56604804Y-66798773D01*
X56601204Y-66774504D01*
X56600000Y-66750000D01*
X56600000Y-63925000D01*
X56601204Y-63900496D01*
X56604804Y-63876227D01*
X56610765Y-63852429D01*
X56619030Y-63829329D01*
X56629520Y-63807151D01*
X56642133Y-63786107D01*
X56656747Y-63766402D01*
X56673223Y-63748223D01*
X56691402Y-63731747D01*
X56711107Y-63717133D01*
X56732151Y-63704520D01*
X56754329Y-63694030D01*
X56777429Y-63685765D01*
X56801227Y-63679804D01*
X56825496Y-63676204D01*
X56850000Y-63675000D01*
X57950000Y-63675000D01*
X57974504Y-63676204D01*
X57974504Y-63676204D01*
G37*
D19*
X57400000Y-65337500D03*
G04 #@! TD*
D11*
G04 #@! TO.C,C27*
G36*
X56299504Y-98401204D02*
X56323773Y-98404804D01*
X56347571Y-98410765D01*
X56370671Y-98419030D01*
X56392849Y-98429520D01*
X56413893Y-98442133D01*
X56433598Y-98456747D01*
X56451777Y-98473223D01*
X56468253Y-98491402D01*
X56482867Y-98511107D01*
X56495480Y-98532151D01*
X56505970Y-98554329D01*
X56514235Y-98577429D01*
X56520196Y-98601227D01*
X56523796Y-98625496D01*
X56525000Y-98650000D01*
X56525000Y-99750000D01*
X56523796Y-99774504D01*
X56520196Y-99798773D01*
X56514235Y-99822571D01*
X56505970Y-99845671D01*
X56495480Y-99867849D01*
X56482867Y-99888893D01*
X56468253Y-99908598D01*
X56451777Y-99926777D01*
X56433598Y-99943253D01*
X56413893Y-99957867D01*
X56392849Y-99970480D01*
X56370671Y-99980970D01*
X56347571Y-99989235D01*
X56323773Y-99995196D01*
X56299504Y-99998796D01*
X56275000Y-100000000D01*
X53450000Y-100000000D01*
X53425496Y-99998796D01*
X53401227Y-99995196D01*
X53377429Y-99989235D01*
X53354329Y-99980970D01*
X53332151Y-99970480D01*
X53311107Y-99957867D01*
X53291402Y-99943253D01*
X53273223Y-99926777D01*
X53256747Y-99908598D01*
X53242133Y-99888893D01*
X53229520Y-99867849D01*
X53219030Y-99845671D01*
X53210765Y-99822571D01*
X53204804Y-99798773D01*
X53201204Y-99774504D01*
X53200000Y-99750000D01*
X53200000Y-98650000D01*
X53201204Y-98625496D01*
X53204804Y-98601227D01*
X53210765Y-98577429D01*
X53219030Y-98554329D01*
X53229520Y-98532151D01*
X53242133Y-98511107D01*
X53256747Y-98491402D01*
X53273223Y-98473223D01*
X53291402Y-98456747D01*
X53311107Y-98442133D01*
X53332151Y-98429520D01*
X53354329Y-98419030D01*
X53377429Y-98410765D01*
X53401227Y-98404804D01*
X53425496Y-98401204D01*
X53450000Y-98400000D01*
X56275000Y-98400000D01*
X56299504Y-98401204D01*
X56299504Y-98401204D01*
G37*
D19*
X54862500Y-99200000D03*
D11*
G36*
X61374504Y-98401204D02*
X61398773Y-98404804D01*
X61422571Y-98410765D01*
X61445671Y-98419030D01*
X61467849Y-98429520D01*
X61488893Y-98442133D01*
X61508598Y-98456747D01*
X61526777Y-98473223D01*
X61543253Y-98491402D01*
X61557867Y-98511107D01*
X61570480Y-98532151D01*
X61580970Y-98554329D01*
X61589235Y-98577429D01*
X61595196Y-98601227D01*
X61598796Y-98625496D01*
X61600000Y-98650000D01*
X61600000Y-99750000D01*
X61598796Y-99774504D01*
X61595196Y-99798773D01*
X61589235Y-99822571D01*
X61580970Y-99845671D01*
X61570480Y-99867849D01*
X61557867Y-99888893D01*
X61543253Y-99908598D01*
X61526777Y-99926777D01*
X61508598Y-99943253D01*
X61488893Y-99957867D01*
X61467849Y-99970480D01*
X61445671Y-99980970D01*
X61422571Y-99989235D01*
X61398773Y-99995196D01*
X61374504Y-99998796D01*
X61350000Y-100000000D01*
X58525000Y-100000000D01*
X58500496Y-99998796D01*
X58476227Y-99995196D01*
X58452429Y-99989235D01*
X58429329Y-99980970D01*
X58407151Y-99970480D01*
X58386107Y-99957867D01*
X58366402Y-99943253D01*
X58348223Y-99926777D01*
X58331747Y-99908598D01*
X58317133Y-99888893D01*
X58304520Y-99867849D01*
X58294030Y-99845671D01*
X58285765Y-99822571D01*
X58279804Y-99798773D01*
X58276204Y-99774504D01*
X58275000Y-99750000D01*
X58275000Y-98650000D01*
X58276204Y-98625496D01*
X58279804Y-98601227D01*
X58285765Y-98577429D01*
X58294030Y-98554329D01*
X58304520Y-98532151D01*
X58317133Y-98511107D01*
X58331747Y-98491402D01*
X58348223Y-98473223D01*
X58366402Y-98456747D01*
X58386107Y-98442133D01*
X58407151Y-98429520D01*
X58429329Y-98419030D01*
X58452429Y-98410765D01*
X58476227Y-98404804D01*
X58500496Y-98401204D01*
X58525000Y-98400000D01*
X61350000Y-98400000D01*
X61374504Y-98401204D01*
X61374504Y-98401204D01*
G37*
D19*
X59937500Y-99200000D03*
G04 #@! TD*
D11*
G04 #@! TO.C,C34*
G36*
X135974504Y-108001204D02*
X135998773Y-108004804D01*
X136022571Y-108010765D01*
X136045671Y-108019030D01*
X136067849Y-108029520D01*
X136088893Y-108042133D01*
X136108598Y-108056747D01*
X136126777Y-108073223D01*
X136143253Y-108091402D01*
X136157867Y-108111107D01*
X136170480Y-108132151D01*
X136180970Y-108154329D01*
X136189235Y-108177429D01*
X136195196Y-108201227D01*
X136198796Y-108225496D01*
X136200000Y-108250000D01*
X136200000Y-109350000D01*
X136198796Y-109374504D01*
X136195196Y-109398773D01*
X136189235Y-109422571D01*
X136180970Y-109445671D01*
X136170480Y-109467849D01*
X136157867Y-109488893D01*
X136143253Y-109508598D01*
X136126777Y-109526777D01*
X136108598Y-109543253D01*
X136088893Y-109557867D01*
X136067849Y-109570480D01*
X136045671Y-109580970D01*
X136022571Y-109589235D01*
X135998773Y-109595196D01*
X135974504Y-109598796D01*
X135950000Y-109600000D01*
X133125000Y-109600000D01*
X133100496Y-109598796D01*
X133076227Y-109595196D01*
X133052429Y-109589235D01*
X133029329Y-109580970D01*
X133007151Y-109570480D01*
X132986107Y-109557867D01*
X132966402Y-109543253D01*
X132948223Y-109526777D01*
X132931747Y-109508598D01*
X132917133Y-109488893D01*
X132904520Y-109467849D01*
X132894030Y-109445671D01*
X132885765Y-109422571D01*
X132879804Y-109398773D01*
X132876204Y-109374504D01*
X132875000Y-109350000D01*
X132875000Y-108250000D01*
X132876204Y-108225496D01*
X132879804Y-108201227D01*
X132885765Y-108177429D01*
X132894030Y-108154329D01*
X132904520Y-108132151D01*
X132917133Y-108111107D01*
X132931747Y-108091402D01*
X132948223Y-108073223D01*
X132966402Y-108056747D01*
X132986107Y-108042133D01*
X133007151Y-108029520D01*
X133029329Y-108019030D01*
X133052429Y-108010765D01*
X133076227Y-108004804D01*
X133100496Y-108001204D01*
X133125000Y-108000000D01*
X135950000Y-108000000D01*
X135974504Y-108001204D01*
X135974504Y-108001204D01*
G37*
D19*
X134537500Y-108800000D03*
D11*
G36*
X130899504Y-108001204D02*
X130923773Y-108004804D01*
X130947571Y-108010765D01*
X130970671Y-108019030D01*
X130992849Y-108029520D01*
X131013893Y-108042133D01*
X131033598Y-108056747D01*
X131051777Y-108073223D01*
X131068253Y-108091402D01*
X131082867Y-108111107D01*
X131095480Y-108132151D01*
X131105970Y-108154329D01*
X131114235Y-108177429D01*
X131120196Y-108201227D01*
X131123796Y-108225496D01*
X131125000Y-108250000D01*
X131125000Y-109350000D01*
X131123796Y-109374504D01*
X131120196Y-109398773D01*
X131114235Y-109422571D01*
X131105970Y-109445671D01*
X131095480Y-109467849D01*
X131082867Y-109488893D01*
X131068253Y-109508598D01*
X131051777Y-109526777D01*
X131033598Y-109543253D01*
X131013893Y-109557867D01*
X130992849Y-109570480D01*
X130970671Y-109580970D01*
X130947571Y-109589235D01*
X130923773Y-109595196D01*
X130899504Y-109598796D01*
X130875000Y-109600000D01*
X128050000Y-109600000D01*
X128025496Y-109598796D01*
X128001227Y-109595196D01*
X127977429Y-109589235D01*
X127954329Y-109580970D01*
X127932151Y-109570480D01*
X127911107Y-109557867D01*
X127891402Y-109543253D01*
X127873223Y-109526777D01*
X127856747Y-109508598D01*
X127842133Y-109488893D01*
X127829520Y-109467849D01*
X127819030Y-109445671D01*
X127810765Y-109422571D01*
X127804804Y-109398773D01*
X127801204Y-109374504D01*
X127800000Y-109350000D01*
X127800000Y-108250000D01*
X127801204Y-108225496D01*
X127804804Y-108201227D01*
X127810765Y-108177429D01*
X127819030Y-108154329D01*
X127829520Y-108132151D01*
X127842133Y-108111107D01*
X127856747Y-108091402D01*
X127873223Y-108073223D01*
X127891402Y-108056747D01*
X127911107Y-108042133D01*
X127932151Y-108029520D01*
X127954329Y-108019030D01*
X127977429Y-108010765D01*
X128001227Y-108004804D01*
X128025496Y-108001204D01*
X128050000Y-108000000D01*
X130875000Y-108000000D01*
X130899504Y-108001204D01*
X130899504Y-108001204D01*
G37*
D19*
X129462500Y-108800000D03*
G04 #@! TD*
D11*
G04 #@! TO.C,C35*
G36*
X133785779Y-84126144D02*
X133808834Y-84129563D01*
X133831443Y-84135227D01*
X133853387Y-84143079D01*
X133874457Y-84153044D01*
X133894448Y-84165026D01*
X133913168Y-84178910D01*
X133930438Y-84194562D01*
X133946090Y-84211832D01*
X133959974Y-84230552D01*
X133971956Y-84250543D01*
X133981921Y-84271613D01*
X133989773Y-84293557D01*
X133995437Y-84316166D01*
X133998856Y-84339221D01*
X134000000Y-84362500D01*
X134000000Y-84837500D01*
X133998856Y-84860779D01*
X133995437Y-84883834D01*
X133989773Y-84906443D01*
X133981921Y-84928387D01*
X133971956Y-84949457D01*
X133959974Y-84969448D01*
X133946090Y-84988168D01*
X133930438Y-85005438D01*
X133913168Y-85021090D01*
X133894448Y-85034974D01*
X133874457Y-85046956D01*
X133853387Y-85056921D01*
X133831443Y-85064773D01*
X133808834Y-85070437D01*
X133785779Y-85073856D01*
X133762500Y-85075000D01*
X133187500Y-85075000D01*
X133164221Y-85073856D01*
X133141166Y-85070437D01*
X133118557Y-85064773D01*
X133096613Y-85056921D01*
X133075543Y-85046956D01*
X133055552Y-85034974D01*
X133036832Y-85021090D01*
X133019562Y-85005438D01*
X133003910Y-84988168D01*
X132990026Y-84969448D01*
X132978044Y-84949457D01*
X132968079Y-84928387D01*
X132960227Y-84906443D01*
X132954563Y-84883834D01*
X132951144Y-84860779D01*
X132950000Y-84837500D01*
X132950000Y-84362500D01*
X132951144Y-84339221D01*
X132954563Y-84316166D01*
X132960227Y-84293557D01*
X132968079Y-84271613D01*
X132978044Y-84250543D01*
X132990026Y-84230552D01*
X133003910Y-84211832D01*
X133019562Y-84194562D01*
X133036832Y-84178910D01*
X133055552Y-84165026D01*
X133075543Y-84153044D01*
X133096613Y-84143079D01*
X133118557Y-84135227D01*
X133141166Y-84129563D01*
X133164221Y-84126144D01*
X133187500Y-84125000D01*
X133762500Y-84125000D01*
X133785779Y-84126144D01*
X133785779Y-84126144D01*
G37*
D12*
X133475000Y-84600000D03*
D11*
G36*
X132035779Y-84126144D02*
X132058834Y-84129563D01*
X132081443Y-84135227D01*
X132103387Y-84143079D01*
X132124457Y-84153044D01*
X132144448Y-84165026D01*
X132163168Y-84178910D01*
X132180438Y-84194562D01*
X132196090Y-84211832D01*
X132209974Y-84230552D01*
X132221956Y-84250543D01*
X132231921Y-84271613D01*
X132239773Y-84293557D01*
X132245437Y-84316166D01*
X132248856Y-84339221D01*
X132250000Y-84362500D01*
X132250000Y-84837500D01*
X132248856Y-84860779D01*
X132245437Y-84883834D01*
X132239773Y-84906443D01*
X132231921Y-84928387D01*
X132221956Y-84949457D01*
X132209974Y-84969448D01*
X132196090Y-84988168D01*
X132180438Y-85005438D01*
X132163168Y-85021090D01*
X132144448Y-85034974D01*
X132124457Y-85046956D01*
X132103387Y-85056921D01*
X132081443Y-85064773D01*
X132058834Y-85070437D01*
X132035779Y-85073856D01*
X132012500Y-85075000D01*
X131437500Y-85075000D01*
X131414221Y-85073856D01*
X131391166Y-85070437D01*
X131368557Y-85064773D01*
X131346613Y-85056921D01*
X131325543Y-85046956D01*
X131305552Y-85034974D01*
X131286832Y-85021090D01*
X131269562Y-85005438D01*
X131253910Y-84988168D01*
X131240026Y-84969448D01*
X131228044Y-84949457D01*
X131218079Y-84928387D01*
X131210227Y-84906443D01*
X131204563Y-84883834D01*
X131201144Y-84860779D01*
X131200000Y-84837500D01*
X131200000Y-84362500D01*
X131201144Y-84339221D01*
X131204563Y-84316166D01*
X131210227Y-84293557D01*
X131218079Y-84271613D01*
X131228044Y-84250543D01*
X131240026Y-84230552D01*
X131253910Y-84211832D01*
X131269562Y-84194562D01*
X131286832Y-84178910D01*
X131305552Y-84165026D01*
X131325543Y-84153044D01*
X131346613Y-84143079D01*
X131368557Y-84135227D01*
X131391166Y-84129563D01*
X131414221Y-84126144D01*
X131437500Y-84125000D01*
X132012500Y-84125000D01*
X132035779Y-84126144D01*
X132035779Y-84126144D01*
G37*
D12*
X131725000Y-84600000D03*
G04 #@! TD*
D20*
G04 #@! TO.C,BT1*
X63000000Y-66350000D03*
X63000000Y-95650000D03*
G04 #@! TD*
M02*
