M48
;DRILL file {KiCad (5.0.1)} date Thu Nov 29 09:51:44 2018
;FORMAT={-:-/ absolute / inch / decimal}
FMAT,2
INCH,TZ
T1C0.0118
T2C0.0157
T3C0.0197
T4C0.0236
T5C0.0276
T6C0.0394
T7C0.0433
T8C0.0472
T9C0.0787
%
G90
G05
M72
T1
X2.0569Y-3.8238
X2.0827Y-3.
X2.0827Y-3.0354
X2.1039Y-3.5193
X2.1046Y-2.2503
X2.1063Y-2.1874
X2.1063Y-2.2835
X2.1064Y-2.2189
X2.1299Y-3.3319
X2.1555Y-3.3071
X2.1785Y-3.067
X2.2087Y-3.4331
X2.2138Y-3.0665
X2.2162Y-3.1558
X2.2441Y-3.1761
X2.3187Y-3.4862
X2.3858Y-3.4921
X2.5406Y-3.3689
X2.7087Y-3.252
X2.8083Y-3.0142
X2.8346Y-3.2913
X2.8435Y-3.3957
X2.8543Y-2.9537
X2.8543Y-3.0118
X2.8543Y-3.0709
X2.8543Y-3.1299
X2.8543Y-3.189
X2.8543Y-3.248
X2.8674Y-3.4285
X2.8817Y-3.3711
X2.8819Y-2.4567
X2.9232Y-3.0315
X2.9232Y-3.0906
X2.9232Y-3.1496
X2.9232Y-3.2087
X2.9232Y-3.2677
X2.9232Y-2.9724
X2.937Y-3.4567
X3.0217Y-2.8543
X3.0315Y-3.2874
X3.0485Y-3.6444
X3.0512Y-2.8002
X3.0512Y-2.9921
X3.0512Y-3.0512
X3.0512Y-3.1102
X3.0512Y-3.1693
X3.0512Y-3.2283
X3.0551Y-3.3583
X3.063Y-2.5984
X3.0807Y-2.3425
X3.0807Y-3.563
X3.1004Y-3.435
X3.1201Y-2.3425
X3.1201Y-3.6319
X3.1398Y-3.563
X3.1594Y-2.3425
X3.1594Y-3.435
X3.1791Y-3.6319
X3.1988Y-2.3425
X3.1988Y-3.563
X3.2185Y-3.435
X3.2382Y-3.6319
X3.2579Y-3.563
X3.2677Y-2.3425
X3.2776Y-3.435
X3.2913Y-3.2756
X3.2972Y-3.6319
X3.3071Y-2.3425
X3.3169Y-2.9429
X3.3169Y-3.563
X3.3366Y-2.815
X3.3366Y-3.435
X3.3465Y-2.3425
X3.3563Y-3.6319
X3.376Y-2.9429
X3.376Y-3.563
X3.378Y-3.2756
X3.3851Y-2.7853
X3.3858Y-2.3425
X3.3957Y-2.815
X3.3957Y-3.435
X3.4154Y-3.563
X3.4252Y-2.7874
X3.4547Y-3.563
X3.4567Y-2.811
X3.4646Y-3.0217
X3.4646Y-3.061
X3.4744Y-2.9331
X3.4744Y-3.435
X3.4817Y-2.7919
X3.4839Y-2.7592
X3.4911Y-3.3646
X3.4921Y-2.8228
X3.4941Y-3.563
X3.5039Y-3.1102
X3.5197Y-2.7464
X3.5276Y-3.2441
X3.5335Y-3.1594
X3.5335Y-3.1988
X3.5335Y-3.4461
X3.5433Y-2.9872
X3.5433Y-3.0906
X3.5433Y-3.3071
X3.5651Y-3.4055
X3.6658Y-2.7831
X3.6693Y-2.9449
X3.6713Y-3.1102
X3.6713Y-3.4252
X3.6811Y-3.3268
X3.683Y-3.3596
X3.689Y-3.3937
X3.7126Y-3.0866
X3.8Y-3.2321
X4.0079Y-2.5551
X4.0354Y-3.1299
X4.1732Y-3.1063
X4.2618Y-2.6083
X4.2841Y-2.6404
X4.3136Y-2.6057
X4.3406Y-2.6378
X4.378Y-2.5512
X4.4409Y-2.7087
X4.4685Y-2.2323
X4.4961Y-3.2598
X4.4961Y-3.3543
X5.185Y-3.2726
X5.2283Y-3.2677
X5.2441Y-3.1063
X5.3307Y-3.3937
X5.3543Y-3.1024
X5.3583Y-3.2598
X5.3622Y-3.1417
X5.4016Y-3.2953
X5.4016Y-3.4331
X5.4055Y-3.0748
X5.4291Y-2.9606
X5.4685Y-2.9606
X5.4724Y-3.2992
X5.4724Y-3.4331
X5.4876Y-3.0778
X5.5036Y-3.4375
X5.5079Y-2.9449
X5.5097Y-3.3022
X5.5236Y-3.0709
X5.5404Y-3.2913
X5.5456Y-2.9623
X5.5827Y-3.0709
X5.5827Y-3.2126
X5.5827Y-3.2717
X5.5827Y-3.4331
X5.5906Y-3.1398
X5.6102Y-2.8543
X5.6479Y-2.8348
X5.7165Y-3.2598
X5.7165Y-3.3307
X5.7185Y-3.2087
X5.7382Y-3.1841
X5.9331Y-3.2205
X5.9724Y-3.2677
X5.9764Y-3.2244
T2
X2.9803Y-3.8622
X3.1457Y-4.2874
X3.2559Y-4.0787
X3.5906Y-2.8976
X3.6063Y-2.6024
X3.6063Y-3.7756
X3.8583Y-3.8622
X4.1831Y-2.4705
X4.4764Y-3.7756
X4.4961Y-2.5984
X4.7244Y-3.8622
X5.2835Y-3.3858
X5.3465Y-2.9606
X6.1102Y-3.7047
X6.126Y-3.0984
T3
X3.9488Y-3.3504
X3.9488Y-3.4252
T4
X2.0472Y-3.2677
X2.126Y-3.0295
X2.1654Y-3.6614
X2.2835Y-2.2835
X2.3228Y-2.0472
X2.5197Y-3.1496
X2.5197Y-3.4646
X2.5591Y-2.3228
X2.5591Y-2.5197
X2.5984Y-3.4646
X2.6181Y-3.7795
X2.6378Y-2.7953
X2.8346Y-2.0472
X2.9528Y-2.874
X2.9921Y-3.7402
X3.2283Y-2.5591
X3.2283Y-3.0709
X3.2283Y-3.2283
X3.3465Y-2.0472
X3.3907Y-2.5197
X3.6614Y-2.3622
X3.8976Y-2.6772
X3.937Y-2.3228
X3.937Y-3.5827
X3.937Y-3.7402
X4.0945Y-3.4646
X4.0945Y-3.8189
X4.1339Y-2.8346
X4.1732Y-3.189
X4.1732Y-3.8189
X4.5902Y-1.9169
X4.6063Y-3.2283
X4.6063Y-3.3858
X4.8031Y-2.3622
X4.8031Y-2.6772
X4.8031Y-2.9921
X4.8031Y-3.2283
X4.8031Y-3.3858
X4.8031Y-3.622
X5.Y-3.2283
X5.Y-3.3858
X5.Y-3.622
X5.1575Y-2.3622
X5.1575Y-2.6772
X5.1575Y-3.622
X5.4724Y-3.189
X5.5118Y-2.3622
X5.5118Y-2.6772
X5.5906Y-2.2047
X5.5906Y-2.3622
X5.5906Y-2.5197
X5.5906Y-2.6772
X5.5906Y-3.7008
X5.6929Y-3.4173
X5.6988Y-3.0413
X5.748Y-2.2047
X5.748Y-2.3622
X5.748Y-2.5197
X5.748Y-2.6772
X5.7874Y-3.7008
X5.8268Y-3.2677
X5.9449Y-3.5827
X5.9843Y-3.4646
X6.063Y-2.5197
X6.063Y-2.6772
X6.063Y-2.9921
X6.063Y-2.9921
X6.063Y-2.9921
T5
X6.2795Y-3.0935
X6.2795Y-3.2844
T6
X4.6016Y-2.1598
X4.7016Y-2.1598
X4.8016Y-2.1598
X4.9016Y-2.1598
X4.6016Y-2.0669
X4.7016Y-2.0669
X4.8016Y-2.0669
X4.9016Y-2.0669
X5.2016Y-2.1598
X5.3016Y-2.1598
X5.4016Y-2.1598
X5.5016Y-2.1598
X5.2016Y-2.0669
X5.3016Y-2.0669
X5.4016Y-2.0669
X5.5016Y-2.0669
X1.8587Y-2.5787
X1.8587Y-2.6772
X1.8587Y-2.7559
X1.8587Y-2.8543
X4.1732Y-2.6063
X4.1732Y-2.9055
X1.8587Y-3.5236
X1.8587Y-3.622
X1.8587Y-3.7008
X1.8587Y-3.7992
X1.4701Y-3.148
X1.4701Y-3.248
X1.5701Y-3.148
X1.5701Y-3.248
X1.6701Y-3.148
X1.6701Y-3.248
X1.7701Y-3.148
X1.7701Y-3.248
X1.8701Y-3.148
X1.8701Y-3.248
T7
X6.3839Y-3.0463
X6.3839Y-3.3317
T8
X2.122Y-2.4528
X2.3622Y-4.0157
X3.3465Y-3.8898
X3.4921Y-3.9528
X5.3543Y-4.4134
X5.378Y-4.1693
T9
X1.752Y-2.4291
X1.752Y-3.0039
X1.752Y-3.374
X1.752Y-3.9488
T0
M30
