G04 #@! TF.GenerationSoftware,KiCad,Pcbnew,(5.0.1)*
G04 #@! TF.CreationDate,2018-11-29T09:51:47+09:00*
G04 #@! TF.ProjectId,securehid,7365637572656869642E6B696361645F,rev?*
G04 #@! TF.SameCoordinates,Original*
G04 #@! TF.FileFunction,Legend,Top*
G04 #@! TF.FilePolarity,Positive*
%FSLAX46Y46*%
G04 Gerber Fmt 4.6, Leading zero omitted, Abs format (unit mm)*
G04 Created by KiCad (PCBNEW (5.0.1)) date Thu Nov 29 09:51:47 2018*
%MOMM*%
%LPD*%
G01*
G04 APERTURE LIST*
%ADD10C,0.120000*%
%ADD11C,0.150000*%
G04 APERTURE END LIST*
D10*
G04 #@! TO.C,C1*
X74971267Y-70690000D02*
X74628733Y-70690000D01*
X74971267Y-71710000D02*
X74628733Y-71710000D01*
G04 #@! TO.C,C2*
X90990000Y-68421267D02*
X90990000Y-68078733D01*
X92010000Y-68421267D02*
X92010000Y-68078733D01*
G04 #@! TO.C,C4*
X75240000Y-91828733D02*
X75240000Y-92171267D01*
X76260000Y-91828733D02*
X76260000Y-92171267D01*
G04 #@! TO.C,C11*
X94760000Y-76671267D02*
X94760000Y-76328733D01*
X93740000Y-76671267D02*
X93740000Y-76328733D01*
G04 #@! TO.C,C13*
X133410000Y-76371267D02*
X133410000Y-76028733D01*
X132390000Y-76371267D02*
X132390000Y-76028733D01*
G04 #@! TO.C,C14*
X74971267Y-69910000D02*
X74628733Y-69910000D01*
X74971267Y-68890000D02*
X74628733Y-68890000D01*
G04 #@! TO.C,C15*
X72240000Y-89328733D02*
X72240000Y-89671267D01*
X73260000Y-89328733D02*
X73260000Y-89671267D01*
G04 #@! TO.C,C16*
X126610000Y-75928733D02*
X126610000Y-76271267D01*
X125590000Y-75928733D02*
X125590000Y-76271267D01*
G04 #@! TO.C,C17*
X99328733Y-75240000D02*
X99671267Y-75240000D01*
X99328733Y-76260000D02*
X99671267Y-76260000D01*
G04 #@! TO.C,C18*
X95490000Y-76328733D02*
X95490000Y-76671267D01*
X96510000Y-76328733D02*
X96510000Y-76671267D01*
G04 #@! TO.C,C19*
X98410000Y-88171267D02*
X98410000Y-87828733D01*
X97390000Y-88171267D02*
X97390000Y-87828733D01*
G04 #@! TO.C,C20*
X63201221Y-72740795D02*
X63201221Y-73083329D01*
X64221221Y-72740795D02*
X64221221Y-73083329D01*
G04 #@! TO.C,C21*
X55701221Y-73083329D02*
X55701221Y-72740795D01*
X56721221Y-73083329D02*
X56721221Y-72740795D01*
G04 #@! TO.C,C22*
X98410000Y-83928733D02*
X98410000Y-84271267D01*
X97390000Y-83928733D02*
X97390000Y-84271267D01*
G04 #@! TO.C,C23*
X69490000Y-82296267D02*
X69490000Y-81953733D01*
X70510000Y-82296267D02*
X70510000Y-81953733D01*
G04 #@! TO.C,C24*
X57828733Y-85510000D02*
X58171267Y-85510000D01*
X57828733Y-84490000D02*
X58171267Y-84490000D01*
G04 #@! TO.C,C26*
X44260000Y-95828733D02*
X44260000Y-96171267D01*
X43240000Y-95828733D02*
X43240000Y-96171267D01*
G04 #@! TO.C,C28*
X83271267Y-102210000D02*
X82928733Y-102210000D01*
X83271267Y-101190000D02*
X82928733Y-101190000D01*
G04 #@! TO.C,C29*
X102678307Y-69822058D02*
X102335773Y-69822058D01*
X102678307Y-68802058D02*
X102335773Y-68802058D01*
G04 #@! TO.C,Q3*
X104380000Y-65740000D02*
X103450000Y-65740000D01*
X101220000Y-65740000D02*
X102150000Y-65740000D01*
X101220000Y-65740000D02*
X101220000Y-67900000D01*
X104380000Y-65740000D02*
X104380000Y-67200000D01*
G04 #@! TO.C,R2*
X94760000Y-80421267D02*
X94760000Y-80078733D01*
X93740000Y-80421267D02*
X93740000Y-80078733D01*
G04 #@! TO.C,R3*
X130621267Y-81740000D02*
X130278733Y-81740000D01*
X130621267Y-82760000D02*
X130278733Y-82760000D01*
G04 #@! TO.C,R4*
X129771267Y-79810000D02*
X129428733Y-79810000D01*
X129771267Y-78790000D02*
X129428733Y-78790000D01*
G04 #@! TO.C,R8*
X95490000Y-80421267D02*
X95490000Y-80078733D01*
X96510000Y-80421267D02*
X96510000Y-80078733D01*
G04 #@! TO.C,R10*
X58171267Y-87760000D02*
X57828733Y-87760000D01*
X58171267Y-86740000D02*
X57828733Y-86740000D01*
G04 #@! TO.C,R11*
X69490000Y-77828733D02*
X69490000Y-78171267D01*
X70510000Y-77828733D02*
X70510000Y-78171267D01*
G04 #@! TO.C,R24*
X106510000Y-69578733D02*
X106510000Y-69921267D01*
X105490000Y-69578733D02*
X105490000Y-69921267D01*
G04 #@! TO.C,R25*
X102335773Y-71052058D02*
X102678307Y-71052058D01*
X102335773Y-72072058D02*
X102678307Y-72072058D01*
G04 #@! TO.C,RN1*
X86570000Y-68750000D02*
X86570000Y-67750000D01*
X89930000Y-68750000D02*
X89930000Y-67750000D01*
G04 #@! TO.C,RN2*
X85680000Y-68750000D02*
X85680000Y-67750000D01*
X82320000Y-68750000D02*
X82320000Y-67750000D01*
G04 #@! TO.C,RN3*
X78070000Y-68750000D02*
X78070000Y-67750000D01*
X81430000Y-68750000D02*
X81430000Y-67750000D01*
G04 #@! TO.C,U1*
X79290000Y-110910000D02*
X80550000Y-110910000D01*
X86110000Y-110910000D02*
X84850000Y-110910000D01*
X79290000Y-107150000D02*
X79290000Y-110910000D01*
X86110000Y-104900000D02*
X86110000Y-110910000D01*
G04 #@! TO.C,U2*
X142760000Y-77440000D02*
X142760000Y-77860000D01*
X142760000Y-84560000D02*
X142760000Y-84140000D01*
X135640000Y-84560000D02*
X135640000Y-84140000D01*
X135640000Y-77440000D02*
X136060000Y-77440000D01*
X142760000Y-84560000D02*
X142340000Y-84560000D01*
X142760000Y-77440000D02*
X142340000Y-77440000D01*
X135640000Y-77860000D02*
X134260000Y-77860000D01*
X135640000Y-77440000D02*
X135640000Y-77860000D01*
X135640000Y-84560000D02*
X136060000Y-84560000D01*
D11*
G04 #@! TO.C,U3*
X90875000Y-88125000D02*
X90875000Y-87475000D01*
X76625000Y-88125000D02*
X76625000Y-87365000D01*
X76625000Y-73875000D02*
X76625000Y-74635000D01*
X90875000Y-73875000D02*
X90875000Y-74635000D01*
X90875000Y-88125000D02*
X90115000Y-88125000D01*
X90875000Y-73875000D02*
X90115000Y-73875000D01*
X76625000Y-73875000D02*
X77385000Y-73875000D01*
X76625000Y-88125000D02*
X77385000Y-88125000D01*
X90875000Y-87475000D02*
X92400000Y-87475000D01*
G04 #@! TO.C,U4*
X62425000Y-75920000D02*
X62425000Y-76400000D01*
X66575000Y-75920000D02*
X66575000Y-76400000D01*
X66575000Y-86080000D02*
X66575000Y-85600000D01*
X62425000Y-86080000D02*
X62425000Y-85600000D01*
X62425000Y-75920000D02*
X66575000Y-75920000D01*
X62425000Y-86080000D02*
X66575000Y-86080000D01*
X62425000Y-76400000D02*
X61300000Y-76400000D01*
D10*
G04 #@! TO.C,TP58*
X90050000Y-79200000D02*
X90050000Y-77800000D01*
X91450000Y-79200000D02*
X90050000Y-79200000D01*
X91450000Y-77800000D02*
X91450000Y-79200000D01*
X90050000Y-77800000D02*
X91450000Y-77800000D01*
G04 #@! TO.C,C30*
X70510000Y-74078733D02*
X70510000Y-74421267D01*
X69490000Y-74078733D02*
X69490000Y-74421267D01*
G04 #@! TO.C,C32*
X131703733Y-102290000D02*
X132046267Y-102290000D01*
X131703733Y-103310000D02*
X132046267Y-103310000D01*
G04 #@! TO.C,C33*
X143328733Y-87890000D02*
X143671267Y-87890000D01*
X143328733Y-88910000D02*
X143671267Y-88910000D01*
G04 #@! TO.C,U5*
X128340000Y-110960000D02*
X129600000Y-110960000D01*
X135160000Y-110960000D02*
X133900000Y-110960000D01*
X128340000Y-107200000D02*
X128340000Y-110960000D01*
X135160000Y-104950000D02*
X135160000Y-110960000D01*
G04 #@! TO.C,C31*
X135403733Y-73590000D02*
X135746267Y-73590000D01*
X135403733Y-74610000D02*
X135746267Y-74610000D01*
G04 #@! TO.C,C36*
X144328733Y-73690000D02*
X144671267Y-73690000D01*
X144328733Y-74710000D02*
X144671267Y-74710000D01*
G04 #@! TO.C,Y1*
X132300000Y-78450000D02*
X132300000Y-73950000D01*
X132300000Y-73950000D02*
X126900000Y-73950000D01*
G04 #@! TO.C,Y2*
X102200000Y-81250000D02*
X102200000Y-76750000D01*
X102200000Y-76750000D02*
X96800000Y-76750000D01*
G04 #@! TO.C,Y3*
X102600000Y-87350000D02*
X102100000Y-87350000D01*
X102100000Y-87350000D02*
X102100000Y-84750000D01*
X102100000Y-84750000D02*
X102600000Y-84750000D01*
X102100000Y-86400000D02*
X101200000Y-87000000D01*
X101200000Y-87000000D02*
X101000000Y-87000000D01*
X102100000Y-85700000D02*
X101200000Y-85100000D01*
X101200000Y-85100000D02*
X101000000Y-85100000D01*
G04 #@! TO.C,Y4*
X62661221Y-70662062D02*
X57261221Y-70662062D01*
X62661221Y-75162062D02*
X62661221Y-70662062D01*
G04 #@! TO.C,C1*
D11*
X71833333Y-71657142D02*
X71785714Y-71704761D01*
X71642857Y-71752380D01*
X71547619Y-71752380D01*
X71404761Y-71704761D01*
X71309523Y-71609523D01*
X71261904Y-71514285D01*
X71214285Y-71323809D01*
X71214285Y-71180952D01*
X71261904Y-70990476D01*
X71309523Y-70895238D01*
X71404761Y-70800000D01*
X71547619Y-70752380D01*
X71642857Y-70752380D01*
X71785714Y-70800000D01*
X71833333Y-70847619D01*
X72785714Y-71752380D02*
X72214285Y-71752380D01*
X72500000Y-71752380D02*
X72500000Y-70752380D01*
X72404761Y-70895238D01*
X72309523Y-70990476D01*
X72214285Y-71038095D01*
G04 #@! TO.C,C2*
X93357142Y-68166666D02*
X93404761Y-68214285D01*
X93452380Y-68357142D01*
X93452380Y-68452380D01*
X93404761Y-68595238D01*
X93309523Y-68690476D01*
X93214285Y-68738095D01*
X93023809Y-68785714D01*
X92880952Y-68785714D01*
X92690476Y-68738095D01*
X92595238Y-68690476D01*
X92500000Y-68595238D01*
X92452380Y-68452380D01*
X92452380Y-68357142D01*
X92500000Y-68214285D01*
X92547619Y-68166666D01*
X92547619Y-67785714D02*
X92500000Y-67738095D01*
X92452380Y-67642857D01*
X92452380Y-67404761D01*
X92500000Y-67309523D01*
X92547619Y-67261904D01*
X92642857Y-67214285D01*
X92738095Y-67214285D01*
X92880952Y-67261904D01*
X93452380Y-67833333D01*
X93452380Y-67214285D01*
G04 #@! TO.C,C4*
X74957142Y-92666666D02*
X75004761Y-92714285D01*
X75052380Y-92857142D01*
X75052380Y-92952380D01*
X75004761Y-93095238D01*
X74909523Y-93190476D01*
X74814285Y-93238095D01*
X74623809Y-93285714D01*
X74480952Y-93285714D01*
X74290476Y-93238095D01*
X74195238Y-93190476D01*
X74100000Y-93095238D01*
X74052380Y-92952380D01*
X74052380Y-92857142D01*
X74100000Y-92714285D01*
X74147619Y-92666666D01*
X74385714Y-91809523D02*
X75052380Y-91809523D01*
X74004761Y-92047619D02*
X74719047Y-92285714D01*
X74719047Y-91666666D01*
G04 #@! TO.C,C11*
X94657142Y-73642857D02*
X94704761Y-73690476D01*
X94752380Y-73833333D01*
X94752380Y-73928571D01*
X94704761Y-74071428D01*
X94609523Y-74166666D01*
X94514285Y-74214285D01*
X94323809Y-74261904D01*
X94180952Y-74261904D01*
X93990476Y-74214285D01*
X93895238Y-74166666D01*
X93800000Y-74071428D01*
X93752380Y-73928571D01*
X93752380Y-73833333D01*
X93800000Y-73690476D01*
X93847619Y-73642857D01*
X94752380Y-72690476D02*
X94752380Y-73261904D01*
X94752380Y-72976190D02*
X93752380Y-72976190D01*
X93895238Y-73071428D01*
X93990476Y-73166666D01*
X94038095Y-73261904D01*
X94752380Y-71738095D02*
X94752380Y-72309523D01*
X94752380Y-72023809D02*
X93752380Y-72023809D01*
X93895238Y-72119047D01*
X93990476Y-72214285D01*
X94038095Y-72309523D01*
G04 #@! TO.C,C13*
X133257142Y-73742857D02*
X133304761Y-73790476D01*
X133352380Y-73933333D01*
X133352380Y-74028571D01*
X133304761Y-74171428D01*
X133209523Y-74266666D01*
X133114285Y-74314285D01*
X132923809Y-74361904D01*
X132780952Y-74361904D01*
X132590476Y-74314285D01*
X132495238Y-74266666D01*
X132400000Y-74171428D01*
X132352380Y-74028571D01*
X132352380Y-73933333D01*
X132400000Y-73790476D01*
X132447619Y-73742857D01*
X133352380Y-72790476D02*
X133352380Y-73361904D01*
X133352380Y-73076190D02*
X132352380Y-73076190D01*
X132495238Y-73171428D01*
X132590476Y-73266666D01*
X132638095Y-73361904D01*
X132352380Y-72457142D02*
X132352380Y-71838095D01*
X132733333Y-72171428D01*
X132733333Y-72028571D01*
X132780952Y-71933333D01*
X132828571Y-71885714D01*
X132923809Y-71838095D01*
X133161904Y-71838095D01*
X133257142Y-71885714D01*
X133304761Y-71933333D01*
X133352380Y-72028571D01*
X133352380Y-72314285D01*
X133304761Y-72409523D01*
X133257142Y-72457142D01*
G04 #@! TO.C,C14*
X70757142Y-69857142D02*
X70709523Y-69904761D01*
X70566666Y-69952380D01*
X70471428Y-69952380D01*
X70328571Y-69904761D01*
X70233333Y-69809523D01*
X70185714Y-69714285D01*
X70138095Y-69523809D01*
X70138095Y-69380952D01*
X70185714Y-69190476D01*
X70233333Y-69095238D01*
X70328571Y-69000000D01*
X70471428Y-68952380D01*
X70566666Y-68952380D01*
X70709523Y-69000000D01*
X70757142Y-69047619D01*
X71709523Y-69952380D02*
X71138095Y-69952380D01*
X71423809Y-69952380D02*
X71423809Y-68952380D01*
X71328571Y-69095238D01*
X71233333Y-69190476D01*
X71138095Y-69238095D01*
X72566666Y-69285714D02*
X72566666Y-69952380D01*
X72328571Y-68904761D02*
X72090476Y-69619047D01*
X72709523Y-69619047D01*
G04 #@! TO.C,C15*
X74537142Y-90142857D02*
X74584761Y-90190476D01*
X74632380Y-90333333D01*
X74632380Y-90428571D01*
X74584761Y-90571428D01*
X74489523Y-90666666D01*
X74394285Y-90714285D01*
X74203809Y-90761904D01*
X74060952Y-90761904D01*
X73870476Y-90714285D01*
X73775238Y-90666666D01*
X73680000Y-90571428D01*
X73632380Y-90428571D01*
X73632380Y-90333333D01*
X73680000Y-90190476D01*
X73727619Y-90142857D01*
X74632380Y-89190476D02*
X74632380Y-89761904D01*
X74632380Y-89476190D02*
X73632380Y-89476190D01*
X73775238Y-89571428D01*
X73870476Y-89666666D01*
X73918095Y-89761904D01*
X73632380Y-88285714D02*
X73632380Y-88761904D01*
X74108571Y-88809523D01*
X74060952Y-88761904D01*
X74013333Y-88666666D01*
X74013333Y-88428571D01*
X74060952Y-88333333D01*
X74108571Y-88285714D01*
X74203809Y-88238095D01*
X74441904Y-88238095D01*
X74537142Y-88285714D01*
X74584761Y-88333333D01*
X74632380Y-88428571D01*
X74632380Y-88666666D01*
X74584761Y-88761904D01*
X74537142Y-88809523D01*
G04 #@! TO.C,C16*
X126357142Y-73542857D02*
X126404761Y-73590476D01*
X126452380Y-73733333D01*
X126452380Y-73828571D01*
X126404761Y-73971428D01*
X126309523Y-74066666D01*
X126214285Y-74114285D01*
X126023809Y-74161904D01*
X125880952Y-74161904D01*
X125690476Y-74114285D01*
X125595238Y-74066666D01*
X125500000Y-73971428D01*
X125452380Y-73828571D01*
X125452380Y-73733333D01*
X125500000Y-73590476D01*
X125547619Y-73542857D01*
X126452380Y-72590476D02*
X126452380Y-73161904D01*
X126452380Y-72876190D02*
X125452380Y-72876190D01*
X125595238Y-72971428D01*
X125690476Y-73066666D01*
X125738095Y-73161904D01*
X125452380Y-71733333D02*
X125452380Y-71923809D01*
X125500000Y-72019047D01*
X125547619Y-72066666D01*
X125690476Y-72161904D01*
X125880952Y-72209523D01*
X126261904Y-72209523D01*
X126357142Y-72161904D01*
X126404761Y-72114285D01*
X126452380Y-72019047D01*
X126452380Y-71828571D01*
X126404761Y-71733333D01*
X126357142Y-71685714D01*
X126261904Y-71638095D01*
X126023809Y-71638095D01*
X125928571Y-71685714D01*
X125880952Y-71733333D01*
X125833333Y-71828571D01*
X125833333Y-72019047D01*
X125880952Y-72114285D01*
X125928571Y-72161904D01*
X126023809Y-72209523D01*
G04 #@! TO.C,C17*
X98857142Y-74677142D02*
X98809523Y-74724761D01*
X98666666Y-74772380D01*
X98571428Y-74772380D01*
X98428571Y-74724761D01*
X98333333Y-74629523D01*
X98285714Y-74534285D01*
X98238095Y-74343809D01*
X98238095Y-74200952D01*
X98285714Y-74010476D01*
X98333333Y-73915238D01*
X98428571Y-73820000D01*
X98571428Y-73772380D01*
X98666666Y-73772380D01*
X98809523Y-73820000D01*
X98857142Y-73867619D01*
X99809523Y-74772380D02*
X99238095Y-74772380D01*
X99523809Y-74772380D02*
X99523809Y-73772380D01*
X99428571Y-73915238D01*
X99333333Y-74010476D01*
X99238095Y-74058095D01*
X100142857Y-73772380D02*
X100809523Y-73772380D01*
X100380952Y-74772380D01*
G04 #@! TO.C,C18*
X96357142Y-74042857D02*
X96404761Y-74090476D01*
X96452380Y-74233333D01*
X96452380Y-74328571D01*
X96404761Y-74471428D01*
X96309523Y-74566666D01*
X96214285Y-74614285D01*
X96023809Y-74661904D01*
X95880952Y-74661904D01*
X95690476Y-74614285D01*
X95595238Y-74566666D01*
X95500000Y-74471428D01*
X95452380Y-74328571D01*
X95452380Y-74233333D01*
X95500000Y-74090476D01*
X95547619Y-74042857D01*
X96452380Y-73090476D02*
X96452380Y-73661904D01*
X96452380Y-73376190D02*
X95452380Y-73376190D01*
X95595238Y-73471428D01*
X95690476Y-73566666D01*
X95738095Y-73661904D01*
X95880952Y-72519047D02*
X95833333Y-72614285D01*
X95785714Y-72661904D01*
X95690476Y-72709523D01*
X95642857Y-72709523D01*
X95547619Y-72661904D01*
X95500000Y-72614285D01*
X95452380Y-72519047D01*
X95452380Y-72328571D01*
X95500000Y-72233333D01*
X95547619Y-72185714D01*
X95642857Y-72138095D01*
X95690476Y-72138095D01*
X95785714Y-72185714D01*
X95833333Y-72233333D01*
X95880952Y-72328571D01*
X95880952Y-72519047D01*
X95928571Y-72614285D01*
X95976190Y-72661904D01*
X96071428Y-72709523D01*
X96261904Y-72709523D01*
X96357142Y-72661904D01*
X96404761Y-72614285D01*
X96452380Y-72519047D01*
X96452380Y-72328571D01*
X96404761Y-72233333D01*
X96357142Y-72185714D01*
X96261904Y-72138095D01*
X96071428Y-72138095D01*
X95976190Y-72185714D01*
X95928571Y-72233333D01*
X95880952Y-72328571D01*
G04 #@! TO.C,C19*
X96827142Y-88642857D02*
X96874761Y-88690476D01*
X96922380Y-88833333D01*
X96922380Y-88928571D01*
X96874761Y-89071428D01*
X96779523Y-89166666D01*
X96684285Y-89214285D01*
X96493809Y-89261904D01*
X96350952Y-89261904D01*
X96160476Y-89214285D01*
X96065238Y-89166666D01*
X95970000Y-89071428D01*
X95922380Y-88928571D01*
X95922380Y-88833333D01*
X95970000Y-88690476D01*
X96017619Y-88642857D01*
X96922380Y-87690476D02*
X96922380Y-88261904D01*
X96922380Y-87976190D02*
X95922380Y-87976190D01*
X96065238Y-88071428D01*
X96160476Y-88166666D01*
X96208095Y-88261904D01*
X96922380Y-87214285D02*
X96922380Y-87023809D01*
X96874761Y-86928571D01*
X96827142Y-86880952D01*
X96684285Y-86785714D01*
X96493809Y-86738095D01*
X96112857Y-86738095D01*
X96017619Y-86785714D01*
X95970000Y-86833333D01*
X95922380Y-86928571D01*
X95922380Y-87119047D01*
X95970000Y-87214285D01*
X96017619Y-87261904D01*
X96112857Y-87309523D01*
X96350952Y-87309523D01*
X96446190Y-87261904D01*
X96493809Y-87214285D01*
X96541428Y-87119047D01*
X96541428Y-86928571D01*
X96493809Y-86833333D01*
X96446190Y-86785714D01*
X96350952Y-86738095D01*
G04 #@! TO.C,C20*
X65498363Y-73554919D02*
X65545982Y-73602538D01*
X65593601Y-73745395D01*
X65593601Y-73840633D01*
X65545982Y-73983490D01*
X65450744Y-74078728D01*
X65355506Y-74126347D01*
X65165030Y-74173966D01*
X65022173Y-74173966D01*
X64831697Y-74126347D01*
X64736459Y-74078728D01*
X64641221Y-73983490D01*
X64593601Y-73840633D01*
X64593601Y-73745395D01*
X64641221Y-73602538D01*
X64688840Y-73554919D01*
X64688840Y-73173966D02*
X64641221Y-73126347D01*
X64593601Y-73031109D01*
X64593601Y-72793014D01*
X64641221Y-72697776D01*
X64688840Y-72650157D01*
X64784078Y-72602538D01*
X64879316Y-72602538D01*
X65022173Y-72650157D01*
X65593601Y-73221585D01*
X65593601Y-72602538D01*
X64593601Y-71983490D02*
X64593601Y-71888252D01*
X64641221Y-71793014D01*
X64688840Y-71745395D01*
X64784078Y-71697776D01*
X64974554Y-71650157D01*
X65212649Y-71650157D01*
X65403125Y-71697776D01*
X65498363Y-71745395D01*
X65545982Y-71793014D01*
X65593601Y-71888252D01*
X65593601Y-71983490D01*
X65545982Y-72078728D01*
X65498363Y-72126347D01*
X65403125Y-72173966D01*
X65212649Y-72221585D01*
X64974554Y-72221585D01*
X64784078Y-72173966D01*
X64688840Y-72126347D01*
X64641221Y-72078728D01*
X64593601Y-71983490D01*
G04 #@! TO.C,C21*
X55138363Y-73554919D02*
X55185982Y-73602538D01*
X55233601Y-73745395D01*
X55233601Y-73840633D01*
X55185982Y-73983490D01*
X55090744Y-74078728D01*
X54995506Y-74126347D01*
X54805030Y-74173966D01*
X54662173Y-74173966D01*
X54471697Y-74126347D01*
X54376459Y-74078728D01*
X54281221Y-73983490D01*
X54233601Y-73840633D01*
X54233601Y-73745395D01*
X54281221Y-73602538D01*
X54328840Y-73554919D01*
X54328840Y-73173966D02*
X54281221Y-73126347D01*
X54233601Y-73031109D01*
X54233601Y-72793014D01*
X54281221Y-72697776D01*
X54328840Y-72650157D01*
X54424078Y-72602538D01*
X54519316Y-72602538D01*
X54662173Y-72650157D01*
X55233601Y-73221585D01*
X55233601Y-72602538D01*
X55233601Y-71650157D02*
X55233601Y-72221585D01*
X55233601Y-71935871D02*
X54233601Y-71935871D01*
X54376459Y-72031109D01*
X54471697Y-72126347D01*
X54519316Y-72221585D01*
G04 #@! TO.C,C22*
X96857142Y-84492857D02*
X96904761Y-84540476D01*
X96952380Y-84683333D01*
X96952380Y-84778571D01*
X96904761Y-84921428D01*
X96809523Y-85016666D01*
X96714285Y-85064285D01*
X96523809Y-85111904D01*
X96380952Y-85111904D01*
X96190476Y-85064285D01*
X96095238Y-85016666D01*
X96000000Y-84921428D01*
X95952380Y-84778571D01*
X95952380Y-84683333D01*
X96000000Y-84540476D01*
X96047619Y-84492857D01*
X96047619Y-84111904D02*
X96000000Y-84064285D01*
X95952380Y-83969047D01*
X95952380Y-83730952D01*
X96000000Y-83635714D01*
X96047619Y-83588095D01*
X96142857Y-83540476D01*
X96238095Y-83540476D01*
X96380952Y-83588095D01*
X96952380Y-84159523D01*
X96952380Y-83540476D01*
X96047619Y-83159523D02*
X96000000Y-83111904D01*
X95952380Y-83016666D01*
X95952380Y-82778571D01*
X96000000Y-82683333D01*
X96047619Y-82635714D01*
X96142857Y-82588095D01*
X96238095Y-82588095D01*
X96380952Y-82635714D01*
X96952380Y-83207142D01*
X96952380Y-82588095D01*
G04 #@! TO.C,C23*
X68927142Y-82767857D02*
X68974761Y-82815476D01*
X69022380Y-82958333D01*
X69022380Y-83053571D01*
X68974761Y-83196428D01*
X68879523Y-83291666D01*
X68784285Y-83339285D01*
X68593809Y-83386904D01*
X68450952Y-83386904D01*
X68260476Y-83339285D01*
X68165238Y-83291666D01*
X68070000Y-83196428D01*
X68022380Y-83053571D01*
X68022380Y-82958333D01*
X68070000Y-82815476D01*
X68117619Y-82767857D01*
X68117619Y-82386904D02*
X68070000Y-82339285D01*
X68022380Y-82244047D01*
X68022380Y-82005952D01*
X68070000Y-81910714D01*
X68117619Y-81863095D01*
X68212857Y-81815476D01*
X68308095Y-81815476D01*
X68450952Y-81863095D01*
X69022380Y-82434523D01*
X69022380Y-81815476D01*
X68022380Y-81482142D02*
X68022380Y-80863095D01*
X68403333Y-81196428D01*
X68403333Y-81053571D01*
X68450952Y-80958333D01*
X68498571Y-80910714D01*
X68593809Y-80863095D01*
X68831904Y-80863095D01*
X68927142Y-80910714D01*
X68974761Y-80958333D01*
X69022380Y-81053571D01*
X69022380Y-81339285D01*
X68974761Y-81434523D01*
X68927142Y-81482142D01*
G04 #@! TO.C,C24*
X57357142Y-83927142D02*
X57309523Y-83974761D01*
X57166666Y-84022380D01*
X57071428Y-84022380D01*
X56928571Y-83974761D01*
X56833333Y-83879523D01*
X56785714Y-83784285D01*
X56738095Y-83593809D01*
X56738095Y-83450952D01*
X56785714Y-83260476D01*
X56833333Y-83165238D01*
X56928571Y-83070000D01*
X57071428Y-83022380D01*
X57166666Y-83022380D01*
X57309523Y-83070000D01*
X57357142Y-83117619D01*
X57738095Y-83117619D02*
X57785714Y-83070000D01*
X57880952Y-83022380D01*
X58119047Y-83022380D01*
X58214285Y-83070000D01*
X58261904Y-83117619D01*
X58309523Y-83212857D01*
X58309523Y-83308095D01*
X58261904Y-83450952D01*
X57690476Y-84022380D01*
X58309523Y-84022380D01*
X59166666Y-83355714D02*
X59166666Y-84022380D01*
X58928571Y-82974761D02*
X58690476Y-83689047D01*
X59309523Y-83689047D01*
G04 #@! TO.C,C26*
X45537142Y-96642857D02*
X45584761Y-96690476D01*
X45632380Y-96833333D01*
X45632380Y-96928571D01*
X45584761Y-97071428D01*
X45489523Y-97166666D01*
X45394285Y-97214285D01*
X45203809Y-97261904D01*
X45060952Y-97261904D01*
X44870476Y-97214285D01*
X44775238Y-97166666D01*
X44680000Y-97071428D01*
X44632380Y-96928571D01*
X44632380Y-96833333D01*
X44680000Y-96690476D01*
X44727619Y-96642857D01*
X44727619Y-96261904D02*
X44680000Y-96214285D01*
X44632380Y-96119047D01*
X44632380Y-95880952D01*
X44680000Y-95785714D01*
X44727619Y-95738095D01*
X44822857Y-95690476D01*
X44918095Y-95690476D01*
X45060952Y-95738095D01*
X45632380Y-96309523D01*
X45632380Y-95690476D01*
X44632380Y-94833333D02*
X44632380Y-95023809D01*
X44680000Y-95119047D01*
X44727619Y-95166666D01*
X44870476Y-95261904D01*
X45060952Y-95309523D01*
X45441904Y-95309523D01*
X45537142Y-95261904D01*
X45584761Y-95214285D01*
X45632380Y-95119047D01*
X45632380Y-94928571D01*
X45584761Y-94833333D01*
X45537142Y-94785714D01*
X45441904Y-94738095D01*
X45203809Y-94738095D01*
X45108571Y-94785714D01*
X45060952Y-94833333D01*
X45013333Y-94928571D01*
X45013333Y-95119047D01*
X45060952Y-95214285D01*
X45108571Y-95261904D01*
X45203809Y-95309523D01*
G04 #@! TO.C,C28*
X81227142Y-101742857D02*
X81274761Y-101790476D01*
X81322380Y-101933333D01*
X81322380Y-102028571D01*
X81274761Y-102171428D01*
X81179523Y-102266666D01*
X81084285Y-102314285D01*
X80893809Y-102361904D01*
X80750952Y-102361904D01*
X80560476Y-102314285D01*
X80465238Y-102266666D01*
X80370000Y-102171428D01*
X80322380Y-102028571D01*
X80322380Y-101933333D01*
X80370000Y-101790476D01*
X80417619Y-101742857D01*
X80417619Y-101361904D02*
X80370000Y-101314285D01*
X80322380Y-101219047D01*
X80322380Y-100980952D01*
X80370000Y-100885714D01*
X80417619Y-100838095D01*
X80512857Y-100790476D01*
X80608095Y-100790476D01*
X80750952Y-100838095D01*
X81322380Y-101409523D01*
X81322380Y-100790476D01*
X80750952Y-100219047D02*
X80703333Y-100314285D01*
X80655714Y-100361904D01*
X80560476Y-100409523D01*
X80512857Y-100409523D01*
X80417619Y-100361904D01*
X80370000Y-100314285D01*
X80322380Y-100219047D01*
X80322380Y-100028571D01*
X80370000Y-99933333D01*
X80417619Y-99885714D01*
X80512857Y-99838095D01*
X80560476Y-99838095D01*
X80655714Y-99885714D01*
X80703333Y-99933333D01*
X80750952Y-100028571D01*
X80750952Y-100219047D01*
X80798571Y-100314285D01*
X80846190Y-100361904D01*
X80941428Y-100409523D01*
X81131904Y-100409523D01*
X81227142Y-100361904D01*
X81274761Y-100314285D01*
X81322380Y-100219047D01*
X81322380Y-100028571D01*
X81274761Y-99933333D01*
X81227142Y-99885714D01*
X81131904Y-99838095D01*
X80941428Y-99838095D01*
X80846190Y-99885714D01*
X80798571Y-99933333D01*
X80750952Y-100028571D01*
G04 #@! TO.C,C29*
X98457142Y-69657142D02*
X98409523Y-69704761D01*
X98266666Y-69752380D01*
X98171428Y-69752380D01*
X98028571Y-69704761D01*
X97933333Y-69609523D01*
X97885714Y-69514285D01*
X97838095Y-69323809D01*
X97838095Y-69180952D01*
X97885714Y-68990476D01*
X97933333Y-68895238D01*
X98028571Y-68800000D01*
X98171428Y-68752380D01*
X98266666Y-68752380D01*
X98409523Y-68800000D01*
X98457142Y-68847619D01*
X98838095Y-68847619D02*
X98885714Y-68800000D01*
X98980952Y-68752380D01*
X99219047Y-68752380D01*
X99314285Y-68800000D01*
X99361904Y-68847619D01*
X99409523Y-68942857D01*
X99409523Y-69038095D01*
X99361904Y-69180952D01*
X98790476Y-69752380D01*
X99409523Y-69752380D01*
X99885714Y-69752380D02*
X100076190Y-69752380D01*
X100171428Y-69704761D01*
X100219047Y-69657142D01*
X100314285Y-69514285D01*
X100361904Y-69323809D01*
X100361904Y-68942857D01*
X100314285Y-68847619D01*
X100266666Y-68800000D01*
X100171428Y-68752380D01*
X99980952Y-68752380D01*
X99885714Y-68800000D01*
X99838095Y-68847619D01*
X99790476Y-68942857D01*
X99790476Y-69180952D01*
X99838095Y-69276190D01*
X99885714Y-69323809D01*
X99980952Y-69371428D01*
X100171428Y-69371428D01*
X100266666Y-69323809D01*
X100314285Y-69276190D01*
X100361904Y-69180952D01*
G04 #@! TO.C,Q3*
X105759677Y-66988198D02*
X105712058Y-67083436D01*
X105616819Y-67178674D01*
X105473962Y-67321531D01*
X105426343Y-67416769D01*
X105426343Y-67512007D01*
X105664438Y-67464388D02*
X105616819Y-67559626D01*
X105521581Y-67654864D01*
X105331105Y-67702483D01*
X104997772Y-67702483D01*
X104807296Y-67654864D01*
X104712058Y-67559626D01*
X104664438Y-67464388D01*
X104664438Y-67273912D01*
X104712058Y-67178674D01*
X104807296Y-67083436D01*
X104997772Y-67035817D01*
X105331105Y-67035817D01*
X105521581Y-67083436D01*
X105616819Y-67178674D01*
X105664438Y-67273912D01*
X105664438Y-67464388D01*
X104664438Y-66702483D02*
X104664438Y-66083436D01*
X105045391Y-66416769D01*
X105045391Y-66273912D01*
X105093010Y-66178674D01*
X105140629Y-66131055D01*
X105235867Y-66083436D01*
X105473962Y-66083436D01*
X105569200Y-66131055D01*
X105616819Y-66178674D01*
X105664438Y-66273912D01*
X105664438Y-66559626D01*
X105616819Y-66654864D01*
X105569200Y-66702483D01*
G04 #@! TO.C,R2*
X93733333Y-82952380D02*
X93400000Y-82476190D01*
X93161904Y-82952380D02*
X93161904Y-81952380D01*
X93542857Y-81952380D01*
X93638095Y-82000000D01*
X93685714Y-82047619D01*
X93733333Y-82142857D01*
X93733333Y-82285714D01*
X93685714Y-82380952D01*
X93638095Y-82428571D01*
X93542857Y-82476190D01*
X93161904Y-82476190D01*
X94114285Y-82047619D02*
X94161904Y-82000000D01*
X94257142Y-81952380D01*
X94495238Y-81952380D01*
X94590476Y-82000000D01*
X94638095Y-82047619D01*
X94685714Y-82142857D01*
X94685714Y-82238095D01*
X94638095Y-82380952D01*
X94066666Y-82952380D01*
X94685714Y-82952380D01*
G04 #@! TO.C,R3*
X130283333Y-84132380D02*
X129950000Y-83656190D01*
X129711904Y-84132380D02*
X129711904Y-83132380D01*
X130092857Y-83132380D01*
X130188095Y-83180000D01*
X130235714Y-83227619D01*
X130283333Y-83322857D01*
X130283333Y-83465714D01*
X130235714Y-83560952D01*
X130188095Y-83608571D01*
X130092857Y-83656190D01*
X129711904Y-83656190D01*
X130616666Y-83132380D02*
X131235714Y-83132380D01*
X130902380Y-83513333D01*
X131045238Y-83513333D01*
X131140476Y-83560952D01*
X131188095Y-83608571D01*
X131235714Y-83703809D01*
X131235714Y-83941904D01*
X131188095Y-84037142D01*
X131140476Y-84084761D01*
X131045238Y-84132380D01*
X130759523Y-84132380D01*
X130664285Y-84084761D01*
X130616666Y-84037142D01*
G04 #@! TO.C,R4*
X129433333Y-81182380D02*
X129100000Y-80706190D01*
X128861904Y-81182380D02*
X128861904Y-80182380D01*
X129242857Y-80182380D01*
X129338095Y-80230000D01*
X129385714Y-80277619D01*
X129433333Y-80372857D01*
X129433333Y-80515714D01*
X129385714Y-80610952D01*
X129338095Y-80658571D01*
X129242857Y-80706190D01*
X128861904Y-80706190D01*
X130290476Y-80515714D02*
X130290476Y-81182380D01*
X130052380Y-80134761D02*
X129814285Y-80849047D01*
X130433333Y-80849047D01*
G04 #@! TO.C,R8*
X95833333Y-83052380D02*
X95500000Y-82576190D01*
X95261904Y-83052380D02*
X95261904Y-82052380D01*
X95642857Y-82052380D01*
X95738095Y-82100000D01*
X95785714Y-82147619D01*
X95833333Y-82242857D01*
X95833333Y-82385714D01*
X95785714Y-82480952D01*
X95738095Y-82528571D01*
X95642857Y-82576190D01*
X95261904Y-82576190D01*
X96404761Y-82480952D02*
X96309523Y-82433333D01*
X96261904Y-82385714D01*
X96214285Y-82290476D01*
X96214285Y-82242857D01*
X96261904Y-82147619D01*
X96309523Y-82100000D01*
X96404761Y-82052380D01*
X96595238Y-82052380D01*
X96690476Y-82100000D01*
X96738095Y-82147619D01*
X96785714Y-82242857D01*
X96785714Y-82290476D01*
X96738095Y-82385714D01*
X96690476Y-82433333D01*
X96595238Y-82480952D01*
X96404761Y-82480952D01*
X96309523Y-82528571D01*
X96261904Y-82576190D01*
X96214285Y-82671428D01*
X96214285Y-82861904D01*
X96261904Y-82957142D01*
X96309523Y-83004761D01*
X96404761Y-83052380D01*
X96595238Y-83052380D01*
X96690476Y-83004761D01*
X96738095Y-82957142D01*
X96785714Y-82861904D01*
X96785714Y-82671428D01*
X96738095Y-82576190D01*
X96690476Y-82528571D01*
X96595238Y-82480952D01*
G04 #@! TO.C,R10*
X57357142Y-89132380D02*
X57023809Y-88656190D01*
X56785714Y-89132380D02*
X56785714Y-88132380D01*
X57166666Y-88132380D01*
X57261904Y-88180000D01*
X57309523Y-88227619D01*
X57357142Y-88322857D01*
X57357142Y-88465714D01*
X57309523Y-88560952D01*
X57261904Y-88608571D01*
X57166666Y-88656190D01*
X56785714Y-88656190D01*
X58309523Y-89132380D02*
X57738095Y-89132380D01*
X58023809Y-89132380D02*
X58023809Y-88132380D01*
X57928571Y-88275238D01*
X57833333Y-88370476D01*
X57738095Y-88418095D01*
X58928571Y-88132380D02*
X59023809Y-88132380D01*
X59119047Y-88180000D01*
X59166666Y-88227619D01*
X59214285Y-88322857D01*
X59261904Y-88513333D01*
X59261904Y-88751428D01*
X59214285Y-88941904D01*
X59166666Y-89037142D01*
X59119047Y-89084761D01*
X59023809Y-89132380D01*
X58928571Y-89132380D01*
X58833333Y-89084761D01*
X58785714Y-89037142D01*
X58738095Y-88941904D01*
X58690476Y-88751428D01*
X58690476Y-88513333D01*
X58738095Y-88322857D01*
X58785714Y-88227619D01*
X58833333Y-88180000D01*
X58928571Y-88132380D01*
G04 #@! TO.C,R11*
X71882380Y-78642857D02*
X71406190Y-78976190D01*
X71882380Y-79214285D02*
X70882380Y-79214285D01*
X70882380Y-78833333D01*
X70930000Y-78738095D01*
X70977619Y-78690476D01*
X71072857Y-78642857D01*
X71215714Y-78642857D01*
X71310952Y-78690476D01*
X71358571Y-78738095D01*
X71406190Y-78833333D01*
X71406190Y-79214285D01*
X71882380Y-77690476D02*
X71882380Y-78261904D01*
X71882380Y-77976190D02*
X70882380Y-77976190D01*
X71025238Y-78071428D01*
X71120476Y-78166666D01*
X71168095Y-78261904D01*
X71882380Y-76738095D02*
X71882380Y-77309523D01*
X71882380Y-77023809D02*
X70882380Y-77023809D01*
X71025238Y-77119047D01*
X71120476Y-77214285D01*
X71168095Y-77309523D01*
G04 #@! TO.C,R24*
X107882380Y-70392857D02*
X107406190Y-70726190D01*
X107882380Y-70964285D02*
X106882380Y-70964285D01*
X106882380Y-70583333D01*
X106930000Y-70488095D01*
X106977619Y-70440476D01*
X107072857Y-70392857D01*
X107215714Y-70392857D01*
X107310952Y-70440476D01*
X107358571Y-70488095D01*
X107406190Y-70583333D01*
X107406190Y-70964285D01*
X106977619Y-70011904D02*
X106930000Y-69964285D01*
X106882380Y-69869047D01*
X106882380Y-69630952D01*
X106930000Y-69535714D01*
X106977619Y-69488095D01*
X107072857Y-69440476D01*
X107168095Y-69440476D01*
X107310952Y-69488095D01*
X107882380Y-70059523D01*
X107882380Y-69440476D01*
X107215714Y-68583333D02*
X107882380Y-68583333D01*
X106834761Y-68821428D02*
X107549047Y-69059523D01*
X107549047Y-68440476D01*
G04 #@! TO.C,R25*
X98457142Y-72052380D02*
X98123809Y-71576190D01*
X97885714Y-72052380D02*
X97885714Y-71052380D01*
X98266666Y-71052380D01*
X98361904Y-71100000D01*
X98409523Y-71147619D01*
X98457142Y-71242857D01*
X98457142Y-71385714D01*
X98409523Y-71480952D01*
X98361904Y-71528571D01*
X98266666Y-71576190D01*
X97885714Y-71576190D01*
X98838095Y-71147619D02*
X98885714Y-71100000D01*
X98980952Y-71052380D01*
X99219047Y-71052380D01*
X99314285Y-71100000D01*
X99361904Y-71147619D01*
X99409523Y-71242857D01*
X99409523Y-71338095D01*
X99361904Y-71480952D01*
X98790476Y-72052380D01*
X99409523Y-72052380D01*
X100314285Y-71052380D02*
X99838095Y-71052380D01*
X99790476Y-71528571D01*
X99838095Y-71480952D01*
X99933333Y-71433333D01*
X100171428Y-71433333D01*
X100266666Y-71480952D01*
X100314285Y-71528571D01*
X100361904Y-71623809D01*
X100361904Y-71861904D01*
X100314285Y-71957142D01*
X100266666Y-72004761D01*
X100171428Y-72052380D01*
X99933333Y-72052380D01*
X99838095Y-72004761D01*
X99790476Y-71957142D01*
G04 #@! TO.C,RN1*
X87409523Y-66452380D02*
X87076190Y-65976190D01*
X86838095Y-66452380D02*
X86838095Y-65452380D01*
X87219047Y-65452380D01*
X87314285Y-65500000D01*
X87361904Y-65547619D01*
X87409523Y-65642857D01*
X87409523Y-65785714D01*
X87361904Y-65880952D01*
X87314285Y-65928571D01*
X87219047Y-65976190D01*
X86838095Y-65976190D01*
X87838095Y-66452380D02*
X87838095Y-65452380D01*
X88409523Y-66452380D01*
X88409523Y-65452380D01*
X89409523Y-66452380D02*
X88838095Y-66452380D01*
X89123809Y-66452380D02*
X89123809Y-65452380D01*
X89028571Y-65595238D01*
X88933333Y-65690476D01*
X88838095Y-65738095D01*
G04 #@! TO.C,RN2*
X83309523Y-66452380D02*
X82976190Y-65976190D01*
X82738095Y-66452380D02*
X82738095Y-65452380D01*
X83119047Y-65452380D01*
X83214285Y-65500000D01*
X83261904Y-65547619D01*
X83309523Y-65642857D01*
X83309523Y-65785714D01*
X83261904Y-65880952D01*
X83214285Y-65928571D01*
X83119047Y-65976190D01*
X82738095Y-65976190D01*
X83738095Y-66452380D02*
X83738095Y-65452380D01*
X84309523Y-66452380D01*
X84309523Y-65452380D01*
X84738095Y-65547619D02*
X84785714Y-65500000D01*
X84880952Y-65452380D01*
X85119047Y-65452380D01*
X85214285Y-65500000D01*
X85261904Y-65547619D01*
X85309523Y-65642857D01*
X85309523Y-65738095D01*
X85261904Y-65880952D01*
X84690476Y-66452380D01*
X85309523Y-66452380D01*
G04 #@! TO.C,RN3*
X78909523Y-66452380D02*
X78576190Y-65976190D01*
X78338095Y-66452380D02*
X78338095Y-65452380D01*
X78719047Y-65452380D01*
X78814285Y-65500000D01*
X78861904Y-65547619D01*
X78909523Y-65642857D01*
X78909523Y-65785714D01*
X78861904Y-65880952D01*
X78814285Y-65928571D01*
X78719047Y-65976190D01*
X78338095Y-65976190D01*
X79338095Y-66452380D02*
X79338095Y-65452380D01*
X79909523Y-66452380D01*
X79909523Y-65452380D01*
X80290476Y-65452380D02*
X80909523Y-65452380D01*
X80576190Y-65833333D01*
X80719047Y-65833333D01*
X80814285Y-65880952D01*
X80861904Y-65928571D01*
X80909523Y-66023809D01*
X80909523Y-66261904D01*
X80861904Y-66357142D01*
X80814285Y-66404761D01*
X80719047Y-66452380D01*
X80433333Y-66452380D01*
X80338095Y-66404761D01*
X80290476Y-66357142D01*
G04 #@! TO.C,U1*
X86652380Y-109761904D02*
X87461904Y-109761904D01*
X87557142Y-109714285D01*
X87604761Y-109666666D01*
X87652380Y-109571428D01*
X87652380Y-109380952D01*
X87604761Y-109285714D01*
X87557142Y-109238095D01*
X87461904Y-109190476D01*
X86652380Y-109190476D01*
X87652380Y-108190476D02*
X87652380Y-108761904D01*
X87652380Y-108476190D02*
X86652380Y-108476190D01*
X86795238Y-108571428D01*
X86890476Y-108666666D01*
X86938095Y-108761904D01*
G04 #@! TO.C,U2*
X138438095Y-74452380D02*
X138438095Y-75261904D01*
X138485714Y-75357142D01*
X138533333Y-75404761D01*
X138628571Y-75452380D01*
X138819047Y-75452380D01*
X138914285Y-75404761D01*
X138961904Y-75357142D01*
X139009523Y-75261904D01*
X139009523Y-74452380D01*
X139438095Y-74547619D02*
X139485714Y-74500000D01*
X139580952Y-74452380D01*
X139819047Y-74452380D01*
X139914285Y-74500000D01*
X139961904Y-74547619D01*
X140009523Y-74642857D01*
X140009523Y-74738095D01*
X139961904Y-74880952D01*
X139390476Y-75452380D01*
X140009523Y-75452380D01*
G04 #@! TO.C,U3*
X90638095Y-88852380D02*
X90638095Y-89661904D01*
X90685714Y-89757142D01*
X90733333Y-89804761D01*
X90828571Y-89852380D01*
X91019047Y-89852380D01*
X91114285Y-89804761D01*
X91161904Y-89757142D01*
X91209523Y-89661904D01*
X91209523Y-88852380D01*
X91590476Y-88852380D02*
X92209523Y-88852380D01*
X91876190Y-89233333D01*
X92019047Y-89233333D01*
X92114285Y-89280952D01*
X92161904Y-89328571D01*
X92209523Y-89423809D01*
X92209523Y-89661904D01*
X92161904Y-89757142D01*
X92114285Y-89804761D01*
X92019047Y-89852380D01*
X91733333Y-89852380D01*
X91638095Y-89804761D01*
X91590476Y-89757142D01*
G04 #@! TO.C,U4*
X65138095Y-74652380D02*
X65138095Y-75461904D01*
X65185714Y-75557142D01*
X65233333Y-75604761D01*
X65328571Y-75652380D01*
X65519047Y-75652380D01*
X65614285Y-75604761D01*
X65661904Y-75557142D01*
X65709523Y-75461904D01*
X65709523Y-74652380D01*
X66614285Y-74985714D02*
X66614285Y-75652380D01*
X66376190Y-74604761D02*
X66138095Y-75319047D01*
X66757142Y-75319047D01*
G04 #@! TO.C,C30*
X71787142Y-74892857D02*
X71834761Y-74940476D01*
X71882380Y-75083333D01*
X71882380Y-75178571D01*
X71834761Y-75321428D01*
X71739523Y-75416666D01*
X71644285Y-75464285D01*
X71453809Y-75511904D01*
X71310952Y-75511904D01*
X71120476Y-75464285D01*
X71025238Y-75416666D01*
X70930000Y-75321428D01*
X70882380Y-75178571D01*
X70882380Y-75083333D01*
X70930000Y-74940476D01*
X70977619Y-74892857D01*
X70882380Y-74559523D02*
X70882380Y-73940476D01*
X71263333Y-74273809D01*
X71263333Y-74130952D01*
X71310952Y-74035714D01*
X71358571Y-73988095D01*
X71453809Y-73940476D01*
X71691904Y-73940476D01*
X71787142Y-73988095D01*
X71834761Y-74035714D01*
X71882380Y-74130952D01*
X71882380Y-74416666D01*
X71834761Y-74511904D01*
X71787142Y-74559523D01*
X70882380Y-73321428D02*
X70882380Y-73226190D01*
X70930000Y-73130952D01*
X70977619Y-73083333D01*
X71072857Y-73035714D01*
X71263333Y-72988095D01*
X71501428Y-72988095D01*
X71691904Y-73035714D01*
X71787142Y-73083333D01*
X71834761Y-73130952D01*
X71882380Y-73226190D01*
X71882380Y-73321428D01*
X71834761Y-73416666D01*
X71787142Y-73464285D01*
X71691904Y-73511904D01*
X71501428Y-73559523D01*
X71263333Y-73559523D01*
X71072857Y-73511904D01*
X70977619Y-73464285D01*
X70930000Y-73416666D01*
X70882380Y-73321428D01*
G04 #@! TO.C,C32*
X131232142Y-101727142D02*
X131184523Y-101774761D01*
X131041666Y-101822380D01*
X130946428Y-101822380D01*
X130803571Y-101774761D01*
X130708333Y-101679523D01*
X130660714Y-101584285D01*
X130613095Y-101393809D01*
X130613095Y-101250952D01*
X130660714Y-101060476D01*
X130708333Y-100965238D01*
X130803571Y-100870000D01*
X130946428Y-100822380D01*
X131041666Y-100822380D01*
X131184523Y-100870000D01*
X131232142Y-100917619D01*
X131565476Y-100822380D02*
X132184523Y-100822380D01*
X131851190Y-101203333D01*
X131994047Y-101203333D01*
X132089285Y-101250952D01*
X132136904Y-101298571D01*
X132184523Y-101393809D01*
X132184523Y-101631904D01*
X132136904Y-101727142D01*
X132089285Y-101774761D01*
X131994047Y-101822380D01*
X131708333Y-101822380D01*
X131613095Y-101774761D01*
X131565476Y-101727142D01*
X132565476Y-100917619D02*
X132613095Y-100870000D01*
X132708333Y-100822380D01*
X132946428Y-100822380D01*
X133041666Y-100870000D01*
X133089285Y-100917619D01*
X133136904Y-101012857D01*
X133136904Y-101108095D01*
X133089285Y-101250952D01*
X132517857Y-101822380D01*
X133136904Y-101822380D01*
G04 #@! TO.C,C33*
X142857142Y-87327142D02*
X142809523Y-87374761D01*
X142666666Y-87422380D01*
X142571428Y-87422380D01*
X142428571Y-87374761D01*
X142333333Y-87279523D01*
X142285714Y-87184285D01*
X142238095Y-86993809D01*
X142238095Y-86850952D01*
X142285714Y-86660476D01*
X142333333Y-86565238D01*
X142428571Y-86470000D01*
X142571428Y-86422380D01*
X142666666Y-86422380D01*
X142809523Y-86470000D01*
X142857142Y-86517619D01*
X143190476Y-86422380D02*
X143809523Y-86422380D01*
X143476190Y-86803333D01*
X143619047Y-86803333D01*
X143714285Y-86850952D01*
X143761904Y-86898571D01*
X143809523Y-86993809D01*
X143809523Y-87231904D01*
X143761904Y-87327142D01*
X143714285Y-87374761D01*
X143619047Y-87422380D01*
X143333333Y-87422380D01*
X143238095Y-87374761D01*
X143190476Y-87327142D01*
X144142857Y-86422380D02*
X144761904Y-86422380D01*
X144428571Y-86803333D01*
X144571428Y-86803333D01*
X144666666Y-86850952D01*
X144714285Y-86898571D01*
X144761904Y-86993809D01*
X144761904Y-87231904D01*
X144714285Y-87327142D01*
X144666666Y-87374761D01*
X144571428Y-87422380D01*
X144285714Y-87422380D01*
X144190476Y-87374761D01*
X144142857Y-87327142D01*
G04 #@! TO.C,U5*
X135702380Y-109811904D02*
X136511904Y-109811904D01*
X136607142Y-109764285D01*
X136654761Y-109716666D01*
X136702380Y-109621428D01*
X136702380Y-109430952D01*
X136654761Y-109335714D01*
X136607142Y-109288095D01*
X136511904Y-109240476D01*
X135702380Y-109240476D01*
X135702380Y-108288095D02*
X135702380Y-108764285D01*
X136178571Y-108811904D01*
X136130952Y-108764285D01*
X136083333Y-108669047D01*
X136083333Y-108430952D01*
X136130952Y-108335714D01*
X136178571Y-108288095D01*
X136273809Y-108240476D01*
X136511904Y-108240476D01*
X136607142Y-108288095D01*
X136654761Y-108335714D01*
X136702380Y-108430952D01*
X136702380Y-108669047D01*
X136654761Y-108764285D01*
X136607142Y-108811904D01*
G04 #@! TO.C,C31*
X134932142Y-73027142D02*
X134884523Y-73074761D01*
X134741666Y-73122380D01*
X134646428Y-73122380D01*
X134503571Y-73074761D01*
X134408333Y-72979523D01*
X134360714Y-72884285D01*
X134313095Y-72693809D01*
X134313095Y-72550952D01*
X134360714Y-72360476D01*
X134408333Y-72265238D01*
X134503571Y-72170000D01*
X134646428Y-72122380D01*
X134741666Y-72122380D01*
X134884523Y-72170000D01*
X134932142Y-72217619D01*
X135265476Y-72122380D02*
X135884523Y-72122380D01*
X135551190Y-72503333D01*
X135694047Y-72503333D01*
X135789285Y-72550952D01*
X135836904Y-72598571D01*
X135884523Y-72693809D01*
X135884523Y-72931904D01*
X135836904Y-73027142D01*
X135789285Y-73074761D01*
X135694047Y-73122380D01*
X135408333Y-73122380D01*
X135313095Y-73074761D01*
X135265476Y-73027142D01*
X136836904Y-73122380D02*
X136265476Y-73122380D01*
X136551190Y-73122380D02*
X136551190Y-72122380D01*
X136455952Y-72265238D01*
X136360714Y-72360476D01*
X136265476Y-72408095D01*
G04 #@! TO.C,C36*
X143857142Y-73127142D02*
X143809523Y-73174761D01*
X143666666Y-73222380D01*
X143571428Y-73222380D01*
X143428571Y-73174761D01*
X143333333Y-73079523D01*
X143285714Y-72984285D01*
X143238095Y-72793809D01*
X143238095Y-72650952D01*
X143285714Y-72460476D01*
X143333333Y-72365238D01*
X143428571Y-72270000D01*
X143571428Y-72222380D01*
X143666666Y-72222380D01*
X143809523Y-72270000D01*
X143857142Y-72317619D01*
X144190476Y-72222380D02*
X144809523Y-72222380D01*
X144476190Y-72603333D01*
X144619047Y-72603333D01*
X144714285Y-72650952D01*
X144761904Y-72698571D01*
X144809523Y-72793809D01*
X144809523Y-73031904D01*
X144761904Y-73127142D01*
X144714285Y-73174761D01*
X144619047Y-73222380D01*
X144333333Y-73222380D01*
X144238095Y-73174761D01*
X144190476Y-73127142D01*
X145666666Y-72222380D02*
X145476190Y-72222380D01*
X145380952Y-72270000D01*
X145333333Y-72317619D01*
X145238095Y-72460476D01*
X145190476Y-72650952D01*
X145190476Y-73031904D01*
X145238095Y-73127142D01*
X145285714Y-73174761D01*
X145380952Y-73222380D01*
X145571428Y-73222380D01*
X145666666Y-73174761D01*
X145714285Y-73127142D01*
X145761904Y-73031904D01*
X145761904Y-72793809D01*
X145714285Y-72698571D01*
X145666666Y-72650952D01*
X145571428Y-72603333D01*
X145380952Y-72603333D01*
X145285714Y-72650952D01*
X145238095Y-72698571D01*
X145190476Y-72793809D01*
G04 #@! TO.C,Y1*
X129123809Y-79226190D02*
X129123809Y-79702380D01*
X128790476Y-78702380D02*
X129123809Y-79226190D01*
X129457142Y-78702380D01*
X130314285Y-79702380D02*
X129742857Y-79702380D01*
X130028571Y-79702380D02*
X130028571Y-78702380D01*
X129933333Y-78845238D01*
X129838095Y-78940476D01*
X129742857Y-78988095D01*
G04 #@! TO.C,Y2*
X99023809Y-82026190D02*
X99023809Y-82502380D01*
X98690476Y-81502380D02*
X99023809Y-82026190D01*
X99357142Y-81502380D01*
X99642857Y-81597619D02*
X99690476Y-81550000D01*
X99785714Y-81502380D01*
X100023809Y-81502380D01*
X100119047Y-81550000D01*
X100166666Y-81597619D01*
X100214285Y-81692857D01*
X100214285Y-81788095D01*
X100166666Y-81930952D01*
X99595238Y-82502380D01*
X100214285Y-82502380D01*
G04 #@! TO.C,Y3*
X101573809Y-88646190D02*
X101573809Y-89122380D01*
X101240476Y-88122380D02*
X101573809Y-88646190D01*
X101907142Y-88122380D01*
X102145238Y-88122380D02*
X102764285Y-88122380D01*
X102430952Y-88503333D01*
X102573809Y-88503333D01*
X102669047Y-88550952D01*
X102716666Y-88598571D01*
X102764285Y-88693809D01*
X102764285Y-88931904D01*
X102716666Y-89027142D01*
X102669047Y-89074761D01*
X102573809Y-89122380D01*
X102288095Y-89122380D01*
X102192857Y-89074761D01*
X102145238Y-89027142D01*
G04 #@! TO.C,Y4*
X59485030Y-75938252D02*
X59485030Y-76414442D01*
X59151697Y-75414442D02*
X59485030Y-75938252D01*
X59818363Y-75414442D01*
X60580268Y-75747776D02*
X60580268Y-76414442D01*
X60342173Y-75366823D02*
X60104078Y-76081109D01*
X60723125Y-76081109D01*
G04 #@! TD*
M02*
