G04 #@! TF.GenerationSoftware,KiCad,Pcbnew,(5.0.1)*
G04 #@! TF.CreationDate,2018-11-29T17:22:57+09:00*
G04 #@! TF.ProjectId,securehid,7365637572656869642E6B696361645F,rev?*
G04 #@! TF.SameCoordinates,Original*
G04 #@! TF.FileFunction,Soldermask,Bot*
G04 #@! TF.FilePolarity,Negative*
%FSLAX46Y46*%
G04 Gerber Fmt 4.6, Leading zero omitted, Abs format (unit mm)*
G04 Created by KiCad (PCBNEW (5.0.1)) date Thu Nov 29 17:22:57 2018*
%MOMM*%
%LPD*%
G01*
G04 APERTURE LIST*
%ADD10C,0.100000*%
G04 APERTURE END LIST*
D10*
G36*
X96798433Y-107124893D02*
X96888657Y-107142839D01*
X96994267Y-107186585D01*
X97143621Y-107248449D01*
X97373089Y-107401774D01*
X97568226Y-107596911D01*
X97721551Y-107826379D01*
X97772342Y-107949000D01*
X97821299Y-108067190D01*
X97827161Y-108081344D01*
X97881000Y-108352012D01*
X97881000Y-108627988D01*
X97827161Y-108898656D01*
X97721551Y-109153621D01*
X97568226Y-109383089D01*
X97373089Y-109578226D01*
X97143621Y-109731551D01*
X96994267Y-109793415D01*
X96888657Y-109837161D01*
X96798433Y-109855107D01*
X96617988Y-109891000D01*
X96342012Y-109891000D01*
X96161567Y-109855107D01*
X96071343Y-109837161D01*
X95965733Y-109793415D01*
X95816379Y-109731551D01*
X95586911Y-109578226D01*
X95391774Y-109383089D01*
X95238449Y-109153621D01*
X95132839Y-108898656D01*
X95079000Y-108627988D01*
X95079000Y-108352012D01*
X95132839Y-108081344D01*
X95138702Y-108067190D01*
X95187658Y-107949000D01*
X95238449Y-107826379D01*
X95391774Y-107596911D01*
X95586911Y-107401774D01*
X95816379Y-107248449D01*
X95965733Y-107186585D01*
X96071343Y-107142839D01*
X96161567Y-107124893D01*
X96342012Y-107089000D01*
X96617988Y-107089000D01*
X96798433Y-107124893D01*
X96798433Y-107124893D01*
G37*
G36*
X146788433Y-107124893D02*
X146878657Y-107142839D01*
X146984267Y-107186585D01*
X147133621Y-107248449D01*
X147363089Y-107401774D01*
X147558226Y-107596911D01*
X147711551Y-107826379D01*
X147762342Y-107949000D01*
X147811299Y-108067190D01*
X147817161Y-108081344D01*
X147871000Y-108352012D01*
X147871000Y-108627988D01*
X147817161Y-108898656D01*
X147711551Y-109153621D01*
X147558226Y-109383089D01*
X147363089Y-109578226D01*
X147133621Y-109731551D01*
X146984267Y-109793415D01*
X146878657Y-109837161D01*
X146788433Y-109855107D01*
X146607988Y-109891000D01*
X146332012Y-109891000D01*
X146151567Y-109855107D01*
X146061343Y-109837161D01*
X145955733Y-109793415D01*
X145806379Y-109731551D01*
X145576911Y-109578226D01*
X145381774Y-109383089D01*
X145228449Y-109153621D01*
X145122839Y-108898656D01*
X145069000Y-108627988D01*
X145069000Y-108352012D01*
X145122839Y-108081344D01*
X145128702Y-108067190D01*
X145177658Y-107949000D01*
X145228449Y-107826379D01*
X145381774Y-107596911D01*
X145576911Y-107401774D01*
X145806379Y-107248449D01*
X145955733Y-107186585D01*
X146061343Y-107142839D01*
X146151567Y-107124893D01*
X146332012Y-107089000D01*
X146607988Y-107089000D01*
X146788433Y-107124893D01*
X146788433Y-107124893D01*
G37*
G36*
X51788433Y-107124893D02*
X51878657Y-107142839D01*
X51984267Y-107186585D01*
X52133621Y-107248449D01*
X52363089Y-107401774D01*
X52558226Y-107596911D01*
X52711551Y-107826379D01*
X52762342Y-107949000D01*
X52811299Y-108067190D01*
X52817161Y-108081344D01*
X52871000Y-108352012D01*
X52871000Y-108627988D01*
X52817161Y-108898656D01*
X52711551Y-109153621D01*
X52558226Y-109383089D01*
X52363089Y-109578226D01*
X52133621Y-109731551D01*
X51984267Y-109793415D01*
X51878657Y-109837161D01*
X51788433Y-109855107D01*
X51607988Y-109891000D01*
X51332012Y-109891000D01*
X51151567Y-109855107D01*
X51061343Y-109837161D01*
X50955733Y-109793415D01*
X50806379Y-109731551D01*
X50576911Y-109578226D01*
X50381774Y-109383089D01*
X50228449Y-109153621D01*
X50122839Y-108898656D01*
X50069000Y-108627988D01*
X50069000Y-108352012D01*
X50122839Y-108081344D01*
X50128702Y-108067190D01*
X50177658Y-107949000D01*
X50228449Y-107826379D01*
X50381774Y-107596911D01*
X50576911Y-107401774D01*
X50806379Y-107248449D01*
X50955733Y-107186585D01*
X51061343Y-107142839D01*
X51151567Y-107124893D01*
X51332012Y-107089000D01*
X51607988Y-107089000D01*
X51788433Y-107124893D01*
X51788433Y-107124893D01*
G37*
G36*
X131030996Y-107953051D02*
X131064653Y-107963261D01*
X131095667Y-107979838D01*
X131122852Y-108002148D01*
X131145162Y-108029333D01*
X131161739Y-108060347D01*
X131171949Y-108094004D01*
X131176000Y-108135138D01*
X131176000Y-109464862D01*
X131171949Y-109505996D01*
X131161739Y-109539653D01*
X131145162Y-109570667D01*
X131122852Y-109597852D01*
X131095667Y-109620162D01*
X131064653Y-109636739D01*
X131030996Y-109646949D01*
X130989862Y-109651000D01*
X127935138Y-109651000D01*
X127894004Y-109646949D01*
X127860347Y-109636739D01*
X127829333Y-109620162D01*
X127802148Y-109597852D01*
X127779838Y-109570667D01*
X127763261Y-109539653D01*
X127753051Y-109505996D01*
X127749000Y-109464862D01*
X127749000Y-108135138D01*
X127753051Y-108094004D01*
X127763261Y-108060347D01*
X127779838Y-108029333D01*
X127802148Y-108002148D01*
X127829333Y-107979838D01*
X127860347Y-107963261D01*
X127894004Y-107953051D01*
X127935138Y-107949000D01*
X130989862Y-107949000D01*
X131030996Y-107953051D01*
X131030996Y-107953051D01*
G37*
G36*
X136105996Y-107953051D02*
X136139653Y-107963261D01*
X136170667Y-107979838D01*
X136197852Y-108002148D01*
X136220162Y-108029333D01*
X136236739Y-108060347D01*
X136246949Y-108094004D01*
X136251000Y-108135138D01*
X136251000Y-109464862D01*
X136246949Y-109505996D01*
X136236739Y-109539653D01*
X136220162Y-109570667D01*
X136197852Y-109597852D01*
X136170667Y-109620162D01*
X136139653Y-109636739D01*
X136105996Y-109646949D01*
X136064862Y-109651000D01*
X133010138Y-109651000D01*
X132969004Y-109646949D01*
X132935347Y-109636739D01*
X132904333Y-109620162D01*
X132877148Y-109597852D01*
X132854838Y-109570667D01*
X132838261Y-109539653D01*
X132828051Y-109505996D01*
X132824000Y-109464862D01*
X132824000Y-108135138D01*
X132828051Y-108094004D01*
X132838261Y-108060347D01*
X132854838Y-108029333D01*
X132877148Y-108002148D01*
X132904333Y-107979838D01*
X132935347Y-107963261D01*
X132969004Y-107953051D01*
X133010138Y-107949000D01*
X136064862Y-107949000D01*
X136105996Y-107953051D01*
X136105996Y-107953051D01*
G37*
G36*
X84389499Y-108428445D02*
X84426993Y-108439819D01*
X84461557Y-108458294D01*
X84491847Y-108483153D01*
X84516706Y-108513443D01*
X84535181Y-108548007D01*
X84546555Y-108585501D01*
X84551000Y-108630638D01*
X84551000Y-109269362D01*
X84546555Y-109314499D01*
X84535181Y-109351993D01*
X84516706Y-109386557D01*
X84491847Y-109416847D01*
X84461557Y-109441706D01*
X84426993Y-109460181D01*
X84389499Y-109471555D01*
X84344362Y-109476000D01*
X83605638Y-109476000D01*
X83560501Y-109471555D01*
X83523007Y-109460181D01*
X83488443Y-109441706D01*
X83458153Y-109416847D01*
X83433294Y-109386557D01*
X83414819Y-109351993D01*
X83403445Y-109314499D01*
X83399000Y-109269362D01*
X83399000Y-108630638D01*
X83403445Y-108585501D01*
X83414819Y-108548007D01*
X83433294Y-108513443D01*
X83458153Y-108483153D01*
X83488443Y-108458294D01*
X83523007Y-108439819D01*
X83560501Y-108428445D01*
X83605638Y-108424000D01*
X84344362Y-108424000D01*
X84389499Y-108428445D01*
X84389499Y-108428445D01*
G37*
G36*
X82639499Y-108428445D02*
X82676993Y-108439819D01*
X82711557Y-108458294D01*
X82741847Y-108483153D01*
X82766706Y-108513443D01*
X82785181Y-108548007D01*
X82796555Y-108585501D01*
X82801000Y-108630638D01*
X82801000Y-109269362D01*
X82796555Y-109314499D01*
X82785181Y-109351993D01*
X82766706Y-109386557D01*
X82741847Y-109416847D01*
X82711557Y-109441706D01*
X82676993Y-109460181D01*
X82639499Y-109471555D01*
X82594362Y-109476000D01*
X81855638Y-109476000D01*
X81810501Y-109471555D01*
X81773007Y-109460181D01*
X81738443Y-109441706D01*
X81708153Y-109416847D01*
X81683294Y-109386557D01*
X81664819Y-109351993D01*
X81653445Y-109314499D01*
X81649000Y-109269362D01*
X81649000Y-108630638D01*
X81653445Y-108585501D01*
X81664819Y-108548007D01*
X81683294Y-108513443D01*
X81708153Y-108483153D01*
X81738443Y-108458294D01*
X81773007Y-108439819D01*
X81810501Y-108428445D01*
X81855638Y-108424000D01*
X82594362Y-108424000D01*
X82639499Y-108428445D01*
X82639499Y-108428445D01*
G37*
G36*
X87205996Y-102753051D02*
X87239653Y-102763261D01*
X87270667Y-102779838D01*
X87297852Y-102802148D01*
X87320162Y-102829333D01*
X87336739Y-102860347D01*
X87346949Y-102894004D01*
X87351000Y-102935138D01*
X87351000Y-104264862D01*
X87346949Y-104305996D01*
X87336739Y-104339653D01*
X87320162Y-104370667D01*
X87297852Y-104397852D01*
X87270667Y-104420162D01*
X87239653Y-104436739D01*
X87205996Y-104446949D01*
X87164862Y-104451000D01*
X84110138Y-104451000D01*
X84069004Y-104446949D01*
X84035347Y-104436739D01*
X84004333Y-104420162D01*
X83977148Y-104397852D01*
X83954838Y-104370667D01*
X83938261Y-104339653D01*
X83928051Y-104305996D01*
X83924000Y-104264862D01*
X83924000Y-102935138D01*
X83928051Y-102894004D01*
X83938261Y-102860347D01*
X83954838Y-102829333D01*
X83977148Y-102802148D01*
X84004333Y-102779838D01*
X84035347Y-102763261D01*
X84069004Y-102753051D01*
X84110138Y-102749000D01*
X87164862Y-102749000D01*
X87205996Y-102753051D01*
X87205996Y-102753051D01*
G37*
G36*
X82130996Y-102753051D02*
X82164653Y-102763261D01*
X82195667Y-102779838D01*
X82222852Y-102802148D01*
X82245162Y-102829333D01*
X82261739Y-102860347D01*
X82271949Y-102894004D01*
X82276000Y-102935138D01*
X82276000Y-104264862D01*
X82271949Y-104305996D01*
X82261739Y-104339653D01*
X82245162Y-104370667D01*
X82222852Y-104397852D01*
X82195667Y-104420162D01*
X82164653Y-104436739D01*
X82130996Y-104446949D01*
X82089862Y-104451000D01*
X79035138Y-104451000D01*
X78994004Y-104446949D01*
X78960347Y-104436739D01*
X78929333Y-104420162D01*
X78902148Y-104397852D01*
X78879838Y-104370667D01*
X78863261Y-104339653D01*
X78853051Y-104305996D01*
X78849000Y-104264862D01*
X78849000Y-102935138D01*
X78853051Y-102894004D01*
X78863261Y-102860347D01*
X78879838Y-102829333D01*
X78902148Y-102802148D01*
X78929333Y-102779838D01*
X78960347Y-102763261D01*
X78994004Y-102753051D01*
X79035138Y-102749000D01*
X82089862Y-102749000D01*
X82130996Y-102753051D01*
X82130996Y-102753051D01*
G37*
G36*
X45152143Y-98756481D02*
X45304049Y-98771442D01*
X45498959Y-98830567D01*
X45596415Y-98860130D01*
X45694690Y-98912660D01*
X45865858Y-99004151D01*
X46102029Y-99197971D01*
X46295849Y-99434142D01*
X46353343Y-99541706D01*
X46439870Y-99703585D01*
X46439870Y-99703586D01*
X46528558Y-99995951D01*
X46558504Y-100300000D01*
X46528558Y-100604049D01*
X46469433Y-100798959D01*
X46439870Y-100896415D01*
X46387340Y-100994690D01*
X46295849Y-101165858D01*
X46102029Y-101402029D01*
X45865858Y-101595849D01*
X45694690Y-101687340D01*
X45596415Y-101739870D01*
X45498959Y-101769433D01*
X45304049Y-101828558D01*
X45152143Y-101843519D01*
X45076191Y-101851000D01*
X43923809Y-101851000D01*
X43847857Y-101843519D01*
X43695951Y-101828558D01*
X43501041Y-101769433D01*
X43403585Y-101739870D01*
X43305310Y-101687340D01*
X43134142Y-101595849D01*
X42897971Y-101402029D01*
X42704151Y-101165858D01*
X42612660Y-100994690D01*
X42560130Y-100896415D01*
X42530567Y-100798959D01*
X42471442Y-100604049D01*
X42441496Y-100300000D01*
X42471442Y-99995951D01*
X42560130Y-99703586D01*
X42560130Y-99703585D01*
X42646657Y-99541706D01*
X42704151Y-99434142D01*
X42897971Y-99197971D01*
X43134142Y-99004151D01*
X43305310Y-98912660D01*
X43403585Y-98860130D01*
X43501041Y-98830567D01*
X43695951Y-98771442D01*
X43847857Y-98756481D01*
X43923809Y-98749000D01*
X45076191Y-98749000D01*
X45152143Y-98756481D01*
X45152143Y-98756481D01*
G37*
G36*
X73789499Y-100228445D02*
X73826993Y-100239819D01*
X73861557Y-100258294D01*
X73891847Y-100283153D01*
X73916706Y-100313443D01*
X73935181Y-100348007D01*
X73946555Y-100385501D01*
X73951000Y-100430638D01*
X73951000Y-101069362D01*
X73946555Y-101114499D01*
X73935181Y-101151993D01*
X73916706Y-101186557D01*
X73891847Y-101216847D01*
X73861557Y-101241706D01*
X73826993Y-101260181D01*
X73789499Y-101271555D01*
X73744362Y-101276000D01*
X73005638Y-101276000D01*
X72960501Y-101271555D01*
X72923007Y-101260181D01*
X72888443Y-101241706D01*
X72858153Y-101216847D01*
X72833294Y-101186557D01*
X72814819Y-101151993D01*
X72803445Y-101114499D01*
X72799000Y-101069362D01*
X72799000Y-100430638D01*
X72803445Y-100385501D01*
X72814819Y-100348007D01*
X72833294Y-100313443D01*
X72858153Y-100283153D01*
X72888443Y-100258294D01*
X72923007Y-100239819D01*
X72960501Y-100228445D01*
X73005638Y-100224000D01*
X73744362Y-100224000D01*
X73789499Y-100228445D01*
X73789499Y-100228445D01*
G37*
G36*
X72039499Y-100228445D02*
X72076993Y-100239819D01*
X72111557Y-100258294D01*
X72141847Y-100283153D01*
X72166706Y-100313443D01*
X72185181Y-100348007D01*
X72196555Y-100385501D01*
X72201000Y-100430638D01*
X72201000Y-101069362D01*
X72196555Y-101114499D01*
X72185181Y-101151993D01*
X72166706Y-101186557D01*
X72141847Y-101216847D01*
X72111557Y-101241706D01*
X72076993Y-101260181D01*
X72039499Y-101271555D01*
X71994362Y-101276000D01*
X71255638Y-101276000D01*
X71210501Y-101271555D01*
X71173007Y-101260181D01*
X71138443Y-101241706D01*
X71108153Y-101216847D01*
X71083294Y-101186557D01*
X71064819Y-101151993D01*
X71053445Y-101114499D01*
X71049000Y-101069362D01*
X71049000Y-100430638D01*
X71053445Y-100385501D01*
X71064819Y-100348007D01*
X71083294Y-100313443D01*
X71108153Y-100283153D01*
X71138443Y-100258294D01*
X71173007Y-100239819D01*
X71210501Y-100228445D01*
X71255638Y-100224000D01*
X71994362Y-100224000D01*
X72039499Y-100228445D01*
X72039499Y-100228445D01*
G37*
G36*
X61505996Y-98353051D02*
X61539653Y-98363261D01*
X61570667Y-98379838D01*
X61597852Y-98402148D01*
X61620162Y-98429333D01*
X61636739Y-98460347D01*
X61646949Y-98494004D01*
X61651000Y-98535138D01*
X61651000Y-99864862D01*
X61646949Y-99905996D01*
X61636739Y-99939653D01*
X61620162Y-99970667D01*
X61597852Y-99997852D01*
X61570667Y-100020162D01*
X61539653Y-100036739D01*
X61505996Y-100046949D01*
X61464862Y-100051000D01*
X58410138Y-100051000D01*
X58369004Y-100046949D01*
X58335347Y-100036739D01*
X58304333Y-100020162D01*
X58277148Y-99997852D01*
X58254838Y-99970667D01*
X58238261Y-99939653D01*
X58228051Y-99905996D01*
X58224000Y-99864862D01*
X58224000Y-98535138D01*
X58228051Y-98494004D01*
X58238261Y-98460347D01*
X58254838Y-98429333D01*
X58277148Y-98402148D01*
X58304333Y-98379838D01*
X58335347Y-98363261D01*
X58369004Y-98353051D01*
X58410138Y-98349000D01*
X61464862Y-98349000D01*
X61505996Y-98353051D01*
X61505996Y-98353051D01*
G37*
G36*
X56430996Y-98353051D02*
X56464653Y-98363261D01*
X56495667Y-98379838D01*
X56522852Y-98402148D01*
X56545162Y-98429333D01*
X56561739Y-98460347D01*
X56571949Y-98494004D01*
X56576000Y-98535138D01*
X56576000Y-99864862D01*
X56571949Y-99905996D01*
X56561739Y-99939653D01*
X56545162Y-99970667D01*
X56522852Y-99997852D01*
X56495667Y-100020162D01*
X56464653Y-100036739D01*
X56430996Y-100046949D01*
X56389862Y-100051000D01*
X53335138Y-100051000D01*
X53294004Y-100046949D01*
X53260347Y-100036739D01*
X53229333Y-100020162D01*
X53202148Y-99997852D01*
X53179838Y-99970667D01*
X53163261Y-99939653D01*
X53153051Y-99905996D01*
X53149000Y-99864862D01*
X53149000Y-98535138D01*
X53153051Y-98494004D01*
X53163261Y-98460347D01*
X53179838Y-98429333D01*
X53202148Y-98402148D01*
X53229333Y-98379838D01*
X53260347Y-98363261D01*
X53294004Y-98353051D01*
X53335138Y-98349000D01*
X56389862Y-98349000D01*
X56430996Y-98353051D01*
X56430996Y-98353051D01*
G37*
G36*
X113114499Y-98428445D02*
X113151993Y-98439819D01*
X113186557Y-98458294D01*
X113216847Y-98483153D01*
X113241706Y-98513443D01*
X113260181Y-98548007D01*
X113271555Y-98585501D01*
X113276000Y-98630638D01*
X113276000Y-99369362D01*
X113271555Y-99414499D01*
X113260181Y-99451993D01*
X113241706Y-99486557D01*
X113216847Y-99516847D01*
X113186557Y-99541706D01*
X113151993Y-99560181D01*
X113114499Y-99571555D01*
X113069362Y-99576000D01*
X112430638Y-99576000D01*
X112385501Y-99571555D01*
X112348007Y-99560181D01*
X112313443Y-99541706D01*
X112283153Y-99516847D01*
X112258294Y-99486557D01*
X112239819Y-99451993D01*
X112228445Y-99414499D01*
X112224000Y-99369362D01*
X112224000Y-98630638D01*
X112228445Y-98585501D01*
X112239819Y-98548007D01*
X112258294Y-98513443D01*
X112283153Y-98483153D01*
X112313443Y-98458294D01*
X112348007Y-98439819D01*
X112385501Y-98428445D01*
X112430638Y-98424000D01*
X113069362Y-98424000D01*
X113114499Y-98428445D01*
X113114499Y-98428445D01*
G37*
G36*
X90614499Y-98303445D02*
X90651993Y-98314819D01*
X90686557Y-98333294D01*
X90716847Y-98358153D01*
X90741706Y-98388443D01*
X90760181Y-98423007D01*
X90771555Y-98460501D01*
X90776000Y-98505638D01*
X90776000Y-99244362D01*
X90771555Y-99289499D01*
X90760181Y-99326993D01*
X90741706Y-99361557D01*
X90716847Y-99391847D01*
X90686557Y-99416706D01*
X90651993Y-99435181D01*
X90614499Y-99446555D01*
X90569362Y-99451000D01*
X89930638Y-99451000D01*
X89885501Y-99446555D01*
X89848007Y-99435181D01*
X89813443Y-99416706D01*
X89783153Y-99391847D01*
X89758294Y-99361557D01*
X89739819Y-99326993D01*
X89728445Y-99289499D01*
X89724000Y-99244362D01*
X89724000Y-98505638D01*
X89728445Y-98460501D01*
X89739819Y-98423007D01*
X89758294Y-98388443D01*
X89783153Y-98358153D01*
X89813443Y-98333294D01*
X89848007Y-98314819D01*
X89885501Y-98303445D01*
X89930638Y-98299000D01*
X90569362Y-98299000D01*
X90614499Y-98303445D01*
X90614499Y-98303445D01*
G37*
G36*
X116971000Y-99101000D02*
X114369000Y-99101000D01*
X114369000Y-96899000D01*
X116971000Y-96899000D01*
X116971000Y-99101000D01*
X116971000Y-99101000D01*
G37*
G36*
X119131000Y-99101000D02*
X117529000Y-99101000D01*
X117529000Y-96899000D01*
X119131000Y-96899000D01*
X119131000Y-99101000D01*
X119131000Y-99101000D01*
G37*
G36*
X72971000Y-99101000D02*
X70369000Y-99101000D01*
X70369000Y-96899000D01*
X72971000Y-96899000D01*
X72971000Y-99101000D01*
X72971000Y-99101000D01*
G37*
G36*
X75131000Y-99101000D02*
X73529000Y-99101000D01*
X73529000Y-96899000D01*
X75131000Y-96899000D01*
X75131000Y-99101000D01*
X75131000Y-99101000D01*
G37*
G36*
X94971000Y-99101000D02*
X92369000Y-99101000D01*
X92369000Y-96899000D01*
X94971000Y-96899000D01*
X94971000Y-99101000D01*
X94971000Y-99101000D01*
G37*
G36*
X97131000Y-99101000D02*
X95529000Y-99101000D01*
X95529000Y-96899000D01*
X97131000Y-96899000D01*
X97131000Y-99101000D01*
X97131000Y-99101000D01*
G37*
G36*
X113114499Y-96678445D02*
X113151993Y-96689819D01*
X113186557Y-96708294D01*
X113216847Y-96733153D01*
X113241706Y-96763443D01*
X113260181Y-96798007D01*
X113271555Y-96835501D01*
X113276000Y-96880638D01*
X113276000Y-97619362D01*
X113271555Y-97664499D01*
X113260181Y-97701993D01*
X113241706Y-97736557D01*
X113216847Y-97766847D01*
X113186557Y-97791706D01*
X113151993Y-97810181D01*
X113114499Y-97821555D01*
X113069362Y-97826000D01*
X112430638Y-97826000D01*
X112385501Y-97821555D01*
X112348007Y-97810181D01*
X112313443Y-97791706D01*
X112283153Y-97766847D01*
X112258294Y-97736557D01*
X112239819Y-97701993D01*
X112228445Y-97664499D01*
X112224000Y-97619362D01*
X112224000Y-96880638D01*
X112228445Y-96835501D01*
X112239819Y-96798007D01*
X112258294Y-96763443D01*
X112283153Y-96733153D01*
X112313443Y-96708294D01*
X112348007Y-96689819D01*
X112385501Y-96678445D01*
X112430638Y-96674000D01*
X113069362Y-96674000D01*
X113114499Y-96678445D01*
X113114499Y-96678445D01*
G37*
G36*
X90614499Y-96553445D02*
X90651993Y-96564819D01*
X90686557Y-96583294D01*
X90716847Y-96608153D01*
X90741706Y-96638443D01*
X90760181Y-96673007D01*
X90771555Y-96710501D01*
X90776000Y-96755638D01*
X90776000Y-97494362D01*
X90771555Y-97539499D01*
X90760181Y-97576993D01*
X90741706Y-97611557D01*
X90716847Y-97641847D01*
X90686557Y-97666706D01*
X90651993Y-97685181D01*
X90614499Y-97696555D01*
X90569362Y-97701000D01*
X89930638Y-97701000D01*
X89885501Y-97696555D01*
X89848007Y-97685181D01*
X89813443Y-97666706D01*
X89783153Y-97641847D01*
X89758294Y-97611557D01*
X89739819Y-97576993D01*
X89728445Y-97539499D01*
X89724000Y-97494362D01*
X89724000Y-96755638D01*
X89728445Y-96710501D01*
X89739819Y-96673007D01*
X89758294Y-96638443D01*
X89783153Y-96608153D01*
X89813443Y-96583294D01*
X89848007Y-96564819D01*
X89885501Y-96553445D01*
X89930638Y-96549000D01*
X90569362Y-96549000D01*
X90614499Y-96553445D01*
X90614499Y-96553445D01*
G37*
G36*
X51614499Y-96403445D02*
X51651993Y-96414819D01*
X51686557Y-96433294D01*
X51716847Y-96458153D01*
X51741706Y-96488443D01*
X51760181Y-96523007D01*
X51771555Y-96560501D01*
X51776000Y-96605638D01*
X51776000Y-97344362D01*
X51771555Y-97389499D01*
X51760181Y-97426993D01*
X51741706Y-97461557D01*
X51716847Y-97491847D01*
X51686557Y-97516706D01*
X51651993Y-97535181D01*
X51614499Y-97546555D01*
X51569362Y-97551000D01*
X50930638Y-97551000D01*
X50885501Y-97546555D01*
X50848007Y-97535181D01*
X50813443Y-97516706D01*
X50783153Y-97491847D01*
X50758294Y-97461557D01*
X50739819Y-97426993D01*
X50728445Y-97389499D01*
X50724000Y-97344362D01*
X50724000Y-96605638D01*
X50728445Y-96560501D01*
X50739819Y-96523007D01*
X50758294Y-96488443D01*
X50783153Y-96458153D01*
X50813443Y-96433294D01*
X50848007Y-96414819D01*
X50885501Y-96403445D01*
X50930638Y-96399000D01*
X51569362Y-96399000D01*
X51614499Y-96403445D01*
X51614499Y-96403445D01*
G37*
G36*
X47746425Y-95562760D02*
X47746428Y-95562761D01*
X47746429Y-95562761D01*
X47925693Y-95617140D01*
X47925695Y-95617141D01*
X48090905Y-95705448D01*
X48235712Y-95824288D01*
X48354552Y-95969095D01*
X48442859Y-96134305D01*
X48497240Y-96313575D01*
X48515601Y-96500000D01*
X48497240Y-96686425D01*
X48497239Y-96686428D01*
X48497239Y-96686429D01*
X48452019Y-96835501D01*
X48442859Y-96865695D01*
X48354552Y-97030905D01*
X48235712Y-97175712D01*
X48090905Y-97294552D01*
X48090903Y-97294553D01*
X47925693Y-97382860D01*
X47746429Y-97437239D01*
X47746428Y-97437239D01*
X47746425Y-97437240D01*
X47606718Y-97451000D01*
X46813282Y-97451000D01*
X46673575Y-97437240D01*
X46673572Y-97437239D01*
X46673571Y-97437239D01*
X46494307Y-97382860D01*
X46329097Y-97294553D01*
X46329095Y-97294552D01*
X46184288Y-97175712D01*
X46065448Y-97030905D01*
X45977141Y-96865695D01*
X45967982Y-96835501D01*
X45922761Y-96686429D01*
X45922761Y-96686428D01*
X45922760Y-96686425D01*
X45904399Y-96500000D01*
X45922760Y-96313575D01*
X45977141Y-96134305D01*
X46065448Y-95969095D01*
X46184288Y-95824288D01*
X46329095Y-95705448D01*
X46494305Y-95617141D01*
X46494307Y-95617140D01*
X46673571Y-95562761D01*
X46673572Y-95562761D01*
X46673575Y-95562760D01*
X46813282Y-95549000D01*
X47606718Y-95549000D01*
X47746425Y-95562760D01*
X47746425Y-95562760D01*
G37*
G36*
X64851000Y-97001000D02*
X61149000Y-97001000D01*
X61149000Y-94299000D01*
X64851000Y-94299000D01*
X64851000Y-97001000D01*
X64851000Y-97001000D01*
G37*
G36*
X51614499Y-94653445D02*
X51651993Y-94664819D01*
X51686557Y-94683294D01*
X51716847Y-94708153D01*
X51741706Y-94738443D01*
X51760181Y-94773007D01*
X51771555Y-94810501D01*
X51776000Y-94855638D01*
X51776000Y-95594362D01*
X51771555Y-95639499D01*
X51760181Y-95676993D01*
X51741706Y-95711557D01*
X51716847Y-95741847D01*
X51686557Y-95766706D01*
X51651993Y-95785181D01*
X51614499Y-95796555D01*
X51569362Y-95801000D01*
X50930638Y-95801000D01*
X50885501Y-95796555D01*
X50848007Y-95785181D01*
X50813443Y-95766706D01*
X50783153Y-95741847D01*
X50758294Y-95711557D01*
X50739819Y-95676993D01*
X50728445Y-95639499D01*
X50724000Y-95594362D01*
X50724000Y-94855638D01*
X50728445Y-94810501D01*
X50739819Y-94773007D01*
X50758294Y-94738443D01*
X50783153Y-94708153D01*
X50813443Y-94683294D01*
X50848007Y-94664819D01*
X50885501Y-94653445D01*
X50930638Y-94649000D01*
X51569362Y-94649000D01*
X51614499Y-94653445D01*
X51614499Y-94653445D01*
G37*
G36*
X88789499Y-94728445D02*
X88826993Y-94739819D01*
X88861557Y-94758294D01*
X88891847Y-94783153D01*
X88916706Y-94813443D01*
X88935181Y-94848007D01*
X88946555Y-94885501D01*
X88951000Y-94930638D01*
X88951000Y-95569362D01*
X88946555Y-95614499D01*
X88935181Y-95651993D01*
X88916706Y-95686557D01*
X88891847Y-95716847D01*
X88861557Y-95741706D01*
X88826993Y-95760181D01*
X88789499Y-95771555D01*
X88744362Y-95776000D01*
X88005638Y-95776000D01*
X87960501Y-95771555D01*
X87923007Y-95760181D01*
X87888443Y-95741706D01*
X87858153Y-95716847D01*
X87833294Y-95686557D01*
X87814819Y-95651993D01*
X87803445Y-95614499D01*
X87799000Y-95569362D01*
X87799000Y-94930638D01*
X87803445Y-94885501D01*
X87814819Y-94848007D01*
X87833294Y-94813443D01*
X87858153Y-94783153D01*
X87888443Y-94758294D01*
X87923007Y-94739819D01*
X87960501Y-94728445D01*
X88005638Y-94724000D01*
X88744362Y-94724000D01*
X88789499Y-94728445D01*
X88789499Y-94728445D01*
G37*
G36*
X90539499Y-94728445D02*
X90576993Y-94739819D01*
X90611557Y-94758294D01*
X90641847Y-94783153D01*
X90666706Y-94813443D01*
X90685181Y-94848007D01*
X90696555Y-94885501D01*
X90701000Y-94930638D01*
X90701000Y-95569362D01*
X90696555Y-95614499D01*
X90685181Y-95651993D01*
X90666706Y-95686557D01*
X90641847Y-95716847D01*
X90611557Y-95741706D01*
X90576993Y-95760181D01*
X90539499Y-95771555D01*
X90494362Y-95776000D01*
X89755638Y-95776000D01*
X89710501Y-95771555D01*
X89673007Y-95760181D01*
X89638443Y-95741706D01*
X89608153Y-95716847D01*
X89583294Y-95686557D01*
X89564819Y-95651993D01*
X89553445Y-95614499D01*
X89549000Y-95569362D01*
X89549000Y-94930638D01*
X89553445Y-94885501D01*
X89564819Y-94848007D01*
X89583294Y-94813443D01*
X89608153Y-94783153D01*
X89638443Y-94758294D01*
X89673007Y-94739819D01*
X89710501Y-94728445D01*
X89755638Y-94724000D01*
X90494362Y-94724000D01*
X90539499Y-94728445D01*
X90539499Y-94728445D01*
G37*
G36*
X68614499Y-94303445D02*
X68651993Y-94314819D01*
X68686557Y-94333294D01*
X68716847Y-94358153D01*
X68741706Y-94388443D01*
X68760181Y-94423007D01*
X68771555Y-94460501D01*
X68776000Y-94505638D01*
X68776000Y-95244362D01*
X68771555Y-95289499D01*
X68760181Y-95326993D01*
X68741706Y-95361557D01*
X68716847Y-95391847D01*
X68686557Y-95416706D01*
X68651993Y-95435181D01*
X68614499Y-95446555D01*
X68569362Y-95451000D01*
X67930638Y-95451000D01*
X67885501Y-95446555D01*
X67848007Y-95435181D01*
X67813443Y-95416706D01*
X67783153Y-95391847D01*
X67758294Y-95361557D01*
X67739819Y-95326993D01*
X67728445Y-95289499D01*
X67724000Y-95244362D01*
X67724000Y-94505638D01*
X67728445Y-94460501D01*
X67739819Y-94423007D01*
X67758294Y-94388443D01*
X67783153Y-94358153D01*
X67813443Y-94333294D01*
X67848007Y-94314819D01*
X67885501Y-94303445D01*
X67930638Y-94299000D01*
X68569362Y-94299000D01*
X68614499Y-94303445D01*
X68614499Y-94303445D01*
G37*
G36*
X162016535Y-93002800D02*
X162047740Y-93012266D01*
X162076487Y-93027631D01*
X162101687Y-93048313D01*
X162122369Y-93073513D01*
X162137734Y-93102260D01*
X162147200Y-93133465D01*
X162151000Y-93172045D01*
X162151000Y-95027955D01*
X162147200Y-95066535D01*
X162137734Y-95097740D01*
X162122369Y-95126487D01*
X162101687Y-95151687D01*
X162076487Y-95172369D01*
X162047740Y-95187734D01*
X162016535Y-95197200D01*
X161977955Y-95201000D01*
X157622045Y-95201000D01*
X157583465Y-95197200D01*
X157552260Y-95187734D01*
X157523513Y-95172369D01*
X157498313Y-95151687D01*
X157477631Y-95126487D01*
X157462266Y-95097740D01*
X157452800Y-95066535D01*
X157449000Y-95027955D01*
X157449000Y-93172045D01*
X157452800Y-93133465D01*
X157462266Y-93102260D01*
X157477631Y-93073513D01*
X157498313Y-93048313D01*
X157523513Y-93027631D01*
X157552260Y-93012266D01*
X157583465Y-93002800D01*
X157622045Y-92999000D01*
X161977955Y-92999000D01*
X162016535Y-93002800D01*
X162016535Y-93002800D01*
G37*
G36*
X153216535Y-93002800D02*
X153247740Y-93012266D01*
X153276487Y-93027631D01*
X153301687Y-93048313D01*
X153322369Y-93073513D01*
X153337734Y-93102260D01*
X153347200Y-93133465D01*
X153351000Y-93172045D01*
X153351000Y-95027955D01*
X153347200Y-95066535D01*
X153337734Y-95097740D01*
X153322369Y-95126487D01*
X153301687Y-95151687D01*
X153276487Y-95172369D01*
X153247740Y-95187734D01*
X153216535Y-95197200D01*
X153177955Y-95201000D01*
X148822045Y-95201000D01*
X148783465Y-95197200D01*
X148752260Y-95187734D01*
X148723513Y-95172369D01*
X148698313Y-95151687D01*
X148677631Y-95126487D01*
X148662266Y-95097740D01*
X148652800Y-95066535D01*
X148649000Y-95027955D01*
X148649000Y-93172045D01*
X148652800Y-93133465D01*
X148662266Y-93102260D01*
X148677631Y-93073513D01*
X148698313Y-93048313D01*
X148723513Y-93027631D01*
X148752260Y-93012266D01*
X148783465Y-93002800D01*
X148822045Y-92999000D01*
X153177955Y-92999000D01*
X153216535Y-93002800D01*
X153216535Y-93002800D01*
G37*
G36*
X113114499Y-94053445D02*
X113151993Y-94064819D01*
X113186557Y-94083294D01*
X113216847Y-94108153D01*
X113241706Y-94138443D01*
X113260181Y-94173007D01*
X113271555Y-94210501D01*
X113276000Y-94255638D01*
X113276000Y-94994362D01*
X113271555Y-95039499D01*
X113260181Y-95076993D01*
X113241706Y-95111557D01*
X113216847Y-95141847D01*
X113186557Y-95166706D01*
X113151993Y-95185181D01*
X113114499Y-95196555D01*
X113069362Y-95201000D01*
X112430638Y-95201000D01*
X112385501Y-95196555D01*
X112348007Y-95185181D01*
X112313443Y-95166706D01*
X112283153Y-95141847D01*
X112258294Y-95111557D01*
X112239819Y-95076993D01*
X112228445Y-95039499D01*
X112224000Y-94994362D01*
X112224000Y-94255638D01*
X112228445Y-94210501D01*
X112239819Y-94173007D01*
X112258294Y-94138443D01*
X112283153Y-94108153D01*
X112313443Y-94083294D01*
X112348007Y-94064819D01*
X112385501Y-94053445D01*
X112430638Y-94049000D01*
X113069362Y-94049000D01*
X113114499Y-94053445D01*
X113114499Y-94053445D01*
G37*
G36*
X116971000Y-95101000D02*
X114369000Y-95101000D01*
X114369000Y-92899000D01*
X116971000Y-92899000D01*
X116971000Y-95101000D01*
X116971000Y-95101000D01*
G37*
G36*
X119131000Y-95101000D02*
X117529000Y-95101000D01*
X117529000Y-92899000D01*
X119131000Y-92899000D01*
X119131000Y-95101000D01*
X119131000Y-95101000D01*
G37*
G36*
X94971000Y-95101000D02*
X92369000Y-95101000D01*
X92369000Y-92899000D01*
X94971000Y-92899000D01*
X94971000Y-95101000D01*
X94971000Y-95101000D01*
G37*
G36*
X75131000Y-95101000D02*
X73529000Y-95101000D01*
X73529000Y-92899000D01*
X75131000Y-92899000D01*
X75131000Y-95101000D01*
X75131000Y-95101000D01*
G37*
G36*
X72971000Y-95101000D02*
X70369000Y-95101000D01*
X70369000Y-92899000D01*
X72971000Y-92899000D01*
X72971000Y-95101000D01*
X72971000Y-95101000D01*
G37*
G36*
X97131000Y-95101000D02*
X95529000Y-95101000D01*
X95529000Y-92899000D01*
X97131000Y-92899000D01*
X97131000Y-95101000D01*
X97131000Y-95101000D01*
G37*
G36*
X47867025Y-93210590D02*
X48018012Y-93256392D01*
X48157165Y-93330770D01*
X48279133Y-93430867D01*
X48379230Y-93552835D01*
X48453608Y-93691988D01*
X48499410Y-93842975D01*
X48514875Y-94000000D01*
X48499410Y-94157025D01*
X48453608Y-94308012D01*
X48379230Y-94447165D01*
X48279133Y-94569133D01*
X48157165Y-94669230D01*
X48018012Y-94743608D01*
X47867025Y-94789410D01*
X47749346Y-94801000D01*
X46670654Y-94801000D01*
X46552975Y-94789410D01*
X46401988Y-94743608D01*
X46262835Y-94669230D01*
X46140867Y-94569133D01*
X46040770Y-94447165D01*
X45966392Y-94308012D01*
X45920590Y-94157025D01*
X45905125Y-94000000D01*
X45920590Y-93842975D01*
X45966392Y-93691988D01*
X46040770Y-93552835D01*
X46140867Y-93430867D01*
X46262835Y-93330770D01*
X46401988Y-93256392D01*
X46552975Y-93210590D01*
X46670654Y-93199000D01*
X47749346Y-93199000D01*
X47867025Y-93210590D01*
X47867025Y-93210590D01*
G37*
G36*
X68614499Y-92553445D02*
X68651993Y-92564819D01*
X68686557Y-92583294D01*
X68716847Y-92608153D01*
X68741706Y-92638443D01*
X68760181Y-92673007D01*
X68771555Y-92710501D01*
X68776000Y-92755638D01*
X68776000Y-93494362D01*
X68771555Y-93539499D01*
X68760181Y-93576993D01*
X68741706Y-93611557D01*
X68716847Y-93641847D01*
X68686557Y-93666706D01*
X68651993Y-93685181D01*
X68614499Y-93696555D01*
X68569362Y-93701000D01*
X67930638Y-93701000D01*
X67885501Y-93696555D01*
X67848007Y-93685181D01*
X67813443Y-93666706D01*
X67783153Y-93641847D01*
X67758294Y-93611557D01*
X67739819Y-93576993D01*
X67728445Y-93539499D01*
X67724000Y-93494362D01*
X67724000Y-92755638D01*
X67728445Y-92710501D01*
X67739819Y-92673007D01*
X67758294Y-92638443D01*
X67783153Y-92608153D01*
X67813443Y-92583294D01*
X67848007Y-92564819D01*
X67885501Y-92553445D01*
X67930638Y-92549000D01*
X68569362Y-92549000D01*
X68614499Y-92553445D01*
X68614499Y-92553445D01*
G37*
G36*
X113114499Y-92303445D02*
X113151993Y-92314819D01*
X113186557Y-92333294D01*
X113216847Y-92358153D01*
X113241706Y-92388443D01*
X113260181Y-92423007D01*
X113271555Y-92460501D01*
X113276000Y-92505638D01*
X113276000Y-93244362D01*
X113271555Y-93289499D01*
X113260181Y-93326993D01*
X113241706Y-93361557D01*
X113216847Y-93391847D01*
X113186557Y-93416706D01*
X113151993Y-93435181D01*
X113114499Y-93446555D01*
X113069362Y-93451000D01*
X112430638Y-93451000D01*
X112385501Y-93446555D01*
X112348007Y-93435181D01*
X112313443Y-93416706D01*
X112283153Y-93391847D01*
X112258294Y-93361557D01*
X112239819Y-93326993D01*
X112228445Y-93289499D01*
X112224000Y-93244362D01*
X112224000Y-92505638D01*
X112228445Y-92460501D01*
X112239819Y-92423007D01*
X112258294Y-92388443D01*
X112283153Y-92358153D01*
X112313443Y-92333294D01*
X112348007Y-92314819D01*
X112385501Y-92303445D01*
X112430638Y-92299000D01*
X113069362Y-92299000D01*
X113114499Y-92303445D01*
X113114499Y-92303445D01*
G37*
G36*
X47867025Y-91210590D02*
X48018012Y-91256392D01*
X48157165Y-91330770D01*
X48279133Y-91430867D01*
X48379230Y-91552835D01*
X48453608Y-91691988D01*
X48499410Y-91842975D01*
X48514875Y-92000000D01*
X48499410Y-92157025D01*
X48453608Y-92308012D01*
X48379230Y-92447165D01*
X48279133Y-92569133D01*
X48157165Y-92669230D01*
X48018012Y-92743608D01*
X47867025Y-92789410D01*
X47749346Y-92801000D01*
X46670654Y-92801000D01*
X46552975Y-92789410D01*
X46401988Y-92743608D01*
X46262835Y-92669230D01*
X46140867Y-92569133D01*
X46040770Y-92447165D01*
X45966392Y-92308012D01*
X45920590Y-92157025D01*
X45905125Y-92000000D01*
X45920590Y-91842975D01*
X45966392Y-91691988D01*
X46040770Y-91552835D01*
X46140867Y-91430867D01*
X46262835Y-91330770D01*
X46401988Y-91256392D01*
X46552975Y-91210590D01*
X46670654Y-91199000D01*
X47749346Y-91199000D01*
X47867025Y-91210590D01*
X47867025Y-91210590D01*
G37*
G36*
X85801000Y-92051000D02*
X84699000Y-92051000D01*
X84699000Y-90949000D01*
X85801000Y-90949000D01*
X85801000Y-92051000D01*
X85801000Y-92051000D01*
G37*
G36*
X87301000Y-92051000D02*
X86199000Y-92051000D01*
X86199000Y-90949000D01*
X87301000Y-90949000D01*
X87301000Y-92051000D01*
X87301000Y-92051000D01*
G37*
G36*
X84301000Y-92051000D02*
X83199000Y-92051000D01*
X83199000Y-90949000D01*
X84301000Y-90949000D01*
X84301000Y-92051000D01*
X84301000Y-92051000D01*
G37*
G36*
X81301000Y-92051000D02*
X80199000Y-92051000D01*
X80199000Y-90949000D01*
X81301000Y-90949000D01*
X81301000Y-92051000D01*
X81301000Y-92051000D01*
G37*
G36*
X82801000Y-92051000D02*
X81699000Y-92051000D01*
X81699000Y-90949000D01*
X82801000Y-90949000D01*
X82801000Y-92051000D01*
X82801000Y-92051000D01*
G37*
G36*
X79801000Y-92051000D02*
X78699000Y-92051000D01*
X78699000Y-90949000D01*
X79801000Y-90949000D01*
X79801000Y-92051000D01*
X79801000Y-92051000D01*
G37*
G36*
X51614499Y-90403445D02*
X51651993Y-90414819D01*
X51686557Y-90433294D01*
X51716847Y-90458153D01*
X51741706Y-90488443D01*
X51760181Y-90523007D01*
X51771555Y-90560501D01*
X51776000Y-90605638D01*
X51776000Y-91344362D01*
X51771555Y-91389499D01*
X51760181Y-91426993D01*
X51741706Y-91461557D01*
X51716847Y-91491847D01*
X51686557Y-91516706D01*
X51651993Y-91535181D01*
X51614499Y-91546555D01*
X51569362Y-91551000D01*
X50930638Y-91551000D01*
X50885501Y-91546555D01*
X50848007Y-91535181D01*
X50813443Y-91516706D01*
X50783153Y-91491847D01*
X50758294Y-91461557D01*
X50739819Y-91426993D01*
X50728445Y-91389499D01*
X50724000Y-91344362D01*
X50724000Y-90605638D01*
X50728445Y-90560501D01*
X50739819Y-90523007D01*
X50758294Y-90488443D01*
X50783153Y-90458153D01*
X50813443Y-90433294D01*
X50848007Y-90414819D01*
X50885501Y-90403445D01*
X50930638Y-90399000D01*
X51569362Y-90399000D01*
X51614499Y-90403445D01*
X51614499Y-90403445D01*
G37*
G36*
X47746425Y-88562760D02*
X47746428Y-88562761D01*
X47746429Y-88562761D01*
X47925693Y-88617140D01*
X47925695Y-88617141D01*
X48090905Y-88705448D01*
X48235712Y-88824288D01*
X48354552Y-88969095D01*
X48442859Y-89134305D01*
X48497240Y-89313575D01*
X48515601Y-89500000D01*
X48497240Y-89686425D01*
X48497239Y-89686428D01*
X48497239Y-89686429D01*
X48463833Y-89796555D01*
X48442859Y-89865695D01*
X48354552Y-90030905D01*
X48235712Y-90175712D01*
X48090905Y-90294552D01*
X48090903Y-90294553D01*
X47925693Y-90382860D01*
X47746429Y-90437239D01*
X47746428Y-90437239D01*
X47746425Y-90437240D01*
X47606718Y-90451000D01*
X46813282Y-90451000D01*
X46673575Y-90437240D01*
X46673572Y-90437239D01*
X46673571Y-90437239D01*
X46494307Y-90382860D01*
X46329097Y-90294553D01*
X46329095Y-90294552D01*
X46184288Y-90175712D01*
X46065448Y-90030905D01*
X45977141Y-89865695D01*
X45956168Y-89796555D01*
X45922761Y-89686429D01*
X45922761Y-89686428D01*
X45922760Y-89686425D01*
X45904399Y-89500000D01*
X45922760Y-89313575D01*
X45977141Y-89134305D01*
X46065448Y-88969095D01*
X46184288Y-88824288D01*
X46329095Y-88705448D01*
X46494305Y-88617141D01*
X46494307Y-88617140D01*
X46673571Y-88562761D01*
X46673572Y-88562761D01*
X46673575Y-88562760D01*
X46813282Y-88549000D01*
X47606718Y-88549000D01*
X47746425Y-88562760D01*
X47746425Y-88562760D01*
G37*
G36*
X78801000Y-90301000D02*
X77699000Y-90301000D01*
X77699000Y-89199000D01*
X78801000Y-89199000D01*
X78801000Y-90301000D01*
X78801000Y-90301000D01*
G37*
G36*
X80301000Y-90301000D02*
X79199000Y-90301000D01*
X79199000Y-89199000D01*
X80301000Y-89199000D01*
X80301000Y-90301000D01*
X80301000Y-90301000D01*
G37*
G36*
X81801000Y-90301000D02*
X80699000Y-90301000D01*
X80699000Y-89199000D01*
X81801000Y-89199000D01*
X81801000Y-90301000D01*
X81801000Y-90301000D01*
G37*
G36*
X89801000Y-90301000D02*
X88699000Y-90301000D01*
X88699000Y-89199000D01*
X89801000Y-89199000D01*
X89801000Y-90301000D01*
X89801000Y-90301000D01*
G37*
G36*
X83301000Y-90301000D02*
X82199000Y-90301000D01*
X82199000Y-89199000D01*
X83301000Y-89199000D01*
X83301000Y-90301000D01*
X83301000Y-90301000D01*
G37*
G36*
X84801000Y-90301000D02*
X83699000Y-90301000D01*
X83699000Y-89199000D01*
X84801000Y-89199000D01*
X84801000Y-90301000D01*
X84801000Y-90301000D01*
G37*
G36*
X86301000Y-90301000D02*
X85199000Y-90301000D01*
X85199000Y-89199000D01*
X86301000Y-89199000D01*
X86301000Y-90301000D01*
X86301000Y-90301000D01*
G37*
G36*
X88301000Y-90301000D02*
X87199000Y-90301000D01*
X87199000Y-89199000D01*
X88301000Y-89199000D01*
X88301000Y-90301000D01*
X88301000Y-90301000D01*
G37*
G36*
X51614499Y-88653445D02*
X51651993Y-88664819D01*
X51686557Y-88683294D01*
X51716847Y-88708153D01*
X51741706Y-88738443D01*
X51760181Y-88773007D01*
X51771555Y-88810501D01*
X51776000Y-88855638D01*
X51776000Y-89594362D01*
X51771555Y-89639499D01*
X51760181Y-89676993D01*
X51741706Y-89711557D01*
X51716847Y-89741847D01*
X51686557Y-89766706D01*
X51651993Y-89785181D01*
X51614499Y-89796555D01*
X51569362Y-89801000D01*
X50930638Y-89801000D01*
X50885501Y-89796555D01*
X50848007Y-89785181D01*
X50813443Y-89766706D01*
X50783153Y-89741847D01*
X50758294Y-89711557D01*
X50739819Y-89676993D01*
X50728445Y-89639499D01*
X50724000Y-89594362D01*
X50724000Y-88855638D01*
X50728445Y-88810501D01*
X50739819Y-88773007D01*
X50758294Y-88738443D01*
X50783153Y-88708153D01*
X50813443Y-88683294D01*
X50848007Y-88664819D01*
X50885501Y-88653445D01*
X50930638Y-88649000D01*
X51569362Y-88649000D01*
X51614499Y-88653445D01*
X51614499Y-88653445D01*
G37*
G36*
X85301000Y-88551000D02*
X84199000Y-88551000D01*
X84199000Y-87449000D01*
X85301000Y-87449000D01*
X85301000Y-88551000D01*
X85301000Y-88551000D01*
G37*
G36*
X86801000Y-88551000D02*
X85699000Y-88551000D01*
X85699000Y-87449000D01*
X86801000Y-87449000D01*
X86801000Y-88551000D01*
X86801000Y-88551000D01*
G37*
G36*
X83801000Y-88551000D02*
X82699000Y-88551000D01*
X82699000Y-87449000D01*
X83801000Y-87449000D01*
X83801000Y-88551000D01*
X83801000Y-88551000D01*
G37*
G36*
X82301000Y-88551000D02*
X81199000Y-88551000D01*
X81199000Y-87449000D01*
X82301000Y-87449000D01*
X82301000Y-88551000D01*
X82301000Y-88551000D01*
G37*
G36*
X79301000Y-88551000D02*
X78199000Y-88551000D01*
X78199000Y-87449000D01*
X79301000Y-87449000D01*
X79301000Y-88551000D01*
X79301000Y-88551000D01*
G37*
G36*
X80801000Y-88551000D02*
X79699000Y-88551000D01*
X79699000Y-87449000D01*
X80801000Y-87449000D01*
X80801000Y-88551000D01*
X80801000Y-88551000D01*
G37*
G36*
X88801000Y-88551000D02*
X87699000Y-88551000D01*
X87699000Y-87449000D01*
X88801000Y-87449000D01*
X88801000Y-88551000D01*
X88801000Y-88551000D01*
G37*
G36*
X93051000Y-87551000D02*
X91949000Y-87551000D01*
X91949000Y-86449000D01*
X93051000Y-86449000D01*
X93051000Y-87551000D01*
X93051000Y-87551000D01*
G37*
G36*
X100460721Y-86470174D02*
X100560995Y-86511709D01*
X100651245Y-86572012D01*
X100727988Y-86648755D01*
X100788291Y-86739005D01*
X100829826Y-86839279D01*
X100851000Y-86945730D01*
X100851000Y-87054270D01*
X100829826Y-87160721D01*
X100788291Y-87260995D01*
X100727988Y-87351245D01*
X100651245Y-87427988D01*
X100560995Y-87488291D01*
X100460721Y-87529826D01*
X100354270Y-87551000D01*
X100245730Y-87551000D01*
X100139279Y-87529826D01*
X100039005Y-87488291D01*
X99948755Y-87427988D01*
X99872012Y-87351245D01*
X99811709Y-87260995D01*
X99770174Y-87160721D01*
X99749000Y-87054270D01*
X99749000Y-86945730D01*
X99770174Y-86839279D01*
X99811709Y-86739005D01*
X99872012Y-86648755D01*
X99948755Y-86572012D01*
X100039005Y-86511709D01*
X100139279Y-86470174D01*
X100245730Y-86449000D01*
X100354270Y-86449000D01*
X100460721Y-86470174D01*
X100460721Y-86470174D01*
G37*
G36*
X45152143Y-84156481D02*
X45304049Y-84171442D01*
X45445362Y-84214309D01*
X45596415Y-84260130D01*
X45674734Y-84301993D01*
X45865858Y-84404151D01*
X46102029Y-84597971D01*
X46295849Y-84834142D01*
X46352046Y-84939279D01*
X46439870Y-85103585D01*
X46445321Y-85121555D01*
X46528558Y-85395951D01*
X46558504Y-85700000D01*
X46528558Y-86004049D01*
X46469433Y-86198959D01*
X46439870Y-86296415D01*
X46410693Y-86351000D01*
X46295849Y-86565858D01*
X46102029Y-86802029D01*
X45865858Y-86995849D01*
X45756560Y-87054270D01*
X45596415Y-87139870D01*
X45527678Y-87160721D01*
X45304049Y-87228558D01*
X45152143Y-87243519D01*
X45076191Y-87251000D01*
X43923809Y-87251000D01*
X43847857Y-87243519D01*
X43695951Y-87228558D01*
X43472322Y-87160721D01*
X43403585Y-87139870D01*
X43243440Y-87054270D01*
X43134142Y-86995849D01*
X42897971Y-86802029D01*
X42704151Y-86565858D01*
X42589307Y-86351000D01*
X42560130Y-86296415D01*
X42530567Y-86198959D01*
X42471442Y-86004049D01*
X42441496Y-85700000D01*
X42471442Y-85395951D01*
X42554679Y-85121555D01*
X42560130Y-85103585D01*
X42647954Y-84939279D01*
X42704151Y-84834142D01*
X42897971Y-84597971D01*
X43134142Y-84404151D01*
X43325266Y-84301993D01*
X43403585Y-84260130D01*
X43554638Y-84214309D01*
X43695951Y-84171442D01*
X43847857Y-84156481D01*
X43923809Y-84149000D01*
X45076191Y-84149000D01*
X45152143Y-84156481D01*
X45152143Y-84156481D01*
G37*
G36*
X137751000Y-86951000D02*
X136649000Y-86951000D01*
X136649000Y-85849000D01*
X137751000Y-85849000D01*
X137751000Y-86951000D01*
X137751000Y-86951000D01*
G37*
G36*
X143151000Y-86951000D02*
X142049000Y-86951000D01*
X142049000Y-85849000D01*
X143151000Y-85849000D01*
X143151000Y-86951000D01*
X143151000Y-86951000D01*
G37*
G36*
X141351000Y-86951000D02*
X140249000Y-86951000D01*
X140249000Y-85849000D01*
X141351000Y-85849000D01*
X141351000Y-86951000D01*
X141351000Y-86951000D01*
G37*
G36*
X139551000Y-86951000D02*
X138449000Y-86951000D01*
X138449000Y-85849000D01*
X139551000Y-85849000D01*
X139551000Y-86951000D01*
X139551000Y-86951000D01*
G37*
G36*
X115551000Y-86351000D02*
X114449000Y-86351000D01*
X114449000Y-85249000D01*
X115551000Y-85249000D01*
X115551000Y-86351000D01*
X115551000Y-86351000D01*
G37*
G36*
X76964499Y-84678445D02*
X77001993Y-84689819D01*
X77036557Y-84708294D01*
X77066847Y-84733153D01*
X77091706Y-84763443D01*
X77110181Y-84798007D01*
X77121555Y-84835501D01*
X77126000Y-84880638D01*
X77126000Y-85519362D01*
X77121555Y-85564499D01*
X77110181Y-85601993D01*
X77091706Y-85636557D01*
X77066847Y-85666847D01*
X77036557Y-85691706D01*
X77001993Y-85710181D01*
X76964499Y-85721555D01*
X76919362Y-85726000D01*
X76180638Y-85726000D01*
X76135501Y-85721555D01*
X76098007Y-85710181D01*
X76063443Y-85691706D01*
X76033153Y-85666847D01*
X76008294Y-85636557D01*
X75989819Y-85601993D01*
X75978445Y-85564499D01*
X75974000Y-85519362D01*
X75974000Y-84880638D01*
X75978445Y-84835501D01*
X75989819Y-84798007D01*
X76008294Y-84763443D01*
X76033153Y-84733153D01*
X76063443Y-84708294D01*
X76098007Y-84689819D01*
X76135501Y-84678445D01*
X76180638Y-84674000D01*
X76919362Y-84674000D01*
X76964499Y-84678445D01*
X76964499Y-84678445D01*
G37*
G36*
X75214499Y-84678445D02*
X75251993Y-84689819D01*
X75286557Y-84708294D01*
X75316847Y-84733153D01*
X75341706Y-84763443D01*
X75360181Y-84798007D01*
X75371555Y-84835501D01*
X75376000Y-84880638D01*
X75376000Y-85519362D01*
X75371555Y-85564499D01*
X75360181Y-85601993D01*
X75341706Y-85636557D01*
X75316847Y-85666847D01*
X75286557Y-85691706D01*
X75251993Y-85710181D01*
X75214499Y-85721555D01*
X75169362Y-85726000D01*
X74430638Y-85726000D01*
X74385501Y-85721555D01*
X74348007Y-85710181D01*
X74313443Y-85691706D01*
X74283153Y-85666847D01*
X74258294Y-85636557D01*
X74239819Y-85601993D01*
X74228445Y-85564499D01*
X74224000Y-85519362D01*
X74224000Y-84880638D01*
X74228445Y-84835501D01*
X74239819Y-84798007D01*
X74258294Y-84763443D01*
X74283153Y-84733153D01*
X74313443Y-84708294D01*
X74348007Y-84689819D01*
X74385501Y-84678445D01*
X74430638Y-84674000D01*
X75169362Y-84674000D01*
X75214499Y-84678445D01*
X75214499Y-84678445D01*
G37*
G36*
X100460721Y-84570174D02*
X100560995Y-84611709D01*
X100651245Y-84672012D01*
X100727988Y-84748755D01*
X100788291Y-84839005D01*
X100829826Y-84939279D01*
X100851000Y-85045730D01*
X100851000Y-85154270D01*
X100829826Y-85260721D01*
X100788291Y-85360995D01*
X100727988Y-85451245D01*
X100651245Y-85527988D01*
X100560995Y-85588291D01*
X100460721Y-85629826D01*
X100354270Y-85651000D01*
X100245730Y-85651000D01*
X100139279Y-85629826D01*
X100039005Y-85588291D01*
X99948755Y-85527988D01*
X99872012Y-85451245D01*
X99811709Y-85360995D01*
X99770174Y-85260721D01*
X99749000Y-85154270D01*
X99749000Y-85045730D01*
X99770174Y-84939279D01*
X99811709Y-84839005D01*
X99872012Y-84748755D01*
X99948755Y-84672012D01*
X100039005Y-84611709D01*
X100139279Y-84570174D01*
X100245730Y-84549000D01*
X100354270Y-84549000D01*
X100460721Y-84570174D01*
X100460721Y-84570174D01*
G37*
G36*
X162557025Y-83835590D02*
X162708012Y-83881392D01*
X162847165Y-83955770D01*
X162969133Y-84055867D01*
X163069230Y-84177835D01*
X163143608Y-84316988D01*
X163189410Y-84467975D01*
X163204875Y-84625000D01*
X163189410Y-84782025D01*
X163143608Y-84933012D01*
X163069230Y-85072165D01*
X162969133Y-85194133D01*
X162847165Y-85294230D01*
X162708012Y-85368608D01*
X162557025Y-85414410D01*
X162439346Y-85426000D01*
X161860654Y-85426000D01*
X161742975Y-85414410D01*
X161591988Y-85368608D01*
X161452835Y-85294230D01*
X161330867Y-85194133D01*
X161230770Y-85072165D01*
X161156392Y-84933012D01*
X161110590Y-84782025D01*
X161095125Y-84625000D01*
X161110590Y-84467975D01*
X161156392Y-84316988D01*
X161230770Y-84177835D01*
X161330867Y-84055867D01*
X161452835Y-83955770D01*
X161591988Y-83881392D01*
X161742975Y-83835590D01*
X161860654Y-83824000D01*
X162439346Y-83824000D01*
X162557025Y-83835590D01*
X162557025Y-83835590D01*
G37*
G36*
X108551000Y-85306000D02*
X107449000Y-85306000D01*
X107449000Y-82454000D01*
X108551000Y-82454000D01*
X108551000Y-85306000D01*
X108551000Y-85306000D01*
G37*
G36*
X104551000Y-85306000D02*
X103449000Y-85306000D01*
X103449000Y-82454000D01*
X104551000Y-82454000D01*
X104551000Y-85306000D01*
X104551000Y-85306000D01*
G37*
G36*
X139551000Y-85151000D02*
X138449000Y-85151000D01*
X138449000Y-84049000D01*
X139551000Y-84049000D01*
X139551000Y-85151000D01*
X139551000Y-85151000D01*
G37*
G36*
X144951000Y-85151000D02*
X143849000Y-85151000D01*
X143849000Y-84049000D01*
X144951000Y-84049000D01*
X144951000Y-85151000D01*
X144951000Y-85151000D01*
G37*
G36*
X143151000Y-85151000D02*
X142049000Y-85151000D01*
X142049000Y-84049000D01*
X143151000Y-84049000D01*
X143151000Y-85151000D01*
X143151000Y-85151000D01*
G37*
G36*
X137751000Y-85151000D02*
X136649000Y-85151000D01*
X136649000Y-84049000D01*
X137751000Y-84049000D01*
X137751000Y-85151000D01*
X137751000Y-85151000D01*
G37*
G36*
X135951000Y-85151000D02*
X134849000Y-85151000D01*
X134849000Y-84049000D01*
X135951000Y-84049000D01*
X135951000Y-85151000D01*
X135951000Y-85151000D01*
G37*
G36*
X141351000Y-85151000D02*
X140249000Y-85151000D01*
X140249000Y-84049000D01*
X141351000Y-84049000D01*
X141351000Y-85151000D01*
X141351000Y-85151000D01*
G37*
G36*
X133889499Y-84078445D02*
X133926993Y-84089819D01*
X133961557Y-84108294D01*
X133991847Y-84133153D01*
X134016706Y-84163443D01*
X134035181Y-84198007D01*
X134046555Y-84235501D01*
X134051000Y-84280638D01*
X134051000Y-84919362D01*
X134046555Y-84964499D01*
X134035181Y-85001993D01*
X134016706Y-85036557D01*
X133991847Y-85066847D01*
X133961557Y-85091706D01*
X133926993Y-85110181D01*
X133889499Y-85121555D01*
X133844362Y-85126000D01*
X133105638Y-85126000D01*
X133060501Y-85121555D01*
X133023007Y-85110181D01*
X132988443Y-85091706D01*
X132958153Y-85066847D01*
X132933294Y-85036557D01*
X132914819Y-85001993D01*
X132903445Y-84964499D01*
X132899000Y-84919362D01*
X132899000Y-84280638D01*
X132903445Y-84235501D01*
X132914819Y-84198007D01*
X132933294Y-84163443D01*
X132958153Y-84133153D01*
X132988443Y-84108294D01*
X133023007Y-84089819D01*
X133060501Y-84078445D01*
X133105638Y-84074000D01*
X133844362Y-84074000D01*
X133889499Y-84078445D01*
X133889499Y-84078445D01*
G37*
G36*
X132139499Y-84078445D02*
X132176993Y-84089819D01*
X132211557Y-84108294D01*
X132241847Y-84133153D01*
X132266706Y-84163443D01*
X132285181Y-84198007D01*
X132296555Y-84235501D01*
X132301000Y-84280638D01*
X132301000Y-84919362D01*
X132296555Y-84964499D01*
X132285181Y-85001993D01*
X132266706Y-85036557D01*
X132241847Y-85066847D01*
X132211557Y-85091706D01*
X132176993Y-85110181D01*
X132139499Y-85121555D01*
X132094362Y-85126000D01*
X131355638Y-85126000D01*
X131310501Y-85121555D01*
X131273007Y-85110181D01*
X131238443Y-85091706D01*
X131208153Y-85066847D01*
X131183294Y-85036557D01*
X131164819Y-85001993D01*
X131153445Y-84964499D01*
X131149000Y-84919362D01*
X131149000Y-84280638D01*
X131153445Y-84235501D01*
X131164819Y-84198007D01*
X131183294Y-84163443D01*
X131208153Y-84133153D01*
X131238443Y-84108294D01*
X131273007Y-84089819D01*
X131310501Y-84078445D01*
X131355638Y-84074000D01*
X132094362Y-84074000D01*
X132139499Y-84078445D01*
X132139499Y-84078445D01*
G37*
G36*
X89089499Y-83878445D02*
X89126993Y-83889819D01*
X89161557Y-83908294D01*
X89191847Y-83933153D01*
X89216706Y-83963443D01*
X89235181Y-83998007D01*
X89246555Y-84035501D01*
X89251000Y-84080638D01*
X89251000Y-84719362D01*
X89246555Y-84764499D01*
X89235181Y-84801993D01*
X89216706Y-84836557D01*
X89191847Y-84866847D01*
X89161557Y-84891706D01*
X89126993Y-84910181D01*
X89089499Y-84921555D01*
X89044362Y-84926000D01*
X88305638Y-84926000D01*
X88260501Y-84921555D01*
X88223007Y-84910181D01*
X88188443Y-84891706D01*
X88158153Y-84866847D01*
X88133294Y-84836557D01*
X88114819Y-84801993D01*
X88103445Y-84764499D01*
X88099000Y-84719362D01*
X88099000Y-84080638D01*
X88103445Y-84035501D01*
X88114819Y-83998007D01*
X88133294Y-83963443D01*
X88158153Y-83933153D01*
X88188443Y-83908294D01*
X88223007Y-83889819D01*
X88260501Y-83878445D01*
X88305638Y-83874000D01*
X89044362Y-83874000D01*
X89089499Y-83878445D01*
X89089499Y-83878445D01*
G37*
G36*
X87339499Y-83878445D02*
X87376993Y-83889819D01*
X87411557Y-83908294D01*
X87441847Y-83933153D01*
X87466706Y-83963443D01*
X87485181Y-83998007D01*
X87496555Y-84035501D01*
X87501000Y-84080638D01*
X87501000Y-84719362D01*
X87496555Y-84764499D01*
X87485181Y-84801993D01*
X87466706Y-84836557D01*
X87441847Y-84866847D01*
X87411557Y-84891706D01*
X87376993Y-84910181D01*
X87339499Y-84921555D01*
X87294362Y-84926000D01*
X86555638Y-84926000D01*
X86510501Y-84921555D01*
X86473007Y-84910181D01*
X86438443Y-84891706D01*
X86408153Y-84866847D01*
X86383294Y-84836557D01*
X86364819Y-84801993D01*
X86353445Y-84764499D01*
X86349000Y-84719362D01*
X86349000Y-84080638D01*
X86353445Y-84035501D01*
X86364819Y-83998007D01*
X86383294Y-83963443D01*
X86408153Y-83933153D01*
X86438443Y-83908294D01*
X86473007Y-83889819D01*
X86510501Y-83878445D01*
X86555638Y-83874000D01*
X87294362Y-83874000D01*
X87339499Y-83878445D01*
X87339499Y-83878445D01*
G37*
G36*
X115551000Y-84551000D02*
X114449000Y-84551000D01*
X114449000Y-83449000D01*
X115551000Y-83449000D01*
X115551000Y-84551000D01*
X115551000Y-84551000D01*
G37*
G36*
X93051000Y-84551000D02*
X91949000Y-84551000D01*
X91949000Y-83449000D01*
X93051000Y-83449000D01*
X93051000Y-84551000D01*
X93051000Y-84551000D01*
G37*
G36*
X155289499Y-83378445D02*
X155326993Y-83389819D01*
X155361557Y-83408294D01*
X155391847Y-83433153D01*
X155416706Y-83463443D01*
X155435181Y-83498007D01*
X155446555Y-83535501D01*
X155451000Y-83580638D01*
X155451000Y-84219362D01*
X155446555Y-84264499D01*
X155435181Y-84301993D01*
X155416706Y-84336557D01*
X155391847Y-84366847D01*
X155361557Y-84391706D01*
X155326993Y-84410181D01*
X155289499Y-84421555D01*
X155244362Y-84426000D01*
X154505638Y-84426000D01*
X154460501Y-84421555D01*
X154423007Y-84410181D01*
X154388443Y-84391706D01*
X154358153Y-84366847D01*
X154333294Y-84336557D01*
X154314819Y-84301993D01*
X154303445Y-84264499D01*
X154299000Y-84219362D01*
X154299000Y-83580638D01*
X154303445Y-83535501D01*
X154314819Y-83498007D01*
X154333294Y-83463443D01*
X154358153Y-83433153D01*
X154388443Y-83408294D01*
X154423007Y-83389819D01*
X154460501Y-83378445D01*
X154505638Y-83374000D01*
X155244362Y-83374000D01*
X155289499Y-83378445D01*
X155289499Y-83378445D01*
G37*
G36*
X153539499Y-83378445D02*
X153576993Y-83389819D01*
X153611557Y-83408294D01*
X153641847Y-83433153D01*
X153666706Y-83463443D01*
X153685181Y-83498007D01*
X153696555Y-83535501D01*
X153701000Y-83580638D01*
X153701000Y-84219362D01*
X153696555Y-84264499D01*
X153685181Y-84301993D01*
X153666706Y-84336557D01*
X153641847Y-84366847D01*
X153611557Y-84391706D01*
X153576993Y-84410181D01*
X153539499Y-84421555D01*
X153494362Y-84426000D01*
X152755638Y-84426000D01*
X152710501Y-84421555D01*
X152673007Y-84410181D01*
X152638443Y-84391706D01*
X152608153Y-84366847D01*
X152583294Y-84336557D01*
X152564819Y-84301993D01*
X152553445Y-84264499D01*
X152549000Y-84219362D01*
X152549000Y-83580638D01*
X152553445Y-83535501D01*
X152564819Y-83498007D01*
X152583294Y-83463443D01*
X152608153Y-83433153D01*
X152638443Y-83408294D01*
X152673007Y-83389819D01*
X152710501Y-83378445D01*
X152755638Y-83374000D01*
X153494362Y-83374000D01*
X153539499Y-83378445D01*
X153539499Y-83378445D01*
G37*
G36*
X159858015Y-82881973D02*
X159961879Y-82913479D01*
X160057600Y-82964644D01*
X160141501Y-83033499D01*
X160210356Y-83117400D01*
X160261521Y-83213121D01*
X160293027Y-83316985D01*
X160303666Y-83425000D01*
X160293027Y-83533015D01*
X160261521Y-83636879D01*
X160210356Y-83732600D01*
X160141501Y-83816501D01*
X160057600Y-83885356D01*
X159961879Y-83936521D01*
X159858015Y-83968027D01*
X159777067Y-83976000D01*
X159222933Y-83976000D01*
X159141985Y-83968027D01*
X159038121Y-83936521D01*
X158942400Y-83885356D01*
X158858499Y-83816501D01*
X158789644Y-83732600D01*
X158738479Y-83636879D01*
X158706973Y-83533015D01*
X158696334Y-83425000D01*
X158706973Y-83316985D01*
X158738479Y-83213121D01*
X158789644Y-83117400D01*
X158858499Y-83033499D01*
X158942400Y-82964644D01*
X159038121Y-82913479D01*
X159141985Y-82881973D01*
X159222933Y-82874000D01*
X159777067Y-82874000D01*
X159858015Y-82881973D01*
X159858015Y-82881973D01*
G37*
G36*
X75551000Y-83551000D02*
X74449000Y-83551000D01*
X74449000Y-82449000D01*
X75551000Y-82449000D01*
X75551000Y-83551000D01*
X75551000Y-83551000D01*
G37*
G36*
X37450442Y-81605518D02*
X37516627Y-81612037D01*
X37629853Y-81646384D01*
X37686467Y-81663557D01*
X37823867Y-81737000D01*
X37842991Y-81747222D01*
X37856482Y-81758294D01*
X37980186Y-81859814D01*
X38053378Y-81949000D01*
X38092778Y-81997009D01*
X38092779Y-81997011D01*
X38176443Y-82153533D01*
X38176443Y-82153534D01*
X38227963Y-82323373D01*
X38245359Y-82500000D01*
X38227963Y-82676627D01*
X38202617Y-82760181D01*
X38176443Y-82846467D01*
X38161726Y-82874000D01*
X38092778Y-83002991D01*
X38067740Y-83033500D01*
X37980186Y-83140186D01*
X37891313Y-83213121D01*
X37842991Y-83252778D01*
X37842989Y-83252779D01*
X37686467Y-83336443D01*
X37638478Y-83351000D01*
X37516627Y-83387963D01*
X37455128Y-83394020D01*
X37384260Y-83401000D01*
X37295740Y-83401000D01*
X37224872Y-83394020D01*
X37163373Y-83387963D01*
X37041522Y-83351000D01*
X36993533Y-83336443D01*
X36837011Y-83252779D01*
X36837009Y-83252778D01*
X36788687Y-83213121D01*
X36699814Y-83140186D01*
X36612260Y-83033500D01*
X36587222Y-83002991D01*
X36518274Y-82874000D01*
X36503557Y-82846467D01*
X36477383Y-82760181D01*
X36452037Y-82676627D01*
X36434641Y-82500000D01*
X36452037Y-82323373D01*
X36503557Y-82153534D01*
X36503557Y-82153533D01*
X36587221Y-81997011D01*
X36587222Y-81997009D01*
X36626622Y-81949000D01*
X36699814Y-81859814D01*
X36823518Y-81758294D01*
X36837009Y-81747222D01*
X36856133Y-81737000D01*
X36993533Y-81663557D01*
X37050147Y-81646384D01*
X37163373Y-81612037D01*
X37229558Y-81605518D01*
X37295740Y-81599000D01*
X37384260Y-81599000D01*
X37450442Y-81605518D01*
X37450442Y-81605518D01*
G37*
G36*
X45070442Y-81605518D02*
X45136627Y-81612037D01*
X45249853Y-81646384D01*
X45306467Y-81663557D01*
X45443867Y-81737000D01*
X45462991Y-81747222D01*
X45476482Y-81758294D01*
X45600186Y-81859814D01*
X45673378Y-81949000D01*
X45712778Y-81997009D01*
X45712779Y-81997011D01*
X45796443Y-82153533D01*
X45796443Y-82153534D01*
X45847963Y-82323373D01*
X45865359Y-82500000D01*
X45847963Y-82676627D01*
X45822617Y-82760181D01*
X45796443Y-82846467D01*
X45781726Y-82874000D01*
X45712778Y-83002991D01*
X45687740Y-83033500D01*
X45600186Y-83140186D01*
X45511313Y-83213121D01*
X45462991Y-83252778D01*
X45462989Y-83252779D01*
X45306467Y-83336443D01*
X45258478Y-83351000D01*
X45136627Y-83387963D01*
X45075128Y-83394020D01*
X45004260Y-83401000D01*
X44915740Y-83401000D01*
X44844872Y-83394020D01*
X44783373Y-83387963D01*
X44661522Y-83351000D01*
X44613533Y-83336443D01*
X44457011Y-83252779D01*
X44457009Y-83252778D01*
X44408687Y-83213121D01*
X44319814Y-83140186D01*
X44232260Y-83033500D01*
X44207222Y-83002991D01*
X44138274Y-82874000D01*
X44123557Y-82846467D01*
X44097383Y-82760181D01*
X44072037Y-82676627D01*
X44054641Y-82500000D01*
X44072037Y-82323373D01*
X44123557Y-82153534D01*
X44123557Y-82153533D01*
X44207221Y-81997011D01*
X44207222Y-81997009D01*
X44246622Y-81949000D01*
X44319814Y-81859814D01*
X44443518Y-81758294D01*
X44457009Y-81747222D01*
X44476133Y-81737000D01*
X44613533Y-81663557D01*
X44670147Y-81646384D01*
X44783373Y-81612037D01*
X44849558Y-81605518D01*
X44915740Y-81599000D01*
X45004260Y-81599000D01*
X45070442Y-81605518D01*
X45070442Y-81605518D01*
G37*
G36*
X42530442Y-81605518D02*
X42596627Y-81612037D01*
X42709853Y-81646384D01*
X42766467Y-81663557D01*
X42903867Y-81737000D01*
X42922991Y-81747222D01*
X42936482Y-81758294D01*
X43060186Y-81859814D01*
X43133378Y-81949000D01*
X43172778Y-81997009D01*
X43172779Y-81997011D01*
X43256443Y-82153533D01*
X43256443Y-82153534D01*
X43307963Y-82323373D01*
X43325359Y-82500000D01*
X43307963Y-82676627D01*
X43282617Y-82760181D01*
X43256443Y-82846467D01*
X43241726Y-82874000D01*
X43172778Y-83002991D01*
X43147740Y-83033500D01*
X43060186Y-83140186D01*
X42971313Y-83213121D01*
X42922991Y-83252778D01*
X42922989Y-83252779D01*
X42766467Y-83336443D01*
X42718478Y-83351000D01*
X42596627Y-83387963D01*
X42535128Y-83394020D01*
X42464260Y-83401000D01*
X42375740Y-83401000D01*
X42304872Y-83394020D01*
X42243373Y-83387963D01*
X42121522Y-83351000D01*
X42073533Y-83336443D01*
X41917011Y-83252779D01*
X41917009Y-83252778D01*
X41868687Y-83213121D01*
X41779814Y-83140186D01*
X41692260Y-83033500D01*
X41667222Y-83002991D01*
X41598274Y-82874000D01*
X41583557Y-82846467D01*
X41557383Y-82760181D01*
X41532037Y-82676627D01*
X41514641Y-82500000D01*
X41532037Y-82323373D01*
X41583557Y-82153534D01*
X41583557Y-82153533D01*
X41667221Y-81997011D01*
X41667222Y-81997009D01*
X41706622Y-81949000D01*
X41779814Y-81859814D01*
X41903518Y-81758294D01*
X41917009Y-81747222D01*
X41936133Y-81737000D01*
X42073533Y-81663557D01*
X42130147Y-81646384D01*
X42243373Y-81612037D01*
X42309558Y-81605518D01*
X42375740Y-81599000D01*
X42464260Y-81599000D01*
X42530442Y-81605518D01*
X42530442Y-81605518D01*
G37*
G36*
X48401000Y-83401000D02*
X46599000Y-83401000D01*
X46599000Y-81599000D01*
X48401000Y-81599000D01*
X48401000Y-83401000D01*
X48401000Y-83401000D01*
G37*
G36*
X39990442Y-81605518D02*
X40056627Y-81612037D01*
X40169853Y-81646384D01*
X40226467Y-81663557D01*
X40363867Y-81737000D01*
X40382991Y-81747222D01*
X40396482Y-81758294D01*
X40520186Y-81859814D01*
X40593378Y-81949000D01*
X40632778Y-81997009D01*
X40632779Y-81997011D01*
X40716443Y-82153533D01*
X40716443Y-82153534D01*
X40767963Y-82323373D01*
X40785359Y-82500000D01*
X40767963Y-82676627D01*
X40742617Y-82760181D01*
X40716443Y-82846467D01*
X40701726Y-82874000D01*
X40632778Y-83002991D01*
X40607740Y-83033500D01*
X40520186Y-83140186D01*
X40431313Y-83213121D01*
X40382991Y-83252778D01*
X40382989Y-83252779D01*
X40226467Y-83336443D01*
X40178478Y-83351000D01*
X40056627Y-83387963D01*
X39995128Y-83394020D01*
X39924260Y-83401000D01*
X39835740Y-83401000D01*
X39764872Y-83394020D01*
X39703373Y-83387963D01*
X39581522Y-83351000D01*
X39533533Y-83336443D01*
X39377011Y-83252779D01*
X39377009Y-83252778D01*
X39328687Y-83213121D01*
X39239814Y-83140186D01*
X39152260Y-83033500D01*
X39127222Y-83002991D01*
X39058274Y-82874000D01*
X39043557Y-82846467D01*
X39017383Y-82760181D01*
X38992037Y-82676627D01*
X38974641Y-82500000D01*
X38992037Y-82323373D01*
X39043557Y-82153534D01*
X39043557Y-82153533D01*
X39127221Y-81997011D01*
X39127222Y-81997009D01*
X39166622Y-81949000D01*
X39239814Y-81859814D01*
X39363518Y-81758294D01*
X39377009Y-81747222D01*
X39396133Y-81737000D01*
X39533533Y-81663557D01*
X39590147Y-81646384D01*
X39703373Y-81612037D01*
X39769558Y-81605518D01*
X39835740Y-81599000D01*
X39924260Y-81599000D01*
X39990442Y-81605518D01*
X39990442Y-81605518D01*
G37*
G36*
X134151000Y-83351000D02*
X133049000Y-83351000D01*
X133049000Y-82249000D01*
X134151000Y-82249000D01*
X134151000Y-83351000D01*
X134151000Y-83351000D01*
G37*
G36*
X143151000Y-83351000D02*
X142049000Y-83351000D01*
X142049000Y-82249000D01*
X143151000Y-82249000D01*
X143151000Y-83351000D01*
X143151000Y-83351000D01*
G37*
G36*
X144951000Y-83351000D02*
X143849000Y-83351000D01*
X143849000Y-82249000D01*
X144951000Y-82249000D01*
X144951000Y-83351000D01*
X144951000Y-83351000D01*
G37*
G36*
X135951000Y-83351000D02*
X134849000Y-83351000D01*
X134849000Y-82249000D01*
X135951000Y-82249000D01*
X135951000Y-83351000D01*
X135951000Y-83351000D01*
G37*
G36*
X73801000Y-83051000D02*
X72699000Y-83051000D01*
X72699000Y-81949000D01*
X73801000Y-81949000D01*
X73801000Y-83051000D01*
X73801000Y-83051000D01*
G37*
G36*
X87289499Y-81728445D02*
X87326993Y-81739819D01*
X87361557Y-81758294D01*
X87391847Y-81783153D01*
X87416706Y-81813443D01*
X87435181Y-81848007D01*
X87446555Y-81885501D01*
X87451000Y-81930638D01*
X87451000Y-82569362D01*
X87446555Y-82614499D01*
X87435181Y-82651993D01*
X87416706Y-82686557D01*
X87391847Y-82716847D01*
X87361557Y-82741706D01*
X87326993Y-82760181D01*
X87289499Y-82771555D01*
X87244362Y-82776000D01*
X86505638Y-82776000D01*
X86460501Y-82771555D01*
X86423007Y-82760181D01*
X86388443Y-82741706D01*
X86358153Y-82716847D01*
X86333294Y-82686557D01*
X86314819Y-82651993D01*
X86303445Y-82614499D01*
X86299000Y-82569362D01*
X86299000Y-81930638D01*
X86303445Y-81885501D01*
X86314819Y-81848007D01*
X86333294Y-81813443D01*
X86358153Y-81783153D01*
X86388443Y-81758294D01*
X86423007Y-81739819D01*
X86460501Y-81728445D01*
X86505638Y-81724000D01*
X87244362Y-81724000D01*
X87289499Y-81728445D01*
X87289499Y-81728445D01*
G37*
G36*
X89039499Y-81728445D02*
X89076993Y-81739819D01*
X89111557Y-81758294D01*
X89141847Y-81783153D01*
X89166706Y-81813443D01*
X89185181Y-81848007D01*
X89196555Y-81885501D01*
X89201000Y-81930638D01*
X89201000Y-82569362D01*
X89196555Y-82614499D01*
X89185181Y-82651993D01*
X89166706Y-82686557D01*
X89141847Y-82716847D01*
X89111557Y-82741706D01*
X89076993Y-82760181D01*
X89039499Y-82771555D01*
X88994362Y-82776000D01*
X88255638Y-82776000D01*
X88210501Y-82771555D01*
X88173007Y-82760181D01*
X88138443Y-82741706D01*
X88108153Y-82716847D01*
X88083294Y-82686557D01*
X88064819Y-82651993D01*
X88053445Y-82614499D01*
X88049000Y-82569362D01*
X88049000Y-81930638D01*
X88053445Y-81885501D01*
X88064819Y-81848007D01*
X88083294Y-81813443D01*
X88108153Y-81783153D01*
X88138443Y-81758294D01*
X88173007Y-81739819D01*
X88210501Y-81728445D01*
X88255638Y-81724000D01*
X88994362Y-81724000D01*
X89039499Y-81728445D01*
X89039499Y-81728445D01*
G37*
G36*
X115551000Y-82751000D02*
X114449000Y-82751000D01*
X114449000Y-81649000D01*
X115551000Y-81649000D01*
X115551000Y-82751000D01*
X115551000Y-82751000D01*
G37*
G36*
X160226000Y-82551000D02*
X158774000Y-82551000D01*
X158774000Y-79449000D01*
X160226000Y-79449000D01*
X160226000Y-82551000D01*
X160226000Y-82551000D01*
G37*
G36*
X77301000Y-82551000D02*
X76199000Y-82551000D01*
X76199000Y-81449000D01*
X77301000Y-81449000D01*
X77301000Y-82551000D01*
X77301000Y-82551000D01*
G37*
G36*
X155289499Y-81478445D02*
X155326993Y-81489819D01*
X155361557Y-81508294D01*
X155391847Y-81533153D01*
X155416706Y-81563443D01*
X155435181Y-81598007D01*
X155446555Y-81635501D01*
X155451000Y-81680638D01*
X155451000Y-82319362D01*
X155446555Y-82364499D01*
X155435181Y-82401993D01*
X155416706Y-82436557D01*
X155391847Y-82466847D01*
X155361557Y-82491706D01*
X155326993Y-82510181D01*
X155289499Y-82521555D01*
X155244362Y-82526000D01*
X154505638Y-82526000D01*
X154460501Y-82521555D01*
X154423007Y-82510181D01*
X154388443Y-82491706D01*
X154358153Y-82466847D01*
X154333294Y-82436557D01*
X154314819Y-82401993D01*
X154303445Y-82364499D01*
X154299000Y-82319362D01*
X154299000Y-81680638D01*
X154303445Y-81635501D01*
X154314819Y-81598007D01*
X154333294Y-81563443D01*
X154358153Y-81533153D01*
X154388443Y-81508294D01*
X154423007Y-81489819D01*
X154460501Y-81478445D01*
X154505638Y-81474000D01*
X155244362Y-81474000D01*
X155289499Y-81478445D01*
X155289499Y-81478445D01*
G37*
G36*
X153539499Y-81478445D02*
X153576993Y-81489819D01*
X153611557Y-81508294D01*
X153641847Y-81533153D01*
X153666706Y-81563443D01*
X153685181Y-81598007D01*
X153696555Y-81635501D01*
X153701000Y-81680638D01*
X153701000Y-82319362D01*
X153696555Y-82364499D01*
X153685181Y-82401993D01*
X153666706Y-82436557D01*
X153641847Y-82466847D01*
X153611557Y-82491706D01*
X153576993Y-82510181D01*
X153539499Y-82521555D01*
X153494362Y-82526000D01*
X152755638Y-82526000D01*
X152710501Y-82521555D01*
X152673007Y-82510181D01*
X152638443Y-82491706D01*
X152608153Y-82466847D01*
X152583294Y-82436557D01*
X152564819Y-82401993D01*
X152553445Y-82364499D01*
X152549000Y-82319362D01*
X152549000Y-81680638D01*
X152553445Y-81635501D01*
X152564819Y-81598007D01*
X152583294Y-81563443D01*
X152608153Y-81533153D01*
X152638443Y-81508294D01*
X152673007Y-81489819D01*
X152710501Y-81478445D01*
X152755638Y-81474000D01*
X153494362Y-81474000D01*
X153539499Y-81478445D01*
X153539499Y-81478445D01*
G37*
G36*
X75551000Y-82051000D02*
X74449000Y-82051000D01*
X74449000Y-80949000D01*
X75551000Y-80949000D01*
X75551000Y-82051000D01*
X75551000Y-82051000D01*
G37*
G36*
X73801000Y-81551000D02*
X72699000Y-81551000D01*
X72699000Y-80449000D01*
X73801000Y-80449000D01*
X73801000Y-81551000D01*
X73801000Y-81551000D01*
G37*
G36*
X144951000Y-81551000D02*
X143849000Y-81551000D01*
X143849000Y-80449000D01*
X144951000Y-80449000D01*
X144951000Y-81551000D01*
X144951000Y-81551000D01*
G37*
G36*
X143151000Y-81551000D02*
X142049000Y-81551000D01*
X142049000Y-80449000D01*
X143151000Y-80449000D01*
X143151000Y-81551000D01*
X143151000Y-81551000D01*
G37*
G36*
X93051000Y-81301000D02*
X91949000Y-81301000D01*
X91949000Y-80199000D01*
X93051000Y-80199000D01*
X93051000Y-81301000D01*
X93051000Y-81301000D01*
G37*
G36*
X77301000Y-81051000D02*
X76199000Y-81051000D01*
X76199000Y-79949000D01*
X77301000Y-79949000D01*
X77301000Y-81051000D01*
X77301000Y-81051000D01*
G37*
G36*
X42530443Y-79065519D02*
X42596627Y-79072037D01*
X42709853Y-79106384D01*
X42766467Y-79123557D01*
X42905087Y-79197652D01*
X42922991Y-79207222D01*
X42958729Y-79236552D01*
X43060186Y-79319814D01*
X43143448Y-79421271D01*
X43172778Y-79457009D01*
X43172779Y-79457011D01*
X43256443Y-79613533D01*
X43267818Y-79651031D01*
X43307963Y-79783373D01*
X43325359Y-79960000D01*
X43307963Y-80136627D01*
X43289042Y-80199000D01*
X43256443Y-80306467D01*
X43232639Y-80351000D01*
X43172778Y-80462991D01*
X43172240Y-80463646D01*
X43060186Y-80600186D01*
X42958729Y-80683448D01*
X42922991Y-80712778D01*
X42922989Y-80712779D01*
X42766467Y-80796443D01*
X42751444Y-80801000D01*
X42596627Y-80847963D01*
X42530442Y-80854482D01*
X42464260Y-80861000D01*
X42375740Y-80861000D01*
X42309558Y-80854482D01*
X42243373Y-80847963D01*
X42088556Y-80801000D01*
X42073533Y-80796443D01*
X41917011Y-80712779D01*
X41917009Y-80712778D01*
X41881271Y-80683448D01*
X41779814Y-80600186D01*
X41667760Y-80463646D01*
X41667222Y-80462991D01*
X41607361Y-80351000D01*
X41583557Y-80306467D01*
X41550958Y-80199000D01*
X41532037Y-80136627D01*
X41514641Y-79960000D01*
X41532037Y-79783373D01*
X41572182Y-79651031D01*
X41583557Y-79613533D01*
X41667221Y-79457011D01*
X41667222Y-79457009D01*
X41696552Y-79421271D01*
X41779814Y-79319814D01*
X41881271Y-79236552D01*
X41917009Y-79207222D01*
X41934913Y-79197652D01*
X42073533Y-79123557D01*
X42130147Y-79106384D01*
X42243373Y-79072037D01*
X42309557Y-79065519D01*
X42375740Y-79059000D01*
X42464260Y-79059000D01*
X42530443Y-79065519D01*
X42530443Y-79065519D01*
G37*
G36*
X45070443Y-79065519D02*
X45136627Y-79072037D01*
X45249853Y-79106384D01*
X45306467Y-79123557D01*
X45445087Y-79197652D01*
X45462991Y-79207222D01*
X45498729Y-79236552D01*
X45600186Y-79319814D01*
X45683448Y-79421271D01*
X45712778Y-79457009D01*
X45712779Y-79457011D01*
X45796443Y-79613533D01*
X45807818Y-79651031D01*
X45847963Y-79783373D01*
X45865359Y-79960000D01*
X45847963Y-80136627D01*
X45829042Y-80199000D01*
X45796443Y-80306467D01*
X45772639Y-80351000D01*
X45712778Y-80462991D01*
X45712240Y-80463646D01*
X45600186Y-80600186D01*
X45498729Y-80683448D01*
X45462991Y-80712778D01*
X45462989Y-80712779D01*
X45306467Y-80796443D01*
X45291444Y-80801000D01*
X45136627Y-80847963D01*
X45070442Y-80854482D01*
X45004260Y-80861000D01*
X44915740Y-80861000D01*
X44849558Y-80854482D01*
X44783373Y-80847963D01*
X44628556Y-80801000D01*
X44613533Y-80796443D01*
X44457011Y-80712779D01*
X44457009Y-80712778D01*
X44421271Y-80683448D01*
X44319814Y-80600186D01*
X44207760Y-80463646D01*
X44207222Y-80462991D01*
X44147361Y-80351000D01*
X44123557Y-80306467D01*
X44090958Y-80199000D01*
X44072037Y-80136627D01*
X44054641Y-79960000D01*
X44072037Y-79783373D01*
X44112182Y-79651031D01*
X44123557Y-79613533D01*
X44207221Y-79457011D01*
X44207222Y-79457009D01*
X44236552Y-79421271D01*
X44319814Y-79319814D01*
X44421271Y-79236552D01*
X44457009Y-79207222D01*
X44474913Y-79197652D01*
X44613533Y-79123557D01*
X44670147Y-79106384D01*
X44783373Y-79072037D01*
X44849557Y-79065519D01*
X44915740Y-79059000D01*
X45004260Y-79059000D01*
X45070443Y-79065519D01*
X45070443Y-79065519D01*
G37*
G36*
X37450443Y-79065519D02*
X37516627Y-79072037D01*
X37629853Y-79106384D01*
X37686467Y-79123557D01*
X37825087Y-79197652D01*
X37842991Y-79207222D01*
X37878729Y-79236552D01*
X37980186Y-79319814D01*
X38063448Y-79421271D01*
X38092778Y-79457009D01*
X38092779Y-79457011D01*
X38176443Y-79613533D01*
X38187818Y-79651031D01*
X38227963Y-79783373D01*
X38245359Y-79960000D01*
X38227963Y-80136627D01*
X38209042Y-80199000D01*
X38176443Y-80306467D01*
X38152639Y-80351000D01*
X38092778Y-80462991D01*
X38092240Y-80463646D01*
X37980186Y-80600186D01*
X37878729Y-80683448D01*
X37842991Y-80712778D01*
X37842989Y-80712779D01*
X37686467Y-80796443D01*
X37671444Y-80801000D01*
X37516627Y-80847963D01*
X37450442Y-80854482D01*
X37384260Y-80861000D01*
X37295740Y-80861000D01*
X37229558Y-80854482D01*
X37163373Y-80847963D01*
X37008556Y-80801000D01*
X36993533Y-80796443D01*
X36837011Y-80712779D01*
X36837009Y-80712778D01*
X36801271Y-80683448D01*
X36699814Y-80600186D01*
X36587760Y-80463646D01*
X36587222Y-80462991D01*
X36527361Y-80351000D01*
X36503557Y-80306467D01*
X36470958Y-80199000D01*
X36452037Y-80136627D01*
X36434641Y-79960000D01*
X36452037Y-79783373D01*
X36492182Y-79651031D01*
X36503557Y-79613533D01*
X36587221Y-79457011D01*
X36587222Y-79457009D01*
X36616552Y-79421271D01*
X36699814Y-79319814D01*
X36801271Y-79236552D01*
X36837009Y-79207222D01*
X36854913Y-79197652D01*
X36993533Y-79123557D01*
X37050147Y-79106384D01*
X37163373Y-79072037D01*
X37229557Y-79065519D01*
X37295740Y-79059000D01*
X37384260Y-79059000D01*
X37450443Y-79065519D01*
X37450443Y-79065519D01*
G37*
G36*
X47610443Y-79065519D02*
X47676627Y-79072037D01*
X47789853Y-79106384D01*
X47846467Y-79123557D01*
X47985087Y-79197652D01*
X48002991Y-79207222D01*
X48038729Y-79236552D01*
X48140186Y-79319814D01*
X48223448Y-79421271D01*
X48252778Y-79457009D01*
X48252779Y-79457011D01*
X48336443Y-79613533D01*
X48347818Y-79651031D01*
X48387963Y-79783373D01*
X48405359Y-79960000D01*
X48387963Y-80136627D01*
X48369042Y-80199000D01*
X48336443Y-80306467D01*
X48312639Y-80351000D01*
X48252778Y-80462991D01*
X48252240Y-80463646D01*
X48140186Y-80600186D01*
X48038729Y-80683448D01*
X48002991Y-80712778D01*
X48002989Y-80712779D01*
X47846467Y-80796443D01*
X47831444Y-80801000D01*
X47676627Y-80847963D01*
X47610442Y-80854482D01*
X47544260Y-80861000D01*
X47455740Y-80861000D01*
X47389558Y-80854482D01*
X47323373Y-80847963D01*
X47168556Y-80801000D01*
X47153533Y-80796443D01*
X46997011Y-80712779D01*
X46997009Y-80712778D01*
X46961271Y-80683448D01*
X46859814Y-80600186D01*
X46747760Y-80463646D01*
X46747222Y-80462991D01*
X46687361Y-80351000D01*
X46663557Y-80306467D01*
X46630958Y-80199000D01*
X46612037Y-80136627D01*
X46594641Y-79960000D01*
X46612037Y-79783373D01*
X46652182Y-79651031D01*
X46663557Y-79613533D01*
X46747221Y-79457011D01*
X46747222Y-79457009D01*
X46776552Y-79421271D01*
X46859814Y-79319814D01*
X46961271Y-79236552D01*
X46997009Y-79207222D01*
X47014913Y-79197652D01*
X47153533Y-79123557D01*
X47210147Y-79106384D01*
X47323373Y-79072037D01*
X47389557Y-79065519D01*
X47455740Y-79059000D01*
X47544260Y-79059000D01*
X47610443Y-79065519D01*
X47610443Y-79065519D01*
G37*
G36*
X39990443Y-79065519D02*
X40056627Y-79072037D01*
X40169853Y-79106384D01*
X40226467Y-79123557D01*
X40365087Y-79197652D01*
X40382991Y-79207222D01*
X40418729Y-79236552D01*
X40520186Y-79319814D01*
X40603448Y-79421271D01*
X40632778Y-79457009D01*
X40632779Y-79457011D01*
X40716443Y-79613533D01*
X40727818Y-79651031D01*
X40767963Y-79783373D01*
X40785359Y-79960000D01*
X40767963Y-80136627D01*
X40749042Y-80199000D01*
X40716443Y-80306467D01*
X40692639Y-80351000D01*
X40632778Y-80462991D01*
X40632240Y-80463646D01*
X40520186Y-80600186D01*
X40418729Y-80683448D01*
X40382991Y-80712778D01*
X40382989Y-80712779D01*
X40226467Y-80796443D01*
X40211444Y-80801000D01*
X40056627Y-80847963D01*
X39990442Y-80854482D01*
X39924260Y-80861000D01*
X39835740Y-80861000D01*
X39769558Y-80854482D01*
X39703373Y-80847963D01*
X39548556Y-80801000D01*
X39533533Y-80796443D01*
X39377011Y-80712779D01*
X39377009Y-80712778D01*
X39341271Y-80683448D01*
X39239814Y-80600186D01*
X39127760Y-80463646D01*
X39127222Y-80462991D01*
X39067361Y-80351000D01*
X39043557Y-80306467D01*
X39010958Y-80199000D01*
X38992037Y-80136627D01*
X38974641Y-79960000D01*
X38992037Y-79783373D01*
X39032182Y-79651031D01*
X39043557Y-79613533D01*
X39127221Y-79457011D01*
X39127222Y-79457009D01*
X39156552Y-79421271D01*
X39239814Y-79319814D01*
X39341271Y-79236552D01*
X39377009Y-79207222D01*
X39394913Y-79197652D01*
X39533533Y-79123557D01*
X39590147Y-79106384D01*
X39703373Y-79072037D01*
X39769557Y-79065519D01*
X39835740Y-79059000D01*
X39924260Y-79059000D01*
X39990443Y-79065519D01*
X39990443Y-79065519D01*
G37*
G36*
X91301000Y-80801000D02*
X90199000Y-80801000D01*
X90199000Y-79699000D01*
X91301000Y-79699000D01*
X91301000Y-80801000D01*
X91301000Y-80801000D01*
G37*
G36*
X87289499Y-79728445D02*
X87326993Y-79739819D01*
X87361557Y-79758294D01*
X87391847Y-79783153D01*
X87416706Y-79813443D01*
X87435181Y-79848007D01*
X87446555Y-79885501D01*
X87451000Y-79930638D01*
X87451000Y-80569362D01*
X87446555Y-80614499D01*
X87435181Y-80651993D01*
X87416706Y-80686557D01*
X87391847Y-80716847D01*
X87361557Y-80741706D01*
X87326993Y-80760181D01*
X87289499Y-80771555D01*
X87244362Y-80776000D01*
X86505638Y-80776000D01*
X86460501Y-80771555D01*
X86423007Y-80760181D01*
X86388443Y-80741706D01*
X86358153Y-80716847D01*
X86333294Y-80686557D01*
X86314819Y-80651993D01*
X86303445Y-80614499D01*
X86299000Y-80569362D01*
X86299000Y-79930638D01*
X86303445Y-79885501D01*
X86314819Y-79848007D01*
X86333294Y-79813443D01*
X86358153Y-79783153D01*
X86388443Y-79758294D01*
X86423007Y-79739819D01*
X86460501Y-79728445D01*
X86505638Y-79724000D01*
X87244362Y-79724000D01*
X87289499Y-79728445D01*
X87289499Y-79728445D01*
G37*
G36*
X89039499Y-79728445D02*
X89076993Y-79739819D01*
X89111557Y-79758294D01*
X89141847Y-79783153D01*
X89166706Y-79813443D01*
X89185181Y-79848007D01*
X89196555Y-79885501D01*
X89201000Y-79930638D01*
X89201000Y-80569362D01*
X89196555Y-80614499D01*
X89185181Y-80651993D01*
X89166706Y-80686557D01*
X89141847Y-80716847D01*
X89111557Y-80741706D01*
X89076993Y-80760181D01*
X89039499Y-80771555D01*
X88994362Y-80776000D01*
X88255638Y-80776000D01*
X88210501Y-80771555D01*
X88173007Y-80760181D01*
X88138443Y-80741706D01*
X88108153Y-80716847D01*
X88083294Y-80686557D01*
X88064819Y-80651993D01*
X88053445Y-80614499D01*
X88049000Y-80569362D01*
X88049000Y-79930638D01*
X88053445Y-79885501D01*
X88064819Y-79848007D01*
X88083294Y-79813443D01*
X88108153Y-79783153D01*
X88138443Y-79758294D01*
X88173007Y-79739819D01*
X88210501Y-79728445D01*
X88255638Y-79724000D01*
X88994362Y-79724000D01*
X89039499Y-79728445D01*
X89039499Y-79728445D01*
G37*
G36*
X153539499Y-79578445D02*
X153576993Y-79589819D01*
X153611557Y-79608294D01*
X153641847Y-79633153D01*
X153666706Y-79663443D01*
X153685181Y-79698007D01*
X153696555Y-79735501D01*
X153701000Y-79780638D01*
X153701000Y-80419362D01*
X153696555Y-80464499D01*
X153685181Y-80501993D01*
X153666706Y-80536557D01*
X153641847Y-80566847D01*
X153611557Y-80591706D01*
X153576993Y-80610181D01*
X153539499Y-80621555D01*
X153494362Y-80626000D01*
X152755638Y-80626000D01*
X152710501Y-80621555D01*
X152673007Y-80610181D01*
X152638443Y-80591706D01*
X152608153Y-80566847D01*
X152583294Y-80536557D01*
X152564819Y-80501993D01*
X152553445Y-80464499D01*
X152549000Y-80419362D01*
X152549000Y-79780638D01*
X152553445Y-79735501D01*
X152564819Y-79698007D01*
X152583294Y-79663443D01*
X152608153Y-79633153D01*
X152638443Y-79608294D01*
X152673007Y-79589819D01*
X152710501Y-79578445D01*
X152755638Y-79574000D01*
X153494362Y-79574000D01*
X153539499Y-79578445D01*
X153539499Y-79578445D01*
G37*
G36*
X155289499Y-79578445D02*
X155326993Y-79589819D01*
X155361557Y-79608294D01*
X155391847Y-79633153D01*
X155416706Y-79663443D01*
X155435181Y-79698007D01*
X155446555Y-79735501D01*
X155451000Y-79780638D01*
X155451000Y-80419362D01*
X155446555Y-80464499D01*
X155435181Y-80501993D01*
X155416706Y-80536557D01*
X155391847Y-80566847D01*
X155361557Y-80591706D01*
X155326993Y-80610181D01*
X155289499Y-80621555D01*
X155244362Y-80626000D01*
X154505638Y-80626000D01*
X154460501Y-80621555D01*
X154423007Y-80610181D01*
X154388443Y-80591706D01*
X154358153Y-80566847D01*
X154333294Y-80536557D01*
X154314819Y-80501993D01*
X154303445Y-80464499D01*
X154299000Y-80419362D01*
X154299000Y-79780638D01*
X154303445Y-79735501D01*
X154314819Y-79698007D01*
X154333294Y-79663443D01*
X154358153Y-79633153D01*
X154388443Y-79608294D01*
X154423007Y-79589819D01*
X154460501Y-79578445D01*
X154505638Y-79574000D01*
X155244362Y-79574000D01*
X155289499Y-79578445D01*
X155289499Y-79578445D01*
G37*
G36*
X75551000Y-80551000D02*
X74449000Y-80551000D01*
X74449000Y-79449000D01*
X75551000Y-79449000D01*
X75551000Y-80551000D01*
X75551000Y-80551000D01*
G37*
G36*
X135951000Y-80351000D02*
X134849000Y-80351000D01*
X134849000Y-79249000D01*
X135951000Y-79249000D01*
X135951000Y-80351000D01*
X135951000Y-80351000D01*
G37*
G36*
X73801000Y-80051000D02*
X72699000Y-80051000D01*
X72699000Y-78949000D01*
X73801000Y-78949000D01*
X73801000Y-80051000D01*
X73801000Y-80051000D01*
G37*
G36*
X93051000Y-79551000D02*
X91949000Y-79551000D01*
X91949000Y-78449000D01*
X93051000Y-78449000D01*
X93051000Y-79551000D01*
X93051000Y-79551000D01*
G37*
G36*
X77301000Y-79551000D02*
X76199000Y-79551000D01*
X76199000Y-78449000D01*
X77301000Y-78449000D01*
X77301000Y-79551000D01*
X77301000Y-79551000D01*
G37*
G36*
X108551000Y-79546000D02*
X107449000Y-79546000D01*
X107449000Y-76694000D01*
X108551000Y-76694000D01*
X108551000Y-79546000D01*
X108551000Y-79546000D01*
G37*
G36*
X104551000Y-79546000D02*
X103449000Y-79546000D01*
X103449000Y-76694000D01*
X104551000Y-76694000D01*
X104551000Y-79546000D01*
X104551000Y-79546000D01*
G37*
G36*
X134451000Y-79451000D02*
X133349000Y-79451000D01*
X133349000Y-78349000D01*
X134451000Y-78349000D01*
X134451000Y-79451000D01*
X134451000Y-79451000D01*
G37*
G36*
X159858015Y-78031973D02*
X159961879Y-78063479D01*
X160057600Y-78114644D01*
X160141501Y-78183499D01*
X160210356Y-78267400D01*
X160261521Y-78363121D01*
X160293027Y-78466985D01*
X160303666Y-78575000D01*
X160293027Y-78683015D01*
X160261521Y-78786879D01*
X160210356Y-78882600D01*
X160141501Y-78966501D01*
X160057600Y-79035356D01*
X159961879Y-79086521D01*
X159858015Y-79118027D01*
X159777067Y-79126000D01*
X159222933Y-79126000D01*
X159141985Y-79118027D01*
X159038121Y-79086521D01*
X158942400Y-79035356D01*
X158858499Y-78966501D01*
X158789644Y-78882600D01*
X158738479Y-78786879D01*
X158706973Y-78683015D01*
X158696334Y-78575000D01*
X158706973Y-78466985D01*
X158738479Y-78363121D01*
X158789644Y-78267400D01*
X158858499Y-78183499D01*
X158942400Y-78114644D01*
X159038121Y-78063479D01*
X159141985Y-78031973D01*
X159222933Y-78024000D01*
X159777067Y-78024000D01*
X159858015Y-78031973D01*
X159858015Y-78031973D01*
G37*
G36*
X91301000Y-79051000D02*
X90199000Y-79051000D01*
X90199000Y-77949000D01*
X91301000Y-77949000D01*
X91301000Y-79051000D01*
X91301000Y-79051000D01*
G37*
G36*
X75551000Y-79051000D02*
X74449000Y-79051000D01*
X74449000Y-77949000D01*
X75551000Y-77949000D01*
X75551000Y-79051000D01*
X75551000Y-79051000D01*
G37*
G36*
X135951000Y-78851000D02*
X134849000Y-78851000D01*
X134849000Y-77749000D01*
X135951000Y-77749000D01*
X135951000Y-78851000D01*
X135951000Y-78851000D01*
G37*
G36*
X73801000Y-78551000D02*
X72699000Y-78551000D01*
X72699000Y-77449000D01*
X73801000Y-77449000D01*
X73801000Y-78551000D01*
X73801000Y-78551000D01*
G37*
G36*
X89364499Y-77303445D02*
X89401993Y-77314819D01*
X89436557Y-77333294D01*
X89466847Y-77358153D01*
X89491706Y-77388443D01*
X89510181Y-77423007D01*
X89521555Y-77460501D01*
X89526000Y-77505638D01*
X89526000Y-78244362D01*
X89521555Y-78289499D01*
X89510181Y-78326993D01*
X89491706Y-78361557D01*
X89466847Y-78391847D01*
X89436557Y-78416706D01*
X89401993Y-78435181D01*
X89364499Y-78446555D01*
X89319362Y-78451000D01*
X88680638Y-78451000D01*
X88635501Y-78446555D01*
X88598007Y-78435181D01*
X88563443Y-78416706D01*
X88533153Y-78391847D01*
X88508294Y-78361557D01*
X88489819Y-78326993D01*
X88478445Y-78289499D01*
X88474000Y-78244362D01*
X88474000Y-77505638D01*
X88478445Y-77460501D01*
X88489819Y-77423007D01*
X88508294Y-77388443D01*
X88533153Y-77358153D01*
X88563443Y-77333294D01*
X88598007Y-77314819D01*
X88635501Y-77303445D01*
X88680638Y-77299000D01*
X89319362Y-77299000D01*
X89364499Y-77303445D01*
X89364499Y-77303445D01*
G37*
G36*
X87364499Y-77303445D02*
X87401993Y-77314819D01*
X87436557Y-77333294D01*
X87466847Y-77358153D01*
X87491706Y-77388443D01*
X87510181Y-77423007D01*
X87521555Y-77460501D01*
X87526000Y-77505638D01*
X87526000Y-78244362D01*
X87521555Y-78289499D01*
X87510181Y-78326993D01*
X87491706Y-78361557D01*
X87466847Y-78391847D01*
X87436557Y-78416706D01*
X87401993Y-78435181D01*
X87364499Y-78446555D01*
X87319362Y-78451000D01*
X86680638Y-78451000D01*
X86635501Y-78446555D01*
X86598007Y-78435181D01*
X86563443Y-78416706D01*
X86533153Y-78391847D01*
X86508294Y-78361557D01*
X86489819Y-78326993D01*
X86478445Y-78289499D01*
X86474000Y-78244362D01*
X86474000Y-77505638D01*
X86478445Y-77460501D01*
X86489819Y-77423007D01*
X86508294Y-77388443D01*
X86533153Y-77358153D01*
X86563443Y-77333294D01*
X86598007Y-77314819D01*
X86635501Y-77303445D01*
X86680638Y-77299000D01*
X87319362Y-77299000D01*
X87364499Y-77303445D01*
X87364499Y-77303445D01*
G37*
G36*
X162557025Y-76585590D02*
X162708012Y-76631392D01*
X162847165Y-76705770D01*
X162969133Y-76805867D01*
X163069230Y-76927835D01*
X163143608Y-77066988D01*
X163189410Y-77217975D01*
X163204875Y-77375000D01*
X163189410Y-77532025D01*
X163143608Y-77683012D01*
X163069230Y-77822165D01*
X162969133Y-77944133D01*
X162847165Y-78044230D01*
X162708012Y-78118608D01*
X162557025Y-78164410D01*
X162439346Y-78176000D01*
X161860654Y-78176000D01*
X161742975Y-78164410D01*
X161591988Y-78118608D01*
X161452835Y-78044230D01*
X161330867Y-77944133D01*
X161230770Y-77822165D01*
X161156392Y-77683012D01*
X161110590Y-77532025D01*
X161095125Y-77375000D01*
X161110590Y-77217975D01*
X161156392Y-77066988D01*
X161230770Y-76927835D01*
X161330867Y-76805867D01*
X161452835Y-76705770D01*
X161591988Y-76631392D01*
X161742975Y-76585590D01*
X161860654Y-76574000D01*
X162439346Y-76574000D01*
X162557025Y-76585590D01*
X162557025Y-76585590D01*
G37*
G36*
X77301000Y-78051000D02*
X76199000Y-78051000D01*
X76199000Y-76949000D01*
X77301000Y-76949000D01*
X77301000Y-78051000D01*
X77301000Y-78051000D01*
G37*
G36*
X137851000Y-77951000D02*
X136749000Y-77951000D01*
X136749000Y-76849000D01*
X137851000Y-76849000D01*
X137851000Y-77951000D01*
X137851000Y-77951000D01*
G37*
G36*
X139351000Y-77951000D02*
X138249000Y-77951000D01*
X138249000Y-76849000D01*
X139351000Y-76849000D01*
X139351000Y-77951000D01*
X139351000Y-77951000D01*
G37*
G36*
X142351000Y-77951000D02*
X141249000Y-77951000D01*
X141249000Y-76849000D01*
X142351000Y-76849000D01*
X142351000Y-77951000D01*
X142351000Y-77951000D01*
G37*
G36*
X140851000Y-77951000D02*
X139749000Y-77951000D01*
X139749000Y-76849000D01*
X140851000Y-76849000D01*
X140851000Y-77951000D01*
X140851000Y-77951000D01*
G37*
G36*
X45152143Y-74756481D02*
X45304049Y-74771442D01*
X45498959Y-74830567D01*
X45596415Y-74860130D01*
X45694690Y-74912660D01*
X45865858Y-75004151D01*
X46102029Y-75197971D01*
X46295849Y-75434142D01*
X46380933Y-75593323D01*
X46439870Y-75703585D01*
X46455660Y-75755638D01*
X46528558Y-75995951D01*
X46558504Y-76300000D01*
X46528558Y-76604049D01*
X46499148Y-76701000D01*
X46439870Y-76896415D01*
X46423075Y-76927835D01*
X46295849Y-77165858D01*
X46102029Y-77402029D01*
X45865858Y-77595849D01*
X45702788Y-77683012D01*
X45596415Y-77739870D01*
X45498959Y-77769433D01*
X45304049Y-77828558D01*
X45152143Y-77843519D01*
X45076191Y-77851000D01*
X43923809Y-77851000D01*
X43847857Y-77843519D01*
X43695951Y-77828558D01*
X43501041Y-77769433D01*
X43403585Y-77739870D01*
X43297212Y-77683012D01*
X43134142Y-77595849D01*
X42897971Y-77402029D01*
X42704151Y-77165858D01*
X42576925Y-76927835D01*
X42560130Y-76896415D01*
X42500852Y-76701000D01*
X42471442Y-76604049D01*
X42441496Y-76300000D01*
X42471442Y-75995951D01*
X42544340Y-75755638D01*
X42560130Y-75703585D01*
X42619067Y-75593323D01*
X42704151Y-75434142D01*
X42897971Y-75197971D01*
X43134142Y-75004151D01*
X43305310Y-74912660D01*
X43403585Y-74860130D01*
X43501041Y-74830567D01*
X43695951Y-74771442D01*
X43847857Y-74756481D01*
X43923809Y-74749000D01*
X45076191Y-74749000D01*
X45152143Y-74756481D01*
X45152143Y-74756481D01*
G37*
G36*
X75551000Y-77551000D02*
X74449000Y-77551000D01*
X74449000Y-76449000D01*
X75551000Y-76449000D01*
X75551000Y-77551000D01*
X75551000Y-77551000D01*
G37*
G36*
X73801000Y-77051000D02*
X72699000Y-77051000D01*
X72699000Y-75949000D01*
X73801000Y-75949000D01*
X73801000Y-77051000D01*
X73801000Y-77051000D01*
G37*
G36*
X87364499Y-75553445D02*
X87401993Y-75564819D01*
X87436557Y-75583294D01*
X87466847Y-75608153D01*
X87491706Y-75638443D01*
X87510181Y-75673007D01*
X87521555Y-75710501D01*
X87526000Y-75755638D01*
X87526000Y-76494362D01*
X87521555Y-76539499D01*
X87510181Y-76576993D01*
X87491706Y-76611557D01*
X87466847Y-76641847D01*
X87436557Y-76666706D01*
X87401993Y-76685181D01*
X87364499Y-76696555D01*
X87319362Y-76701000D01*
X86680638Y-76701000D01*
X86635501Y-76696555D01*
X86598007Y-76685181D01*
X86563443Y-76666706D01*
X86533153Y-76641847D01*
X86508294Y-76611557D01*
X86489819Y-76576993D01*
X86478445Y-76539499D01*
X86474000Y-76494362D01*
X86474000Y-75755638D01*
X86478445Y-75710501D01*
X86489819Y-75673007D01*
X86508294Y-75638443D01*
X86533153Y-75608153D01*
X86563443Y-75583294D01*
X86598007Y-75564819D01*
X86635501Y-75553445D01*
X86680638Y-75549000D01*
X87319362Y-75549000D01*
X87364499Y-75553445D01*
X87364499Y-75553445D01*
G37*
G36*
X89364499Y-75553445D02*
X89401993Y-75564819D01*
X89436557Y-75583294D01*
X89466847Y-75608153D01*
X89491706Y-75638443D01*
X89510181Y-75673007D01*
X89521555Y-75710501D01*
X89526000Y-75755638D01*
X89526000Y-76494362D01*
X89521555Y-76539499D01*
X89510181Y-76576993D01*
X89491706Y-76611557D01*
X89466847Y-76641847D01*
X89436557Y-76666706D01*
X89401993Y-76685181D01*
X89364499Y-76696555D01*
X89319362Y-76701000D01*
X88680638Y-76701000D01*
X88635501Y-76696555D01*
X88598007Y-76685181D01*
X88563443Y-76666706D01*
X88533153Y-76641847D01*
X88508294Y-76611557D01*
X88489819Y-76576993D01*
X88478445Y-76539499D01*
X88474000Y-76494362D01*
X88474000Y-75755638D01*
X88478445Y-75710501D01*
X88489819Y-75673007D01*
X88508294Y-75638443D01*
X88533153Y-75608153D01*
X88563443Y-75583294D01*
X88598007Y-75564819D01*
X88635501Y-75553445D01*
X88680638Y-75549000D01*
X89319362Y-75549000D01*
X89364499Y-75553445D01*
X89364499Y-75553445D01*
G37*
G36*
X91301000Y-76551000D02*
X90199000Y-76551000D01*
X90199000Y-75449000D01*
X91301000Y-75449000D01*
X91301000Y-76551000D01*
X91301000Y-76551000D01*
G37*
G36*
X77301000Y-76551000D02*
X76199000Y-76551000D01*
X76199000Y-75449000D01*
X77301000Y-75449000D01*
X77301000Y-76551000D01*
X77301000Y-76551000D01*
G37*
G36*
X141451000Y-76451000D02*
X140349000Y-76451000D01*
X140349000Y-75349000D01*
X141451000Y-75349000D01*
X141451000Y-76451000D01*
X141451000Y-76451000D01*
G37*
G36*
X138451000Y-76451000D02*
X137349000Y-76451000D01*
X137349000Y-75349000D01*
X138451000Y-75349000D01*
X138451000Y-76451000D01*
X138451000Y-76451000D01*
G37*
G36*
X142951000Y-76451000D02*
X141849000Y-76451000D01*
X141849000Y-75349000D01*
X142951000Y-75349000D01*
X142951000Y-76451000D01*
X142951000Y-76451000D01*
G37*
G36*
X139951000Y-76451000D02*
X138849000Y-76451000D01*
X138849000Y-75349000D01*
X139951000Y-75349000D01*
X139951000Y-76451000D01*
X139951000Y-76451000D01*
G37*
G36*
X93051000Y-76051000D02*
X91949000Y-76051000D01*
X91949000Y-74949000D01*
X93051000Y-74949000D01*
X93051000Y-76051000D01*
X93051000Y-76051000D01*
G37*
G36*
X75551000Y-76051000D02*
X74449000Y-76051000D01*
X74449000Y-74949000D01*
X75551000Y-74949000D01*
X75551000Y-76051000D01*
X75551000Y-76051000D01*
G37*
G36*
X73801000Y-75551000D02*
X72699000Y-75551000D01*
X72699000Y-74449000D01*
X73801000Y-74449000D01*
X73801000Y-75551000D01*
X73801000Y-75551000D01*
G37*
G36*
X107051000Y-74851000D02*
X104949000Y-74851000D01*
X104949000Y-72749000D01*
X107051000Y-72749000D01*
X107051000Y-74851000D01*
X107051000Y-74851000D01*
G37*
G36*
X86301000Y-74551000D02*
X85199000Y-74551000D01*
X85199000Y-73449000D01*
X86301000Y-73449000D01*
X86301000Y-74551000D01*
X86301000Y-74551000D01*
G37*
G36*
X84801000Y-74551000D02*
X83699000Y-74551000D01*
X83699000Y-73449000D01*
X84801000Y-73449000D01*
X84801000Y-74551000D01*
X84801000Y-74551000D01*
G37*
G36*
X52364499Y-72303445D02*
X52401993Y-72314819D01*
X52436557Y-72333294D01*
X52466847Y-72358153D01*
X52491706Y-72388443D01*
X52510181Y-72423007D01*
X52521555Y-72460501D01*
X52526000Y-72505638D01*
X52526000Y-73244362D01*
X52521555Y-73289499D01*
X52510181Y-73326993D01*
X52491706Y-73361557D01*
X52466847Y-73391847D01*
X52436557Y-73416706D01*
X52401993Y-73435181D01*
X52364499Y-73446555D01*
X52319362Y-73451000D01*
X51680638Y-73451000D01*
X51635501Y-73446555D01*
X51598007Y-73435181D01*
X51563443Y-73416706D01*
X51533153Y-73391847D01*
X51508294Y-73361557D01*
X51489819Y-73326993D01*
X51478445Y-73289499D01*
X51474000Y-73244362D01*
X51474000Y-72505638D01*
X51478445Y-72460501D01*
X51489819Y-72423007D01*
X51508294Y-72388443D01*
X51533153Y-72358153D01*
X51563443Y-72333294D01*
X51598007Y-72314819D01*
X51635501Y-72303445D01*
X51680638Y-72299000D01*
X52319362Y-72299000D01*
X52364499Y-72303445D01*
X52364499Y-72303445D01*
G37*
G36*
X47746425Y-71562760D02*
X47746428Y-71562761D01*
X47746429Y-71562761D01*
X47925693Y-71617140D01*
X47925695Y-71617141D01*
X48090905Y-71705448D01*
X48235712Y-71824288D01*
X48354552Y-71969095D01*
X48442859Y-72134305D01*
X48497240Y-72313575D01*
X48515601Y-72500000D01*
X48497240Y-72686425D01*
X48442859Y-72865695D01*
X48354552Y-73030905D01*
X48235712Y-73175712D01*
X48090905Y-73294552D01*
X48090903Y-73294553D01*
X47925693Y-73382860D01*
X47746429Y-73437239D01*
X47746428Y-73437239D01*
X47746425Y-73437240D01*
X47606718Y-73451000D01*
X46813282Y-73451000D01*
X46673575Y-73437240D01*
X46673572Y-73437239D01*
X46673571Y-73437239D01*
X46494307Y-73382860D01*
X46329097Y-73294553D01*
X46329095Y-73294552D01*
X46184288Y-73175712D01*
X46065448Y-73030905D01*
X45977141Y-72865695D01*
X45922760Y-72686425D01*
X45904399Y-72500000D01*
X45922760Y-72313575D01*
X45977141Y-72134305D01*
X46065448Y-71969095D01*
X46184288Y-71824288D01*
X46329095Y-71705448D01*
X46494305Y-71617141D01*
X46494307Y-71617140D01*
X46673571Y-71562761D01*
X46673572Y-71562761D01*
X46673575Y-71562760D01*
X46813282Y-71549000D01*
X47606718Y-71549000D01*
X47746425Y-71562760D01*
X47746425Y-71562760D01*
G37*
G36*
X91351000Y-72801000D02*
X90249000Y-72801000D01*
X90249000Y-71699000D01*
X91351000Y-71699000D01*
X91351000Y-72801000D01*
X91351000Y-72801000D01*
G37*
G36*
X86801000Y-72801000D02*
X85699000Y-72801000D01*
X85699000Y-71699000D01*
X86801000Y-71699000D01*
X86801000Y-72801000D01*
X86801000Y-72801000D01*
G37*
G36*
X79301000Y-72801000D02*
X78199000Y-72801000D01*
X78199000Y-71699000D01*
X79301000Y-71699000D01*
X79301000Y-72801000D01*
X79301000Y-72801000D01*
G37*
G36*
X85301000Y-72801000D02*
X84199000Y-72801000D01*
X84199000Y-71699000D01*
X85301000Y-71699000D01*
X85301000Y-72801000D01*
X85301000Y-72801000D01*
G37*
G36*
X52364499Y-70553445D02*
X52401993Y-70564819D01*
X52436557Y-70583294D01*
X52466847Y-70608153D01*
X52491706Y-70638443D01*
X52510181Y-70673007D01*
X52521555Y-70710501D01*
X52526000Y-70755638D01*
X52526000Y-71494362D01*
X52521555Y-71539499D01*
X52510181Y-71576993D01*
X52491706Y-71611557D01*
X52466847Y-71641847D01*
X52436557Y-71666706D01*
X52401993Y-71685181D01*
X52364499Y-71696555D01*
X52319362Y-71701000D01*
X51680638Y-71701000D01*
X51635501Y-71696555D01*
X51598007Y-71685181D01*
X51563443Y-71666706D01*
X51533153Y-71641847D01*
X51508294Y-71611557D01*
X51489819Y-71576993D01*
X51478445Y-71539499D01*
X51474000Y-71494362D01*
X51474000Y-70755638D01*
X51478445Y-70710501D01*
X51489819Y-70673007D01*
X51508294Y-70638443D01*
X51533153Y-70608153D01*
X51563443Y-70583294D01*
X51598007Y-70564819D01*
X51635501Y-70553445D01*
X51680638Y-70549000D01*
X52319362Y-70549000D01*
X52364499Y-70553445D01*
X52364499Y-70553445D01*
G37*
G36*
X85801000Y-71051000D02*
X84699000Y-71051000D01*
X84699000Y-69949000D01*
X85801000Y-69949000D01*
X85801000Y-71051000D01*
X85801000Y-71051000D01*
G37*
G36*
X47867025Y-69210590D02*
X48018012Y-69256392D01*
X48157165Y-69330770D01*
X48279133Y-69430867D01*
X48379230Y-69552835D01*
X48453608Y-69691988D01*
X48499410Y-69842975D01*
X48514875Y-70000000D01*
X48499410Y-70157025D01*
X48453608Y-70308012D01*
X48379230Y-70447165D01*
X48279133Y-70569133D01*
X48157165Y-70669230D01*
X48018012Y-70743608D01*
X47867025Y-70789410D01*
X47749346Y-70801000D01*
X46670654Y-70801000D01*
X46552975Y-70789410D01*
X46401988Y-70743608D01*
X46262835Y-70669230D01*
X46140867Y-70569133D01*
X46040770Y-70447165D01*
X45966392Y-70308012D01*
X45920590Y-70157025D01*
X45905125Y-70000000D01*
X45920590Y-69842975D01*
X45966392Y-69691988D01*
X46040770Y-69552835D01*
X46140867Y-69430867D01*
X46262835Y-69330770D01*
X46401988Y-69256392D01*
X46552975Y-69210590D01*
X46670654Y-69199000D01*
X47749346Y-69199000D01*
X47867025Y-69210590D01*
X47867025Y-69210590D01*
G37*
G36*
X90614499Y-68303445D02*
X90651993Y-68314819D01*
X90686557Y-68333294D01*
X90716847Y-68358153D01*
X90741706Y-68388443D01*
X90760181Y-68423007D01*
X90771555Y-68460501D01*
X90776000Y-68505638D01*
X90776000Y-69244362D01*
X90771555Y-69289499D01*
X90760181Y-69326993D01*
X90741706Y-69361557D01*
X90716847Y-69391847D01*
X90686557Y-69416706D01*
X90651993Y-69435181D01*
X90614499Y-69446555D01*
X90569362Y-69451000D01*
X89930638Y-69451000D01*
X89885501Y-69446555D01*
X89848007Y-69435181D01*
X89813443Y-69416706D01*
X89783153Y-69391847D01*
X89758294Y-69361557D01*
X89739819Y-69326993D01*
X89728445Y-69289499D01*
X89724000Y-69244362D01*
X89724000Y-68505638D01*
X89728445Y-68460501D01*
X89739819Y-68423007D01*
X89758294Y-68388443D01*
X89783153Y-68358153D01*
X89813443Y-68333294D01*
X89848007Y-68314819D01*
X89885501Y-68303445D01*
X89930638Y-68299000D01*
X90569362Y-68299000D01*
X90614499Y-68303445D01*
X90614499Y-68303445D01*
G37*
G36*
X94971000Y-69101000D02*
X92369000Y-69101000D01*
X92369000Y-66899000D01*
X94971000Y-66899000D01*
X94971000Y-69101000D01*
X94971000Y-69101000D01*
G37*
G36*
X97131000Y-69101000D02*
X95529000Y-69101000D01*
X95529000Y-66899000D01*
X97131000Y-66899000D01*
X97131000Y-69101000D01*
X97131000Y-69101000D01*
G37*
G36*
X116971000Y-69101000D02*
X114369000Y-69101000D01*
X114369000Y-66899000D01*
X116971000Y-66899000D01*
X116971000Y-69101000D01*
X116971000Y-69101000D01*
G37*
G36*
X119131000Y-69101000D02*
X117529000Y-69101000D01*
X117529000Y-66899000D01*
X119131000Y-66899000D01*
X119131000Y-69101000D01*
X119131000Y-69101000D01*
G37*
G36*
X75131000Y-68901000D02*
X72529000Y-68901000D01*
X72529000Y-66699000D01*
X75131000Y-66699000D01*
X75131000Y-68901000D01*
X75131000Y-68901000D01*
G37*
G36*
X71971000Y-68901000D02*
X70369000Y-68901000D01*
X70369000Y-66699000D01*
X71971000Y-66699000D01*
X71971000Y-68901000D01*
X71971000Y-68901000D01*
G37*
G36*
X47867025Y-67210590D02*
X48018012Y-67256392D01*
X48157165Y-67330770D01*
X48279133Y-67430867D01*
X48379230Y-67552835D01*
X48453608Y-67691988D01*
X48499410Y-67842975D01*
X48514875Y-68000000D01*
X48499410Y-68157025D01*
X48453608Y-68308012D01*
X48379230Y-68447165D01*
X48279133Y-68569133D01*
X48157165Y-68669230D01*
X48018012Y-68743608D01*
X47867025Y-68789410D01*
X47749346Y-68801000D01*
X46670654Y-68801000D01*
X46552975Y-68789410D01*
X46401988Y-68743608D01*
X46262835Y-68669230D01*
X46140867Y-68569133D01*
X46040770Y-68447165D01*
X45966392Y-68308012D01*
X45920590Y-68157025D01*
X45905125Y-68000000D01*
X45920590Y-67842975D01*
X45966392Y-67691988D01*
X46040770Y-67552835D01*
X46140867Y-67430867D01*
X46262835Y-67330770D01*
X46401988Y-67256392D01*
X46552975Y-67210590D01*
X46670654Y-67199000D01*
X47749346Y-67199000D01*
X47867025Y-67210590D01*
X47867025Y-67210590D01*
G37*
G36*
X81001000Y-68701000D02*
X80099000Y-68701000D01*
X80099000Y-67699000D01*
X81001000Y-67699000D01*
X81001000Y-68701000D01*
X81001000Y-68701000D01*
G37*
G36*
X79101000Y-68701000D02*
X78199000Y-68701000D01*
X78199000Y-67699000D01*
X79101000Y-67699000D01*
X79101000Y-68701000D01*
X79101000Y-68701000D01*
G37*
G36*
X84901000Y-68701000D02*
X83899000Y-68701000D01*
X83899000Y-67799000D01*
X84901000Y-67799000D01*
X84901000Y-68701000D01*
X84901000Y-68701000D01*
G37*
G36*
X77064499Y-67503445D02*
X77101993Y-67514819D01*
X77136557Y-67533294D01*
X77166847Y-67558153D01*
X77191706Y-67588443D01*
X77210181Y-67623007D01*
X77221555Y-67660501D01*
X77226000Y-67705638D01*
X77226000Y-68444362D01*
X77221555Y-68489499D01*
X77210181Y-68526993D01*
X77191706Y-68561557D01*
X77166847Y-68591847D01*
X77136557Y-68616706D01*
X77101993Y-68635181D01*
X77064499Y-68646555D01*
X77019362Y-68651000D01*
X76380638Y-68651000D01*
X76335501Y-68646555D01*
X76298007Y-68635181D01*
X76263443Y-68616706D01*
X76233153Y-68591847D01*
X76208294Y-68561557D01*
X76189819Y-68526993D01*
X76178445Y-68489499D01*
X76174000Y-68444362D01*
X76174000Y-67705638D01*
X76178445Y-67660501D01*
X76189819Y-67623007D01*
X76208294Y-67588443D01*
X76233153Y-67558153D01*
X76263443Y-67533294D01*
X76298007Y-67514819D01*
X76335501Y-67503445D01*
X76380638Y-67499000D01*
X77019362Y-67499000D01*
X77064499Y-67503445D01*
X77064499Y-67503445D01*
G37*
G36*
X113114499Y-66803445D02*
X113151993Y-66814819D01*
X113186557Y-66833294D01*
X113216847Y-66858153D01*
X113241706Y-66888443D01*
X113260181Y-66923007D01*
X113271555Y-66960501D01*
X113276000Y-67005638D01*
X113276000Y-67744362D01*
X113271555Y-67789499D01*
X113260181Y-67826993D01*
X113241706Y-67861557D01*
X113216847Y-67891847D01*
X113186557Y-67916706D01*
X113151993Y-67935181D01*
X113114499Y-67946555D01*
X113069362Y-67951000D01*
X112430638Y-67951000D01*
X112385501Y-67946555D01*
X112348007Y-67935181D01*
X112313443Y-67916706D01*
X112283153Y-67891847D01*
X112258294Y-67861557D01*
X112239819Y-67826993D01*
X112228445Y-67789499D01*
X112224000Y-67744362D01*
X112224000Y-67005638D01*
X112228445Y-66960501D01*
X112239819Y-66923007D01*
X112258294Y-66888443D01*
X112283153Y-66858153D01*
X112313443Y-66833294D01*
X112348007Y-66814819D01*
X112385501Y-66803445D01*
X112430638Y-66799000D01*
X113069362Y-66799000D01*
X113114499Y-66803445D01*
X113114499Y-66803445D01*
G37*
G36*
X86901000Y-67751000D02*
X85899000Y-67751000D01*
X85899000Y-66849000D01*
X86901000Y-66849000D01*
X86901000Y-67751000D01*
X86901000Y-67751000D01*
G37*
G36*
X90614499Y-66553445D02*
X90651993Y-66564819D01*
X90686557Y-66583294D01*
X90716847Y-66608153D01*
X90741706Y-66638443D01*
X90760181Y-66673007D01*
X90771555Y-66710501D01*
X90776000Y-66755638D01*
X90776000Y-67494362D01*
X90771555Y-67539499D01*
X90760181Y-67576993D01*
X90741706Y-67611557D01*
X90716847Y-67641847D01*
X90686557Y-67666706D01*
X90651993Y-67685181D01*
X90614499Y-67696555D01*
X90569362Y-67701000D01*
X89930638Y-67701000D01*
X89885501Y-67696555D01*
X89848007Y-67685181D01*
X89813443Y-67666706D01*
X89783153Y-67641847D01*
X89758294Y-67611557D01*
X89739819Y-67576993D01*
X89728445Y-67539499D01*
X89724000Y-67494362D01*
X89724000Y-66755638D01*
X89728445Y-66710501D01*
X89739819Y-66673007D01*
X89758294Y-66638443D01*
X89783153Y-66608153D01*
X89813443Y-66583294D01*
X89848007Y-66564819D01*
X89885501Y-66553445D01*
X89930638Y-66549000D01*
X90569362Y-66549000D01*
X90614499Y-66553445D01*
X90614499Y-66553445D01*
G37*
G36*
X64851000Y-67701000D02*
X61149000Y-67701000D01*
X61149000Y-64999000D01*
X64851000Y-64999000D01*
X64851000Y-67701000D01*
X64851000Y-67701000D01*
G37*
G36*
X52364499Y-66303445D02*
X52401993Y-66314819D01*
X52436557Y-66333294D01*
X52466847Y-66358153D01*
X52491706Y-66388443D01*
X52510181Y-66423007D01*
X52521555Y-66460501D01*
X52526000Y-66505638D01*
X52526000Y-67244362D01*
X52521555Y-67289499D01*
X52510181Y-67326993D01*
X52491706Y-67361557D01*
X52466847Y-67391847D01*
X52436557Y-67416706D01*
X52401993Y-67435181D01*
X52364499Y-67446555D01*
X52319362Y-67451000D01*
X51680638Y-67451000D01*
X51635501Y-67446555D01*
X51598007Y-67435181D01*
X51563443Y-67416706D01*
X51533153Y-67391847D01*
X51508294Y-67361557D01*
X51489819Y-67326993D01*
X51478445Y-67289499D01*
X51474000Y-67244362D01*
X51474000Y-66505638D01*
X51478445Y-66460501D01*
X51489819Y-66423007D01*
X51508294Y-66388443D01*
X51533153Y-66358153D01*
X51563443Y-66333294D01*
X51598007Y-66314819D01*
X51635501Y-66303445D01*
X51680638Y-66299000D01*
X52319362Y-66299000D01*
X52364499Y-66303445D01*
X52364499Y-66303445D01*
G37*
G36*
X106306565Y-65189389D02*
X106497834Y-65268615D01*
X106669976Y-65383637D01*
X106816363Y-65530024D01*
X106931385Y-65702166D01*
X107010611Y-65893435D01*
X107051000Y-66096484D01*
X107051000Y-66303516D01*
X107010611Y-66506565D01*
X106931385Y-66697834D01*
X106816363Y-66869976D01*
X106669976Y-67016363D01*
X106497834Y-67131385D01*
X106306565Y-67210611D01*
X106103516Y-67251000D01*
X105896484Y-67251000D01*
X105693435Y-67210611D01*
X105502166Y-67131385D01*
X105330024Y-67016363D01*
X105183637Y-66869976D01*
X105068615Y-66697834D01*
X104989389Y-66506565D01*
X104949000Y-66303516D01*
X104949000Y-66096484D01*
X104989389Y-65893435D01*
X105068615Y-65702166D01*
X105183637Y-65530024D01*
X105330024Y-65383637D01*
X105502166Y-65268615D01*
X105693435Y-65189389D01*
X105896484Y-65149000D01*
X106103516Y-65149000D01*
X106306565Y-65189389D01*
X106306565Y-65189389D01*
G37*
G36*
X58105996Y-63628051D02*
X58139653Y-63638261D01*
X58170667Y-63654838D01*
X58197852Y-63677148D01*
X58220162Y-63704333D01*
X58236739Y-63735347D01*
X58246949Y-63769004D01*
X58251000Y-63810138D01*
X58251000Y-66864862D01*
X58246949Y-66905996D01*
X58236739Y-66939653D01*
X58220162Y-66970667D01*
X58197852Y-66997852D01*
X58170667Y-67020162D01*
X58139653Y-67036739D01*
X58105996Y-67046949D01*
X58064862Y-67051000D01*
X56735138Y-67051000D01*
X56694004Y-67046949D01*
X56660347Y-67036739D01*
X56629333Y-67020162D01*
X56602148Y-66997852D01*
X56579838Y-66970667D01*
X56563261Y-66939653D01*
X56553051Y-66905996D01*
X56549000Y-66864862D01*
X56549000Y-63810138D01*
X56553051Y-63769004D01*
X56563261Y-63735347D01*
X56579838Y-63704333D01*
X56602148Y-63677148D01*
X56629333Y-63654838D01*
X56660347Y-63638261D01*
X56694004Y-63628051D01*
X56735138Y-63624000D01*
X58064862Y-63624000D01*
X58105996Y-63628051D01*
X58105996Y-63628051D01*
G37*
G36*
X77064499Y-65753445D02*
X77101993Y-65764819D01*
X77136557Y-65783294D01*
X77166847Y-65808153D01*
X77191706Y-65838443D01*
X77210181Y-65873007D01*
X77221555Y-65910501D01*
X77226000Y-65955638D01*
X77226000Y-66694362D01*
X77221555Y-66739499D01*
X77210181Y-66776993D01*
X77191706Y-66811557D01*
X77166847Y-66841847D01*
X77136557Y-66866706D01*
X77101993Y-66885181D01*
X77064499Y-66896555D01*
X77019362Y-66901000D01*
X76380638Y-66901000D01*
X76335501Y-66896555D01*
X76298007Y-66885181D01*
X76263443Y-66866706D01*
X76233153Y-66841847D01*
X76208294Y-66811557D01*
X76189819Y-66776993D01*
X76178445Y-66739499D01*
X76174000Y-66694362D01*
X76174000Y-65955638D01*
X76178445Y-65910501D01*
X76189819Y-65873007D01*
X76208294Y-65838443D01*
X76233153Y-65808153D01*
X76263443Y-65783294D01*
X76298007Y-65764819D01*
X76335501Y-65753445D01*
X76380638Y-65749000D01*
X77019362Y-65749000D01*
X77064499Y-65753445D01*
X77064499Y-65753445D01*
G37*
G36*
X84901000Y-66801000D02*
X83899000Y-66801000D01*
X83899000Y-65899000D01*
X84901000Y-65899000D01*
X84901000Y-66801000D01*
X84901000Y-66801000D01*
G37*
G36*
X80051000Y-66701000D02*
X79149000Y-66701000D01*
X79149000Y-65699000D01*
X80051000Y-65699000D01*
X80051000Y-66701000D01*
X80051000Y-66701000D01*
G37*
G36*
X47746425Y-64562760D02*
X47746428Y-64562761D01*
X47746429Y-64562761D01*
X47925693Y-64617140D01*
X47925695Y-64617141D01*
X48090905Y-64705448D01*
X48235712Y-64824288D01*
X48354552Y-64969095D01*
X48425057Y-65101000D01*
X48442860Y-65134307D01*
X48479665Y-65255638D01*
X48497240Y-65313575D01*
X48515601Y-65500000D01*
X48497240Y-65686425D01*
X48497239Y-65686428D01*
X48497239Y-65686429D01*
X48460315Y-65808153D01*
X48442859Y-65865695D01*
X48354552Y-66030905D01*
X48235712Y-66175712D01*
X48090905Y-66294552D01*
X48073130Y-66304053D01*
X47925693Y-66382860D01*
X47746429Y-66437239D01*
X47746428Y-66437239D01*
X47746425Y-66437240D01*
X47606718Y-66451000D01*
X46813282Y-66451000D01*
X46673575Y-66437240D01*
X46673572Y-66437239D01*
X46673571Y-66437239D01*
X46494307Y-66382860D01*
X46346870Y-66304053D01*
X46329095Y-66294552D01*
X46184288Y-66175712D01*
X46065448Y-66030905D01*
X45977141Y-65865695D01*
X45959686Y-65808153D01*
X45922761Y-65686429D01*
X45922761Y-65686428D01*
X45922760Y-65686425D01*
X45904399Y-65500000D01*
X45922760Y-65313575D01*
X45940335Y-65255638D01*
X45977140Y-65134307D01*
X45994943Y-65101000D01*
X46065448Y-64969095D01*
X46184288Y-64824288D01*
X46329095Y-64705448D01*
X46494305Y-64617141D01*
X46494307Y-64617140D01*
X46673571Y-64562761D01*
X46673572Y-64562761D01*
X46673575Y-64562760D01*
X46813282Y-64549000D01*
X47606718Y-64549000D01*
X47746425Y-64562760D01*
X47746425Y-64562760D01*
G37*
G36*
X113114499Y-65053445D02*
X113151993Y-65064819D01*
X113186557Y-65083294D01*
X113216847Y-65108153D01*
X113241706Y-65138443D01*
X113260181Y-65173007D01*
X113271555Y-65210501D01*
X113276000Y-65255638D01*
X113276000Y-65994362D01*
X113271555Y-66039499D01*
X113260181Y-66076993D01*
X113241706Y-66111557D01*
X113216847Y-66141847D01*
X113186557Y-66166706D01*
X113151993Y-66185181D01*
X113114499Y-66196555D01*
X113069362Y-66201000D01*
X112430638Y-66201000D01*
X112385501Y-66196555D01*
X112348007Y-66185181D01*
X112313443Y-66166706D01*
X112283153Y-66141847D01*
X112258294Y-66111557D01*
X112239819Y-66076993D01*
X112228445Y-66039499D01*
X112224000Y-65994362D01*
X112224000Y-65255638D01*
X112228445Y-65210501D01*
X112239819Y-65173007D01*
X112258294Y-65138443D01*
X112283153Y-65108153D01*
X112313443Y-65083294D01*
X112348007Y-65064819D01*
X112385501Y-65053445D01*
X112430638Y-65049000D01*
X113069362Y-65049000D01*
X113114499Y-65053445D01*
X113114499Y-65053445D01*
G37*
G36*
X52364499Y-64553445D02*
X52401993Y-64564819D01*
X52436557Y-64583294D01*
X52466847Y-64608153D01*
X52491706Y-64638443D01*
X52510181Y-64673007D01*
X52521555Y-64710501D01*
X52526000Y-64755638D01*
X52526000Y-65494362D01*
X52521555Y-65539499D01*
X52510181Y-65576993D01*
X52491706Y-65611557D01*
X52466847Y-65641847D01*
X52436557Y-65666706D01*
X52401993Y-65685181D01*
X52364499Y-65696555D01*
X52319362Y-65701000D01*
X51680638Y-65701000D01*
X51635501Y-65696555D01*
X51598007Y-65685181D01*
X51563443Y-65666706D01*
X51533153Y-65641847D01*
X51508294Y-65611557D01*
X51489819Y-65576993D01*
X51478445Y-65539499D01*
X51474000Y-65494362D01*
X51474000Y-64755638D01*
X51478445Y-64710501D01*
X51489819Y-64673007D01*
X51508294Y-64638443D01*
X51533153Y-64608153D01*
X51563443Y-64583294D01*
X51598007Y-64564819D01*
X51635501Y-64553445D01*
X51680638Y-64549000D01*
X52319362Y-64549000D01*
X52364499Y-64553445D01*
X52364499Y-64553445D01*
G37*
G36*
X90614499Y-64303445D02*
X90651993Y-64314819D01*
X90686557Y-64333294D01*
X90716847Y-64358153D01*
X90741706Y-64388443D01*
X90760181Y-64423007D01*
X90771555Y-64460501D01*
X90776000Y-64505638D01*
X90776000Y-65244362D01*
X90771555Y-65289499D01*
X90760181Y-65326993D01*
X90741706Y-65361557D01*
X90716847Y-65391847D01*
X90686557Y-65416706D01*
X90651993Y-65435181D01*
X90614499Y-65446555D01*
X90569362Y-65451000D01*
X89930638Y-65451000D01*
X89885501Y-65446555D01*
X89848007Y-65435181D01*
X89813443Y-65416706D01*
X89783153Y-65391847D01*
X89758294Y-65361557D01*
X89739819Y-65326993D01*
X89728445Y-65289499D01*
X89724000Y-65244362D01*
X89724000Y-64505638D01*
X89728445Y-64460501D01*
X89739819Y-64423007D01*
X89758294Y-64388443D01*
X89783153Y-64358153D01*
X89813443Y-64333294D01*
X89848007Y-64314819D01*
X89885501Y-64303445D01*
X89930638Y-64299000D01*
X90569362Y-64299000D01*
X90614499Y-64303445D01*
X90614499Y-64303445D01*
G37*
G36*
X97131000Y-65101000D02*
X95529000Y-65101000D01*
X95529000Y-62899000D01*
X97131000Y-62899000D01*
X97131000Y-65101000D01*
X97131000Y-65101000D01*
G37*
G36*
X72971000Y-65101000D02*
X70369000Y-65101000D01*
X70369000Y-62899000D01*
X72971000Y-62899000D01*
X72971000Y-65101000D01*
X72971000Y-65101000D01*
G37*
G36*
X116971000Y-65101000D02*
X114369000Y-65101000D01*
X114369000Y-62899000D01*
X116971000Y-62899000D01*
X116971000Y-65101000D01*
X116971000Y-65101000D01*
G37*
G36*
X94971000Y-65101000D02*
X92369000Y-65101000D01*
X92369000Y-62899000D01*
X94971000Y-62899000D01*
X94971000Y-65101000D01*
X94971000Y-65101000D01*
G37*
G36*
X119131000Y-65101000D02*
X117529000Y-65101000D01*
X117529000Y-62899000D01*
X119131000Y-62899000D01*
X119131000Y-65101000D01*
X119131000Y-65101000D01*
G37*
G36*
X75131000Y-65101000D02*
X73529000Y-65101000D01*
X73529000Y-62899000D01*
X75131000Y-62899000D01*
X75131000Y-65101000D01*
X75131000Y-65101000D01*
G37*
G36*
X111289499Y-62978445D02*
X111326993Y-62989819D01*
X111361557Y-63008294D01*
X111391847Y-63033153D01*
X111416706Y-63063443D01*
X111435181Y-63098007D01*
X111446555Y-63135501D01*
X111451000Y-63180638D01*
X111451000Y-63819362D01*
X111446555Y-63864499D01*
X111435181Y-63901993D01*
X111416706Y-63936557D01*
X111391847Y-63966847D01*
X111361557Y-63991706D01*
X111326993Y-64010181D01*
X111289499Y-64021555D01*
X111244362Y-64026000D01*
X110505638Y-64026000D01*
X110460501Y-64021555D01*
X110423007Y-64010181D01*
X110388443Y-63991706D01*
X110358153Y-63966847D01*
X110333294Y-63936557D01*
X110314819Y-63901993D01*
X110303445Y-63864499D01*
X110299000Y-63819362D01*
X110299000Y-63180638D01*
X110303445Y-63135501D01*
X110314819Y-63098007D01*
X110333294Y-63063443D01*
X110358153Y-63033153D01*
X110388443Y-63008294D01*
X110423007Y-62989819D01*
X110460501Y-62978445D01*
X110505638Y-62974000D01*
X111244362Y-62974000D01*
X111289499Y-62978445D01*
X111289499Y-62978445D01*
G37*
G36*
X113039499Y-62978445D02*
X113076993Y-62989819D01*
X113111557Y-63008294D01*
X113141847Y-63033153D01*
X113166706Y-63063443D01*
X113185181Y-63098007D01*
X113196555Y-63135501D01*
X113201000Y-63180638D01*
X113201000Y-63819362D01*
X113196555Y-63864499D01*
X113185181Y-63901993D01*
X113166706Y-63936557D01*
X113141847Y-63966847D01*
X113111557Y-63991706D01*
X113076993Y-64010181D01*
X113039499Y-64021555D01*
X112994362Y-64026000D01*
X112255638Y-64026000D01*
X112210501Y-64021555D01*
X112173007Y-64010181D01*
X112138443Y-63991706D01*
X112108153Y-63966847D01*
X112083294Y-63936557D01*
X112064819Y-63901993D01*
X112053445Y-63864499D01*
X112049000Y-63819362D01*
X112049000Y-63180638D01*
X112053445Y-63135501D01*
X112064819Y-63098007D01*
X112083294Y-63063443D01*
X112108153Y-63033153D01*
X112138443Y-63008294D01*
X112173007Y-62989819D01*
X112210501Y-62978445D01*
X112255638Y-62974000D01*
X112994362Y-62974000D01*
X113039499Y-62978445D01*
X113039499Y-62978445D01*
G37*
G36*
X90614499Y-62553445D02*
X90651993Y-62564819D01*
X90686557Y-62583294D01*
X90716847Y-62608153D01*
X90741706Y-62638443D01*
X90760181Y-62673007D01*
X90771555Y-62710501D01*
X90776000Y-62755638D01*
X90776000Y-63494362D01*
X90771555Y-63539499D01*
X90760181Y-63576993D01*
X90741706Y-63611557D01*
X90716847Y-63641847D01*
X90686557Y-63666706D01*
X90651993Y-63685181D01*
X90614499Y-63696555D01*
X90569362Y-63701000D01*
X89930638Y-63701000D01*
X89885501Y-63696555D01*
X89848007Y-63685181D01*
X89813443Y-63666706D01*
X89783153Y-63641847D01*
X89758294Y-63611557D01*
X89739819Y-63576993D01*
X89728445Y-63539499D01*
X89724000Y-63494362D01*
X89724000Y-62755638D01*
X89728445Y-62710501D01*
X89739819Y-62673007D01*
X89758294Y-62638443D01*
X89783153Y-62608153D01*
X89813443Y-62583294D01*
X89848007Y-62564819D01*
X89885501Y-62553445D01*
X89930638Y-62549000D01*
X90569362Y-62549000D01*
X90614499Y-62553445D01*
X90614499Y-62553445D01*
G37*
G36*
X45152143Y-60156481D02*
X45304049Y-60171442D01*
X45498959Y-60230567D01*
X45596415Y-60260130D01*
X45694690Y-60312660D01*
X45865858Y-60404151D01*
X46102029Y-60597971D01*
X46295849Y-60834142D01*
X46347427Y-60930638D01*
X46439870Y-61103585D01*
X46439870Y-61103586D01*
X46528558Y-61395951D01*
X46558504Y-61700000D01*
X46528558Y-62004049D01*
X46469433Y-62198959D01*
X46439870Y-62296415D01*
X46387340Y-62394690D01*
X46295849Y-62565858D01*
X46102029Y-62802029D01*
X45865858Y-62995849D01*
X45694690Y-63087340D01*
X45596415Y-63139870D01*
X45498959Y-63169433D01*
X45304049Y-63228558D01*
X45152143Y-63243519D01*
X45076191Y-63251000D01*
X43923809Y-63251000D01*
X43847857Y-63243519D01*
X43695951Y-63228558D01*
X43501041Y-63169433D01*
X43403585Y-63139870D01*
X43305310Y-63087340D01*
X43134142Y-62995849D01*
X42897971Y-62802029D01*
X42704151Y-62565858D01*
X42612660Y-62394690D01*
X42560130Y-62296415D01*
X42530567Y-62198959D01*
X42471442Y-62004049D01*
X42441496Y-61700000D01*
X42471442Y-61395951D01*
X42560130Y-61103586D01*
X42560130Y-61103585D01*
X42652573Y-60930638D01*
X42704151Y-60834142D01*
X42897971Y-60597971D01*
X43134142Y-60404151D01*
X43305310Y-60312660D01*
X43403585Y-60260130D01*
X43501041Y-60230567D01*
X43695951Y-60171442D01*
X43847857Y-60156481D01*
X43923809Y-60149000D01*
X45076191Y-60149000D01*
X45152143Y-60156481D01*
X45152143Y-60156481D01*
G37*
G36*
X58105996Y-58553051D02*
X58139653Y-58563261D01*
X58170667Y-58579838D01*
X58197852Y-58602148D01*
X58220162Y-58629333D01*
X58236739Y-58660347D01*
X58246949Y-58694004D01*
X58251000Y-58735138D01*
X58251000Y-61789862D01*
X58246949Y-61830996D01*
X58236739Y-61864653D01*
X58220162Y-61895667D01*
X58197852Y-61922852D01*
X58170667Y-61945162D01*
X58139653Y-61961739D01*
X58105996Y-61971949D01*
X58064862Y-61976000D01*
X56735138Y-61976000D01*
X56694004Y-61971949D01*
X56660347Y-61961739D01*
X56629333Y-61945162D01*
X56602148Y-61922852D01*
X56579838Y-61895667D01*
X56563261Y-61864653D01*
X56553051Y-61830996D01*
X56549000Y-61789862D01*
X56549000Y-58735138D01*
X56553051Y-58694004D01*
X56563261Y-58660347D01*
X56579838Y-58629333D01*
X56602148Y-58602148D01*
X56629333Y-58579838D01*
X56660347Y-58563261D01*
X56694004Y-58553051D01*
X56735138Y-58549000D01*
X58064862Y-58549000D01*
X58105996Y-58553051D01*
X58105996Y-58553051D01*
G37*
G36*
X72289499Y-60728445D02*
X72326993Y-60739819D01*
X72361557Y-60758294D01*
X72391847Y-60783153D01*
X72416706Y-60813443D01*
X72435181Y-60848007D01*
X72446555Y-60885501D01*
X72451000Y-60930638D01*
X72451000Y-61569362D01*
X72446555Y-61614499D01*
X72435181Y-61651993D01*
X72416706Y-61686557D01*
X72391847Y-61716847D01*
X72361557Y-61741706D01*
X72326993Y-61760181D01*
X72289499Y-61771555D01*
X72244362Y-61776000D01*
X71505638Y-61776000D01*
X71460501Y-61771555D01*
X71423007Y-61760181D01*
X71388443Y-61741706D01*
X71358153Y-61716847D01*
X71333294Y-61686557D01*
X71314819Y-61651993D01*
X71303445Y-61614499D01*
X71299000Y-61569362D01*
X71299000Y-60930638D01*
X71303445Y-60885501D01*
X71314819Y-60848007D01*
X71333294Y-60813443D01*
X71358153Y-60783153D01*
X71388443Y-60758294D01*
X71423007Y-60739819D01*
X71460501Y-60728445D01*
X71505638Y-60724000D01*
X72244362Y-60724000D01*
X72289499Y-60728445D01*
X72289499Y-60728445D01*
G37*
G36*
X74039499Y-60728445D02*
X74076993Y-60739819D01*
X74111557Y-60758294D01*
X74141847Y-60783153D01*
X74166706Y-60813443D01*
X74185181Y-60848007D01*
X74196555Y-60885501D01*
X74201000Y-60930638D01*
X74201000Y-61569362D01*
X74196555Y-61614499D01*
X74185181Y-61651993D01*
X74166706Y-61686557D01*
X74141847Y-61716847D01*
X74111557Y-61741706D01*
X74076993Y-61760181D01*
X74039499Y-61771555D01*
X73994362Y-61776000D01*
X73255638Y-61776000D01*
X73210501Y-61771555D01*
X73173007Y-61760181D01*
X73138443Y-61741706D01*
X73108153Y-61716847D01*
X73083294Y-61686557D01*
X73064819Y-61651993D01*
X73053445Y-61614499D01*
X73049000Y-61569362D01*
X73049000Y-60930638D01*
X73053445Y-60885501D01*
X73064819Y-60848007D01*
X73083294Y-60813443D01*
X73108153Y-60783153D01*
X73138443Y-60758294D01*
X73173007Y-60739819D01*
X73210501Y-60728445D01*
X73255638Y-60724000D01*
X73994362Y-60724000D01*
X74039499Y-60728445D01*
X74039499Y-60728445D01*
G37*
G36*
X74789499Y-56728445D02*
X74826993Y-56739819D01*
X74861557Y-56758294D01*
X74891847Y-56783153D01*
X74916706Y-56813443D01*
X74935181Y-56848007D01*
X74946555Y-56885501D01*
X74951000Y-56930638D01*
X74951000Y-57569362D01*
X74946555Y-57614499D01*
X74935181Y-57651993D01*
X74916706Y-57686557D01*
X74891847Y-57716847D01*
X74861557Y-57741706D01*
X74826993Y-57760181D01*
X74789499Y-57771555D01*
X74744362Y-57776000D01*
X74005638Y-57776000D01*
X73960501Y-57771555D01*
X73923007Y-57760181D01*
X73888443Y-57741706D01*
X73858153Y-57716847D01*
X73833294Y-57686557D01*
X73814819Y-57651993D01*
X73803445Y-57614499D01*
X73799000Y-57569362D01*
X73799000Y-56930638D01*
X73803445Y-56885501D01*
X73814819Y-56848007D01*
X73833294Y-56813443D01*
X73858153Y-56783153D01*
X73888443Y-56758294D01*
X73923007Y-56739819D01*
X73960501Y-56728445D01*
X74005638Y-56724000D01*
X74744362Y-56724000D01*
X74789499Y-56728445D01*
X74789499Y-56728445D01*
G37*
G36*
X92289499Y-56728445D02*
X92326993Y-56739819D01*
X92361557Y-56758294D01*
X92391847Y-56783153D01*
X92416706Y-56813443D01*
X92435181Y-56848007D01*
X92446555Y-56885501D01*
X92451000Y-56930638D01*
X92451000Y-57569362D01*
X92446555Y-57614499D01*
X92435181Y-57651993D01*
X92416706Y-57686557D01*
X92391847Y-57716847D01*
X92361557Y-57741706D01*
X92326993Y-57760181D01*
X92289499Y-57771555D01*
X92244362Y-57776000D01*
X91505638Y-57776000D01*
X91460501Y-57771555D01*
X91423007Y-57760181D01*
X91388443Y-57741706D01*
X91358153Y-57716847D01*
X91333294Y-57686557D01*
X91314819Y-57651993D01*
X91303445Y-57614499D01*
X91299000Y-57569362D01*
X91299000Y-56930638D01*
X91303445Y-56885501D01*
X91314819Y-56848007D01*
X91333294Y-56813443D01*
X91358153Y-56783153D01*
X91388443Y-56758294D01*
X91423007Y-56739819D01*
X91460501Y-56728445D01*
X91505638Y-56724000D01*
X92244362Y-56724000D01*
X92289499Y-56728445D01*
X92289499Y-56728445D01*
G37*
G36*
X88789499Y-56728445D02*
X88826993Y-56739819D01*
X88861557Y-56758294D01*
X88891847Y-56783153D01*
X88916706Y-56813443D01*
X88935181Y-56848007D01*
X88946555Y-56885501D01*
X88951000Y-56930638D01*
X88951000Y-57569362D01*
X88946555Y-57614499D01*
X88935181Y-57651993D01*
X88916706Y-57686557D01*
X88891847Y-57716847D01*
X88861557Y-57741706D01*
X88826993Y-57760181D01*
X88789499Y-57771555D01*
X88744362Y-57776000D01*
X88005638Y-57776000D01*
X87960501Y-57771555D01*
X87923007Y-57760181D01*
X87888443Y-57741706D01*
X87858153Y-57716847D01*
X87833294Y-57686557D01*
X87814819Y-57651993D01*
X87803445Y-57614499D01*
X87799000Y-57569362D01*
X87799000Y-56930638D01*
X87803445Y-56885501D01*
X87814819Y-56848007D01*
X87833294Y-56813443D01*
X87858153Y-56783153D01*
X87888443Y-56758294D01*
X87923007Y-56739819D01*
X87960501Y-56728445D01*
X88005638Y-56724000D01*
X88744362Y-56724000D01*
X88789499Y-56728445D01*
X88789499Y-56728445D01*
G37*
G36*
X85289499Y-56728445D02*
X85326993Y-56739819D01*
X85361557Y-56758294D01*
X85391847Y-56783153D01*
X85416706Y-56813443D01*
X85435181Y-56848007D01*
X85446555Y-56885501D01*
X85451000Y-56930638D01*
X85451000Y-57569362D01*
X85446555Y-57614499D01*
X85435181Y-57651993D01*
X85416706Y-57686557D01*
X85391847Y-57716847D01*
X85361557Y-57741706D01*
X85326993Y-57760181D01*
X85289499Y-57771555D01*
X85244362Y-57776000D01*
X84505638Y-57776000D01*
X84460501Y-57771555D01*
X84423007Y-57760181D01*
X84388443Y-57741706D01*
X84358153Y-57716847D01*
X84333294Y-57686557D01*
X84314819Y-57651993D01*
X84303445Y-57614499D01*
X84299000Y-57569362D01*
X84299000Y-56930638D01*
X84303445Y-56885501D01*
X84314819Y-56848007D01*
X84333294Y-56813443D01*
X84358153Y-56783153D01*
X84388443Y-56758294D01*
X84423007Y-56739819D01*
X84460501Y-56728445D01*
X84505638Y-56724000D01*
X85244362Y-56724000D01*
X85289499Y-56728445D01*
X85289499Y-56728445D01*
G37*
G36*
X87039499Y-56728445D02*
X87076993Y-56739819D01*
X87111557Y-56758294D01*
X87141847Y-56783153D01*
X87166706Y-56813443D01*
X87185181Y-56848007D01*
X87196555Y-56885501D01*
X87201000Y-56930638D01*
X87201000Y-57569362D01*
X87196555Y-57614499D01*
X87185181Y-57651993D01*
X87166706Y-57686557D01*
X87141847Y-57716847D01*
X87111557Y-57741706D01*
X87076993Y-57760181D01*
X87039499Y-57771555D01*
X86994362Y-57776000D01*
X86255638Y-57776000D01*
X86210501Y-57771555D01*
X86173007Y-57760181D01*
X86138443Y-57741706D01*
X86108153Y-57716847D01*
X86083294Y-57686557D01*
X86064819Y-57651993D01*
X86053445Y-57614499D01*
X86049000Y-57569362D01*
X86049000Y-56930638D01*
X86053445Y-56885501D01*
X86064819Y-56848007D01*
X86083294Y-56813443D01*
X86108153Y-56783153D01*
X86138443Y-56758294D01*
X86173007Y-56739819D01*
X86210501Y-56728445D01*
X86255638Y-56724000D01*
X86994362Y-56724000D01*
X87039499Y-56728445D01*
X87039499Y-56728445D01*
G37*
G36*
X83539499Y-56728445D02*
X83576993Y-56739819D01*
X83611557Y-56758294D01*
X83641847Y-56783153D01*
X83666706Y-56813443D01*
X83685181Y-56848007D01*
X83696555Y-56885501D01*
X83701000Y-56930638D01*
X83701000Y-57569362D01*
X83696555Y-57614499D01*
X83685181Y-57651993D01*
X83666706Y-57686557D01*
X83641847Y-57716847D01*
X83611557Y-57741706D01*
X83576993Y-57760181D01*
X83539499Y-57771555D01*
X83494362Y-57776000D01*
X82755638Y-57776000D01*
X82710501Y-57771555D01*
X82673007Y-57760181D01*
X82638443Y-57741706D01*
X82608153Y-57716847D01*
X82583294Y-57686557D01*
X82564819Y-57651993D01*
X82553445Y-57614499D01*
X82549000Y-57569362D01*
X82549000Y-56930638D01*
X82553445Y-56885501D01*
X82564819Y-56848007D01*
X82583294Y-56813443D01*
X82608153Y-56783153D01*
X82638443Y-56758294D01*
X82673007Y-56739819D01*
X82710501Y-56728445D01*
X82755638Y-56724000D01*
X83494362Y-56724000D01*
X83539499Y-56728445D01*
X83539499Y-56728445D01*
G37*
G36*
X81789499Y-56728445D02*
X81826993Y-56739819D01*
X81861557Y-56758294D01*
X81891847Y-56783153D01*
X81916706Y-56813443D01*
X81935181Y-56848007D01*
X81946555Y-56885501D01*
X81951000Y-56930638D01*
X81951000Y-57569362D01*
X81946555Y-57614499D01*
X81935181Y-57651993D01*
X81916706Y-57686557D01*
X81891847Y-57716847D01*
X81861557Y-57741706D01*
X81826993Y-57760181D01*
X81789499Y-57771555D01*
X81744362Y-57776000D01*
X81005638Y-57776000D01*
X80960501Y-57771555D01*
X80923007Y-57760181D01*
X80888443Y-57741706D01*
X80858153Y-57716847D01*
X80833294Y-57686557D01*
X80814819Y-57651993D01*
X80803445Y-57614499D01*
X80799000Y-57569362D01*
X80799000Y-56930638D01*
X80803445Y-56885501D01*
X80814819Y-56848007D01*
X80833294Y-56813443D01*
X80858153Y-56783153D01*
X80888443Y-56758294D01*
X80923007Y-56739819D01*
X80960501Y-56728445D01*
X81005638Y-56724000D01*
X81744362Y-56724000D01*
X81789499Y-56728445D01*
X81789499Y-56728445D01*
G37*
G36*
X78289499Y-56728445D02*
X78326993Y-56739819D01*
X78361557Y-56758294D01*
X78391847Y-56783153D01*
X78416706Y-56813443D01*
X78435181Y-56848007D01*
X78446555Y-56885501D01*
X78451000Y-56930638D01*
X78451000Y-57569362D01*
X78446555Y-57614499D01*
X78435181Y-57651993D01*
X78416706Y-57686557D01*
X78391847Y-57716847D01*
X78361557Y-57741706D01*
X78326993Y-57760181D01*
X78289499Y-57771555D01*
X78244362Y-57776000D01*
X77505638Y-57776000D01*
X77460501Y-57771555D01*
X77423007Y-57760181D01*
X77388443Y-57741706D01*
X77358153Y-57716847D01*
X77333294Y-57686557D01*
X77314819Y-57651993D01*
X77303445Y-57614499D01*
X77299000Y-57569362D01*
X77299000Y-56930638D01*
X77303445Y-56885501D01*
X77314819Y-56848007D01*
X77333294Y-56813443D01*
X77358153Y-56783153D01*
X77388443Y-56758294D01*
X77423007Y-56739819D01*
X77460501Y-56728445D01*
X77505638Y-56724000D01*
X78244362Y-56724000D01*
X78289499Y-56728445D01*
X78289499Y-56728445D01*
G37*
G36*
X69539499Y-56728445D02*
X69576993Y-56739819D01*
X69611557Y-56758294D01*
X69641847Y-56783153D01*
X69666706Y-56813443D01*
X69685181Y-56848007D01*
X69696555Y-56885501D01*
X69701000Y-56930638D01*
X69701000Y-57569362D01*
X69696555Y-57614499D01*
X69685181Y-57651993D01*
X69666706Y-57686557D01*
X69641847Y-57716847D01*
X69611557Y-57741706D01*
X69576993Y-57760181D01*
X69539499Y-57771555D01*
X69494362Y-57776000D01*
X68755638Y-57776000D01*
X68710501Y-57771555D01*
X68673007Y-57760181D01*
X68638443Y-57741706D01*
X68608153Y-57716847D01*
X68583294Y-57686557D01*
X68564819Y-57651993D01*
X68553445Y-57614499D01*
X68549000Y-57569362D01*
X68549000Y-56930638D01*
X68553445Y-56885501D01*
X68564819Y-56848007D01*
X68583294Y-56813443D01*
X68608153Y-56783153D01*
X68638443Y-56758294D01*
X68673007Y-56739819D01*
X68710501Y-56728445D01*
X68755638Y-56724000D01*
X69494362Y-56724000D01*
X69539499Y-56728445D01*
X69539499Y-56728445D01*
G37*
G36*
X73039499Y-56728445D02*
X73076993Y-56739819D01*
X73111557Y-56758294D01*
X73141847Y-56783153D01*
X73166706Y-56813443D01*
X73185181Y-56848007D01*
X73196555Y-56885501D01*
X73201000Y-56930638D01*
X73201000Y-57569362D01*
X73196555Y-57614499D01*
X73185181Y-57651993D01*
X73166706Y-57686557D01*
X73141847Y-57716847D01*
X73111557Y-57741706D01*
X73076993Y-57760181D01*
X73039499Y-57771555D01*
X72994362Y-57776000D01*
X72255638Y-57776000D01*
X72210501Y-57771555D01*
X72173007Y-57760181D01*
X72138443Y-57741706D01*
X72108153Y-57716847D01*
X72083294Y-57686557D01*
X72064819Y-57651993D01*
X72053445Y-57614499D01*
X72049000Y-57569362D01*
X72049000Y-56930638D01*
X72053445Y-56885501D01*
X72064819Y-56848007D01*
X72083294Y-56813443D01*
X72108153Y-56783153D01*
X72138443Y-56758294D01*
X72173007Y-56739819D01*
X72210501Y-56728445D01*
X72255638Y-56724000D01*
X72994362Y-56724000D01*
X73039499Y-56728445D01*
X73039499Y-56728445D01*
G37*
G36*
X71289499Y-56728445D02*
X71326993Y-56739819D01*
X71361557Y-56758294D01*
X71391847Y-56783153D01*
X71416706Y-56813443D01*
X71435181Y-56848007D01*
X71446555Y-56885501D01*
X71451000Y-56930638D01*
X71451000Y-57569362D01*
X71446555Y-57614499D01*
X71435181Y-57651993D01*
X71416706Y-57686557D01*
X71391847Y-57716847D01*
X71361557Y-57741706D01*
X71326993Y-57760181D01*
X71289499Y-57771555D01*
X71244362Y-57776000D01*
X70505638Y-57776000D01*
X70460501Y-57771555D01*
X70423007Y-57760181D01*
X70388443Y-57741706D01*
X70358153Y-57716847D01*
X70333294Y-57686557D01*
X70314819Y-57651993D01*
X70303445Y-57614499D01*
X70299000Y-57569362D01*
X70299000Y-56930638D01*
X70303445Y-56885501D01*
X70314819Y-56848007D01*
X70333294Y-56813443D01*
X70358153Y-56783153D01*
X70388443Y-56758294D01*
X70423007Y-56739819D01*
X70460501Y-56728445D01*
X70505638Y-56724000D01*
X71244362Y-56724000D01*
X71289499Y-56728445D01*
X71289499Y-56728445D01*
G37*
G36*
X80039499Y-56728445D02*
X80076993Y-56739819D01*
X80111557Y-56758294D01*
X80141847Y-56783153D01*
X80166706Y-56813443D01*
X80185181Y-56848007D01*
X80196555Y-56885501D01*
X80201000Y-56930638D01*
X80201000Y-57569362D01*
X80196555Y-57614499D01*
X80185181Y-57651993D01*
X80166706Y-57686557D01*
X80141847Y-57716847D01*
X80111557Y-57741706D01*
X80076993Y-57760181D01*
X80039499Y-57771555D01*
X79994362Y-57776000D01*
X79255638Y-57776000D01*
X79210501Y-57771555D01*
X79173007Y-57760181D01*
X79138443Y-57741706D01*
X79108153Y-57716847D01*
X79083294Y-57686557D01*
X79064819Y-57651993D01*
X79053445Y-57614499D01*
X79049000Y-57569362D01*
X79049000Y-56930638D01*
X79053445Y-56885501D01*
X79064819Y-56848007D01*
X79083294Y-56813443D01*
X79108153Y-56783153D01*
X79138443Y-56758294D01*
X79173007Y-56739819D01*
X79210501Y-56728445D01*
X79255638Y-56724000D01*
X79994362Y-56724000D01*
X80039499Y-56728445D01*
X80039499Y-56728445D01*
G37*
G36*
X90539499Y-56728445D02*
X90576993Y-56739819D01*
X90611557Y-56758294D01*
X90641847Y-56783153D01*
X90666706Y-56813443D01*
X90685181Y-56848007D01*
X90696555Y-56885501D01*
X90701000Y-56930638D01*
X90701000Y-57569362D01*
X90696555Y-57614499D01*
X90685181Y-57651993D01*
X90666706Y-57686557D01*
X90641847Y-57716847D01*
X90611557Y-57741706D01*
X90576993Y-57760181D01*
X90539499Y-57771555D01*
X90494362Y-57776000D01*
X89755638Y-57776000D01*
X89710501Y-57771555D01*
X89673007Y-57760181D01*
X89638443Y-57741706D01*
X89608153Y-57716847D01*
X89583294Y-57686557D01*
X89564819Y-57651993D01*
X89553445Y-57614499D01*
X89549000Y-57569362D01*
X89549000Y-56930638D01*
X89553445Y-56885501D01*
X89564819Y-56848007D01*
X89583294Y-56813443D01*
X89608153Y-56783153D01*
X89638443Y-56758294D01*
X89673007Y-56739819D01*
X89710501Y-56728445D01*
X89755638Y-56724000D01*
X90494362Y-56724000D01*
X90539499Y-56728445D01*
X90539499Y-56728445D01*
G37*
G36*
X94039499Y-56728445D02*
X94076993Y-56739819D01*
X94111557Y-56758294D01*
X94141847Y-56783153D01*
X94166706Y-56813443D01*
X94185181Y-56848007D01*
X94196555Y-56885501D01*
X94201000Y-56930638D01*
X94201000Y-57569362D01*
X94196555Y-57614499D01*
X94185181Y-57651993D01*
X94166706Y-57686557D01*
X94141847Y-57716847D01*
X94111557Y-57741706D01*
X94076993Y-57760181D01*
X94039499Y-57771555D01*
X93994362Y-57776000D01*
X93255638Y-57776000D01*
X93210501Y-57771555D01*
X93173007Y-57760181D01*
X93138443Y-57741706D01*
X93108153Y-57716847D01*
X93083294Y-57686557D01*
X93064819Y-57651993D01*
X93053445Y-57614499D01*
X93049000Y-57569362D01*
X93049000Y-56930638D01*
X93053445Y-56885501D01*
X93064819Y-56848007D01*
X93083294Y-56813443D01*
X93108153Y-56783153D01*
X93138443Y-56758294D01*
X93173007Y-56739819D01*
X93210501Y-56728445D01*
X93255638Y-56724000D01*
X93994362Y-56724000D01*
X94039499Y-56728445D01*
X94039499Y-56728445D01*
G37*
G36*
X76539499Y-56728445D02*
X76576993Y-56739819D01*
X76611557Y-56758294D01*
X76641847Y-56783153D01*
X76666706Y-56813443D01*
X76685181Y-56848007D01*
X76696555Y-56885501D01*
X76701000Y-56930638D01*
X76701000Y-57569362D01*
X76696555Y-57614499D01*
X76685181Y-57651993D01*
X76666706Y-57686557D01*
X76641847Y-57716847D01*
X76611557Y-57741706D01*
X76576993Y-57760181D01*
X76539499Y-57771555D01*
X76494362Y-57776000D01*
X75755638Y-57776000D01*
X75710501Y-57771555D01*
X75673007Y-57760181D01*
X75638443Y-57741706D01*
X75608153Y-57716847D01*
X75583294Y-57686557D01*
X75564819Y-57651993D01*
X75553445Y-57614499D01*
X75549000Y-57569362D01*
X75549000Y-56930638D01*
X75553445Y-56885501D01*
X75564819Y-56848007D01*
X75583294Y-56813443D01*
X75608153Y-56783153D01*
X75638443Y-56758294D01*
X75673007Y-56739819D01*
X75710501Y-56728445D01*
X75755638Y-56724000D01*
X76494362Y-56724000D01*
X76539499Y-56728445D01*
X76539499Y-56728445D01*
G37*
G36*
X67789499Y-56728445D02*
X67826993Y-56739819D01*
X67861557Y-56758294D01*
X67891847Y-56783153D01*
X67916706Y-56813443D01*
X67935181Y-56848007D01*
X67946555Y-56885501D01*
X67951000Y-56930638D01*
X67951000Y-57569362D01*
X67946555Y-57614499D01*
X67935181Y-57651993D01*
X67916706Y-57686557D01*
X67891847Y-57716847D01*
X67861557Y-57741706D01*
X67826993Y-57760181D01*
X67789499Y-57771555D01*
X67744362Y-57776000D01*
X67005638Y-57776000D01*
X66960501Y-57771555D01*
X66923007Y-57760181D01*
X66888443Y-57741706D01*
X66858153Y-57716847D01*
X66833294Y-57686557D01*
X66814819Y-57651993D01*
X66803445Y-57614499D01*
X66799000Y-57569362D01*
X66799000Y-56930638D01*
X66803445Y-56885501D01*
X66814819Y-56848007D01*
X66833294Y-56813443D01*
X66858153Y-56783153D01*
X66888443Y-56758294D01*
X66923007Y-56739819D01*
X66960501Y-56728445D01*
X67005638Y-56724000D01*
X67744362Y-56724000D01*
X67789499Y-56728445D01*
X67789499Y-56728445D01*
G37*
G36*
X122070443Y-53965519D02*
X122136627Y-53972037D01*
X122249853Y-54006384D01*
X122306467Y-54023557D01*
X122445087Y-54097652D01*
X122462991Y-54107222D01*
X122498729Y-54136552D01*
X122600186Y-54219814D01*
X122683448Y-54321271D01*
X122712778Y-54357009D01*
X122712779Y-54357011D01*
X122796443Y-54513533D01*
X122796443Y-54513534D01*
X122847963Y-54683373D01*
X122865359Y-54860000D01*
X122847963Y-55036627D01*
X122813616Y-55149853D01*
X122796443Y-55206467D01*
X122722348Y-55345087D01*
X122712778Y-55362991D01*
X122683448Y-55398729D01*
X122600186Y-55500186D01*
X122498729Y-55583448D01*
X122462991Y-55612778D01*
X122462989Y-55612779D01*
X122306467Y-55696443D01*
X122249853Y-55713616D01*
X122136627Y-55747963D01*
X122070443Y-55754481D01*
X122004260Y-55761000D01*
X121915740Y-55761000D01*
X121849557Y-55754481D01*
X121783373Y-55747963D01*
X121670147Y-55713616D01*
X121613533Y-55696443D01*
X121457011Y-55612779D01*
X121457009Y-55612778D01*
X121421271Y-55583448D01*
X121319814Y-55500186D01*
X121236552Y-55398729D01*
X121207222Y-55362991D01*
X121197652Y-55345087D01*
X121123557Y-55206467D01*
X121106384Y-55149853D01*
X121072037Y-55036627D01*
X121054641Y-54860000D01*
X121072037Y-54683373D01*
X121123557Y-54513534D01*
X121123557Y-54513533D01*
X121207221Y-54357011D01*
X121207222Y-54357009D01*
X121236552Y-54321271D01*
X121319814Y-54219814D01*
X121421271Y-54136552D01*
X121457009Y-54107222D01*
X121474913Y-54097652D01*
X121613533Y-54023557D01*
X121670147Y-54006384D01*
X121783373Y-53972037D01*
X121849557Y-53965519D01*
X121915740Y-53959000D01*
X122004260Y-53959000D01*
X122070443Y-53965519D01*
X122070443Y-53965519D01*
G37*
G36*
X116990443Y-53965519D02*
X117056627Y-53972037D01*
X117169853Y-54006384D01*
X117226467Y-54023557D01*
X117365087Y-54097652D01*
X117382991Y-54107222D01*
X117418729Y-54136552D01*
X117520186Y-54219814D01*
X117603448Y-54321271D01*
X117632778Y-54357009D01*
X117632779Y-54357011D01*
X117716443Y-54513533D01*
X117716443Y-54513534D01*
X117767963Y-54683373D01*
X117785359Y-54860000D01*
X117767963Y-55036627D01*
X117733616Y-55149853D01*
X117716443Y-55206467D01*
X117642348Y-55345087D01*
X117632778Y-55362991D01*
X117603448Y-55398729D01*
X117520186Y-55500186D01*
X117418729Y-55583448D01*
X117382991Y-55612778D01*
X117382989Y-55612779D01*
X117226467Y-55696443D01*
X117169853Y-55713616D01*
X117056627Y-55747963D01*
X116990443Y-55754481D01*
X116924260Y-55761000D01*
X116835740Y-55761000D01*
X116769557Y-55754481D01*
X116703373Y-55747963D01*
X116590147Y-55713616D01*
X116533533Y-55696443D01*
X116377011Y-55612779D01*
X116377009Y-55612778D01*
X116341271Y-55583448D01*
X116239814Y-55500186D01*
X116156552Y-55398729D01*
X116127222Y-55362991D01*
X116117652Y-55345087D01*
X116043557Y-55206467D01*
X116026384Y-55149853D01*
X115992037Y-55036627D01*
X115974641Y-54860000D01*
X115992037Y-54683373D01*
X116043557Y-54513534D01*
X116043557Y-54513533D01*
X116127221Y-54357011D01*
X116127222Y-54357009D01*
X116156552Y-54321271D01*
X116239814Y-54219814D01*
X116341271Y-54136552D01*
X116377009Y-54107222D01*
X116394913Y-54097652D01*
X116533533Y-54023557D01*
X116590147Y-54006384D01*
X116703373Y-53972037D01*
X116769557Y-53965519D01*
X116835740Y-53959000D01*
X116924260Y-53959000D01*
X116990443Y-53965519D01*
X116990443Y-53965519D01*
G37*
G36*
X119530443Y-53965519D02*
X119596627Y-53972037D01*
X119709853Y-54006384D01*
X119766467Y-54023557D01*
X119905087Y-54097652D01*
X119922991Y-54107222D01*
X119958729Y-54136552D01*
X120060186Y-54219814D01*
X120143448Y-54321271D01*
X120172778Y-54357009D01*
X120172779Y-54357011D01*
X120256443Y-54513533D01*
X120256443Y-54513534D01*
X120307963Y-54683373D01*
X120325359Y-54860000D01*
X120307963Y-55036627D01*
X120273616Y-55149853D01*
X120256443Y-55206467D01*
X120182348Y-55345087D01*
X120172778Y-55362991D01*
X120143448Y-55398729D01*
X120060186Y-55500186D01*
X119958729Y-55583448D01*
X119922991Y-55612778D01*
X119922989Y-55612779D01*
X119766467Y-55696443D01*
X119709853Y-55713616D01*
X119596627Y-55747963D01*
X119530443Y-55754481D01*
X119464260Y-55761000D01*
X119375740Y-55761000D01*
X119309557Y-55754481D01*
X119243373Y-55747963D01*
X119130147Y-55713616D01*
X119073533Y-55696443D01*
X118917011Y-55612779D01*
X118917009Y-55612778D01*
X118881271Y-55583448D01*
X118779814Y-55500186D01*
X118696552Y-55398729D01*
X118667222Y-55362991D01*
X118657652Y-55345087D01*
X118583557Y-55206467D01*
X118566384Y-55149853D01*
X118532037Y-55036627D01*
X118514641Y-54860000D01*
X118532037Y-54683373D01*
X118583557Y-54513534D01*
X118583557Y-54513533D01*
X118667221Y-54357011D01*
X118667222Y-54357009D01*
X118696552Y-54321271D01*
X118779814Y-54219814D01*
X118881271Y-54136552D01*
X118917009Y-54107222D01*
X118934913Y-54097652D01*
X119073533Y-54023557D01*
X119130147Y-54006384D01*
X119243373Y-53972037D01*
X119309557Y-53965519D01*
X119375740Y-53959000D01*
X119464260Y-53959000D01*
X119530443Y-53965519D01*
X119530443Y-53965519D01*
G37*
G36*
X125401000Y-55761000D02*
X123599000Y-55761000D01*
X123599000Y-53959000D01*
X125401000Y-53959000D01*
X125401000Y-55761000D01*
X125401000Y-55761000D01*
G37*
G36*
X132230443Y-53965519D02*
X132296627Y-53972037D01*
X132409853Y-54006384D01*
X132466467Y-54023557D01*
X132605087Y-54097652D01*
X132622991Y-54107222D01*
X132658729Y-54136552D01*
X132760186Y-54219814D01*
X132843448Y-54321271D01*
X132872778Y-54357009D01*
X132872779Y-54357011D01*
X132956443Y-54513533D01*
X132956443Y-54513534D01*
X133007963Y-54683373D01*
X133025359Y-54860000D01*
X133007963Y-55036627D01*
X132973616Y-55149853D01*
X132956443Y-55206467D01*
X132882348Y-55345087D01*
X132872778Y-55362991D01*
X132843448Y-55398729D01*
X132760186Y-55500186D01*
X132658729Y-55583448D01*
X132622991Y-55612778D01*
X132622989Y-55612779D01*
X132466467Y-55696443D01*
X132409853Y-55713616D01*
X132296627Y-55747963D01*
X132230443Y-55754481D01*
X132164260Y-55761000D01*
X132075740Y-55761000D01*
X132009557Y-55754481D01*
X131943373Y-55747963D01*
X131830147Y-55713616D01*
X131773533Y-55696443D01*
X131617011Y-55612779D01*
X131617009Y-55612778D01*
X131581271Y-55583448D01*
X131479814Y-55500186D01*
X131396552Y-55398729D01*
X131367222Y-55362991D01*
X131357652Y-55345087D01*
X131283557Y-55206467D01*
X131266384Y-55149853D01*
X131232037Y-55036627D01*
X131214641Y-54860000D01*
X131232037Y-54683373D01*
X131283557Y-54513534D01*
X131283557Y-54513533D01*
X131367221Y-54357011D01*
X131367222Y-54357009D01*
X131396552Y-54321271D01*
X131479814Y-54219814D01*
X131581271Y-54136552D01*
X131617009Y-54107222D01*
X131634913Y-54097652D01*
X131773533Y-54023557D01*
X131830147Y-54006384D01*
X131943373Y-53972037D01*
X132009557Y-53965519D01*
X132075740Y-53959000D01*
X132164260Y-53959000D01*
X132230443Y-53965519D01*
X132230443Y-53965519D01*
G37*
G36*
X140641000Y-55761000D02*
X138839000Y-55761000D01*
X138839000Y-53959000D01*
X140641000Y-53959000D01*
X140641000Y-55761000D01*
X140641000Y-55761000D01*
G37*
G36*
X137310443Y-53965519D02*
X137376627Y-53972037D01*
X137489853Y-54006384D01*
X137546467Y-54023557D01*
X137685087Y-54097652D01*
X137702991Y-54107222D01*
X137738729Y-54136552D01*
X137840186Y-54219814D01*
X137923448Y-54321271D01*
X137952778Y-54357009D01*
X137952779Y-54357011D01*
X138036443Y-54513533D01*
X138036443Y-54513534D01*
X138087963Y-54683373D01*
X138105359Y-54860000D01*
X138087963Y-55036627D01*
X138053616Y-55149853D01*
X138036443Y-55206467D01*
X137962348Y-55345087D01*
X137952778Y-55362991D01*
X137923448Y-55398729D01*
X137840186Y-55500186D01*
X137738729Y-55583448D01*
X137702991Y-55612778D01*
X137702989Y-55612779D01*
X137546467Y-55696443D01*
X137489853Y-55713616D01*
X137376627Y-55747963D01*
X137310443Y-55754481D01*
X137244260Y-55761000D01*
X137155740Y-55761000D01*
X137089557Y-55754481D01*
X137023373Y-55747963D01*
X136910147Y-55713616D01*
X136853533Y-55696443D01*
X136697011Y-55612779D01*
X136697009Y-55612778D01*
X136661271Y-55583448D01*
X136559814Y-55500186D01*
X136476552Y-55398729D01*
X136447222Y-55362991D01*
X136437652Y-55345087D01*
X136363557Y-55206467D01*
X136346384Y-55149853D01*
X136312037Y-55036627D01*
X136294641Y-54860000D01*
X136312037Y-54683373D01*
X136363557Y-54513534D01*
X136363557Y-54513533D01*
X136447221Y-54357011D01*
X136447222Y-54357009D01*
X136476552Y-54321271D01*
X136559814Y-54219814D01*
X136661271Y-54136552D01*
X136697009Y-54107222D01*
X136714913Y-54097652D01*
X136853533Y-54023557D01*
X136910147Y-54006384D01*
X137023373Y-53972037D01*
X137089557Y-53965519D01*
X137155740Y-53959000D01*
X137244260Y-53959000D01*
X137310443Y-53965519D01*
X137310443Y-53965519D01*
G37*
G36*
X134770443Y-53965519D02*
X134836627Y-53972037D01*
X134949853Y-54006384D01*
X135006467Y-54023557D01*
X135145087Y-54097652D01*
X135162991Y-54107222D01*
X135198729Y-54136552D01*
X135300186Y-54219814D01*
X135383448Y-54321271D01*
X135412778Y-54357009D01*
X135412779Y-54357011D01*
X135496443Y-54513533D01*
X135496443Y-54513534D01*
X135547963Y-54683373D01*
X135565359Y-54860000D01*
X135547963Y-55036627D01*
X135513616Y-55149853D01*
X135496443Y-55206467D01*
X135422348Y-55345087D01*
X135412778Y-55362991D01*
X135383448Y-55398729D01*
X135300186Y-55500186D01*
X135198729Y-55583448D01*
X135162991Y-55612778D01*
X135162989Y-55612779D01*
X135006467Y-55696443D01*
X134949853Y-55713616D01*
X134836627Y-55747963D01*
X134770443Y-55754481D01*
X134704260Y-55761000D01*
X134615740Y-55761000D01*
X134549557Y-55754481D01*
X134483373Y-55747963D01*
X134370147Y-55713616D01*
X134313533Y-55696443D01*
X134157011Y-55612779D01*
X134157009Y-55612778D01*
X134121271Y-55583448D01*
X134019814Y-55500186D01*
X133936552Y-55398729D01*
X133907222Y-55362991D01*
X133897652Y-55345087D01*
X133823557Y-55206467D01*
X133806384Y-55149853D01*
X133772037Y-55036627D01*
X133754641Y-54860000D01*
X133772037Y-54683373D01*
X133823557Y-54513534D01*
X133823557Y-54513533D01*
X133907221Y-54357011D01*
X133907222Y-54357009D01*
X133936552Y-54321271D01*
X134019814Y-54219814D01*
X134121271Y-54136552D01*
X134157009Y-54107222D01*
X134174913Y-54097652D01*
X134313533Y-54023557D01*
X134370147Y-54006384D01*
X134483373Y-53972037D01*
X134549557Y-53965519D01*
X134615740Y-53959000D01*
X134704260Y-53959000D01*
X134770443Y-53965519D01*
X134770443Y-53965519D01*
G37*
G36*
X146788433Y-52124893D02*
X146878657Y-52142839D01*
X146984267Y-52186585D01*
X147133621Y-52248449D01*
X147363089Y-52401774D01*
X147558226Y-52596911D01*
X147711551Y-52826379D01*
X147817161Y-53081344D01*
X147871000Y-53352012D01*
X147871000Y-53627988D01*
X147817161Y-53898656D01*
X147711551Y-54153621D01*
X147558226Y-54383089D01*
X147363089Y-54578226D01*
X147133621Y-54731551D01*
X146984267Y-54793415D01*
X146878657Y-54837161D01*
X146788433Y-54855107D01*
X146607988Y-54891000D01*
X146332012Y-54891000D01*
X146151567Y-54855107D01*
X146061343Y-54837161D01*
X145955733Y-54793415D01*
X145806379Y-54731551D01*
X145576911Y-54578226D01*
X145381774Y-54383089D01*
X145228449Y-54153621D01*
X145122839Y-53898656D01*
X145069000Y-53627988D01*
X145069000Y-53352012D01*
X145122839Y-53081344D01*
X145228449Y-52826379D01*
X145381774Y-52596911D01*
X145576911Y-52401774D01*
X145806379Y-52248449D01*
X145955733Y-52186585D01*
X146061343Y-52142839D01*
X146151567Y-52124893D01*
X146332012Y-52089000D01*
X146607988Y-52089000D01*
X146788433Y-52124893D01*
X146788433Y-52124893D01*
G37*
G36*
X96788433Y-52124893D02*
X96878657Y-52142839D01*
X96984267Y-52186585D01*
X97133621Y-52248449D01*
X97363089Y-52401774D01*
X97558226Y-52596911D01*
X97711551Y-52826379D01*
X97817161Y-53081344D01*
X97871000Y-53352012D01*
X97871000Y-53627988D01*
X97817161Y-53898656D01*
X97711551Y-54153621D01*
X97558226Y-54383089D01*
X97363089Y-54578226D01*
X97133621Y-54731551D01*
X96984267Y-54793415D01*
X96878657Y-54837161D01*
X96788433Y-54855107D01*
X96607988Y-54891000D01*
X96332012Y-54891000D01*
X96151567Y-54855107D01*
X96061343Y-54837161D01*
X95955733Y-54793415D01*
X95806379Y-54731551D01*
X95576911Y-54578226D01*
X95381774Y-54383089D01*
X95228449Y-54153621D01*
X95122839Y-53898656D01*
X95069000Y-53627988D01*
X95069000Y-53352012D01*
X95122839Y-53081344D01*
X95228449Y-52826379D01*
X95381774Y-52596911D01*
X95576911Y-52401774D01*
X95806379Y-52248449D01*
X95955733Y-52186585D01*
X96061343Y-52142839D01*
X96151567Y-52124893D01*
X96332012Y-52089000D01*
X96607988Y-52089000D01*
X96788433Y-52124893D01*
X96788433Y-52124893D01*
G37*
G36*
X51788433Y-52124893D02*
X51878657Y-52142839D01*
X51984267Y-52186585D01*
X52133621Y-52248449D01*
X52363089Y-52401774D01*
X52558226Y-52596911D01*
X52711551Y-52826379D01*
X52817161Y-53081344D01*
X52871000Y-53352012D01*
X52871000Y-53627988D01*
X52817161Y-53898656D01*
X52711551Y-54153621D01*
X52558226Y-54383089D01*
X52363089Y-54578226D01*
X52133621Y-54731551D01*
X51984267Y-54793415D01*
X51878657Y-54837161D01*
X51788433Y-54855107D01*
X51607988Y-54891000D01*
X51332012Y-54891000D01*
X51151567Y-54855107D01*
X51061343Y-54837161D01*
X50955733Y-54793415D01*
X50806379Y-54731551D01*
X50576911Y-54578226D01*
X50381774Y-54383089D01*
X50228449Y-54153621D01*
X50122839Y-53898656D01*
X50069000Y-53627988D01*
X50069000Y-53352012D01*
X50122839Y-53081344D01*
X50228449Y-52826379D01*
X50381774Y-52596911D01*
X50576911Y-52401774D01*
X50806379Y-52248449D01*
X50955733Y-52186585D01*
X51061343Y-52142839D01*
X51151567Y-52124893D01*
X51332012Y-52089000D01*
X51607988Y-52089000D01*
X51788433Y-52124893D01*
X51788433Y-52124893D01*
G37*
G36*
X119530442Y-51605518D02*
X119596627Y-51612037D01*
X119709853Y-51646384D01*
X119766467Y-51663557D01*
X119905087Y-51737652D01*
X119922991Y-51747222D01*
X119958729Y-51776552D01*
X120060186Y-51859814D01*
X120143448Y-51961271D01*
X120172778Y-51997009D01*
X120172779Y-51997011D01*
X120256443Y-52153533D01*
X120256443Y-52153534D01*
X120307963Y-52323373D01*
X120325359Y-52500000D01*
X120307963Y-52676627D01*
X120273616Y-52789853D01*
X120256443Y-52846467D01*
X120182348Y-52985087D01*
X120172778Y-53002991D01*
X120143448Y-53038729D01*
X120060186Y-53140186D01*
X119958729Y-53223448D01*
X119922991Y-53252778D01*
X119922989Y-53252779D01*
X119766467Y-53336443D01*
X119715142Y-53352012D01*
X119596627Y-53387963D01*
X119530443Y-53394481D01*
X119464260Y-53401000D01*
X119375740Y-53401000D01*
X119309557Y-53394481D01*
X119243373Y-53387963D01*
X119124858Y-53352012D01*
X119073533Y-53336443D01*
X118917011Y-53252779D01*
X118917009Y-53252778D01*
X118881271Y-53223448D01*
X118779814Y-53140186D01*
X118696552Y-53038729D01*
X118667222Y-53002991D01*
X118657652Y-52985087D01*
X118583557Y-52846467D01*
X118566384Y-52789853D01*
X118532037Y-52676627D01*
X118514641Y-52500000D01*
X118532037Y-52323373D01*
X118583557Y-52153534D01*
X118583557Y-52153533D01*
X118667221Y-51997011D01*
X118667222Y-51997009D01*
X118696552Y-51961271D01*
X118779814Y-51859814D01*
X118881271Y-51776552D01*
X118917009Y-51747222D01*
X118934913Y-51737652D01*
X119073533Y-51663557D01*
X119130147Y-51646384D01*
X119243373Y-51612037D01*
X119309558Y-51605518D01*
X119375740Y-51599000D01*
X119464260Y-51599000D01*
X119530442Y-51605518D01*
X119530442Y-51605518D01*
G37*
G36*
X116990442Y-51605518D02*
X117056627Y-51612037D01*
X117169853Y-51646384D01*
X117226467Y-51663557D01*
X117365087Y-51737652D01*
X117382991Y-51747222D01*
X117418729Y-51776552D01*
X117520186Y-51859814D01*
X117603448Y-51961271D01*
X117632778Y-51997009D01*
X117632779Y-51997011D01*
X117716443Y-52153533D01*
X117716443Y-52153534D01*
X117767963Y-52323373D01*
X117785359Y-52500000D01*
X117767963Y-52676627D01*
X117733616Y-52789853D01*
X117716443Y-52846467D01*
X117642348Y-52985087D01*
X117632778Y-53002991D01*
X117603448Y-53038729D01*
X117520186Y-53140186D01*
X117418729Y-53223448D01*
X117382991Y-53252778D01*
X117382989Y-53252779D01*
X117226467Y-53336443D01*
X117175142Y-53352012D01*
X117056627Y-53387963D01*
X116990443Y-53394481D01*
X116924260Y-53401000D01*
X116835740Y-53401000D01*
X116769557Y-53394481D01*
X116703373Y-53387963D01*
X116584858Y-53352012D01*
X116533533Y-53336443D01*
X116377011Y-53252779D01*
X116377009Y-53252778D01*
X116341271Y-53223448D01*
X116239814Y-53140186D01*
X116156552Y-53038729D01*
X116127222Y-53002991D01*
X116117652Y-52985087D01*
X116043557Y-52846467D01*
X116026384Y-52789853D01*
X115992037Y-52676627D01*
X115974641Y-52500000D01*
X115992037Y-52323373D01*
X116043557Y-52153534D01*
X116043557Y-52153533D01*
X116127221Y-51997011D01*
X116127222Y-51997009D01*
X116156552Y-51961271D01*
X116239814Y-51859814D01*
X116341271Y-51776552D01*
X116377009Y-51747222D01*
X116394913Y-51737652D01*
X116533533Y-51663557D01*
X116590147Y-51646384D01*
X116703373Y-51612037D01*
X116769558Y-51605518D01*
X116835740Y-51599000D01*
X116924260Y-51599000D01*
X116990442Y-51605518D01*
X116990442Y-51605518D01*
G37*
G36*
X125401000Y-53401000D02*
X123599000Y-53401000D01*
X123599000Y-51599000D01*
X125401000Y-51599000D01*
X125401000Y-53401000D01*
X125401000Y-53401000D01*
G37*
G36*
X122070442Y-51605518D02*
X122136627Y-51612037D01*
X122249853Y-51646384D01*
X122306467Y-51663557D01*
X122445087Y-51737652D01*
X122462991Y-51747222D01*
X122498729Y-51776552D01*
X122600186Y-51859814D01*
X122683448Y-51961271D01*
X122712778Y-51997009D01*
X122712779Y-51997011D01*
X122796443Y-52153533D01*
X122796443Y-52153534D01*
X122847963Y-52323373D01*
X122865359Y-52500000D01*
X122847963Y-52676627D01*
X122813616Y-52789853D01*
X122796443Y-52846467D01*
X122722348Y-52985087D01*
X122712778Y-53002991D01*
X122683448Y-53038729D01*
X122600186Y-53140186D01*
X122498729Y-53223448D01*
X122462991Y-53252778D01*
X122462989Y-53252779D01*
X122306467Y-53336443D01*
X122255142Y-53352012D01*
X122136627Y-53387963D01*
X122070443Y-53394481D01*
X122004260Y-53401000D01*
X121915740Y-53401000D01*
X121849557Y-53394481D01*
X121783373Y-53387963D01*
X121664858Y-53352012D01*
X121613533Y-53336443D01*
X121457011Y-53252779D01*
X121457009Y-53252778D01*
X121421271Y-53223448D01*
X121319814Y-53140186D01*
X121236552Y-53038729D01*
X121207222Y-53002991D01*
X121197652Y-52985087D01*
X121123557Y-52846467D01*
X121106384Y-52789853D01*
X121072037Y-52676627D01*
X121054641Y-52500000D01*
X121072037Y-52323373D01*
X121123557Y-52153534D01*
X121123557Y-52153533D01*
X121207221Y-51997011D01*
X121207222Y-51997009D01*
X121236552Y-51961271D01*
X121319814Y-51859814D01*
X121421271Y-51776552D01*
X121457009Y-51747222D01*
X121474913Y-51737652D01*
X121613533Y-51663557D01*
X121670147Y-51646384D01*
X121783373Y-51612037D01*
X121849558Y-51605518D01*
X121915740Y-51599000D01*
X122004260Y-51599000D01*
X122070442Y-51605518D01*
X122070442Y-51605518D01*
G37*
G36*
X140641000Y-53401000D02*
X138839000Y-53401000D01*
X138839000Y-51599000D01*
X140641000Y-51599000D01*
X140641000Y-53401000D01*
X140641000Y-53401000D01*
G37*
G36*
X137310442Y-51605518D02*
X137376627Y-51612037D01*
X137489853Y-51646384D01*
X137546467Y-51663557D01*
X137685087Y-51737652D01*
X137702991Y-51747222D01*
X137738729Y-51776552D01*
X137840186Y-51859814D01*
X137923448Y-51961271D01*
X137952778Y-51997009D01*
X137952779Y-51997011D01*
X138036443Y-52153533D01*
X138036443Y-52153534D01*
X138087963Y-52323373D01*
X138105359Y-52500000D01*
X138087963Y-52676627D01*
X138053616Y-52789853D01*
X138036443Y-52846467D01*
X137962348Y-52985087D01*
X137952778Y-53002991D01*
X137923448Y-53038729D01*
X137840186Y-53140186D01*
X137738729Y-53223448D01*
X137702991Y-53252778D01*
X137702989Y-53252779D01*
X137546467Y-53336443D01*
X137495142Y-53352012D01*
X137376627Y-53387963D01*
X137310443Y-53394481D01*
X137244260Y-53401000D01*
X137155740Y-53401000D01*
X137089557Y-53394481D01*
X137023373Y-53387963D01*
X136904858Y-53352012D01*
X136853533Y-53336443D01*
X136697011Y-53252779D01*
X136697009Y-53252778D01*
X136661271Y-53223448D01*
X136559814Y-53140186D01*
X136476552Y-53038729D01*
X136447222Y-53002991D01*
X136437652Y-52985087D01*
X136363557Y-52846467D01*
X136346384Y-52789853D01*
X136312037Y-52676627D01*
X136294641Y-52500000D01*
X136312037Y-52323373D01*
X136363557Y-52153534D01*
X136363557Y-52153533D01*
X136447221Y-51997011D01*
X136447222Y-51997009D01*
X136476552Y-51961271D01*
X136559814Y-51859814D01*
X136661271Y-51776552D01*
X136697009Y-51747222D01*
X136714913Y-51737652D01*
X136853533Y-51663557D01*
X136910147Y-51646384D01*
X137023373Y-51612037D01*
X137089558Y-51605518D01*
X137155740Y-51599000D01*
X137244260Y-51599000D01*
X137310442Y-51605518D01*
X137310442Y-51605518D01*
G37*
G36*
X134770442Y-51605518D02*
X134836627Y-51612037D01*
X134949853Y-51646384D01*
X135006467Y-51663557D01*
X135145087Y-51737652D01*
X135162991Y-51747222D01*
X135198729Y-51776552D01*
X135300186Y-51859814D01*
X135383448Y-51961271D01*
X135412778Y-51997009D01*
X135412779Y-51997011D01*
X135496443Y-52153533D01*
X135496443Y-52153534D01*
X135547963Y-52323373D01*
X135565359Y-52500000D01*
X135547963Y-52676627D01*
X135513616Y-52789853D01*
X135496443Y-52846467D01*
X135422348Y-52985087D01*
X135412778Y-53002991D01*
X135383448Y-53038729D01*
X135300186Y-53140186D01*
X135198729Y-53223448D01*
X135162991Y-53252778D01*
X135162989Y-53252779D01*
X135006467Y-53336443D01*
X134955142Y-53352012D01*
X134836627Y-53387963D01*
X134770443Y-53394481D01*
X134704260Y-53401000D01*
X134615740Y-53401000D01*
X134549557Y-53394481D01*
X134483373Y-53387963D01*
X134364858Y-53352012D01*
X134313533Y-53336443D01*
X134157011Y-53252779D01*
X134157009Y-53252778D01*
X134121271Y-53223448D01*
X134019814Y-53140186D01*
X133936552Y-53038729D01*
X133907222Y-53002991D01*
X133897652Y-52985087D01*
X133823557Y-52846467D01*
X133806384Y-52789853D01*
X133772037Y-52676627D01*
X133754641Y-52500000D01*
X133772037Y-52323373D01*
X133823557Y-52153534D01*
X133823557Y-52153533D01*
X133907221Y-51997011D01*
X133907222Y-51997009D01*
X133936552Y-51961271D01*
X134019814Y-51859814D01*
X134121271Y-51776552D01*
X134157009Y-51747222D01*
X134174913Y-51737652D01*
X134313533Y-51663557D01*
X134370147Y-51646384D01*
X134483373Y-51612037D01*
X134549558Y-51605518D01*
X134615740Y-51599000D01*
X134704260Y-51599000D01*
X134770442Y-51605518D01*
X134770442Y-51605518D01*
G37*
G36*
X132230442Y-51605518D02*
X132296627Y-51612037D01*
X132409853Y-51646384D01*
X132466467Y-51663557D01*
X132605087Y-51737652D01*
X132622991Y-51747222D01*
X132658729Y-51776552D01*
X132760186Y-51859814D01*
X132843448Y-51961271D01*
X132872778Y-51997009D01*
X132872779Y-51997011D01*
X132956443Y-52153533D01*
X132956443Y-52153534D01*
X133007963Y-52323373D01*
X133025359Y-52500000D01*
X133007963Y-52676627D01*
X132973616Y-52789853D01*
X132956443Y-52846467D01*
X132882348Y-52985087D01*
X132872778Y-53002991D01*
X132843448Y-53038729D01*
X132760186Y-53140186D01*
X132658729Y-53223448D01*
X132622991Y-53252778D01*
X132622989Y-53252779D01*
X132466467Y-53336443D01*
X132415142Y-53352012D01*
X132296627Y-53387963D01*
X132230443Y-53394481D01*
X132164260Y-53401000D01*
X132075740Y-53401000D01*
X132009557Y-53394481D01*
X131943373Y-53387963D01*
X131824858Y-53352012D01*
X131773533Y-53336443D01*
X131617011Y-53252779D01*
X131617009Y-53252778D01*
X131581271Y-53223448D01*
X131479814Y-53140186D01*
X131396552Y-53038729D01*
X131367222Y-53002991D01*
X131357652Y-52985087D01*
X131283557Y-52846467D01*
X131266384Y-52789853D01*
X131232037Y-52676627D01*
X131214641Y-52500000D01*
X131232037Y-52323373D01*
X131283557Y-52153534D01*
X131283557Y-52153533D01*
X131367221Y-51997011D01*
X131367222Y-51997009D01*
X131396552Y-51961271D01*
X131479814Y-51859814D01*
X131581271Y-51776552D01*
X131617009Y-51747222D01*
X131634913Y-51737652D01*
X131773533Y-51663557D01*
X131830147Y-51646384D01*
X131943373Y-51612037D01*
X132009558Y-51605518D01*
X132075740Y-51599000D01*
X132164260Y-51599000D01*
X132230442Y-51605518D01*
X132230442Y-51605518D01*
G37*
M02*
