G04 #@! TF.GenerationSoftware,KiCad,Pcbnew,(5.0.1)*
G04 #@! TF.CreationDate,2018-11-27T11:36:47+09:00*
G04 #@! TF.ProjectId,securehid,7365637572656869642E6B696361645F,rev?*
G04 #@! TF.SameCoordinates,Original*
G04 #@! TF.FileFunction,Profile,NP*
%FSLAX46Y46*%
G04 Gerber Fmt 4.6, Leading zero omitted, Abs format (unit mm)*
G04 Created by KiCad (PCBNEW (5.0.1)) date Tue Nov 27 11:36:47 2018*
%MOMM*%
%LPD*%
G01*
G04 APERTURE LIST*
%ADD10C,0.200000*%
G04 APERTURE END LIST*
D10*
X45713871Y-104249310D02*
X46463183Y-105163179D01*
X41471074Y-59492509D02*
X34470984Y-59492509D01*
X34470984Y-59492509D02*
X34470984Y-102491954D01*
X42647124Y-59376179D02*
X41471074Y-59492509D01*
X47471234Y-53492359D02*
X47354902Y-54668409D01*
X47354902Y-54668409D02*
X47014539Y-55788543D01*
X47014539Y-55788543D02*
X46463183Y-56821284D01*
X46463183Y-56821284D02*
X45713871Y-57735153D01*
X45713871Y-57735153D02*
X44800000Y-58484463D01*
X44800000Y-58484463D02*
X43767258Y-59035818D01*
X43767258Y-59035818D02*
X42647124Y-59376179D01*
X47471234Y-46492269D02*
X47471234Y-53492359D01*
X103116634Y-58467934D02*
X102228640Y-57735334D01*
X102228640Y-57735334D02*
X101495962Y-56847403D01*
X101495962Y-56847403D02*
X100942728Y-55828267D01*
X100942728Y-55828267D02*
X100593064Y-54702051D01*
X100593064Y-54702051D02*
X100471097Y-53492879D01*
X100471097Y-53492879D02*
X100471097Y-46492269D01*
X100471097Y-46492269D02*
X47471234Y-46492269D01*
X104135818Y-59021080D02*
X103116634Y-58467934D01*
X111446130Y-56847241D02*
X110713524Y-57735153D01*
X110713524Y-57735153D02*
X109825611Y-58467758D01*
X109825611Y-58467758D02*
X108806513Y-59020933D01*
X108806513Y-59020933D02*
X107680351Y-59370558D01*
X107680351Y-59370558D02*
X106471247Y-59492509D01*
X106471247Y-59492509D02*
X105262064Y-59370647D01*
X105262064Y-59370647D02*
X104135818Y-59021080D01*
X111999307Y-55828144D02*
X111446130Y-56847241D01*
X150927321Y-55788540D02*
X150586959Y-54668407D01*
X150586959Y-54668407D02*
X150470627Y-53492359D01*
X150470627Y-53492359D02*
X150470627Y-46492269D01*
X150470627Y-46492269D02*
X112470887Y-46492269D01*
X112470887Y-46492269D02*
X112470887Y-53492879D01*
X112470887Y-53492879D02*
X112348934Y-54701982D01*
X112348934Y-54701982D02*
X111999307Y-55828144D01*
X151478676Y-56821281D02*
X150927321Y-55788540D01*
X163470867Y-102491954D02*
X163470867Y-59492509D01*
X163470867Y-59492509D02*
X156470777Y-59492509D01*
X156470777Y-59492509D02*
X155294729Y-59376177D01*
X155294729Y-59376177D02*
X154174596Y-59035815D01*
X154174596Y-59035815D02*
X153141855Y-58484460D01*
X153141855Y-58484460D02*
X152227986Y-57735150D01*
X152227986Y-57735150D02*
X151478676Y-56821281D01*
X156470777Y-102491954D02*
X163470867Y-102491954D01*
X150586959Y-107316056D02*
X150927321Y-106195923D01*
X150927321Y-106195923D02*
X151478676Y-105163182D01*
X151478676Y-105163182D02*
X152227986Y-104249313D01*
X152227986Y-104249313D02*
X153141855Y-103500003D01*
X153141855Y-103500003D02*
X154174596Y-102948648D01*
X154174596Y-102948648D02*
X155294729Y-102608286D01*
X155294729Y-102608286D02*
X156470777Y-102491954D01*
X150470627Y-108492104D02*
X150586959Y-107316056D01*
X110713524Y-104249310D02*
X111446130Y-105137222D01*
X111446130Y-105137222D02*
X111999307Y-106156319D01*
X111999307Y-106156319D02*
X112348934Y-107282481D01*
X112348934Y-107282481D02*
X112470887Y-108491584D01*
X112470887Y-108491584D02*
X112470887Y-115492194D01*
X112470887Y-115492194D02*
X150470627Y-115492194D01*
X150470627Y-115492194D02*
X150470627Y-108492104D01*
X109825611Y-103516705D02*
X110713524Y-104249310D01*
X102228640Y-104249129D02*
X103116634Y-103516529D01*
X103116634Y-103516529D02*
X104135818Y-102963383D01*
X104135818Y-102963383D02*
X105262064Y-102613816D01*
X105262064Y-102613816D02*
X106471247Y-102491954D01*
X106471247Y-102491954D02*
X107680351Y-102613905D01*
X107680351Y-102613905D02*
X108806513Y-102963530D01*
X108806513Y-102963530D02*
X109825611Y-103516705D01*
X101495962Y-105137060D02*
X102228640Y-104249129D01*
X47354902Y-107316054D02*
X47471234Y-108492104D01*
X47471234Y-108492104D02*
X47471234Y-115492194D01*
X47471234Y-115492194D02*
X100471097Y-115492194D01*
X100471097Y-115492194D02*
X100471097Y-108491584D01*
X46463183Y-105163179D02*
X47014539Y-106195920D01*
X100471097Y-108491584D02*
X100593064Y-107282412D01*
X100593064Y-107282412D02*
X100942728Y-106156196D01*
X100942728Y-106156196D02*
X101495962Y-105137060D01*
X47014539Y-106195920D02*
X47354902Y-107316054D01*
X34470984Y-102491954D02*
X41471074Y-102491954D01*
X41471074Y-102491954D02*
X42647124Y-102608284D01*
X42647124Y-102608284D02*
X43767258Y-102948645D01*
X43767258Y-102948645D02*
X44800000Y-103500000D01*
X44800000Y-103500000D02*
X45713871Y-104249310D01*
M02*
