G04 #@! TF.GenerationSoftware,KiCad,Pcbnew,(5.0.1)*
G04 #@! TF.CreationDate,2018-11-27T11:36:47+09:00*
G04 #@! TF.ProjectId,securehid,7365637572656869642E6B696361645F,rev?*
G04 #@! TF.SameCoordinates,Original*
G04 #@! TF.FileFunction,Paste,Top*
G04 #@! TF.FilePolarity,Positive*
%FSLAX46Y46*%
G04 Gerber Fmt 4.6, Leading zero omitted, Abs format (unit mm)*
G04 Created by KiCad (PCBNEW (5.0.1)) date Tue Nov 27 11:36:47 2018*
%MOMM*%
%LPD*%
G01*
G04 APERTURE LIST*
%ADD10C,0.100000*%
%ADD11C,0.950000*%
%ADD12R,0.900000X0.800000*%
%ADD13R,0.500000X0.800000*%
%ADD14R,0.400000X0.800000*%
%ADD15R,3.800000X2.000000*%
%ADD16R,1.500000X2.000000*%
%ADD17R,1.300000X0.250000*%
%ADD18R,0.250000X1.300000*%
%ADD19R,1.500000X0.280000*%
%ADD20R,0.280000X1.500000*%
%ADD21R,1.200000X0.400000*%
%ADD22R,1.400000X1.200000*%
G04 APERTURE END LIST*
D10*
G04 #@! TO.C,C1*
G36*
X74235779Y-70726144D02*
X74258834Y-70729563D01*
X74281443Y-70735227D01*
X74303387Y-70743079D01*
X74324457Y-70753044D01*
X74344448Y-70765026D01*
X74363168Y-70778910D01*
X74380438Y-70794562D01*
X74396090Y-70811832D01*
X74409974Y-70830552D01*
X74421956Y-70850543D01*
X74431921Y-70871613D01*
X74439773Y-70893557D01*
X74445437Y-70916166D01*
X74448856Y-70939221D01*
X74450000Y-70962500D01*
X74450000Y-71437500D01*
X74448856Y-71460779D01*
X74445437Y-71483834D01*
X74439773Y-71506443D01*
X74431921Y-71528387D01*
X74421956Y-71549457D01*
X74409974Y-71569448D01*
X74396090Y-71588168D01*
X74380438Y-71605438D01*
X74363168Y-71621090D01*
X74344448Y-71634974D01*
X74324457Y-71646956D01*
X74303387Y-71656921D01*
X74281443Y-71664773D01*
X74258834Y-71670437D01*
X74235779Y-71673856D01*
X74212500Y-71675000D01*
X73637500Y-71675000D01*
X73614221Y-71673856D01*
X73591166Y-71670437D01*
X73568557Y-71664773D01*
X73546613Y-71656921D01*
X73525543Y-71646956D01*
X73505552Y-71634974D01*
X73486832Y-71621090D01*
X73469562Y-71605438D01*
X73453910Y-71588168D01*
X73440026Y-71569448D01*
X73428044Y-71549457D01*
X73418079Y-71528387D01*
X73410227Y-71506443D01*
X73404563Y-71483834D01*
X73401144Y-71460779D01*
X73400000Y-71437500D01*
X73400000Y-70962500D01*
X73401144Y-70939221D01*
X73404563Y-70916166D01*
X73410227Y-70893557D01*
X73418079Y-70871613D01*
X73428044Y-70850543D01*
X73440026Y-70830552D01*
X73453910Y-70811832D01*
X73469562Y-70794562D01*
X73486832Y-70778910D01*
X73505552Y-70765026D01*
X73525543Y-70753044D01*
X73546613Y-70743079D01*
X73568557Y-70735227D01*
X73591166Y-70729563D01*
X73614221Y-70726144D01*
X73637500Y-70725000D01*
X74212500Y-70725000D01*
X74235779Y-70726144D01*
X74235779Y-70726144D01*
G37*
D11*
X73925000Y-71200000D03*
D10*
G36*
X75985779Y-70726144D02*
X76008834Y-70729563D01*
X76031443Y-70735227D01*
X76053387Y-70743079D01*
X76074457Y-70753044D01*
X76094448Y-70765026D01*
X76113168Y-70778910D01*
X76130438Y-70794562D01*
X76146090Y-70811832D01*
X76159974Y-70830552D01*
X76171956Y-70850543D01*
X76181921Y-70871613D01*
X76189773Y-70893557D01*
X76195437Y-70916166D01*
X76198856Y-70939221D01*
X76200000Y-70962500D01*
X76200000Y-71437500D01*
X76198856Y-71460779D01*
X76195437Y-71483834D01*
X76189773Y-71506443D01*
X76181921Y-71528387D01*
X76171956Y-71549457D01*
X76159974Y-71569448D01*
X76146090Y-71588168D01*
X76130438Y-71605438D01*
X76113168Y-71621090D01*
X76094448Y-71634974D01*
X76074457Y-71646956D01*
X76053387Y-71656921D01*
X76031443Y-71664773D01*
X76008834Y-71670437D01*
X75985779Y-71673856D01*
X75962500Y-71675000D01*
X75387500Y-71675000D01*
X75364221Y-71673856D01*
X75341166Y-71670437D01*
X75318557Y-71664773D01*
X75296613Y-71656921D01*
X75275543Y-71646956D01*
X75255552Y-71634974D01*
X75236832Y-71621090D01*
X75219562Y-71605438D01*
X75203910Y-71588168D01*
X75190026Y-71569448D01*
X75178044Y-71549457D01*
X75168079Y-71528387D01*
X75160227Y-71506443D01*
X75154563Y-71483834D01*
X75151144Y-71460779D01*
X75150000Y-71437500D01*
X75150000Y-70962500D01*
X75151144Y-70939221D01*
X75154563Y-70916166D01*
X75160227Y-70893557D01*
X75168079Y-70871613D01*
X75178044Y-70850543D01*
X75190026Y-70830552D01*
X75203910Y-70811832D01*
X75219562Y-70794562D01*
X75236832Y-70778910D01*
X75255552Y-70765026D01*
X75275543Y-70753044D01*
X75296613Y-70743079D01*
X75318557Y-70735227D01*
X75341166Y-70729563D01*
X75364221Y-70726144D01*
X75387500Y-70725000D01*
X75962500Y-70725000D01*
X75985779Y-70726144D01*
X75985779Y-70726144D01*
G37*
D11*
X75675000Y-71200000D03*
G04 #@! TD*
D10*
G04 #@! TO.C,C2*
G36*
X91760779Y-68601144D02*
X91783834Y-68604563D01*
X91806443Y-68610227D01*
X91828387Y-68618079D01*
X91849457Y-68628044D01*
X91869448Y-68640026D01*
X91888168Y-68653910D01*
X91905438Y-68669562D01*
X91921090Y-68686832D01*
X91934974Y-68705552D01*
X91946956Y-68725543D01*
X91956921Y-68746613D01*
X91964773Y-68768557D01*
X91970437Y-68791166D01*
X91973856Y-68814221D01*
X91975000Y-68837500D01*
X91975000Y-69412500D01*
X91973856Y-69435779D01*
X91970437Y-69458834D01*
X91964773Y-69481443D01*
X91956921Y-69503387D01*
X91946956Y-69524457D01*
X91934974Y-69544448D01*
X91921090Y-69563168D01*
X91905438Y-69580438D01*
X91888168Y-69596090D01*
X91869448Y-69609974D01*
X91849457Y-69621956D01*
X91828387Y-69631921D01*
X91806443Y-69639773D01*
X91783834Y-69645437D01*
X91760779Y-69648856D01*
X91737500Y-69650000D01*
X91262500Y-69650000D01*
X91239221Y-69648856D01*
X91216166Y-69645437D01*
X91193557Y-69639773D01*
X91171613Y-69631921D01*
X91150543Y-69621956D01*
X91130552Y-69609974D01*
X91111832Y-69596090D01*
X91094562Y-69580438D01*
X91078910Y-69563168D01*
X91065026Y-69544448D01*
X91053044Y-69524457D01*
X91043079Y-69503387D01*
X91035227Y-69481443D01*
X91029563Y-69458834D01*
X91026144Y-69435779D01*
X91025000Y-69412500D01*
X91025000Y-68837500D01*
X91026144Y-68814221D01*
X91029563Y-68791166D01*
X91035227Y-68768557D01*
X91043079Y-68746613D01*
X91053044Y-68725543D01*
X91065026Y-68705552D01*
X91078910Y-68686832D01*
X91094562Y-68669562D01*
X91111832Y-68653910D01*
X91130552Y-68640026D01*
X91150543Y-68628044D01*
X91171613Y-68618079D01*
X91193557Y-68610227D01*
X91216166Y-68604563D01*
X91239221Y-68601144D01*
X91262500Y-68600000D01*
X91737500Y-68600000D01*
X91760779Y-68601144D01*
X91760779Y-68601144D01*
G37*
D11*
X91500000Y-69125000D03*
D10*
G36*
X91760779Y-66851144D02*
X91783834Y-66854563D01*
X91806443Y-66860227D01*
X91828387Y-66868079D01*
X91849457Y-66878044D01*
X91869448Y-66890026D01*
X91888168Y-66903910D01*
X91905438Y-66919562D01*
X91921090Y-66936832D01*
X91934974Y-66955552D01*
X91946956Y-66975543D01*
X91956921Y-66996613D01*
X91964773Y-67018557D01*
X91970437Y-67041166D01*
X91973856Y-67064221D01*
X91975000Y-67087500D01*
X91975000Y-67662500D01*
X91973856Y-67685779D01*
X91970437Y-67708834D01*
X91964773Y-67731443D01*
X91956921Y-67753387D01*
X91946956Y-67774457D01*
X91934974Y-67794448D01*
X91921090Y-67813168D01*
X91905438Y-67830438D01*
X91888168Y-67846090D01*
X91869448Y-67859974D01*
X91849457Y-67871956D01*
X91828387Y-67881921D01*
X91806443Y-67889773D01*
X91783834Y-67895437D01*
X91760779Y-67898856D01*
X91737500Y-67900000D01*
X91262500Y-67900000D01*
X91239221Y-67898856D01*
X91216166Y-67895437D01*
X91193557Y-67889773D01*
X91171613Y-67881921D01*
X91150543Y-67871956D01*
X91130552Y-67859974D01*
X91111832Y-67846090D01*
X91094562Y-67830438D01*
X91078910Y-67813168D01*
X91065026Y-67794448D01*
X91053044Y-67774457D01*
X91043079Y-67753387D01*
X91035227Y-67731443D01*
X91029563Y-67708834D01*
X91026144Y-67685779D01*
X91025000Y-67662500D01*
X91025000Y-67087500D01*
X91026144Y-67064221D01*
X91029563Y-67041166D01*
X91035227Y-67018557D01*
X91043079Y-66996613D01*
X91053044Y-66975543D01*
X91065026Y-66955552D01*
X91078910Y-66936832D01*
X91094562Y-66919562D01*
X91111832Y-66903910D01*
X91130552Y-66890026D01*
X91150543Y-66878044D01*
X91171613Y-66868079D01*
X91193557Y-66860227D01*
X91216166Y-66854563D01*
X91239221Y-66851144D01*
X91262500Y-66850000D01*
X91737500Y-66850000D01*
X91760779Y-66851144D01*
X91760779Y-66851144D01*
G37*
D11*
X91500000Y-67375000D03*
G04 #@! TD*
D10*
G04 #@! TO.C,C4*
G36*
X76010779Y-92351144D02*
X76033834Y-92354563D01*
X76056443Y-92360227D01*
X76078387Y-92368079D01*
X76099457Y-92378044D01*
X76119448Y-92390026D01*
X76138168Y-92403910D01*
X76155438Y-92419562D01*
X76171090Y-92436832D01*
X76184974Y-92455552D01*
X76196956Y-92475543D01*
X76206921Y-92496613D01*
X76214773Y-92518557D01*
X76220437Y-92541166D01*
X76223856Y-92564221D01*
X76225000Y-92587500D01*
X76225000Y-93162500D01*
X76223856Y-93185779D01*
X76220437Y-93208834D01*
X76214773Y-93231443D01*
X76206921Y-93253387D01*
X76196956Y-93274457D01*
X76184974Y-93294448D01*
X76171090Y-93313168D01*
X76155438Y-93330438D01*
X76138168Y-93346090D01*
X76119448Y-93359974D01*
X76099457Y-93371956D01*
X76078387Y-93381921D01*
X76056443Y-93389773D01*
X76033834Y-93395437D01*
X76010779Y-93398856D01*
X75987500Y-93400000D01*
X75512500Y-93400000D01*
X75489221Y-93398856D01*
X75466166Y-93395437D01*
X75443557Y-93389773D01*
X75421613Y-93381921D01*
X75400543Y-93371956D01*
X75380552Y-93359974D01*
X75361832Y-93346090D01*
X75344562Y-93330438D01*
X75328910Y-93313168D01*
X75315026Y-93294448D01*
X75303044Y-93274457D01*
X75293079Y-93253387D01*
X75285227Y-93231443D01*
X75279563Y-93208834D01*
X75276144Y-93185779D01*
X75275000Y-93162500D01*
X75275000Y-92587500D01*
X75276144Y-92564221D01*
X75279563Y-92541166D01*
X75285227Y-92518557D01*
X75293079Y-92496613D01*
X75303044Y-92475543D01*
X75315026Y-92455552D01*
X75328910Y-92436832D01*
X75344562Y-92419562D01*
X75361832Y-92403910D01*
X75380552Y-92390026D01*
X75400543Y-92378044D01*
X75421613Y-92368079D01*
X75443557Y-92360227D01*
X75466166Y-92354563D01*
X75489221Y-92351144D01*
X75512500Y-92350000D01*
X75987500Y-92350000D01*
X76010779Y-92351144D01*
X76010779Y-92351144D01*
G37*
D11*
X75750000Y-92875000D03*
D10*
G36*
X76010779Y-90601144D02*
X76033834Y-90604563D01*
X76056443Y-90610227D01*
X76078387Y-90618079D01*
X76099457Y-90628044D01*
X76119448Y-90640026D01*
X76138168Y-90653910D01*
X76155438Y-90669562D01*
X76171090Y-90686832D01*
X76184974Y-90705552D01*
X76196956Y-90725543D01*
X76206921Y-90746613D01*
X76214773Y-90768557D01*
X76220437Y-90791166D01*
X76223856Y-90814221D01*
X76225000Y-90837500D01*
X76225000Y-91412500D01*
X76223856Y-91435779D01*
X76220437Y-91458834D01*
X76214773Y-91481443D01*
X76206921Y-91503387D01*
X76196956Y-91524457D01*
X76184974Y-91544448D01*
X76171090Y-91563168D01*
X76155438Y-91580438D01*
X76138168Y-91596090D01*
X76119448Y-91609974D01*
X76099457Y-91621956D01*
X76078387Y-91631921D01*
X76056443Y-91639773D01*
X76033834Y-91645437D01*
X76010779Y-91648856D01*
X75987500Y-91650000D01*
X75512500Y-91650000D01*
X75489221Y-91648856D01*
X75466166Y-91645437D01*
X75443557Y-91639773D01*
X75421613Y-91631921D01*
X75400543Y-91621956D01*
X75380552Y-91609974D01*
X75361832Y-91596090D01*
X75344562Y-91580438D01*
X75328910Y-91563168D01*
X75315026Y-91544448D01*
X75303044Y-91524457D01*
X75293079Y-91503387D01*
X75285227Y-91481443D01*
X75279563Y-91458834D01*
X75276144Y-91435779D01*
X75275000Y-91412500D01*
X75275000Y-90837500D01*
X75276144Y-90814221D01*
X75279563Y-90791166D01*
X75285227Y-90768557D01*
X75293079Y-90746613D01*
X75303044Y-90725543D01*
X75315026Y-90705552D01*
X75328910Y-90686832D01*
X75344562Y-90669562D01*
X75361832Y-90653910D01*
X75380552Y-90640026D01*
X75400543Y-90628044D01*
X75421613Y-90618079D01*
X75443557Y-90610227D01*
X75466166Y-90604563D01*
X75489221Y-90601144D01*
X75512500Y-90600000D01*
X75987500Y-90600000D01*
X76010779Y-90601144D01*
X76010779Y-90601144D01*
G37*
D11*
X75750000Y-91125000D03*
G04 #@! TD*
D10*
G04 #@! TO.C,C11*
G36*
X94510779Y-75101144D02*
X94533834Y-75104563D01*
X94556443Y-75110227D01*
X94578387Y-75118079D01*
X94599457Y-75128044D01*
X94619448Y-75140026D01*
X94638168Y-75153910D01*
X94655438Y-75169562D01*
X94671090Y-75186832D01*
X94684974Y-75205552D01*
X94696956Y-75225543D01*
X94706921Y-75246613D01*
X94714773Y-75268557D01*
X94720437Y-75291166D01*
X94723856Y-75314221D01*
X94725000Y-75337500D01*
X94725000Y-75912500D01*
X94723856Y-75935779D01*
X94720437Y-75958834D01*
X94714773Y-75981443D01*
X94706921Y-76003387D01*
X94696956Y-76024457D01*
X94684974Y-76044448D01*
X94671090Y-76063168D01*
X94655438Y-76080438D01*
X94638168Y-76096090D01*
X94619448Y-76109974D01*
X94599457Y-76121956D01*
X94578387Y-76131921D01*
X94556443Y-76139773D01*
X94533834Y-76145437D01*
X94510779Y-76148856D01*
X94487500Y-76150000D01*
X94012500Y-76150000D01*
X93989221Y-76148856D01*
X93966166Y-76145437D01*
X93943557Y-76139773D01*
X93921613Y-76131921D01*
X93900543Y-76121956D01*
X93880552Y-76109974D01*
X93861832Y-76096090D01*
X93844562Y-76080438D01*
X93828910Y-76063168D01*
X93815026Y-76044448D01*
X93803044Y-76024457D01*
X93793079Y-76003387D01*
X93785227Y-75981443D01*
X93779563Y-75958834D01*
X93776144Y-75935779D01*
X93775000Y-75912500D01*
X93775000Y-75337500D01*
X93776144Y-75314221D01*
X93779563Y-75291166D01*
X93785227Y-75268557D01*
X93793079Y-75246613D01*
X93803044Y-75225543D01*
X93815026Y-75205552D01*
X93828910Y-75186832D01*
X93844562Y-75169562D01*
X93861832Y-75153910D01*
X93880552Y-75140026D01*
X93900543Y-75128044D01*
X93921613Y-75118079D01*
X93943557Y-75110227D01*
X93966166Y-75104563D01*
X93989221Y-75101144D01*
X94012500Y-75100000D01*
X94487500Y-75100000D01*
X94510779Y-75101144D01*
X94510779Y-75101144D01*
G37*
D11*
X94250000Y-75625000D03*
D10*
G36*
X94510779Y-76851144D02*
X94533834Y-76854563D01*
X94556443Y-76860227D01*
X94578387Y-76868079D01*
X94599457Y-76878044D01*
X94619448Y-76890026D01*
X94638168Y-76903910D01*
X94655438Y-76919562D01*
X94671090Y-76936832D01*
X94684974Y-76955552D01*
X94696956Y-76975543D01*
X94706921Y-76996613D01*
X94714773Y-77018557D01*
X94720437Y-77041166D01*
X94723856Y-77064221D01*
X94725000Y-77087500D01*
X94725000Y-77662500D01*
X94723856Y-77685779D01*
X94720437Y-77708834D01*
X94714773Y-77731443D01*
X94706921Y-77753387D01*
X94696956Y-77774457D01*
X94684974Y-77794448D01*
X94671090Y-77813168D01*
X94655438Y-77830438D01*
X94638168Y-77846090D01*
X94619448Y-77859974D01*
X94599457Y-77871956D01*
X94578387Y-77881921D01*
X94556443Y-77889773D01*
X94533834Y-77895437D01*
X94510779Y-77898856D01*
X94487500Y-77900000D01*
X94012500Y-77900000D01*
X93989221Y-77898856D01*
X93966166Y-77895437D01*
X93943557Y-77889773D01*
X93921613Y-77881921D01*
X93900543Y-77871956D01*
X93880552Y-77859974D01*
X93861832Y-77846090D01*
X93844562Y-77830438D01*
X93828910Y-77813168D01*
X93815026Y-77794448D01*
X93803044Y-77774457D01*
X93793079Y-77753387D01*
X93785227Y-77731443D01*
X93779563Y-77708834D01*
X93776144Y-77685779D01*
X93775000Y-77662500D01*
X93775000Y-77087500D01*
X93776144Y-77064221D01*
X93779563Y-77041166D01*
X93785227Y-77018557D01*
X93793079Y-76996613D01*
X93803044Y-76975543D01*
X93815026Y-76955552D01*
X93828910Y-76936832D01*
X93844562Y-76919562D01*
X93861832Y-76903910D01*
X93880552Y-76890026D01*
X93900543Y-76878044D01*
X93921613Y-76868079D01*
X93943557Y-76860227D01*
X93966166Y-76854563D01*
X93989221Y-76851144D01*
X94012500Y-76850000D01*
X94487500Y-76850000D01*
X94510779Y-76851144D01*
X94510779Y-76851144D01*
G37*
D11*
X94250000Y-77375000D03*
G04 #@! TD*
D10*
G04 #@! TO.C,C13*
G36*
X133160779Y-74801144D02*
X133183834Y-74804563D01*
X133206443Y-74810227D01*
X133228387Y-74818079D01*
X133249457Y-74828044D01*
X133269448Y-74840026D01*
X133288168Y-74853910D01*
X133305438Y-74869562D01*
X133321090Y-74886832D01*
X133334974Y-74905552D01*
X133346956Y-74925543D01*
X133356921Y-74946613D01*
X133364773Y-74968557D01*
X133370437Y-74991166D01*
X133373856Y-75014221D01*
X133375000Y-75037500D01*
X133375000Y-75612500D01*
X133373856Y-75635779D01*
X133370437Y-75658834D01*
X133364773Y-75681443D01*
X133356921Y-75703387D01*
X133346956Y-75724457D01*
X133334974Y-75744448D01*
X133321090Y-75763168D01*
X133305438Y-75780438D01*
X133288168Y-75796090D01*
X133269448Y-75809974D01*
X133249457Y-75821956D01*
X133228387Y-75831921D01*
X133206443Y-75839773D01*
X133183834Y-75845437D01*
X133160779Y-75848856D01*
X133137500Y-75850000D01*
X132662500Y-75850000D01*
X132639221Y-75848856D01*
X132616166Y-75845437D01*
X132593557Y-75839773D01*
X132571613Y-75831921D01*
X132550543Y-75821956D01*
X132530552Y-75809974D01*
X132511832Y-75796090D01*
X132494562Y-75780438D01*
X132478910Y-75763168D01*
X132465026Y-75744448D01*
X132453044Y-75724457D01*
X132443079Y-75703387D01*
X132435227Y-75681443D01*
X132429563Y-75658834D01*
X132426144Y-75635779D01*
X132425000Y-75612500D01*
X132425000Y-75037500D01*
X132426144Y-75014221D01*
X132429563Y-74991166D01*
X132435227Y-74968557D01*
X132443079Y-74946613D01*
X132453044Y-74925543D01*
X132465026Y-74905552D01*
X132478910Y-74886832D01*
X132494562Y-74869562D01*
X132511832Y-74853910D01*
X132530552Y-74840026D01*
X132550543Y-74828044D01*
X132571613Y-74818079D01*
X132593557Y-74810227D01*
X132616166Y-74804563D01*
X132639221Y-74801144D01*
X132662500Y-74800000D01*
X133137500Y-74800000D01*
X133160779Y-74801144D01*
X133160779Y-74801144D01*
G37*
D11*
X132900000Y-75325000D03*
D10*
G36*
X133160779Y-76551144D02*
X133183834Y-76554563D01*
X133206443Y-76560227D01*
X133228387Y-76568079D01*
X133249457Y-76578044D01*
X133269448Y-76590026D01*
X133288168Y-76603910D01*
X133305438Y-76619562D01*
X133321090Y-76636832D01*
X133334974Y-76655552D01*
X133346956Y-76675543D01*
X133356921Y-76696613D01*
X133364773Y-76718557D01*
X133370437Y-76741166D01*
X133373856Y-76764221D01*
X133375000Y-76787500D01*
X133375000Y-77362500D01*
X133373856Y-77385779D01*
X133370437Y-77408834D01*
X133364773Y-77431443D01*
X133356921Y-77453387D01*
X133346956Y-77474457D01*
X133334974Y-77494448D01*
X133321090Y-77513168D01*
X133305438Y-77530438D01*
X133288168Y-77546090D01*
X133269448Y-77559974D01*
X133249457Y-77571956D01*
X133228387Y-77581921D01*
X133206443Y-77589773D01*
X133183834Y-77595437D01*
X133160779Y-77598856D01*
X133137500Y-77600000D01*
X132662500Y-77600000D01*
X132639221Y-77598856D01*
X132616166Y-77595437D01*
X132593557Y-77589773D01*
X132571613Y-77581921D01*
X132550543Y-77571956D01*
X132530552Y-77559974D01*
X132511832Y-77546090D01*
X132494562Y-77530438D01*
X132478910Y-77513168D01*
X132465026Y-77494448D01*
X132453044Y-77474457D01*
X132443079Y-77453387D01*
X132435227Y-77431443D01*
X132429563Y-77408834D01*
X132426144Y-77385779D01*
X132425000Y-77362500D01*
X132425000Y-76787500D01*
X132426144Y-76764221D01*
X132429563Y-76741166D01*
X132435227Y-76718557D01*
X132443079Y-76696613D01*
X132453044Y-76675543D01*
X132465026Y-76655552D01*
X132478910Y-76636832D01*
X132494562Y-76619562D01*
X132511832Y-76603910D01*
X132530552Y-76590026D01*
X132550543Y-76578044D01*
X132571613Y-76568079D01*
X132593557Y-76560227D01*
X132616166Y-76554563D01*
X132639221Y-76551144D01*
X132662500Y-76550000D01*
X133137500Y-76550000D01*
X133160779Y-76551144D01*
X133160779Y-76551144D01*
G37*
D11*
X132900000Y-77075000D03*
G04 #@! TD*
D10*
G04 #@! TO.C,C14*
G36*
X75985779Y-68926144D02*
X76008834Y-68929563D01*
X76031443Y-68935227D01*
X76053387Y-68943079D01*
X76074457Y-68953044D01*
X76094448Y-68965026D01*
X76113168Y-68978910D01*
X76130438Y-68994562D01*
X76146090Y-69011832D01*
X76159974Y-69030552D01*
X76171956Y-69050543D01*
X76181921Y-69071613D01*
X76189773Y-69093557D01*
X76195437Y-69116166D01*
X76198856Y-69139221D01*
X76200000Y-69162500D01*
X76200000Y-69637500D01*
X76198856Y-69660779D01*
X76195437Y-69683834D01*
X76189773Y-69706443D01*
X76181921Y-69728387D01*
X76171956Y-69749457D01*
X76159974Y-69769448D01*
X76146090Y-69788168D01*
X76130438Y-69805438D01*
X76113168Y-69821090D01*
X76094448Y-69834974D01*
X76074457Y-69846956D01*
X76053387Y-69856921D01*
X76031443Y-69864773D01*
X76008834Y-69870437D01*
X75985779Y-69873856D01*
X75962500Y-69875000D01*
X75387500Y-69875000D01*
X75364221Y-69873856D01*
X75341166Y-69870437D01*
X75318557Y-69864773D01*
X75296613Y-69856921D01*
X75275543Y-69846956D01*
X75255552Y-69834974D01*
X75236832Y-69821090D01*
X75219562Y-69805438D01*
X75203910Y-69788168D01*
X75190026Y-69769448D01*
X75178044Y-69749457D01*
X75168079Y-69728387D01*
X75160227Y-69706443D01*
X75154563Y-69683834D01*
X75151144Y-69660779D01*
X75150000Y-69637500D01*
X75150000Y-69162500D01*
X75151144Y-69139221D01*
X75154563Y-69116166D01*
X75160227Y-69093557D01*
X75168079Y-69071613D01*
X75178044Y-69050543D01*
X75190026Y-69030552D01*
X75203910Y-69011832D01*
X75219562Y-68994562D01*
X75236832Y-68978910D01*
X75255552Y-68965026D01*
X75275543Y-68953044D01*
X75296613Y-68943079D01*
X75318557Y-68935227D01*
X75341166Y-68929563D01*
X75364221Y-68926144D01*
X75387500Y-68925000D01*
X75962500Y-68925000D01*
X75985779Y-68926144D01*
X75985779Y-68926144D01*
G37*
D11*
X75675000Y-69400000D03*
D10*
G36*
X74235779Y-68926144D02*
X74258834Y-68929563D01*
X74281443Y-68935227D01*
X74303387Y-68943079D01*
X74324457Y-68953044D01*
X74344448Y-68965026D01*
X74363168Y-68978910D01*
X74380438Y-68994562D01*
X74396090Y-69011832D01*
X74409974Y-69030552D01*
X74421956Y-69050543D01*
X74431921Y-69071613D01*
X74439773Y-69093557D01*
X74445437Y-69116166D01*
X74448856Y-69139221D01*
X74450000Y-69162500D01*
X74450000Y-69637500D01*
X74448856Y-69660779D01*
X74445437Y-69683834D01*
X74439773Y-69706443D01*
X74431921Y-69728387D01*
X74421956Y-69749457D01*
X74409974Y-69769448D01*
X74396090Y-69788168D01*
X74380438Y-69805438D01*
X74363168Y-69821090D01*
X74344448Y-69834974D01*
X74324457Y-69846956D01*
X74303387Y-69856921D01*
X74281443Y-69864773D01*
X74258834Y-69870437D01*
X74235779Y-69873856D01*
X74212500Y-69875000D01*
X73637500Y-69875000D01*
X73614221Y-69873856D01*
X73591166Y-69870437D01*
X73568557Y-69864773D01*
X73546613Y-69856921D01*
X73525543Y-69846956D01*
X73505552Y-69834974D01*
X73486832Y-69821090D01*
X73469562Y-69805438D01*
X73453910Y-69788168D01*
X73440026Y-69769448D01*
X73428044Y-69749457D01*
X73418079Y-69728387D01*
X73410227Y-69706443D01*
X73404563Y-69683834D01*
X73401144Y-69660779D01*
X73400000Y-69637500D01*
X73400000Y-69162500D01*
X73401144Y-69139221D01*
X73404563Y-69116166D01*
X73410227Y-69093557D01*
X73418079Y-69071613D01*
X73428044Y-69050543D01*
X73440026Y-69030552D01*
X73453910Y-69011832D01*
X73469562Y-68994562D01*
X73486832Y-68978910D01*
X73505552Y-68965026D01*
X73525543Y-68953044D01*
X73546613Y-68943079D01*
X73568557Y-68935227D01*
X73591166Y-68929563D01*
X73614221Y-68926144D01*
X73637500Y-68925000D01*
X74212500Y-68925000D01*
X74235779Y-68926144D01*
X74235779Y-68926144D01*
G37*
D11*
X73925000Y-69400000D03*
G04 #@! TD*
D10*
G04 #@! TO.C,C15*
G36*
X73010779Y-89851144D02*
X73033834Y-89854563D01*
X73056443Y-89860227D01*
X73078387Y-89868079D01*
X73099457Y-89878044D01*
X73119448Y-89890026D01*
X73138168Y-89903910D01*
X73155438Y-89919562D01*
X73171090Y-89936832D01*
X73184974Y-89955552D01*
X73196956Y-89975543D01*
X73206921Y-89996613D01*
X73214773Y-90018557D01*
X73220437Y-90041166D01*
X73223856Y-90064221D01*
X73225000Y-90087500D01*
X73225000Y-90662500D01*
X73223856Y-90685779D01*
X73220437Y-90708834D01*
X73214773Y-90731443D01*
X73206921Y-90753387D01*
X73196956Y-90774457D01*
X73184974Y-90794448D01*
X73171090Y-90813168D01*
X73155438Y-90830438D01*
X73138168Y-90846090D01*
X73119448Y-90859974D01*
X73099457Y-90871956D01*
X73078387Y-90881921D01*
X73056443Y-90889773D01*
X73033834Y-90895437D01*
X73010779Y-90898856D01*
X72987500Y-90900000D01*
X72512500Y-90900000D01*
X72489221Y-90898856D01*
X72466166Y-90895437D01*
X72443557Y-90889773D01*
X72421613Y-90881921D01*
X72400543Y-90871956D01*
X72380552Y-90859974D01*
X72361832Y-90846090D01*
X72344562Y-90830438D01*
X72328910Y-90813168D01*
X72315026Y-90794448D01*
X72303044Y-90774457D01*
X72293079Y-90753387D01*
X72285227Y-90731443D01*
X72279563Y-90708834D01*
X72276144Y-90685779D01*
X72275000Y-90662500D01*
X72275000Y-90087500D01*
X72276144Y-90064221D01*
X72279563Y-90041166D01*
X72285227Y-90018557D01*
X72293079Y-89996613D01*
X72303044Y-89975543D01*
X72315026Y-89955552D01*
X72328910Y-89936832D01*
X72344562Y-89919562D01*
X72361832Y-89903910D01*
X72380552Y-89890026D01*
X72400543Y-89878044D01*
X72421613Y-89868079D01*
X72443557Y-89860227D01*
X72466166Y-89854563D01*
X72489221Y-89851144D01*
X72512500Y-89850000D01*
X72987500Y-89850000D01*
X73010779Y-89851144D01*
X73010779Y-89851144D01*
G37*
D11*
X72750000Y-90375000D03*
D10*
G36*
X73010779Y-88101144D02*
X73033834Y-88104563D01*
X73056443Y-88110227D01*
X73078387Y-88118079D01*
X73099457Y-88128044D01*
X73119448Y-88140026D01*
X73138168Y-88153910D01*
X73155438Y-88169562D01*
X73171090Y-88186832D01*
X73184974Y-88205552D01*
X73196956Y-88225543D01*
X73206921Y-88246613D01*
X73214773Y-88268557D01*
X73220437Y-88291166D01*
X73223856Y-88314221D01*
X73225000Y-88337500D01*
X73225000Y-88912500D01*
X73223856Y-88935779D01*
X73220437Y-88958834D01*
X73214773Y-88981443D01*
X73206921Y-89003387D01*
X73196956Y-89024457D01*
X73184974Y-89044448D01*
X73171090Y-89063168D01*
X73155438Y-89080438D01*
X73138168Y-89096090D01*
X73119448Y-89109974D01*
X73099457Y-89121956D01*
X73078387Y-89131921D01*
X73056443Y-89139773D01*
X73033834Y-89145437D01*
X73010779Y-89148856D01*
X72987500Y-89150000D01*
X72512500Y-89150000D01*
X72489221Y-89148856D01*
X72466166Y-89145437D01*
X72443557Y-89139773D01*
X72421613Y-89131921D01*
X72400543Y-89121956D01*
X72380552Y-89109974D01*
X72361832Y-89096090D01*
X72344562Y-89080438D01*
X72328910Y-89063168D01*
X72315026Y-89044448D01*
X72303044Y-89024457D01*
X72293079Y-89003387D01*
X72285227Y-88981443D01*
X72279563Y-88958834D01*
X72276144Y-88935779D01*
X72275000Y-88912500D01*
X72275000Y-88337500D01*
X72276144Y-88314221D01*
X72279563Y-88291166D01*
X72285227Y-88268557D01*
X72293079Y-88246613D01*
X72303044Y-88225543D01*
X72315026Y-88205552D01*
X72328910Y-88186832D01*
X72344562Y-88169562D01*
X72361832Y-88153910D01*
X72380552Y-88140026D01*
X72400543Y-88128044D01*
X72421613Y-88118079D01*
X72443557Y-88110227D01*
X72466166Y-88104563D01*
X72489221Y-88101144D01*
X72512500Y-88100000D01*
X72987500Y-88100000D01*
X73010779Y-88101144D01*
X73010779Y-88101144D01*
G37*
D11*
X72750000Y-88625000D03*
G04 #@! TD*
D10*
G04 #@! TO.C,C16*
G36*
X126360779Y-74701144D02*
X126383834Y-74704563D01*
X126406443Y-74710227D01*
X126428387Y-74718079D01*
X126449457Y-74728044D01*
X126469448Y-74740026D01*
X126488168Y-74753910D01*
X126505438Y-74769562D01*
X126521090Y-74786832D01*
X126534974Y-74805552D01*
X126546956Y-74825543D01*
X126556921Y-74846613D01*
X126564773Y-74868557D01*
X126570437Y-74891166D01*
X126573856Y-74914221D01*
X126575000Y-74937500D01*
X126575000Y-75512500D01*
X126573856Y-75535779D01*
X126570437Y-75558834D01*
X126564773Y-75581443D01*
X126556921Y-75603387D01*
X126546956Y-75624457D01*
X126534974Y-75644448D01*
X126521090Y-75663168D01*
X126505438Y-75680438D01*
X126488168Y-75696090D01*
X126469448Y-75709974D01*
X126449457Y-75721956D01*
X126428387Y-75731921D01*
X126406443Y-75739773D01*
X126383834Y-75745437D01*
X126360779Y-75748856D01*
X126337500Y-75750000D01*
X125862500Y-75750000D01*
X125839221Y-75748856D01*
X125816166Y-75745437D01*
X125793557Y-75739773D01*
X125771613Y-75731921D01*
X125750543Y-75721956D01*
X125730552Y-75709974D01*
X125711832Y-75696090D01*
X125694562Y-75680438D01*
X125678910Y-75663168D01*
X125665026Y-75644448D01*
X125653044Y-75624457D01*
X125643079Y-75603387D01*
X125635227Y-75581443D01*
X125629563Y-75558834D01*
X125626144Y-75535779D01*
X125625000Y-75512500D01*
X125625000Y-74937500D01*
X125626144Y-74914221D01*
X125629563Y-74891166D01*
X125635227Y-74868557D01*
X125643079Y-74846613D01*
X125653044Y-74825543D01*
X125665026Y-74805552D01*
X125678910Y-74786832D01*
X125694562Y-74769562D01*
X125711832Y-74753910D01*
X125730552Y-74740026D01*
X125750543Y-74728044D01*
X125771613Y-74718079D01*
X125793557Y-74710227D01*
X125816166Y-74704563D01*
X125839221Y-74701144D01*
X125862500Y-74700000D01*
X126337500Y-74700000D01*
X126360779Y-74701144D01*
X126360779Y-74701144D01*
G37*
D11*
X126100000Y-75225000D03*
D10*
G36*
X126360779Y-76451144D02*
X126383834Y-76454563D01*
X126406443Y-76460227D01*
X126428387Y-76468079D01*
X126449457Y-76478044D01*
X126469448Y-76490026D01*
X126488168Y-76503910D01*
X126505438Y-76519562D01*
X126521090Y-76536832D01*
X126534974Y-76555552D01*
X126546956Y-76575543D01*
X126556921Y-76596613D01*
X126564773Y-76618557D01*
X126570437Y-76641166D01*
X126573856Y-76664221D01*
X126575000Y-76687500D01*
X126575000Y-77262500D01*
X126573856Y-77285779D01*
X126570437Y-77308834D01*
X126564773Y-77331443D01*
X126556921Y-77353387D01*
X126546956Y-77374457D01*
X126534974Y-77394448D01*
X126521090Y-77413168D01*
X126505438Y-77430438D01*
X126488168Y-77446090D01*
X126469448Y-77459974D01*
X126449457Y-77471956D01*
X126428387Y-77481921D01*
X126406443Y-77489773D01*
X126383834Y-77495437D01*
X126360779Y-77498856D01*
X126337500Y-77500000D01*
X125862500Y-77500000D01*
X125839221Y-77498856D01*
X125816166Y-77495437D01*
X125793557Y-77489773D01*
X125771613Y-77481921D01*
X125750543Y-77471956D01*
X125730552Y-77459974D01*
X125711832Y-77446090D01*
X125694562Y-77430438D01*
X125678910Y-77413168D01*
X125665026Y-77394448D01*
X125653044Y-77374457D01*
X125643079Y-77353387D01*
X125635227Y-77331443D01*
X125629563Y-77308834D01*
X125626144Y-77285779D01*
X125625000Y-77262500D01*
X125625000Y-76687500D01*
X125626144Y-76664221D01*
X125629563Y-76641166D01*
X125635227Y-76618557D01*
X125643079Y-76596613D01*
X125653044Y-76575543D01*
X125665026Y-76555552D01*
X125678910Y-76536832D01*
X125694562Y-76519562D01*
X125711832Y-76503910D01*
X125730552Y-76490026D01*
X125750543Y-76478044D01*
X125771613Y-76468079D01*
X125793557Y-76460227D01*
X125816166Y-76454563D01*
X125839221Y-76451144D01*
X125862500Y-76450000D01*
X126337500Y-76450000D01*
X126360779Y-76451144D01*
X126360779Y-76451144D01*
G37*
D11*
X126100000Y-76975000D03*
G04 #@! TD*
D10*
G04 #@! TO.C,C17*
G36*
X98935779Y-75276144D02*
X98958834Y-75279563D01*
X98981443Y-75285227D01*
X99003387Y-75293079D01*
X99024457Y-75303044D01*
X99044448Y-75315026D01*
X99063168Y-75328910D01*
X99080438Y-75344562D01*
X99096090Y-75361832D01*
X99109974Y-75380552D01*
X99121956Y-75400543D01*
X99131921Y-75421613D01*
X99139773Y-75443557D01*
X99145437Y-75466166D01*
X99148856Y-75489221D01*
X99150000Y-75512500D01*
X99150000Y-75987500D01*
X99148856Y-76010779D01*
X99145437Y-76033834D01*
X99139773Y-76056443D01*
X99131921Y-76078387D01*
X99121956Y-76099457D01*
X99109974Y-76119448D01*
X99096090Y-76138168D01*
X99080438Y-76155438D01*
X99063168Y-76171090D01*
X99044448Y-76184974D01*
X99024457Y-76196956D01*
X99003387Y-76206921D01*
X98981443Y-76214773D01*
X98958834Y-76220437D01*
X98935779Y-76223856D01*
X98912500Y-76225000D01*
X98337500Y-76225000D01*
X98314221Y-76223856D01*
X98291166Y-76220437D01*
X98268557Y-76214773D01*
X98246613Y-76206921D01*
X98225543Y-76196956D01*
X98205552Y-76184974D01*
X98186832Y-76171090D01*
X98169562Y-76155438D01*
X98153910Y-76138168D01*
X98140026Y-76119448D01*
X98128044Y-76099457D01*
X98118079Y-76078387D01*
X98110227Y-76056443D01*
X98104563Y-76033834D01*
X98101144Y-76010779D01*
X98100000Y-75987500D01*
X98100000Y-75512500D01*
X98101144Y-75489221D01*
X98104563Y-75466166D01*
X98110227Y-75443557D01*
X98118079Y-75421613D01*
X98128044Y-75400543D01*
X98140026Y-75380552D01*
X98153910Y-75361832D01*
X98169562Y-75344562D01*
X98186832Y-75328910D01*
X98205552Y-75315026D01*
X98225543Y-75303044D01*
X98246613Y-75293079D01*
X98268557Y-75285227D01*
X98291166Y-75279563D01*
X98314221Y-75276144D01*
X98337500Y-75275000D01*
X98912500Y-75275000D01*
X98935779Y-75276144D01*
X98935779Y-75276144D01*
G37*
D11*
X98625000Y-75750000D03*
D10*
G36*
X100685779Y-75276144D02*
X100708834Y-75279563D01*
X100731443Y-75285227D01*
X100753387Y-75293079D01*
X100774457Y-75303044D01*
X100794448Y-75315026D01*
X100813168Y-75328910D01*
X100830438Y-75344562D01*
X100846090Y-75361832D01*
X100859974Y-75380552D01*
X100871956Y-75400543D01*
X100881921Y-75421613D01*
X100889773Y-75443557D01*
X100895437Y-75466166D01*
X100898856Y-75489221D01*
X100900000Y-75512500D01*
X100900000Y-75987500D01*
X100898856Y-76010779D01*
X100895437Y-76033834D01*
X100889773Y-76056443D01*
X100881921Y-76078387D01*
X100871956Y-76099457D01*
X100859974Y-76119448D01*
X100846090Y-76138168D01*
X100830438Y-76155438D01*
X100813168Y-76171090D01*
X100794448Y-76184974D01*
X100774457Y-76196956D01*
X100753387Y-76206921D01*
X100731443Y-76214773D01*
X100708834Y-76220437D01*
X100685779Y-76223856D01*
X100662500Y-76225000D01*
X100087500Y-76225000D01*
X100064221Y-76223856D01*
X100041166Y-76220437D01*
X100018557Y-76214773D01*
X99996613Y-76206921D01*
X99975543Y-76196956D01*
X99955552Y-76184974D01*
X99936832Y-76171090D01*
X99919562Y-76155438D01*
X99903910Y-76138168D01*
X99890026Y-76119448D01*
X99878044Y-76099457D01*
X99868079Y-76078387D01*
X99860227Y-76056443D01*
X99854563Y-76033834D01*
X99851144Y-76010779D01*
X99850000Y-75987500D01*
X99850000Y-75512500D01*
X99851144Y-75489221D01*
X99854563Y-75466166D01*
X99860227Y-75443557D01*
X99868079Y-75421613D01*
X99878044Y-75400543D01*
X99890026Y-75380552D01*
X99903910Y-75361832D01*
X99919562Y-75344562D01*
X99936832Y-75328910D01*
X99955552Y-75315026D01*
X99975543Y-75303044D01*
X99996613Y-75293079D01*
X100018557Y-75285227D01*
X100041166Y-75279563D01*
X100064221Y-75276144D01*
X100087500Y-75275000D01*
X100662500Y-75275000D01*
X100685779Y-75276144D01*
X100685779Y-75276144D01*
G37*
D11*
X100375000Y-75750000D03*
G04 #@! TD*
D10*
G04 #@! TO.C,C18*
G36*
X96260779Y-76851144D02*
X96283834Y-76854563D01*
X96306443Y-76860227D01*
X96328387Y-76868079D01*
X96349457Y-76878044D01*
X96369448Y-76890026D01*
X96388168Y-76903910D01*
X96405438Y-76919562D01*
X96421090Y-76936832D01*
X96434974Y-76955552D01*
X96446956Y-76975543D01*
X96456921Y-76996613D01*
X96464773Y-77018557D01*
X96470437Y-77041166D01*
X96473856Y-77064221D01*
X96475000Y-77087500D01*
X96475000Y-77662500D01*
X96473856Y-77685779D01*
X96470437Y-77708834D01*
X96464773Y-77731443D01*
X96456921Y-77753387D01*
X96446956Y-77774457D01*
X96434974Y-77794448D01*
X96421090Y-77813168D01*
X96405438Y-77830438D01*
X96388168Y-77846090D01*
X96369448Y-77859974D01*
X96349457Y-77871956D01*
X96328387Y-77881921D01*
X96306443Y-77889773D01*
X96283834Y-77895437D01*
X96260779Y-77898856D01*
X96237500Y-77900000D01*
X95762500Y-77900000D01*
X95739221Y-77898856D01*
X95716166Y-77895437D01*
X95693557Y-77889773D01*
X95671613Y-77881921D01*
X95650543Y-77871956D01*
X95630552Y-77859974D01*
X95611832Y-77846090D01*
X95594562Y-77830438D01*
X95578910Y-77813168D01*
X95565026Y-77794448D01*
X95553044Y-77774457D01*
X95543079Y-77753387D01*
X95535227Y-77731443D01*
X95529563Y-77708834D01*
X95526144Y-77685779D01*
X95525000Y-77662500D01*
X95525000Y-77087500D01*
X95526144Y-77064221D01*
X95529563Y-77041166D01*
X95535227Y-77018557D01*
X95543079Y-76996613D01*
X95553044Y-76975543D01*
X95565026Y-76955552D01*
X95578910Y-76936832D01*
X95594562Y-76919562D01*
X95611832Y-76903910D01*
X95630552Y-76890026D01*
X95650543Y-76878044D01*
X95671613Y-76868079D01*
X95693557Y-76860227D01*
X95716166Y-76854563D01*
X95739221Y-76851144D01*
X95762500Y-76850000D01*
X96237500Y-76850000D01*
X96260779Y-76851144D01*
X96260779Y-76851144D01*
G37*
D11*
X96000000Y-77375000D03*
D10*
G36*
X96260779Y-75101144D02*
X96283834Y-75104563D01*
X96306443Y-75110227D01*
X96328387Y-75118079D01*
X96349457Y-75128044D01*
X96369448Y-75140026D01*
X96388168Y-75153910D01*
X96405438Y-75169562D01*
X96421090Y-75186832D01*
X96434974Y-75205552D01*
X96446956Y-75225543D01*
X96456921Y-75246613D01*
X96464773Y-75268557D01*
X96470437Y-75291166D01*
X96473856Y-75314221D01*
X96475000Y-75337500D01*
X96475000Y-75912500D01*
X96473856Y-75935779D01*
X96470437Y-75958834D01*
X96464773Y-75981443D01*
X96456921Y-76003387D01*
X96446956Y-76024457D01*
X96434974Y-76044448D01*
X96421090Y-76063168D01*
X96405438Y-76080438D01*
X96388168Y-76096090D01*
X96369448Y-76109974D01*
X96349457Y-76121956D01*
X96328387Y-76131921D01*
X96306443Y-76139773D01*
X96283834Y-76145437D01*
X96260779Y-76148856D01*
X96237500Y-76150000D01*
X95762500Y-76150000D01*
X95739221Y-76148856D01*
X95716166Y-76145437D01*
X95693557Y-76139773D01*
X95671613Y-76131921D01*
X95650543Y-76121956D01*
X95630552Y-76109974D01*
X95611832Y-76096090D01*
X95594562Y-76080438D01*
X95578910Y-76063168D01*
X95565026Y-76044448D01*
X95553044Y-76024457D01*
X95543079Y-76003387D01*
X95535227Y-75981443D01*
X95529563Y-75958834D01*
X95526144Y-75935779D01*
X95525000Y-75912500D01*
X95525000Y-75337500D01*
X95526144Y-75314221D01*
X95529563Y-75291166D01*
X95535227Y-75268557D01*
X95543079Y-75246613D01*
X95553044Y-75225543D01*
X95565026Y-75205552D01*
X95578910Y-75186832D01*
X95594562Y-75169562D01*
X95611832Y-75153910D01*
X95630552Y-75140026D01*
X95650543Y-75128044D01*
X95671613Y-75118079D01*
X95693557Y-75110227D01*
X95716166Y-75104563D01*
X95739221Y-75101144D01*
X95762500Y-75100000D01*
X96237500Y-75100000D01*
X96260779Y-75101144D01*
X96260779Y-75101144D01*
G37*
D11*
X96000000Y-75625000D03*
G04 #@! TD*
D10*
G04 #@! TO.C,C19*
G36*
X96185779Y-87776144D02*
X96208834Y-87779563D01*
X96231443Y-87785227D01*
X96253387Y-87793079D01*
X96274457Y-87803044D01*
X96294448Y-87815026D01*
X96313168Y-87828910D01*
X96330438Y-87844562D01*
X96346090Y-87861832D01*
X96359974Y-87880552D01*
X96371956Y-87900543D01*
X96381921Y-87921613D01*
X96389773Y-87943557D01*
X96395437Y-87966166D01*
X96398856Y-87989221D01*
X96400000Y-88012500D01*
X96400000Y-88487500D01*
X96398856Y-88510779D01*
X96395437Y-88533834D01*
X96389773Y-88556443D01*
X96381921Y-88578387D01*
X96371956Y-88599457D01*
X96359974Y-88619448D01*
X96346090Y-88638168D01*
X96330438Y-88655438D01*
X96313168Y-88671090D01*
X96294448Y-88684974D01*
X96274457Y-88696956D01*
X96253387Y-88706921D01*
X96231443Y-88714773D01*
X96208834Y-88720437D01*
X96185779Y-88723856D01*
X96162500Y-88725000D01*
X95587500Y-88725000D01*
X95564221Y-88723856D01*
X95541166Y-88720437D01*
X95518557Y-88714773D01*
X95496613Y-88706921D01*
X95475543Y-88696956D01*
X95455552Y-88684974D01*
X95436832Y-88671090D01*
X95419562Y-88655438D01*
X95403910Y-88638168D01*
X95390026Y-88619448D01*
X95378044Y-88599457D01*
X95368079Y-88578387D01*
X95360227Y-88556443D01*
X95354563Y-88533834D01*
X95351144Y-88510779D01*
X95350000Y-88487500D01*
X95350000Y-88012500D01*
X95351144Y-87989221D01*
X95354563Y-87966166D01*
X95360227Y-87943557D01*
X95368079Y-87921613D01*
X95378044Y-87900543D01*
X95390026Y-87880552D01*
X95403910Y-87861832D01*
X95419562Y-87844562D01*
X95436832Y-87828910D01*
X95455552Y-87815026D01*
X95475543Y-87803044D01*
X95496613Y-87793079D01*
X95518557Y-87785227D01*
X95541166Y-87779563D01*
X95564221Y-87776144D01*
X95587500Y-87775000D01*
X96162500Y-87775000D01*
X96185779Y-87776144D01*
X96185779Y-87776144D01*
G37*
D11*
X95875000Y-88250000D03*
D10*
G36*
X97935779Y-87776144D02*
X97958834Y-87779563D01*
X97981443Y-87785227D01*
X98003387Y-87793079D01*
X98024457Y-87803044D01*
X98044448Y-87815026D01*
X98063168Y-87828910D01*
X98080438Y-87844562D01*
X98096090Y-87861832D01*
X98109974Y-87880552D01*
X98121956Y-87900543D01*
X98131921Y-87921613D01*
X98139773Y-87943557D01*
X98145437Y-87966166D01*
X98148856Y-87989221D01*
X98150000Y-88012500D01*
X98150000Y-88487500D01*
X98148856Y-88510779D01*
X98145437Y-88533834D01*
X98139773Y-88556443D01*
X98131921Y-88578387D01*
X98121956Y-88599457D01*
X98109974Y-88619448D01*
X98096090Y-88638168D01*
X98080438Y-88655438D01*
X98063168Y-88671090D01*
X98044448Y-88684974D01*
X98024457Y-88696956D01*
X98003387Y-88706921D01*
X97981443Y-88714773D01*
X97958834Y-88720437D01*
X97935779Y-88723856D01*
X97912500Y-88725000D01*
X97337500Y-88725000D01*
X97314221Y-88723856D01*
X97291166Y-88720437D01*
X97268557Y-88714773D01*
X97246613Y-88706921D01*
X97225543Y-88696956D01*
X97205552Y-88684974D01*
X97186832Y-88671090D01*
X97169562Y-88655438D01*
X97153910Y-88638168D01*
X97140026Y-88619448D01*
X97128044Y-88599457D01*
X97118079Y-88578387D01*
X97110227Y-88556443D01*
X97104563Y-88533834D01*
X97101144Y-88510779D01*
X97100000Y-88487500D01*
X97100000Y-88012500D01*
X97101144Y-87989221D01*
X97104563Y-87966166D01*
X97110227Y-87943557D01*
X97118079Y-87921613D01*
X97128044Y-87900543D01*
X97140026Y-87880552D01*
X97153910Y-87861832D01*
X97169562Y-87844562D01*
X97186832Y-87828910D01*
X97205552Y-87815026D01*
X97225543Y-87803044D01*
X97246613Y-87793079D01*
X97268557Y-87785227D01*
X97291166Y-87779563D01*
X97314221Y-87776144D01*
X97337500Y-87775000D01*
X97912500Y-87775000D01*
X97935779Y-87776144D01*
X97935779Y-87776144D01*
G37*
D11*
X97625000Y-88250000D03*
G04 #@! TD*
D10*
G04 #@! TO.C,C20*
G36*
X63972000Y-73263206D02*
X63995055Y-73266625D01*
X64017664Y-73272289D01*
X64039608Y-73280141D01*
X64060678Y-73290106D01*
X64080669Y-73302088D01*
X64099389Y-73315972D01*
X64116659Y-73331624D01*
X64132311Y-73348894D01*
X64146195Y-73367614D01*
X64158177Y-73387605D01*
X64168142Y-73408675D01*
X64175994Y-73430619D01*
X64181658Y-73453228D01*
X64185077Y-73476283D01*
X64186221Y-73499562D01*
X64186221Y-74074562D01*
X64185077Y-74097841D01*
X64181658Y-74120896D01*
X64175994Y-74143505D01*
X64168142Y-74165449D01*
X64158177Y-74186519D01*
X64146195Y-74206510D01*
X64132311Y-74225230D01*
X64116659Y-74242500D01*
X64099389Y-74258152D01*
X64080669Y-74272036D01*
X64060678Y-74284018D01*
X64039608Y-74293983D01*
X64017664Y-74301835D01*
X63995055Y-74307499D01*
X63972000Y-74310918D01*
X63948721Y-74312062D01*
X63473721Y-74312062D01*
X63450442Y-74310918D01*
X63427387Y-74307499D01*
X63404778Y-74301835D01*
X63382834Y-74293983D01*
X63361764Y-74284018D01*
X63341773Y-74272036D01*
X63323053Y-74258152D01*
X63305783Y-74242500D01*
X63290131Y-74225230D01*
X63276247Y-74206510D01*
X63264265Y-74186519D01*
X63254300Y-74165449D01*
X63246448Y-74143505D01*
X63240784Y-74120896D01*
X63237365Y-74097841D01*
X63236221Y-74074562D01*
X63236221Y-73499562D01*
X63237365Y-73476283D01*
X63240784Y-73453228D01*
X63246448Y-73430619D01*
X63254300Y-73408675D01*
X63264265Y-73387605D01*
X63276247Y-73367614D01*
X63290131Y-73348894D01*
X63305783Y-73331624D01*
X63323053Y-73315972D01*
X63341773Y-73302088D01*
X63361764Y-73290106D01*
X63382834Y-73280141D01*
X63404778Y-73272289D01*
X63427387Y-73266625D01*
X63450442Y-73263206D01*
X63473721Y-73262062D01*
X63948721Y-73262062D01*
X63972000Y-73263206D01*
X63972000Y-73263206D01*
G37*
D11*
X63711221Y-73787062D03*
D10*
G36*
X63972000Y-71513206D02*
X63995055Y-71516625D01*
X64017664Y-71522289D01*
X64039608Y-71530141D01*
X64060678Y-71540106D01*
X64080669Y-71552088D01*
X64099389Y-71565972D01*
X64116659Y-71581624D01*
X64132311Y-71598894D01*
X64146195Y-71617614D01*
X64158177Y-71637605D01*
X64168142Y-71658675D01*
X64175994Y-71680619D01*
X64181658Y-71703228D01*
X64185077Y-71726283D01*
X64186221Y-71749562D01*
X64186221Y-72324562D01*
X64185077Y-72347841D01*
X64181658Y-72370896D01*
X64175994Y-72393505D01*
X64168142Y-72415449D01*
X64158177Y-72436519D01*
X64146195Y-72456510D01*
X64132311Y-72475230D01*
X64116659Y-72492500D01*
X64099389Y-72508152D01*
X64080669Y-72522036D01*
X64060678Y-72534018D01*
X64039608Y-72543983D01*
X64017664Y-72551835D01*
X63995055Y-72557499D01*
X63972000Y-72560918D01*
X63948721Y-72562062D01*
X63473721Y-72562062D01*
X63450442Y-72560918D01*
X63427387Y-72557499D01*
X63404778Y-72551835D01*
X63382834Y-72543983D01*
X63361764Y-72534018D01*
X63341773Y-72522036D01*
X63323053Y-72508152D01*
X63305783Y-72492500D01*
X63290131Y-72475230D01*
X63276247Y-72456510D01*
X63264265Y-72436519D01*
X63254300Y-72415449D01*
X63246448Y-72393505D01*
X63240784Y-72370896D01*
X63237365Y-72347841D01*
X63236221Y-72324562D01*
X63236221Y-71749562D01*
X63237365Y-71726283D01*
X63240784Y-71703228D01*
X63246448Y-71680619D01*
X63254300Y-71658675D01*
X63264265Y-71637605D01*
X63276247Y-71617614D01*
X63290131Y-71598894D01*
X63305783Y-71581624D01*
X63323053Y-71565972D01*
X63341773Y-71552088D01*
X63361764Y-71540106D01*
X63382834Y-71530141D01*
X63404778Y-71522289D01*
X63427387Y-71516625D01*
X63450442Y-71513206D01*
X63473721Y-71512062D01*
X63948721Y-71512062D01*
X63972000Y-71513206D01*
X63972000Y-71513206D01*
G37*
D11*
X63711221Y-72037062D03*
G04 #@! TD*
D10*
G04 #@! TO.C,C21*
G36*
X56472000Y-73263206D02*
X56495055Y-73266625D01*
X56517664Y-73272289D01*
X56539608Y-73280141D01*
X56560678Y-73290106D01*
X56580669Y-73302088D01*
X56599389Y-73315972D01*
X56616659Y-73331624D01*
X56632311Y-73348894D01*
X56646195Y-73367614D01*
X56658177Y-73387605D01*
X56668142Y-73408675D01*
X56675994Y-73430619D01*
X56681658Y-73453228D01*
X56685077Y-73476283D01*
X56686221Y-73499562D01*
X56686221Y-74074562D01*
X56685077Y-74097841D01*
X56681658Y-74120896D01*
X56675994Y-74143505D01*
X56668142Y-74165449D01*
X56658177Y-74186519D01*
X56646195Y-74206510D01*
X56632311Y-74225230D01*
X56616659Y-74242500D01*
X56599389Y-74258152D01*
X56580669Y-74272036D01*
X56560678Y-74284018D01*
X56539608Y-74293983D01*
X56517664Y-74301835D01*
X56495055Y-74307499D01*
X56472000Y-74310918D01*
X56448721Y-74312062D01*
X55973721Y-74312062D01*
X55950442Y-74310918D01*
X55927387Y-74307499D01*
X55904778Y-74301835D01*
X55882834Y-74293983D01*
X55861764Y-74284018D01*
X55841773Y-74272036D01*
X55823053Y-74258152D01*
X55805783Y-74242500D01*
X55790131Y-74225230D01*
X55776247Y-74206510D01*
X55764265Y-74186519D01*
X55754300Y-74165449D01*
X55746448Y-74143505D01*
X55740784Y-74120896D01*
X55737365Y-74097841D01*
X55736221Y-74074562D01*
X55736221Y-73499562D01*
X55737365Y-73476283D01*
X55740784Y-73453228D01*
X55746448Y-73430619D01*
X55754300Y-73408675D01*
X55764265Y-73387605D01*
X55776247Y-73367614D01*
X55790131Y-73348894D01*
X55805783Y-73331624D01*
X55823053Y-73315972D01*
X55841773Y-73302088D01*
X55861764Y-73290106D01*
X55882834Y-73280141D01*
X55904778Y-73272289D01*
X55927387Y-73266625D01*
X55950442Y-73263206D01*
X55973721Y-73262062D01*
X56448721Y-73262062D01*
X56472000Y-73263206D01*
X56472000Y-73263206D01*
G37*
D11*
X56211221Y-73787062D03*
D10*
G36*
X56472000Y-71513206D02*
X56495055Y-71516625D01*
X56517664Y-71522289D01*
X56539608Y-71530141D01*
X56560678Y-71540106D01*
X56580669Y-71552088D01*
X56599389Y-71565972D01*
X56616659Y-71581624D01*
X56632311Y-71598894D01*
X56646195Y-71617614D01*
X56658177Y-71637605D01*
X56668142Y-71658675D01*
X56675994Y-71680619D01*
X56681658Y-71703228D01*
X56685077Y-71726283D01*
X56686221Y-71749562D01*
X56686221Y-72324562D01*
X56685077Y-72347841D01*
X56681658Y-72370896D01*
X56675994Y-72393505D01*
X56668142Y-72415449D01*
X56658177Y-72436519D01*
X56646195Y-72456510D01*
X56632311Y-72475230D01*
X56616659Y-72492500D01*
X56599389Y-72508152D01*
X56580669Y-72522036D01*
X56560678Y-72534018D01*
X56539608Y-72543983D01*
X56517664Y-72551835D01*
X56495055Y-72557499D01*
X56472000Y-72560918D01*
X56448721Y-72562062D01*
X55973721Y-72562062D01*
X55950442Y-72560918D01*
X55927387Y-72557499D01*
X55904778Y-72551835D01*
X55882834Y-72543983D01*
X55861764Y-72534018D01*
X55841773Y-72522036D01*
X55823053Y-72508152D01*
X55805783Y-72492500D01*
X55790131Y-72475230D01*
X55776247Y-72456510D01*
X55764265Y-72436519D01*
X55754300Y-72415449D01*
X55746448Y-72393505D01*
X55740784Y-72370896D01*
X55737365Y-72347841D01*
X55736221Y-72324562D01*
X55736221Y-71749562D01*
X55737365Y-71726283D01*
X55740784Y-71703228D01*
X55746448Y-71680619D01*
X55754300Y-71658675D01*
X55764265Y-71637605D01*
X55776247Y-71617614D01*
X55790131Y-71598894D01*
X55805783Y-71581624D01*
X55823053Y-71565972D01*
X55841773Y-71552088D01*
X55861764Y-71540106D01*
X55882834Y-71530141D01*
X55904778Y-71522289D01*
X55927387Y-71516625D01*
X55950442Y-71513206D01*
X55973721Y-71512062D01*
X56448721Y-71512062D01*
X56472000Y-71513206D01*
X56472000Y-71513206D01*
G37*
D11*
X56211221Y-72037062D03*
G04 #@! TD*
D10*
G04 #@! TO.C,C22*
G36*
X100260779Y-85601144D02*
X100283834Y-85604563D01*
X100306443Y-85610227D01*
X100328387Y-85618079D01*
X100349457Y-85628044D01*
X100369448Y-85640026D01*
X100388168Y-85653910D01*
X100405438Y-85669562D01*
X100421090Y-85686832D01*
X100434974Y-85705552D01*
X100446956Y-85725543D01*
X100456921Y-85746613D01*
X100464773Y-85768557D01*
X100470437Y-85791166D01*
X100473856Y-85814221D01*
X100475000Y-85837500D01*
X100475000Y-86412500D01*
X100473856Y-86435779D01*
X100470437Y-86458834D01*
X100464773Y-86481443D01*
X100456921Y-86503387D01*
X100446956Y-86524457D01*
X100434974Y-86544448D01*
X100421090Y-86563168D01*
X100405438Y-86580438D01*
X100388168Y-86596090D01*
X100369448Y-86609974D01*
X100349457Y-86621956D01*
X100328387Y-86631921D01*
X100306443Y-86639773D01*
X100283834Y-86645437D01*
X100260779Y-86648856D01*
X100237500Y-86650000D01*
X99762500Y-86650000D01*
X99739221Y-86648856D01*
X99716166Y-86645437D01*
X99693557Y-86639773D01*
X99671613Y-86631921D01*
X99650543Y-86621956D01*
X99630552Y-86609974D01*
X99611832Y-86596090D01*
X99594562Y-86580438D01*
X99578910Y-86563168D01*
X99565026Y-86544448D01*
X99553044Y-86524457D01*
X99543079Y-86503387D01*
X99535227Y-86481443D01*
X99529563Y-86458834D01*
X99526144Y-86435779D01*
X99525000Y-86412500D01*
X99525000Y-85837500D01*
X99526144Y-85814221D01*
X99529563Y-85791166D01*
X99535227Y-85768557D01*
X99543079Y-85746613D01*
X99553044Y-85725543D01*
X99565026Y-85705552D01*
X99578910Y-85686832D01*
X99594562Y-85669562D01*
X99611832Y-85653910D01*
X99630552Y-85640026D01*
X99650543Y-85628044D01*
X99671613Y-85618079D01*
X99693557Y-85610227D01*
X99716166Y-85604563D01*
X99739221Y-85601144D01*
X99762500Y-85600000D01*
X100237500Y-85600000D01*
X100260779Y-85601144D01*
X100260779Y-85601144D01*
G37*
D11*
X100000000Y-86125000D03*
D10*
G36*
X100260779Y-83851144D02*
X100283834Y-83854563D01*
X100306443Y-83860227D01*
X100328387Y-83868079D01*
X100349457Y-83878044D01*
X100369448Y-83890026D01*
X100388168Y-83903910D01*
X100405438Y-83919562D01*
X100421090Y-83936832D01*
X100434974Y-83955552D01*
X100446956Y-83975543D01*
X100456921Y-83996613D01*
X100464773Y-84018557D01*
X100470437Y-84041166D01*
X100473856Y-84064221D01*
X100475000Y-84087500D01*
X100475000Y-84662500D01*
X100473856Y-84685779D01*
X100470437Y-84708834D01*
X100464773Y-84731443D01*
X100456921Y-84753387D01*
X100446956Y-84774457D01*
X100434974Y-84794448D01*
X100421090Y-84813168D01*
X100405438Y-84830438D01*
X100388168Y-84846090D01*
X100369448Y-84859974D01*
X100349457Y-84871956D01*
X100328387Y-84881921D01*
X100306443Y-84889773D01*
X100283834Y-84895437D01*
X100260779Y-84898856D01*
X100237500Y-84900000D01*
X99762500Y-84900000D01*
X99739221Y-84898856D01*
X99716166Y-84895437D01*
X99693557Y-84889773D01*
X99671613Y-84881921D01*
X99650543Y-84871956D01*
X99630552Y-84859974D01*
X99611832Y-84846090D01*
X99594562Y-84830438D01*
X99578910Y-84813168D01*
X99565026Y-84794448D01*
X99553044Y-84774457D01*
X99543079Y-84753387D01*
X99535227Y-84731443D01*
X99529563Y-84708834D01*
X99526144Y-84685779D01*
X99525000Y-84662500D01*
X99525000Y-84087500D01*
X99526144Y-84064221D01*
X99529563Y-84041166D01*
X99535227Y-84018557D01*
X99543079Y-83996613D01*
X99553044Y-83975543D01*
X99565026Y-83955552D01*
X99578910Y-83936832D01*
X99594562Y-83919562D01*
X99611832Y-83903910D01*
X99630552Y-83890026D01*
X99650543Y-83878044D01*
X99671613Y-83868079D01*
X99693557Y-83860227D01*
X99716166Y-83854563D01*
X99739221Y-83851144D01*
X99762500Y-83850000D01*
X100237500Y-83850000D01*
X100260779Y-83851144D01*
X100260779Y-83851144D01*
G37*
D11*
X100000000Y-84375000D03*
G04 #@! TD*
D10*
G04 #@! TO.C,C23*
G36*
X70260779Y-82476144D02*
X70283834Y-82479563D01*
X70306443Y-82485227D01*
X70328387Y-82493079D01*
X70349457Y-82503044D01*
X70369448Y-82515026D01*
X70388168Y-82528910D01*
X70405438Y-82544562D01*
X70421090Y-82561832D01*
X70434974Y-82580552D01*
X70446956Y-82600543D01*
X70456921Y-82621613D01*
X70464773Y-82643557D01*
X70470437Y-82666166D01*
X70473856Y-82689221D01*
X70475000Y-82712500D01*
X70475000Y-83287500D01*
X70473856Y-83310779D01*
X70470437Y-83333834D01*
X70464773Y-83356443D01*
X70456921Y-83378387D01*
X70446956Y-83399457D01*
X70434974Y-83419448D01*
X70421090Y-83438168D01*
X70405438Y-83455438D01*
X70388168Y-83471090D01*
X70369448Y-83484974D01*
X70349457Y-83496956D01*
X70328387Y-83506921D01*
X70306443Y-83514773D01*
X70283834Y-83520437D01*
X70260779Y-83523856D01*
X70237500Y-83525000D01*
X69762500Y-83525000D01*
X69739221Y-83523856D01*
X69716166Y-83520437D01*
X69693557Y-83514773D01*
X69671613Y-83506921D01*
X69650543Y-83496956D01*
X69630552Y-83484974D01*
X69611832Y-83471090D01*
X69594562Y-83455438D01*
X69578910Y-83438168D01*
X69565026Y-83419448D01*
X69553044Y-83399457D01*
X69543079Y-83378387D01*
X69535227Y-83356443D01*
X69529563Y-83333834D01*
X69526144Y-83310779D01*
X69525000Y-83287500D01*
X69525000Y-82712500D01*
X69526144Y-82689221D01*
X69529563Y-82666166D01*
X69535227Y-82643557D01*
X69543079Y-82621613D01*
X69553044Y-82600543D01*
X69565026Y-82580552D01*
X69578910Y-82561832D01*
X69594562Y-82544562D01*
X69611832Y-82528910D01*
X69630552Y-82515026D01*
X69650543Y-82503044D01*
X69671613Y-82493079D01*
X69693557Y-82485227D01*
X69716166Y-82479563D01*
X69739221Y-82476144D01*
X69762500Y-82475000D01*
X70237500Y-82475000D01*
X70260779Y-82476144D01*
X70260779Y-82476144D01*
G37*
D11*
X70000000Y-83000000D03*
D10*
G36*
X70260779Y-80726144D02*
X70283834Y-80729563D01*
X70306443Y-80735227D01*
X70328387Y-80743079D01*
X70349457Y-80753044D01*
X70369448Y-80765026D01*
X70388168Y-80778910D01*
X70405438Y-80794562D01*
X70421090Y-80811832D01*
X70434974Y-80830552D01*
X70446956Y-80850543D01*
X70456921Y-80871613D01*
X70464773Y-80893557D01*
X70470437Y-80916166D01*
X70473856Y-80939221D01*
X70475000Y-80962500D01*
X70475000Y-81537500D01*
X70473856Y-81560779D01*
X70470437Y-81583834D01*
X70464773Y-81606443D01*
X70456921Y-81628387D01*
X70446956Y-81649457D01*
X70434974Y-81669448D01*
X70421090Y-81688168D01*
X70405438Y-81705438D01*
X70388168Y-81721090D01*
X70369448Y-81734974D01*
X70349457Y-81746956D01*
X70328387Y-81756921D01*
X70306443Y-81764773D01*
X70283834Y-81770437D01*
X70260779Y-81773856D01*
X70237500Y-81775000D01*
X69762500Y-81775000D01*
X69739221Y-81773856D01*
X69716166Y-81770437D01*
X69693557Y-81764773D01*
X69671613Y-81756921D01*
X69650543Y-81746956D01*
X69630552Y-81734974D01*
X69611832Y-81721090D01*
X69594562Y-81705438D01*
X69578910Y-81688168D01*
X69565026Y-81669448D01*
X69553044Y-81649457D01*
X69543079Y-81628387D01*
X69535227Y-81606443D01*
X69529563Y-81583834D01*
X69526144Y-81560779D01*
X69525000Y-81537500D01*
X69525000Y-80962500D01*
X69526144Y-80939221D01*
X69529563Y-80916166D01*
X69535227Y-80893557D01*
X69543079Y-80871613D01*
X69553044Y-80850543D01*
X69565026Y-80830552D01*
X69578910Y-80811832D01*
X69594562Y-80794562D01*
X69611832Y-80778910D01*
X69630552Y-80765026D01*
X69650543Y-80753044D01*
X69671613Y-80743079D01*
X69693557Y-80735227D01*
X69716166Y-80729563D01*
X69739221Y-80726144D01*
X69762500Y-80725000D01*
X70237500Y-80725000D01*
X70260779Y-80726144D01*
X70260779Y-80726144D01*
G37*
D11*
X70000000Y-81250000D03*
G04 #@! TD*
D10*
G04 #@! TO.C,C24*
G36*
X59185779Y-84526144D02*
X59208834Y-84529563D01*
X59231443Y-84535227D01*
X59253387Y-84543079D01*
X59274457Y-84553044D01*
X59294448Y-84565026D01*
X59313168Y-84578910D01*
X59330438Y-84594562D01*
X59346090Y-84611832D01*
X59359974Y-84630552D01*
X59371956Y-84650543D01*
X59381921Y-84671613D01*
X59389773Y-84693557D01*
X59395437Y-84716166D01*
X59398856Y-84739221D01*
X59400000Y-84762500D01*
X59400000Y-85237500D01*
X59398856Y-85260779D01*
X59395437Y-85283834D01*
X59389773Y-85306443D01*
X59381921Y-85328387D01*
X59371956Y-85349457D01*
X59359974Y-85369448D01*
X59346090Y-85388168D01*
X59330438Y-85405438D01*
X59313168Y-85421090D01*
X59294448Y-85434974D01*
X59274457Y-85446956D01*
X59253387Y-85456921D01*
X59231443Y-85464773D01*
X59208834Y-85470437D01*
X59185779Y-85473856D01*
X59162500Y-85475000D01*
X58587500Y-85475000D01*
X58564221Y-85473856D01*
X58541166Y-85470437D01*
X58518557Y-85464773D01*
X58496613Y-85456921D01*
X58475543Y-85446956D01*
X58455552Y-85434974D01*
X58436832Y-85421090D01*
X58419562Y-85405438D01*
X58403910Y-85388168D01*
X58390026Y-85369448D01*
X58378044Y-85349457D01*
X58368079Y-85328387D01*
X58360227Y-85306443D01*
X58354563Y-85283834D01*
X58351144Y-85260779D01*
X58350000Y-85237500D01*
X58350000Y-84762500D01*
X58351144Y-84739221D01*
X58354563Y-84716166D01*
X58360227Y-84693557D01*
X58368079Y-84671613D01*
X58378044Y-84650543D01*
X58390026Y-84630552D01*
X58403910Y-84611832D01*
X58419562Y-84594562D01*
X58436832Y-84578910D01*
X58455552Y-84565026D01*
X58475543Y-84553044D01*
X58496613Y-84543079D01*
X58518557Y-84535227D01*
X58541166Y-84529563D01*
X58564221Y-84526144D01*
X58587500Y-84525000D01*
X59162500Y-84525000D01*
X59185779Y-84526144D01*
X59185779Y-84526144D01*
G37*
D11*
X58875000Y-85000000D03*
D10*
G36*
X57435779Y-84526144D02*
X57458834Y-84529563D01*
X57481443Y-84535227D01*
X57503387Y-84543079D01*
X57524457Y-84553044D01*
X57544448Y-84565026D01*
X57563168Y-84578910D01*
X57580438Y-84594562D01*
X57596090Y-84611832D01*
X57609974Y-84630552D01*
X57621956Y-84650543D01*
X57631921Y-84671613D01*
X57639773Y-84693557D01*
X57645437Y-84716166D01*
X57648856Y-84739221D01*
X57650000Y-84762500D01*
X57650000Y-85237500D01*
X57648856Y-85260779D01*
X57645437Y-85283834D01*
X57639773Y-85306443D01*
X57631921Y-85328387D01*
X57621956Y-85349457D01*
X57609974Y-85369448D01*
X57596090Y-85388168D01*
X57580438Y-85405438D01*
X57563168Y-85421090D01*
X57544448Y-85434974D01*
X57524457Y-85446956D01*
X57503387Y-85456921D01*
X57481443Y-85464773D01*
X57458834Y-85470437D01*
X57435779Y-85473856D01*
X57412500Y-85475000D01*
X56837500Y-85475000D01*
X56814221Y-85473856D01*
X56791166Y-85470437D01*
X56768557Y-85464773D01*
X56746613Y-85456921D01*
X56725543Y-85446956D01*
X56705552Y-85434974D01*
X56686832Y-85421090D01*
X56669562Y-85405438D01*
X56653910Y-85388168D01*
X56640026Y-85369448D01*
X56628044Y-85349457D01*
X56618079Y-85328387D01*
X56610227Y-85306443D01*
X56604563Y-85283834D01*
X56601144Y-85260779D01*
X56600000Y-85237500D01*
X56600000Y-84762500D01*
X56601144Y-84739221D01*
X56604563Y-84716166D01*
X56610227Y-84693557D01*
X56618079Y-84671613D01*
X56628044Y-84650543D01*
X56640026Y-84630552D01*
X56653910Y-84611832D01*
X56669562Y-84594562D01*
X56686832Y-84578910D01*
X56705552Y-84565026D01*
X56725543Y-84553044D01*
X56746613Y-84543079D01*
X56768557Y-84535227D01*
X56791166Y-84529563D01*
X56814221Y-84526144D01*
X56837500Y-84525000D01*
X57412500Y-84525000D01*
X57435779Y-84526144D01*
X57435779Y-84526144D01*
G37*
D11*
X57125000Y-85000000D03*
G04 #@! TD*
D10*
G04 #@! TO.C,C26*
G36*
X44010779Y-94601144D02*
X44033834Y-94604563D01*
X44056443Y-94610227D01*
X44078387Y-94618079D01*
X44099457Y-94628044D01*
X44119448Y-94640026D01*
X44138168Y-94653910D01*
X44155438Y-94669562D01*
X44171090Y-94686832D01*
X44184974Y-94705552D01*
X44196956Y-94725543D01*
X44206921Y-94746613D01*
X44214773Y-94768557D01*
X44220437Y-94791166D01*
X44223856Y-94814221D01*
X44225000Y-94837500D01*
X44225000Y-95412500D01*
X44223856Y-95435779D01*
X44220437Y-95458834D01*
X44214773Y-95481443D01*
X44206921Y-95503387D01*
X44196956Y-95524457D01*
X44184974Y-95544448D01*
X44171090Y-95563168D01*
X44155438Y-95580438D01*
X44138168Y-95596090D01*
X44119448Y-95609974D01*
X44099457Y-95621956D01*
X44078387Y-95631921D01*
X44056443Y-95639773D01*
X44033834Y-95645437D01*
X44010779Y-95648856D01*
X43987500Y-95650000D01*
X43512500Y-95650000D01*
X43489221Y-95648856D01*
X43466166Y-95645437D01*
X43443557Y-95639773D01*
X43421613Y-95631921D01*
X43400543Y-95621956D01*
X43380552Y-95609974D01*
X43361832Y-95596090D01*
X43344562Y-95580438D01*
X43328910Y-95563168D01*
X43315026Y-95544448D01*
X43303044Y-95524457D01*
X43293079Y-95503387D01*
X43285227Y-95481443D01*
X43279563Y-95458834D01*
X43276144Y-95435779D01*
X43275000Y-95412500D01*
X43275000Y-94837500D01*
X43276144Y-94814221D01*
X43279563Y-94791166D01*
X43285227Y-94768557D01*
X43293079Y-94746613D01*
X43303044Y-94725543D01*
X43315026Y-94705552D01*
X43328910Y-94686832D01*
X43344562Y-94669562D01*
X43361832Y-94653910D01*
X43380552Y-94640026D01*
X43400543Y-94628044D01*
X43421613Y-94618079D01*
X43443557Y-94610227D01*
X43466166Y-94604563D01*
X43489221Y-94601144D01*
X43512500Y-94600000D01*
X43987500Y-94600000D01*
X44010779Y-94601144D01*
X44010779Y-94601144D01*
G37*
D11*
X43750000Y-95125000D03*
D10*
G36*
X44010779Y-96351144D02*
X44033834Y-96354563D01*
X44056443Y-96360227D01*
X44078387Y-96368079D01*
X44099457Y-96378044D01*
X44119448Y-96390026D01*
X44138168Y-96403910D01*
X44155438Y-96419562D01*
X44171090Y-96436832D01*
X44184974Y-96455552D01*
X44196956Y-96475543D01*
X44206921Y-96496613D01*
X44214773Y-96518557D01*
X44220437Y-96541166D01*
X44223856Y-96564221D01*
X44225000Y-96587500D01*
X44225000Y-97162500D01*
X44223856Y-97185779D01*
X44220437Y-97208834D01*
X44214773Y-97231443D01*
X44206921Y-97253387D01*
X44196956Y-97274457D01*
X44184974Y-97294448D01*
X44171090Y-97313168D01*
X44155438Y-97330438D01*
X44138168Y-97346090D01*
X44119448Y-97359974D01*
X44099457Y-97371956D01*
X44078387Y-97381921D01*
X44056443Y-97389773D01*
X44033834Y-97395437D01*
X44010779Y-97398856D01*
X43987500Y-97400000D01*
X43512500Y-97400000D01*
X43489221Y-97398856D01*
X43466166Y-97395437D01*
X43443557Y-97389773D01*
X43421613Y-97381921D01*
X43400543Y-97371956D01*
X43380552Y-97359974D01*
X43361832Y-97346090D01*
X43344562Y-97330438D01*
X43328910Y-97313168D01*
X43315026Y-97294448D01*
X43303044Y-97274457D01*
X43293079Y-97253387D01*
X43285227Y-97231443D01*
X43279563Y-97208834D01*
X43276144Y-97185779D01*
X43275000Y-97162500D01*
X43275000Y-96587500D01*
X43276144Y-96564221D01*
X43279563Y-96541166D01*
X43285227Y-96518557D01*
X43293079Y-96496613D01*
X43303044Y-96475543D01*
X43315026Y-96455552D01*
X43328910Y-96436832D01*
X43344562Y-96419562D01*
X43361832Y-96403910D01*
X43380552Y-96390026D01*
X43400543Y-96378044D01*
X43421613Y-96368079D01*
X43443557Y-96360227D01*
X43466166Y-96354563D01*
X43489221Y-96351144D01*
X43512500Y-96350000D01*
X43987500Y-96350000D01*
X44010779Y-96351144D01*
X44010779Y-96351144D01*
G37*
D11*
X43750000Y-96875000D03*
G04 #@! TD*
D10*
G04 #@! TO.C,C28*
G36*
X84285779Y-101226144D02*
X84308834Y-101229563D01*
X84331443Y-101235227D01*
X84353387Y-101243079D01*
X84374457Y-101253044D01*
X84394448Y-101265026D01*
X84413168Y-101278910D01*
X84430438Y-101294562D01*
X84446090Y-101311832D01*
X84459974Y-101330552D01*
X84471956Y-101350543D01*
X84481921Y-101371613D01*
X84489773Y-101393557D01*
X84495437Y-101416166D01*
X84498856Y-101439221D01*
X84500000Y-101462500D01*
X84500000Y-101937500D01*
X84498856Y-101960779D01*
X84495437Y-101983834D01*
X84489773Y-102006443D01*
X84481921Y-102028387D01*
X84471956Y-102049457D01*
X84459974Y-102069448D01*
X84446090Y-102088168D01*
X84430438Y-102105438D01*
X84413168Y-102121090D01*
X84394448Y-102134974D01*
X84374457Y-102146956D01*
X84353387Y-102156921D01*
X84331443Y-102164773D01*
X84308834Y-102170437D01*
X84285779Y-102173856D01*
X84262500Y-102175000D01*
X83687500Y-102175000D01*
X83664221Y-102173856D01*
X83641166Y-102170437D01*
X83618557Y-102164773D01*
X83596613Y-102156921D01*
X83575543Y-102146956D01*
X83555552Y-102134974D01*
X83536832Y-102121090D01*
X83519562Y-102105438D01*
X83503910Y-102088168D01*
X83490026Y-102069448D01*
X83478044Y-102049457D01*
X83468079Y-102028387D01*
X83460227Y-102006443D01*
X83454563Y-101983834D01*
X83451144Y-101960779D01*
X83450000Y-101937500D01*
X83450000Y-101462500D01*
X83451144Y-101439221D01*
X83454563Y-101416166D01*
X83460227Y-101393557D01*
X83468079Y-101371613D01*
X83478044Y-101350543D01*
X83490026Y-101330552D01*
X83503910Y-101311832D01*
X83519562Y-101294562D01*
X83536832Y-101278910D01*
X83555552Y-101265026D01*
X83575543Y-101253044D01*
X83596613Y-101243079D01*
X83618557Y-101235227D01*
X83641166Y-101229563D01*
X83664221Y-101226144D01*
X83687500Y-101225000D01*
X84262500Y-101225000D01*
X84285779Y-101226144D01*
X84285779Y-101226144D01*
G37*
D11*
X83975000Y-101700000D03*
D10*
G36*
X82535779Y-101226144D02*
X82558834Y-101229563D01*
X82581443Y-101235227D01*
X82603387Y-101243079D01*
X82624457Y-101253044D01*
X82644448Y-101265026D01*
X82663168Y-101278910D01*
X82680438Y-101294562D01*
X82696090Y-101311832D01*
X82709974Y-101330552D01*
X82721956Y-101350543D01*
X82731921Y-101371613D01*
X82739773Y-101393557D01*
X82745437Y-101416166D01*
X82748856Y-101439221D01*
X82750000Y-101462500D01*
X82750000Y-101937500D01*
X82748856Y-101960779D01*
X82745437Y-101983834D01*
X82739773Y-102006443D01*
X82731921Y-102028387D01*
X82721956Y-102049457D01*
X82709974Y-102069448D01*
X82696090Y-102088168D01*
X82680438Y-102105438D01*
X82663168Y-102121090D01*
X82644448Y-102134974D01*
X82624457Y-102146956D01*
X82603387Y-102156921D01*
X82581443Y-102164773D01*
X82558834Y-102170437D01*
X82535779Y-102173856D01*
X82512500Y-102175000D01*
X81937500Y-102175000D01*
X81914221Y-102173856D01*
X81891166Y-102170437D01*
X81868557Y-102164773D01*
X81846613Y-102156921D01*
X81825543Y-102146956D01*
X81805552Y-102134974D01*
X81786832Y-102121090D01*
X81769562Y-102105438D01*
X81753910Y-102088168D01*
X81740026Y-102069448D01*
X81728044Y-102049457D01*
X81718079Y-102028387D01*
X81710227Y-102006443D01*
X81704563Y-101983834D01*
X81701144Y-101960779D01*
X81700000Y-101937500D01*
X81700000Y-101462500D01*
X81701144Y-101439221D01*
X81704563Y-101416166D01*
X81710227Y-101393557D01*
X81718079Y-101371613D01*
X81728044Y-101350543D01*
X81740026Y-101330552D01*
X81753910Y-101311832D01*
X81769562Y-101294562D01*
X81786832Y-101278910D01*
X81805552Y-101265026D01*
X81825543Y-101253044D01*
X81846613Y-101243079D01*
X81868557Y-101235227D01*
X81891166Y-101229563D01*
X81914221Y-101226144D01*
X81937500Y-101225000D01*
X82512500Y-101225000D01*
X82535779Y-101226144D01*
X82535779Y-101226144D01*
G37*
D11*
X82225000Y-101700000D03*
G04 #@! TD*
D10*
G04 #@! TO.C,C29*
G36*
X103692819Y-68838202D02*
X103715874Y-68841621D01*
X103738483Y-68847285D01*
X103760427Y-68855137D01*
X103781497Y-68865102D01*
X103801488Y-68877084D01*
X103820208Y-68890968D01*
X103837478Y-68906620D01*
X103853130Y-68923890D01*
X103867014Y-68942610D01*
X103878996Y-68962601D01*
X103888961Y-68983671D01*
X103896813Y-69005615D01*
X103902477Y-69028224D01*
X103905896Y-69051279D01*
X103907040Y-69074558D01*
X103907040Y-69549558D01*
X103905896Y-69572837D01*
X103902477Y-69595892D01*
X103896813Y-69618501D01*
X103888961Y-69640445D01*
X103878996Y-69661515D01*
X103867014Y-69681506D01*
X103853130Y-69700226D01*
X103837478Y-69717496D01*
X103820208Y-69733148D01*
X103801488Y-69747032D01*
X103781497Y-69759014D01*
X103760427Y-69768979D01*
X103738483Y-69776831D01*
X103715874Y-69782495D01*
X103692819Y-69785914D01*
X103669540Y-69787058D01*
X103094540Y-69787058D01*
X103071261Y-69785914D01*
X103048206Y-69782495D01*
X103025597Y-69776831D01*
X103003653Y-69768979D01*
X102982583Y-69759014D01*
X102962592Y-69747032D01*
X102943872Y-69733148D01*
X102926602Y-69717496D01*
X102910950Y-69700226D01*
X102897066Y-69681506D01*
X102885084Y-69661515D01*
X102875119Y-69640445D01*
X102867267Y-69618501D01*
X102861603Y-69595892D01*
X102858184Y-69572837D01*
X102857040Y-69549558D01*
X102857040Y-69074558D01*
X102858184Y-69051279D01*
X102861603Y-69028224D01*
X102867267Y-69005615D01*
X102875119Y-68983671D01*
X102885084Y-68962601D01*
X102897066Y-68942610D01*
X102910950Y-68923890D01*
X102926602Y-68906620D01*
X102943872Y-68890968D01*
X102962592Y-68877084D01*
X102982583Y-68865102D01*
X103003653Y-68855137D01*
X103025597Y-68847285D01*
X103048206Y-68841621D01*
X103071261Y-68838202D01*
X103094540Y-68837058D01*
X103669540Y-68837058D01*
X103692819Y-68838202D01*
X103692819Y-68838202D01*
G37*
D11*
X103382040Y-69312058D03*
D10*
G36*
X101942819Y-68838202D02*
X101965874Y-68841621D01*
X101988483Y-68847285D01*
X102010427Y-68855137D01*
X102031497Y-68865102D01*
X102051488Y-68877084D01*
X102070208Y-68890968D01*
X102087478Y-68906620D01*
X102103130Y-68923890D01*
X102117014Y-68942610D01*
X102128996Y-68962601D01*
X102138961Y-68983671D01*
X102146813Y-69005615D01*
X102152477Y-69028224D01*
X102155896Y-69051279D01*
X102157040Y-69074558D01*
X102157040Y-69549558D01*
X102155896Y-69572837D01*
X102152477Y-69595892D01*
X102146813Y-69618501D01*
X102138961Y-69640445D01*
X102128996Y-69661515D01*
X102117014Y-69681506D01*
X102103130Y-69700226D01*
X102087478Y-69717496D01*
X102070208Y-69733148D01*
X102051488Y-69747032D01*
X102031497Y-69759014D01*
X102010427Y-69768979D01*
X101988483Y-69776831D01*
X101965874Y-69782495D01*
X101942819Y-69785914D01*
X101919540Y-69787058D01*
X101344540Y-69787058D01*
X101321261Y-69785914D01*
X101298206Y-69782495D01*
X101275597Y-69776831D01*
X101253653Y-69768979D01*
X101232583Y-69759014D01*
X101212592Y-69747032D01*
X101193872Y-69733148D01*
X101176602Y-69717496D01*
X101160950Y-69700226D01*
X101147066Y-69681506D01*
X101135084Y-69661515D01*
X101125119Y-69640445D01*
X101117267Y-69618501D01*
X101111603Y-69595892D01*
X101108184Y-69572837D01*
X101107040Y-69549558D01*
X101107040Y-69074558D01*
X101108184Y-69051279D01*
X101111603Y-69028224D01*
X101117267Y-69005615D01*
X101125119Y-68983671D01*
X101135084Y-68962601D01*
X101147066Y-68942610D01*
X101160950Y-68923890D01*
X101176602Y-68906620D01*
X101193872Y-68890968D01*
X101212592Y-68877084D01*
X101232583Y-68865102D01*
X101253653Y-68855137D01*
X101275597Y-68847285D01*
X101298206Y-68841621D01*
X101321261Y-68838202D01*
X101344540Y-68837058D01*
X101919540Y-68837058D01*
X101942819Y-68838202D01*
X101942819Y-68838202D01*
G37*
D11*
X101632040Y-69312058D03*
G04 #@! TD*
D12*
G04 #@! TO.C,Q3*
X103507040Y-67262058D03*
X103507040Y-65362058D03*
X101507040Y-66312058D03*
G04 #@! TD*
D10*
G04 #@! TO.C,R2*
G36*
X94510779Y-78851144D02*
X94533834Y-78854563D01*
X94556443Y-78860227D01*
X94578387Y-78868079D01*
X94599457Y-78878044D01*
X94619448Y-78890026D01*
X94638168Y-78903910D01*
X94655438Y-78919562D01*
X94671090Y-78936832D01*
X94684974Y-78955552D01*
X94696956Y-78975543D01*
X94706921Y-78996613D01*
X94714773Y-79018557D01*
X94720437Y-79041166D01*
X94723856Y-79064221D01*
X94725000Y-79087500D01*
X94725000Y-79662500D01*
X94723856Y-79685779D01*
X94720437Y-79708834D01*
X94714773Y-79731443D01*
X94706921Y-79753387D01*
X94696956Y-79774457D01*
X94684974Y-79794448D01*
X94671090Y-79813168D01*
X94655438Y-79830438D01*
X94638168Y-79846090D01*
X94619448Y-79859974D01*
X94599457Y-79871956D01*
X94578387Y-79881921D01*
X94556443Y-79889773D01*
X94533834Y-79895437D01*
X94510779Y-79898856D01*
X94487500Y-79900000D01*
X94012500Y-79900000D01*
X93989221Y-79898856D01*
X93966166Y-79895437D01*
X93943557Y-79889773D01*
X93921613Y-79881921D01*
X93900543Y-79871956D01*
X93880552Y-79859974D01*
X93861832Y-79846090D01*
X93844562Y-79830438D01*
X93828910Y-79813168D01*
X93815026Y-79794448D01*
X93803044Y-79774457D01*
X93793079Y-79753387D01*
X93785227Y-79731443D01*
X93779563Y-79708834D01*
X93776144Y-79685779D01*
X93775000Y-79662500D01*
X93775000Y-79087500D01*
X93776144Y-79064221D01*
X93779563Y-79041166D01*
X93785227Y-79018557D01*
X93793079Y-78996613D01*
X93803044Y-78975543D01*
X93815026Y-78955552D01*
X93828910Y-78936832D01*
X93844562Y-78919562D01*
X93861832Y-78903910D01*
X93880552Y-78890026D01*
X93900543Y-78878044D01*
X93921613Y-78868079D01*
X93943557Y-78860227D01*
X93966166Y-78854563D01*
X93989221Y-78851144D01*
X94012500Y-78850000D01*
X94487500Y-78850000D01*
X94510779Y-78851144D01*
X94510779Y-78851144D01*
G37*
D11*
X94250000Y-79375000D03*
D10*
G36*
X94510779Y-80601144D02*
X94533834Y-80604563D01*
X94556443Y-80610227D01*
X94578387Y-80618079D01*
X94599457Y-80628044D01*
X94619448Y-80640026D01*
X94638168Y-80653910D01*
X94655438Y-80669562D01*
X94671090Y-80686832D01*
X94684974Y-80705552D01*
X94696956Y-80725543D01*
X94706921Y-80746613D01*
X94714773Y-80768557D01*
X94720437Y-80791166D01*
X94723856Y-80814221D01*
X94725000Y-80837500D01*
X94725000Y-81412500D01*
X94723856Y-81435779D01*
X94720437Y-81458834D01*
X94714773Y-81481443D01*
X94706921Y-81503387D01*
X94696956Y-81524457D01*
X94684974Y-81544448D01*
X94671090Y-81563168D01*
X94655438Y-81580438D01*
X94638168Y-81596090D01*
X94619448Y-81609974D01*
X94599457Y-81621956D01*
X94578387Y-81631921D01*
X94556443Y-81639773D01*
X94533834Y-81645437D01*
X94510779Y-81648856D01*
X94487500Y-81650000D01*
X94012500Y-81650000D01*
X93989221Y-81648856D01*
X93966166Y-81645437D01*
X93943557Y-81639773D01*
X93921613Y-81631921D01*
X93900543Y-81621956D01*
X93880552Y-81609974D01*
X93861832Y-81596090D01*
X93844562Y-81580438D01*
X93828910Y-81563168D01*
X93815026Y-81544448D01*
X93803044Y-81524457D01*
X93793079Y-81503387D01*
X93785227Y-81481443D01*
X93779563Y-81458834D01*
X93776144Y-81435779D01*
X93775000Y-81412500D01*
X93775000Y-80837500D01*
X93776144Y-80814221D01*
X93779563Y-80791166D01*
X93785227Y-80768557D01*
X93793079Y-80746613D01*
X93803044Y-80725543D01*
X93815026Y-80705552D01*
X93828910Y-80686832D01*
X93844562Y-80669562D01*
X93861832Y-80653910D01*
X93880552Y-80640026D01*
X93900543Y-80628044D01*
X93921613Y-80618079D01*
X93943557Y-80610227D01*
X93966166Y-80604563D01*
X93989221Y-80601144D01*
X94012500Y-80600000D01*
X94487500Y-80600000D01*
X94510779Y-80601144D01*
X94510779Y-80601144D01*
G37*
D11*
X94250000Y-81125000D03*
G04 #@! TD*
D10*
G04 #@! TO.C,R3*
G36*
X129885779Y-81776144D02*
X129908834Y-81779563D01*
X129931443Y-81785227D01*
X129953387Y-81793079D01*
X129974457Y-81803044D01*
X129994448Y-81815026D01*
X130013168Y-81828910D01*
X130030438Y-81844562D01*
X130046090Y-81861832D01*
X130059974Y-81880552D01*
X130071956Y-81900543D01*
X130081921Y-81921613D01*
X130089773Y-81943557D01*
X130095437Y-81966166D01*
X130098856Y-81989221D01*
X130100000Y-82012500D01*
X130100000Y-82487500D01*
X130098856Y-82510779D01*
X130095437Y-82533834D01*
X130089773Y-82556443D01*
X130081921Y-82578387D01*
X130071956Y-82599457D01*
X130059974Y-82619448D01*
X130046090Y-82638168D01*
X130030438Y-82655438D01*
X130013168Y-82671090D01*
X129994448Y-82684974D01*
X129974457Y-82696956D01*
X129953387Y-82706921D01*
X129931443Y-82714773D01*
X129908834Y-82720437D01*
X129885779Y-82723856D01*
X129862500Y-82725000D01*
X129287500Y-82725000D01*
X129264221Y-82723856D01*
X129241166Y-82720437D01*
X129218557Y-82714773D01*
X129196613Y-82706921D01*
X129175543Y-82696956D01*
X129155552Y-82684974D01*
X129136832Y-82671090D01*
X129119562Y-82655438D01*
X129103910Y-82638168D01*
X129090026Y-82619448D01*
X129078044Y-82599457D01*
X129068079Y-82578387D01*
X129060227Y-82556443D01*
X129054563Y-82533834D01*
X129051144Y-82510779D01*
X129050000Y-82487500D01*
X129050000Y-82012500D01*
X129051144Y-81989221D01*
X129054563Y-81966166D01*
X129060227Y-81943557D01*
X129068079Y-81921613D01*
X129078044Y-81900543D01*
X129090026Y-81880552D01*
X129103910Y-81861832D01*
X129119562Y-81844562D01*
X129136832Y-81828910D01*
X129155552Y-81815026D01*
X129175543Y-81803044D01*
X129196613Y-81793079D01*
X129218557Y-81785227D01*
X129241166Y-81779563D01*
X129264221Y-81776144D01*
X129287500Y-81775000D01*
X129862500Y-81775000D01*
X129885779Y-81776144D01*
X129885779Y-81776144D01*
G37*
D11*
X129575000Y-82250000D03*
D10*
G36*
X131635779Y-81776144D02*
X131658834Y-81779563D01*
X131681443Y-81785227D01*
X131703387Y-81793079D01*
X131724457Y-81803044D01*
X131744448Y-81815026D01*
X131763168Y-81828910D01*
X131780438Y-81844562D01*
X131796090Y-81861832D01*
X131809974Y-81880552D01*
X131821956Y-81900543D01*
X131831921Y-81921613D01*
X131839773Y-81943557D01*
X131845437Y-81966166D01*
X131848856Y-81989221D01*
X131850000Y-82012500D01*
X131850000Y-82487500D01*
X131848856Y-82510779D01*
X131845437Y-82533834D01*
X131839773Y-82556443D01*
X131831921Y-82578387D01*
X131821956Y-82599457D01*
X131809974Y-82619448D01*
X131796090Y-82638168D01*
X131780438Y-82655438D01*
X131763168Y-82671090D01*
X131744448Y-82684974D01*
X131724457Y-82696956D01*
X131703387Y-82706921D01*
X131681443Y-82714773D01*
X131658834Y-82720437D01*
X131635779Y-82723856D01*
X131612500Y-82725000D01*
X131037500Y-82725000D01*
X131014221Y-82723856D01*
X130991166Y-82720437D01*
X130968557Y-82714773D01*
X130946613Y-82706921D01*
X130925543Y-82696956D01*
X130905552Y-82684974D01*
X130886832Y-82671090D01*
X130869562Y-82655438D01*
X130853910Y-82638168D01*
X130840026Y-82619448D01*
X130828044Y-82599457D01*
X130818079Y-82578387D01*
X130810227Y-82556443D01*
X130804563Y-82533834D01*
X130801144Y-82510779D01*
X130800000Y-82487500D01*
X130800000Y-82012500D01*
X130801144Y-81989221D01*
X130804563Y-81966166D01*
X130810227Y-81943557D01*
X130818079Y-81921613D01*
X130828044Y-81900543D01*
X130840026Y-81880552D01*
X130853910Y-81861832D01*
X130869562Y-81844562D01*
X130886832Y-81828910D01*
X130905552Y-81815026D01*
X130925543Y-81803044D01*
X130946613Y-81793079D01*
X130968557Y-81785227D01*
X130991166Y-81779563D01*
X131014221Y-81776144D01*
X131037500Y-81775000D01*
X131612500Y-81775000D01*
X131635779Y-81776144D01*
X131635779Y-81776144D01*
G37*
D11*
X131325000Y-82250000D03*
G04 #@! TD*
D10*
G04 #@! TO.C,R4*
G36*
X130785779Y-78826144D02*
X130808834Y-78829563D01*
X130831443Y-78835227D01*
X130853387Y-78843079D01*
X130874457Y-78853044D01*
X130894448Y-78865026D01*
X130913168Y-78878910D01*
X130930438Y-78894562D01*
X130946090Y-78911832D01*
X130959974Y-78930552D01*
X130971956Y-78950543D01*
X130981921Y-78971613D01*
X130989773Y-78993557D01*
X130995437Y-79016166D01*
X130998856Y-79039221D01*
X131000000Y-79062500D01*
X131000000Y-79537500D01*
X130998856Y-79560779D01*
X130995437Y-79583834D01*
X130989773Y-79606443D01*
X130981921Y-79628387D01*
X130971956Y-79649457D01*
X130959974Y-79669448D01*
X130946090Y-79688168D01*
X130930438Y-79705438D01*
X130913168Y-79721090D01*
X130894448Y-79734974D01*
X130874457Y-79746956D01*
X130853387Y-79756921D01*
X130831443Y-79764773D01*
X130808834Y-79770437D01*
X130785779Y-79773856D01*
X130762500Y-79775000D01*
X130187500Y-79775000D01*
X130164221Y-79773856D01*
X130141166Y-79770437D01*
X130118557Y-79764773D01*
X130096613Y-79756921D01*
X130075543Y-79746956D01*
X130055552Y-79734974D01*
X130036832Y-79721090D01*
X130019562Y-79705438D01*
X130003910Y-79688168D01*
X129990026Y-79669448D01*
X129978044Y-79649457D01*
X129968079Y-79628387D01*
X129960227Y-79606443D01*
X129954563Y-79583834D01*
X129951144Y-79560779D01*
X129950000Y-79537500D01*
X129950000Y-79062500D01*
X129951144Y-79039221D01*
X129954563Y-79016166D01*
X129960227Y-78993557D01*
X129968079Y-78971613D01*
X129978044Y-78950543D01*
X129990026Y-78930552D01*
X130003910Y-78911832D01*
X130019562Y-78894562D01*
X130036832Y-78878910D01*
X130055552Y-78865026D01*
X130075543Y-78853044D01*
X130096613Y-78843079D01*
X130118557Y-78835227D01*
X130141166Y-78829563D01*
X130164221Y-78826144D01*
X130187500Y-78825000D01*
X130762500Y-78825000D01*
X130785779Y-78826144D01*
X130785779Y-78826144D01*
G37*
D11*
X130475000Y-79300000D03*
D10*
G36*
X129035779Y-78826144D02*
X129058834Y-78829563D01*
X129081443Y-78835227D01*
X129103387Y-78843079D01*
X129124457Y-78853044D01*
X129144448Y-78865026D01*
X129163168Y-78878910D01*
X129180438Y-78894562D01*
X129196090Y-78911832D01*
X129209974Y-78930552D01*
X129221956Y-78950543D01*
X129231921Y-78971613D01*
X129239773Y-78993557D01*
X129245437Y-79016166D01*
X129248856Y-79039221D01*
X129250000Y-79062500D01*
X129250000Y-79537500D01*
X129248856Y-79560779D01*
X129245437Y-79583834D01*
X129239773Y-79606443D01*
X129231921Y-79628387D01*
X129221956Y-79649457D01*
X129209974Y-79669448D01*
X129196090Y-79688168D01*
X129180438Y-79705438D01*
X129163168Y-79721090D01*
X129144448Y-79734974D01*
X129124457Y-79746956D01*
X129103387Y-79756921D01*
X129081443Y-79764773D01*
X129058834Y-79770437D01*
X129035779Y-79773856D01*
X129012500Y-79775000D01*
X128437500Y-79775000D01*
X128414221Y-79773856D01*
X128391166Y-79770437D01*
X128368557Y-79764773D01*
X128346613Y-79756921D01*
X128325543Y-79746956D01*
X128305552Y-79734974D01*
X128286832Y-79721090D01*
X128269562Y-79705438D01*
X128253910Y-79688168D01*
X128240026Y-79669448D01*
X128228044Y-79649457D01*
X128218079Y-79628387D01*
X128210227Y-79606443D01*
X128204563Y-79583834D01*
X128201144Y-79560779D01*
X128200000Y-79537500D01*
X128200000Y-79062500D01*
X128201144Y-79039221D01*
X128204563Y-79016166D01*
X128210227Y-78993557D01*
X128218079Y-78971613D01*
X128228044Y-78950543D01*
X128240026Y-78930552D01*
X128253910Y-78911832D01*
X128269562Y-78894562D01*
X128286832Y-78878910D01*
X128305552Y-78865026D01*
X128325543Y-78853044D01*
X128346613Y-78843079D01*
X128368557Y-78835227D01*
X128391166Y-78829563D01*
X128414221Y-78826144D01*
X128437500Y-78825000D01*
X129012500Y-78825000D01*
X129035779Y-78826144D01*
X129035779Y-78826144D01*
G37*
D11*
X128725000Y-79300000D03*
G04 #@! TD*
D10*
G04 #@! TO.C,R8*
G36*
X96260779Y-80601144D02*
X96283834Y-80604563D01*
X96306443Y-80610227D01*
X96328387Y-80618079D01*
X96349457Y-80628044D01*
X96369448Y-80640026D01*
X96388168Y-80653910D01*
X96405438Y-80669562D01*
X96421090Y-80686832D01*
X96434974Y-80705552D01*
X96446956Y-80725543D01*
X96456921Y-80746613D01*
X96464773Y-80768557D01*
X96470437Y-80791166D01*
X96473856Y-80814221D01*
X96475000Y-80837500D01*
X96475000Y-81412500D01*
X96473856Y-81435779D01*
X96470437Y-81458834D01*
X96464773Y-81481443D01*
X96456921Y-81503387D01*
X96446956Y-81524457D01*
X96434974Y-81544448D01*
X96421090Y-81563168D01*
X96405438Y-81580438D01*
X96388168Y-81596090D01*
X96369448Y-81609974D01*
X96349457Y-81621956D01*
X96328387Y-81631921D01*
X96306443Y-81639773D01*
X96283834Y-81645437D01*
X96260779Y-81648856D01*
X96237500Y-81650000D01*
X95762500Y-81650000D01*
X95739221Y-81648856D01*
X95716166Y-81645437D01*
X95693557Y-81639773D01*
X95671613Y-81631921D01*
X95650543Y-81621956D01*
X95630552Y-81609974D01*
X95611832Y-81596090D01*
X95594562Y-81580438D01*
X95578910Y-81563168D01*
X95565026Y-81544448D01*
X95553044Y-81524457D01*
X95543079Y-81503387D01*
X95535227Y-81481443D01*
X95529563Y-81458834D01*
X95526144Y-81435779D01*
X95525000Y-81412500D01*
X95525000Y-80837500D01*
X95526144Y-80814221D01*
X95529563Y-80791166D01*
X95535227Y-80768557D01*
X95543079Y-80746613D01*
X95553044Y-80725543D01*
X95565026Y-80705552D01*
X95578910Y-80686832D01*
X95594562Y-80669562D01*
X95611832Y-80653910D01*
X95630552Y-80640026D01*
X95650543Y-80628044D01*
X95671613Y-80618079D01*
X95693557Y-80610227D01*
X95716166Y-80604563D01*
X95739221Y-80601144D01*
X95762500Y-80600000D01*
X96237500Y-80600000D01*
X96260779Y-80601144D01*
X96260779Y-80601144D01*
G37*
D11*
X96000000Y-81125000D03*
D10*
G36*
X96260779Y-78851144D02*
X96283834Y-78854563D01*
X96306443Y-78860227D01*
X96328387Y-78868079D01*
X96349457Y-78878044D01*
X96369448Y-78890026D01*
X96388168Y-78903910D01*
X96405438Y-78919562D01*
X96421090Y-78936832D01*
X96434974Y-78955552D01*
X96446956Y-78975543D01*
X96456921Y-78996613D01*
X96464773Y-79018557D01*
X96470437Y-79041166D01*
X96473856Y-79064221D01*
X96475000Y-79087500D01*
X96475000Y-79662500D01*
X96473856Y-79685779D01*
X96470437Y-79708834D01*
X96464773Y-79731443D01*
X96456921Y-79753387D01*
X96446956Y-79774457D01*
X96434974Y-79794448D01*
X96421090Y-79813168D01*
X96405438Y-79830438D01*
X96388168Y-79846090D01*
X96369448Y-79859974D01*
X96349457Y-79871956D01*
X96328387Y-79881921D01*
X96306443Y-79889773D01*
X96283834Y-79895437D01*
X96260779Y-79898856D01*
X96237500Y-79900000D01*
X95762500Y-79900000D01*
X95739221Y-79898856D01*
X95716166Y-79895437D01*
X95693557Y-79889773D01*
X95671613Y-79881921D01*
X95650543Y-79871956D01*
X95630552Y-79859974D01*
X95611832Y-79846090D01*
X95594562Y-79830438D01*
X95578910Y-79813168D01*
X95565026Y-79794448D01*
X95553044Y-79774457D01*
X95543079Y-79753387D01*
X95535227Y-79731443D01*
X95529563Y-79708834D01*
X95526144Y-79685779D01*
X95525000Y-79662500D01*
X95525000Y-79087500D01*
X95526144Y-79064221D01*
X95529563Y-79041166D01*
X95535227Y-79018557D01*
X95543079Y-78996613D01*
X95553044Y-78975543D01*
X95565026Y-78955552D01*
X95578910Y-78936832D01*
X95594562Y-78919562D01*
X95611832Y-78903910D01*
X95630552Y-78890026D01*
X95650543Y-78878044D01*
X95671613Y-78868079D01*
X95693557Y-78860227D01*
X95716166Y-78854563D01*
X95739221Y-78851144D01*
X95762500Y-78850000D01*
X96237500Y-78850000D01*
X96260779Y-78851144D01*
X96260779Y-78851144D01*
G37*
D11*
X96000000Y-79375000D03*
G04 #@! TD*
D10*
G04 #@! TO.C,R10*
G36*
X59185779Y-86776144D02*
X59208834Y-86779563D01*
X59231443Y-86785227D01*
X59253387Y-86793079D01*
X59274457Y-86803044D01*
X59294448Y-86815026D01*
X59313168Y-86828910D01*
X59330438Y-86844562D01*
X59346090Y-86861832D01*
X59359974Y-86880552D01*
X59371956Y-86900543D01*
X59381921Y-86921613D01*
X59389773Y-86943557D01*
X59395437Y-86966166D01*
X59398856Y-86989221D01*
X59400000Y-87012500D01*
X59400000Y-87487500D01*
X59398856Y-87510779D01*
X59395437Y-87533834D01*
X59389773Y-87556443D01*
X59381921Y-87578387D01*
X59371956Y-87599457D01*
X59359974Y-87619448D01*
X59346090Y-87638168D01*
X59330438Y-87655438D01*
X59313168Y-87671090D01*
X59294448Y-87684974D01*
X59274457Y-87696956D01*
X59253387Y-87706921D01*
X59231443Y-87714773D01*
X59208834Y-87720437D01*
X59185779Y-87723856D01*
X59162500Y-87725000D01*
X58587500Y-87725000D01*
X58564221Y-87723856D01*
X58541166Y-87720437D01*
X58518557Y-87714773D01*
X58496613Y-87706921D01*
X58475543Y-87696956D01*
X58455552Y-87684974D01*
X58436832Y-87671090D01*
X58419562Y-87655438D01*
X58403910Y-87638168D01*
X58390026Y-87619448D01*
X58378044Y-87599457D01*
X58368079Y-87578387D01*
X58360227Y-87556443D01*
X58354563Y-87533834D01*
X58351144Y-87510779D01*
X58350000Y-87487500D01*
X58350000Y-87012500D01*
X58351144Y-86989221D01*
X58354563Y-86966166D01*
X58360227Y-86943557D01*
X58368079Y-86921613D01*
X58378044Y-86900543D01*
X58390026Y-86880552D01*
X58403910Y-86861832D01*
X58419562Y-86844562D01*
X58436832Y-86828910D01*
X58455552Y-86815026D01*
X58475543Y-86803044D01*
X58496613Y-86793079D01*
X58518557Y-86785227D01*
X58541166Y-86779563D01*
X58564221Y-86776144D01*
X58587500Y-86775000D01*
X59162500Y-86775000D01*
X59185779Y-86776144D01*
X59185779Y-86776144D01*
G37*
D11*
X58875000Y-87250000D03*
D10*
G36*
X57435779Y-86776144D02*
X57458834Y-86779563D01*
X57481443Y-86785227D01*
X57503387Y-86793079D01*
X57524457Y-86803044D01*
X57544448Y-86815026D01*
X57563168Y-86828910D01*
X57580438Y-86844562D01*
X57596090Y-86861832D01*
X57609974Y-86880552D01*
X57621956Y-86900543D01*
X57631921Y-86921613D01*
X57639773Y-86943557D01*
X57645437Y-86966166D01*
X57648856Y-86989221D01*
X57650000Y-87012500D01*
X57650000Y-87487500D01*
X57648856Y-87510779D01*
X57645437Y-87533834D01*
X57639773Y-87556443D01*
X57631921Y-87578387D01*
X57621956Y-87599457D01*
X57609974Y-87619448D01*
X57596090Y-87638168D01*
X57580438Y-87655438D01*
X57563168Y-87671090D01*
X57544448Y-87684974D01*
X57524457Y-87696956D01*
X57503387Y-87706921D01*
X57481443Y-87714773D01*
X57458834Y-87720437D01*
X57435779Y-87723856D01*
X57412500Y-87725000D01*
X56837500Y-87725000D01*
X56814221Y-87723856D01*
X56791166Y-87720437D01*
X56768557Y-87714773D01*
X56746613Y-87706921D01*
X56725543Y-87696956D01*
X56705552Y-87684974D01*
X56686832Y-87671090D01*
X56669562Y-87655438D01*
X56653910Y-87638168D01*
X56640026Y-87619448D01*
X56628044Y-87599457D01*
X56618079Y-87578387D01*
X56610227Y-87556443D01*
X56604563Y-87533834D01*
X56601144Y-87510779D01*
X56600000Y-87487500D01*
X56600000Y-87012500D01*
X56601144Y-86989221D01*
X56604563Y-86966166D01*
X56610227Y-86943557D01*
X56618079Y-86921613D01*
X56628044Y-86900543D01*
X56640026Y-86880552D01*
X56653910Y-86861832D01*
X56669562Y-86844562D01*
X56686832Y-86828910D01*
X56705552Y-86815026D01*
X56725543Y-86803044D01*
X56746613Y-86793079D01*
X56768557Y-86785227D01*
X56791166Y-86779563D01*
X56814221Y-86776144D01*
X56837500Y-86775000D01*
X57412500Y-86775000D01*
X57435779Y-86776144D01*
X57435779Y-86776144D01*
G37*
D11*
X57125000Y-87250000D03*
G04 #@! TD*
D10*
G04 #@! TO.C,R11*
G36*
X70260779Y-78351144D02*
X70283834Y-78354563D01*
X70306443Y-78360227D01*
X70328387Y-78368079D01*
X70349457Y-78378044D01*
X70369448Y-78390026D01*
X70388168Y-78403910D01*
X70405438Y-78419562D01*
X70421090Y-78436832D01*
X70434974Y-78455552D01*
X70446956Y-78475543D01*
X70456921Y-78496613D01*
X70464773Y-78518557D01*
X70470437Y-78541166D01*
X70473856Y-78564221D01*
X70475000Y-78587500D01*
X70475000Y-79162500D01*
X70473856Y-79185779D01*
X70470437Y-79208834D01*
X70464773Y-79231443D01*
X70456921Y-79253387D01*
X70446956Y-79274457D01*
X70434974Y-79294448D01*
X70421090Y-79313168D01*
X70405438Y-79330438D01*
X70388168Y-79346090D01*
X70369448Y-79359974D01*
X70349457Y-79371956D01*
X70328387Y-79381921D01*
X70306443Y-79389773D01*
X70283834Y-79395437D01*
X70260779Y-79398856D01*
X70237500Y-79400000D01*
X69762500Y-79400000D01*
X69739221Y-79398856D01*
X69716166Y-79395437D01*
X69693557Y-79389773D01*
X69671613Y-79381921D01*
X69650543Y-79371956D01*
X69630552Y-79359974D01*
X69611832Y-79346090D01*
X69594562Y-79330438D01*
X69578910Y-79313168D01*
X69565026Y-79294448D01*
X69553044Y-79274457D01*
X69543079Y-79253387D01*
X69535227Y-79231443D01*
X69529563Y-79208834D01*
X69526144Y-79185779D01*
X69525000Y-79162500D01*
X69525000Y-78587500D01*
X69526144Y-78564221D01*
X69529563Y-78541166D01*
X69535227Y-78518557D01*
X69543079Y-78496613D01*
X69553044Y-78475543D01*
X69565026Y-78455552D01*
X69578910Y-78436832D01*
X69594562Y-78419562D01*
X69611832Y-78403910D01*
X69630552Y-78390026D01*
X69650543Y-78378044D01*
X69671613Y-78368079D01*
X69693557Y-78360227D01*
X69716166Y-78354563D01*
X69739221Y-78351144D01*
X69762500Y-78350000D01*
X70237500Y-78350000D01*
X70260779Y-78351144D01*
X70260779Y-78351144D01*
G37*
D11*
X70000000Y-78875000D03*
D10*
G36*
X70260779Y-76601144D02*
X70283834Y-76604563D01*
X70306443Y-76610227D01*
X70328387Y-76618079D01*
X70349457Y-76628044D01*
X70369448Y-76640026D01*
X70388168Y-76653910D01*
X70405438Y-76669562D01*
X70421090Y-76686832D01*
X70434974Y-76705552D01*
X70446956Y-76725543D01*
X70456921Y-76746613D01*
X70464773Y-76768557D01*
X70470437Y-76791166D01*
X70473856Y-76814221D01*
X70475000Y-76837500D01*
X70475000Y-77412500D01*
X70473856Y-77435779D01*
X70470437Y-77458834D01*
X70464773Y-77481443D01*
X70456921Y-77503387D01*
X70446956Y-77524457D01*
X70434974Y-77544448D01*
X70421090Y-77563168D01*
X70405438Y-77580438D01*
X70388168Y-77596090D01*
X70369448Y-77609974D01*
X70349457Y-77621956D01*
X70328387Y-77631921D01*
X70306443Y-77639773D01*
X70283834Y-77645437D01*
X70260779Y-77648856D01*
X70237500Y-77650000D01*
X69762500Y-77650000D01*
X69739221Y-77648856D01*
X69716166Y-77645437D01*
X69693557Y-77639773D01*
X69671613Y-77631921D01*
X69650543Y-77621956D01*
X69630552Y-77609974D01*
X69611832Y-77596090D01*
X69594562Y-77580438D01*
X69578910Y-77563168D01*
X69565026Y-77544448D01*
X69553044Y-77524457D01*
X69543079Y-77503387D01*
X69535227Y-77481443D01*
X69529563Y-77458834D01*
X69526144Y-77435779D01*
X69525000Y-77412500D01*
X69525000Y-76837500D01*
X69526144Y-76814221D01*
X69529563Y-76791166D01*
X69535227Y-76768557D01*
X69543079Y-76746613D01*
X69553044Y-76725543D01*
X69565026Y-76705552D01*
X69578910Y-76686832D01*
X69594562Y-76669562D01*
X69611832Y-76653910D01*
X69630552Y-76640026D01*
X69650543Y-76628044D01*
X69671613Y-76618079D01*
X69693557Y-76610227D01*
X69716166Y-76604563D01*
X69739221Y-76601144D01*
X69762500Y-76600000D01*
X70237500Y-76600000D01*
X70260779Y-76601144D01*
X70260779Y-76601144D01*
G37*
D11*
X70000000Y-77125000D03*
G04 #@! TD*
D10*
G04 #@! TO.C,R24*
G36*
X106260779Y-68351144D02*
X106283834Y-68354563D01*
X106306443Y-68360227D01*
X106328387Y-68368079D01*
X106349457Y-68378044D01*
X106369448Y-68390026D01*
X106388168Y-68403910D01*
X106405438Y-68419562D01*
X106421090Y-68436832D01*
X106434974Y-68455552D01*
X106446956Y-68475543D01*
X106456921Y-68496613D01*
X106464773Y-68518557D01*
X106470437Y-68541166D01*
X106473856Y-68564221D01*
X106475000Y-68587500D01*
X106475000Y-69162500D01*
X106473856Y-69185779D01*
X106470437Y-69208834D01*
X106464773Y-69231443D01*
X106456921Y-69253387D01*
X106446956Y-69274457D01*
X106434974Y-69294448D01*
X106421090Y-69313168D01*
X106405438Y-69330438D01*
X106388168Y-69346090D01*
X106369448Y-69359974D01*
X106349457Y-69371956D01*
X106328387Y-69381921D01*
X106306443Y-69389773D01*
X106283834Y-69395437D01*
X106260779Y-69398856D01*
X106237500Y-69400000D01*
X105762500Y-69400000D01*
X105739221Y-69398856D01*
X105716166Y-69395437D01*
X105693557Y-69389773D01*
X105671613Y-69381921D01*
X105650543Y-69371956D01*
X105630552Y-69359974D01*
X105611832Y-69346090D01*
X105594562Y-69330438D01*
X105578910Y-69313168D01*
X105565026Y-69294448D01*
X105553044Y-69274457D01*
X105543079Y-69253387D01*
X105535227Y-69231443D01*
X105529563Y-69208834D01*
X105526144Y-69185779D01*
X105525000Y-69162500D01*
X105525000Y-68587500D01*
X105526144Y-68564221D01*
X105529563Y-68541166D01*
X105535227Y-68518557D01*
X105543079Y-68496613D01*
X105553044Y-68475543D01*
X105565026Y-68455552D01*
X105578910Y-68436832D01*
X105594562Y-68419562D01*
X105611832Y-68403910D01*
X105630552Y-68390026D01*
X105650543Y-68378044D01*
X105671613Y-68368079D01*
X105693557Y-68360227D01*
X105716166Y-68354563D01*
X105739221Y-68351144D01*
X105762500Y-68350000D01*
X106237500Y-68350000D01*
X106260779Y-68351144D01*
X106260779Y-68351144D01*
G37*
D11*
X106000000Y-68875000D03*
D10*
G36*
X106260779Y-70101144D02*
X106283834Y-70104563D01*
X106306443Y-70110227D01*
X106328387Y-70118079D01*
X106349457Y-70128044D01*
X106369448Y-70140026D01*
X106388168Y-70153910D01*
X106405438Y-70169562D01*
X106421090Y-70186832D01*
X106434974Y-70205552D01*
X106446956Y-70225543D01*
X106456921Y-70246613D01*
X106464773Y-70268557D01*
X106470437Y-70291166D01*
X106473856Y-70314221D01*
X106475000Y-70337500D01*
X106475000Y-70912500D01*
X106473856Y-70935779D01*
X106470437Y-70958834D01*
X106464773Y-70981443D01*
X106456921Y-71003387D01*
X106446956Y-71024457D01*
X106434974Y-71044448D01*
X106421090Y-71063168D01*
X106405438Y-71080438D01*
X106388168Y-71096090D01*
X106369448Y-71109974D01*
X106349457Y-71121956D01*
X106328387Y-71131921D01*
X106306443Y-71139773D01*
X106283834Y-71145437D01*
X106260779Y-71148856D01*
X106237500Y-71150000D01*
X105762500Y-71150000D01*
X105739221Y-71148856D01*
X105716166Y-71145437D01*
X105693557Y-71139773D01*
X105671613Y-71131921D01*
X105650543Y-71121956D01*
X105630552Y-71109974D01*
X105611832Y-71096090D01*
X105594562Y-71080438D01*
X105578910Y-71063168D01*
X105565026Y-71044448D01*
X105553044Y-71024457D01*
X105543079Y-71003387D01*
X105535227Y-70981443D01*
X105529563Y-70958834D01*
X105526144Y-70935779D01*
X105525000Y-70912500D01*
X105525000Y-70337500D01*
X105526144Y-70314221D01*
X105529563Y-70291166D01*
X105535227Y-70268557D01*
X105543079Y-70246613D01*
X105553044Y-70225543D01*
X105565026Y-70205552D01*
X105578910Y-70186832D01*
X105594562Y-70169562D01*
X105611832Y-70153910D01*
X105630552Y-70140026D01*
X105650543Y-70128044D01*
X105671613Y-70118079D01*
X105693557Y-70110227D01*
X105716166Y-70104563D01*
X105739221Y-70101144D01*
X105762500Y-70100000D01*
X106237500Y-70100000D01*
X106260779Y-70101144D01*
X106260779Y-70101144D01*
G37*
D11*
X106000000Y-70625000D03*
G04 #@! TD*
D10*
G04 #@! TO.C,R25*
G36*
X101942819Y-71088202D02*
X101965874Y-71091621D01*
X101988483Y-71097285D01*
X102010427Y-71105137D01*
X102031497Y-71115102D01*
X102051488Y-71127084D01*
X102070208Y-71140968D01*
X102087478Y-71156620D01*
X102103130Y-71173890D01*
X102117014Y-71192610D01*
X102128996Y-71212601D01*
X102138961Y-71233671D01*
X102146813Y-71255615D01*
X102152477Y-71278224D01*
X102155896Y-71301279D01*
X102157040Y-71324558D01*
X102157040Y-71799558D01*
X102155896Y-71822837D01*
X102152477Y-71845892D01*
X102146813Y-71868501D01*
X102138961Y-71890445D01*
X102128996Y-71911515D01*
X102117014Y-71931506D01*
X102103130Y-71950226D01*
X102087478Y-71967496D01*
X102070208Y-71983148D01*
X102051488Y-71997032D01*
X102031497Y-72009014D01*
X102010427Y-72018979D01*
X101988483Y-72026831D01*
X101965874Y-72032495D01*
X101942819Y-72035914D01*
X101919540Y-72037058D01*
X101344540Y-72037058D01*
X101321261Y-72035914D01*
X101298206Y-72032495D01*
X101275597Y-72026831D01*
X101253653Y-72018979D01*
X101232583Y-72009014D01*
X101212592Y-71997032D01*
X101193872Y-71983148D01*
X101176602Y-71967496D01*
X101160950Y-71950226D01*
X101147066Y-71931506D01*
X101135084Y-71911515D01*
X101125119Y-71890445D01*
X101117267Y-71868501D01*
X101111603Y-71845892D01*
X101108184Y-71822837D01*
X101107040Y-71799558D01*
X101107040Y-71324558D01*
X101108184Y-71301279D01*
X101111603Y-71278224D01*
X101117267Y-71255615D01*
X101125119Y-71233671D01*
X101135084Y-71212601D01*
X101147066Y-71192610D01*
X101160950Y-71173890D01*
X101176602Y-71156620D01*
X101193872Y-71140968D01*
X101212592Y-71127084D01*
X101232583Y-71115102D01*
X101253653Y-71105137D01*
X101275597Y-71097285D01*
X101298206Y-71091621D01*
X101321261Y-71088202D01*
X101344540Y-71087058D01*
X101919540Y-71087058D01*
X101942819Y-71088202D01*
X101942819Y-71088202D01*
G37*
D11*
X101632040Y-71562058D03*
D10*
G36*
X103692819Y-71088202D02*
X103715874Y-71091621D01*
X103738483Y-71097285D01*
X103760427Y-71105137D01*
X103781497Y-71115102D01*
X103801488Y-71127084D01*
X103820208Y-71140968D01*
X103837478Y-71156620D01*
X103853130Y-71173890D01*
X103867014Y-71192610D01*
X103878996Y-71212601D01*
X103888961Y-71233671D01*
X103896813Y-71255615D01*
X103902477Y-71278224D01*
X103905896Y-71301279D01*
X103907040Y-71324558D01*
X103907040Y-71799558D01*
X103905896Y-71822837D01*
X103902477Y-71845892D01*
X103896813Y-71868501D01*
X103888961Y-71890445D01*
X103878996Y-71911515D01*
X103867014Y-71931506D01*
X103853130Y-71950226D01*
X103837478Y-71967496D01*
X103820208Y-71983148D01*
X103801488Y-71997032D01*
X103781497Y-72009014D01*
X103760427Y-72018979D01*
X103738483Y-72026831D01*
X103715874Y-72032495D01*
X103692819Y-72035914D01*
X103669540Y-72037058D01*
X103094540Y-72037058D01*
X103071261Y-72035914D01*
X103048206Y-72032495D01*
X103025597Y-72026831D01*
X103003653Y-72018979D01*
X102982583Y-72009014D01*
X102962592Y-71997032D01*
X102943872Y-71983148D01*
X102926602Y-71967496D01*
X102910950Y-71950226D01*
X102897066Y-71931506D01*
X102885084Y-71911515D01*
X102875119Y-71890445D01*
X102867267Y-71868501D01*
X102861603Y-71845892D01*
X102858184Y-71822837D01*
X102857040Y-71799558D01*
X102857040Y-71324558D01*
X102858184Y-71301279D01*
X102861603Y-71278224D01*
X102867267Y-71255615D01*
X102875119Y-71233671D01*
X102885084Y-71212601D01*
X102897066Y-71192610D01*
X102910950Y-71173890D01*
X102926602Y-71156620D01*
X102943872Y-71140968D01*
X102962592Y-71127084D01*
X102982583Y-71115102D01*
X103003653Y-71105137D01*
X103025597Y-71097285D01*
X103048206Y-71091621D01*
X103071261Y-71088202D01*
X103094540Y-71087058D01*
X103669540Y-71087058D01*
X103692819Y-71088202D01*
X103692819Y-71088202D01*
G37*
D11*
X103382040Y-71562058D03*
G04 #@! TD*
D13*
G04 #@! TO.C,RN1*
X89450000Y-67350000D03*
D14*
X87850000Y-67350000D03*
X88650000Y-67350000D03*
D13*
X87050000Y-67350000D03*
D14*
X88650000Y-69150000D03*
D13*
X89450000Y-69150000D03*
D14*
X87850000Y-69150000D03*
D13*
X87050000Y-69150000D03*
G04 #@! TD*
G04 #@! TO.C,RN2*
X82800000Y-69150000D03*
D14*
X83600000Y-69150000D03*
D13*
X85200000Y-69150000D03*
D14*
X84400000Y-69150000D03*
D13*
X82800000Y-67350000D03*
D14*
X84400000Y-67350000D03*
X83600000Y-67350000D03*
D13*
X85200000Y-67350000D03*
G04 #@! TD*
G04 #@! TO.C,RN3*
X80950000Y-67350000D03*
D14*
X79350000Y-67350000D03*
X80150000Y-67350000D03*
D13*
X78550000Y-67350000D03*
D14*
X80150000Y-69150000D03*
D13*
X80950000Y-69150000D03*
D14*
X79350000Y-69150000D03*
D13*
X78550000Y-69150000D03*
G04 #@! TD*
D15*
G04 #@! TO.C,U1*
X82700000Y-112150000D03*
D16*
X82700000Y-105850000D03*
X80400000Y-105850000D03*
X85000000Y-105850000D03*
G04 #@! TD*
D17*
G04 #@! TO.C,U2*
X134850000Y-78250000D03*
X134850000Y-78750000D03*
X134850000Y-79250000D03*
X134850000Y-79750000D03*
X134850000Y-80250000D03*
X134850000Y-80750000D03*
X134850000Y-81250000D03*
X134850000Y-81750000D03*
X134850000Y-82250000D03*
X134850000Y-82750000D03*
X134850000Y-83250000D03*
X134850000Y-83750000D03*
D18*
X136450000Y-85350000D03*
X136950000Y-85350000D03*
X137450000Y-85350000D03*
X137950000Y-85350000D03*
X138450000Y-85350000D03*
X138950000Y-85350000D03*
X139450000Y-85350000D03*
X139950000Y-85350000D03*
X140450000Y-85350000D03*
X140950000Y-85350000D03*
X141450000Y-85350000D03*
X141950000Y-85350000D03*
D17*
X143550000Y-83750000D03*
X143550000Y-83250000D03*
X143550000Y-82750000D03*
X143550000Y-82250000D03*
X143550000Y-81750000D03*
X143550000Y-81250000D03*
X143550000Y-80750000D03*
X143550000Y-80250000D03*
X143550000Y-79750000D03*
X143550000Y-79250000D03*
X143550000Y-78750000D03*
X143550000Y-78250000D03*
D18*
X141950000Y-76650000D03*
X141450000Y-76650000D03*
X140950000Y-76650000D03*
X140450000Y-76650000D03*
X139950000Y-76650000D03*
X139450000Y-76650000D03*
X138950000Y-76650000D03*
X138450000Y-76650000D03*
X137950000Y-76650000D03*
X137450000Y-76650000D03*
X136950000Y-76650000D03*
X136450000Y-76650000D03*
G04 #@! TD*
D19*
G04 #@! TO.C,U3*
X91650000Y-87000000D03*
X91650000Y-86500000D03*
X91650000Y-86000000D03*
X91650000Y-85500000D03*
X91650000Y-85000000D03*
X91650000Y-84500000D03*
X91650000Y-84000000D03*
X91650000Y-83500000D03*
X91650000Y-83000000D03*
X91650000Y-82500000D03*
X91650000Y-82000000D03*
X91650000Y-81500000D03*
X91650000Y-81000000D03*
X91650000Y-80500000D03*
X91650000Y-80000000D03*
X91650000Y-79500000D03*
X91650000Y-79000000D03*
X91650000Y-78500000D03*
X91650000Y-78000000D03*
X91650000Y-77500000D03*
X91650000Y-77000000D03*
X91650000Y-76500000D03*
X91650000Y-76000000D03*
X91650000Y-75500000D03*
X91650000Y-75000000D03*
D20*
X89750000Y-73100000D03*
X89250000Y-73100000D03*
X88750000Y-73100000D03*
X88250000Y-73100000D03*
X87750000Y-73100000D03*
X87250000Y-73100000D03*
X86750000Y-73100000D03*
X86250000Y-73100000D03*
X85750000Y-73100000D03*
X85250000Y-73100000D03*
X84750000Y-73100000D03*
X84250000Y-73100000D03*
X83750000Y-73100000D03*
X83250000Y-73100000D03*
X82750000Y-73100000D03*
X82250000Y-73100000D03*
X81750000Y-73100000D03*
X81250000Y-73100000D03*
X80750000Y-73100000D03*
X80250000Y-73100000D03*
X79750000Y-73100000D03*
X79250000Y-73100000D03*
X78750000Y-73100000D03*
X78250000Y-73100000D03*
X77750000Y-73100000D03*
D19*
X75850000Y-75000000D03*
X75850000Y-75500000D03*
X75850000Y-76000000D03*
X75850000Y-76500000D03*
X75850000Y-77000000D03*
X75850000Y-77500000D03*
X75850000Y-78000000D03*
X75850000Y-78500000D03*
X75850000Y-79000000D03*
X75850000Y-79500000D03*
X75850000Y-80000000D03*
X75850000Y-80500000D03*
X75850000Y-81000000D03*
X75850000Y-81500000D03*
X75850000Y-82000000D03*
X75850000Y-82500000D03*
X75850000Y-83000000D03*
X75850000Y-83500000D03*
X75850000Y-84000000D03*
X75850000Y-84500000D03*
X75850000Y-85000000D03*
X75850000Y-85500000D03*
X75850000Y-86000000D03*
X75850000Y-86500000D03*
X75850000Y-87000000D03*
D20*
X77750000Y-88900000D03*
X78250000Y-88900000D03*
X78750000Y-88900000D03*
X79250000Y-88900000D03*
X79750000Y-88900000D03*
X80250000Y-88900000D03*
X80750000Y-88900000D03*
X81250000Y-88900000D03*
X81750000Y-88900000D03*
X82250000Y-88900000D03*
X82750000Y-88900000D03*
X83250000Y-88900000D03*
X83750000Y-88900000D03*
X84250000Y-88900000D03*
X84750000Y-88900000D03*
X85250000Y-88900000D03*
X85750000Y-88900000D03*
X86250000Y-88900000D03*
X86750000Y-88900000D03*
X87250000Y-88900000D03*
X87750000Y-88900000D03*
X88250000Y-88900000D03*
X88750000Y-88900000D03*
X89250000Y-88900000D03*
X89750000Y-88900000D03*
G04 #@! TD*
D21*
G04 #@! TO.C,U4*
X61900000Y-76872500D03*
X61900000Y-77507500D03*
X61900000Y-78142500D03*
X61900000Y-78777500D03*
X61900000Y-79412500D03*
X61900000Y-80047500D03*
X61900000Y-80682500D03*
X61900000Y-81317500D03*
X61900000Y-81952500D03*
X61900000Y-82587500D03*
X61900000Y-83222500D03*
X61900000Y-83857500D03*
X61900000Y-84492500D03*
X61900000Y-85127500D03*
X67100000Y-85127500D03*
X67100000Y-84492500D03*
X67100000Y-83857500D03*
X67100000Y-83222500D03*
X67100000Y-82587500D03*
X67100000Y-81952500D03*
X67100000Y-81317500D03*
X67100000Y-80682500D03*
X67100000Y-80047500D03*
X67100000Y-79412500D03*
X67100000Y-78777500D03*
X67100000Y-78142500D03*
X67100000Y-77507500D03*
X67100000Y-76872500D03*
G04 #@! TD*
D22*
G04 #@! TO.C,Y1*
X130700000Y-75350000D03*
X128500000Y-75350000D03*
X128500000Y-77050000D03*
X130700000Y-77050000D03*
G04 #@! TD*
G04 #@! TO.C,Y2*
X100600000Y-79850000D03*
X98400000Y-79850000D03*
X98400000Y-78150000D03*
X100600000Y-78150000D03*
G04 #@! TD*
G04 #@! TO.C,Y3*
X95650000Y-84400000D03*
X97850000Y-84400000D03*
X97850000Y-86100000D03*
X95650000Y-86100000D03*
G04 #@! TD*
G04 #@! TO.C,Y4*
X61061221Y-72062062D03*
X58861221Y-72062062D03*
X58861221Y-73762062D03*
X61061221Y-73762062D03*
G04 #@! TD*
D10*
G04 #@! TO.C,C30*
G36*
X70260779Y-72851144D02*
X70283834Y-72854563D01*
X70306443Y-72860227D01*
X70328387Y-72868079D01*
X70349457Y-72878044D01*
X70369448Y-72890026D01*
X70388168Y-72903910D01*
X70405438Y-72919562D01*
X70421090Y-72936832D01*
X70434974Y-72955552D01*
X70446956Y-72975543D01*
X70456921Y-72996613D01*
X70464773Y-73018557D01*
X70470437Y-73041166D01*
X70473856Y-73064221D01*
X70475000Y-73087500D01*
X70475000Y-73662500D01*
X70473856Y-73685779D01*
X70470437Y-73708834D01*
X70464773Y-73731443D01*
X70456921Y-73753387D01*
X70446956Y-73774457D01*
X70434974Y-73794448D01*
X70421090Y-73813168D01*
X70405438Y-73830438D01*
X70388168Y-73846090D01*
X70369448Y-73859974D01*
X70349457Y-73871956D01*
X70328387Y-73881921D01*
X70306443Y-73889773D01*
X70283834Y-73895437D01*
X70260779Y-73898856D01*
X70237500Y-73900000D01*
X69762500Y-73900000D01*
X69739221Y-73898856D01*
X69716166Y-73895437D01*
X69693557Y-73889773D01*
X69671613Y-73881921D01*
X69650543Y-73871956D01*
X69630552Y-73859974D01*
X69611832Y-73846090D01*
X69594562Y-73830438D01*
X69578910Y-73813168D01*
X69565026Y-73794448D01*
X69553044Y-73774457D01*
X69543079Y-73753387D01*
X69535227Y-73731443D01*
X69529563Y-73708834D01*
X69526144Y-73685779D01*
X69525000Y-73662500D01*
X69525000Y-73087500D01*
X69526144Y-73064221D01*
X69529563Y-73041166D01*
X69535227Y-73018557D01*
X69543079Y-72996613D01*
X69553044Y-72975543D01*
X69565026Y-72955552D01*
X69578910Y-72936832D01*
X69594562Y-72919562D01*
X69611832Y-72903910D01*
X69630552Y-72890026D01*
X69650543Y-72878044D01*
X69671613Y-72868079D01*
X69693557Y-72860227D01*
X69716166Y-72854563D01*
X69739221Y-72851144D01*
X69762500Y-72850000D01*
X70237500Y-72850000D01*
X70260779Y-72851144D01*
X70260779Y-72851144D01*
G37*
D11*
X70000000Y-73375000D03*
D10*
G36*
X70260779Y-74601144D02*
X70283834Y-74604563D01*
X70306443Y-74610227D01*
X70328387Y-74618079D01*
X70349457Y-74628044D01*
X70369448Y-74640026D01*
X70388168Y-74653910D01*
X70405438Y-74669562D01*
X70421090Y-74686832D01*
X70434974Y-74705552D01*
X70446956Y-74725543D01*
X70456921Y-74746613D01*
X70464773Y-74768557D01*
X70470437Y-74791166D01*
X70473856Y-74814221D01*
X70475000Y-74837500D01*
X70475000Y-75412500D01*
X70473856Y-75435779D01*
X70470437Y-75458834D01*
X70464773Y-75481443D01*
X70456921Y-75503387D01*
X70446956Y-75524457D01*
X70434974Y-75544448D01*
X70421090Y-75563168D01*
X70405438Y-75580438D01*
X70388168Y-75596090D01*
X70369448Y-75609974D01*
X70349457Y-75621956D01*
X70328387Y-75631921D01*
X70306443Y-75639773D01*
X70283834Y-75645437D01*
X70260779Y-75648856D01*
X70237500Y-75650000D01*
X69762500Y-75650000D01*
X69739221Y-75648856D01*
X69716166Y-75645437D01*
X69693557Y-75639773D01*
X69671613Y-75631921D01*
X69650543Y-75621956D01*
X69630552Y-75609974D01*
X69611832Y-75596090D01*
X69594562Y-75580438D01*
X69578910Y-75563168D01*
X69565026Y-75544448D01*
X69553044Y-75524457D01*
X69543079Y-75503387D01*
X69535227Y-75481443D01*
X69529563Y-75458834D01*
X69526144Y-75435779D01*
X69525000Y-75412500D01*
X69525000Y-74837500D01*
X69526144Y-74814221D01*
X69529563Y-74791166D01*
X69535227Y-74768557D01*
X69543079Y-74746613D01*
X69553044Y-74725543D01*
X69565026Y-74705552D01*
X69578910Y-74686832D01*
X69594562Y-74669562D01*
X69611832Y-74653910D01*
X69630552Y-74640026D01*
X69650543Y-74628044D01*
X69671613Y-74618079D01*
X69693557Y-74610227D01*
X69716166Y-74604563D01*
X69739221Y-74601144D01*
X69762500Y-74600000D01*
X70237500Y-74600000D01*
X70260779Y-74601144D01*
X70260779Y-74601144D01*
G37*
D11*
X70000000Y-75125000D03*
G04 #@! TD*
D10*
G04 #@! TO.C,C32*
G36*
X131310779Y-102326144D02*
X131333834Y-102329563D01*
X131356443Y-102335227D01*
X131378387Y-102343079D01*
X131399457Y-102353044D01*
X131419448Y-102365026D01*
X131438168Y-102378910D01*
X131455438Y-102394562D01*
X131471090Y-102411832D01*
X131484974Y-102430552D01*
X131496956Y-102450543D01*
X131506921Y-102471613D01*
X131514773Y-102493557D01*
X131520437Y-102516166D01*
X131523856Y-102539221D01*
X131525000Y-102562500D01*
X131525000Y-103037500D01*
X131523856Y-103060779D01*
X131520437Y-103083834D01*
X131514773Y-103106443D01*
X131506921Y-103128387D01*
X131496956Y-103149457D01*
X131484974Y-103169448D01*
X131471090Y-103188168D01*
X131455438Y-103205438D01*
X131438168Y-103221090D01*
X131419448Y-103234974D01*
X131399457Y-103246956D01*
X131378387Y-103256921D01*
X131356443Y-103264773D01*
X131333834Y-103270437D01*
X131310779Y-103273856D01*
X131287500Y-103275000D01*
X130712500Y-103275000D01*
X130689221Y-103273856D01*
X130666166Y-103270437D01*
X130643557Y-103264773D01*
X130621613Y-103256921D01*
X130600543Y-103246956D01*
X130580552Y-103234974D01*
X130561832Y-103221090D01*
X130544562Y-103205438D01*
X130528910Y-103188168D01*
X130515026Y-103169448D01*
X130503044Y-103149457D01*
X130493079Y-103128387D01*
X130485227Y-103106443D01*
X130479563Y-103083834D01*
X130476144Y-103060779D01*
X130475000Y-103037500D01*
X130475000Y-102562500D01*
X130476144Y-102539221D01*
X130479563Y-102516166D01*
X130485227Y-102493557D01*
X130493079Y-102471613D01*
X130503044Y-102450543D01*
X130515026Y-102430552D01*
X130528910Y-102411832D01*
X130544562Y-102394562D01*
X130561832Y-102378910D01*
X130580552Y-102365026D01*
X130600543Y-102353044D01*
X130621613Y-102343079D01*
X130643557Y-102335227D01*
X130666166Y-102329563D01*
X130689221Y-102326144D01*
X130712500Y-102325000D01*
X131287500Y-102325000D01*
X131310779Y-102326144D01*
X131310779Y-102326144D01*
G37*
D11*
X131000000Y-102800000D03*
D10*
G36*
X133060779Y-102326144D02*
X133083834Y-102329563D01*
X133106443Y-102335227D01*
X133128387Y-102343079D01*
X133149457Y-102353044D01*
X133169448Y-102365026D01*
X133188168Y-102378910D01*
X133205438Y-102394562D01*
X133221090Y-102411832D01*
X133234974Y-102430552D01*
X133246956Y-102450543D01*
X133256921Y-102471613D01*
X133264773Y-102493557D01*
X133270437Y-102516166D01*
X133273856Y-102539221D01*
X133275000Y-102562500D01*
X133275000Y-103037500D01*
X133273856Y-103060779D01*
X133270437Y-103083834D01*
X133264773Y-103106443D01*
X133256921Y-103128387D01*
X133246956Y-103149457D01*
X133234974Y-103169448D01*
X133221090Y-103188168D01*
X133205438Y-103205438D01*
X133188168Y-103221090D01*
X133169448Y-103234974D01*
X133149457Y-103246956D01*
X133128387Y-103256921D01*
X133106443Y-103264773D01*
X133083834Y-103270437D01*
X133060779Y-103273856D01*
X133037500Y-103275000D01*
X132462500Y-103275000D01*
X132439221Y-103273856D01*
X132416166Y-103270437D01*
X132393557Y-103264773D01*
X132371613Y-103256921D01*
X132350543Y-103246956D01*
X132330552Y-103234974D01*
X132311832Y-103221090D01*
X132294562Y-103205438D01*
X132278910Y-103188168D01*
X132265026Y-103169448D01*
X132253044Y-103149457D01*
X132243079Y-103128387D01*
X132235227Y-103106443D01*
X132229563Y-103083834D01*
X132226144Y-103060779D01*
X132225000Y-103037500D01*
X132225000Y-102562500D01*
X132226144Y-102539221D01*
X132229563Y-102516166D01*
X132235227Y-102493557D01*
X132243079Y-102471613D01*
X132253044Y-102450543D01*
X132265026Y-102430552D01*
X132278910Y-102411832D01*
X132294562Y-102394562D01*
X132311832Y-102378910D01*
X132330552Y-102365026D01*
X132350543Y-102353044D01*
X132371613Y-102343079D01*
X132393557Y-102335227D01*
X132416166Y-102329563D01*
X132439221Y-102326144D01*
X132462500Y-102325000D01*
X133037500Y-102325000D01*
X133060779Y-102326144D01*
X133060779Y-102326144D01*
G37*
D11*
X132750000Y-102800000D03*
G04 #@! TD*
D10*
G04 #@! TO.C,C33*
G36*
X142935779Y-87926144D02*
X142958834Y-87929563D01*
X142981443Y-87935227D01*
X143003387Y-87943079D01*
X143024457Y-87953044D01*
X143044448Y-87965026D01*
X143063168Y-87978910D01*
X143080438Y-87994562D01*
X143096090Y-88011832D01*
X143109974Y-88030552D01*
X143121956Y-88050543D01*
X143131921Y-88071613D01*
X143139773Y-88093557D01*
X143145437Y-88116166D01*
X143148856Y-88139221D01*
X143150000Y-88162500D01*
X143150000Y-88637500D01*
X143148856Y-88660779D01*
X143145437Y-88683834D01*
X143139773Y-88706443D01*
X143131921Y-88728387D01*
X143121956Y-88749457D01*
X143109974Y-88769448D01*
X143096090Y-88788168D01*
X143080438Y-88805438D01*
X143063168Y-88821090D01*
X143044448Y-88834974D01*
X143024457Y-88846956D01*
X143003387Y-88856921D01*
X142981443Y-88864773D01*
X142958834Y-88870437D01*
X142935779Y-88873856D01*
X142912500Y-88875000D01*
X142337500Y-88875000D01*
X142314221Y-88873856D01*
X142291166Y-88870437D01*
X142268557Y-88864773D01*
X142246613Y-88856921D01*
X142225543Y-88846956D01*
X142205552Y-88834974D01*
X142186832Y-88821090D01*
X142169562Y-88805438D01*
X142153910Y-88788168D01*
X142140026Y-88769448D01*
X142128044Y-88749457D01*
X142118079Y-88728387D01*
X142110227Y-88706443D01*
X142104563Y-88683834D01*
X142101144Y-88660779D01*
X142100000Y-88637500D01*
X142100000Y-88162500D01*
X142101144Y-88139221D01*
X142104563Y-88116166D01*
X142110227Y-88093557D01*
X142118079Y-88071613D01*
X142128044Y-88050543D01*
X142140026Y-88030552D01*
X142153910Y-88011832D01*
X142169562Y-87994562D01*
X142186832Y-87978910D01*
X142205552Y-87965026D01*
X142225543Y-87953044D01*
X142246613Y-87943079D01*
X142268557Y-87935227D01*
X142291166Y-87929563D01*
X142314221Y-87926144D01*
X142337500Y-87925000D01*
X142912500Y-87925000D01*
X142935779Y-87926144D01*
X142935779Y-87926144D01*
G37*
D11*
X142625000Y-88400000D03*
D10*
G36*
X144685779Y-87926144D02*
X144708834Y-87929563D01*
X144731443Y-87935227D01*
X144753387Y-87943079D01*
X144774457Y-87953044D01*
X144794448Y-87965026D01*
X144813168Y-87978910D01*
X144830438Y-87994562D01*
X144846090Y-88011832D01*
X144859974Y-88030552D01*
X144871956Y-88050543D01*
X144881921Y-88071613D01*
X144889773Y-88093557D01*
X144895437Y-88116166D01*
X144898856Y-88139221D01*
X144900000Y-88162500D01*
X144900000Y-88637500D01*
X144898856Y-88660779D01*
X144895437Y-88683834D01*
X144889773Y-88706443D01*
X144881921Y-88728387D01*
X144871956Y-88749457D01*
X144859974Y-88769448D01*
X144846090Y-88788168D01*
X144830438Y-88805438D01*
X144813168Y-88821090D01*
X144794448Y-88834974D01*
X144774457Y-88846956D01*
X144753387Y-88856921D01*
X144731443Y-88864773D01*
X144708834Y-88870437D01*
X144685779Y-88873856D01*
X144662500Y-88875000D01*
X144087500Y-88875000D01*
X144064221Y-88873856D01*
X144041166Y-88870437D01*
X144018557Y-88864773D01*
X143996613Y-88856921D01*
X143975543Y-88846956D01*
X143955552Y-88834974D01*
X143936832Y-88821090D01*
X143919562Y-88805438D01*
X143903910Y-88788168D01*
X143890026Y-88769448D01*
X143878044Y-88749457D01*
X143868079Y-88728387D01*
X143860227Y-88706443D01*
X143854563Y-88683834D01*
X143851144Y-88660779D01*
X143850000Y-88637500D01*
X143850000Y-88162500D01*
X143851144Y-88139221D01*
X143854563Y-88116166D01*
X143860227Y-88093557D01*
X143868079Y-88071613D01*
X143878044Y-88050543D01*
X143890026Y-88030552D01*
X143903910Y-88011832D01*
X143919562Y-87994562D01*
X143936832Y-87978910D01*
X143955552Y-87965026D01*
X143975543Y-87953044D01*
X143996613Y-87943079D01*
X144018557Y-87935227D01*
X144041166Y-87929563D01*
X144064221Y-87926144D01*
X144087500Y-87925000D01*
X144662500Y-87925000D01*
X144685779Y-87926144D01*
X144685779Y-87926144D01*
G37*
D11*
X144375000Y-88400000D03*
G04 #@! TD*
D15*
G04 #@! TO.C,U5*
X131750000Y-112200000D03*
D16*
X131750000Y-105900000D03*
X129450000Y-105900000D03*
X134050000Y-105900000D03*
G04 #@! TD*
D10*
G04 #@! TO.C,C31*
G36*
X135010779Y-73626144D02*
X135033834Y-73629563D01*
X135056443Y-73635227D01*
X135078387Y-73643079D01*
X135099457Y-73653044D01*
X135119448Y-73665026D01*
X135138168Y-73678910D01*
X135155438Y-73694562D01*
X135171090Y-73711832D01*
X135184974Y-73730552D01*
X135196956Y-73750543D01*
X135206921Y-73771613D01*
X135214773Y-73793557D01*
X135220437Y-73816166D01*
X135223856Y-73839221D01*
X135225000Y-73862500D01*
X135225000Y-74337500D01*
X135223856Y-74360779D01*
X135220437Y-74383834D01*
X135214773Y-74406443D01*
X135206921Y-74428387D01*
X135196956Y-74449457D01*
X135184974Y-74469448D01*
X135171090Y-74488168D01*
X135155438Y-74505438D01*
X135138168Y-74521090D01*
X135119448Y-74534974D01*
X135099457Y-74546956D01*
X135078387Y-74556921D01*
X135056443Y-74564773D01*
X135033834Y-74570437D01*
X135010779Y-74573856D01*
X134987500Y-74575000D01*
X134412500Y-74575000D01*
X134389221Y-74573856D01*
X134366166Y-74570437D01*
X134343557Y-74564773D01*
X134321613Y-74556921D01*
X134300543Y-74546956D01*
X134280552Y-74534974D01*
X134261832Y-74521090D01*
X134244562Y-74505438D01*
X134228910Y-74488168D01*
X134215026Y-74469448D01*
X134203044Y-74449457D01*
X134193079Y-74428387D01*
X134185227Y-74406443D01*
X134179563Y-74383834D01*
X134176144Y-74360779D01*
X134175000Y-74337500D01*
X134175000Y-73862500D01*
X134176144Y-73839221D01*
X134179563Y-73816166D01*
X134185227Y-73793557D01*
X134193079Y-73771613D01*
X134203044Y-73750543D01*
X134215026Y-73730552D01*
X134228910Y-73711832D01*
X134244562Y-73694562D01*
X134261832Y-73678910D01*
X134280552Y-73665026D01*
X134300543Y-73653044D01*
X134321613Y-73643079D01*
X134343557Y-73635227D01*
X134366166Y-73629563D01*
X134389221Y-73626144D01*
X134412500Y-73625000D01*
X134987500Y-73625000D01*
X135010779Y-73626144D01*
X135010779Y-73626144D01*
G37*
D11*
X134700000Y-74100000D03*
D10*
G36*
X136760779Y-73626144D02*
X136783834Y-73629563D01*
X136806443Y-73635227D01*
X136828387Y-73643079D01*
X136849457Y-73653044D01*
X136869448Y-73665026D01*
X136888168Y-73678910D01*
X136905438Y-73694562D01*
X136921090Y-73711832D01*
X136934974Y-73730552D01*
X136946956Y-73750543D01*
X136956921Y-73771613D01*
X136964773Y-73793557D01*
X136970437Y-73816166D01*
X136973856Y-73839221D01*
X136975000Y-73862500D01*
X136975000Y-74337500D01*
X136973856Y-74360779D01*
X136970437Y-74383834D01*
X136964773Y-74406443D01*
X136956921Y-74428387D01*
X136946956Y-74449457D01*
X136934974Y-74469448D01*
X136921090Y-74488168D01*
X136905438Y-74505438D01*
X136888168Y-74521090D01*
X136869448Y-74534974D01*
X136849457Y-74546956D01*
X136828387Y-74556921D01*
X136806443Y-74564773D01*
X136783834Y-74570437D01*
X136760779Y-74573856D01*
X136737500Y-74575000D01*
X136162500Y-74575000D01*
X136139221Y-74573856D01*
X136116166Y-74570437D01*
X136093557Y-74564773D01*
X136071613Y-74556921D01*
X136050543Y-74546956D01*
X136030552Y-74534974D01*
X136011832Y-74521090D01*
X135994562Y-74505438D01*
X135978910Y-74488168D01*
X135965026Y-74469448D01*
X135953044Y-74449457D01*
X135943079Y-74428387D01*
X135935227Y-74406443D01*
X135929563Y-74383834D01*
X135926144Y-74360779D01*
X135925000Y-74337500D01*
X135925000Y-73862500D01*
X135926144Y-73839221D01*
X135929563Y-73816166D01*
X135935227Y-73793557D01*
X135943079Y-73771613D01*
X135953044Y-73750543D01*
X135965026Y-73730552D01*
X135978910Y-73711832D01*
X135994562Y-73694562D01*
X136011832Y-73678910D01*
X136030552Y-73665026D01*
X136050543Y-73653044D01*
X136071613Y-73643079D01*
X136093557Y-73635227D01*
X136116166Y-73629563D01*
X136139221Y-73626144D01*
X136162500Y-73625000D01*
X136737500Y-73625000D01*
X136760779Y-73626144D01*
X136760779Y-73626144D01*
G37*
D11*
X136450000Y-74100000D03*
G04 #@! TD*
D10*
G04 #@! TO.C,C36*
G36*
X143935779Y-73726144D02*
X143958834Y-73729563D01*
X143981443Y-73735227D01*
X144003387Y-73743079D01*
X144024457Y-73753044D01*
X144044448Y-73765026D01*
X144063168Y-73778910D01*
X144080438Y-73794562D01*
X144096090Y-73811832D01*
X144109974Y-73830552D01*
X144121956Y-73850543D01*
X144131921Y-73871613D01*
X144139773Y-73893557D01*
X144145437Y-73916166D01*
X144148856Y-73939221D01*
X144150000Y-73962500D01*
X144150000Y-74437500D01*
X144148856Y-74460779D01*
X144145437Y-74483834D01*
X144139773Y-74506443D01*
X144131921Y-74528387D01*
X144121956Y-74549457D01*
X144109974Y-74569448D01*
X144096090Y-74588168D01*
X144080438Y-74605438D01*
X144063168Y-74621090D01*
X144044448Y-74634974D01*
X144024457Y-74646956D01*
X144003387Y-74656921D01*
X143981443Y-74664773D01*
X143958834Y-74670437D01*
X143935779Y-74673856D01*
X143912500Y-74675000D01*
X143337500Y-74675000D01*
X143314221Y-74673856D01*
X143291166Y-74670437D01*
X143268557Y-74664773D01*
X143246613Y-74656921D01*
X143225543Y-74646956D01*
X143205552Y-74634974D01*
X143186832Y-74621090D01*
X143169562Y-74605438D01*
X143153910Y-74588168D01*
X143140026Y-74569448D01*
X143128044Y-74549457D01*
X143118079Y-74528387D01*
X143110227Y-74506443D01*
X143104563Y-74483834D01*
X143101144Y-74460779D01*
X143100000Y-74437500D01*
X143100000Y-73962500D01*
X143101144Y-73939221D01*
X143104563Y-73916166D01*
X143110227Y-73893557D01*
X143118079Y-73871613D01*
X143128044Y-73850543D01*
X143140026Y-73830552D01*
X143153910Y-73811832D01*
X143169562Y-73794562D01*
X143186832Y-73778910D01*
X143205552Y-73765026D01*
X143225543Y-73753044D01*
X143246613Y-73743079D01*
X143268557Y-73735227D01*
X143291166Y-73729563D01*
X143314221Y-73726144D01*
X143337500Y-73725000D01*
X143912500Y-73725000D01*
X143935779Y-73726144D01*
X143935779Y-73726144D01*
G37*
D11*
X143625000Y-74200000D03*
D10*
G36*
X145685779Y-73726144D02*
X145708834Y-73729563D01*
X145731443Y-73735227D01*
X145753387Y-73743079D01*
X145774457Y-73753044D01*
X145794448Y-73765026D01*
X145813168Y-73778910D01*
X145830438Y-73794562D01*
X145846090Y-73811832D01*
X145859974Y-73830552D01*
X145871956Y-73850543D01*
X145881921Y-73871613D01*
X145889773Y-73893557D01*
X145895437Y-73916166D01*
X145898856Y-73939221D01*
X145900000Y-73962500D01*
X145900000Y-74437500D01*
X145898856Y-74460779D01*
X145895437Y-74483834D01*
X145889773Y-74506443D01*
X145881921Y-74528387D01*
X145871956Y-74549457D01*
X145859974Y-74569448D01*
X145846090Y-74588168D01*
X145830438Y-74605438D01*
X145813168Y-74621090D01*
X145794448Y-74634974D01*
X145774457Y-74646956D01*
X145753387Y-74656921D01*
X145731443Y-74664773D01*
X145708834Y-74670437D01*
X145685779Y-74673856D01*
X145662500Y-74675000D01*
X145087500Y-74675000D01*
X145064221Y-74673856D01*
X145041166Y-74670437D01*
X145018557Y-74664773D01*
X144996613Y-74656921D01*
X144975543Y-74646956D01*
X144955552Y-74634974D01*
X144936832Y-74621090D01*
X144919562Y-74605438D01*
X144903910Y-74588168D01*
X144890026Y-74569448D01*
X144878044Y-74549457D01*
X144868079Y-74528387D01*
X144860227Y-74506443D01*
X144854563Y-74483834D01*
X144851144Y-74460779D01*
X144850000Y-74437500D01*
X144850000Y-73962500D01*
X144851144Y-73939221D01*
X144854563Y-73916166D01*
X144860227Y-73893557D01*
X144868079Y-73871613D01*
X144878044Y-73850543D01*
X144890026Y-73830552D01*
X144903910Y-73811832D01*
X144919562Y-73794562D01*
X144936832Y-73778910D01*
X144955552Y-73765026D01*
X144975543Y-73753044D01*
X144996613Y-73743079D01*
X145018557Y-73735227D01*
X145041166Y-73729563D01*
X145064221Y-73726144D01*
X145087500Y-73725000D01*
X145662500Y-73725000D01*
X145685779Y-73726144D01*
X145685779Y-73726144D01*
G37*
D11*
X145375000Y-74200000D03*
G04 #@! TD*
M02*
